<?xml version="1.0" standalone="no"?>
<!DOCTYPE svg PUBLIC "-//W3C//DTD SVG 1.1//EN" "http://www.w3.org/Graphics/SVG/1.1/DTD/svg11.dtd" >
<svg xmlns="http://www.w3.org/2000/svg" xmlns:xlink="http://www.w3.org/1999/xlink" version="1.1">
<metadata>
Created by FontForge 20170731 at Thu Nov  4 06:09:54 2021
 By Aleksey,,,
Copyright 2017-2021 Indian Type Foundry. All rights reserved.
</metadata>
<defs>
<font id="Satoshi-MediumItalic" horiz-adv-x="1351" >
  <font-face 
    font-family="Satoshi Medium Italic"
    font-weight="500"
    font-style="italic"
    font-stretch="normal"
    units-per-em="2048"
    panose-1="0 0 0 0 0 0 0 0 0 0"
    ascent="1638"
    descent="-410"
    x-height="1001"
    cap-height="1481"
    bbox="-498 -475 3439 2159"
    underline-thickness="163"
    underline-position="-562"
    slope="-9"
    unicode-range="U+0020-FB04"
  />
<missing-glyph horiz-adv-x="1024" 
d="M102 -449v2218h820v-2218h-820zM205 -346h614v2013h-614v-2013z" />
    <glyph glyph-name="f_f" unicode="ff" horiz-adv-x="1253" 
d="M113 1001h145l27 162q26 168 118 256t242 88q72 0 113 -8l-25 -158h-84q-82 0 -125.5 -41.5t-56.5 -136.5l-27 -162h439l26 162q28 169 119.5 256.5t241.5 87.5q71 0 112 -8l-24 -158h-84q-82 0 -126 -42t-57 -136l-26 -162h233l-24 -155h-234l-133 -846h-182l133 846
h-438l-133 -846h-183l133 846h-145z" />
    <glyph glyph-name="fi" unicode="fi" horiz-adv-x="1124" 
d="M723 0l133 846h-440l-133 -846h-183l133 846h-145l25 155h145l27 162q26 169 117.5 256.5t242.5 87.5q72 0 113 -8l-25 -158h-84q-82 0 -125.5 -41.5t-56.5 -136.5l-27 -162h623l-158 -1001h-182zM1010 1243q-45 0 -75 30t-30 75q0 57 42.5 101t99.5 44q46 0 76 -30
t30 -74q0 -57 -43 -101.5t-100 -44.5z" />
    <glyph glyph-name="fl" unicode="fl" horiz-adv-x="1110" 
d="M887 0h-185l134 846h-420l-133 -846h-183l133 846h-145l25 155h145l27 162q26 168 118 256t242 88q72 0 113 -8l-25 -158h-84q-82 0 -125.5 -41.5t-56.5 -136.5l-27 -162h420l80 506h184z" />
    <glyph glyph-name="f_f_i" unicode="ffi" horiz-adv-x="1744" 
d="M113 1001h145l27 162q26 168 118 256t242 88q72 0 113 -8l-25 -158h-84q-82 0 -125.5 -41.5t-56.5 -136.5l-27 -162h439l26 162q28 169 119.5 256.5t241.5 87.5q71 0 112 -8l-24 -158h-84q-82 0 -126 -42t-57 -136l-26 -162h625l-160 -1001h-183l134 846h-441l-133 -846
h-182l133 846h-438l-133 -846h-183l133 846h-145zM1630 1243q-45 0 -74.5 30t-29.5 75q0 57 42 101t99 44q46 0 76.5 -30t30.5 -74q0 -57 -43.5 -101.5t-100.5 -44.5z" />
    <glyph glyph-name="f_f_l" unicode="ffl" horiz-adv-x="1732" 
d="M113 1001h145l27 162q26 168 118 256t242 88q72 0 113 -8l-25 -158h-84q-82 0 -125.5 -41.5t-56.5 -136.5l-27 -162h439l26 162q28 169 119.5 256.5t241.5 87.5q71 0 112 -8l-24 -158h-84q-82 0 -126 -42t-57 -136l-26 -162h422l80 506h184l-240 -1507h-182l133 846h-422
l-133 -846h-182l133 846h-438l-133 -846h-183l133 846h-145z" />
    <glyph glyph-name="f_t" unicode="ft" horiz-adv-x="1234" 
d="M930 0h-185l136 846h-465l-133 -846h-183l133 846h-145l25 155h145l27 162q26 168 118 256t242 88q72 0 113 -8l-25 -158h-84q-82 0 -125.5 -41.5t-56.5 -136.5l-27 -162h465l49 314h183l-50 -314h193l-25 -155h-192z" />
    <glyph glyph-name=".notdef" horiz-adv-x="1024" 
d="M102 -449v2218h820v-2218h-820zM205 -346h614v2013h-614v-2013z" />
    <glyph glyph-name=".null" horiz-adv-x="0" 
 />
    <glyph glyph-name="nonmarkingreturn" horiz-adv-x="682" 
 />
    <glyph glyph-name="space" unicode=" " horiz-adv-x="548" 
 />
    <glyph glyph-name="exclam" unicode="!" horiz-adv-x="591" 
d="M356 444h-141q7 240 78 691l55 346h209l-55 -346q-69 -442 -146 -691zM211 -25q-53 0 -86 33.5t-33 85.5q0 66 49.5 116t114.5 50q54 0 87.5 -33.5t33.5 -87.5q0 -65 -50 -114.5t-116 -49.5z" />
    <glyph glyph-name="quotedbl" unicode="&#x22;" horiz-adv-x="753" 
d="M446 1358l-114 -424h-107l19 426q1 62 32 94.5t84 32.5q52 0 77.5 -36.5t8.5 -92.5zM782 1358l-114 -424h-107l19 426q1 62 32 94.5t84 32.5q52 0 77.5 -36.5t8.5 -92.5z" />
    <glyph glyph-name="numbersign" unicode="#" horiz-adv-x="1396" 
d="M139 588h201l106 303h-235l63 174h234l145 416h183l-146 -416h311l146 416h182l-145 -416h211l-64 -174h-209l-106 -303h227l-61 -174h-226l-145 -414h-182l145 414h-311l-146 -414h-182l146 414h-203zM522 588h312l106 303h-311z" />
    <glyph glyph-name="dollar" unicode="$" horiz-adv-x="1161" 
d="M412 -199l26 181q-175 25 -275.5 128.5t-115.5 276.5h197q9 -93 65.5 -151.5t153.5 -77.5l76 510l-54 18q-319 102 -319 379q0 198 137.5 320t358.5 122l24 172h127l-27 -184q157 -32 255 -139t108 -262h-195q-9 87 -59 144.5t-135 80.5l-74 -506l86 -29
q152 -49 224.5 -139t72.5 -227q0 -198 -141.5 -321.5t-364.5 -123.5l-24 -172h-127zM553 858l12 -4l70 477q-128 -5 -202.5 -71t-74.5 -175q0 -85 47 -139t148 -88zM702 614l-43 15l-69 -479q133 9 211 77t78 176q0 82 -41 130.5t-136 80.5z" />
    <glyph glyph-name="percent" unicode="%" horiz-adv-x="1871" 
d="M926 1182q0 -110 -56 -206.5t-150.5 -153t-203.5 -56.5q-149 0 -239.5 89t-90.5 237q0 170 121 293.5t287 123.5q149 0 240.5 -89.5t91.5 -237.5zM1735 1481l-1323 -1481h-201l1323 1481h201zM770 1171q0 92 -49 143.5t-135 51.5q-100 0 -173 -78t-73 -188
q0 -90 49 -141.5t135 -51.5q100 0 173 78.5t73 185.5zM1763 391q0 -170 -121 -294t-288 -124q-149 0 -239.5 89t-90.5 237q0 170 121 294t287 124q149 0 240 -89t91 -237zM1610 381q0 91 -49.5 142.5t-135.5 51.5q-101 0 -174 -78.5t-73 -187.5q0 -91 49 -142.5t135 -51.5
q100 0 174 79t74 187z" />
    <glyph glyph-name="ampersand" unicode="&#x26;" horiz-adv-x="1419" 
d="M1102 0l-94 133q-199 -160 -467 -160q-209 0 -339 106.5t-130 278.5q0 157 100.5 269.5t337.5 216.5q-72 105 -99.5 173.5t-27.5 137.5q0 151 107 250.5t268 99.5q141 0 228 -77t87 -201q0 -125 -78.5 -224.5t-255.5 -199.5l285 -406q76 127 102 295h183
q-40 -260 -183 -438l179 -254h-203zM664 911q233 114 233 306q0 63 -41 100t-111 37q-78 0 -132 -55t-54 -134q0 -62 22 -114t83 -140zM268 381q0 -112 81 -179t218 -67q207 0 348 129l-327 467q-171 -78 -245.5 -159.5t-74.5 -190.5z" />
    <glyph glyph-name="quotesingle" unicode="'" horiz-adv-x="417" 
d="M446 1358l-114 -424h-107l19 426q1 62 32 94.5t84 32.5q52 0 77.5 -36.5t8.5 -92.5z" />
    <glyph glyph-name="parenleft" unicode="(" horiz-adv-x="557" 
d="M420 -354h-154q-83 135 -127.5 314t-44.5 376q0 333 125.5 668t337.5 565h168q-201 -232 -325 -574.5t-124 -668.5q0 -197 38.5 -378t105.5 -302z" />
    <glyph glyph-name="parenright" unicode=")" horiz-adv-x="559" 
d="M33 -354h-166q200 232 323 574t123 667q0 198 -38 378.5t-105 303.5h156q82 -136 127 -315t45 -375q0 -334 -126 -668.5t-339 -564.5z" />
    <glyph glyph-name="asterisk" unicode="*" horiz-adv-x="827" 
d="M295 1167l-125 47l53 99l119 -45q93 -34 141 -72q-5 69 11 172l22 141h109l-23 -141q-13 -88 -41 -172q7 4 26.5 15t28.5 15.5l27 13.5t37 16.5t43 15.5l135 43l25 -107l-138 -47q-84 -27 -174 -39q56 -59 95 -133l57 -115l-92 -61l-62 115q-49 87 -61 151
q-33 -65 -107 -153l-96 -113l-90 66l96 114q47 57 138 131q-66 8 -154 43z" />
    <glyph glyph-name="plus" unicode="+" 
d="M217 768h422l68 434h161l-67 -434h420l-27 -156h-418l-69 -436h-162l69 436h-424z" />
    <glyph glyph-name="comma" unicode="," horiz-adv-x="555" 
d="M354 119q0 -115 -87.5 -212t-207.5 -114l15 84q63 14 108 51.5t51 81.5q-21 -12 -55 -12q-45 0 -74.5 28t-29.5 72q0 66 46.5 114t110.5 48q55 0 89 -38.5t34 -102.5z" />
    <glyph glyph-name="hyphen" unicode="-" horiz-adv-x="866" 
d="M123 461l24 164h611l-27 -164h-608z" />
    <glyph glyph-name="period" unicode="." horiz-adv-x="555" 
d="M193 -25q-53 0 -86 33.5t-33 85.5q0 66 49.5 116t114.5 50q55 0 87.5 -33.5t32.5 -87.5q0 -65 -49.5 -114.5t-115.5 -49.5z" />
    <glyph glyph-name="slash" unicode="/" horiz-adv-x="749" 
d="M115 0h-195l791 1481h194z" />
    <glyph glyph-name="zero" unicode="0" horiz-adv-x="1394" 
d="M127 571q0 262 90.5 476.5t250.5 337t357 122.5q246 0 383.5 -160.5t137.5 -437.5q0 -262 -91 -476.5t-251 -337t-357 -122.5q-246 0 -383 160.5t-137 437.5zM317 578q0 -204 88.5 -317.5t256.5 -113.5q139 0 252.5 99.5t177 272.5t63.5 384q0 204 -88 317t-256 113
q-138 0 -251.5 -99.5t-178 -272.5t-64.5 -383z" />
    <glyph glyph-name="one" unicode="1" horiz-adv-x="729" 
d="M500 1309h-303l28 172h492l-234 -1481h-188z" />
    <glyph glyph-name="two" unicode="2" horiz-adv-x="1150" 
d="M989 0h-975l23 150l575 423q184 136 262 253t78 255q0 116 -72 186t-192 70q-136 0 -220.5 -91.5t-109.5 -262.5h-194q37 252 177.5 389t363.5 137q200 0 324 -116.5t124 -305.5q0 -174 -103.5 -328t-334.5 -323l-346 -254h649z" />
    <glyph glyph-name="three" unicode="3" horiz-adv-x="1140" 
d="M549 768h-137l22 131l473 410h-649l27 172h899l-25 -158l-473 -410q170 -25 274.5 -146t104.5 -298q0 -218 -146 -356t-376 -138q-224 0 -359 132.5t-135 353.5h193q0 -144 81 -229t216 -85q149 0 238 87t89 233q0 140 -84.5 220.5t-232.5 80.5z" />
    <glyph glyph-name="four" unicode="4" horiz-adv-x="1286" 
d="M1157 301h-172l-47 -301h-186l47 301h-762l29 172l860 1008h245l-159 -1008h174zM283 473h544l125 782z" />
    <glyph glyph-name="five" unicode="5" horiz-adv-x="1189" 
d="M594 -25q-229 0 -366.5 132.5t-137.5 353.5h193q0 -144 83.5 -230t223.5 -86q143 0 234 98t91 257q0 149 -84 238t-223 89q-178 0 -293 -147l-157 41l297 760h725l-29 -181h-584l-153 -385q104 76 243 76q205 0 332 -132t127 -345q0 -236 -148 -387.5t-374 -151.5z" />
    <glyph glyph-name="six" unicode="6" horiz-adv-x="1245" 
d="M369 1030l405 451h238l-441 -488q76 27 138 27q202 0 328 -126t126 -325q0 -166 -77 -302t-212 -214t-299 -78q-214 0 -352.5 134t-138.5 337q0 155 71.5 290t213.5 294zM285 461q0 -135 86.5 -222t222.5 -87q157 0 263 114t106 281q0 142 -79.5 223.5t-219.5 81.5
q-158 0 -268.5 -113.5t-110.5 -277.5z" />
    <glyph glyph-name="seven" unicode="7" horiz-adv-x="1067" 
d="M172 1481h1032l-26 -181l-748 -1300h-215l748 1300h-820z" />
    <glyph glyph-name="eight" unicode="8" horiz-adv-x="1255" 
d="M76 393q0 150 92 263t242 153q-170 86 -170 283q0 123 67 218.5t183.5 147t263.5 51.5q199 0 328.5 -104.5t129.5 -261.5q0 -134 -74.5 -231t-201.5 -138q102 -40 159.5 -126t57.5 -202q0 -212 -158 -342.5t-407 -130.5q-229 0 -370.5 116.5t-141.5 303.5zM420 1087
q0 -110 81.5 -168.5t215.5 -58.5q139 0 224 69t85 189q0 97 -81 159t-212 62q-137 0 -225 -69.5t-88 -182.5zM266 406q0 -118 92 -189.5t240 -71.5q162 0 263.5 81t101.5 218q0 117 -92 185.5t-246 68.5q-161 0 -260 -78.5t-99 -213.5z" />
    <glyph glyph-name="nine" unicode="9" horiz-adv-x="1245" 
d="M954 451l-405 -451h-240l445 487q-70 -24 -140 -24q-203 0 -329.5 124.5t-126.5 323.5q0 166 77.5 302.5t213 215t299.5 78.5q214 0 352.5 -134.5t138.5 -338.5q0 -154 -71.5 -289t-213.5 -294zM1036 1020q0 136 -86 222.5t-223 86.5q-155 0 -261 -114t-106 -281
q0 -141 79.5 -223t219.5 -82q158 0 267.5 113.5t109.5 277.5z" />
    <glyph glyph-name="colon" unicode=":" horiz-adv-x="595" 
d="M336 743q-54 0 -87.5 33t-33.5 86q0 65 50 114.5t116 49.5q54 0 87.5 -33.5t33.5 -87.5q0 -64 -50.5 -113t-115.5 -49zM213 -25q-53 0 -86 33.5t-33 85.5q0 66 49.5 116t114.5 50q55 0 88 -33.5t33 -87.5q0 -65 -50 -114.5t-116 -49.5z" />
    <glyph glyph-name="semicolon" unicode=";" horiz-adv-x="595" 
d="M336 743q-54 0 -86.5 33t-32.5 86q0 64 49.5 114t114.5 50q54 0 87.5 -33.5t33.5 -87.5q0 -64 -50 -113t-116 -49zM371 119q0 -115 -87.5 -212t-207.5 -114l14 84q63 13 107.5 51t50.5 82q-21 -12 -55 -12q-45 0 -74 28t-29 72q0 66 47 114t111 48q55 0 89 -38.5
t34 -102.5z" />
    <glyph glyph-name="less" unicode="&#x3c;" 
d="M1133 219l-29 -174l-942 365l28 192l1059 365l-28 -191l-854 -278z" />
    <glyph glyph-name="equal" unicode="=" 
d="M240 905h1001l-27 -155h-1001zM172 473h1002l-27 -158h-1002z" />
    <glyph glyph-name="greater" unicode="&#x3e;" 
d="M1163 408l-1061 -363l31 191l854 278l-768 279l31 174l942 -365z" />
    <glyph glyph-name="question" unicode="?" horiz-adv-x="1073" 
d="M547 356h-170l8 50q17 105 81.5 192t192.5 174q132 93 186 168t54 168q0 102 -66.5 162.5t-177.5 60.5q-129 0 -210.5 -79t-98.5 -220h-194q32 221 172.5 349t347.5 128q188 0 307 -110t119 -285q0 -129 -76.5 -238t-233.5 -212q-122 -77 -172 -133t-61 -125zM408 -25
q-51 0 -85 34.5t-34 84.5q0 64 50.5 115t113.5 51q52 0 86 -35t34 -86q0 -63 -50.5 -113.5t-114.5 -50.5z" />
    <glyph glyph-name="at" unicode="@" horiz-adv-x="1863" 
d="M516 436q0 135 98.5 214.5t284.5 94.5l295 23l2 29q12 100 -43 153.5t-162 53.5q-211 0 -235 -175h-152q25 149 130.5 231.5t275.5 82.5q181 0 276.5 -100t69.5 -265l-56 -360q-18 -121 95 -121q75 0 140.5 68.5t104.5 183t39 244.5q0 264 -170.5 427.5t-447.5 163.5
q-173 0 -325.5 -64.5t-261 -176.5t-171.5 -269t-63 -335q0 -281 169.5 -455t444.5 -174q256 0 459 139l47 -106q-226 -158 -520 -158q-159 0 -295.5 56.5t-233 155.5t-151 239t-54.5 303q0 207 73 387t200 307.5t305.5 200.5t382.5 73q160 0 299 -53.5t236.5 -147
t153.5 -226t56 -285.5q0 -180 -54.5 -321.5t-153 -219.5t-224.5 -78q-105 0 -164 48.5t-59 135.5q-52 -89 -140.5 -135.5t-203.5 -46.5q-132 0 -214.5 72t-82.5 186zM688 449q0 -65 43 -100.5t121 -35.5q124 0 208 77t103 208l6 47l-235 -18q-127 -10 -186.5 -54t-59.5 -124
z" />
    <glyph glyph-name="A" unicode="A" horiz-adv-x="1327" 
d="M154 0h-209l764 1481h217l295 -1481h-195l-72 373h-610zM752 1176l-324 -637h496l-125 637q-11 74 -11 81q-20 -50 -36 -81z" />
    <glyph glyph-name="B" unicode="B" horiz-adv-x="1288" 
d="M94 0l234 1481h551q179 0 287 -96.5t108 -256.5q0 -138 -72 -241.5t-203 -153.5q95 -34 145 -109.5t50 -183.5q0 -204 -141.5 -322t-386.5 -118h-572zM840 1307h-346l-76 -482h360q135 0 217 75.5t82 201.5q0 95 -63.5 150t-173.5 55zM754 655h-365l-76 -483h367
q148 0 232.5 71.5t84.5 196.5q0 103 -63 159t-180 56z" />
    <glyph glyph-name="C" unicode="C" horiz-adv-x="1501" 
d="M737 -23q-283 0 -450.5 180.5t-167.5 473.5q0 250 102 450t282.5 312t405.5 112q248 0 407 -139.5t171 -361.5h-203q-20 147 -126.5 231t-264.5 84q-125 0 -232 -51.5t-181 -141.5t-116 -216t-42 -271q0 -216 113.5 -344.5t307.5 -128.5q168 0 282.5 73.5t182.5 229.5
h213q-89 -244 -262.5 -368t-421.5 -124z" />
    <glyph glyph-name="D" unicode="D" horiz-adv-x="1462" 
d="M569 0h-475l234 1481h446q192 0 339 -84t225.5 -231.5t78.5 -334.5q0 -251 -110 -441t-302 -290t-436 -100zM743 1303h-251l-177 -1123h271q281 0 454.5 174t173.5 477q0 214 -125.5 343t-345.5 129z" />
    <glyph glyph-name="E" unicode="E" horiz-adv-x="1175" 
d="M977 0h-883l234 1481h882l-28 -181h-688l-76 -469h620l-26 -174h-623l-76 -477h693z" />
    <glyph glyph-name="F" unicode="F" horiz-adv-x="1116" 
d="M956 631h-569l-100 -631h-193l234 1481h872l-29 -178h-679l-78 -496h571z" />
    <glyph glyph-name="G" unicode="G" horiz-adv-x="1546" 
d="M893 1321q-124 0 -230 -51t-181 -140.5t-117.5 -216.5t-42.5 -274q0 -221 118 -350t320 -129q207 0 340.5 115t165.5 319l8 47h-490l29 172h668l-129 -815h-158l18 203q-71 -102 -199 -164t-276 -62q-281 0 -449.5 179.5t-168.5 476.5q0 250 101.5 449.5t282 312
t406.5 112.5q244 0 401 -128t177 -343h-205q-22 136 -123.5 211.5t-265.5 75.5z" />
    <glyph glyph-name="H" unicode="H" horiz-adv-x="1454" 
d="M287 0h-193l234 1481h192l-100 -641h721l102 641h193l-236 -1481h-190l102 659h-721z" />
    <glyph glyph-name="I" unicode="I" horiz-adv-x="538" 
d="M520 1481l-233 -1481h-193l234 1481h192z" />
    <glyph glyph-name="J" unicode="J" horiz-adv-x="1062" 
d="M31 414l8 69h186l-8 -69q-15 -122 40 -190t169 -68q118 0 182 63t86 199l170 1063h193l-172 -1073q-67 -433 -463 -433q-201 0 -308.5 120.5t-82.5 318.5z" />
    <glyph glyph-name="K" unicode="K" horiz-adv-x="1290" 
d="M520 1481l-131 -828l770 828h240l-586 -631l361 -850h-213l-291 696l-328 -352l-55 -344h-193l234 1481h192z" />
    <glyph glyph-name="L" unicode="L" horiz-adv-x="1050" 
d="M520 1481l-205 -1301h639l-28 -180h-832l234 1481h192z" />
    <glyph glyph-name="M" unicode="M" horiz-adv-x="1730" 
d="M283 0h-189l234 1481h182l305 -1254l696 1254h201l-235 -1481h-189l103 645q47 284 82 436l-594 -1081h-185l-256 1077q-3 -136 -53 -434z" />
    <glyph glyph-name="N" unicode="N" horiz-adv-x="1474" 
d="M287 0h-193l234 1481h192l563 -1157l183 1157h192l-235 -1481h-191l-563 1157z" />
    <glyph glyph-name="O" unicode="O" horiz-adv-x="1570" 
d="M1530 860q0 -183 -61.5 -347t-167 -282t-253 -187t-311.5 -69q-279 0 -450.5 177.5t-171.5 465.5q0 183 61.5 347.5t167 282.5t252.5 187.5t311 69.5q278 0 450.5 -179t172.5 -466zM1327 846q0 217 -118.5 345t-319.5 128q-157 0 -288 -91.5t-206.5 -248.5t-75.5 -344
q0 -216 118 -343.5t319 -127.5q157 0 288.5 91t207 247.5t75.5 343.5z" />
    <glyph glyph-name="P" unicode="P" horiz-adv-x="1259" 
d="M727 528h-356l-84 -528h-193l234 1481h522q194 0 314 -115.5t120 -302.5q0 -240 -153.5 -387.5t-403.5 -147.5zM805 1307h-311l-97 -605h320q172 0 270 92t98 255q0 119 -75.5 188.5t-204.5 69.5z" />
    <glyph glyph-name="Q" unicode="Q" horiz-adv-x="1570" 
d="M1223 -96l-121 168q-173 -97 -365 -97q-279 0 -450.5 177.5t-171.5 465.5q0 183 61.5 347.5t167 282.5t252.5 187.5t311 69.5q278 0 450.5 -179t172.5 -466q0 -207 -77.5 -386.5t-213.5 -303.5l117 -162zM1327 846q0 217 -118.5 345t-319.5 128q-157 0 -288 -91.5
t-206.5 -248.5t-75.5 -344q0 -216 118 -343.5t319 -127.5q128 0 237 59l-159 223l133 107l161 -227q94 95 146.5 230.5t52.5 289.5z" />
    <glyph glyph-name="R" unicode="R" horiz-adv-x="1310" 
d="M287 0h-193l234 1481h540q196 0 313 -108t117 -290q0 -161 -95 -282.5t-263 -175.5l203 -625h-199l-190 588h-375zM494 1307l-88 -545h354q157 0 248.5 83.5t91.5 225.5q0 111 -68.5 173.5t-191.5 62.5h-346z" />
    <glyph glyph-name="S" unicode="S" horiz-adv-x="1161" 
d="M166 1065q0 198 137.5 320t358.5 122q207 0 341 -114t146 -299h-195q-12 112 -91 174.5t-210 62.5q-135 0 -215 -66t-80 -180q0 -85 47 -139t148 -88l219 -74q152 -51 224.5 -140t72.5 -226q0 -198 -143.5 -321.5t-374.5 -123.5q-226 0 -356.5 107t-147.5 307h197
q10 -114 91.5 -175.5t221.5 -61.5q146 0 234 69t88 184q0 82 -41 130.5t-136 80.5l-217 72q-319 102 -319 379z" />
    <glyph glyph-name="T" unicode="T" horiz-adv-x="1122" 
d="M158 1303l26 178h1061l-26 -178h-435l-206 -1303h-193l207 1303h-434z" />
    <glyph glyph-name="U" unicode="U" horiz-adv-x="1431" 
d="M168 532l151 949h191l-150 -949q-28 -172 55.5 -270t256.5 -98q170 0 275 94.5t134 273.5l150 949h192l-153 -959q-41 -262 -199.5 -404.5t-413.5 -142.5q-248 0 -387.5 156t-101.5 401z" />
    <glyph glyph-name="V" unicode="V" horiz-adv-x="1337" 
d="M492 0l-318 1481h197l204 -957q36 -182 48 -276q39 88 135 276l506 957h209l-781 -1481h-200z" />
    <glyph glyph-name="W" unicode="W" horiz-adv-x="2011" 
d="M383 0l-199 1481h193l119 -922q15 -117 20 -264q43 120 109 264l426 922h215l129 -922q15 -113 24 -262q32 100 103 262l417 922h199l-672 -1481h-182l-168 1198l-545 -1198h-188z" />
    <glyph glyph-name="X" unicode="X" horiz-adv-x="1290" 
d="M565 741l-368 740h209l176 -340q55 -107 118 -271l478 611h233l-604 -742l375 -739h-215l-174 334q-45 94 -121 274l-482 -608h-237z" />
    <glyph glyph-name="Y" unicode="Y" horiz-adv-x="1210" 
d="M526 602l-350 879h205l233 -598q27 -78 31 -97q21 42 60 97l419 598h219l-624 -879l-96 -602h-191z" />
    <glyph glyph-name="Z" unicode="Z" horiz-adv-x="1171" 
d="M1018 0h-1022l27 180l956 1120h-766l27 181h1009l-26 -174l-963 -1127h787z" />
    <glyph glyph-name="bracketleft" unicode="[" horiz-adv-x="559" 
d="M209 -8h260l-23 -146h-428l285 1805h426l-22 -148h-261z" />
    <glyph glyph-name="backslash" unicode="\" horiz-adv-x="749" 
d="M334 1481l336 -1481h-176l-336 1481h176z" />
    <glyph glyph-name="bracketright" unicode="]" horiz-adv-x="559" 
d="M-92 -154l24 146h261l237 1511h-260l23 148h428l-285 -1805h-428z" />
    <glyph glyph-name="asciicircum" unicode="^" horiz-adv-x="1005" 
d="M369 819h-172l370 662h181l163 -662h-157l-115 498z" />
    <glyph glyph-name="underscore" unicode="_" horiz-adv-x="1067" 
d="M14 -186l25 149h819l-22 -149h-822z" />
    <glyph glyph-name="grave" unicode="`" horiz-adv-x="501" 
d="M569 1573h-133l-127 268h172z" />
    <glyph glyph-name="a" unicode="a" horiz-adv-x="1073" 
d="M350 -25q-134 0 -215.5 74t-81.5 195q0 152 108.5 243.5t307.5 108.5l313 25l4 26q20 112 -33.5 172t-172.5 60q-231 0 -261 -195h-169q26 164 142.5 254t303.5 90q200 0 300 -107t71 -290l-101 -631h-159l8 164q-51 -87 -149.5 -138t-215.5 -51zM416 121q135 0 226.5 84
t113.5 229l8 53l-256 -20q-133 -10 -200.5 -63.5t-67.5 -143.5q0 -65 46.5 -102t129.5 -37z" />
    <glyph glyph-name="b" unicode="b" horiz-adv-x="1208" 
d="M229 0h-170l238 1507h184l-106 -682q131 203 362 203q177 0 289.5 -124t112.5 -320q0 -130 -40.5 -243.5t-111 -193.5t-168.5 -126t-209 -46q-122 0 -213.5 56t-126.5 153zM319 424q0 -134 70 -209.5t197 -75.5q157 0 262.5 124.5t105.5 309.5q0 132 -71.5 211.5
t-192.5 79.5q-157 0 -264 -127t-107 -313z" />
    <glyph glyph-name="c" unicode="c" horiz-adv-x="1071" 
d="M66 422q0 169 71.5 308t197 218.5t277.5 79.5q183 0 291.5 -96t120.5 -268h-188q-9 94 -70.5 146t-161.5 52q-149 0 -249.5 -123.5t-100.5 -306.5q0 -134 70 -213.5t188 -79.5q98 0 173.5 53.5t109.5 145.5h190q-47 -166 -177 -264.5t-302 -98.5q-199 0 -319.5 122
t-120.5 325z" />
    <glyph glyph-name="d" unicode="d" horiz-adv-x="1206" 
d="M469 -25q-175 0 -288 124.5t-113 320.5q0 173 69 312.5t190 217.5t271 78q121 0 212 -56t126 -153l106 688h185l-238 -1507h-168l13 178q-131 -203 -365 -203zM518 139q156 0 263.5 127.5t107.5 313.5q0 134 -70.5 209t-197.5 75q-155 0 -261 -125t-106 -309
q0 -132 71.5 -211.5t192.5 -79.5z" />
    <glyph glyph-name="e" unicode="e" horiz-adv-x="1085" 
d="M506 -25q-199 0 -319.5 122t-120.5 325q0 169 71.5 308t197 218.5t277.5 79.5q213 0 326.5 -137.5t79.5 -353.5l-10 -70l-762 -2v-33q0 -140 71 -220.5t195 -80.5q99 0 176.5 47t110.5 131h184q-51 -153 -181.5 -243.5t-295.5 -90.5zM604 872q-117 0 -208 -77.5
t-128 -204.5h574q20 127 -46.5 204.5t-191.5 77.5z" />
    <glyph glyph-name="f" unicode="f" horiz-adv-x="632" 
d="M113 1001h145l27 162q26 169 117.5 256.5t242.5 87.5q72 0 113 -8l-25 -160q-13 0 -40 1t-44 1q-82 0 -125.5 -41.5t-56.5 -136.5l-27 -162h234l-25 -155h-233l-133 -846h-183l133 846h-145z" />
    <glyph glyph-name="g" unicode="g" horiz-adv-x="1198" 
d="M70 444q0 161 71 295t195 211.5t272 77.5q114 0 199 -52t119 -142l43 167h170l-152 -962q-40 -254 -173.5 -383t-356.5 -129q-203 0 -330 111t-131 294h184q6 -110 81 -173.5t200 -63.5q139 0 226 81.5t112 235.5l32 205q-60 -91 -153 -140.5t-203 -49.5
q-180 0 -292.5 115.5t-112.5 301.5zM258 457q0 -123 69 -197t183 -74q157 0 263 118t106 296q0 122 -69 193t-189 71q-153 0 -258 -118t-105 -289z" />
    <glyph glyph-name="h" unicode="h" horiz-adv-x="1153" 
d="M242 0h-183l238 1507h184l-104 -665q68 97 149.5 142.5t188.5 45.5q170 0 263.5 -118.5t65.5 -299.5l-98 -612h-182l90 569q23 140 -30.5 216.5t-172.5 76.5q-128 0 -214 -88.5t-111 -245.5z" />
    <glyph glyph-name="i" unicode="i" horiz-adv-x="460" 
d="M348 1243q-46 0 -76 30.5t-30 74.5q0 57 43 101t100 44q45 0 74.5 -29.5t29.5 -74.5q0 -57 -43 -101.5t-98 -44.5zM59 0l160 1001h182l-157 -1001h-185z" />
    <glyph glyph-name="j" unicode="j" horiz-adv-x="456" 
d="M344 1243q-45 0 -74.5 30t-29.5 75q0 57 42 101t99 44q46 0 76 -30t30 -74q0 -57 -43 -101.5t-100 -44.5zM-254 -451l49 166q36 -14 88 -14q65 0 102 41t50 129l180 1130h182l-182 -1148q-25 -160 -107.5 -243t-216.5 -83q-72 0 -145 22z" />
    <glyph glyph-name="k" unicode="k" horiz-adv-x="1017" 
d="M250 0h-184l237 1507h184l-155 -977l512 471h235l-444 -411l274 -590h-200l-215 469l-199 -182z" />
    <glyph glyph-name="l" unicode="l" horiz-adv-x="473" 
d="M250 0h-184l237 1507h184z" />
    <glyph glyph-name="m" unicode="m" horiz-adv-x="1732" 
d="M244 0h-185l160 1001h164l-4 -135q52 76 133.5 119t177.5 43q110 0 183 -54t96 -151q50 95 141.5 150t204.5 55q161 0 249.5 -106t63.5 -269l-102 -653h-183l95 610q19 117 -30.5 184.5t-154.5 67.5q-106 0 -180 -71.5t-94 -194.5l-94 -596h-185l99 612
q19 113 -31.5 181.5t-153.5 68.5q-107 0 -181.5 -71t-94.5 -193z" />
    <glyph glyph-name="n" unicode="n" horiz-adv-x="1155" 
d="M244 0h-185l160 1001h164l-4 -159q66 97 147.5 142.5t190.5 45.5q170 0 263 -118.5t64 -299.5l-96 -612h-184l90 569q23 141 -29.5 217t-171.5 76q-128 0 -214 -89t-111 -245z" />
    <glyph glyph-name="o" unicode="o" horiz-adv-x="1169" 
d="M66 430q0 122 45.5 233t123 191t184.5 127t226 47q204 0 330.5 -126t126.5 -329q0 -163 -77 -301t-210 -217.5t-291 -79.5q-204 0 -331 126t-127 329zM254 442q0 -140 76.5 -221.5t208.5 -81.5q155 0 265.5 123.5t110.5 298.5q0 139 -76.5 221t-207.5 82
q-155 0 -266 -123.5t-111 -298.5z" />
    <glyph glyph-name="p" unicode="p" horiz-adv-x="1206" 
d="M-10 -449l229 1450h168l-14 -176q131 203 364 203q177 0 289.5 -124t112.5 -320q0 -130 -40.5 -243.5t-111 -193.5t-168.5 -126t-209 -46q-122 0 -213.5 56t-126.5 153l-98 -633h-182zM317 424q0 -134 71 -209.5t198 -75.5q156 0 262 125t106 309q0 132 -71.5 211.5
t-192.5 79.5q-157 0 -265 -127t-108 -313z" />
    <glyph glyph-name="q" unicode="q" horiz-adv-x="1208" 
d="M68 420q0 173 69 312.5t190 217.5t271 78q121 0 212 -56t126 -153l47 182h166l-229 -1450h-185l99 627q-131 -203 -365 -203q-175 0 -288 124.5t-113 320.5zM254 430q0 -132 71.5 -211.5t192.5 -79.5q156 0 263.5 127.5t107.5 313.5q0 134 -70.5 209t-197.5 75
q-155 0 -261 -125t-106 -309z" />
    <glyph glyph-name="r" unicode="r" horiz-adv-x="735" 
d="M776 1010l-26 -170h-84q-133 0 -224 -80t-112 -223l-86 -537h-185l160 1001h168l-12 -157q45 81 124 129.5t175 48.5q52 0 102 -12z" />
    <glyph glyph-name="s" unicode="s" horiz-adv-x="897" 
d="M18 287h181q2 -75 56.5 -120.5t145.5 -45.5q94 0 152.5 42.5t58.5 110.5q0 53 -26 83.5t-90 52.5l-166 55q-215 73 -215 260q0 137 103.5 220t273.5 83q159 0 253.5 -85t94.5 -226h-181q-3 166 -180 166q-86 0 -136 -38.5t-50 -105.5q0 -96 125 -141l164 -55
q109 -37 160 -97.5t51 -154.5q0 -143 -109.5 -229.5t-292.5 -86.5q-166 0 -269.5 86.5t-103.5 225.5z" />
    <glyph glyph-name="t" unicode="t" horiz-adv-x="634" 
d="M330 0h-183l134 846h-193l25 155h192l49 314h185l-50 -314h193l-25 -155h-192z" />
    <glyph glyph-name="u" unicode="u" horiz-adv-x="1138" 
d="M895 1001h182l-157 -1001h-166l8 160q-68 -95 -148 -140t-186 -45q-166 0 -256 117.5t-61 298.5l96 610h184l-92 -567q-22 -140 30 -216.5t163 -76.5q127 0 210.5 87.5t108.5 242.5z" />
    <glyph glyph-name="v" unicode="v" horiz-adv-x="1017" 
d="M332 0l-238 1001h187l127 -569q25 -122 43 -235q52 118 114 235l314 569h202l-567 -1001h-182z" />
    <glyph glyph-name="w" unicode="w" horiz-adv-x="1533" 
d="M268 0l-164 1001h185l80 -532q11 -71 26 -233q43 116 99 233l251 532h189l80 -532q12 -95 24 -231q46 115 99 231l252 532h198l-491 -1001h-172l-88 547q-24 150 -27 239q-50 -121 -102 -241l-254 -545h-185z" />
    <glyph glyph-name="x" unicode="x" horiz-adv-x="960" 
d="M164 0h-223l426 496l-267 505h203l195 -378l303 378h219l-424 -505l262 -496h-203l-190 375z" />
    <glyph glyph-name="y" unicode="y" horiz-adv-x="993" 
d="M-106 -446l24 153h123q71 0 124.5 28.5t96.5 112.5l60 113l-228 1040h187l159 -808l418 808h201l-658 -1226q-63 -119 -146 -179.5t-204 -60.5q-86 0 -157 19z" />
    <glyph glyph-name="z" unicode="z" horiz-adv-x="917" 
d="M760 0h-760l23 150l636 696h-526l25 155h762l-27 -153l-637 -694h528z" />
    <glyph glyph-name="braceleft" unicode="{" horiz-adv-x="636" 
d="M119 672l26 153q91 0 145 40.5t64 119.5l72 449q17 106 83 161.5t175 55.5h121l-23 -148h-94q-82 0 -98 -96l-70 -440q-14 -94 -55 -148.5t-123 -81.5q134 -47 109 -207l-70 -444q-6 -41 13.5 -67.5t56.5 -26.5h94l-23 -146h-123q-95 0 -149.5 62t-40.5 153l72 451
q12 79 -28.5 119.5t-133.5 40.5z" />
    <glyph glyph-name="bar" unicode="|" horiz-adv-x="655" 
d="M147 -178l285 1798h146l-285 -1798h-146z" />
    <glyph glyph-name="braceright" unicode="}" horiz-adv-x="634" 
d="M31 -154h-121l22 146h95q82 0 98 96l70 442q14 94 55 148.5t123 81.5q-134 47 -109 207l68 442q7 42 -12 68t-56 26h-94l23 148h120q95 0 150.5 -63t40.5 -154l-70 -449q-12 -80 28.5 -120t133.5 -40l-27 -153q-91 0 -145 -40.5t-64 -119.5l-71 -449q-17 -106 -83 -161.5
t-175 -55.5z" />
    <glyph glyph-name="asciitilde" unicode="~" 
d="M1063 774h154q-26 -162 -102 -245t-197 -83q-55 0 -109 19t-97 45.5t-83.5 53.5t-84 46t-83.5 19q-62 0 -97.5 -39t-50.5 -125h-153q25 155 103 237t200 82q51 0 102.5 -18.5t94 -45.5t83.5 -54t86.5 -45.5t88.5 -18.5q60 0 94 40.5t51 131.5z" />
    <glyph glyph-name="exclamdown" unicode="&#xa1;" horiz-adv-x="591" 
d="M457 1505q54 0 86 -33t32 -86q0 -66 -49 -115.5t-114 -49.5q-54 0 -87.5 33.5t-33.5 86.5q0 66 50 115t116 49zM311 1038h142q-7 -242 -78 -690l-56 -348h-208l55 348q69 440 145 690z" />
    <glyph glyph-name="cent" unicode="&#xa2;" horiz-adv-x="1112" 
d="M414 -2l35 229q-150 34 -237 149t-87 286q0 236 135.5 404t343.5 194l33 221h160l-35 -224q143 -23 227 -116t94 -242h-188q-9 94 -70 146.5t-161 52.5q-150 0 -250.5 -121.5t-100.5 -304.5q0 -134 70 -212.5t188 -78.5q98 0 173.5 53.5t109.5 145.5h190
q-44 -156 -161.5 -253.5t-274.5 -109.5l-35 -219h-159z" />
    <glyph glyph-name="sterling" unicode="&#xa3;" horiz-adv-x="1261" 
d="M666 0h-684l28 180q125 15 209 124t84 255q0 37 -8 111h-197l25 149h145q-26 134 -26 211q0 209 139.5 343t357.5 134q204 0 333.5 -116t141.5 -308h-194q-10 120 -85.5 184t-203.5 64q-133 0 -216 -80.5t-83 -208.5q0 -80 27 -223h479l-25 -149h-430q9 -50 9 -99
q0 -140 -61.5 -244.5t-170.5 -148.5h404q142 0 213 66.5t102 228.5h195q-40 -248 -161 -360.5t-347 -112.5z" />
    <glyph glyph-name="currency" unicode="&#xa4;" horiz-adv-x="1347" 
d="M1085 172l-133 162q-138 -88 -295 -88q-154 0 -272 88l-186 -164l-113 127l186 164q-57 97 -57 223q0 194 127 344l-135 166l131 106l131 -161q133 84 289 84q154 0 272 -88l191 165l110 -126l-188 -166q57 -102 57 -226q0 -187 -123 -336l137 -167zM1026 768
q0 125 -76.5 207t-201.5 82q-157 0 -258 -102t-101 -257q0 -124 77 -205t202 -81q157 0 257.5 102t100.5 254z" />
    <glyph glyph-name="yen" unicode="&#xa5;" horiz-adv-x="1245" 
d="M502 301h-350l22 145h350l23 138h-350l22 145h293l-315 752h206l263 -684l471 684h223l-551 -752h291l-23 -145h-348l-20 -138h346l-23 -145h-348l-47 -301h-182z" />
    <glyph glyph-name="brokenbar" unicode="&#xa6;" horiz-adv-x="657" 
d="M580 1620l-117 -727h-146l115 727h148zM147 -178l117 731h148l-117 -731h-148z" />
    <glyph glyph-name="section" unicode="&#xa7;" horiz-adv-x="950" 
d="M922 770q0 -102 -68 -179t-182 -108q131 -68 131 -209q0 -132 -103 -214.5t-270 -82.5q-160 0 -257 88t-97 234h176q0 -81 52 -128.5t140 -47.5t136.5 38.5t48.5 108.5q0 109 -156 150l-160 45q-209 58 -209 248q0 105 74 178t201 98q-156 71 -156 221q0 135 102 216
t273 81q155 0 253.5 -88.5t98.5 -228.5h-176q0 81 -49.5 127.5t-136.5 46.5q-90 0 -139.5 -39.5t-49.5 -110.5q0 -108 156 -151l158 -45q107 -31 158 -91.5t51 -156.5zM743 764q0 72 -57.5 111.5t-161.5 39.5q-106 0 -173.5 -55t-67.5 -141q0 -72 57.5 -112t161.5 -40
q107 0 174 54.5t67 142.5z" />
    <glyph glyph-name="dieresis" unicode="&#xa8;" horiz-adv-x="804" 
d="M410 1606q-43 0 -70 26.5t-27 69.5q0 56 38.5 95.5t92.5 39.5q43 0 71 -27.5t28 -68.5q0 -54 -39.5 -94.5t-93.5 -40.5zM731 1606q-43 0 -69.5 26.5t-26.5 69.5q0 56 38.5 95.5t92.5 39.5q43 0 70.5 -26.5t27.5 -69.5q0 -54 -39.5 -94.5t-93.5 -40.5z" />
    <glyph glyph-name="copyright" unicode="&#xa9;" horiz-adv-x="1652" 
d="M793 -27q-146 0 -272 51t-215.5 140t-140 215.5t-50.5 273.5q0 138 42 268t119 235.5t178 185.5t226 123.5t256 43.5q148 0 274.5 -50.5t215.5 -140t139.5 -215.5t50.5 -272q0 -172 -66 -330.5t-176.5 -274t-263 -184.5t-317.5 -69zM803 94q139 0 266 58.5t219 156.5
t146.5 233t54.5 283q0 251 -155.5 406t-405.5 155q-184 0 -342 -98t-250 -265.5t-92 -363.5q0 -251 155 -408t404 -157zM489 684q0 198 119 327.5t303 129.5q137 0 225 -77t97 -206h-152q-7 73 -54.5 112.5t-125.5 39.5q-113 0 -187.5 -91t-74.5 -229q0 -101 57 -163
t148 -62q80 0 136 40.5t79 115.5h149q-35 -129 -137.5 -209t-234.5 -80q-152 0 -249.5 98.5t-97.5 253.5z" />
    <glyph glyph-name="guillemotleft" unicode="&#xab;" horiz-adv-x="1331" 
d="M432 0l-350 502l508 499h239l-524 -514l340 -487h-213zM932 0l-350 502l508 499h239l-524 -514l340 -487h-213z" />
    <glyph glyph-name="logicalnot" unicode="&#xac;" 
d="M1163 725l-88 -553h-172l62 395h-803l24 158h977z" />
    <glyph glyph-name="registered" unicode="&#xae;" horiz-adv-x="995" 
d="M553 666q-174 0 -276.5 103t-102.5 267q0 128 59 236.5t164 172.5t232 64q174 0 277.5 -103t103.5 -267q0 -195 -132 -334t-325 -139zM555 731q163 0 272 119.5t109 288.5q0 138 -82 221.5t-227 83.5q-163 0 -272 -119.5t-109 -288.5q0 -137 82.5 -221t226.5 -84z
M469 858h-74l74 471h176q68 0 109 -35t41 -96q0 -107 -117 -151l70 -189h-80l-62 172h-108zM715 1190q0 67 -82 67h-101l-24 -155h102q47 0 76 23.5t29 64.5z" />
    <glyph glyph-name="macron" unicode="&#xaf;" horiz-adv-x="755" 
d="M307 1669l23 137h495l-22 -137h-496z" />
    <glyph glyph-name="degree" unicode="&#xb0;" horiz-adv-x="579" 
d="M662 1282q0 -120 -78.5 -201.5t-196.5 -81.5q-98 0 -163.5 64.5t-65.5 161.5q0 121 77 201.5t195 80.5q100 0 166 -64t66 -161zM543 1270q0 59 -33 93t-90 34q-64 0 -105 -45.5t-41 -114.5q0 -58 33.5 -92.5t89.5 -34.5q64 0 105 45.5t41 114.5z" />
    <glyph glyph-name="plusminus" unicode="&#xb1;" 
d="M231 862h422l58 365h159l-57 -365h420l-25 -155h-420l-57 -365h-162l58 365h-420zM96 0l25 156h1001l-24 -156h-1002z" />
    <glyph glyph-name="twosuperior" unicode="&#xb2;" horiz-adv-x="704" 
d="M682 676h-598l18 106l375 283q160 118 160 256q0 66 -36.5 102.5t-102.5 36.5q-77 0 -127.5 -51t-63.5 -143h-137q26 149 116 234t222 85q120 0 193 -69.5t73 -186.5q0 -190 -213 -352l-235 -176h374z" />
    <glyph glyph-name="threesuperior" unicode="&#xb3;" horiz-adv-x="718" 
d="M238 1126h-52l13 95l278 225h-383l21 125h549l-21 -123l-268 -217q98 -18 157.5 -82.5t59.5 -159.5q0 -142 -95.5 -234.5t-244.5 -92.5q-136 0 -213 80.5t-66 211.5h133q-8 -78 33 -124t117 -46q86 0 143.5 56t57.5 139q0 60 -40.5 99.5t-107.5 45.5q-20 2 -71 2z" />
    <glyph glyph-name="acute" unicode="&#xb4;" horiz-adv-x="503" 
d="M618 1839l-215 -266h-149l176 266h188z" />
    <glyph glyph-name="micro" unicode="&#xb5;" horiz-adv-x="1138" 
d="M162 -446h-185l230 1447h184l-94 -593q-20 -125 34.5 -196t160.5 -71q127 0 210.5 87.5t108.5 242.5l84 530h182l-157 -1001h-166l8 160q-69 -96 -144 -140.5t-180 -44.5q-65 0 -123.5 28t-87.5 73z" />
    <glyph glyph-name="paragraph" unicode="&#xb6;" horiz-adv-x="1185" 
d="M145 1014q0 207 128.5 337t326.5 130h262l-260 -1635h-164l127 807h-86q-147 0 -240.5 104t-93.5 257zM868 -158h-92l258 1639h92z" />
    <glyph glyph-name="periodcentered" unicode="&#xb7;" horiz-adv-x="606" 
d="M281 350q-73 0 -119.5 46.5t-46.5 117.5q0 89 68 157t157 68q73 0 119.5 -46t46.5 -118q0 -90 -67.5 -157.5t-157.5 -67.5z" />
    <glyph glyph-name="cedilla" unicode="&#xb8;" horiz-adv-x="497" 
d="M-66 -369l17 99q65 -35 117 -35q53 0 81.5 21t28.5 59q0 29 -19 45t-53 16q-48 0 -102 -22l-12 59l121 195h63l-8 -60l-64 -98q19 8 52 8q56 0 96.5 -36.5t40.5 -96.5q0 -85 -60 -135.5t-161 -50.5q-83 0 -138 32z" />
    <glyph glyph-name="onesuperior" unicode="&#xb9;" horiz-adv-x="481" 
d="M256 1446h-203l21 125h334l-142 -895h-133z" />
    <glyph glyph-name="guillemotright" unicode="&#xbb;" horiz-adv-x="1331" 
d="M399 1001l351 -501l-508 -500h-240l524 514l-340 487h213zM899 1001l350 -501l-508 -500h-239l524 514l-340 487h213z" />
    <glyph glyph-name="onequarter" unicode="&#xbc;" horiz-adv-x="1267" 
d="M334 1376h-158l17 105h274l-111 -707h-116zM1319 1454l-1165 -1454h-158l1163 1454h160zM958 137h-337l16 103l367 469h155l-69 -463h88l-19 -109h-88l-22 -137h-113zM774 246h201l51 323z" />
    <glyph glyph-name="onehalf" unicode="&#xbd;" horiz-adv-x="1345" 
d="M334 1376h-158l17 105h274l-111 -707h-116zM1319 1454l-1165 -1454h-158l1163 1454h160zM1221 0h-490l14 86l293 231q66 52 93.5 92.5t27.5 94.5q0 50 -28.5 78t-77.5 28q-56 0 -94 -34.5t-48 -94.5h-120q19 114 90 177t180 63q98 0 160.5 -60.5t62.5 -154.5
q0 -76 -40.5 -137t-131.5 -133l-156 -125h281z" />
    <glyph glyph-name="threequarters" unicode="&#xbe;" 
d="M121 999h119q0 -59 34 -94t91 -35t90.5 33t33.5 90q0 59 -41 94t-110 35h-55l12 80l203 168h-287l18 111h439l-17 -105l-200 -170q71 -20 115 -77.5t44 -131.5q0 -103 -70 -170t-180 -67q-106 0 -172.5 66.5t-66.5 172.5zM1403 1454l-1165 -1454h-158l1163 1454h160z
M1042 137h-337l16 103l366 469h156l-69 -463h88l-19 -109h-88l-22 -137h-113zM858 246h203l49 325z" />
    <glyph glyph-name="questiondown" unicode="&#xbf;" horiz-adv-x="1073" 
d="M741 1507q51 0 86 -35t35 -86q0 -63 -51.5 -113t-114.5 -50q-51 0 -86 34t-35 86q0 63 51.5 113.5t114.5 50.5zM604 1126h170l-8 -51q-17 -104 -81.5 -190.5t-192.5 -175.5q-133 -90 -186.5 -165t-53.5 -169q0 -103 66 -164t176 -61q128 0 210 79.5t99 219.5h194
q-32 -220 -172.5 -348t-347.5 -128q-187 0 -306.5 110.5t-119.5 283.5q0 129 76 239t233 211q123 78 173 134.5t61 123.5z" />
    <glyph glyph-name="Agrave" unicode="&#xc0;" horiz-adv-x="1327" 
d="M899 1589h-133l-127 269h172zM154 0h-209l764 1481h217l295 -1481h-195l-72 373h-610zM752 1176l-324 -637h496l-125 637q-11 74 -11 81q-20 -50 -36 -81z" />
    <glyph glyph-name="Aacute" unicode="&#xc1;" horiz-adv-x="1327" 
d="M1124 1858l-213 -269h-149l176 269h186zM154 0h-209l764 1481h217l295 -1481h-195l-72 373h-610zM752 1176l-324 -637h496l-125 637q-11 74 -11 81q-20 -50 -36 -81z" />
    <glyph glyph-name="Acircumflex" unicode="&#xc2;" horiz-adv-x="1327" 
d="M727 1589h-162l209 277h207l121 -277h-146l-84 189zM154 0h-209l764 1481h217l295 -1481h-195l-72 373h-610zM752 1176l-324 -637h496l-125 637q-11 74 -11 81q-20 -50 -36 -81z" />
    <glyph glyph-name="Atilde" unicode="&#xc3;" horiz-adv-x="1327" 
d="M653 1614h-123q9 116 62 182t133 66q41 0 77 -18t58 -39.5t52.5 -39.5t60.5 -18q39 0 58.5 27.5t27.5 87.5h123q-12 -120 -62.5 -184t-138.5 -64q-43 0 -80.5 18t-59.5 39.5t-50 39.5t-54 18q-37 0 -56.5 -27.5t-27.5 -87.5zM154 0h-209l764 1481h217l295 -1481h-195
l-72 373h-610zM752 1176l-324 -637h496l-125 637q-11 74 -11 81q-20 -50 -36 -81z" />
    <glyph glyph-name="Adieresis" unicode="&#xc4;" horiz-adv-x="1327" 
d="M680 1622q-43 0 -70.5 26.5t-27.5 69.5q0 56 39.5 96.5t93.5 40.5q42 0 70 -28t28 -70q0 -54 -39.5 -94.5t-93.5 -40.5zM1001 1622q-44 0 -71 26.5t-27 69.5q0 56 39.5 96.5t93.5 40.5q42 0 69.5 -27.5t27.5 -70.5q0 -54 -39 -94.5t-93 -40.5zM154 0h-209l764 1481h217
l295 -1481h-195l-72 373h-610zM752 1176l-324 -637h496l-125 637q-11 74 -11 81q-20 -50 -36 -81z" />
    <glyph glyph-name="Aring" unicode="&#xc5;" horiz-adv-x="1327" 
d="M840 1575q-92 0 -149.5 56t-57.5 145q0 117 75.5 195.5t188.5 78.5q92 0 151.5 -58t59.5 -147q0 -114 -77 -192t-191 -78zM852 1688q57 0 96 42t39 103q0 47 -27.5 75.5t-72.5 28.5q-57 0 -96 -42t-39 -103q0 -47 27.5 -75.5t72.5 -28.5zM154 0h-209l764 1481h217
l295 -1481h-195l-72 373h-610zM752 1176l-324 -637h496l-125 637q-11 74 -11 81q-20 -50 -36 -81z" />
    <glyph glyph-name="AE" unicode="&#xc6;" horiz-adv-x="1837" 
d="M-66 0l816 1481h1122l-27 -181h-688l-74 -469h621l-29 -174h-618l-76 -477h686l-29 -180h-878l63 401h-454l-217 -401h-218zM459 569h391l115 731h-111z" />
    <glyph glyph-name="Ccedilla" unicode="&#xc7;" horiz-adv-x="1501" 
d="M532 -369l17 99q65 -35 117 -35q53 0 81.5 21t28.5 59q0 29 -19.5 45t-54.5 16q-46 0 -100 -22l-12 59l67 109q-249 26 -393.5 202.5t-144.5 446.5q0 250 102 450t282.5 312t405.5 112q248 0 407 -139.5t171 -361.5h-203q-20 147 -126.5 231t-264.5 84q-125 0 -232 -51.5
t-181 -141.5t-116 -216t-42 -271q0 -216 113.5 -344.5t307.5 -128.5q168 0 282.5 73.5t182.5 229.5h213q-89 -243 -261 -367.5t-415 -124.5l-43 -67q19 8 52 8q56 0 96.5 -36.5t40.5 -96.5q0 -85 -60 -135.5t-161 -50.5q-83 0 -138 32z" />
    <glyph glyph-name="Egrave" unicode="&#xc8;" horiz-adv-x="1175" 
d="M844 1589h-135l-125 269h172zM977 0h-883l234 1481h882l-28 -181h-688l-76 -469h620l-26 -174h-623l-76 -477h693z" />
    <glyph glyph-name="Eacute" unicode="&#xc9;" horiz-adv-x="1175" 
d="M1069 1858l-215 -269h-149l178 269h186zM977 0h-883l234 1481h882l-28 -181h-688l-76 -469h620l-26 -174h-623l-76 -477h693z" />
    <glyph glyph-name="Ecircumflex" unicode="&#xca;" horiz-adv-x="1175" 
d="M670 1589h-160l207 277h209l121 -277h-148l-84 189zM977 0h-883l234 1481h882l-28 -181h-688l-76 -469h620l-26 -174h-623l-76 -477h693z" />
    <glyph glyph-name="Edieresis" unicode="&#xcb;" horiz-adv-x="1175" 
d="M625 1622q-44 0 -71.5 26.5t-27.5 69.5q0 56 38.5 96.5t92.5 40.5q43 0 71 -28.5t28 -69.5q0 -54 -39.5 -94.5t-91.5 -40.5zM944 1622q-43 0 -69.5 26.5t-26.5 69.5q0 56 38.5 96.5t92.5 40.5q43 0 70.5 -27.5t27.5 -70.5q0 -55 -39 -95t-94 -40zM977 0h-883l234 1481
h882l-28 -181h-688l-76 -469h620l-26 -174h-623l-76 -477h693z" />
    <glyph glyph-name="Igrave" unicode="&#xcc;" horiz-adv-x="538" 
d="M506 1589h-135l-125 269h172zM520 1481l-233 -1481h-193l234 1481h192z" />
    <glyph glyph-name="Iacute" unicode="&#xcd;" horiz-adv-x="538" 
d="M731 1858l-215 -269h-147l176 269h186zM520 1481l-233 -1481h-193l234 1481h192z" />
    <glyph glyph-name="Icircumflex" unicode="&#xce;" horiz-adv-x="538" 
d="M334 1589h-162l207 277h209l121 -277h-146l-86 189zM520 1481l-233 -1481h-193l234 1481h192z" />
    <glyph glyph-name="Idieresis" unicode="&#xcf;" horiz-adv-x="538" 
d="M287 1622q-44 0 -71.5 26.5t-27.5 69.5q0 56 39.5 96.5t94.5 40.5q41 0 68.5 -28.5t27.5 -69.5q0 -54 -38.5 -94.5t-92.5 -40.5zM608 1622q-44 0 -71 26.5t-27 69.5q0 55 39 96t92 41q43 0 70.5 -27.5t27.5 -70.5q0 -54 -38.5 -94.5t-92.5 -40.5zM520 1481l-233 -1481
h-193l234 1481h192z" />
    <glyph glyph-name="Eth" unicode="&#xd0;" horiz-adv-x="1462" 
d="M569 0h-475l105 659h-138l27 164h135l105 658h446q192 0 339 -84t225.5 -231.5t78.5 -334.5q0 -251 -110 -441t-302 -290t-436 -100zM698 659h-307l-76 -479h271q281 0 454.5 174t173.5 477q0 214 -125.5 343t-345.5 129h-251l-76 -480h307z" />
    <glyph glyph-name="Ntilde" unicode="&#xd1;" horiz-adv-x="1474" 
d="M733 1614h-121q9 116 61 182t132 66q41 0 77.5 -18t58.5 -39.5t52 -39.5t60 -18q40 0 60 27.5t28 87.5h121q-25 -248 -199 -248q-44 0 -81.5 18t-60 39.5t-50.5 39.5t-54 18q-37 0 -56.5 -27.5t-27.5 -87.5zM287 0h-193l234 1481h192l563 -1157l183 1157h192l-235 -1481
h-191l-563 1157z" />
    <glyph glyph-name="Ograve" unicode="&#xd2;" horiz-adv-x="1570" 
d="M1010 1591h-133l-127 269h172zM1530 860q0 -183 -61.5 -347t-167 -282t-253 -187t-311.5 -69q-279 0 -450.5 177.5t-171.5 465.5q0 183 61.5 347.5t167 282.5t252.5 187.5t311 69.5q278 0 450.5 -179t172.5 -466zM1327 846q0 217 -118.5 345t-319.5 128
q-157 0 -288 -91.5t-206.5 -248.5t-75.5 -344q0 -216 118 -343.5t319 -127.5q157 0 288.5 91t207 247.5t75.5 343.5z" />
    <glyph glyph-name="Oacute" unicode="&#xd3;" horiz-adv-x="1570" 
d="M1235 1858l-213 -267h-150l177 267h186zM1530 860q0 -183 -61.5 -347t-167 -282t-253 -187t-311.5 -69q-279 0 -450.5 177.5t-171.5 465.5q0 183 61.5 347.5t167 282.5t252.5 187.5t311 69.5q278 0 450.5 -179t172.5 -466zM1327 846q0 217 -118.5 345t-319.5 128
q-157 0 -288 -91.5t-206.5 -248.5t-75.5 -344q0 -216 118 -343.5t319 -127.5q157 0 288.5 91t207 247.5t75.5 343.5z" />
    <glyph glyph-name="Ocircumflex" unicode="&#xd4;" horiz-adv-x="1570" 
d="M838 1591h-162l209 277h207l120 -277h-145l-84 189zM1530 860q0 -183 -61.5 -347t-167 -282t-253 -187t-311.5 -69q-279 0 -450.5 177.5t-171.5 465.5q0 183 61.5 347.5t167 282.5t252.5 187.5t311 69.5q278 0 450.5 -179t172.5 -466zM1327 846q0 217 -118.5 345
t-319.5 128q-157 0 -288 -91.5t-206.5 -248.5t-75.5 -344q0 -216 118 -343.5t319 -127.5q157 0 288.5 91t207 247.5t75.5 343.5z" />
    <glyph glyph-name="Otilde" unicode="&#xd5;" horiz-adv-x="1570" 
d="M764 1616h-123q9 115 62 181.5t133 66.5q41 0 77 -18t57.5 -39.5t52 -39.5t60.5 -18q39 0 58.5 27t27.5 88h123q-25 -248 -198 -248q-44 0 -81.5 18t-60 39.5t-50.5 39.5t-54 18q-37 0 -56.5 -28t-27.5 -87zM1530 860q0 -183 -61.5 -347t-167 -282t-253 -187t-311.5 -69
q-279 0 -450.5 177.5t-171.5 465.5q0 183 61.5 347.5t167 282.5t252.5 187.5t311 69.5q278 0 450.5 -179t172.5 -466zM1327 846q0 217 -118.5 345t-319.5 128q-157 0 -288 -91.5t-206.5 -248.5t-75.5 -344q0 -216 118 -343.5t319 -127.5q157 0 288.5 91t207 247.5
t75.5 343.5z" />
    <glyph glyph-name="Odieresis" unicode="&#xd6;" horiz-adv-x="1570" 
d="M791 1624q-43 0 -71 27t-28 69q0 55 39.5 95t93.5 40q43 0 71 -27.5t28 -68.5q0 -55 -39.5 -95t-93.5 -40zM1112 1624q-44 0 -70 26.5t-26 69.5q0 56 38.5 95.5t92.5 39.5q41 0 68.5 -27.5t27.5 -68.5q0 -56 -38.5 -95.5t-92.5 -39.5zM1530 860q0 -183 -61.5 -347
t-167 -282t-253 -187t-311.5 -69q-279 0 -450.5 177.5t-171.5 465.5q0 183 61.5 347.5t167 282.5t252.5 187.5t311 69.5q278 0 450.5 -179t172.5 -466zM1327 846q0 217 -118.5 345t-319.5 128q-157 0 -288 -91.5t-206.5 -248.5t-75.5 -344q0 -216 118 -343.5t319 -127.5
q157 0 288.5 91t207 247.5t75.5 343.5z" />
    <glyph glyph-name="multiply" unicode="&#xd7;" 
d="M430 1161l287 -358l407 358l105 -114l-416 -367l289 -361l-121 -100l-287 356l-407 -358l-107 115l418 366l-291 363z" />
    <glyph glyph-name="Oslash" unicode="&#xd8;" horiz-adv-x="1570" 
d="M1530 860q0 -183 -61.5 -347t-167 -282t-253 -187t-311.5 -69q-235 0 -393 127l-92 -102h-186l180 201q-131 170 -131 417q0 183 61.5 347.5t167 282.5t252.5 187.5t311 69.5q239 0 400 -133l98 109h182l-186 -207q129 -171 129 -414zM319 635q0 -161 70 -279l785 869
q-114 94 -285 94q-157 0 -288 -91.5t-206.5 -248.5t-75.5 -344zM1327 846q0 160 -65 272l-783 -866q111 -88 277 -88q157 0 288.5 91t207 247.5t75.5 343.5z" />
    <glyph glyph-name="Ugrave" unicode="&#xd9;" horiz-adv-x="1431" 
d="M954 1589h-135l-125 269h172zM168 532l151 949h191l-150 -949q-28 -172 55.5 -270t256.5 -98q170 0 275 94.5t134 273.5l150 949h192l-153 -959q-41 -262 -199.5 -404.5t-413.5 -142.5q-248 0 -387.5 156t-101.5 401z" />
    <glyph glyph-name="Uacute" unicode="&#xda;" horiz-adv-x="1431" 
d="M1180 1858l-215 -269h-150l178 269h187zM168 532l151 949h191l-150 -949q-28 -172 55.5 -270t256.5 -98q170 0 275 94.5t134 273.5l150 949h192l-153 -959q-41 -262 -199.5 -404.5t-413.5 -142.5q-248 0 -387.5 156t-101.5 401z" />
    <glyph glyph-name="Ucircumflex" unicode="&#xdb;" horiz-adv-x="1431" 
d="M780 1589h-159l206 277h209l121 -277h-147l-84 189zM168 532l151 949h191l-150 -949q-28 -172 55.5 -270t256.5 -98q170 0 275 94.5t134 273.5l150 949h192l-153 -959q-41 -262 -199.5 -404.5t-413.5 -142.5q-248 0 -387.5 156t-101.5 401z" />
    <glyph glyph-name="Udieresis" unicode="&#xdc;" horiz-adv-x="1431" 
d="M735 1622q-44 0 -71 26.5t-27 69.5q0 56 38.5 96.5t92.5 40.5q42 0 70 -28t28 -70q0 -54 -39.5 -94.5t-91.5 -40.5zM1055 1622q-43 0 -70 26.5t-27 69.5q0 55 39.5 96t92.5 41q43 0 70.5 -27.5t27.5 -70.5q0 -55 -39 -95t-94 -40zM168 532l151 949h191l-150 -949
q-28 -172 55.5 -270t256.5 -98q170 0 275 94.5t134 273.5l150 949h192l-153 -959q-41 -262 -199.5 -404.5t-413.5 -142.5q-248 0 -387.5 156t-101.5 401z" />
    <glyph glyph-name="Yacute" unicode="&#xdd;" horiz-adv-x="1210" 
d="M1063 1858l-215 -269h-150l176 269h189zM526 602l-350 879h205l233 -598q27 -78 31 -97q21 42 60 97l419 598h219l-624 -879l-96 -602h-191z" />
    <glyph glyph-name="Thorn" unicode="&#xde;" horiz-adv-x="1257" 
d="M684 291h-352l-45 -291h-193l234 1481h192l-45 -281h332q194 0 314 -111.5t120 -295.5q0 -229 -151.5 -365.5t-405.5 -136.5zM762 1026h-313l-89 -561h314q175 0 271.5 82t96.5 231q0 115 -76 181.5t-204 66.5z" />
    <glyph glyph-name="germandbls" unicode="&#xdf;" horiz-adv-x="1159" 
d="M244 0h-185l168 1057q35 217 156 333.5t332 116.5q169 0 274 -96.5t105 -243.5q0 -122 -63.5 -209.5t-170.5 -128.5q113 -36 175.5 -126.5t62.5 -206.5q0 -222 -153 -359t-404 -137q-131 0 -187 12l25 158h170q163 0 262.5 88t99.5 234q0 120 -80 188t-215 68h-96l25 153
h96q117 0 192.5 71t75.5 181q0 91 -56 145t-148 54q-123 0 -197 -72.5t-96 -208.5z" />
    <glyph glyph-name="agrave" unicode="&#xe0;" horiz-adv-x="1073" 
d="M711 1118h-133l-127 268h172zM350 -25q-134 0 -215.5 74t-81.5 195q0 152 108.5 243.5t307.5 108.5l313 25l4 26q20 112 -33.5 172t-172.5 60q-231 0 -261 -195h-169q26 164 142.5 254t303.5 90q200 0 300 -107t71 -290l-101 -631h-159l8 164q-51 -87 -149.5 -138
t-215.5 -51zM416 121q135 0 226.5 84t113.5 229l8 53l-256 -20q-133 -10 -200.5 -63.5t-67.5 -143.5q0 -65 46.5 -102t129.5 -37z" />
    <glyph glyph-name="aacute" unicode="&#xe1;" horiz-adv-x="1073" 
d="M936 1386l-213 -268h-150l177 268h186zM350 -25q-134 0 -215.5 74t-81.5 195q0 152 108.5 243.5t307.5 108.5l313 25l4 26q20 112 -33.5 172t-172.5 60q-231 0 -261 -195h-169q26 164 142.5 254t303.5 90q200 0 300 -107t71 -290l-101 -631h-159l8 164
q-51 -87 -149.5 -138t-215.5 -51zM416 121q135 0 226.5 84t113.5 229l8 53l-256 -20q-133 -10 -200.5 -63.5t-67.5 -143.5q0 -65 46.5 -102t129.5 -37z" />
    <glyph glyph-name="acircumflex" unicode="&#xe2;" horiz-adv-x="1073" 
d="M539 1118h-162l209 277h207l120 -277h-145l-84 189zM350 -25q-134 0 -215.5 74t-81.5 195q0 152 108.5 243.5t307.5 108.5l313 25l4 26q20 112 -33.5 172t-172.5 60q-231 0 -261 -195h-169q26 164 142.5 254t303.5 90q200 0 300 -107t71 -290l-101 -631h-159l8 164
q-51 -87 -149.5 -138t-215.5 -51zM416 121q135 0 226.5 84t113.5 229l8 53l-256 -20q-133 -10 -200.5 -63.5t-67.5 -143.5q0 -65 46.5 -102t129.5 -37z" />
    <glyph glyph-name="atilde" unicode="&#xe3;" horiz-adv-x="1073" 
d="M465 1143h-123q9 116 62 182t133 66q41 0 77 -18t57.5 -39.5t52 -39.5t60.5 -18q39 0 58.5 27.5t27.5 87.5h123q-12 -120 -62 -184t-136 -64q-44 0 -81.5 18t-60 39t-50.5 39t-54 18q-38 0 -57 -27t-27 -87zM350 -25q-134 0 -215.5 74t-81.5 195q0 152 108.5 243.5
t307.5 108.5l313 25l4 26q20 112 -33.5 172t-172.5 60q-231 0 -261 -195h-169q26 164 142.5 254t303.5 90q200 0 300 -107t71 -290l-101 -631h-159l8 164q-51 -87 -149.5 -138t-215.5 -51zM416 121q135 0 226.5 84t113.5 229l8 53l-256 -20q-133 -10 -200.5 -63.5
t-67.5 -143.5q0 -65 46.5 -102t129.5 -37z" />
    <glyph glyph-name="adieresis" unicode="&#xe4;" horiz-adv-x="1073" 
d="M492 1151q-43 0 -71 27t-28 69q0 56 39.5 96.5t93.5 40.5q42 0 70.5 -28t28.5 -70q0 -54 -39.5 -94.5t-93.5 -40.5zM813 1151q-44 0 -70 26.5t-26 69.5q0 56 38.5 96.5t92.5 40.5q41 0 68.5 -27.5t27.5 -70.5q0 -54 -38.5 -94.5t-92.5 -40.5zM350 -25q-134 0 -215.5 74
t-81.5 195q0 152 108.5 243.5t307.5 108.5l313 25l4 26q20 112 -33.5 172t-172.5 60q-231 0 -261 -195h-169q26 164 142.5 254t303.5 90q200 0 300 -107t71 -290l-101 -631h-159l8 164q-51 -87 -149.5 -138t-215.5 -51zM416 121q135 0 226.5 84t113.5 229l8 53l-256 -20
q-133 -10 -200.5 -63.5t-67.5 -143.5q0 -65 46.5 -102t129.5 -37z" />
    <glyph glyph-name="aring" unicode="&#xe5;" horiz-adv-x="1073" 
d="M651 1104q-92 0 -149.5 56t-57.5 145q0 117 76 195.5t189 78.5q92 0 151.5 -58t59.5 -147q0 -114 -77.5 -192t-191.5 -78zM664 1217q57 0 96 42t39 103q0 47 -28 75.5t-73 28.5q-57 0 -96 -42t-39 -103q0 -47 28 -75.5t73 -28.5zM350 -25q-134 0 -215.5 74t-81.5 195
q0 152 108.5 243.5t307.5 108.5l313 25l4 26q20 112 -33.5 172t-172.5 60q-231 0 -261 -195h-169q26 164 142.5 254t303.5 90q200 0 300 -107t71 -290l-101 -631h-159l8 164q-51 -87 -149.5 -138t-215.5 -51zM416 121q135 0 226.5 84t113.5 229l8 53l-256 -20
q-133 -10 -200.5 -63.5t-67.5 -143.5q0 -65 46.5 -102t129.5 -37z" />
    <glyph glyph-name="ae" unicode="&#xe6;" horiz-adv-x="1767" 
d="M53 244q0 294 414 325l313 27l8 51q19 110 -35.5 171t-172.5 61q-231 0 -261 -195h-169q26 164 142.5 254t303.5 90q250 0 330 -166q147 166 370 166q212 0 326 -137t80 -354l-12 -70l-762 -2v-33q0 -140 72 -220.5t196 -80.5q100 0 176.5 47.5t110.5 130.5h184
q-51 -152 -181 -243t-296 -91q-145 0 -244.5 65t-144.5 185q-62 -119 -173.5 -184.5t-260.5 -65.5q-146 0 -230 72.5t-84 196.5zM1288 872q-117 0 -208 -77t-130 -205h576q20 126 -46 204t-192 78zM240 260q0 -65 48 -102t128 -37q135 0 226 83t114 228l6 31l-258 -21
q-137 -12 -200.5 -54t-63.5 -128z" />
    <glyph glyph-name="ccedilla" unicode="&#xe7;" horiz-adv-x="1071" 
d="M66 422q0 169 71.5 308t197 218.5t277.5 79.5q183 0 291.5 -96t120.5 -268h-188q-9 94 -70.5 146t-161.5 52q-149 0 -249.5 -123.5t-100.5 -306.5q0 -134 70 -213.5t188 -79.5q98 0 173.5 53.5t109.5 145.5h190q-46 -162 -171.5 -260t-293.5 -103l-41 -65q19 8 51 8
q56 0 97 -36.5t41 -96.5q0 -84 -61 -135t-161 -51q-85 0 -137 32l17 99q65 -35 116 -35q53 0 82 21t29 59q0 29 -19.5 45t-54.5 16q-46 0 -100 -22l-12 59l65 107q-169 23 -267.5 141t-98.5 301z" />
    <glyph glyph-name="egrave" unicode="&#xe8;" horiz-adv-x="1085" 
d="M692 1118h-135l-127 268h174zM506 -25q-199 0 -319.5 122t-120.5 325q0 169 71.5 308t197 218.5t277.5 79.5q213 0 326.5 -137.5t79.5 -353.5l-10 -70l-762 -2v-33q0 -140 71 -220.5t195 -80.5q99 0 176.5 47t110.5 131h184q-51 -153 -181.5 -243.5t-295.5 -90.5z
M604 872q-117 0 -208 -77.5t-128 -204.5h574q20 127 -46.5 204.5t-191.5 77.5z" />
    <glyph glyph-name="eacute" unicode="&#xe9;" horiz-adv-x="1085" 
d="M918 1386l-216 -268h-149l176 268h189zM506 -25q-199 0 -319.5 122t-120.5 325q0 169 71.5 308t197 218.5t277.5 79.5q213 0 326.5 -137.5t79.5 -353.5l-10 -70l-762 -2v-33q0 -140 71 -220.5t195 -80.5q99 0 176.5 47t110.5 131h184q-51 -153 -181.5 -243.5
t-295.5 -90.5zM604 872q-117 0 -208 -77.5t-128 -204.5h574q20 127 -46.5 204.5t-191.5 77.5z" />
    <glyph glyph-name="ecircumflex" unicode="&#xea;" horiz-adv-x="1085" 
d="M518 1118h-162l209 277h207l121 -277h-145l-84 189zM506 -25q-199 0 -319.5 122t-120.5 325q0 169 71.5 308t197 218.5t277.5 79.5q213 0 326.5 -137.5t79.5 -353.5l-10 -70l-762 -2v-33q0 -140 71 -220.5t195 -80.5q99 0 176.5 47t110.5 131h184q-51 -153 -181.5 -243.5
t-295.5 -90.5zM604 872q-117 0 -208 -77.5t-128 -204.5h574q20 127 -46.5 204.5t-191.5 77.5z" />
    <glyph glyph-name="edieresis" unicode="&#xeb;" horiz-adv-x="1085" 
d="M471 1151q-43 0 -69.5 26.5t-26.5 69.5q0 56 38.5 96.5t92.5 40.5q42 0 70 -28t28 -70q0 -54 -39.5 -94.5t-93.5 -40.5zM793 1151q-43 0 -70 26.5t-27 69.5q0 56 38.5 96.5t92.5 40.5q43 0 71 -27.5t28 -70.5q0 -54 -39.5 -94.5t-93.5 -40.5zM506 -25q-199 0 -319.5 122
t-120.5 325q0 169 71.5 308t197 218.5t277.5 79.5q213 0 326.5 -137.5t79.5 -353.5l-10 -70l-762 -2v-33q0 -140 71 -220.5t195 -80.5q99 0 176.5 47t110.5 131h184q-51 -153 -181.5 -243.5t-295.5 -90.5zM604 872q-117 0 -208 -77.5t-128 -204.5h574q20 127 -46.5 204.5
t-191.5 77.5z" />
    <glyph glyph-name="igrave" unicode="&#xec;" horiz-adv-x="460" 
d="M395 1118h-135l-127 268h172zM59 0l160 1001h182l-157 -1001h-185z" />
    <glyph glyph-name="iacute" unicode="&#xed;" horiz-adv-x="460" 
d="M621 1386l-215 -268h-150l176 268h189zM59 0l160 1001h182l-157 -1001h-185z" />
    <glyph glyph-name="icircumflex" unicode="&#xee;" horiz-adv-x="460" 
d="M221 1118h-162l209 277h207l121 -277h-145l-84 189zM59 0l160 1001h182l-157 -1001h-185z" />
    <glyph glyph-name="idieresis" unicode="&#xef;" horiz-adv-x="460" 
d="M174 1151q-43 0 -69.5 26.5t-26.5 69.5q0 56 38.5 96.5t92.5 40.5q42 0 70 -28t28 -70q0 -54 -39.5 -94.5t-93.5 -40.5zM496 1151q-43 0 -70 26.5t-27 69.5q0 56 38.5 96.5t92.5 40.5q43 0 71 -27.5t28 -70.5q0 -54 -39.5 -94.5t-93.5 -40.5zM59 0l160 1001h182
l-157 -1001h-185z" />
    <glyph glyph-name="eth" unicode="&#xf0;" horiz-adv-x="1179" 
d="M68 432q0 156 75.5 288t204.5 209t281 77q98 0 183.5 -40t137.5 -112q-40 176 -166 383l-235 -98l-41 112l211 90q-38 53 -131 168h200q36 -41 80 -104l181 78l38 -117l-149 -63q190 -314 190 -592q0 -328 -160.5 -532t-420.5 -204q-218 0 -348.5 126.5t-130.5 330.5z
M254 438q0 -131 79 -215t212 -84q158 0 268.5 119t110.5 291q0 131 -79.5 212t-215.5 81q-157 0 -266 -117.5t-109 -286.5z" />
    <glyph glyph-name="ntilde" unicode="&#xf1;" horiz-adv-x="1155" 
d="M504 1143h-121q9 116 60.5 182t131.5 66q41 0 77.5 -18t58.5 -39.5t52 -39.5t60 -18q40 0 60 27.5t28 87.5h121q-25 -248 -198 -248q-44 0 -81.5 18t-60 39t-50.5 39t-54 18q-38 0 -57 -27t-27 -87zM244 0h-185l160 1001h164l-4 -159q66 97 147.5 142.5t190.5 45.5
q170 0 263 -118.5t64 -299.5l-96 -612h-184l90 569q23 141 -29.5 217t-171.5 76q-128 0 -214 -89t-111 -245z" />
    <glyph glyph-name="ograve" unicode="&#xf2;" horiz-adv-x="1169" 
d="M748 1118h-136l-127 268h174zM66 430q0 122 45.5 233t123 191t184.5 127t226 47q204 0 330.5 -126t126.5 -329q0 -163 -77 -301t-210 -217.5t-291 -79.5q-204 0 -331 126t-127 329zM254 442q0 -140 76.5 -221.5t208.5 -81.5q155 0 265.5 123.5t110.5 298.5
q0 139 -76.5 221t-207.5 82q-155 0 -266 -123.5t-111 -298.5z" />
    <glyph glyph-name="oacute" unicode="&#xf3;" horiz-adv-x="1169" 
d="M973 1386l-215 -268h-150l178 268h187zM66 430q0 122 45.5 233t123 191t184.5 127t226 47q204 0 330.5 -126t126.5 -329q0 -163 -77 -301t-210 -217.5t-291 -79.5q-204 0 -331 126t-127 329zM254 442q0 -140 76.5 -221.5t208.5 -81.5q155 0 265.5 123.5t110.5 298.5
q0 139 -76.5 221t-207.5 82q-155 0 -266 -123.5t-111 -298.5z" />
    <glyph glyph-name="ocircumflex" unicode="&#xf4;" horiz-adv-x="1169" 
d="M573 1118h-161l209 277h208l121 -277h-147l-84 189zM66 430q0 122 45.5 233t123 191t184.5 127t226 47q204 0 330.5 -126t126.5 -329q0 -163 -77 -301t-210 -217.5t-291 -79.5q-204 0 -331 126t-127 329zM254 442q0 -140 76.5 -221.5t208.5 -81.5q155 0 265.5 123.5
t110.5 298.5q0 139 -76.5 221t-207.5 82q-155 0 -266 -123.5t-111 -298.5z" />
    <glyph glyph-name="otilde" unicode="&#xf5;" horiz-adv-x="1169" 
d="M500 1143h-121q9 116 61.5 182t132.5 66q41 0 76.5 -18t57.5 -39.5t52.5 -39.5t61.5 -18q39 0 58.5 27.5t27.5 87.5h121q-25 -248 -199 -248q-44 0 -81.5 18t-59.5 39t-50 39t-54 18q-37 0 -56 -27t-28 -87zM66 430q0 122 45.5 233t123 191t184.5 127t226 47
q204 0 330.5 -126t126.5 -329q0 -163 -77 -301t-210 -217.5t-291 -79.5q-204 0 -331 126t-127 329zM254 442q0 -140 76.5 -221.5t208.5 -81.5q155 0 265.5 123.5t110.5 298.5q0 139 -76.5 221t-207.5 82q-155 0 -266 -123.5t-111 -298.5z" />
    <glyph glyph-name="odieresis" unicode="&#xf6;" horiz-adv-x="1169" 
d="M528 1151q-44 0 -71 26.5t-27 69.5q0 56 38.5 96.5t92.5 40.5q42 0 70 -28t28 -70q0 -54 -39.5 -94.5t-91.5 -40.5zM848 1151q-43 0 -69.5 26.5t-26.5 69.5q0 56 38.5 96.5t92.5 40.5q43 0 70.5 -27.5t27.5 -70.5q0 -55 -39 -95t-94 -40zM66 430q0 122 45.5 233t123 191
t184.5 127t226 47q204 0 330.5 -126t126.5 -329q0 -163 -77 -301t-210 -217.5t-291 -79.5q-204 0 -331 126t-127 329zM254 442q0 -140 76.5 -221.5t208.5 -81.5q155 0 265.5 123.5t110.5 298.5q0 139 -76.5 221t-207.5 82q-155 0 -266 -123.5t-111 -298.5z" />
    <glyph glyph-name="divide" unicode="&#xf7;" 
d="M737 881q-50 0 -82 33t-32 79q0 61 47.5 109.5t107.5 48.5q49 0 82 -34.5t33 -82.5q0 -58 -48.5 -105.5t-107.5 -47.5zM207 698h1001l-26 -155h-1002zM610 90q-49 0 -81.5 33.5t-32.5 81.5q0 59 49 106t110 47q47 0 80 -33.5t33 -80.5q0 -58 -49 -106t-109 -48z" />
    <glyph glyph-name="oslash" unicode="&#xf8;" horiz-adv-x="1169" 
d="M66 430q0 122 45.5 233t123 191t184.5 127t226 47q128 0 225 -51l84 108h162l-139 -184q125 -125 125 -328q0 -163 -77 -301t-210 -217.5t-291 -79.5q-121 0 -219 48l-96 -125h-166l154 200q-131 125 -131 332zM254 442q0 -116 55 -196l455 592q-63 26 -133 26
q-155 0 -266 -123.5t-111 -298.5zM915 561q0 116 -53 193l-450 -590q58 -25 127 -25q155 0 265.5 123.5t110.5 298.5z" />
    <glyph glyph-name="ugrave" unicode="&#xf9;" horiz-adv-x="1138" 
d="M752 1118h-136l-127 268h173zM895 1001h182l-157 -1001h-166l8 160q-68 -95 -148 -140t-186 -45q-166 0 -256 117.5t-61 298.5l96 610h184l-92 -567q-22 -140 30 -216.5t163 -76.5q127 0 210.5 87.5t108.5 242.5z" />
    <glyph glyph-name="uacute" unicode="&#xfa;" horiz-adv-x="1138" 
d="M977 1386l-215 -268h-150l176 268h189zM895 1001h182l-157 -1001h-166l8 160q-68 -95 -148 -140t-186 -45q-166 0 -256 117.5t-61 298.5l96 610h184l-92 -567q-22 -140 30 -216.5t163 -76.5q127 0 210.5 87.5t108.5 242.5z" />
    <glyph glyph-name="ucircumflex" unicode="&#xfb;" horiz-adv-x="1138" 
d="M578 1118h-162l209 277h206l121 -277h-145l-84 189zM895 1001h182l-157 -1001h-166l8 160q-68 -95 -148 -140t-186 -45q-166 0 -256 117.5t-61 298.5l96 610h184l-92 -567q-22 -140 30 -216.5t163 -76.5q127 0 210.5 87.5t108.5 242.5z" />
    <glyph glyph-name="udieresis" unicode="&#xfc;" horiz-adv-x="1138" 
d="M530 1151q-43 0 -70.5 26.5t-27.5 69.5q0 56 39.5 96.5t93.5 40.5q43 0 71 -28t28 -70q0 -54 -40 -94.5t-94 -40.5zM852 1151q-43 0 -69.5 26.5t-26.5 69.5q0 56 38.5 96.5t92.5 40.5q43 0 69.5 -27.5t26.5 -70.5q0 -54 -38.5 -94.5t-92.5 -40.5zM895 1001h182
l-157 -1001h-166l8 160q-68 -95 -148 -140t-186 -45q-166 0 -256 117.5t-61 298.5l96 610h184l-92 -567q-22 -140 30 -216.5t163 -76.5q127 0 210.5 87.5t108.5 242.5z" />
    <glyph glyph-name="yacute" unicode="&#xfd;" horiz-adv-x="993" 
d="M889 1386l-215 -268h-148l176 268h187zM-106 -446l24 153h123q71 0 124.5 28.5t96.5 112.5l60 113l-228 1040h187l159 -808l418 808h201l-658 -1226q-63 -119 -146 -179.5t-204 -60.5q-86 0 -157 19z" />
    <glyph glyph-name="thorn" unicode="&#xfe;" horiz-adv-x="1206" 
d="M1139 584q0 -130 -40.5 -243.5t-111 -193.5t-169 -126t-210.5 -46q-121 0 -212 56t-128 153l-96 -630h-182l307 1953h184l-108 -682q131 203 364 203q175 0 288.5 -124t113.5 -320zM952 573q0 132 -71.5 211.5t-192.5 79.5q-156 0 -263.5 -127t-107.5 -313
q0 -134 71 -209.5t198 -75.5q155 0 260.5 125t105.5 309z" />
    <glyph glyph-name="ydieresis" unicode="&#xff;" horiz-adv-x="993" 
d="M444 1151q-44 0 -71 26.5t-27 69.5q0 56 39 96.5t94 40.5q41 0 68.5 -28.5t27.5 -69.5q0 -54 -38.5 -94.5t-92.5 -40.5zM766 1151q-44 0 -71 26.5t-27 69.5q0 55 39 96t92 41q43 0 70.5 -27.5t27.5 -70.5q0 -54 -38.5 -94.5t-92.5 -40.5zM-106 -446l24 153h123
q71 0 124.5 28.5t96.5 112.5l60 113l-228 1040h187l159 -808l418 808h201l-658 -1226q-63 -119 -146 -179.5t-204 -60.5q-86 0 -157 19z" />
    <glyph glyph-name="Amacron" unicode="&#x100;" horiz-adv-x="1327" 
d="M602 1688l21 137h497l-22 -137h-496zM154 0h-209l764 1481h217l295 -1481h-195l-72 373h-610zM752 1176l-324 -637h496l-125 637q-11 74 -11 81q-20 -50 -36 -81z" />
    <glyph glyph-name="amacron" unicode="&#x101;" horiz-adv-x="1073" 
d="M414 1217l20 137h498l-23 -137h-495zM350 -25q-134 0 -215.5 74t-81.5 195q0 152 108.5 243.5t307.5 108.5l313 25l4 26q20 112 -33.5 172t-172.5 60q-231 0 -261 -195h-169q26 164 142.5 254t303.5 90q200 0 300 -107t71 -290l-101 -631h-159l8 164q-51 -87 -149.5 -138
t-215.5 -51zM416 121q135 0 226.5 84t113.5 229l8 53l-256 -20q-133 -10 -200.5 -63.5t-67.5 -143.5q0 -65 46.5 -102t129.5 -37z" />
    <glyph glyph-name="Abreve" unicode="&#x102;" horiz-adv-x="1327" 
d="M1004 1860h141q-47 -283 -297 -283q-123 0 -187.5 75t-64.5 208h137q0 -148 125 -148q120 0 146 148zM154 0h-209l764 1481h217l295 -1481h-195l-72 373h-610zM752 1176l-324 -637h496l-125 637q-11 74 -11 81q-20 -50 -36 -81z" />
    <glyph glyph-name="abreve" unicode="&#x103;" horiz-adv-x="1073" 
d="M815 1389h141q-47 -283 -297 -283q-122 0 -186.5 75t-64.5 208h137q0 -148 125 -148q63 0 97.5 38t47.5 110zM350 -25q-134 0 -215.5 74t-81.5 195q0 152 108.5 243.5t307.5 108.5l313 25l4 26q20 112 -33.5 172t-172.5 60q-231 0 -261 -195h-169q26 164 142.5 254
t303.5 90q200 0 300 -107t71 -290l-101 -631h-159l8 164q-51 -87 -149.5 -138t-215.5 -51zM416 121q135 0 226.5 84t113.5 229l8 53l-256 -20q-133 -10 -200.5 -63.5t-67.5 -143.5q0 -65 46.5 -102t129.5 -37z" />
    <glyph glyph-name="Aogonek" unicode="&#x104;" horiz-adv-x="1327" 
d="M154 0h-209l764 1481h217l295 -1481q-66 -25 -108 -69t-42 -87q0 -25 16.5 -40t45.5 -15q31 0 53 10l-23 -133q-35 -14 -86 -14q-68 0 -107.5 38.5t-39.5 100.5q0 64 46.5 119.5t125.5 89.5h-76l-72 373h-610zM752 1176l-324 -637h496l-125 637q-11 74 -11 81
q-20 -50 -36 -81z" />
    <glyph glyph-name="aogonek" unicode="&#x105;" horiz-adv-x="1073" 
d="M350 -25q-134 0 -215.5 74t-81.5 195q0 152 108.5 243.5t307.5 108.5l313 25l4 26q20 112 -33.5 172t-172.5 60q-231 0 -261 -195h-169q26 164 142.5 254t303.5 90q200 0 300 -107t71 -290l-101 -631q-65 -25 -107 -69t-42 -87q0 -25 16 -40t45 -15q30 0 53 10l-22 -133
q-35 -14 -86 -14q-68 0 -108 38.5t-40 100.5q0 64 47 119.5t126 89.5h-41l8 164q-51 -87 -149.5 -138t-215.5 -51zM416 121q135 0 226.5 84t113.5 229l8 53l-256 -20q-133 -10 -200.5 -63.5t-67.5 -143.5q0 -65 46.5 -102t129.5 -37z" />
    <glyph glyph-name="Cacute" unicode="&#x106;" horiz-adv-x="1501" 
d="M1235 1858l-213 -269h-150l177 269h186zM737 -23q-283 0 -450.5 180.5t-167.5 473.5q0 250 102 450t282.5 312t405.5 112q248 0 407 -139.5t171 -361.5h-203q-20 147 -126.5 231t-264.5 84q-125 0 -232 -51.5t-181 -141.5t-116 -216t-42 -271q0 -216 113.5 -344.5
t307.5 -128.5q168 0 282.5 73.5t182.5 229.5h213q-89 -244 -262.5 -368t-421.5 -124z" />
    <glyph glyph-name="cacute" unicode="&#x107;" horiz-adv-x="1071" 
d="M930 1386l-215 -268h-148l176 268h187zM66 422q0 169 71.5 308t197 218.5t277.5 79.5q183 0 291.5 -96t120.5 -268h-188q-9 94 -70.5 146t-161.5 52q-149 0 -249.5 -123.5t-100.5 -306.5q0 -134 70 -213.5t188 -79.5q98 0 173.5 53.5t109.5 145.5h190
q-47 -166 -177 -264.5t-302 -98.5q-199 0 -319.5 122t-120.5 325z" />
    <glyph glyph-name="Ccircumflex" unicode="&#x108;" horiz-adv-x="1501" 
d="M838 1589h-162l209 277h207l120 -277h-145l-84 189zM737 -23q-283 0 -450.5 180.5t-167.5 473.5q0 250 102 450t282.5 312t405.5 112q248 0 407 -139.5t171 -361.5h-203q-20 147 -126.5 231t-264.5 84q-125 0 -232 -51.5t-181 -141.5t-116 -216t-42 -271
q0 -216 113.5 -344.5t307.5 -128.5q168 0 282.5 73.5t182.5 229.5h213q-89 -244 -262.5 -368t-421.5 -124z" />
    <glyph glyph-name="ccircumflex" unicode="&#x109;" horiz-adv-x="1071" 
d="M532 1118h-161l209 277h206l121 -277h-145l-84 189zM66 422q0 169 71.5 308t197 218.5t277.5 79.5q183 0 291.5 -96t120.5 -268h-188q-9 94 -70.5 146t-161.5 52q-149 0 -249.5 -123.5t-100.5 -306.5q0 -134 70 -213.5t188 -79.5q98 0 173.5 53.5t109.5 145.5h190
q-47 -166 -177 -264.5t-302 -98.5q-199 0 -319.5 122t-120.5 325z" />
    <glyph glyph-name="Cdotaccent" unicode="&#x10a;" horiz-adv-x="1501" 
d="M950 1622q-44 0 -72 28t-28 72q0 57 40 98.5t95 41.5q44 0 72 -28.5t28 -72.5q0 -56 -40 -97.5t-95 -41.5zM737 -23q-283 0 -450.5 180.5t-167.5 473.5q0 250 102 450t282.5 312t405.5 112q248 0 407 -139.5t171 -361.5h-203q-20 147 -126.5 231t-264.5 84
q-125 0 -232 -51.5t-181 -141.5t-116 -216t-42 -271q0 -216 113.5 -344.5t307.5 -128.5q168 0 282.5 73.5t182.5 229.5h213q-89 -244 -262.5 -368t-421.5 -124z" />
    <glyph glyph-name="cdotaccent" unicode="&#x10b;" horiz-adv-x="1071" 
d="M645 1151q-45 0 -72.5 27.5t-27.5 72.5q0 57 40 98.5t95 41.5q44 0 72 -28.5t28 -72.5q0 -56 -40 -97.5t-95 -41.5zM66 422q0 169 71.5 308t197 218.5t277.5 79.5q183 0 291.5 -96t120.5 -268h-188q-9 94 -70.5 146t-161.5 52q-149 0 -249.5 -123.5t-100.5 -306.5
q0 -134 70 -213.5t188 -79.5q98 0 173.5 53.5t109.5 145.5h190q-47 -166 -177 -264.5t-302 -98.5q-199 0 -319.5 122t-120.5 325z" />
    <glyph glyph-name="Ccaron" unicode="&#x10c;" horiz-adv-x="1501" 
d="M848 1591l-121 277h145l84 -189l146 189h162l-209 -277h-207zM737 -23q-283 0 -450.5 180.5t-167.5 473.5q0 250 102 450t282.5 312t405.5 112q248 0 407 -139.5t171 -361.5h-203q-20 147 -126.5 231t-264.5 84q-125 0 -232 -51.5t-181 -141.5t-116 -216t-42 -271
q0 -216 113.5 -344.5t307.5 -128.5q168 0 282.5 73.5t182.5 229.5h213q-89 -244 -262.5 -368t-421.5 -124z" />
    <glyph glyph-name="ccaron" unicode="&#x10d;" horiz-adv-x="1071" 
d="M543 1120l-121 277h145l84 -189l146 189h161l-208 -277h-207zM66 422q0 169 71.5 308t197 218.5t277.5 79.5q183 0 291.5 -96t120.5 -268h-188q-9 94 -70.5 146t-161.5 52q-149 0 -249.5 -123.5t-100.5 -306.5q0 -134 70 -213.5t188 -79.5q98 0 173.5 53.5t109.5 145.5
h190q-47 -166 -177 -264.5t-302 -98.5q-199 0 -319.5 122t-120.5 325z" />
    <glyph glyph-name="Dcaron" unicode="&#x10e;" horiz-adv-x="1462" 
d="M698 1589l-120 279h145l86 -189l143 189h162l-207 -279h-209zM569 0h-475l234 1481h446q192 0 339 -84t225.5 -231.5t78.5 -334.5q0 -251 -110 -441t-302 -290t-436 -100zM743 1303h-251l-177 -1123h271q281 0 454.5 174t173.5 477q0 214 -125.5 343t-345.5 129z" />
    <glyph glyph-name="dcaron" unicode="&#x10f;" horiz-adv-x="1206" 
d="M469 -25q-175 0 -288 124.5t-113 320.5q0 173 69 312.5t190 217.5t271 78q121 0 212 -56t126 -153l106 688h185l-238 -1507h-168l13 178q-131 -203 -365 -203zM1280 1167l53 340h162l-98 -340h-117zM518 139q156 0 263.5 127.5t107.5 313.5q0 134 -70.5 209t-197.5 75
q-155 0 -261 -125t-106 -309q0 -132 71.5 -211.5t192.5 -79.5z" />
    <glyph glyph-name="Dcroat" unicode="&#x110;" horiz-adv-x="1462" 
d="M569 0h-475l105 659h-138l27 164h135l105 658h446q192 0 339 -84t225.5 -231.5t78.5 -334.5q0 -251 -110 -441t-302 -290t-436 -100zM698 659h-307l-76 -479h271q281 0 454.5 174t173.5 477q0 214 -125.5 343t-345.5 129h-251l-76 -480h307z" />
    <glyph glyph-name="dcroat" unicode="&#x111;" horiz-adv-x="1206" 
d="M469 -25q-175 0 -288 124.5t-113 320.5q0 173 69 312.5t190 217.5t271 78q121 0 212 -56t126 -153l57 365h-321l18 121h322l30 202h185l-33 -202h123l-19 -121h-122l-187 -1184h-168l13 178q-131 -203 -365 -203zM518 139q156 0 263.5 127.5t107.5 313.5q0 134 -70.5 209
t-197.5 75q-155 0 -261 -125t-106 -309q0 -132 71.5 -211.5t192.5 -79.5z" />
    <glyph glyph-name="Emacron" unicode="&#x112;" horiz-adv-x="1175" 
d="M547 1688l20 137h496l-21 -137h-495zM977 0h-883l234 1481h882l-28 -181h-688l-76 -469h620l-26 -174h-623l-76 -477h693z" />
    <glyph glyph-name="emacron" unicode="&#x113;" horiz-adv-x="1085" 
d="M393 1217l23 137h495l-22 -137h-496zM506 -25q-199 0 -319.5 122t-120.5 325q0 169 71.5 308t197 218.5t277.5 79.5q213 0 326.5 -137.5t79.5 -353.5l-10 -70l-762 -2v-33q0 -140 71 -220.5t195 -80.5q99 0 176.5 47t110.5 131h184q-51 -153 -181.5 -243.5t-295.5 -90.5z
M604 872q-117 0 -208 -77.5t-128 -204.5h574q20 127 -46.5 204.5t-191.5 77.5z" />
    <glyph glyph-name="Ebreve" unicode="&#x114;" horiz-adv-x="1175" 
d="M946 1860h144q-47 -283 -297 -283q-124 0 -189 75t-65 208h139q0 -148 125 -148q120 0 143 148zM977 0h-883l234 1481h882l-28 -181h-688l-76 -469h620l-26 -174h-623l-76 -477h693z" />
    <glyph glyph-name="ebreve" unicode="&#x115;" horiz-adv-x="1085" 
d="M795 1389h141q-21 -135 -95 -209t-202 -74q-123 0 -187.5 75t-64.5 208h139q0 -148 123 -148t146 148zM506 -25q-199 0 -319.5 122t-120.5 325q0 169 71.5 308t197 218.5t277.5 79.5q213 0 326.5 -137.5t79.5 -353.5l-10 -70l-762 -2v-33q0 -140 71 -220.5t195 -80.5
q99 0 176.5 47t110.5 131h184q-51 -153 -181.5 -243.5t-295.5 -90.5zM604 872q-117 0 -208 -77.5t-128 -204.5h574q20 127 -46.5 204.5t-191.5 77.5z" />
    <glyph glyph-name="Edotaccent" unicode="&#x116;" horiz-adv-x="1175" 
d="M782 1622q-44 0 -72 28t-28 72q0 57 40.5 98.5t96.5 41.5q44 0 72.5 -28.5t28.5 -72.5q0 -56 -41.5 -97.5t-96.5 -41.5zM977 0h-883l234 1481h882l-28 -181h-688l-76 -469h620l-26 -174h-623l-76 -477h693z" />
    <glyph glyph-name="edotaccent" unicode="&#x117;" horiz-adv-x="1085" 
d="M631 1151q-44 0 -72.5 28t-28.5 72q0 57 41 98.5t97 41.5q43 0 71.5 -28.5t28.5 -72.5q0 -56 -41 -97.5t-96 -41.5zM506 -25q-199 0 -319.5 122t-120.5 325q0 169 71.5 308t197 218.5t277.5 79.5q213 0 326.5 -137.5t79.5 -353.5l-10 -70l-762 -2v-33q0 -140 71 -220.5
t195 -80.5q99 0 176.5 47t110.5 131h184q-51 -153 -181.5 -243.5t-295.5 -90.5zM604 872q-117 0 -208 -77.5t-128 -204.5h574q20 127 -46.5 204.5t-191.5 77.5z" />
    <glyph glyph-name="Eogonek" unicode="&#x118;" horiz-adv-x="1175" 
d="M858 0h-764l234 1481h882l-28 -181h-688l-76 -469h620l-26 -174h-623l-76 -477h693l-29 -180q-66 -25 -108 -69t-42 -87q0 -25 16.5 -40t45.5 -15q28 0 53 10l-22 -133q-35 -14 -86 -14q-68 0 -108 38.5t-40 100.5q0 64 46 119.5t126 89.5z" />
    <glyph glyph-name="eogonek" unicode="&#x119;" horiz-adv-x="1085" 
d="M608 -334q-32 -14 -84 -14q-69 0 -108 38t-39 101q0 54 32 102t91 82q-197 2 -315.5 124t-118.5 323q0 169 71.5 308t197 218.5t277.5 79.5q213 0 326.5 -137.5t79.5 -353.5l-10 -70l-762 -2v-33q0 -140 71 -220.5t195 -80.5q99 0 176.5 47t110.5 131h184
q-38 -113 -120.5 -193t-194.5 -116q-66 -25 -108 -69t-42 -87q0 -25 16.5 -40t45.5 -15t51 10zM604 872q-117 0 -208 -77.5t-128 -204.5h574q20 127 -46.5 204.5t-191.5 77.5z" />
    <glyph glyph-name="Ecaron" unicode="&#x11a;" horiz-adv-x="1175" 
d="M680 1591l-119 277h146l84 -189l145 189h162l-209 -277h-209zM977 0h-883l234 1481h882l-28 -181h-688l-76 -469h620l-26 -174h-623l-76 -477h693z" />
    <glyph glyph-name="ecaron" unicode="&#x11b;" horiz-adv-x="1085" 
d="M528 1120l-120 277h145l86 -189l143 189h162l-207 -277h-209zM506 -25q-199 0 -319.5 122t-120.5 325q0 169 71.5 308t197 218.5t277.5 79.5q213 0 326.5 -137.5t79.5 -353.5l-10 -70l-762 -2v-33q0 -140 71 -220.5t195 -80.5q99 0 176.5 47t110.5 131h184
q-51 -153 -181.5 -243.5t-295.5 -90.5zM604 872q-117 0 -208 -77.5t-128 -204.5h574q20 127 -46.5 204.5t-191.5 77.5z" />
    <glyph glyph-name="Gcircumflex" unicode="&#x11c;" horiz-adv-x="1546" 
d="M813 1591h-162l209 277h207l121 -277h-146l-84 189zM893 1321q-124 0 -230 -51t-181 -140.5t-117.5 -216.5t-42.5 -274q0 -221 118 -350t320 -129q207 0 340.5 115t165.5 319l8 47h-490l29 172h668l-129 -815h-158l18 203q-71 -102 -199 -164t-276 -62
q-281 0 -449.5 179.5t-168.5 476.5q0 250 101.5 449.5t282 312t406.5 112.5q244 0 401 -128t177 -343h-205q-22 136 -123.5 211.5t-265.5 75.5z" />
    <glyph glyph-name="gcircumflex" unicode="&#x11d;" horiz-adv-x="1198" 
d="M539 1133h-162l207 278h209l120 -278h-145l-84 190zM70 444q0 161 71 295t195 211.5t272 77.5q114 0 199 -52t119 -142l43 167h170l-152 -962q-40 -254 -173.5 -383t-356.5 -129q-203 0 -330 111t-131 294h184q6 -110 81 -173.5t200 -63.5q139 0 226 81.5t112 235.5
l32 205q-60 -91 -153 -140.5t-203 -49.5q-180 0 -292.5 115.5t-112.5 301.5zM258 457q0 -123 69 -197t183 -74q157 0 263 118t106 296q0 122 -69 193t-189 71q-153 0 -258 -118t-105 -289z" />
    <glyph glyph-name="Gbreve" unicode="&#x11e;" horiz-adv-x="1546" 
d="M1090 1862h141q-23 -136 -96 -210.5t-201 -74.5q-123 0 -187.5 75.5t-64.5 209.5h137q0 -148 125 -148q64 0 99 37.5t47 110.5zM893 1321q-124 0 -230 -51t-181 -140.5t-117.5 -216.5t-42.5 -274q0 -221 118 -350t320 -129q207 0 340.5 115t165.5 319l8 47h-490l29 172
h668l-129 -815h-158l18 203q-71 -102 -199 -164t-276 -62q-281 0 -449.5 179.5t-168.5 476.5q0 250 101.5 449.5t282 312t406.5 112.5q244 0 401 -128t177 -343h-205q-22 136 -123.5 211.5t-265.5 75.5z" />
    <glyph glyph-name="gbreve" unicode="&#x11f;" horiz-adv-x="1198" 
d="M815 1403h141q-23 -134 -96 -208.5t-201 -74.5q-123 0 -188 75t-65 208h139q0 -148 125 -148q119 0 145 148zM70 444q0 161 71 295t195 211.5t272 77.5q114 0 199 -52t119 -142l43 167h170l-152 -962q-40 -254 -173.5 -383t-356.5 -129q-203 0 -330 111t-131 294h184
q6 -110 81 -173.5t200 -63.5q139 0 226 81.5t112 235.5l32 205q-60 -91 -153 -140.5t-203 -49.5q-180 0 -292.5 115.5t-112.5 301.5zM258 457q0 -123 69 -197t183 -74q157 0 263 118t106 296q0 122 -69 193t-189 71q-153 0 -258 -118t-105 -289z" />
    <glyph glyph-name="Gdotaccent" unicode="&#x120;" horiz-adv-x="1546" 
d="M926 1624q-45 0 -73 27t-28 71q0 57 40.5 99.5t95.5 42.5q44 0 72 -28.5t28 -72.5q0 -57 -40 -98t-95 -41zM893 1321q-124 0 -230 -51t-181 -140.5t-117.5 -216.5t-42.5 -274q0 -221 118 -350t320 -129q207 0 340.5 115t165.5 319l8 47h-490l29 172h668l-129 -815h-158
l18 203q-71 -102 -199 -164t-276 -62q-281 0 -449.5 179.5t-168.5 476.5q0 250 101.5 449.5t282 312t406.5 112.5q244 0 401 -128t177 -343h-205q-22 136 -123.5 211.5t-265.5 75.5z" />
    <glyph glyph-name="gdotaccent" unicode="&#x121;" horiz-adv-x="1198" 
d="M651 1165q-45 0 -73.5 28.5t-28.5 72.5q0 57 41 99t96 42q44 0 72 -28.5t28 -71.5q0 -57 -40 -99.5t-95 -42.5zM70 444q0 161 71 295t195 211.5t272 77.5q114 0 199 -52t119 -142l43 167h170l-152 -962q-40 -254 -173.5 -383t-356.5 -129q-203 0 -330 111t-131 294h184
q6 -110 81 -173.5t200 -63.5q139 0 226 81.5t112 235.5l32 205q-60 -91 -153 -140.5t-203 -49.5q-180 0 -292.5 115.5t-112.5 301.5zM258 457q0 -123 69 -197t183 -74q157 0 263 118t106 296q0 122 -69 193t-189 71q-153 0 -258 -118t-105 -289z" />
    <glyph glyph-name="Gcommaaccent" unicode="&#x122;" horiz-adv-x="1546" 
d="M893 1321q-124 0 -230 -51t-181 -140.5t-117.5 -216.5t-42.5 -274q0 -221 118 -350t320 -129q207 0 340.5 115t165.5 319l8 47h-490l29 172h668l-129 -815h-158l18 203q-71 -102 -199 -164t-276 -62q-281 0 -449.5 179.5t-168.5 476.5q0 250 101.5 449.5t282 312
t406.5 112.5q244 0 401 -128t177 -343h-205q-22 136 -123.5 211.5t-265.5 75.5zM811 -182q0 -103 -69.5 -175.5t-170.5 -66.5l11 72q52 -4 85 16t42 62q-18 -9 -39 -9q-35 0 -58.5 23.5t-23.5 60.5q0 52 37 88.5t90 36.5q44 0 70 -29t26 -79z" />
    <glyph glyph-name="gcommaaccent" unicode="&#x123;" horiz-adv-x="1198" 
d="M766 1257q0 -52 -37 -88t-90 -36q-44 0 -70 29t-26 79q0 102 70.5 175.5t170.5 66.5l-12 -70q-50 3 -83 -17t-42 -61q15 6 35 6q37 0 60.5 -23.5t23.5 -60.5zM70 444q0 161 71 295t195 211.5t272 77.5q114 0 199 -52t119 -142l43 167h170l-152 -962q-40 -254 -173.5 -383
t-356.5 -129q-203 0 -330 111t-131 294h184q6 -110 81 -173.5t200 -63.5q139 0 226 81.5t112 235.5l32 205q-60 -91 -153 -140.5t-203 -49.5q-180 0 -292.5 115.5t-112.5 301.5zM258 457q0 -123 69 -197t183 -74q157 0 263 118t106 296q0 122 -69 193t-189 71
q-153 0 -258 -118t-105 -289z" />
    <glyph glyph-name="Hbar" unicode="&#x126;" horiz-adv-x="1454" 
d="M287 0h-193l174 1106h-162l27 168h162l33 207h192l-33 -207h723l33 207h193l-33 -207h168l-29 -168h-166l-176 -1106h-190l102 659h-721zM420 840h721l43 266h-723z" />
    <glyph glyph-name="hbar" unicode="&#x127;" horiz-adv-x="1153" 
d="M242 0h-183l187 1184h-123l20 121h121l33 202h184l-32 -202h319l-18 -121h-320l-53 -342q68 97 149.5 142.5t188.5 45.5q170 0 263.5 -118.5t65.5 -299.5l-98 -612h-182l90 569q23 140 -30.5 216.5t-172.5 76.5q-128 0 -214 -88.5t-111 -245.5z" />
    <glyph glyph-name="Itilde" unicode="&#x128;" horiz-adv-x="538" 
d="M258 1614h-121q9 116 62 182t133 66q41 0 76.5 -18t57.5 -39.5t52.5 -39.5t61.5 -18q39 0 58.5 27.5t27.5 87.5h120q-25 -248 -198 -248q-44 0 -81.5 18t-60 39.5t-50.5 39.5t-54 18q-36 0 -55.5 -27.5t-28.5 -87.5zM520 1481l-233 -1481h-193l234 1481h192z" />
    <glyph glyph-name="itilde" unicode="&#x129;" horiz-adv-x="460" 
d="M147 1143h-120q7 116 59.5 182t132.5 66q41 0 77 -18t58 -39.5t52.5 -39.5t60.5 -18q39 0 58.5 27.5t27.5 87.5h123q-25 -248 -199 -248q-44 0 -81.5 18t-60 39t-50.5 39t-54 18q-38 0 -57 -27t-27 -87zM59 0l160 1001h182l-157 -1001h-185z" />
    <glyph glyph-name="Imacron" unicode="&#x12a;" horiz-adv-x="538" 
d="M209 1688l20 137h496l-20 -137h-496zM520 1481l-233 -1481h-193l234 1481h192z" />
    <glyph glyph-name="imacron" unicode="&#x12b;" horiz-adv-x="460" 
d="M96 1217l23 137h495l-22 -137h-496zM59 0l160 1001h182l-157 -1001h-185z" />
    <glyph glyph-name="Iogonek" unicode="&#x12e;" horiz-adv-x="538" 
d="M166 0h-72l234 1481h192l-233 -1481h-2q-66 -25 -108 -69t-42 -87q0 -25 16.5 -40t45.5 -15q31 0 53 10l-23 -133q-35 -14 -86 -14q-68 0 -107.5 38.5t-39.5 100.5q0 64 46.5 119.5t125.5 89.5z" />
    <glyph glyph-name="iogonek" unicode="&#x12f;" horiz-adv-x="460" 
d="M348 1243q-46 0 -76 30.5t-30 74.5q0 57 43 101t100 44q45 0 74.5 -29.5t29.5 -74.5q0 -57 -43 -101.5t-98 -44.5zM59 0l160 1001h182l-157 -1001h-2q-66 -25 -108 -69t-42 -87q0 -25 17 -40t45 -15q30 0 53 10l-23 -133q-35 -14 -86 -14q-68 0 -106.5 38t-38.5 101
q0 64 46 119.5t126 89.5h-66z" />
    <glyph glyph-name="Idotaccent" unicode="&#x130;" horiz-adv-x="538" 
d="M444 1622q-44 0 -72 28t-28 72q0 57 40.5 98.5t96.5 41.5q44 0 72.5 -28.5t28.5 -72.5q0 -56 -41.5 -97.5t-96.5 -41.5zM520 1481l-233 -1481h-193l234 1481h192z" />
    <glyph glyph-name="dotlessi" unicode="&#x131;" horiz-adv-x="460" 
d="M59 0l160 1001h182l-157 -1001h-185z" />
    <glyph glyph-name="Jcircumflex" unicode="&#x134;" horiz-adv-x="1062" 
d="M870 1591h-161l209 277h206l121 -277h-145l-84 189zM31 414l8 69h186l-8 -69q-15 -122 40 -190t169 -68q118 0 182 63t86 199l170 1063h193l-172 -1073q-67 -433 -463 -433q-201 0 -308.5 120.5t-82.5 318.5z" />
    <glyph glyph-name="jcircumflex" unicode="&#x135;" horiz-adv-x="456" 
d="M217 1118h-160l207 277h209l121 -277h-148l-84 189zM-254 -451l49 166q36 -14 88 -14q65 0 102 41t50 129l180 1130h182l-182 -1148q-25 -160 -107.5 -243t-216.5 -83q-72 0 -145 22z" />
    <glyph glyph-name="Kcommaaccent" unicode="&#x136;" horiz-adv-x="1290" 
d="M520 1481l-131 -828l770 828h240l-586 -631l361 -850h-213l-291 696l-328 -352l-55 -344h-193l234 1481h192zM686 -182q0 -103 -69.5 -175.5t-170.5 -66.5l11 72q52 -4 85 16t42 62q-18 -9 -39 -9q-35 0 -58.5 23.5t-23.5 60.5q0 52 37 88.5t90 36.5q44 0 70 -29t26 -79z
" />
    <glyph glyph-name="kcommaaccent" unicode="&#x137;" horiz-adv-x="1017" 
d="M250 0h-184l237 1507h184l-155 -977l512 471h235l-444 -411l274 -590h-200l-215 469l-199 -182zM524 -182q0 -103 -69 -175.5t-170 -66.5l10 72q52 -4 85 16t42 62q-18 -9 -39 -9q-35 0 -58.5 23.5t-23.5 60.5q0 52 37 88.5t90 36.5q44 0 70 -29t26 -79z" />
    <glyph glyph-name="Lacute" unicode="&#x139;" horiz-adv-x="1050" 
d="M729 1839l-215 -266h-147l176 266h186zM520 1481l-205 -1301h639l-28 -180h-832l234 1481h192z" />
    <glyph glyph-name="lacute" unicode="&#x13a;" horiz-adv-x="473" 
d="M696 1853l-213 -268h-149l176 268h186zM250 0h-184l237 1507h184z" />
    <glyph glyph-name="Lcommaaccent" unicode="&#x13b;" horiz-adv-x="1050" 
d="M520 1481l-205 -1301h639l-28 -180h-832l234 1481h192zM582 -182q0 -103 -69.5 -175.5t-170.5 -66.5l12 72q51 -4 83.5 16.5t41.5 61.5q-18 -9 -37 -9q-37 0 -60.5 23.5t-23.5 60.5q0 52 37 88.5t90 36.5q44 0 70.5 -29.5t26.5 -78.5z" />
    <glyph glyph-name="lcommaaccent" unicode="&#x13c;" horiz-adv-x="473" 
d="M250 0h-184l237 1507h184zM236 -182q0 -103 -70.5 -175.5t-171.5 -66.5l12 72q51 -4 84.5 16.5t42.5 61.5q-18 -9 -39 -9q-36 0 -60 24t-24 60q0 52 38 88.5t91 36.5q44 0 70.5 -29.5t26.5 -78.5z" />
    <glyph glyph-name="Lcaron" unicode="&#x13d;" horiz-adv-x="1050" 
d="M520 1481l-205 -1301h639l-28 -180h-832l234 1481h192zM571 1139l56 340h161l-98 -340h-119z" />
    <glyph glyph-name="lcaron" unicode="&#x13e;" horiz-adv-x="473" 
d="M250 0h-184l237 1507h184zM539 1167l55 340h160l-97 -340h-118z" />
    <glyph glyph-name="Ldot" unicode="&#x13f;" horiz-adv-x="1050" 
d="M520 1481l-205 -1301h639l-28 -180h-832l234 1481h192zM678 629q-48 0 -83.5 34.5t-35.5 81.5q0 49 34.5 83t84.5 34q47 0 82 -35t35 -82t-35 -81.5t-82 -34.5z" />
    <glyph glyph-name="ldot" unicode="&#x140;" horiz-adv-x="727" 
d="M250 0h-184l237 1507h184zM604 623q-51 0 -87 34.5t-36 83.5q0 51 36 87t87 36q50 0 85.5 -36t35.5 -87q0 -47 -36 -82.5t-85 -35.5z" />
    <glyph glyph-name="Lslash" unicode="&#x141;" horiz-adv-x="1050" 
d="M39 526l27 158l147 68l115 729h192l-100 -637l373 170l-27 -158l-371 -168l-80 -508h639l-28 -180h-832l94 594z" />
    <glyph glyph-name="lslash" unicode="&#x142;" horiz-adv-x="473" 
d="M250 0h-184l106 672l-129 -58l23 140l127 57l110 696h184l-96 -606l125 57l-22 -141l-123 -55z" />
    <glyph glyph-name="Nacute" unicode="&#x143;" horiz-adv-x="1474" 
d="M1206 1858l-215 -269h-149l176 269h188zM287 0h-193l234 1481h192l563 -1157l183 1157h192l-235 -1481h-191l-563 1157z" />
    <glyph glyph-name="nacute" unicode="&#x144;" horiz-adv-x="1155" 
d="M977 1386l-215 -268h-150l176 268h189zM244 0h-185l160 1001h164l-4 -159q66 97 147.5 142.5t190.5 45.5q170 0 263 -118.5t64 -299.5l-96 -612h-184l90 569q23 141 -29.5 217t-171.5 76q-128 0 -214 -89t-111 -245z" />
    <glyph glyph-name="Ncommaaccent" unicode="&#x145;" horiz-adv-x="1474" 
d="M287 0h-193l234 1481h192l563 -1157l183 1157h192l-235 -1481h-191l-563 1157zM748 -182q0 -103 -69.5 -175.5t-170.5 -66.5l10 72q52 -4 85 16t42 62q-18 -9 -37 -9q-37 0 -60.5 23.5t-23.5 60.5q0 52 37 88.5t90 36.5q44 0 70.5 -29.5t26.5 -78.5z" />
    <glyph glyph-name="ncommaaccent" unicode="&#x146;" horiz-adv-x="1155" 
d="M244 0h-185l160 1001h164l-4 -159q66 97 147.5 142.5t190.5 45.5q170 0 263 -118.5t64 -299.5l-96 -612h-184l90 569q23 141 -29.5 217t-171.5 76q-128 0 -214 -89t-111 -245zM580 -182q0 -103 -70.5 -175.5t-171.5 -66.5l12 72q51 -4 84.5 16.5t42.5 61.5q-18 -9 -39 -9
q-36 0 -60 24t-24 60q0 52 38 88.5t91 36.5q44 0 70.5 -29.5t26.5 -78.5z" />
    <glyph glyph-name="Ncaron" unicode="&#x147;" horiz-adv-x="1474" 
d="M817 1591l-121 277h146l86 -189l143 189h162l-207 -277h-209zM287 0h-193l234 1481h192l563 -1157l183 1157h192l-235 -1481h-191l-563 1157z" />
    <glyph glyph-name="ncaron" unicode="&#x148;" horiz-adv-x="1155" 
d="M588 1120l-121 277h147l84 -189l146 189h160l-207 -277h-209zM244 0h-185l160 1001h164l-4 -159q66 97 147.5 142.5t190.5 45.5q170 0 263 -118.5t64 -299.5l-96 -612h-184l90 569q23 141 -29.5 217t-171.5 76q-128 0 -214 -89t-111 -245z" />
    <glyph glyph-name="Eng" unicode="&#x14a;" horiz-adv-x="1474" 
d="M852 -473q-76 0 -158 27l56 167q62 -20 102 -20q72 0 110 39t52 121l22 129l-569 1169l-180 -1159h-193l234 1481h192l563 -1159l183 1159h192l-260 -1637q-25 -153 -114.5 -235t-231.5 -82z" />
    <glyph glyph-name="eng" unicode="&#x14b;" horiz-adv-x="1155" 
d="M244 0h-185l160 1001h164l-4 -159q66 97 147.5 142.5t190.5 45.5q170 0 263 -118.5t64 -299.5l-120 -759q-25 -160 -107.5 -243t-216.5 -83q-72 0 -145 22l49 166q36 -14 88 -14q64 0 100.5 41t50.5 129l111 698q23 141 -29.5 217t-171.5 76q-128 0 -214 -89t-111 -245z
" />
    <glyph glyph-name="Omacron" unicode="&#x14c;" horiz-adv-x="1570" 
d="M713 1688l20 139h498l-23 -139h-495zM1530 860q0 -183 -61.5 -347t-167 -282t-253 -187t-311.5 -69q-279 0 -450.5 177.5t-171.5 465.5q0 183 61.5 347.5t167 282.5t252.5 187.5t311 69.5q278 0 450.5 -179t172.5 -466zM1327 846q0 217 -118.5 345t-319.5 128
q-157 0 -288 -91.5t-206.5 -248.5t-75.5 -344q0 -216 118 -343.5t319 -127.5q157 0 288.5 91t207 247.5t75.5 343.5z" />
    <glyph glyph-name="omacron" unicode="&#x14d;" horiz-adv-x="1169" 
d="M451 1217l20 137h496l-21 -137h-495zM66 430q0 122 45.5 233t123 191t184.5 127t226 47q204 0 330.5 -126t126.5 -329q0 -163 -77 -301t-210 -217.5t-291 -79.5q-204 0 -331 126t-127 329zM254 442q0 -140 76.5 -221.5t208.5 -81.5q155 0 265.5 123.5t110.5 298.5
q0 139 -76.5 221t-207.5 82q-155 0 -266 -123.5t-111 -298.5z" />
    <glyph glyph-name="Ohungarumlaut" unicode="&#x150;" horiz-adv-x="1570" 
d="M1108 1858l-211 -267h-141l182 267h170zM1376 1858l-231 -267h-141l200 267h172zM1530 860q0 -183 -61.5 -347t-167 -282t-253 -187t-311.5 -69q-279 0 -450.5 177.5t-171.5 465.5q0 183 61.5 347.5t167 282.5t252.5 187.5t311 69.5q278 0 450.5 -179t172.5 -466z
M1327 846q0 217 -118.5 345t-319.5 128q-157 0 -288 -91.5t-206.5 -248.5t-75.5 -344q0 -216 118 -343.5t319 -127.5q157 0 288.5 91t207 247.5t75.5 343.5z" />
    <glyph glyph-name="ohungarumlaut" unicode="&#x151;" horiz-adv-x="1169" 
d="M844 1386l-211 -268h-139l182 268h168zM1114 1386l-231 -268h-144l201 268h174zM66 430q0 122 45.5 233t123 191t184.5 127t226 47q204 0 330.5 -126t126.5 -329q0 -163 -77 -301t-210 -217.5t-291 -79.5q-204 0 -331 126t-127 329zM254 442q0 -140 76.5 -221.5
t208.5 -81.5q155 0 265.5 123.5t110.5 298.5q0 139 -76.5 221t-207.5 82q-155 0 -266 -123.5t-111 -298.5z" />
    <glyph glyph-name="OE" unicode="&#x152;" horiz-adv-x="2283" 
d="M115 618q0 183 61.5 347.5t167 282.5t252.5 187.5t311 69.5q174 0 298.5 -75t193.5 -213l41 264h878l-26 -181h-688l-74 -469h618l-26 -174h-621l-76 -477h689l-29 -180h-881l35 213q-85 -108 -222 -173t-288 -65q-274 0 -444 178t-170 465zM319 635q0 -215 116 -343
t310 -128q118 0 225.5 53.5t185.5 144.5t124.5 218t46.5 266q0 217 -118.5 345t-319.5 128q-157 0 -288 -91.5t-206.5 -248.5t-75.5 -344z" />
    <glyph glyph-name="oe" unicode="&#x153;" horiz-adv-x="1931" 
d="M66 430q0 122 45.5 233t123 191t184.5 127t226 47q133 0 234.5 -57t156.5 -158q74 101 184.5 158t237.5 57q213 0 326.5 -137.5t79.5 -353.5l-11 -70l-761 -2v-33q0 -140 71 -220.5t197 -80.5q98 0 175 47t110 131h184q-51 -153 -181.5 -243.5t-295.5 -90.5
q-134 0 -234 56.5t-153 158.5q-78 -100 -193 -157.5t-248 -57.5q-204 0 -331 126t-127 329zM1450 872q-117 0 -208 -77.5t-128 -204.5h574q20 127 -46.5 204.5t-191.5 77.5zM254 442q0 -140 76.5 -221.5t208.5 -81.5q155 0 265.5 123.5t110.5 298.5q0 139 -76.5 221
t-207.5 82q-155 0 -266 -123.5t-111 -298.5z" />
    <glyph glyph-name="Racute" unicode="&#x154;" horiz-adv-x="1310" 
d="M1085 1858l-213 -267h-149l176 267h186zM287 0h-193l234 1481h540q196 0 313 -108t117 -290q0 -161 -95 -282.5t-263 -175.5l203 -625h-199l-190 588h-375zM494 1307l-88 -545h354q157 0 248.5 83.5t91.5 225.5q0 111 -68.5 173.5t-191.5 62.5h-346z" />
    <glyph glyph-name="racute" unicode="&#x155;" horiz-adv-x="735" 
d="M778 1393l-213 -267h-149l176 267h186zM776 1010l-26 -170h-84q-133 0 -224 -80t-112 -223l-86 -537h-185l160 1001h168l-12 -157q45 81 124 129.5t175 48.5q52 0 102 -12z" />
    <glyph glyph-name="Rcommaaccent" unicode="&#x156;" horiz-adv-x="1310" 
d="M287 0h-193l234 1481h540q196 0 313 -108t117 -290q0 -161 -95 -282.5t-263 -175.5l203 -625h-199l-190 588h-375zM494 1307l-88 -545h354q157 0 248.5 83.5t91.5 225.5q0 111 -68.5 173.5t-191.5 62.5h-346zM688 -182q0 -103 -69 -175.5t-170 -66.5l12 72
q51 -4 83.5 16.5t41.5 61.5q-18 -9 -37 -9q-37 0 -60.5 23.5t-23.5 60.5q0 52 37 88.5t90 36.5q44 0 70 -29t26 -79z" />
    <glyph glyph-name="rcommaaccent" unicode="&#x157;" horiz-adv-x="735" 
d="M776 1010l-26 -170h-84q-133 0 -224 -80t-112 -223l-86 -537h-185l160 1001h168l-12 -157q45 81 124 129.5t175 48.5q52 0 102 -12zM229 -182q0 -103 -69 -175.5t-170 -66.5l10 72q52 -4 85 16t42 62q-18 -9 -37 -9q-37 0 -60.5 23.5t-23.5 60.5q0 52 37 88.5t90 36.5
q44 0 70 -29t26 -79z" />
    <glyph glyph-name="Rcaron" unicode="&#x158;" horiz-adv-x="1310" 
d="M698 1591l-120 279h145l84 -189l145 189h162l-209 -279h-207zM287 0h-193l234 1481h540q196 0 313 -108t117 -290q0 -161 -95 -282.5t-263 -175.5l203 -625h-199l-190 588h-375zM494 1307l-88 -545h354q157 0 248.5 83.5t91.5 225.5q0 111 -68.5 173.5t-191.5 62.5h-346z
" />
    <glyph glyph-name="rcaron" unicode="&#x159;" horiz-adv-x="735" 
d="M391 1128l-121 277h146l84 -188l145 188h162l-209 -277h-207zM776 1010l-26 -170h-84q-133 0 -224 -80t-112 -223l-86 -537h-185l160 1001h168l-12 -157q45 81 124 129.5t175 48.5q52 0 102 -12z" />
    <glyph glyph-name="Sacute" unicode="&#x15a;" horiz-adv-x="1161" 
d="M997 1858l-215 -267h-149l176 267h188zM166 1065q0 198 137.5 320t358.5 122q207 0 341 -114t146 -299h-195q-12 112 -91 174.5t-210 62.5q-135 0 -215 -66t-80 -180q0 -85 47 -139t148 -88l219 -74q152 -51 224.5 -140t72.5 -226q0 -198 -143.5 -321.5t-374.5 -123.5
q-226 0 -356.5 107t-147.5 307h197q10 -114 91.5 -175.5t221.5 -61.5q146 0 234 69t88 184q0 82 -41 130.5t-136 80.5l-217 72q-319 102 -319 379z" />
    <glyph glyph-name="sacute" unicode="&#x15b;" horiz-adv-x="897" 
d="M807 1419l-215 -268h-148l177 268h186zM18 287h181q2 -75 56.5 -120.5t145.5 -45.5q94 0 152.5 42.5t58.5 110.5q0 53 -26 83.5t-90 52.5l-166 55q-215 73 -215 260q0 137 103.5 220t273.5 83q159 0 253.5 -85t94.5 -226h-181q-3 166 -180 166q-86 0 -136 -38.5
t-50 -105.5q0 -96 125 -141l164 -55q109 -37 160 -97.5t51 -154.5q0 -143 -109.5 -229.5t-292.5 -86.5q-166 0 -269.5 86.5t-103.5 225.5z" />
    <glyph glyph-name="Scircumflex" unicode="&#x15c;" horiz-adv-x="1161" 
d="M598 1591h-162l209 277h207l121 -277h-146l-84 189zM166 1065q0 198 137.5 320t358.5 122q207 0 341 -114t146 -299h-195q-12 112 -91 174.5t-210 62.5q-135 0 -215 -66t-80 -180q0 -85 47 -139t148 -88l219 -74q152 -51 224.5 -140t72.5 -226q0 -198 -143.5 -321.5
t-374.5 -123.5q-226 0 -356.5 107t-147.5 307h197q10 -114 91.5 -175.5t221.5 -61.5q146 0 234 69t88 184q0 82 -41 130.5t-136 80.5l-217 72q-319 102 -319 379z" />
    <glyph glyph-name="scircumflex" unicode="&#x15d;" horiz-adv-x="897" 
d="M410 1151h-162l209 279h207l120 -279h-145l-84 188zM18 287h181q2 -75 56.5 -120.5t145.5 -45.5q94 0 152.5 42.5t58.5 110.5q0 53 -26 83.5t-90 52.5l-166 55q-215 73 -215 260q0 137 103.5 220t273.5 83q159 0 253.5 -85t94.5 -226h-181q-3 166 -180 166
q-86 0 -136 -38.5t-50 -105.5q0 -96 125 -141l164 -55q109 -37 160 -97.5t51 -154.5q0 -143 -109.5 -229.5t-292.5 -86.5q-166 0 -269.5 86.5t-103.5 225.5z" />
    <glyph glyph-name="Scedilla" unicode="&#x15e;" horiz-adv-x="1161" 
d="M350 -369l17 99q65 -35 116 -35q53 0 82 21t29 59q0 29 -19 45t-53 16q-48 0 -102 -22l-12 59l65 104q-191 19 -301 124t-125 286h197q10 -114 91.5 -175.5t221.5 -61.5q146 0 234 69t88 184q0 82 -41 130.5t-136 80.5l-217 72q-319 102 -319 379q0 198 137.5 320
t358.5 122q207 0 341 -114t146 -299h-195q-12 112 -91 174.5t-210 62.5q-135 0 -215 -66t-80 -180q0 -85 47 -139t148 -88l219 -74q152 -51 224.5 -140t72.5 -226q0 -198 -141.5 -321.5t-366.5 -123.5l-41 -63q19 8 51 8q56 0 97 -36.5t41 -96.5q0 -85 -60.5 -135.5
t-161.5 -50.5q-82 0 -137 32z" />
    <glyph glyph-name="scedilla" unicode="&#x15f;" horiz-adv-x="897" 
d="M18 287h181q2 -75 56.5 -120.5t145.5 -45.5q94 0 152.5 42.5t58.5 110.5q0 53 -26 83.5t-90 52.5l-166 55q-215 73 -215 260q0 137 103.5 220t273.5 83q159 0 253.5 -85t94.5 -226h-181q-3 166 -180 166q-86 0 -136 -38.5t-50 -105.5q0 -96 125 -141l164 -55
q109 -37 160 -97.5t51 -154.5q0 -139 -105 -225t-280 -91l-41 -61q21 6 51 6q55 0 96 -36t41 -95q0 -86 -59.5 -136t-161.5 -50q-82 0 -137 32l16 99q56 -35 117 -35q53 0 81.5 21t28.5 59q0 29 -18.5 45t-52.5 16q-49 0 -103 -22l-12 59l63 103q-136 19 -217.5 101.5
t-81.5 205.5z" />
    <glyph glyph-name="Scaron" unicode="&#x160;" horiz-adv-x="1161" 
d="M608 1591l-121 279h146l86 -189l143 189h162l-207 -279h-209zM166 1065q0 198 137.5 320t358.5 122q207 0 341 -114t146 -299h-195q-12 112 -91 174.5t-210 62.5q-135 0 -215 -66t-80 -180q0 -85 47 -139t148 -88l219 -74q152 -51 224.5 -140t72.5 -226
q0 -198 -143.5 -321.5t-374.5 -123.5q-226 0 -356.5 107t-147.5 307h197q10 -114 91.5 -175.5t221.5 -61.5q146 0 234 69t88 184q0 82 -41 130.5t-136 80.5l-217 72q-319 102 -319 379z" />
    <glyph glyph-name="scaron" unicode="&#x161;" horiz-adv-x="897" 
d="M420 1153l-121 277h145l84 -189l146 189h162l-209 -277h-207zM18 287h181q2 -75 56.5 -120.5t145.5 -45.5q94 0 152.5 42.5t58.5 110.5q0 53 -26 83.5t-90 52.5l-166 55q-215 73 -215 260q0 137 103.5 220t273.5 83q159 0 253.5 -85t94.5 -226h-181q-3 166 -180 166
q-86 0 -136 -38.5t-50 -105.5q0 -96 125 -141l164 -55q109 -37 160 -97.5t51 -154.5q0 -143 -109.5 -229.5t-292.5 -86.5q-166 0 -269.5 86.5t-103.5 225.5z" />
    <glyph glyph-name="Tcedilla" unicode="&#x162;" horiz-adv-x="1122" 
d="M297 -369l16 99q65 -35 117 -35q53 0 83 21t30 59q0 29 -20 45t-54 16q-48 0 -102 -22l-13 59l80 127h-49l207 1303h-434l26 178h1061l-26 -178h-435l-206 -1303h-54l-57 -90q19 8 51 8q56 0 96.5 -36.5t40.5 -96.5q0 -85 -60 -135.5t-161 -50.5q-82 0 -137 32z" />
    <glyph glyph-name="tcedilla" unicode="&#x163;" horiz-adv-x="634" 
d="M330 0h-45l-56 -90q19 8 50 8q56 0 97.5 -36.5t41.5 -96.5q0 -85 -61 -135.5t-162 -50.5q-84 0 -136 32l15 99q65 -35 119 -35q51 0 80.5 21t29.5 59q0 29 -20 45t-54 16q-46 0 -102 -22l-10 59l80 127h-50l134 846h-193l25 155h192l49 314h185l-50 -314h193l-25 -155
h-192z" />
    <glyph glyph-name="Tcaron" unicode="&#x164;" horiz-adv-x="1122" 
d="M635 1591l-121 277h145l84 -189l146 189h162l-209 -277h-207zM158 1303l26 178h1061l-26 -178h-435l-206 -1303h-193l207 1303h-434z" />
    <glyph glyph-name="tcaron" unicode="&#x165;" horiz-adv-x="634" 
d="M600 1141l55 340h160l-96 -340h-119zM330 0h-183l134 846h-193l25 155h192l49 314h185l-50 -314h193l-25 -155h-192z" />
    <glyph glyph-name="Tbar" unicode="&#x166;" horiz-adv-x="1122" 
d="M281 719l24 164h219l68 420h-434l26 178h1061l-26 -178h-435l-67 -420h223l-25 -164h-223l-114 -719h-193l115 719h-219z" />
    <glyph glyph-name="tbar" unicode="&#x167;" horiz-adv-x="634" 
d="M330 0h-183l74 469h-141l22 145h142l37 232h-193l25 155h192l49 314h185l-50 -314h193l-25 -155h-192l-37 -232h141l-24 -145h-142z" />
    <glyph glyph-name="Utilde" unicode="&#x168;" horiz-adv-x="1431" 
d="M707 1614h-121q9 116 61.5 182t132.5 66q41 0 76.5 -18t57.5 -39.5t52.5 -39.5t61.5 -18q39 0 58.5 27.5t27.5 87.5h121q-25 -248 -199 -248q-44 0 -81.5 18t-59.5 39.5t-50 39.5t-54 18q-36 0 -55.5 -27.5t-28.5 -87.5zM168 532l151 949h191l-150 -949
q-28 -172 55.5 -270t256.5 -98q170 0 275 94.5t134 273.5l150 949h192l-153 -959q-41 -262 -199.5 -404.5t-413.5 -142.5q-248 0 -387.5 156t-101.5 401z" />
    <glyph glyph-name="utilde" unicode="&#x169;" horiz-adv-x="1138" 
d="M504 1143h-121q7 116 59.5 182t132.5 66q41 0 77 -18t58 -39.5t52.5 -39.5t60.5 -18q39 0 58.5 27.5t27.5 87.5h123q-12 -120 -62 -184t-136 -64q-44 0 -81.5 18t-60 39t-50.5 39t-54 18q-38 0 -57 -27t-27 -87zM895 1001h182l-157 -1001h-166l8 160q-68 -95 -148 -140
t-186 -45q-166 0 -256 117.5t-61 298.5l96 610h184l-92 -567q-22 -140 30 -216.5t163 -76.5q127 0 210.5 87.5t108.5 242.5z" />
    <glyph glyph-name="Umacron" unicode="&#x16a;" horiz-adv-x="1431" 
d="M657 1688l21 137h496l-21 -137h-496zM168 532l151 949h191l-150 -949q-28 -172 55.5 -270t256.5 -98q170 0 275 94.5t134 273.5l150 949h192l-153 -959q-41 -262 -199.5 -404.5t-413.5 -142.5q-248 0 -387.5 156t-101.5 401z" />
    <glyph glyph-name="umacron" unicode="&#x16b;" horiz-adv-x="1138" 
d="M453 1217l22 137h496l-23 -137h-495zM895 1001h182l-157 -1001h-166l8 160q-68 -95 -148 -140t-186 -45q-166 0 -256 117.5t-61 298.5l96 610h184l-92 -567q-22 -140 30 -216.5t163 -76.5q127 0 210.5 87.5t108.5 242.5z" />
    <glyph glyph-name="Uring" unicode="&#x16e;" horiz-adv-x="1431" 
d="M895 1575q-92 0 -150.5 56t-58.5 145q0 117 76.5 195.5t189.5 78.5q91 0 150 -58t59 -147q0 -114 -77 -192t-189 -78zM907 1688q57 0 96 42t39 103q0 47 -27.5 75.5t-72.5 28.5q-57 0 -96 -42t-39 -103q0 -47 27 -75.5t73 -28.5zM168 532l151 949h191l-150 -949
q-28 -172 55.5 -270t256.5 -98q170 0 275 94.5t134 273.5l150 949h192l-153 -959q-41 -262 -199.5 -404.5t-413.5 -142.5q-248 0 -387.5 156t-101.5 401z" />
    <glyph glyph-name="uring" unicode="&#x16f;" horiz-adv-x="1138" 
d="M690 1104q-92 0 -149.5 56t-57.5 145q0 117 76 195.5t189 78.5q92 0 151 -58t59 -147q0 -114 -77 -192t-191 -78zM702 1217q58 0 97 41.5t39 103.5q0 47 -28 75.5t-73 28.5q-57 0 -96 -42t-39 -103q0 -47 27.5 -75.5t72.5 -28.5zM895 1001h182l-157 -1001h-166l8 160
q-68 -95 -148 -140t-186 -45q-166 0 -256 117.5t-61 298.5l96 610h184l-92 -567q-22 -140 30 -216.5t163 -76.5q127 0 210.5 87.5t108.5 242.5z" />
    <glyph glyph-name="Uhungarumlaut" unicode="&#x170;" horiz-adv-x="1431" 
d="M1053 1858l-213 -269h-140l183 269h170zM1321 1858l-231 -269h-142l199 269h174zM168 532l151 949h191l-150 -949q-28 -172 55.5 -270t256.5 -98q170 0 275 94.5t134 273.5l150 949h192l-153 -959q-41 -262 -199.5 -404.5t-413.5 -142.5q-248 0 -387.5 156t-101.5 401z
" />
    <glyph glyph-name="uhungarumlaut" unicode="&#x171;" horiz-adv-x="1138" 
d="M848 1386l-211 -268h-141l182 268h170zM1118 1386l-233 -268h-142l201 268h174zM895 1001h182l-157 -1001h-166l8 160q-68 -95 -148 -140t-186 -45q-166 0 -256 117.5t-61 298.5l96 610h184l-92 -567q-22 -140 30 -216.5t163 -76.5q127 0 210.5 87.5t108.5 242.5z" />
    <glyph glyph-name="Uogonek" unicode="&#x172;" horiz-adv-x="1431" 
d="M168 532l151 949h191l-150 -949q-28 -172 55.5 -270t256.5 -98q170 0 275 94.5t134 273.5l150 949h192l-153 -959q-34 -217 -148.5 -353t-300.5 -177q-58 -25 -94.5 -66.5t-36.5 -81.5q0 -25 17 -40t45 -15q30 0 53 10l-23 -133q-35 -14 -86 -14q-68 0 -106.5 38
t-38.5 101q0 54 32 102t91 82h-17q-248 0 -387.5 156t-101.5 401z" />
    <glyph glyph-name="uogonek" unicode="&#x173;" horiz-adv-x="1138" 
d="M801 0h-47l8 160q-68 -95 -148 -140t-186 -45q-166 0 -256 117.5t-61 298.5l96 610h184l-92 -567q-22 -140 30 -216.5t163 -76.5q127 0 210.5 87.5t108.5 242.5l84 530h182l-157 -1001q-67 -25 -109.5 -69t-42.5 -87q0 -25 16.5 -40t44.5 -15q31 0 54 10l-23 -133
q-35 -14 -84 -14q-69 0 -108 38t-39 101q0 64 46 119.5t126 89.5z" />
    <glyph glyph-name="Wcircumflex" unicode="&#x174;" horiz-adv-x="2011" 
d="M1071 1589h-162l209 277h207l121 -277h-146l-83 189zM383 0l-199 1481h193l119 -922q15 -117 20 -264q43 120 109 264l426 922h215l129 -922q15 -113 24 -262q32 100 103 262l417 922h199l-672 -1481h-182l-168 1198l-545 -1198h-188z" />
    <glyph glyph-name="wcircumflex" unicode="&#x175;" horiz-adv-x="1533" 
d="M754 1118h-162l209 277h207l120 -277h-145l-84 189zM268 0l-164 1001h185l80 -532q11 -71 26 -233q43 116 99 233l251 532h189l80 -532q12 -95 24 -231q46 115 99 231l252 532h198l-491 -1001h-172l-88 547q-24 150 -27 239q-50 -121 -102 -241l-254 -545h-185z" />
    <glyph glyph-name="Ycircumflex" unicode="&#x176;" horiz-adv-x="1210" 
d="M664 1589h-162l209 277h207l120 -277h-145l-84 189zM526 602l-350 879h205l233 -598q27 -78 31 -97q21 42 60 97l419 598h219l-624 -879l-96 -602h-191z" />
    <glyph glyph-name="ycircumflex" unicode="&#x177;" horiz-adv-x="993" 
d="M492 1118h-162l207 277h208l121 -277h-145l-86 189zM-106 -446l24 153h123q71 0 124.5 28.5t96.5 112.5l60 113l-228 1040h187l159 -808l418 808h201l-658 -1226q-63 -119 -146 -179.5t-204 -60.5q-86 0 -157 19z" />
    <glyph glyph-name="Ydieresis" unicode="&#x178;" horiz-adv-x="1210" 
d="M616 1622q-43 0 -69.5 26.5t-26.5 69.5q0 56 38.5 96.5t92.5 40.5q43 0 71 -28.5t28 -69.5q0 -54 -40 -94.5t-94 -40.5zM938 1622q-43 0 -69.5 26.5t-26.5 69.5q0 56 38.5 96.5t92.5 40.5q43 0 70.5 -27.5t27.5 -70.5q0 -54 -39.5 -94.5t-93.5 -40.5zM526 602l-350 879
h205l233 -598q27 -78 31 -97q21 42 60 97l419 598h219l-624 -879l-96 -602h-191z" />
    <glyph glyph-name="Zacute" unicode="&#x179;" horiz-adv-x="1171" 
d="M1034 1858l-215 -269h-149l178 269h186zM1018 0h-1022l27 180l956 1120h-766l27 181h1009l-26 -174l-963 -1127h787z" />
    <glyph glyph-name="zacute" unicode="&#x17a;" horiz-adv-x="917" 
d="M848 1386l-213 -268h-150l177 268h186zM760 0h-760l23 150l636 696h-526l25 155h762l-27 -153l-637 -694h528z" />
    <glyph glyph-name="Zdotaccent" unicode="&#x17b;" horiz-adv-x="1171" 
d="M748 1622q-44 0 -72.5 28t-28.5 72q0 57 40.5 98.5t96.5 41.5q44 0 72.5 -28.5t28.5 -72.5q0 -56 -41 -97.5t-96 -41.5zM1018 0h-1022l27 180l956 1120h-766l27 181h1009l-26 -174l-963 -1127h787z" />
    <glyph glyph-name="zdotaccent" unicode="&#x17c;" horiz-adv-x="917" 
d="M563 1151q-44 0 -72 28t-28 72q0 57 40 98.5t95 41.5q44 0 72 -28.5t28 -72.5q0 -56 -40 -97.5t-95 -41.5zM760 0h-760l23 150l636 696h-526l25 155h762l-27 -153l-637 -694h528z" />
    <glyph glyph-name="Zcaron" unicode="&#x17d;" horiz-adv-x="1171" 
d="M645 1591l-119 277h146l84 -189l145 189h162l-209 -277h-209zM1018 0h-1022l27 180l956 1120h-766l27 181h1009l-26 -174l-963 -1127h787z" />
    <glyph glyph-name="zcaron" unicode="&#x17e;" horiz-adv-x="917" 
d="M461 1120l-121 277h145l84 -189l146 189h162l-209 -277h-207zM760 0h-760l23 150l636 696h-526l25 155h762l-27 -153l-637 -694h528z" />
    <glyph glyph-name="florin" unicode="&#x192;" horiz-adv-x="1181" 
d="M201 827h362l109 373q40 142 135.5 217.5t236.5 75.5h177l-29 -174h-193q-99 0 -137 -125l-106 -367h352l-27 -172h-374l-203 -700q-74 -266 -357 -266h-184l31 176h184q48 0 85 29t52 83l197 678h-338z" />
    <glyph glyph-name="Aringacute" unicode="&#x1fa;" horiz-adv-x="1327" 
d="M1169 2159l-215 -269h-149l176 269h188zM154 0h-209l731 1417q-72 56 -72 158q0 117 75.5 195.5t188.5 78.5q92 0 151.5 -58t59.5 -149q0 -77 -37.5 -139t-101.5 -96l281 -1407h-195l-72 373h-610zM823 1485q57 0 96 42.5t39 104.5q0 46 -28 75.5t-72 29.5
q-57 0 -96 -42.5t-39 -105.5q0 -47 27.5 -75.5t72.5 -28.5zM752 1176l-324 -637h496l-125 637q-11 74 -11 81q-20 -50 -36 -81z" />
    <glyph glyph-name="aringacute" unicode="&#x1fb;" horiz-adv-x="1073" 
d="M967 1675l-207 -248h-139l167 248h179zM350 -25q-134 0 -215.5 74t-81.5 195q0 152 108.5 243.5t307.5 108.5l313 25l4 26q20 112 -33.5 172t-172.5 60q-231 0 -261 -195h-169q20 127 94 210.5t194 115.5q-28 48 -28 108q0 117 76.5 195t189.5 78q91 0 150 -57.5
t59 -147.5q0 -121 -84 -199q99 -45 142.5 -137t23.5 -219l-101 -631h-159l8 164q-51 -87 -149.5 -138t-215.5 -51zM631 1028q57 0 96 42.5t39 105.5q0 46 -28 75t-74 29q-57 0 -95.5 -42.5t-38.5 -104.5q0 -47 27.5 -76t73.5 -29zM416 121q135 0 226.5 84t113.5 229l8 53
l-256 -20q-133 -10 -200.5 -63.5t-67.5 -143.5q0 -65 46.5 -102t129.5 -37z" />
    <glyph glyph-name="AEacute" unicode="&#x1fc;" horiz-adv-x="1837" 
d="M1589 1858l-215 -269h-149l176 269h188zM-66 0l816 1481h1122l-27 -181h-688l-74 -469h621l-29 -174h-618l-76 -477h686l-29 -180h-878l63 401h-454l-217 -401h-218zM459 569h391l115 731h-111z" />
    <glyph glyph-name="aeacute" unicode="&#x1fd;" horiz-adv-x="1767" 
d="M1255 1386l-215 -268h-149l176 268h188zM53 244q0 294 414 325l313 27l8 51q19 110 -35.5 171t-172.5 61q-231 0 -261 -195h-169q26 164 142.5 254t303.5 90q250 0 330 -166q147 166 370 166q212 0 326 -137t80 -354l-12 -70l-762 -2v-33q0 -140 72 -220.5t196 -80.5
q100 0 176.5 47.5t110.5 130.5h184q-51 -152 -181 -243t-296 -91q-145 0 -244.5 65t-144.5 185q-62 -119 -173.5 -184.5t-260.5 -65.5q-146 0 -230 72.5t-84 196.5zM1288 872q-117 0 -208 -77t-130 -205h576q20 126 -46 204t-192 78zM240 260q0 -65 48 -102t128 -37
q135 0 226 83t114 228l6 31l-258 -21q-137 -12 -200.5 -54t-63.5 -128z" />
    <glyph glyph-name="Oslashacute" unicode="&#x1fe;" horiz-adv-x="1570" 
d="M1225 1845l-213 -266h-150l176 266h187zM1530 860q0 -183 -61.5 -347t-167 -282t-253 -187t-311.5 -69q-235 0 -393 127l-92 -102h-186l180 201q-131 170 -131 417q0 183 61.5 347.5t167 282.5t252.5 187.5t311 69.5q239 0 400 -133l98 109h182l-186 -207
q129 -171 129 -414zM319 635q0 -161 70 -279l785 869q-114 94 -285 94q-157 0 -288 -91.5t-206.5 -248.5t-75.5 -344zM1327 846q0 160 -65 272l-783 -866q111 -88 277 -88q157 0 288.5 91t207 247.5t75.5 343.5z" />
    <glyph glyph-name="oslashacute" unicode="&#x1ff;" horiz-adv-x="1169" 
d="M973 1386l-215 -268h-150l178 268h187zM66 430q0 122 45.5 233t123 191t184.5 127t226 47q128 0 225 -51l84 108h162l-139 -184q125 -125 125 -328q0 -163 -77 -301t-210 -217.5t-291 -79.5q-121 0 -219 48l-96 -125h-166l154 200q-131 125 -131 332zM254 442
q0 -116 55 -196l455 592q-63 26 -133 26q-155 0 -266 -123.5t-111 -298.5zM915 561q0 116 -53 193l-450 -590q58 -25 127 -25q155 0 265.5 123.5t110.5 298.5z" />
    <glyph glyph-name="Scommaaccent" unicode="&#x218;" horiz-adv-x="1161" 
d="M166 1065q0 198 137.5 320t358.5 122q207 0 341 -114t146 -299h-195q-12 112 -91 174.5t-210 62.5q-135 0 -215 -66t-80 -180q0 -85 47 -139t148 -88l219 -74q152 -51 224.5 -140t72.5 -226q0 -198 -143.5 -321.5t-374.5 -123.5q-226 0 -356.5 107t-147.5 307h197
q10 -114 91.5 -175.5t221.5 -61.5q146 0 234 69t88 184q0 82 -41 130.5t-136 80.5l-217 72q-319 102 -319 379zM612 -182q0 -103 -69 -175.5t-170 -66.5l10 72q52 -4 85 16t42 62q-15 -9 -39 -9q-35 0 -58.5 23.5t-23.5 60.5q0 52 37 88.5t90 36.5q44 0 70 -29t26 -79z" />
    <glyph glyph-name="scommaaccent" unicode="&#x219;" horiz-adv-x="897" 
d="M18 287h181q2 -75 56.5 -120.5t145.5 -45.5q94 0 152.5 42.5t58.5 110.5q0 53 -26 83.5t-90 52.5l-166 55q-215 73 -215 260q0 137 103.5 220t273.5 83q159 0 253.5 -85t94.5 -226h-181q-3 166 -180 166q-86 0 -136 -38.5t-50 -105.5q0 -96 125 -141l164 -55
q109 -37 160 -97.5t51 -154.5q0 -143 -109.5 -229.5t-292.5 -86.5q-166 0 -269.5 86.5t-103.5 225.5zM459 -180q0 -102 -69.5 -175t-170.5 -67l10 72q52 -3 85 17.5t42 60.5q-18 -7 -39 -7q-35 0 -58 23.5t-23 58.5q0 53 37 90t89 37q44 0 70.5 -30t26.5 -80z" />
    <glyph glyph-name="Tcommaaccent" unicode="&#x21a;" horiz-adv-x="1122" 
d="M158 1303l26 178h1061l-26 -178h-435l-206 -1303h-193l207 1303h-434zM559 -182q0 -103 -69.5 -175.5t-170.5 -66.5l11 72q52 -4 85 16t42 62q-18 -9 -39 -9q-35 0 -58.5 23.5t-23.5 60.5q0 52 37 88.5t90 36.5q44 0 70 -29t26 -79z" />
    <glyph glyph-name="tcommaaccent" unicode="&#x21b;" horiz-adv-x="634" 
d="M330 0h-183l134 846h-193l25 155h192l49 314h185l-50 -314h193l-25 -155h-192zM319 -182q0 -103 -69 -175.5t-170 -66.5l12 72q51 -4 83.5 16.5t41.5 61.5q-18 -9 -37 -9q-37 0 -60.5 23.5t-23.5 60.5q0 52 37 88.5t90 36.5q44 0 70 -29t26 -79z" />
    <glyph glyph-name="dotlessj" unicode="&#x237;" horiz-adv-x="456" 
d="M-254 -451l49 166q36 -14 88 -14q65 0 102 41t50 129l180 1130h182l-182 -1148q-25 -160 -107.5 -243t-216.5 -83q-72 0 -145 22z" />
    <glyph glyph-name="circumflex" unicode="&#x2c6;" horiz-adv-x="716" 
d="M414 1573h-162l209 276h207l120 -276h-145l-84 188z" />
    <glyph glyph-name="caron" unicode="&#x2c7;" horiz-adv-x="716" 
d="M414 1573l-121 276h145l84 -188l146 188h161l-208 -276h-207z" />
    <glyph glyph-name="breve" unicode="&#x2d8;" horiz-adv-x="778" 
d="M727 1843h141q-47 -282 -297 -282q-124 0 -189 74.5t-65 207.5h140q0 -147 125 -147q120 0 145 147z" />
    <glyph glyph-name="dotaccent" unicode="&#x2d9;" horiz-adv-x="432" 
d="M387 1606q-45 0 -72.5 27.5t-27.5 72.5q0 57 40.5 98t96.5 41q44 0 72 -28t28 -72q0 -57 -40.5 -98t-96.5 -41z" />
    <glyph glyph-name="ring" unicode="&#x2da;" horiz-adv-x="638" 
d="M489 1559q-92 0 -150 55.5t-58 144.5q0 117 76.5 196t189.5 79q91 0 150 -58t59 -149q0 -114 -77 -191t-190 -77zM500 1669q58 0 96.5 43t38.5 105q0 46 -27.5 75t-72.5 29q-57 0 -95.5 -42t-38.5 -105q0 -47 27.5 -76t71.5 -29z" />
    <glyph glyph-name="ogonek" unicode="&#x2db;" horiz-adv-x="425" 
d="M147 0h119q-65 -25 -107 -69t-42 -87q0 -25 16 -40t45 -15q30 0 53 10l-22 -133q-35 -14 -86 -14q-68 0 -108 38.5t-40 100.5q0 64 46.5 119.5t125.5 89.5z" />
    <glyph glyph-name="tilde" unicode="&#x2dc;" horiz-adv-x="817" 
d="M387 1597h-121q9 115 62 181.5t133 66.5q41 0 77 -18t58 -39t52.5 -39t60.5 -18q39 0 58.5 26.5t27.5 87.5h123q-25 -248 -201 -248q-43 0 -80.5 18t-59.5 39.5t-50.5 39.5t-55.5 18q-36 0 -55.5 -27.5t-28.5 -87.5z" />
    <glyph glyph-name="hungarumlaut" unicode="&#x2dd;" horiz-adv-x="786" 
d="M604 1839l-211 -266h-141l182 266h170zM874 1839l-233 -266h-141l200 266h174z" />
    <glyph glyph-name="gravecomb" unicode="&#x300;" horiz-adv-x="491" 
d="M569 1573h-133l-127 268h172z" />
    <glyph glyph-name="acutecomb" unicode="&#x301;" horiz-adv-x="495" 
d="M618 1839l-215 -266h-149l176 266h188z" />
    <glyph glyph-name="circumflexcomb" unicode="&#x302;" horiz-adv-x="700" 
d="M414 1573h-162l209 276h207l120 -276h-145l-84 188z" />
    <glyph glyph-name="tildecomb" unicode="&#x303;" horiz-adv-x="796" 
d="M387 1597h-121q9 115 62 181.5t133 66.5q41 0 77 -18t58 -39t52.5 -39t60.5 -18q39 0 58.5 26.5t27.5 87.5h123q-25 -248 -201 -248q-43 0 -80.5 18t-59.5 39.5t-50.5 39.5t-55.5 18q-36 0 -55.5 -27.5t-28.5 -87.5z" />
    <glyph glyph-name="macroncomb" unicode="&#x304;" horiz-adv-x="741" 
d="M307 1669l23 137h495l-22 -137h-496z" />
    <glyph glyph-name="brevecomb" unicode="&#x306;" horiz-adv-x="759" 
d="M727 1843h141q-47 -282 -297 -282q-124 0 -189 74.5t-65 207.5h140q0 -147 125 -147q120 0 145 147z" />
    <glyph glyph-name="dotaccentcomb" unicode="&#x307;" horiz-adv-x="423" 
d="M387 1606q-45 0 -72.5 27.5t-27.5 72.5q0 57 40.5 98t96.5 41q44 0 72 -28t28 -72q0 -57 -40.5 -98t-96.5 -41z" />
    <glyph glyph-name="dieresiscomb" unicode="&#x308;" horiz-adv-x="788" 
d="M410 1606q-43 0 -70 26.5t-27 69.5q0 56 38.5 95.5t92.5 39.5q43 0 71 -27.5t28 -68.5q0 -54 -39.5 -94.5t-93.5 -40.5zM731 1606q-43 0 -69.5 26.5t-26.5 69.5q0 56 38.5 95.5t92.5 39.5q43 0 70.5 -26.5t27.5 -69.5q0 -54 -39.5 -94.5t-93.5 -40.5z" />
    <glyph glyph-name="ringcomb" unicode="&#x30a;" horiz-adv-x="626" 
d="M489 1559q-92 0 -150 55.5t-58 144.5q0 117 76.5 196t189.5 79q91 0 150 -58t59 -149q0 -114 -77 -191t-190 -77zM500 1669q58 0 96.5 43t38.5 105q0 46 -27.5 75t-72.5 29q-57 0 -95.5 -42t-38.5 -105q0 -47 27.5 -76t71.5 -29z" />
    <glyph glyph-name="hungarumlautcomb" unicode="&#x30b;" horiz-adv-x="768" 
d="M604 1839l-211 -266h-141l182 266h170zM874 1839l-233 -266h-141l200 266h174z" />
    <glyph glyph-name="caroncomb" unicode="&#x30c;" horiz-adv-x="694" 
d="M414 1573l-121 276h145l84 -188l146 188h161l-208 -276h-207z" />
    <glyph glyph-name="commaturnedabovecomb" unicode="&#x312;" horiz-adv-x="397" 
d="M498 1698q0 -54 -37 -90.5t-88 -36.5q-45 0 -71 30t-26 78q0 103 69.5 176.5t170.5 67.5l-12 -72q-50 3 -84 -17.5t-43 -59.5q18 6 37 6q37 0 60.5 -22.5t23.5 -59.5z" />
    <glyph glyph-name="commaaccentcomb" unicode="&#x326;" horiz-adv-x="397" 
d="M201 -154q0 -103 -69.5 -175.5t-170.5 -65.5l10 69q106 -6 125 78q-15 -6 -37 -6q-36 0 -60 24t-24 60q0 51 38 88t91 37q44 0 70.5 -29.5t26.5 -79.5z" />
    <glyph glyph-name="cedillacomb" unicode="&#x327;" horiz-adv-x="487" 
d="M-66 -369l17 99q65 -35 117 -35q53 0 81.5 21t28.5 59q0 29 -19 45t-53 16q-48 0 -102 -22l-12 59l121 195h63l-8 -60l-64 -98q19 8 52 8q56 0 96.5 -36.5t40.5 -96.5q0 -85 -60 -135.5t-161 -50.5q-83 0 -138 32z" />
    <glyph glyph-name="strokeshortcomb" unicode="&#x335;" horiz-adv-x="1073" 
d="M229 1276h625l-18 -121h-627z" />
    <glyph glyph-name="slashshortcomb" unicode="&#x337;" horiz-adv-x="497" 
d="M63 637l23 139l453 205l-23 -139z" />
    <glyph glyph-name="slashlongcomb" unicode="&#x338;" horiz-adv-x="1048" 
d="M1063 1104l-907 -1190h-166l911 1190h162z" />
    <glyph glyph-name="Omega" unicode="&#x3a9;" horiz-adv-x="1306" 
d="M494 0h-431l23 143h229q-78 68 -120.5 161t-42.5 198q0 230 153 379t385 149q208 0 343.5 -125t135.5 -315q0 -137 -71.5 -255.5t-198.5 -191.5h207l-23 -143h-432l25 143q155 63 241.5 172t86.5 254q0 132 -90 216.5t-230 84.5q-170 0 -270.5 -105t-100.5 -280
q0 -109 56 -202.5t149 -139.5z" />
    <glyph glyph-name="pi" unicode="&#x3c0;" horiz-adv-x="1243" 
d="M145 0l134 846h-191l25 155h1134l-24 -155h-205l-90 -582q-8 -54 11 -78t73 -24h102l-24 -154q-82 -12 -156 -12q-111 0 -159 70t-30 186l93 594h-379l-133 -846h-181z" />
    <glyph glyph-name="Wgrave" unicode="&#x1e80;" horiz-adv-x="2011" 
d="M1243 1589h-133l-127 269h172zM383 0l-199 1481h193l119 -922q15 -117 20 -264q43 120 109 264l426 922h215l129 -922q15 -113 24 -262q32 100 103 262l417 922h199l-672 -1481h-182l-168 1198l-545 -1198h-188z" />
    <glyph glyph-name="wgrave" unicode="&#x1e81;" horiz-adv-x="1533" 
d="M926 1118h-133l-127 268h172zM268 0l-164 1001h185l80 -532q11 -71 26 -233q43 116 99 233l251 532h189l80 -532q12 -95 24 -231q46 115 99 231l252 532h198l-491 -1001h-172l-88 547q-24 150 -27 239q-50 -121 -102 -241l-254 -545h-185z" />
    <glyph glyph-name="Wacute" unicode="&#x1e82;" horiz-adv-x="2011" 
d="M1468 1858l-213 -269h-149l176 269h186zM383 0l-199 1481h193l119 -922q15 -117 20 -264q43 120 109 264l426 922h215l129 -922q15 -113 24 -262q32 100 103 262l417 922h199l-672 -1481h-182l-168 1198l-545 -1198h-188z" />
    <glyph glyph-name="wacute" unicode="&#x1e83;" horiz-adv-x="1533" 
d="M1151 1386l-213 -268h-150l177 268h186zM268 0l-164 1001h185l80 -532q11 -71 26 -233q43 116 99 233l251 532h189l80 -532q12 -95 24 -231q46 115 99 231l252 532h198l-491 -1001h-172l-88 547q-24 150 -27 239q-50 -121 -102 -241l-254 -545h-185z" />
    <glyph glyph-name="Wdieresis" unicode="&#x1e84;" horiz-adv-x="2011" 
d="M1024 1622q-43 0 -70.5 26.5t-27.5 69.5q0 56 39.5 96.5t93.5 40.5q42 0 70 -28t28 -70q0 -54 -39.5 -94.5t-93.5 -40.5zM1346 1622q-44 0 -70.5 26.5t-26.5 69.5q0 56 38.5 96.5t92.5 40.5q42 0 69.5 -27.5t27.5 -70.5q0 -54 -38.5 -94.5t-92.5 -40.5zM383 0l-199 1481
h193l119 -922q15 -117 20 -264q43 120 109 264l426 922h215l129 -922q15 -113 24 -262q32 100 103 262l417 922h199l-672 -1481h-182l-168 1198l-545 -1198h-188z" />
    <glyph glyph-name="wdieresis" unicode="&#x1e85;" horiz-adv-x="1533" 
d="M707 1151q-43 0 -71 27t-28 69q0 56 39.5 96.5t93.5 40.5q43 0 71 -28t28 -70q0 -54 -39.5 -94.5t-93.5 -40.5zM1028 1151q-44 0 -71 26.5t-27 69.5q0 55 39 96t92 41q43 0 70.5 -27.5t27.5 -70.5q0 -54 -38.5 -94.5t-92.5 -40.5zM268 0l-164 1001h185l80 -532
q11 -71 26 -233q43 116 99 233l251 532h189l80 -532q12 -95 24 -231q46 115 99 231l252 532h198l-491 -1001h-172l-88 547q-24 150 -27 239q-50 -121 -102 -241l-254 -545h-185z" />
    <glyph glyph-name="Ygrave" unicode="&#x1ef2;" horiz-adv-x="1210" 
d="M838 1589h-136l-127 269h175zM526 602l-350 879h205l233 -598q27 -78 31 -97q21 42 60 97l419 598h219l-624 -879l-96 -602h-191z" />
    <glyph glyph-name="ygrave" unicode="&#x1ef3;" horiz-adv-x="993" 
d="M664 1118h-136l-125 268h172zM-106 -446l24 153h123q71 0 124.5 28.5t96.5 112.5l60 113l-228 1040h187l159 -808l418 808h201l-658 -1226q-63 -119 -146 -179.5t-204 -60.5q-86 0 -157 19z" />
    <glyph glyph-name="endash" unicode="&#x2013;" horiz-adv-x="1910" 
d="M131 459l25 164h1636l-27 -164h-1634z" />
    <glyph glyph-name="emdash" unicode="&#x2014;" horiz-adv-x="2353" 
d="M131 459l25 164h2078l-24 -164h-2079z" />
    <glyph glyph-name="quoteleft" unicode="&#x2018;" horiz-adv-x="528" 
d="M512 1206q0 -64 -45.5 -110.5t-108.5 -46.5q-53 0 -86.5 36.5t-33.5 98.5q0 117 85.5 212.5t204.5 110.5l-14 -84q-59 -12 -102.5 -49t-49.5 -82q23 13 56 13q41 0 67.5 -27t26.5 -72z" />
    <glyph glyph-name="quoteright" unicode="&#x2019;" horiz-adv-x="528" 
d="M537 1372q0 -115 -85 -211.5t-204 -111.5l14 84q59 12 102 48.5t50 82.5q-23 -13 -56 -13q-42 0 -69 26.5t-27 70.5q0 67 45.5 113t110.5 46q52 0 85.5 -36.5t33.5 -98.5z" />
    <glyph glyph-name="quotesinglbase" unicode="&#x201a;" horiz-adv-x="530" 
d="M338 109q0 -116 -86 -212.5t-203 -111.5l12 86q61 12 103.5 48.5t50.5 82.5q-24 -12 -55 -12q-41 0 -69 26t-28 72q0 65 45.5 111.5t108.5 46.5q54 0 87.5 -37t33.5 -100z" />
    <glyph glyph-name="quotedblleft" unicode="&#x201c;" horiz-adv-x="886" 
d="M512 1206q0 -64 -45.5 -110.5t-108.5 -46.5q-53 0 -86.5 36.5t-33.5 98.5q0 117 85.5 212.5t204.5 110.5l-14 -84q-59 -12 -102.5 -49t-49.5 -82q23 13 56 13q41 0 67.5 -27t26.5 -72zM870 1206q0 -65 -44.5 -111t-108.5 -46q-53 0 -87 36.5t-34 98.5q0 117 86 212.5
t205 110.5l-15 -84q-59 -12 -102 -49t-49 -82q23 13 55 13q41 0 67.5 -27t26.5 -72z" />
    <glyph glyph-name="quotedblright" unicode="&#x201d;" horiz-adv-x="886" 
d="M537 1372q0 -115 -85 -211.5t-204 -111.5l14 84q59 12 102 48.5t50 82.5q-23 -13 -56 -13q-42 0 -69 26.5t-27 70.5q0 67 45.5 113t110.5 46q52 0 85.5 -36.5t33.5 -98.5zM895 1372q0 -115 -85 -211.5t-204 -111.5l15 84q59 12 102 49t49 82q-23 -13 -53 -13
q-43 0 -69.5 26.5t-26.5 70.5q0 67 44 113t109 46q53 0 86 -36.5t33 -98.5z" />
    <glyph glyph-name="quotedblbase" unicode="&#x201e;" horiz-adv-x="888" 
d="M338 109q0 -116 -86 -212.5t-203 -111.5l12 86q61 12 103.5 48.5t50.5 82.5q-24 -12 -55 -12q-41 0 -69 26t-28 72q0 65 45.5 111.5t108.5 46.5q54 0 87.5 -37t33.5 -100zM696 109q0 -116 -85.5 -212.5t-202.5 -111.5l14 86q60 12 101.5 48.5t49.5 82.5q-24 -12 -55 -12
q-41 0 -68.5 26t-27.5 72q0 65 46 111.5t110 46.5q53 0 85.5 -37t32.5 -100z" />
    <glyph glyph-name="dagger" unicode="&#x2020;" horiz-adv-x="630" 
d="M264 567l94 592h-204l18 117h205l33 205h122l-32 -205h205l-19 -117h-205l-94 -592h-123z" />
    <glyph glyph-name="daggerdbl" unicode="&#x2021;" horiz-adv-x="630" 
d="M264 567l39 242h-205l19 119h205l30 194h-207l21 119h205l39 240h122l-38 -240h206l-20 -119h-205l-31 -194h205l-20 -119h-203l-39 -242h-123z" />
    <glyph glyph-name="bullet" unicode="&#x2022;" horiz-adv-x="808" 
d="M373 250q-114 0 -186 71t-72 183q0 138 101.5 238t242.5 100q108 0 179 -72.5t71 -183.5q0 -137 -99 -236.5t-237 -99.5z" />
    <glyph glyph-name="ellipsis" unicode="&#x2026;" horiz-adv-x="1499" 
d="M193 -25q-53 0 -86 33.5t-33 85.5q0 66 49.5 116t114.5 50q55 0 87.5 -33.5t32.5 -87.5q0 -65 -49.5 -114.5t-115.5 -49.5zM666 -25q-53 0 -86 33.5t-33 85.5q0 66 49.5 116t114.5 50q54 0 87 -33.5t33 -87.5q0 -65 -49.5 -114.5t-115.5 -49.5zM1139 -25q-53 0 -87 33.5
t-34 85.5q0 66 50 116t116 50q54 0 87.5 -33.5t33.5 -87.5q0 -65 -50 -114.5t-116 -49.5z" />
    <glyph glyph-name="perthousand" unicode="&#x2030;" horiz-adv-x="2678" 
d="M926 1182q0 -110 -56 -206.5t-150.5 -153t-203.5 -56.5q-149 0 -239.5 89t-90.5 237q0 170 121 293.5t287 123.5q149 0 240.5 -89.5t91.5 -237.5zM1735 1481l-1323 -1481h-201l1323 1481h201zM770 1171q0 92 -49 143.5t-135 51.5q-100 0 -173 -78t-73 -188
q0 -90 49 -141.5t135 -51.5q100 0 173 78.5t73 185.5zM1763 391q0 -170 -121 -294t-288 -124q-149 0 -239.5 89t-90.5 237q0 170 121 294t287 124q149 0 240 -89t91 -237zM2570 391q0 -170 -120.5 -294t-286.5 -124q-151 0 -241.5 89t-90.5 237q0 170 120.5 294t286.5 124
q151 0 241.5 -89t90.5 -237zM1610 381q0 91 -49.5 142.5t-135.5 51.5q-101 0 -174 -78.5t-73 -187.5q0 -91 49 -142.5t135 -51.5q100 0 174 79t74 187zM2417 381q0 91 -49.5 142.5t-135.5 51.5q-101 0 -174 -78.5t-73 -187.5q0 -91 49 -142.5t135 -51.5q101 0 174.5 78.5
t73.5 187.5z" />
    <glyph glyph-name="minute" unicode="&#x2032;" horiz-adv-x="364" 
d="M414 1399l-99 -379h-100l23 381q3 52 30 80t68 28q43 0 67 -30.5t11 -79.5z" />
    <glyph glyph-name="guilsinglleft" unicode="&#x2039;" horiz-adv-x="831" 
d="M432 0l-350 502l508 499h239l-524 -514l340 -487h-213z" />
    <glyph glyph-name="guilsinglright" unicode="&#x203a;" horiz-adv-x="831" 
d="M399 1001l351 -501l-508 -500h-240l524 514l-340 487h213z" />
    <glyph glyph-name="asterism" unicode="&#x2042;" horiz-adv-x="1806" 
d="M784 1167l-127 47l54 99l118 -45q92 -34 144 -72q-8 73 10 172l21 141h110l-22 -141q-18 -103 -41 -172q8 5 26.5 15t28 15.5t26.5 13.5t36.5 16t43.5 16l134 43l26 -107l-137 -47q-84 -27 -174 -39q55 -58 92 -133l59 -115l-94 -61l-61 115q-47 83 -62 151
q-38 -75 -106 -153l-96 -113l-88 66l94 114q56 65 137 131q-70 9 -152 43zM168 385l-125 49l53 96l119 -43q76 -28 143 -71q-8 66 9 172l22 139h111l-23 -139q-18 -103 -41 -174q32 19 46 27t44.5 21.5t71.5 26.5l133 46l27 -107l-140 -47q-78 -26 -172 -39q55 -57 93 -133
l59 -115l-94 -61l-62 114q-45 79 -61 150q-39 -74 -107 -152l-96 -112l-88 63l94 117q52 63 138 129q-61 10 -154 43zM1151 385l-125 47l53 98l119 -43q96 -38 143 -73q-8 69 9 172l22 141h111l-23 -141q-17 -99 -41 -172q3 2 16.5 9.5t17 9.5t15.5 8.5t18 9.5t18 8.5
t22.5 9.5t24.5 9.5t30 10.5l133 43l27 -106l-139 -45q-88 -30 -172 -41q52 -52 92 -133l59 -113l-94 -63l-62 116q-45 79 -61 150q-35 -68 -107 -154l-96 -112l-88 65l94 115q47 57 138 131q-67 8 -154 43z" />
    <glyph glyph-name="fraction" unicode="&#x2044;" horiz-adv-x="256" 
d="M823 1454l-1163 -1454h-158l1164 1454h157z" />
    <glyph glyph-name="zero.superior" unicode="&#x2070;" horiz-adv-x="860" 
d="M10 1004q0 160 57.5 291t159 205.5t226.5 74.5q145 0 226 -94.5t81 -261.5q0 -161 -57 -292t-158 -205.5t-226 -74.5q-145 0 -227 96t-82 261zM145 1008q0 -114 49.5 -177t141.5 -63q123 0 205 127.5t82 318.5q0 113 -48.5 176.5t-138.5 63.5q-125 0 -208 -128t-83 -318z
" />
    <glyph glyph-name="four.superior" unicode="&#x2074;" horiz-adv-x="768" 
d="M637 848h-107l-26 -172h-129l26 172h-450l18 125l500 598h178l-96 -600h104zM119 971h303l70 450z" />
    <glyph glyph-name="five.superior" unicode="&#x2075;" horiz-adv-x="731" 
d="M-25 963h136q-9 -80 34 -129.5t121 -49.5q89 0 151 66.5t62 161.5q0 70 -42 112.5t-115 42.5q-100 0 -177 -80l-120 19l182 465h448l-20 -129h-348l-84 -205q67 43 151 43q119 0 190.5 -71t71.5 -185q0 -149 -103.5 -255.5t-250.5 -106.5q-136 0 -216.5 83.5t-70.5 217.5
z" />
    <glyph glyph-name="six.superior" unicode="&#x2076;" horiz-adv-x="759" 
d="M297 1300l244 271h164l-261 -287q40 8 64 8q125 0 204 -76t79 -196q0 -154 -104 -256t-259 -102q-131 0 -218 81.5t-87 206.5q0 86 39.5 164.5t134.5 185.5zM260 958q0 -78 50 -127t128 -49q93 0 155 63t62 159q0 82 -47 130t-129 48q-92 0 -155.5 -64.5t-63.5 -159.5z
" />
    <glyph glyph-name="seven.superior" unicode="&#x2077;" horiz-adv-x="663" 
d="M780 1446l-415 -770h-150l420 770h-453l21 125h596z" />
    <glyph glyph-name="eight.superior" unicode="&#x2078;" horiz-adv-x="770" 
d="M-20 895q0 92 56.5 163.5t147.5 96.5q-96 50 -96 162q0 117 88 192.5t223 75.5q116 0 190.5 -58t74.5 -155q0 -79 -45 -139.5t-121 -87.5q63 -18 98 -70t35 -121q0 -129 -98.5 -210.5t-251.5 -81.5q-134 0 -217.5 64t-83.5 169zM203 1321q0 -52 41.5 -86.5t111.5 -34.5
q80 0 131.5 43.5t51.5 110.5q0 53 -41.5 83.5t-108.5 30.5q-83 0 -134.5 -40.5t-51.5 -106.5zM119 915q0 -61 48.5 -96t125.5 -35q91 0 149 48.5t58 123.5q0 61 -48 96t-126 35q-92 0 -149.5 -48.5t-57.5 -123.5z" />
    <glyph glyph-name="nine.superior" unicode="&#x2079;" horiz-adv-x="761" 
d="M662 946l-244 -270h-164l260 287q-37 -11 -63 -11q-125 0 -204 77t-79 198q0 155 103.5 256.5t258.5 101.5q131 0 218.5 -82t87.5 -207q0 -87 -39.5 -166t-134.5 -184zM698 1286q0 79 -50 128.5t-128 49.5q-93 0 -155 -62.5t-62 -158.5q0 -83 47 -130.5t129 -47.5
q93 0 156 63t63 158z" />
    <glyph glyph-name="zero.inferior" unicode="&#x2080;" horiz-adv-x="851" 
d="M10 135q0 159 57.5 289.5t159 205.5t226.5 75q145 0 226 -95t81 -260q0 -246 -125.5 -408.5t-315.5 -162.5q-145 0 -227 95.5t-82 260.5zM145 139q0 -114 49.5 -176.5t141.5 -62.5q123 0 205 127.5t82 316.5q0 115 -48.5 177.5t-138.5 62.5q-125 0 -208 -128t-83 -317z
" />
    <glyph glyph-name="one.inferior" unicode="&#x2081;" horiz-adv-x="473" 
d="M256 565h-203l21 125h334l-142 -895h-133z" />
    <glyph glyph-name="two.inferior" unicode="&#x2082;" horiz-adv-x="704" 
d="M543 -205h-598l18 107l375 282q160 118 160 256q0 66 -37 103t-103 37q-76 0 -126 -51.5t-64 -143.5h-137q26 149 116 234.5t222 85.5q120 0 193 -69.5t73 -186.5q0 -191 -213 -353l-236 -176h375z" />
    <glyph glyph-name="three.inferior" unicode="&#x2083;" horiz-adv-x="706" 
d="M238 246h-52l13 94l278 225h-383l21 125h549l-21 -123l-268 -217q98 -18 157.5 -82t59.5 -159q0 -142 -95.5 -235t-244.5 -93q-136 0 -213 81t-66 212h133q-8 -78 33 -124t117 -46q86 0 143.5 55.5t57.5 138.5q0 60 -40.5 100t-107.5 46q-20 2 -71 2z" />
    <glyph glyph-name="four.inferior" unicode="&#x2084;" horiz-adv-x="753" 
d="M637 -33h-107l-26 -172h-129l26 172h-450l18 125l500 598h178l-96 -600h104zM119 90h303l70 451z" />
    <glyph glyph-name="five.inferior" unicode="&#x2085;" horiz-adv-x="716" 
d="M-25 82h136q-9 -79 34 -128.5t121 -49.5q89 0 151 66t62 161q0 70 -42 113t-115 43q-100 0 -177 -80l-120 18l182 465h448l-20 -129h-348l-84 -205q67 43 151 43q119 0 190.5 -71t71.5 -185q0 -149 -103.5 -255.5t-250.5 -106.5q-136 0 -216.5 83.5t-70.5 217.5z" />
    <glyph glyph-name="six.inferior" unicode="&#x2086;" horiz-adv-x="761" 
d="M158 420l243 270h164l-260 -287q45 9 64 9q124 0 203 -76.5t79 -196.5q0 -155 -103.5 -256.5t-258.5 -101.5q-131 0 -218 82t-87 207q0 86 39.5 164.5t134.5 185.5zM121 78q0 -78 50 -127t128 -49q93 0 155 62.5t62 158.5q0 82 -47 130t-129 48q-93 0 -156 -64t-63 -159z
" />
    <glyph glyph-name="seven.inferior" unicode="&#x2087;" horiz-adv-x="663" 
d="M641 565l-416 -770h-149l420 770h-453l20 125h596z" />
    <glyph glyph-name="eight.inferior" unicode="&#x2088;" horiz-adv-x="757" 
d="M-20 14q0 92 56.5 163.5t147.5 96.5q-96 50 -96 162q0 117 88 193t223 76q116 0 190.5 -58t74.5 -155q0 -79 -45 -140.5t-121 -87.5q63 -18 98 -69.5t35 -120.5q0 -129 -98.5 -211t-251.5 -82q-134 0 -217.5 64t-83.5 169zM203 440q0 -52 41.5 -86.5t111.5 -34.5
q80 0 131.5 43.5t51.5 110.5q0 53 -41.5 84t-108.5 31q-83 0 -134.5 -41t-51.5 -107zM119 35q0 -61 48.5 -96t125.5 -35q91 0 149 48.5t58 123.5q0 61 -48 96t-126 35q-92 0 -149.5 -48.5t-57.5 -123.5z" />
    <glyph glyph-name="nine.inferior" unicode="&#x2089;" horiz-adv-x="759" 
d="M520 66l-241 -271h-164l262 287q-38 -10 -68 -10q-125 0 -203.5 76.5t-78.5 197.5q0 154 104.5 256.5t257.5 102.5q132 0 218.5 -81.5t86.5 -207.5q0 -87 -39.5 -166t-134.5 -184zM559 406q0 79 -50.5 128.5t-129.5 49.5q-93 0 -154 -63t-61 -159q0 -83 46 -130.5
t128 -47.5q93 0 157 63.5t64 158.5z" />
    <glyph glyph-name="Euro" unicode="&#x20ac;" horiz-adv-x="1286" 
d="M846 -25q-253 0 -423.5 147t-209.5 392h-162l23 143h129q0 73 14 166h-117l23 144h133q90 251 310.5 394.5t523.5 143.5q152 0 237 -37l-29 -180q-100 35 -231 35q-222 0 -379.5 -92.5t-232.5 -263.5h581l-22 -144h-602q-17 -90 -17 -166h592l-22 -143h-555
q35 -172 159 -264t314 -92q126 0 254 41l-31 -189q-118 -35 -260 -35z" />
    <glyph glyph-name="numero" unicode="&#x2116;" horiz-adv-x="2533" 
d="M2521 1087q0 -150 -70.5 -275t-193.5 -197t-270 -72q-191 0 -317 121t-126 305q0 148 71 272t193.5 195t268.5 71q195 0 319.5 -118.5t124.5 -301.5zM287 0h-193l234 1481h192l563 -1157l183 1157h192l-235 -1481h-191l-563 1157zM2345 1071q0 123 -75.5 195.5
t-203.5 72.5q-148 0 -248 -102.5t-100 -251.5q0 -123 79 -200.5t202 -77.5q146 0 246 105t100 259zM2339 246h-860l26 164h860z" />
    <glyph glyph-name="soundcopyright" unicode="&#x2117;" horiz-adv-x="993" 
d="M551 666q-170 0 -274.5 102t-104.5 268q0 198 132.5 335.5t322.5 137.5q172 0 276.5 -101.5t104.5 -268.5q0 -198 -132.5 -335.5t-324.5 -137.5zM553 731q161 0 271 118t110 290q0 140 -83.5 222.5t-225.5 82.5q-160 0 -270.5 -118t-110.5 -290q0 -140 83.5 -222.5
t225.5 -82.5zM487 848h-75l75 469h172q68 0 109 -38.5t41 -100.5q0 -83 -55.5 -135t-143.5 -52h-100zM551 1247l-29 -184h101q49 0 78.5 29.5t29.5 78.5q0 36 -21.5 56t-60.5 20h-98z" />
    <glyph glyph-name="trademark" unicode="&#x2122;" horiz-adv-x="1292" 
d="M383 1397h-188l12 84h467l-12 -84h-189l-78 -492h-90zM737 905h-84l90 576h82l131 -484l281 484h86l-90 -576h-84l63 391l-229 -391h-78l-106 389z" />
    <glyph glyph-name="estimated" unicode="&#x212e;" horiz-adv-x="1613" 
d="M170 723q0 160 50.5 296.5t139.5 231.5t214.5 149t271.5 54q148 0 272 -46.5t213 -132t139 -212.5t50 -283q0 -77 -2 -108h-1143v-369q80 -115 207 -177.5t288 -62.5q157 0 290 75t198 198l78 -29q-75 -151 -227 -238t-343 -87q-206 0 -364.5 93t-245 261.5t-86.5 386.5z
M375 1118v-373h940v410q-76 104 -199 160.5t-270 56.5q-150 0 -272 -68t-199 -186z" />
    <glyph glyph-name="oneeighth" unicode="&#x215b;" horiz-adv-x="1372" 
d="M334 1376h-158l17 105h274l-111 -707h-116zM1319 1454l-1165 -1454h-158l1163 1454h160zM756 186q0 70 42.5 123.5t112.5 73.5q-69 43 -69 133q0 88 68 143.5t175 55.5q91 0 148 -49.5t57 -128.5q0 -61 -33 -106t-90 -62q48 -19 75.5 -60.5t27.5 -95.5
q0 -98 -77.5 -160.5t-197.5 -62.5q-101 0 -170 56.5t-69 139.5zM946 514q0 -43 30.5 -67.5t84.5 -24.5t89.5 29t35.5 73q0 41 -30.5 66.5t-78.5 25.5q-59 0 -95 -28t-36 -74zM874 201q0 -46 37.5 -76.5t94.5 -30.5q61 0 103 35t42 86q0 49 -35 76.5t-96 27.5
q-63 0 -104.5 -33t-41.5 -85z" />
    <glyph glyph-name="threeeighths" unicode="&#x215c;" horiz-adv-x="1456" 
d="M121 999h119q0 -59 34 -94t91 -35t90.5 33t33.5 90q0 59 -41 94t-110 35h-55l12 80l203 168h-287l18 111h439l-17 -105l-200 -170q71 -20 115 -77.5t44 -131.5q0 -103 -70 -170t-180 -67q-106 0 -172.5 66.5t-66.5 172.5zM1403 1454l-1165 -1454h-158l1163 1454h160z
M842 186q0 70 42 123.5t111 73.5q-69 43 -69 133q0 88 68 143.5t175 55.5q91 0 149 -49.5t58 -128.5q0 -61 -33.5 -106t-91.5 -62q48 -19 75.5 -60.5t27.5 -95.5q0 -98 -77 -160.5t-198 -62.5q-101 0 -169 56.5t-68 139.5zM1030 514q0 -43 30.5 -67.5t84.5 -24.5q55 0 90 29
t35 73q0 41 -30.5 66.5t-78.5 25.5q-59 0 -95 -28t-36 -74zM961 201q0 -46 36 -76.5t93 -30.5q63 0 104 35t41 86q0 49 -35 76.5t-96 27.5q-63 0 -103 -33t-40 -85z" />
    <glyph glyph-name="fiveeighths" unicode="&#x215d;" horiz-adv-x="1495" 
d="M375 760q-109 0 -177.5 66t-68.5 173h121q0 -59 34.5 -94t92.5 -35q64 0 106.5 46.5t42.5 117.5q0 57 -31 89t-87 32q-78 0 -129 -63l-109 18l147 371h369l-18 -111h-281l-59 -145q46 30 110 30q97 0 154 -57.5t57 -155.5q0 -120 -78.5 -201t-195.5 -81zM1442 1454
l-1163 -1454h-158l1163 1454h158zM881 186q0 70 42 123.5t113 73.5q-71 45 -71 133t68 143.5t175 55.5q92 0 149.5 -49.5t57.5 -128.5q0 -61 -33.5 -106t-91.5 -62q48 -19 75.5 -60.5t27.5 -95.5q0 -98 -77 -160.5t-198 -62.5q-101 0 -169 56.5t-68 139.5zM1069 514
q0 -43 31.5 -67.5t85.5 -24.5t88.5 29t34.5 73q0 41 -30.5 66.5t-78.5 25.5q-59 0 -95 -28t-36 -74zM999 201q0 -46 36.5 -76.5t94.5 -30.5q61 0 102.5 35t41.5 86q0 49 -35 76.5t-96 27.5q-63 0 -103.5 -33t-40.5 -85z" />
    <glyph glyph-name="seveneighths" unicode="&#x215e;" horiz-adv-x="1339" 
d="M528 1370h-366l18 111h494l-19 -111l-336 -596h-131zM1286 1454l-1163 -1454h-158l1163 1454h158zM725 186q0 70 42.5 123.5t113.5 73.5q-72 45 -72 133t68.5 143.5t175.5 55.5q92 0 149.5 -49.5t57.5 -128.5q0 -61 -33.5 -106t-91.5 -62q47 -19 74.5 -60.5t27.5 -95.5
q0 -98 -76.5 -160.5t-197.5 -62.5q-101 0 -169.5 56.5t-68.5 139.5zM913 514q0 -43 31.5 -67.5t85.5 -24.5t88.5 29t34.5 73q0 41 -30.5 66.5t-78.5 25.5q-59 0 -95 -28t-36 -74zM844 201q0 -46 36.5 -76.5t94.5 -30.5q61 0 102 35t41 86q0 49 -35 76.5t-96 27.5
q-63 0 -103 -33t-40 -85z" />
    <glyph glyph-name="arrowleft" unicode="&#x2190;" horiz-adv-x="1939" 
d="M915 -14l-108 -111l-676 674l676 676l108 -109l-489 -489h1386v-154h-1386z" />
    <glyph glyph-name="arrowup" unicode="&#x2191;" horiz-adv-x="1605" 
d="M301 817l-111 111l680 669l680 -669l-108 -111l-496 486v-1303h-151v1303z" />
    <glyph glyph-name="arrowright" unicode="&#x2192;" horiz-adv-x="1939" 
d="M1051 1180l108 106l676 -674l-676 -673l-108 108l487 490h-1384v151l1384 2z" />
    <glyph glyph-name="arrowdown" unicode="&#x2193;" horiz-adv-x="1593" 
d="M1358 559l106 -108l-676 -676l-671 676l108 108l488 -487v1433h153v-1433z" />
    <glyph glyph-name="arrowboth" unicode="&#x2194;" horiz-adv-x="2228" 
d="M129 541l500 501v-223l-205 -203l471 2v3h459l465 -3l-205 201v223l500 -499l-500 -506v225l205 203l-920 -2v2l-475 -2l207 -205v-221z" />
    <glyph glyph-name="arrowupdn" unicode="&#x2195;" horiz-adv-x="1406" 
d="M723 -352l-500 499h221l203 -204l-2 473v456l2 465l-203 -204h-221l500 499l506 -499h-223l-203 204v-1394l203 204h223z" />
    <glyph glyph-name="arrowNW" unicode="&#x2196;" horiz-adv-x="1921" 
d="M279 1481h952v-154l-690 -2l1196 -1216l-109 -109l-1196 1217v-691h-153v955z" />
    <glyph glyph-name="arrowNE" unicode="&#x2197;" horiz-adv-x="1660" 
d="M588 1327v154h954v-953h-156v691l-1216 -1219l-109 109l1217 1218h-690z" />
    <glyph glyph-name="arrowSE" unicode="&#x2198;" horiz-adv-x="1941" 
d="M1587 958l152 -2v-954l-953 2v154h691l-1215 1216l107 107l1216 -1215z" />
    <glyph glyph-name="arrowSW" unicode="&#x2199;" horiz-adv-x="1660" 
d="M1149 152v-154h-956l2 954h155v-690l1221 1221l106 -107l-1220 -1222z" />
    <glyph glyph-name="partialdiff" unicode="&#x2202;" horiz-adv-x="1265" 
d="M102 449q0 162 76.5 298.5t208 215.5t287.5 79q99 0 181.5 -37t135.5 -104q-88 316 -366 608h219q175 -193 257.5 -385.5t82.5 -418.5q0 -210 -76 -377t-211.5 -260t-306.5 -93q-220 0 -354 130t-134 344zM295 457q0 -143 80 -228.5t213 -85.5q158 0 270.5 128t112.5 307
q0 138 -78.5 217t-216.5 79q-158 0 -269.5 -122t-111.5 -295z" />
    <glyph glyph-name="emptyset" unicode="&#x2205;" horiz-adv-x="1646" 
d="M776 -25q-154 0 -279.5 54t-211.5 153l-193 -155l-90 102l207 168q-74 145 -74 321q0 183 64.5 347.5t173.5 282.5t258.5 187.5t314.5 69.5q154 0 280 -54t212 -153l196 160l86 -104l-207 -168q76 -146 76 -326q0 -182 -64.5 -346.5t-174 -282.5t-259.5 -187t-315 -69z
M338 635q0 -113 35 -203l907 737q-125 150 -352 150q-118 0 -226.5 -54t-188.5 -145.5t-127.5 -218.5t-47.5 -266zM795 164q157 0 293 90.5t217 248t81 343.5q0 119 -36 207l-908 -740q124 -149 353 -149z" />
    <glyph glyph-name="increment" unicode="&#x2206;" horiz-adv-x="1370" 
d="M1198 0h-1186l25 166l698 1315h201l289 -1319zM776 1196l-538 -1032h802l-221 1032q-5 21 -12 61q-12 -26 -31 -61z" />
    <glyph glyph-name="product" unicode="&#x220f;" horiz-adv-x="1384" 
d="M285 0h-191l234 1481h1038l-233 -1481h-193l207 1300h-655z" />
    <glyph glyph-name="summation" unicode="&#x2211;" horiz-adv-x="1110" 
d="M938 0h-948l30 201l527 549l-354 534l30 197h951l-29 -181h-748l375 -565l-530 -555h725z" />
    <glyph glyph-name="minus" unicode="&#x2212;" 
d="M217 768h1004l-27 -156h-1004z" />
    <glyph glyph-name="radical" unicode="&#x221a;" horiz-adv-x="1425" 
d="M315 0l-237 1001h184l172 -763l651 1243h431l-25 -168h-293l-704 -1313h-179z" />
    <glyph glyph-name="infinity" unicode="&#x221e;" horiz-adv-x="1763" 
d="M115 530q0 186 122.5 311.5t305.5 125.5q122 0 209.5 -62.5t150.5 -193.5q179 256 432 256q144 0 241 -95.5t97 -236.5q0 -188 -119 -312t-299 -124q-123 0 -212 61.5t-158 192.5q-108 -135 -206 -194.5t-216 -59.5q-146 0 -247 96t-101 235zM287 553q0 -86 54.5 -138.5
t145.5 -52.5q162 0 299 224q-36 106 -101 160.5t-150 54.5q-106 0 -177 -70.5t-71 -177.5zM1001 580q38 -106 104 -162t150 -56q105 0 175.5 70.5t70.5 177.5q0 86 -53 138.5t-141 52.5q-166 0 -306 -221z" />
    <glyph glyph-name="integral" unicode="&#x222b;" horiz-adv-x="808" 
d="M137 -27h-157l26 168h148q102 0 120 117l152 961q46 290 324 290h157l-26 -168h-150q-98 0 -119 -118l-151 -961q-46 -289 -324 -289z" />
    <glyph glyph-name="approxequal" unicode="&#x2248;" 
d="M1063 967h154q-26 -162 -102 -245t-197 -83q-55 0 -109 19t-97 46t-83.5 54t-84 46t-83.5 19q-61 0 -97 -39.5t-51 -124.5h-153q25 154 103.5 237t199.5 83q51 0 102.5 -19t94 -46t83.5 -54t86.5 -46t88.5 -19q60 0 94 40.5t51 131.5zM1063 578h154q-26 -162 -102 -245
t-197 -83q-55 0 -109 18.5t-97 45.5t-83.5 54t-84 45.5t-83.5 18.5q-62 0 -97.5 -39t-50.5 -125h-153q25 155 103 237.5t200 82.5q51 0 102.5 -18.5t94 -45.5t83.5 -54t86.5 -45.5t88.5 -18.5q60 0 94 40.5t51 131.5z" />
    <glyph glyph-name="notequal" unicode="&#x2260;" 
d="M211 39l188 276h-254l27 158h336l190 277h-485l27 155h565l190 279h183l-191 -279h254l-27 -155h-335l-189 -277h484l-27 -158h-565l-191 -276h-180z" />
    <glyph glyph-name="lessequal" unicode="&#x2264;" 
d="M1163 410l-28 -174l-945 364l29 193l1061 364l-29 -190l-854 -279zM94 0l27 156h1001l-24 -156h-1004z" />
    <glyph glyph-name="greaterequal" unicode="&#x2265;" 
d="M1194 598l-1061 -362l29 190l854 279l-766 278l29 174l944 -364zM121 156h1001l-24 -156h-1002z" />
    <glyph glyph-name="filledbox" unicode="&#x25a0;" horiz-adv-x="1929" 
d="M274 0v1454h1455v-1454h-1455z" />
    <glyph glyph-name="squarewhite" unicode="&#x25a1;" horiz-adv-x="1929" 
d="M274 0v1454h1455v-1454h-1455zM1575 1300h-1147v-1146h1147v1146z" />
    <glyph glyph-name="triagup" unicode="&#x25b2;" horiz-adv-x="1978" 
d="M43 0l866 1454l867 -1454h-1733z" />
    <glyph glyph-name="triangleupwhite" unicode="&#x25b3;" horiz-adv-x="1980" 
d="M913 1460l867 -1456h-1735zM303 145h1219l-611 1022z" />
    <glyph glyph-name="lozenge" unicode="&#x25ca;" horiz-adv-x="1271" 
d="M1186 727l-420 -727h-188l-418 727l418 727h188zM987 727l-315 559l-316 -559l316 -559z" />
    <glyph glyph-name="circle" unicode="&#x25cb;" horiz-adv-x="1859" 
d="M958 -115q-162 0 -309.5 63t-254 170t-169.5 254.5t-63 309.5t63.5 309.5t170 254.5t254 170t308.5 63t309 -63.5t255.5 -170.5t171 -254.5t63.5 -308.5q0 -162 -63.5 -309.5t-171 -254.5t-255.5 -170t-309 -63zM958 37q175 0 324 86.5t235.5 235t86.5 323.5
q0 174 -87 322.5t-236 235.5t-323 87t-322.5 -86.5t-235.5 -235t-87 -323.5t87 -323.5t235.5 -235t322.5 -86.5z" />
    <glyph glyph-name="circleblack" unicode="&#x25cf;" horiz-adv-x="1859" 
d="M958 -115q-162 0 -309.5 63t-254 170t-169.5 254.5t-63 309.5t63.5 309.5t170 254.5t254 170t308.5 63t309 -63.5t255.5 -170.5t171 -254.5t63.5 -308.5q0 -162 -63.5 -309.5t-171 -254.5t-255.5 -170t-309 -63z" />
    <glyph glyph-name="peace" unicode="&#x262e;" horiz-adv-x="1859" 
d="M958 -115q-162 0 -309.5 63t-254 170t-169.5 254.5t-63 309.5t63.5 309.5t170 254.5t254 170t308.5 63t309 -63.5t255.5 -170.5t171 -254.5t63.5 -308.5q0 -162 -63.5 -309.5t-171 -254.5t-255.5 -170t-309 -63zM313 682q0 -134 56 -262l522 346v557
q-160 -16 -292.5 -105t-209 -230.5t-76.5 -305.5zM1604 682q0 162 -76 303t-207.5 230.5t-290.5 107.5v-557l518 -344q56 128 56 260zM438 301q81 -109 199 -178t254 -82v559zM1030 600v-559q136 15 253.5 84t195.5 176z" />
    <glyph glyph-name="check" unicode="&#x2713;" horiz-adv-x="1409" 
d="M510 14l-442 478l118 122l318 -342l661 797l131 -108z" />
    <glyph glyph-name="ITF" unicode="&#xf8ff;" horiz-adv-x="3708" 
d="M328 0v1434h442v-1434h-442zM862 1016v418h443v-418h-443zM1395 0v1434h444v-1434h-444zM1929 1016v418h443v-418h-443zM2462 0v1434h444v-1434h-444zM2996 1016v418h443v-418h-443zM2996 506v420h443v-420h-443z" />
    <glyph glyph-name="G.ss01" horiz-adv-x="1552" 
d="M119 631q0 250 101.5 449.5t282 312t406.5 112.5q245 0 401.5 -129.5t176.5 -349.5h-205q-22 140 -124 217.5t-265 77.5q-124 0 -230 -51t-181 -140.5t-117.5 -216.5t-42.5 -274q0 -224 118.5 -352.5t325.5 -128.5q205 0 336 118t172 338h-494l29 174h692l-20 -145
q-44 -312 -239.5 -490t-491.5 -178q-287 0 -459 179t-172 477z" />
    <glyph glyph-name="idotaccent" horiz-adv-x="460" 
d="M334 1151q-44 0 -72.5 28t-28.5 72q0 57 41 98.5t97 41.5q43 0 71.5 -28.5t28.5 -72.5q0 -56 -41 -97.5t-96 -41.5zM59 0l160 1001h182l-157 -1001h-185z" />
    <glyph glyph-name="a.ss01" horiz-adv-x="1206" 
d="M983 1001h166l-160 -1001h-168l13 178q-131 -203 -365 -203q-175 0 -288 124.5t-113 320.5q0 173 69 312.5t190 217.5t271 78q121 0 212 -56t126 -153zM889 580q0 134 -70.5 209t-197.5 75q-155 0 -261 -125t-106 -309q0 -132 71.5 -211.5t192.5 -79.5q156 0 263.5 127.5
t107.5 313.5z" />
    <glyph glyph-name="g.ss02" horiz-adv-x="1083" 
d="M129 590q0 186 135.5 312t337.5 126q129 0 240 -65q40 65 106 102t144 37q26 0 36 -2l-24 -158q-8 2 -41 2q-96 0 -152 -65q35 -37 56.5 -95t21.5 -118q0 -180 -133.5 -301t-331.5 -121q-106 0 -192 39q-58 -1 -94.5 -27.5t-36.5 -65.5q0 -40 28 -58.5t88 -18.5h324
q146 0 225.5 -61.5t79.5 -172.5q0 -169 -150.5 -261.5t-426.5 -92.5q-210 0 -319 62.5t-109 181.5q0 76 51 134t139 83q-94 46 -94 151q0 78 53 130.5t150 72.5q-111 97 -111 250zM307 598q0 -93 61.5 -149t163.5 -56q123 0 201 77t78 200q0 93 -60 150t-157 57
q-122 0 -204.5 -80.5t-82.5 -198.5zM106 -182q0 -140 287 -140q179 0 275 48.5t96 136.5q0 98 -152 98h-319q-86 -2 -136.5 -40.5t-50.5 -102.5z" />
    <glyph glyph-name="t.ss03" horiz-adv-x="671" 
d="M537 162l6 -160q-77 -25 -152 -25q-129 0 -197 77t-44 222l90 570h-152l25 153h151l49 316h185l-52 -316h232l-25 -153h-231l-86 -545q-22 -156 100 -156q45 0 101 17z" />
    <glyph glyph-name="f_y" horiz-adv-x="1591" 
d="M489 -446l25 153h125q71 0 123.5 28.5t95.5 112.5l60 113l-193 885h-309l-133 -846h-183l133 846h-145l25 155h145l27 162q26 168 118 256t242 88q72 0 113 -8l-25 -158h-84q-82 0 -125.5 -41.5t-56.5 -136.5l-27 -162h437l159 -811l420 811h199l-656 -1226
q-65 -119 -148 -179.5t-202 -60.5q-86 0 -160 19z" />
    <glyph glyph-name="t_i" horiz-adv-x="1132" 
d="M1018 1243q-44 0 -74.5 30.5t-30.5 74.5q0 57 43 101t101 44q44 0 74 -30t30 -74q0 -57 -43 -101.5t-100 -44.5zM330 0h-183l134 846h-193l25 155h192l49 314h185l-50 -314h584l-158 -1001h-184l133 846h-399z" />
    <glyph glyph-name="t_t" horiz-adv-x="1259" 
d="M330 0h-183l134 846h-193l25 155h192l49 314h185l-50 -314h441l49 314h184l-49 -314h193l-25 -155h-192l-136 -846h-182l133 846h-440z" />
    <glyph glyph-name="t_y" horiz-adv-x="1613" 
d="M330 0h-183l134 846h-193l25 155h192l49 314h185l-50 -314h410l160 -813l420 813h198l-655 -1226q-65 -119 -148 -179.5t-202 -60.5q-86 0 -160 19l25 153h125q70 0 123 28.5t98 112.5l57 111l-192 887h-283z" />
    <glyph glyph-name="zero.tf" 
d="M123 561q0 267 88 483.5t243.5 339.5t348.5 123q237 0 369.5 -158t132.5 -429q0 -267 -88.5 -484t-244.5 -340t-349 -123q-236 0 -368 158.5t-132 429.5zM311 565q0 -196 84.5 -307t243.5 -111q134 0 243 101.5t170.5 277.5t61.5 389q0 196 -84.5 307t-243.5 111
q-133 0 -242 -101.5t-171 -277.5t-62 -389z" />
    <glyph glyph-name="one.tf" 
d="M567 172l181 1149h-375l24 160h566l-207 -1309h374l-26 -172h-954l26 172h391z" />
    <glyph glyph-name="two.tf" 
d="M1090 0h-975l24 150l576 423q184 136 262 253t78 255q0 116 -72 186t-192 70q-136 0 -220.5 -91.5t-109.5 -262.5h-195q35 252 176 389t363 137q201 0 325.5 -116.5t124.5 -305.5q0 -175 -104 -328.5t-336 -322.5l-344 -254h649z" />
    <glyph glyph-name="three.tf" 
d="M647 768h-137l20 131l474 410h-650l29 172h897l-25 -158l-473 -410q171 -25 276 -146t105 -298q0 -218 -146 -356t-376 -138q-224 0 -359 132.5t-135 353.5h193q0 -145 80 -229.5t217 -84.5q148 0 238 87t90 233q0 140 -85 220.5t-233 80.5z" />
    <glyph glyph-name="four.tf" 
d="M1202 301h-174l-47 -301h-184l47 301h-762l27 172l860 1008h248l-160 -1008h172zM328 473h542l125 782z" />
    <glyph glyph-name="five.tf" 
d="M662 -25q-229 0 -366.5 132.5t-137.5 353.5h192q0 -144 83.5 -230t223.5 -86q143 0 234.5 98t91.5 257q0 149 -84 238t-223 89q-178 0 -293 -147l-158 41l297 760h725l-28 -181h-584l-152 -385q101 76 242 76q204 0 331.5 -132.5t127.5 -344.5q0 -236 -148 -387.5
t-374 -151.5z" />
    <glyph glyph-name="six.tf" 
d="M422 1030l405 451h238l-440 -488q76 27 137 27q202 0 328.5 -126t126.5 -325q0 -166 -77 -302t-212 -214t-299 -78q-214 0 -353 134t-139 337q0 155 71.5 290t213.5 294zM338 461q0 -135 86.5 -222t222.5 -87q157 0 263 114t106 281q0 142 -79.5 223.5t-221.5 81.5
q-157 0 -267 -113.5t-110 -277.5z" />
    <glyph glyph-name="seven.tf" 
d="M315 1481h1033l-27 -181l-748 -1300h-215l750 1300h-821z" />
    <glyph glyph-name="eight.tf" 
d="M123 393q0 150 92 263t242 153q-170 86 -170 283q0 123 67 218.5t183.5 147t263.5 51.5q200 0 329.5 -105t129.5 -261q0 -134 -75 -231t-202 -138q102 -40 159.5 -126t57.5 -202q0 -212 -158 -342.5t-407 -130.5q-228 0 -370 117t-142 303zM467 1087q0 -110 82 -168.5
t217 -58.5q137 0 222 69t85 189q0 97 -81 159t-212 62q-137 0 -225 -69.5t-88 -182.5zM315 406q0 -118 91 -189.5t239 -71.5q162 0 263.5 81t101.5 218q0 117 -92 185.5t-246 68.5q-160 0 -258.5 -78.5t-98.5 -213.5z" />
    <glyph glyph-name="nine.tf" 
d="M1006 451l-404 -451h-240l445 487q-71 -24 -141 -24q-202 0 -328.5 125t-126.5 323q0 166 77.5 302.5t213 215t299.5 78.5q214 0 351.5 -134.5t137.5 -338.5q0 -155 -71 -290.5t-213 -292.5zM1090 1020q0 136 -86.5 222.5t-223.5 86.5q-155 0 -261.5 -114t-106.5 -281
q0 -140 80.5 -222.5t220.5 -82.5q158 0 267.5 113.5t109.5 277.5z" />
    <glyph glyph-name="zero.dnom" horiz-adv-x="718" 
d="M33 274q0 189 101.5 318t252.5 129q118 0 186 -77.5t68 -211.5q0 -188 -101.5 -316t-250.5 -128q-120 0 -188 76t-68 210zM152 274q0 -86 37.5 -133t105.5 -47q96 0 161.5 98t65.5 240q0 86 -37.5 134t-105.5 48q-95 0 -161 -99.5t-66 -240.5z" />
    <glyph glyph-name="one.dnom" horiz-adv-x="411" 
d="M213 604h-160l17 105h276l-110 -709h-119z" />
    <glyph glyph-name="two.dnom" horiz-adv-x="595" 
d="M471 0h-489l14 86l293 231q66 52 93.5 92.5t27.5 94.5q0 49 -28.5 77.5t-78.5 28.5q-56 0 -94 -34.5t-47 -94.5h-121q19 114 90 177t180 63q98 0 161 -60.5t63 -154.5q0 -75 -41 -136t-132 -134l-155 -125h280z" />
    <glyph glyph-name="three.dnom" horiz-adv-x="577" 
d="M-2 227h119q0 -60 34.5 -95.5t92.5 -35.5q56 0 89.5 34t33.5 89q0 59 -41.5 94t-110.5 35h-53l10 80l203 170h-285l16 111h439l-17 -107l-202 -168q72 -19 117.5 -76.5t45.5 -132.5q0 -104 -70 -170.5t-179 -66.5q-108 0 -175 66t-67 173z" />
    <glyph glyph-name="four.dnom" horiz-adv-x="620" 
d="M311 137h-338l17 103l366 469h156l-70 -463h88l-18 -109h-88l-23 -137h-112zM127 246h201l51 323z" />
    <glyph glyph-name="five.dnom" horiz-adv-x="618" 
d="M252 -12q-109 0 -176.5 66t-67.5 173h119q0 -60 34.5 -95.5t92.5 -35.5q65 0 107 47t42 119q0 56 -31.5 88.5t-86.5 32.5q-77 0 -129 -64l-109 17l148 373h368l-18 -111h-279l-59 -145q43 28 108 28q97 0 154 -57t57 -154q0 -121 -78.5 -201.5t-195.5 -80.5z" />
    <glyph glyph-name="six.dnom" horiz-adv-x="630" 
d="M147 496l193 213h145l-200 -224q10 2 32 2q98 0 162 -60.5t64 -154.5q0 -122 -83.5 -203t-207.5 -81q-105 0 -175.5 65.5t-70.5 163.5q0 67 31 128t110 151zM129 225q0 -59 35.5 -94t95.5 -35q71 0 116.5 45t45.5 117q0 60 -35 94.5t-94 34.5q-72 0 -118 -45.5
t-46 -116.5z" />
    <glyph glyph-name="seven.dnom" horiz-adv-x="544" 
d="M408 598h-369l18 111h494l-16 -113l-336 -596h-133z" />
    <glyph glyph-name="eight.dnom" horiz-adv-x="622" 
d="M6 186q0 70 43 123t113 74q-72 45 -72 133t69 143.5t177 55.5q91 0 148 -49.5t57 -128.5q0 -61 -33 -106t-90 -62q47 -19 74.5 -60.5t27.5 -95.5q0 -98 -77 -160.5t-197 -62.5q-101 0 -170.5 56.5t-69.5 139.5zM197 514q0 -43 30 -67.5t84 -24.5t88.5 29t34.5 73
q0 41 -29.5 66.5t-76.5 25.5q-59 0 -95 -28t-36 -74zM125 201q0 -46 37 -76.5t94 -30.5q61 0 103 35t42 86q0 49 -35 76.5t-96 27.5q-63 0 -104 -33t-41 -85z" />
    <glyph glyph-name="nine.dnom" horiz-adv-x="630" 
d="M436 213l-190 -213h-146l201 223q-20 -4 -33 -4q-100 0 -163.5 61t-63.5 156q0 120 83.5 202.5t207.5 82.5q106 0 176 -65.5t70 -163.5q0 -67 -31 -128.5t-111 -150.5zM457 481q0 60 -36 95.5t-97 35.5q-71 0 -115.5 -45t-44.5 -118q0 -59 34.5 -94.5t94.5 -35.5
q70 0 117 46.5t47 115.5z" />
    <glyph glyph-name="zero.numr" horiz-adv-x="718" 
d="M156 1047q0 190 101.5 318t252.5 128q118 0 185 -76.5t67 -210.5q0 -189 -101 -317.5t-249 -128.5q-119 0 -187.5 77t-68.5 210zM274 1047q0 -85 37.5 -133t106.5 -48q95 0 161 98.5t66 241.5q0 86 -38 133t-107 47q-94 0 -160 -98.5t-66 -240.5z" />
    <glyph glyph-name="one.numr" horiz-adv-x="411" 
d="M334 1376h-158l17 105h274l-111 -707h-116z" />
    <glyph glyph-name="two.numr" horiz-adv-x="595" 
d="M592 774h-488l15 86l293 230q66 53 93 93.5t27 94.5q0 47 -29.5 76.5t-76.5 29.5q-57 0 -94.5 -34.5t-46.5 -94.5h-121q17 114 88 176t182 62q97 0 159 -59.5t62 -153.5q0 -76 -40.5 -138.5t-129.5 -133.5l-157 -125h282z" />
    <glyph glyph-name="three.numr" horiz-adv-x="577" 
d="M121 999h119q0 -59 34 -94t91 -35t90.5 33t33.5 90q0 59 -41 94t-110 35h-55l12 80l203 168h-287l18 111h439l-17 -105l-200 -170q71 -20 115 -77.5t44 -131.5q0 -103 -70 -170t-180 -67q-106 0 -172.5 66.5t-66.5 172.5z" />
    <glyph glyph-name="four.numr" horiz-adv-x="620" 
d="M432 911h-338l17 101l368 469h156l-70 -461h86l-16 -109h-88l-23 -137h-114zM248 1020h203l49 321z" />
    <glyph glyph-name="five.numr" horiz-adv-x="618" 
d="M375 760q-109 0 -177.5 66t-68.5 173h121q0 -59 34.5 -94t92.5 -35q64 0 106.5 46.5t42.5 117.5q0 57 -31 89t-87 32q-78 0 -129 -63l-109 18l147 371h369l-18 -111h-281l-59 -145q46 30 110 30q97 0 154 -57.5t57 -155.5q0 -120 -78.5 -201t-195.5 -81z" />
    <glyph glyph-name="six.numr" horiz-adv-x="630" 
d="M270 1268l191 213h145l-198 -221q10 2 30 2q100 0 164 -60.5t64 -154.5q0 -122 -83.5 -204.5t-207.5 -82.5q-105 0 -175.5 66t-70.5 163q0 68 31 129t110 150zM252 999q0 -59 35 -95t96 -36q70 0 115 46t45 118q0 59 -34.5 94t-94.5 35q-70 0 -116 -46.5t-46 -115.5z" />
    <glyph glyph-name="seven.numr" horiz-adv-x="544" 
d="M528 1370h-366l18 111h494l-19 -111l-336 -596h-131z" />
    <glyph glyph-name="eight.numr" horiz-adv-x="622" 
d="M129 961q0 70 42.5 122.5t113.5 71.5q-33 19 -52.5 55t-19.5 78q0 89 68 145t176 56q92 0 149.5 -50t57.5 -130q0 -60 -33.5 -105.5t-89.5 -62.5q46 -19 73 -60.5t27 -93.5q0 -98 -76 -161.5t-196 -63.5q-101 0 -170.5 57t-69.5 142zM317 1286q0 -43 31.5 -67.5
t85.5 -24.5t88.5 29.5t34.5 74.5q0 40 -30.5 65.5t-77.5 25.5q-59 0 -95.5 -28.5t-36.5 -74.5zM248 975q0 -47 36.5 -77t94.5 -30q62 0 102.5 34.5t40.5 86.5q0 47 -35.5 76t-95.5 29q-63 0 -103 -33.5t-40 -85.5z" />
    <glyph glyph-name="nine.numr" horiz-adv-x="630" 
d="M559 985l-192 -211h-146l201 221q-10 -2 -31 -2q-100 0 -163.5 60.5t-63.5 154.5q0 122 83.5 204.5t207.5 82.5q105 0 175 -66t70 -165q0 -67 -31 -128.5t-110 -150.5zM578 1255q0 59 -36 94t-96 35q-71 0 -116 -44.5t-45 -116.5q0 -60 35 -94.5t94 -34.5q72 0 118 45
t46 116z" />
    <glyph glyph-name="registered.ss01" horiz-adv-x="1226" 
d="M627 438q-205 0 -339 131t-134 332q0 127 46 239.5t125.5 193t191 127t237.5 46.5q204 0 336.5 -131t132.5 -332q0 -171 -77.5 -309.5t-214 -217.5t-304.5 -79zM633 526q211 0 353 147.5t142 368.5q0 169 -105 274t-275 105q-214 0 -357 -148t-143 -370
q0 -170 106 -273.5t279 -103.5zM553 702h-90l88 549h199q78 0 127 -42t49 -109q0 -63 -34 -111t-97 -71l73 -216h-92l-65 199h-127zM829 1090q0 37 -24 57t-68 20h-110l-29 -182h111q52 0 86 30t34 75z" />
    <glyph glyph-name="bracketleftsuperior" horiz-adv-x="436" 
d="M231 569h207l-18 -108h-332l209 1323h332l-17 -109h-209z" />
    <glyph glyph-name="bracketrightsuperior" horiz-adv-x="436" 
d="M403 1675h-206l16 109h334l-211 -1323h-332l19 108h206z" />
    <glyph glyph-name="Gbreve.ss01" horiz-adv-x="1552" 
d="M1096 1862h141q-21 -136 -94 -210.5t-201 -74.5q-124 0 -189 75.5t-65 209.5h139q0 -148 123 -148q124 0 146 148zM119 631q0 250 101.5 449.5t282 312t406.5 112.5q245 0 401.5 -129.5t176.5 -349.5h-205q-22 140 -124 217.5t-265 77.5q-124 0 -230 -51t-181 -140.5
t-117.5 -216.5t-42.5 -274q0 -224 118.5 -352.5t325.5 -128.5q205 0 336 118t172 338h-494l29 174h692l-20 -145q-44 -312 -239.5 -490t-491.5 -178q-287 0 -459 179t-172 477z" />
    <glyph glyph-name="Gcircumflex.ss01" horiz-adv-x="1552" 
d="M819 1591h-162l209 277h209l119 -277h-145l-84 189zM119 631q0 250 101.5 449.5t282 312t406.5 112.5q245 0 401.5 -129.5t176.5 -349.5h-205q-22 140 -124 217.5t-265 77.5q-124 0 -230 -51t-181 -140.5t-117.5 -216.5t-42.5 -274q0 -224 118.5 -352.5t325.5 -128.5
q205 0 336 118t172 338h-494l29 174h692l-20 -145q-44 -312 -239.5 -490t-491.5 -178q-287 0 -459 179t-172 477z" />
    <glyph glyph-name="Gcommaaccent.ss01" horiz-adv-x="1552" 
d="M119 631q0 250 101.5 449.5t282 312t406.5 112.5q245 0 401.5 -129.5t176.5 -349.5h-205q-22 140 -124 217.5t-265 77.5q-124 0 -230 -51t-181 -140.5t-117.5 -216.5t-42.5 -274q0 -224 118.5 -352.5t325.5 -128.5q205 0 336 118t172 338h-494l29 174h692l-20 -145
q-44 -312 -239.5 -490t-491.5 -178q-287 0 -459 179t-172 477zM805 -182q0 -103 -69.5 -175.5t-170.5 -66.5l10 72q52 -4 85 16t42 62q-18 -9 -38 -9q-36 0 -60 24t-24 60q0 52 38 88.5t91 36.5q44 0 70 -29t26 -79z" />
    <glyph glyph-name="Gdotaccent.ss01" horiz-adv-x="1552" 
d="M932 1624q-45 0 -73 27t-28 71q0 57 41.5 99.5t96.5 42.5q44 0 72 -28.5t28 -72.5q0 -57 -40.5 -98t-96.5 -41zM119 631q0 250 101.5 449.5t282 312t406.5 112.5q245 0 401.5 -129.5t176.5 -349.5h-205q-22 140 -124 217.5t-265 77.5q-124 0 -230 -51t-181 -140.5
t-117.5 -216.5t-42.5 -274q0 -224 118.5 -352.5t325.5 -128.5q205 0 336 118t172 338h-494l29 174h692l-20 -145q-44 -312 -239.5 -490t-491.5 -178q-287 0 -459 179t-172 477z" />
    <glyph glyph-name="Q.ss04" horiz-adv-x="1570" 
d="M1262 -270l-492 245h-33q-279 0 -450.5 177.5t-171.5 465.5q0 183 61.5 347.5t167 282.5t252.5 187.5t311 69.5q278 0 450.5 -179t172.5 -466q0 -281 -137 -504t-361 -319l314 -158zM1327 846q0 217 -118.5 345t-319.5 128q-157 0 -288 -91.5t-206.5 -248.5t-75.5 -344
q0 -216 118 -343.5t319 -127.5q157 0 288.5 91t207 247.5t75.5 343.5z" />
    <glyph glyph-name="aacute.ss01" horiz-adv-x="1206" 
d="M961 1386l-216 -268h-149l178 268h187zM983 1001h166l-160 -1001h-168l13 178q-131 -203 -365 -203q-175 0 -288 124.5t-113 320.5q0 173 69 312.5t190 217.5t271 78q121 0 212 -56t126 -153zM889 580q0 134 -70.5 209t-197.5 75q-155 0 -261 -125t-106 -309
q0 -132 71.5 -211.5t192.5 -79.5q156 0 263.5 127.5t107.5 313.5z" />
    <glyph glyph-name="abreve.ss01" horiz-adv-x="1206" 
d="M838 1389h143q-47 -283 -297 -283q-124 0 -189 75t-65 208h139q0 -148 125 -148q121 0 144 148zM983 1001h166l-160 -1001h-168l13 178q-131 -203 -365 -203q-175 0 -288 124.5t-113 320.5q0 173 69 312.5t190 217.5t271 78q121 0 212 -56t126 -153zM889 580
q0 134 -70.5 209t-197.5 75q-155 0 -261 -125t-106 -309q0 -132 71.5 -211.5t192.5 -79.5q156 0 263.5 127.5t107.5 313.5z" />
    <glyph glyph-name="acircumflex.ss01" horiz-adv-x="1206" 
d="M561 1118h-160l207 277h209l121 -277h-147l-84 189zM983 1001h166l-160 -1001h-168l13 178q-131 -203 -365 -203q-175 0 -288 124.5t-113 320.5q0 173 69 312.5t190 217.5t271 78q121 0 212 -56t126 -153zM889 580q0 134 -70.5 209t-197.5 75q-155 0 -261 -125t-106 -309
q0 -132 71.5 -211.5t192.5 -79.5q156 0 263.5 127.5t107.5 313.5z" />
    <glyph glyph-name="adieresis.ss01" horiz-adv-x="1206" 
d="M516 1151q-44 0 -71 26.5t-27 69.5q0 56 38.5 96.5t92.5 40.5q42 0 70 -28t28 -70q0 -54 -39.5 -94.5t-91.5 -40.5zM836 1151q-43 0 -70 26.5t-27 69.5q0 55 39 96t92 41q43 0 71 -27.5t28 -70.5q0 -55 -39 -95t-94 -40zM983 1001h166l-160 -1001h-168l13 178
q-131 -203 -365 -203q-175 0 -288 124.5t-113 320.5q0 173 69 312.5t190 217.5t271 78q121 0 212 -56t126 -153zM889 580q0 134 -70.5 209t-197.5 75q-155 0 -261 -125t-106 -309q0 -132 71.5 -211.5t192.5 -79.5q156 0 263.5 127.5t107.5 313.5z" />
    <glyph glyph-name="agrave.ss01" horiz-adv-x="1206" 
d="M735 1118h-135l-125 268h172zM983 1001h166l-160 -1001h-168l13 178q-131 -203 -365 -203q-175 0 -288 124.5t-113 320.5q0 173 69 312.5t190 217.5t271 78q121 0 212 -56t126 -153zM889 580q0 134 -70.5 209t-197.5 75q-155 0 -261 -125t-106 -309q0 -132 71.5 -211.5
t192.5 -79.5q156 0 263.5 127.5t107.5 313.5z" />
    <glyph glyph-name="amacron.ss01" horiz-adv-x="1206" 
d="M438 1217l21 137h495l-20 -137h-496zM983 1001h166l-160 -1001h-168l13 178q-131 -203 -365 -203q-175 0 -288 124.5t-113 320.5q0 173 69 312.5t190 217.5t271 78q121 0 212 -56t126 -153zM889 580q0 134 -70.5 209t-197.5 75q-155 0 -261 -125t-106 -309
q0 -132 71.5 -211.5t192.5 -79.5q156 0 263.5 127.5t107.5 313.5z" />
    <glyph glyph-name="aogonek.ss01" horiz-adv-x="1206" 
d="M868 0h-47l13 178q-131 -203 -365 -203q-175 0 -288 124.5t-113 320.5q0 173 69 312.5t190 217.5t271 78q121 0 212 -56t126 -153l47 182h166l-160 -1001h-2q-67 -24 -109 -68.5t-42 -87.5q0 -25 16.5 -40t44.5 -15q30 0 53 10l-22 -133q-35 -14 -84 -14q-69 0 -108.5 38
t-39.5 101q0 64 46 119.5t126 89.5zM889 580q0 134 -70.5 209t-197.5 75q-155 0 -261 -125t-106 -309q0 -132 71.5 -211.5t192.5 -79.5q156 0 263.5 127.5t107.5 313.5z" />
    <glyph glyph-name="aring.ss01" horiz-adv-x="1206" 
d="M676 1104q-92 0 -150.5 56t-58.5 145q0 117 76.5 195.5t189.5 78.5q91 0 150 -58t59 -147q0 -114 -77 -192t-189 -78zM688 1217q57 0 96 42t39 103q0 47 -27.5 75.5t-72.5 28.5q-57 0 -96 -42t-39 -103q0 -47 27 -75.5t73 -28.5zM983 1001h166l-160 -1001h-168l13 178
q-131 -203 -365 -203q-175 0 -288 124.5t-113 320.5q0 173 69 312.5t190 217.5t271 78q121 0 212 -56t126 -153zM889 580q0 134 -70.5 209t-197.5 75q-155 0 -261 -125t-106 -309q0 -132 71.5 -211.5t192.5 -79.5q156 0 263.5 127.5t107.5 313.5z" />
    <glyph glyph-name="aringacute.ss01" horiz-adv-x="1206" 
d="M954 1675l-204 -248h-142l170 248h176zM983 1001h166l-160 -1001h-168l13 178q-131 -203 -365 -203q-175 0 -288 124.5t-113 320.5q0 211 100.5 368t265.5 213q-35 50 -35 117q0 117 77 195t190 78q91 0 149.5 -57.5t58.5 -147.5q0 -121 -86 -201q107 -57 148 -166z
M618 1028q58 0 97 42.5t39 105.5q0 46 -28 75t-73 29q-57 0 -95 -42.5t-38 -104.5q0 -47 27 -76t71 -29zM889 580q0 134 -70.5 209t-197.5 75q-155 0 -261 -125t-106 -309q0 -132 71.5 -211.5t192.5 -79.5q156 0 263.5 127.5t107.5 313.5z" />
    <glyph glyph-name="atilde.ss01" horiz-adv-x="1206" 
d="M487 1143h-120q9 116 61.5 182t132.5 66q41 0 76.5 -18t57.5 -39.5t52.5 -39.5t61.5 -18q39 0 58.5 27.5t27.5 87.5h121q-25 -248 -199 -248q-44 0 -81.5 18t-60 39t-50.5 39t-54 18q-36 0 -55.5 -27t-28.5 -87zM983 1001h166l-160 -1001h-168l13 178
q-131 -203 -365 -203q-175 0 -288 124.5t-113 320.5q0 173 69 312.5t190 217.5t271 78q121 0 212 -56t126 -153zM889 580q0 134 -70.5 209t-197.5 75q-155 0 -261 -125t-106 -309q0 -132 71.5 -211.5t192.5 -79.5q156 0 263.5 127.5t107.5 313.5z" />
    <glyph glyph-name="gbreve.ss02" horiz-adv-x="1083" 
d="M795 1389h141q-21 -135 -94 -209t-201 -74q-124 0 -189 75t-65 208h139q0 -148 123 -148t146 148zM129 590q0 186 135.5 312t337.5 126q129 0 240 -65q40 65 106 102t144 37q26 0 36 -2l-24 -158q-8 2 -41 2q-96 0 -152 -65q35 -37 56.5 -95t21.5 -118
q0 -180 -133.5 -301t-331.5 -121q-106 0 -192 39q-58 -1 -94.5 -27.5t-36.5 -65.5q0 -40 28 -58.5t88 -18.5h324q146 0 225.5 -61.5t79.5 -172.5q0 -169 -150.5 -261.5t-426.5 -92.5q-210 0 -319 62.5t-109 181.5q0 76 51 134t139 83q-94 46 -94 151q0 78 53 130.5t150 72.5
q-111 97 -111 250zM307 598q0 -93 61.5 -149t163.5 -56q123 0 201 77t78 200q0 93 -60 150t-157 57q-122 0 -204.5 -80.5t-82.5 -198.5zM106 -182q0 -140 287 -140q179 0 275 48.5t96 136.5q0 98 -152 98h-319q-86 -2 -136.5 -40.5t-50.5 -102.5z" />
    <glyph glyph-name="gcircumflex.ss02" horiz-adv-x="1083" 
d="M518 1118h-162l209 277h209l119 -277h-145l-84 189zM129 590q0 186 135.5 312t337.5 126q129 0 240 -65q40 65 106 102t144 37q26 0 36 -2l-24 -158q-8 2 -41 2q-96 0 -152 -65q35 -37 56.5 -95t21.5 -118q0 -180 -133.5 -301t-331.5 -121q-106 0 -192 39
q-58 -1 -94.5 -27.5t-36.5 -65.5q0 -40 28 -58.5t88 -18.5h324q146 0 225.5 -61.5t79.5 -172.5q0 -169 -150.5 -261.5t-426.5 -92.5q-210 0 -319 62.5t-109 181.5q0 76 51 134t139 83q-94 46 -94 151q0 78 53 130.5t150 72.5q-111 97 -111 250zM307 598q0 -93 61.5 -149
t163.5 -56q123 0 201 77t78 200q0 93 -60 150t-157 57q-122 0 -204.5 -80.5t-82.5 -198.5zM106 -182q0 -140 287 -140q179 0 275 48.5t96 136.5q0 98 -152 98h-319q-86 -2 -136.5 -40.5t-50.5 -102.5z" />
    <glyph glyph-name="gcommaaccent.ss02" horiz-adv-x="1083" 
d="M748 1243q0 -52 -37 -88.5t-90 -36.5q-44 0 -70.5 29.5t-26.5 79.5q0 102 69.5 174.5t170.5 66.5l-10 -71q-49 4 -82.5 -16.5t-44.5 -61.5q16 8 37 8q37 0 60.5 -23.5t23.5 -60.5zM129 590q0 186 135.5 312t337.5 126q129 0 240 -65q40 65 106 102t144 37q26 0 36 -2
l-24 -158q-8 2 -41 2q-96 0 -152 -65q35 -37 56.5 -95t21.5 -118q0 -180 -133.5 -301t-331.5 -121q-106 0 -192 39q-58 -1 -94.5 -27.5t-36.5 -65.5q0 -40 28 -58.5t88 -18.5h324q146 0 225.5 -61.5t79.5 -172.5q0 -169 -150.5 -261.5t-426.5 -92.5q-210 0 -319 62.5
t-109 181.5q0 76 51 134t139 83q-94 46 -94 151q0 78 53 130.5t150 72.5q-111 97 -111 250zM307 598q0 -93 61.5 -149t163.5 -56q123 0 201 77t78 200q0 93 -60 150t-157 57q-122 0 -204.5 -80.5t-82.5 -198.5zM106 -182q0 -140 287 -140q179 0 275 48.5t96 136.5
q0 98 -152 98h-319q-86 -2 -136.5 -40.5t-50.5 -102.5z" />
    <glyph glyph-name="gdotaccent.ss02" horiz-adv-x="1083" 
d="M631 1151q-44 0 -72.5 28t-28.5 72q0 57 41 98.5t97 41.5q44 0 72 -28.5t28 -72.5q0 -56 -41 -97.5t-96 -41.5zM129 590q0 186 135.5 312t337.5 126q129 0 240 -65q40 65 106 102t144 37q26 0 36 -2l-24 -158q-8 2 -41 2q-96 0 -152 -65q35 -37 56.5 -95t21.5 -118
q0 -180 -133.5 -301t-331.5 -121q-106 0 -192 39q-58 -1 -94.5 -27.5t-36.5 -65.5q0 -40 28 -58.5t88 -18.5h324q146 0 225.5 -61.5t79.5 -172.5q0 -169 -150.5 -261.5t-426.5 -92.5q-210 0 -319 62.5t-109 181.5q0 76 51 134t139 83q-94 46 -94 151q0 78 53 130.5t150 72.5
q-111 97 -111 250zM307 598q0 -93 61.5 -149t163.5 -56q123 0 201 77t78 200q0 93 -60 150t-157 57q-122 0 -204.5 -80.5t-82.5 -198.5zM106 -182q0 -140 287 -140q179 0 275 48.5t96 136.5q0 98 -152 98h-319q-86 -2 -136.5 -40.5t-50.5 -102.5z" />
    <glyph glyph-name="tbar.ss03" horiz-adv-x="653" 
d="M537 162l6 -160q-77 -25 -152 -25q-129 0 -197 77t-44 222l30 193h-123l25 145h121l37 232h-152l25 153h151l49 316h185l-52 -316h232l-25 -153h-231l-37 -232h162l-23 -145h-162l-26 -168q-22 -156 100 -156q45 0 101 17z" />
    <glyph glyph-name="tcaron.ss03" horiz-adv-x="671" 
d="M567 1141l54 340h161l-96 -340h-119zM537 162l6 -160q-77 -25 -152 -25q-129 0 -197 77t-44 222l90 570h-152l25 153h151l49 316h185l-52 -316h232l-25 -153h-231l-86 -545q-22 -156 100 -156q45 0 101 17z" />
    <glyph glyph-name="tcedilla.ss03" horiz-adv-x="671" 
d="M156 -369l16 99q65 -35 117 -35q53 0 81.5 21t28.5 59q0 29 -18.5 45t-52.5 16q-49 0 -103 -22l-12 59l74 121q-80 27 -117.5 99t-19.5 183l90 570h-152l25 153h151l49 316h185l-52 -316h232l-25 -153h-231l-86 -545q-22 -156 100 -156q45 0 101 17l6 -160
q-77 -25 -152 -25h-22l-43 -67q19 8 51 8q56 0 96.5 -36.5t40.5 -96.5q0 -85 -60 -135.5t-161 -50.5q-82 0 -137 32z" />
    <glyph glyph-name="tcommaaccent.ss03" horiz-adv-x="671" 
d="M537 162l6 -160q-77 -25 -152 -25q-129 0 -197 77t-44 222l90 570h-152l25 153h151l49 316h185l-52 -316h232l-25 -153h-231l-86 -545q-22 -156 100 -156q45 0 101 17zM418 -182q0 -103 -69.5 -175.5t-170.5 -66.5l10 72q52 -4 85 16t42 62q-18 -9 -39 -9q-35 0 -58 23.5
t-23 60.5q0 52 37 88.5t90 36.5q44 0 70 -29t26 -79z" />
    <glyph glyph-name="caroncomb.alt" horiz-adv-x="1183" 
d="M735 1139l53 340h162l-96 -340h-119z" />
    <glyph glyph-name="strokeshortcomb.case" horiz-adv-x="716" 
d="M66 659l26 164h635l-27 -164h-634z" />
    <glyph glyph-name="strokelongcomb.case" horiz-adv-x="1478" 
d="M117 1106l26 168h1438l-27 -168h-1437z" />
    <glyph glyph-name="slashshortcomb.case" horiz-adv-x="757" 
d="M57 608l27 158l727 330l-27 -158z" />
    <glyph glyph-name="slashlongcomb.case" horiz-adv-x="1042" 
d="M1319 1479l-1333 -1479h-189l1340 1479h182z" />
    <glyph glyph-name="dotaccentcomb.i" horiz-adv-x="423" 
d="M399 1698q-44 0 -74 29.5t-30 72.5q0 59 42.5 102.5t100.5 43.5q44 0 74.5 -30t30.5 -73q0 -57 -43.5 -101t-100.5 -44z" />
    </font>
</defs>
</svg>
