<?xml version="1.0" standalone="no"?>
<!DOCTYPE svg PUBLIC "-//W3C//DTD SVG 1.1//EN" "http://www.w3.org/Graphics/SVG/1.1/DTD/svg11.dtd" >
<svg xmlns="http://www.w3.org/2000/svg" xmlns:xlink="http://www.w3.org/1999/xlink" version="1.1">
<metadata>
Created by FontForge 20170731 at Sat Jul 17 11:38:59 2021
 By Aleksey,,,
Copyright 2017-2021 Indian Type Foundry. All rights reserved.
</metadata>
<defs>
<font id="SatoshiVariable-BoldItalic" horiz-adv-x="660" >
  <font-face 
    font-family="Satoshi Variable"
    font-weight="900"
    font-style="italic"
    font-stretch="normal"
    units-per-em="1000"
    panose-1="0 0 0 0 0 0 0 0 0 0"
    ascent="800"
    descent="-200"
    x-height="500"
    cap-height="740"
    bbox="-245 -256 1650 1126"
    underline-thickness="80"
    underline-position="-315"
    slope="-9"
    unicode-range="U+0020-FB04"
  />
<missing-glyph horiz-adv-x="500" 
d="M50 -240v1110h400v-1110h-400zM100 -190h300v1010h-300v-1010z" />
    <glyph glyph-name="f_f" unicode="ff" horiz-adv-x="686" 
d="M51 500h334l-20 -124h-334zM424 748l-20 -128h-22.5h-19.5q-39 0 -61 -18.5t-28 -59.5l-85 -542h-148l86 542q17 104 76 158t156 54q15 0 32.5 -1.5t33.5 -4.5zM381 500h334l-20 -124h-334zM754 748l-20 -128h-22.5h-19.5q-39 0 -61 -18.5t-28 -59.5l-85 -542h-148
l86 542q17 104 76 158t156 54q15 0 32.5 -1.5t33.5 -4.5z" />
    <glyph glyph-name="fi" unicode="fi" horiz-adv-x="617" 
d="M51 500h464l-20 -124h-464zM424 748l-20 -128h-22.5h-19.5q-39 0 -61 -18.5t-28 -59.5l-85 -542h-148l86 542q17 104 76 158t156 54q15 0 32.5 -1.5t33.5 -4.5zM371 0l79 500h149l-79 -500h-149zM536 580q-31 0 -51.5 20.5t-20.5 51.5q0 26 14 48.5t37 36.5t49 14
q32 0 52 -20.5t20 -51.5q0 -25 -14 -48t-37 -37t-49 -14z" />
    <glyph glyph-name="fl" unicode="fl" horiz-adv-x="616" 
d="M51 500h464l-20 -124h-464zM424 748l-20 -128h-22.5h-19.5q-39 0 -61 -18.5t-28 -59.5l-85 -542h-148l86 542q17 104 76 158t156 54q15 0 32.5 -1.5t33.5 -4.5zM518 0h-149l119 754h149z" />
    <glyph glyph-name="f_f_i" unicode="ffi" horiz-adv-x="947" 
d="M51 500h334l-20 -124h-334zM424 748l-20 -128h-22.5h-19.5q-39 0 -61 -18.5t-28 -59.5l-85 -542h-148l86 542q17 104 76 158t156 54q15 0 32.5 -1.5t33.5 -4.5zM381 500h464l-20 -124h-464zM754 748l-20 -128h-22.5h-19.5q-39 0 -61 -18.5t-28 -59.5l-85 -542h-148
l86 542q17 104 76 158t156 54q15 0 32.5 -1.5t33.5 -4.5zM701 0l79 500h149l-79 -500h-149zM866 580q-31 0 -51.5 20.5t-20.5 51.5q0 26 14 48.5t37 36.5t49 14q32 0 52 -20.5t20 -51.5q0 -25 -14 -48t-37 -37t-49 -14z" />
    <glyph glyph-name="f_f_l" unicode="ffl" horiz-adv-x="947" 
d="M51 500h334l-20 -124h-334zM424 748l-20 -128h-22.5h-19.5q-39 0 -61 -18.5t-28 -59.5l-85 -542h-148l86 542q17 104 76 158t156 54q15 0 32.5 -1.5t33.5 -4.5zM381 500h434l-20 -124h-434zM754 748l-20 -128h-22.5h-19.5q-39 0 -61 -18.5t-28 -59.5l-85 -542h-148
l86 542q17 104 76 158t156 54q15 0 32.5 -1.5t33.5 -4.5zM849 0h-149l119 754h149z" />
    <glyph glyph-name="f_t" unicode="ft" horiz-adv-x="662" 
d="M51 500h334l-20 -124h-334zM424 748l-20 -128h-22.5h-19.5q-39 0 -61 -18.5t-28 -59.5l-85 -542h-148l86 542q17 104 76 158t156 54q15 0 32.5 -1.5t33.5 -4.5zM356 500h335l-20 -124h-335zM519 0h-149l103 654h149z" />
    <glyph glyph-name=".notdef" horiz-adv-x="500" 
d="M50 -240v1110h400v-1110h-400zM100 -190h300v1010h-300v-1010z" />
    <glyph glyph-name=".null" horiz-adv-x="0" 
 />
    <glyph glyph-name="nonmarkingreturn" horiz-adv-x="333" 
 />
    <glyph glyph-name="space" unicode=" " horiz-adv-x="260" 
 />
    <glyph glyph-name="exclam" unicode="!" horiz-adv-x="344" 
d="M227 221h-122q-1 41 2 99t10 123t17 129l26 168h179l-26 -168q-10 -64 -24 -129.5t-30 -123t-32 -98.5zM129 -13q-35 0 -55.5 20.5t-20.5 54.5q0 42 30.5 72.5t73.5 30.5q35 0 56 -20.5t21 -55.5q0 -27 -14.5 -50.5t-38.5 -37.5t-52 -14z" />
    <glyph glyph-name="quotedbl" unicode="&#x22;" horiz-adv-x="499" 
d="M276 652l-71 -226h-74v226q0 45 22 70t62 25q39 0 56.5 -27t4.5 -68zM496 652l-71 -226h-74v226q0 45 22 70t62 25q39 0 56.5 -27t4.5 -68z" />
    <glyph glyph-name="numbersign" unicode="#" horiz-adv-x="731" 
d="M460 740l-259 -740h-148l259 740h148zM706 740l-258 -740h-148l258 740h148zM151 560h592l-52 -140h-592zM77 318h595l-50 -140h-596z" />
    <glyph glyph-name="dollar" unicode="$" horiz-adv-x="596" 
d="M212 -93l121 926h89l-121 -926h-89zM70 507q0 75 34 130.5t95.5 86t143.5 30.5q71 0 128.5 -30t92.5 -81.5t37 -116.5h-157q-4 41 -33.5 64.5t-75.5 23.5q-52 0 -81 -21.5t-29 -62.5q0 -31 18 -51t56 -31l105 -31q82 -24 121.5 -71t39.5 -120q0 -72 -34 -125.5t-96 -83.5
t-146 -30q-121 0 -193.5 61t-76.5 167h157q2 -41 34 -64.5t86 -23.5q36 0 62 10t39.5 28.5t13.5 44.5q0 28 -14.5 43.5t-49.5 25.5l-108 31q-81 23 -125 74.5t-44 122.5z" />
    <glyph glyph-name="percent" unicode="%" horiz-adv-x="973" 
d="M472 574q0 -57 -29 -105.5t-77 -77.5t-106 -29t-99.5 21.5t-63.5 61.5t-22 97q0 58 29 106t77 77t105 29q59 0 100.5 -21t63.5 -61.5t22 -97.5zM354 568q0 38 -18.5 58t-53.5 20q-25 0 -45 -13t-32 -35.5t-12 -50.5q0 -38 18 -57.5t53 -19.5q25 0 45.5 13.5t32.5 35.5
t12 49zM912 740l-658 -740h-156l658 740h156zM936 199q0 -57 -29 -105.5t-77 -77.5t-106 -29t-99.5 21t-63.5 61.5t-22 97.5q0 58 29 106t77 77t105 29q59 0 100.5 -21t63.5 -61.5t22 -97.5zM818 193q0 38 -18.5 58t-53.5 20q-25 0 -45 -13t-32 -35.5t-12 -50.5
q0 -38 18 -57.5t53 -19.5q25 0 45.5 13.5t32.5 35.5t12 49z" />
    <glyph glyph-name="ampersand" unicode="&#x26;" horiz-adv-x="755" 
d="M273 426l49 -90q-41 -15 -69 -34t-41.5 -42.5t-13.5 -52.5q0 -44 30 -67.5t87 -23.5q61 0 108.5 29t79 84.5t43.5 133.5h146q-18 -115 -73.5 -199.5t-141 -130.5t-192.5 -46q-73 0 -129 25t-88 68.5t-32 100.5q0 58 24 102t76.5 79t136.5 64zM394 370l-55 84q48 21 74 56
t26 78q0 21 -12.5 33.5t-35.5 12.5q-29 0 -47.5 -20t-18.5 -53q0 -18 4 -33.5t13.5 -33t25.5 -41.5l322 -453h-161l-281 397q-23 34 -37.5 60t-20.5 48.5t-6 44.5q0 59 28.5 104.5t77.5 71.5t112 26q81 0 128.5 -41.5t47.5 -112.5q0 -65 -43 -118.5t-141 -109.5z" />
    <glyph glyph-name="quotesingle" unicode="'" horiz-adv-x="279" 
d="M276 652l-71 -226h-74v226q0 45 22 70t62 25q39 0 56.5 -27t4.5 -68z" />
    <glyph glyph-name="parenleft" unicode="(" horiz-adv-x="332" 
d="M259 -212h-114q-52 67 -81 163.5t-29 205.5q0 121 32 239.5t90.5 221t137.5 174.5h122q-52 -59 -95 -134.5t-74 -160t-48 -172t-17 -170.5q0 -71 9.5 -140t26.5 -127.5t40 -99.5z" />
    <glyph glyph-name="parenright" unicode=")" horiz-adv-x="333" 
d="M50 -212h-122q52 59 95 134.5t74 160t48 172t17 170.5q0 71 -9.5 140t-26.5 127.5t-40 99.5h114q53 -67 81.5 -163t28.5 -206q0 -120 -32 -239t-90.5 -221.5t-137.5 -174.5z" />
    <glyph glyph-name="asterisk" unicode="*" horiz-adv-x="424" 
d="M140 568l-64 25l36 64l63 -23q23 -8 40 -18t23 -15q-2 20 -1.5 38.5t4.5 40.5l12 74h74l-12 -74q-4 -24 -8 -40t-12 -39q17 10 33 19t42 17l70 22l16 -70l-73 -25q-24 -8 -43.5 -11t-36.5 -5q17 -16 25 -28t18 -32l31 -60l-63 -42l-32 60q-11 21 -17.5 38t-9.5 31
q-7 -16 -19 -34.5t-28 -36.5l-51 -58l-59 42l51 62q17 20 32.5 33.5t31.5 24.5q-16 2 -35.5 7.5t-37.5 12.5z" />
    <glyph glyph-name="plus" unicode="+" 
d="M445 587l-79 -501h-124l79 501h124zM109 397h489l-20 -120h-489z" />
    <glyph glyph-name="comma" unicode="," horiz-adv-x="304" 
d="M133 8l15 5q-10 -8 -20.5 -12t-23.5 -4q-31 0 -50.5 19t-19.5 47q0 41 29.5 71.5t69.5 30.5q37 0 58 -25t21 -65q0 -49 -25.5 -93.5t-68 -73.5t-93.5 -35l9 54q38 7 66.5 28t32.5 53z" />
    <glyph glyph-name="hyphen" unicode="-" horiz-adv-x="454" 
d="M53 204l21 132h334l-21 -132h-334z" />
    <glyph glyph-name="period" unicode="." horiz-adv-x="302" 
d="M109 -13q-35 0 -55.5 20.5t-20.5 54.5q0 42 30.5 72.5t73.5 30.5q35 0 56 -20.5t21 -55.5q0 -27 -14.5 -50.5t-38.5 -37.5t-52 -14z" />
    <glyph glyph-name="slash" unicode="/" horiz-adv-x="431" 
d="M118 0h-158l390 740h159z" />
    <glyph glyph-name="zero" unicode="0" horiz-adv-x="705" 
d="M48 291q0 100 27.5 184.5t77 147t116.5 97t146 34.5q88 0 151 -36.5t97 -104.5t34 -163q0 -100 -27.5 -184.5t-77 -147t-116.5 -97t-146 -34.5q-87 0 -150.5 36.5t-97.5 105t-34 162.5zM204 295q0 -83 34 -126t101 -43q44 0 80.5 24t64 67t42.5 101.5t15 127.5
q0 83 -34 126t-101 43q-43 0 -80 -24t-64.5 -67t-42.5 -101.5t-15 -127.5z" />
    <glyph glyph-name="one" unicode="1" horiz-adv-x="427" 
d="M252 602h-163l23 138h316l-117 -740h-154z" />
    <glyph glyph-name="two" unicode="2" horiz-adv-x="591" 
d="M522 0h-516l19 117l288 208q47 34 74 63.5t38.5 61t11.5 70.5q0 45 -25 71t-69 26q-51 0 -83 -37t-37 -100h-157q9 85 47 146t100.5 94.5t142.5 33.5q75 0 129.5 -28t84.5 -78.5t30 -120.5q0 -57 -22.5 -110.5t-68 -103.5t-114.5 -97l-190 -132l-36 64h376z" />
    <glyph glyph-name="three" unicode="3" horiz-adv-x="559" 
d="M570 614l-283 -232l-104 69l276 226l-40 -75h-322l22 138h471zM265 350h-98l16 101q18 8 51.5 13t76.5 5q67 0 118 -29t80.5 -79.5t29.5 -115.5q0 -77 -34 -135t-95 -90.5t-142 -32.5t-139.5 30.5t-90 88t-31.5 136.5h155q0 -55 27.5 -85.5t76.5 -30.5q34 0 58.5 14.5
t38 41t13.5 62.5q0 50 -29 78t-82 28z" />
    <glyph glyph-name="four" unicode="4" horiz-adv-x="643" 
d="M606 740l-117 -740h-148l117 740h148zM23 270l384 470h172l-392 -481zM599 132h-598l22 138h598z" />
    <glyph glyph-name="five" unicode="5" horiz-adv-x="603" 
d="M293 -13q-81 0 -139.5 30.5t-90 88t-31.5 136.5h155q0 -55 27.5 -85.5t76.5 -30.5q36 0 63 16t42 45t15 67q0 56 -28.5 90.5t-75.5 34.5q-35 0 -63.5 -15.5t-48.5 -47.5l-139 28l154 396h392l-23 -146h-310l47 40l-82 -197l-47 -30q31 54 69.5 78t95.5 24q68 0 118.5 -30
t78.5 -84t28 -127q0 -81 -37 -144.5t-101 -100t-146 -36.5z" />
    <glyph glyph-name="six" unicode="6" horiz-adv-x="633" 
d="M197 551l170 189h193l-240 -265h-50q17 17 47.5 29t59.5 12q68 0 119.5 -28.5t80.5 -77.5t29 -112q0 -89 -41.5 -159.5t-113.5 -111t-165 -40.5q-74 0 -132 32t-91 86t-33 120t25 123.5t63.5 107.5t78.5 95zM196 240q0 -31 13.5 -56t38.5 -39.5t58 -14.5q38 0 68.5 19
t48 52.5t17.5 74.5q0 47 -29 78t-79 31q-38 0 -69 -18.5t-49 -51.5t-18 -75z" />
    <glyph glyph-name="seven" unicode="7" horiz-adv-x="548" 
d="M83 740h537l-23 -146h-537zM469 671l128 -77l-335 -594h-175z" />
    <glyph glyph-name="eight" unicode="8" horiz-adv-x="643" 
d="M27 208q0 53 24.5 97.5t67.5 74.5t96 36l-3 -26q-50 17 -77.5 54.5t-27.5 87.5q0 66 35 116t97 78t143 28q74 0 130.5 -24t88.5 -66.5t32 -98.5q0 -71 -44.5 -122.5t-115.5 -63.5l3 21q59 -12 94.5 -57.5t35.5 -109.5q0 -73 -38 -128t-106 -86t-159 -31
q-82 0 -144.5 27.5t-97 77.5t-34.5 115zM182 220q0 -41 37 -68.5t93 -27.5q43 0 74.5 13t48.5 37t17 56q0 42 -37.5 67.5t-99.5 25.5q-41 0 -71 -12.5t-46 -35.5t-16 -55zM248 528q0 -36 33 -57t89 -21q52 0 83.5 24t31.5 64q0 36 -32 58.5t-83 22.5q-37 0 -64.5 -11.5
t-42.5 -31.5t-15 -48z" />
    <glyph glyph-name="nine" unicode="9" horiz-adv-x="633" 
d="M474 189l-170 -189h-193l240 265h50q-17 -16 -47.5 -28.5t-59.5 -12.5q-67 0 -119 28.5t-81 78t-29 111.5q0 90 41.5 160t114 110.5t164.5 40.5q75 0 132.5 -32t90.5 -86t33 -120t-25 -123.5t-63 -107.5t-79 -95zM475 500q0 32 -13.5 56.5t-38 39t-58.5 14.5
q-38 0 -68.5 -19t-48 -52t-17.5 -75q0 -47 29 -78t79 -31q39 0 69.5 19t48.5 51.5t18 74.5z" />
    <glyph glyph-name="colon" unicode=":" horiz-adv-x="322" 
d="M119 -13q-35 0 -55.5 20.5t-20.5 54.5q0 42 30.5 72.5t73.5 30.5q35 0 56 -20.5t21 -55.5q0 -27 -14.5 -50.5t-38.5 -37.5t-52 -14zM175 339q-35 0 -55.5 20.5t-20.5 54.5q0 42 30.5 72.5t73.5 30.5q35 0 56 -20.5t21 -55.5q0 -27 -14.5 -50.5t-38.5 -37.5t-52 -14z" />
    <glyph glyph-name="semicolon" unicode=";" horiz-adv-x="322" 
d="M139 8l15 5q-10 -8 -20.5 -12t-23.5 -4q-31 0 -50.5 19t-19.5 47q0 41 29.5 71.5t69.5 30.5q37 0 58 -25t21 -65q0 -49 -25.5 -93.5t-68 -73.5t-93.5 -35l9 54q38 7 66.5 28t32.5 53zM175 339q-35 0 -55.5 20.5t-20.5 54.5q0 42 30.5 72.5t73.5 30.5q35 0 56 -20.5
t21 -55.5q0 -27 -14.5 -50.5t-38.5 -37.5t-52 -14z" />
    <glyph glyph-name="less" unicode="&#x3c;" 
d="M557 138l-23 -140l-461 175l25 159l516 174l-23 -152l-363 -108z" />
    <glyph glyph-name="equal" unicode="=" 
d="M121 476h488l-19 -120h-488zM87 252h488l-20 -120h-488z" />
    <glyph glyph-name="greater" unicode="&#x3e;" 
d="M563 172l-517 -174l23 152l364 108l-330 108l23 140l462 -175z" />
    <glyph glyph-name="question" unicode="?" horiz-adv-x="568" 
d="M317 199h-134l3 21q6 38 23 73.5t45.5 66.5t66.5 57q57 39 77.5 65t20.5 60t-21.5 53t-59.5 19q-48 0 -78 -31t-35 -86h-155q11 80 49 137.5t98 88.5t137 31q68 0 119 -26t80 -71.5t29 -106.5q0 -66 -37.5 -117.5t-108.5 -91.5q-42 -23 -66 -43t-35.5 -39t-14.5 -39z
M220 -13q-32 0 -54 22t-22 53q0 27 15 50.5t39 38t50 14.5q32 0 54.5 -22t22.5 -54q0 -26 -15 -49.5t-39 -38t-51 -14.5z" />
    <glyph glyph-name="at" unicode="@" horiz-adv-x="950" 
d="M256 213q0 68 49 109t140 48l131 11v7q0 35 -19.5 52.5t-58.5 17.5q-40 0 -62.5 -16t-27.5 -48h-112q13 79 71.5 123.5t149.5 44.5q67 0 111 -24t63 -69.5t9 -108.5l-21 -135q-9 -54 34 -54q29 0 54.5 29.5t41 78t15.5 103.5q0 87 -34 150t-96.5 97.5t-148.5 34.5
q-88 0 -160.5 -29t-125 -82.5t-81 -127.5t-28.5 -163q0 -88 35.5 -154t100 -103t149.5 -37q53 0 107.5 16t104.5 47l27 -83q-58 -35 -121.5 -52.5t-131.5 -17.5q-107 0 -190 49t-130 135.5t-47 198.5q0 110 36 200t102 156t157 101.5t201 35.5q81 0 149 -27t117.5 -77
t76.5 -118t27 -150q0 -93 -27 -160t-76.5 -103t-119.5 -36q-52 0 -86.5 22.5t-41.5 59.5q-19 -38 -60.5 -60t-95.5 -22q-69 0 -113 36.5t-44 93.5zM395 226q0 -20 14.5 -31t41.5 -11q42 0 69 22t34 60l4 24l-72 -6q-51 -4 -71 -17t-20 -41z" />
    <glyph glyph-name="A" unicode="A" horiz-adv-x="688" 
d="M139 0h-170l376 740h153l141 -740h-160l-26 158h-236zM364 459l-81 -169h147l-28 169q-2 14 -5 35.5t-3 34.5q-4 -13 -12.5 -32.5t-17.5 -37.5z" />
    <glyph glyph-name="B" unicode="B" horiz-adv-x="653" 
d="M311 740l-117 -740h-156l117 740h156zM365 302h-173l21 133h179q48 0 76 25.5t28 68.5q0 35 -21 54t-60 19h-166l22 138h185q90 0 144 -50t54 -133q0 -73 -39.5 -128t-107.5 -75l2 14q50 -12 78.5 -49t28.5 -91q0 -71 -33 -122.5t-95 -78.5t-149 -27h-185l22 138h166
q55 0 84 23.5t29 66.5q0 36 -23 55t-67 19z" />
    <glyph glyph-name="C" unicode="C" horiz-adv-x="766" 
d="M374 -12q-102 0 -173.5 41.5t-109.5 115t-38 168.5q0 96 30.5 176.5t85.5 139.5t129 91t162 32q92 0 158.5 -34t103 -95t39.5 -142h-167q-6 41 -27 67t-53.5 38.5t-73.5 12.5q-51 0 -91.5 -20.5t-69.5 -58t-44 -88t-15 -109.5q0 -54 19 -95t55 -64t86 -23q68 0 114 28
t71 92h172q-43 -134 -136 -203.5t-227 -69.5z" />
    <glyph glyph-name="D" unicode="D" horiz-adv-x="753" 
d="M320 0h-282l117 740h263q91 0 162.5 -44t113 -120t41.5 -174q0 -89 -30 -162.5t-85.5 -127.5t-131.5 -83t-168 -29zM300 668l-95 -598l-62 76h185q73 0 127 31.5t83.5 89t29.5 135.5q0 58 -22 101t-62.5 67t-94.5 24h-175z" />
    <glyph glyph-name="E" unicode="E" horiz-adv-x="594" 
d="M498 0h-460l117 740h460l-23 -146h-348l51 42l-31 -194h269l-22 -138h-269l-32 -200l-37 42h348z" />
    <glyph glyph-name="F" unicode="F" horiz-adv-x="572" 
d="M311 740l-117 -740h-156l117 740h156zM592 594h-446l23 146h446zM496 290h-401l22 142h401z" />
    <glyph glyph-name="G" unicode="G" horiz-adv-x="790" 
d="M440 602q-49 0 -89.5 -20.5t-69.5 -57.5t-45 -88t-16 -113q0 -58 21.5 -100t61.5 -64.5t95 -22.5q83 0 134.5 43t63.5 122l9 60l62 -75h-269l22 138h340l-67 -424h-134l5 103l14 -15q-13 -28 -44 -51t-72.5 -36t-87.5 -13q-98 0 -170 40t-111.5 113t-39.5 172
q0 96 30 176t85 139t129.5 91.5t162.5 32.5t153.5 -32t104 -91t43.5 -141h-169q-10 56 -48 85t-104 29z" />
    <glyph glyph-name="H" unicode="H" horiz-adv-x="751" 
d="M194 0h-156l117 740h156l-47 -295h284l47 295h156l-117 -740h-156l48 300h-284z" />
    <glyph glyph-name="I" unicode="I" horiz-adv-x="311" 
d="M311 740l-117 -740h-156l117 740h156z" />
    <glyph glyph-name="J" unicode="J" horiz-adv-x="565" 
d="M17 213l5 50h151l-5 -50q-4 -37 16 -58.5t59 -21.5q40 0 61 20.5t28 63.5l83 523h156l-85 -533q-34 -220 -250 -220q-74 0 -125.5 28t-76 78.5t-17.5 119.5z" />
    <glyph glyph-name="K" unicode="K" horiz-adv-x="695" 
d="M760 740l-590 -648l37 247l361 401h192zM311 740l-117 -740h-156l117 740h156zM357 298l113 138l175 -436h-173z" />
    <glyph glyph-name="L" unicode="L" horiz-adv-x="547" 
d="M311 740l-117 -740h-156l117 740h156zM66 0l23 146h416l-23 -146h-416z" />
    <glyph glyph-name="M" unicode="M" horiz-adv-x="895" 
d="M190 0h-152l117 740h146l128 -557l306 557h160l-117 -740h-152l34 214q11 73 21.5 124t17.5 76l-221 -414h-143l-90 414q0 -49 -6.5 -102t-14.5 -98z" />
    <glyph glyph-name="N" unicode="N" horiz-adv-x="772" 
d="M193 0h-155l117 740h155l268 -551h-48l87 551h155l-117 -740h-155l-268 550h48z" />
    <glyph glyph-name="O" unicode="O" horiz-adv-x="785" 
d="M770 427q0 -93 -30 -173t-83.5 -139.5t-125.5 -93t-157 -33.5q-96 0 -168.5 41t-113 114t-40.5 169q0 93 29.5 173t83 140t125.5 93.5t157 33.5q97 0 169.5 -41t113 -114t40.5 -170zM603 411q0 60 -20 102t-58 64.5t-92 22.5q-46 0 -85 -20.5t-68 -57.5t-45 -86.5
t-16 -106.5q0 -58 20 -100.5t58.5 -65t91.5 -22.5q46 0 85 20.5t68 57.5t45 86t16 106z" />
    <glyph glyph-name="P" unicode="P" horiz-adv-x="640" 
d="M311 740l-117 -740h-156l117 740h156zM370 247h-175l22 140h141q64 0 99 31t35 88q0 45 -27 69.5t-78 24.5h-137l22 140h156q69 0 120 -27t78.5 -75.5t27.5 -115.5q0 -81 -36 -143t-100 -97t-148 -35z" />
    <glyph glyph-name="Q" unicode="Q" horiz-adv-x="785" 
d="M770 427q0 -93 -30 -173t-83.5 -139.5t-125.5 -93t-157 -33.5q-96 0 -168.5 41t-113 114t-40.5 169q0 93 29.5 173t83 140t125.5 93.5t157 33.5q97 0 169.5 -41t113 -114t40.5 -170zM603 411q0 60 -20 102t-58 64.5t-92 22.5q-46 0 -85 -20.5t-68 -57.5t-45 -86.5
t-16 -106.5q0 -58 20 -100.5t58.5 -65t91.5 -22.5q46 0 85 20.5t68 57.5t45 86t16 106zM595 -63l-231 324l105 80l231 -324z" />
    <glyph glyph-name="R" unicode="R" horiz-adv-x="676" 
d="M194 0h-156l117 740h275q110 0 175 -58t65 -156q0 -73 -41.5 -133t-119.5 -98l91 -295h-161l-79 261h-125zM289 600l-32 -201h121q60 0 94.5 30.5t34.5 83.5q0 41 -27 64t-75 23h-116z" />
    <glyph glyph-name="S" unicode="S" horiz-adv-x="596" 
d="M70 507q0 75 34 130.5t95.5 86t143.5 30.5q71 0 128.5 -30t92.5 -81.5t37 -116.5h-157q-4 41 -33.5 64.5t-75.5 23.5q-52 0 -81 -21.5t-29 -62.5q0 -31 18 -51t56 -31l105 -31q82 -25 121.5 -71.5t39.5 -119.5q0 -72 -34 -125.5t-96 -83.5t-146 -30q-121 0 -193.5 61
t-76.5 167h157q2 -41 34 -64.5t86 -23.5q36 0 62 10t39.5 28.5t13.5 44.5q0 28 -14.5 43.5t-49.5 25.5l-108 31q-81 23 -125 74.5t-44 122.5z" />
    <glyph glyph-name="T" unicode="T" horiz-adv-x="608" 
d="M448 665l-105 -665h-156l105 665h156zM75 594l23 146h567l-23 -146h-567z" />
    <glyph glyph-name="U" unicode="U" horiz-adv-x="740" 
d="M78 287l72 453h156l-71 -453q-11 -70 19.5 -109t97.5 -39q68 0 111.5 39t54.5 109l72 453h156l-74 -464q-22 -135 -108 -211.5t-227 -76.5q-84 0 -147.5 37.5t-94.5 105t-17 156.5z" />
    <glyph glyph-name="V" unicode="V" horiz-adv-x="717" 
d="M241 0l-154 740h160l78 -381q7 -34 12.5 -70t9.5 -85q17 38 28.5 64t22 47l21.5 43l197 382h170l-383 -740h-162z" />
    <glyph glyph-name="W" unicode="W" horiz-adv-x="1044" 
d="M192 0l-100 740h155l43 -331q4 -28 8.5 -71t4.5 -88q14 45 31 87.5t30 71.5l143 331h179l36 -331q4 -34 6.5 -74.5t3.5 -84.5q15 44 32.5 86.5t30.5 70.5l151 333h162l-338 -740h-151l-54 511l-217 -511h-156z" />
    <glyph glyph-name="X" unicode="X" horiz-adv-x="707" 
d="M278 369l-167 371h169l47 -103q8 -17 19 -45t23 -58.5t22 -58.5l185 265h190l-289 -371l172 -369h-176l-37 83q-8 19 -22 52t-27.5 68.5t-23.5 61.5l-191 -265h-194z" />
    <glyph glyph-name="Y" unicode="Y" horiz-adv-x="664" 
d="M259 282l-171 458h165l86 -245q5 -14 9.5 -28.5t7.5 -30.5q7 15 15.5 29.5t18.5 30.5l164 244h178l-317 -458l-45 -282h-156z" />
    <glyph glyph-name="Z" unicode="Z" horiz-adv-x="582" 
d="M517 0h-531l23 148l394 446h-313l23 146h512l-22 -141l-401 -453h338z" />
    <glyph glyph-name="bracketleft" unicode="[" horiz-adv-x="331" 
d="M173 0h113l-18 -114h-248l155 984h248l-18 -114h-113z" />
    <glyph glyph-name="backslash" unicode="\" horiz-adv-x="431" 
d="M222 740l169 -740h-144l-169 740h144z" />
    <glyph glyph-name="bracketright" unicode="]" horiz-adv-x="331" 
d="M-52 -114l18 114h113l119 756h-113l18 114h248l-155 -984h-248z" />
    <glyph glyph-name="asciicircum" unicode="^" horiz-adv-x="526" 
d="M216 400h-132l184 340h145l77 -340h-120l-42 221z" />
    <glyph glyph-name="underscore" unicode="_" horiz-adv-x="551" 
d="M1 -123l17 107h431l-17 -107h-431z" />
    <glyph glyph-name="grave" unicode="`" horiz-adv-x="312" 
d="M345 771h-101l-82 163h128z" />
    <glyph glyph-name="a" unicode="a" horiz-adv-x="553" 
d="M173 -13q-68 0 -110.5 38.5t-42.5 100.5q0 78 53 123.5t153 53.5l140 12l1 9q5 38 -16 57.5t-63 19.5q-85 0 -96 -72h-130q14 89 76.5 137.5t165.5 48.5q110 0 165.5 -60t38.5 -162l-47 -293h-131l1 67q-17 -36 -61 -58t-97 -22zM233 98q47 0 78 24.5t37 66.5l4 27
l-80 -7q-55 -4 -78 -20t-23 -45q0 -22 16 -34t46 -12z" />
    <glyph glyph-name="b" unicode="b" horiz-adv-x="629" 
d="M158 0h-140l119 754h149l-49 -315q27 35 66 55t91 20q59 0 105.5 -29t73 -81t26.5 -120q0 -88 -34 -154.5t-93 -104t-134 -37.5q-52 0 -97 22t-65 56zM206 228q0 -49 28 -79t76 -30q39 0 70.5 20.5t50.5 56t19 78.5q0 49 -28 79t-76 30q-38 0 -70 -20.5t-51 -55.5
t-19 -79z" />
    <glyph glyph-name="c" unicode="c" horiz-adv-x="557" 
d="M28 212q0 86 37.5 154.5t102 108t145.5 39.5q107 0 167.5 -56t60.5 -154h-150q-2 38 -24.5 58t-62.5 20q-35 0 -63.5 -21t-44.5 -56.5t-16 -81.5q0 -49 23.5 -76t66.5 -27q35 0 62 21t40 58h152q-15 -63 -52.5 -110.5t-91.5 -74t-118 -26.5q-74 0 -126.5 26.5t-80 76.5
t-27.5 121z" />
    <glyph glyph-name="d" unicode="d" horiz-adv-x="628" 
d="M235 -12q-59 0 -105.5 29t-73 81t-26.5 120q0 88 34 154.5t93 104t134 37.5q52 0 97 -22t65 -56l48 318h149l-119 -754h-140l1 63q-27 -35 -66 -55t-91 -20zM283 119q39 0 70.5 20.5t50.5 56t19 78.5q0 49 -28 79t-76 30q-38 0 -70 -20.5t-51 -55.5t-19 -79q0 -49 28 -79
t76 -30z" />
    <glyph glyph-name="e" unicode="e" horiz-adv-x="561" 
d="M262 -12q-74 0 -126.5 26.5t-80 76.5t-27.5 121q0 86 37.5 154.5t102 108t145.5 39.5q78 0 130.5 -32.5t75.5 -91.5t10 -139l-6 -39l-423 -2l16 93h273q7 41 -16 65.5t-69 24.5q-38 0 -68.5 -22.5t-48 -61t-17.5 -86.5q0 -57 24.5 -85t75.5 -28q35 0 61.5 15t40.5 43h146
q-17 -53 -55 -94t-90 -63.5t-111 -22.5z" />
    <glyph glyph-name="f" unicode="f" horiz-adv-x="356" 
d="M51 500h334l-20 -124h-334zM424 748l-20 -128h-22.5h-19.5q-39 0 -61 -18.5t-28 -59.5l-85 -542h-148l86 542q17 104 76 158t156 54q15 0 32.5 -1.5t33.5 -4.5z" />
    <glyph glyph-name="g" unicode="g" horiz-adv-x="618" 
d="M29 219q0 62 21 115.5t58.5 93.5t86.5 63t106 23q53 0 96 -24.5t55 -62.5l-17 -10l25 83h140l-74 -469q-22 -144 -93 -215t-193 -71q-75 0 -132.5 29t-89.5 80.5t-32 119.5h147q3 -43 32.5 -68t77.5 -25q53 0 86 30.5t43 88.5l18 109l14 -13q-22 -42 -66 -66t-100 -24
q-60 0 -107.5 27.5t-74.5 75.5t-27 110zM181 233q0 -45 27 -73t70 -28q40 0 71 20t49 54.5t18 78.5q0 45 -26.5 71.5t-73.5 26.5q-38 0 -68.5 -20t-48.5 -54t-18 -76z" />
    <glyph glyph-name="h" unicode="h" horiz-adv-x="593" 
d="M166 0h-148l119 754h150l-49 -308q32 38 65 54t78 16q56 0 97 -28t61 -75.5t11 -104.5l-49 -308h-149l43 272q8 50 -13 80t-65 30q-43 0 -71.5 -28t-36.5 -81z" />
    <glyph glyph-name="i" unicode="i" horiz-adv-x="264" 
d="M18 0l79 500h149l-79 -500h-149zM183 580q-31 0 -51.5 20.5t-20.5 51.5q0 26 14 48.5t37 36.5t49 14q32 0 52 -20.5t20 -51.5q0 -25 -14 -48t-37 -37t-49 -14z" />
    <glyph glyph-name="j" unicode="j" horiz-adv-x="262" 
d="M-124 -242l37 132q11 -4 20 -5t19 -1q26 0 38.5 15.5t17.5 50.5l87 550h149l-90 -569q-15 -93 -63 -140t-127 -47q-25 0 -45 3.5t-43 10.5zM182 580q-31 0 -51.5 20.5t-20.5 51.5q0 26 14 48.5t37 36.5t49 14q32 0 52 -20.5t20 -51.5q0 -25 -14 -48t-37 -37t-49 -14z" />
    <glyph glyph-name="k" unicode="k" horiz-adv-x="560" 
d="M168 0h-149l119 754h149l-68 -433l186 179h189l-222 -211l127 -289h-161l-82 190l-68 -64z" />
    <glyph glyph-name="l" unicode="l" horiz-adv-x="266" 
d="M168 0h-149l119 754h149z" />
    <glyph glyph-name="m" unicode="m" horiz-adv-x="894" 
d="M167 0h-149l79 500h139l2 -87l-12 17q24 39 68 62t93 23q59 0 96 -30.5t47 -89.5h-27q20 54 70 87t112 33q56 0 97 -25t60.5 -67.5t10.5 -96.5l-51 -326h-149l45 285q7 44 -12.5 70.5t-58.5 26.5q-28 0 -48.5 -12t-33 -36.5t-18.5 -63.5l-43 -270h-149l45 285
q7 42 -12 69t-57 27q-29 0 -49.5 -11.5t-33 -36t-18.5 -63.5z" />
    <glyph glyph-name="n" unicode="n" horiz-adv-x="594" 
d="M167 0h-149l79 500h140l2 -54q32 38 65 54t78 16q56 0 97 -28t61 -75.5t11 -104.5l-49 -308h-149l43 272q8 50 -13 80t-65 30q-43 0 -71.5 -28t-36.5 -81z" />
    <glyph glyph-name="o" unicode="o" horiz-adv-x="604" 
d="M28 215q0 63 23 117.5t63.5 95t95 63.5t117.5 23q75 0 131 -28.5t87 -79.5t31 -119q0 -63 -23 -117.5t-63.5 -95t-95 -63.5t-117.5 -23q-74 0 -130.5 28.5t-87.5 79.5t-31 119zM180 228q0 -49 28 -79t76 -30q39 0 70.5 20.5t50.5 56t19 78.5q0 49 -28 79t-76 30
q-38 0 -70 -20.5t-51 -55.5t-19 -79z" />
    <glyph glyph-name="p" unicode="p" horiz-adv-x="628" 
d="M-20 -240l117 740h140l-1 -61q27 35 66 55t91 20q59 0 105.5 -29t73 -81t26.5 -120q0 -88 -34 -154.5t-93 -104t-134 -37.5q-52 0 -97 22t-65 56l-46 -306h-149zM205 228q0 -49 28 -79t76 -30q39 0 70.5 20.5t50.5 56t19 78.5q0 49 -28 79t-76 30q-38 0 -70 -20.5
t-51 -55.5t-19 -79z" />
    <glyph glyph-name="q" unicode="q" horiz-adv-x="629" 
d="M30 218q0 88 34 154.5t93 104t134 37.5q52 0 97 -22t65 -56l18 64h140l-117 -740h-149l47 303q-27 -35 -66 -55t-91 -20q-59 0 -105.5 29t-73 81t-26.5 120zM179 228q0 -49 28 -79t76 -30q39 0 70.5 20.5t50.5 56t19 78.5q0 49 -28 79t-76 30q-38 0 -70 -20.5t-51 -55.5
t-19 -79z" />
    <glyph glyph-name="r" unicode="r" horiz-adv-x="412" 
d="M432 501l-22 -140h-48q-43 0 -76.5 -14.5t-54.5 -45t-29 -79.5l-35 -222h-149l79 500h140l-5 -106h-14q18 50 58.5 82t98.5 32q14 0 29 -1.5t28 -5.5z" />
    <glyph glyph-name="s" unicode="s" horiz-adv-x="470" 
d="M5 158h142q2 -28 20.5 -43.5t52.5 -15.5q32 0 52 12.5t20 32.5q0 17 -8.5 25.5t-31.5 15.5l-88 28q-52 17 -82 49t-30 83q0 79 56.5 124t155.5 45q56 0 98 -21.5t66 -59t24 -86.5h-142q0 26 -16 42t-43 16q-28 0 -43 -11t-15 -32q0 -32 49 -48l86 -28q54 -17 80.5 -48
t26.5 -76q0 -54 -27 -93t-77.5 -59.5t-121.5 -20.5q-93 0 -148.5 46t-55.5 123z" />
    <glyph glyph-name="t" unicode="t" horiz-adv-x="357" 
d="M51 500h335l-20 -124h-335zM214 0h-149l103 654h149z" />
    <glyph glyph-name="u" unicode="u" horiz-adv-x="588" 
d="M421 500h149l-79 -500h-140l-2 54q-31 -35 -64 -51t-78 -16q-55 0 -95.5 28.5t-59 75.5t-9.5 104l49 305h149l-43 -269q-8 -50 12.5 -80t60.5 -30q44 0 71.5 27t35.5 79z" />
    <glyph glyph-name="v" unicode="v" horiz-adv-x="551" 
d="M156 0l-112 500h150l33 -183q8 -43 14 -81.5t11 -74.5q17 36 37 79t37 77l96 183h165l-284 -500h-147z" />
    <glyph glyph-name="w" unicode="w" horiz-adv-x="810" 
d="M128 0l-79 500h149l20 -170q4 -31 7 -68.5t4 -71.5q11 29 26 66.5t31 73.5l75 170h153l20 -170q1 -9 3.5 -35.5t4.5 -55.5t3 -49q9 23 20 50t21 51.5t16 38.5l75 170h164l-250 -500h-136l-25 166q-4 28 -8 63t-6.5 65l-3.5 42q-4 -12 -16 -41.5t-26.5 -65t-27.5 -66.5
l-67 -163h-147z" />
    <glyph glyph-name="x" unicode="x" horiz-adv-x="533" 
d="M148 0h-178l206 242l-127 258h162l70 -155l107 155h176l-205 -255l120 -245h-162l-65 147z" />
    <glyph glyph-name="y" unicode="y" horiz-adv-x="549" 
d="M194 500l76 -436l-91 -171l-135 607h150zM-60 -239l20 126h82q20 0 36.5 7t31 22.5t27.5 40.5l285 543h163l-344 -609q-37 -64 -83.5 -103.5t-120.5 -39.5q-28 0 -52 3.5t-45 9.5z" />
    <glyph glyph-name="z" unicode="z" horiz-adv-x="482" 
d="M406 0h-409l20 124l260 252h-221l20 124h409l-20 -124l-265 -252h226z" />
    <glyph glyph-name="braceleft" unicode="{" horiz-adv-x="375" 
d="M56 319l19 117q52 0 84 25.5t39 74.5l31 200q11 66 52 100t111 34h74l-18 -114h-41q-22 0 -32 -11t-15 -38l-30 -191q-10 -60 -35 -94.5t-75 -54.5q40 -13 57 -46.5t9 -82.5l-29 -189q-4 -23 4.5 -36t27.5 -13h41l-18 -114h-74q-61 0 -95.5 38.5t-25.5 96.5l31 197
q8 49 -15.5 75t-76.5 26z" />
    <glyph glyph-name="bar" unicode="|" horiz-adv-x="348" 
d="M63 -90l139 878h114l-139 -878h-114z" />
    <glyph glyph-name="braceright" unicode="}" horiz-adv-x="374" 
d="M23 -114h-74l18 114h41q22 0 32.5 11t14.5 38l30 191q10 60 35.5 95t74.5 54q-40 14 -56.5 47t-9.5 82l29 189q4 23 -4.5 36t-27.5 13h-41l18 114h74q61 0 95.5 -38.5t25.5 -96.5l-31 -197q-7 -49 16.5 -75t75.5 -26l-19 -117q-52 0 -83.5 -25.5t-39.5 -74.5l-31 -200
q-10 -66 -51.5 -100t-111.5 -34z" />
    <glyph glyph-name="asciitilde" unicode="~" 
d="M488 405h112q-15 -89 -56.5 -136t-106.5 -47q-34 0 -59.5 10.5t-46 23.5t-40 23.5t-42.5 10.5q-22 0 -36 -15t-19 -45h-112q14 87 56 133t106 46q34 0 59 -10.5t45.5 -23.5t40.5 -23.5t44 -10.5q23 0 36.5 16t18.5 48z" />
    <glyph glyph-name="exclamdown" unicode="&#xa1;" horiz-adv-x="344" 
d="M155 519h122q2 -41 -1.5 -99t-10.5 -123t-17 -129l-26 -168h-179l26 168q10 64 24 129.5t30.5 123.5t31.5 98zM253 753q35 0 55.5 -20t20.5 -55q0 -42 -30.5 -72.5t-73.5 -30.5q-35 0 -56 21t-21 55q0 28 14.5 51t38.5 37t52 14z" />
    <glyph glyph-name="cent" unicode="&#xa2;" horiz-adv-x="578" 
d="M428 740l-22 -139l-125 -8l23 147h124zM187 0l23 144l122 -9l-21 -135h-124zM57 330q0 86 37.5 154.5t102 108t145.5 39.5q107 0 167.5 -56t60.5 -154h-150q-2 38 -24.5 58t-62.5 20q-35 0 -63.5 -21t-44.5 -56.5t-16 -81.5q0 -49 23.5 -76t66.5 -27q35 0 62 21t40 58
h152q-15 -63 -52.5 -110.5t-91.5 -74t-118 -26.5q-74 0 -126.5 26.5t-80 76.5t-27.5 121z" />
    <glyph glyph-name="sterling" unicode="&#xa3;" horiz-adv-x="662" 
d="M455 314h-416l18 114h416zM354 0h-369l23 147q36 0 63.5 18t43.5 50t16 73q0 28 -6 65t-12 75t-6 69q0 77 34.5 134.5t96 90t142.5 32.5q72 0 129.5 -31t92 -85.5t36.5 -123.5h-157q-4 47 -33 73.5t-76 26.5q-34 0 -58.5 -12.5t-38 -36t-13.5 -55.5q0 -39 5 -76t10 -70.5
t5 -62.5q0 -56 -22.5 -95.5t-65.5 -58.5h148q39 0 63 9.5t38.5 32.5t24.5 64h158q-21 -132 -86 -192.5t-186 -60.5z" />
    <glyph glyph-name="currency" unicode="&#xa4;" horiz-adv-x="754" 
d="M672 398q0 -61 -25 -115.5t-68 -96.5t-98.5 -66.5t-115.5 -24.5q-71 0 -127.5 33t-88.5 88.5t-32 123.5q0 62 25 117t68 97t98 66.5t116 24.5q72 0 128 -33t88 -89t32 -125zM207 690l104 -130l-107 -85l-104 130zM595 461l-89 104l143 125l90 -101zM197 282l89 -104
l-143 -125l-90 101zM585 53l-104 130l107 85l104 -130zM534 386q0 50 -31 87.5t-90 37.5q-47 0 -83 -21.5t-55.5 -57.5t-19.5 -79q0 -49 31 -86.5t90 -37.5q47 0 82.5 22t55.5 57.5t20 77.5z" />
    <glyph glyph-name="yen" unicode="&#xa5;" horiz-adv-x="680" 
d="M245 120h-156l17 109h156l8 49h-156l17 110h113l-146 352h170l98 -290l187 290h185l-258 -352h111l-17 -110h-156l-8 -49h156l-17 -109h-156l-19 -120h-148z" />
    <glyph glyph-name="brokenbar" unicode="&#xa6;" horiz-adv-x="349" 
d="M64 -90l55 345h114l-55 -345h-114zM317 788l-55 -345h-114l55 345h114z" />
    <glyph glyph-name="section" unicode="&#xa7;" horiz-adv-x="484" 
d="M480 388q0 -48 -27 -86t-72 -58.5t-100 -17.5l26 44q61 -17 88 -46t27 -78q0 -45 -26 -80.5t-72.5 -55.5t-106.5 -20q-88 0 -139.5 48t-51.5 129h141q0 -31 17 -49.5t45 -18.5q26 0 40 12t14 33q0 32 -48 48l-89 28q-104 33 -104 132q0 46 25 78.5t70 49.5t104 14
l-26 -24q-115 32 -115 124q0 73 56.5 116t151.5 43q54 0 96.5 -22.5t67 -62t24.5 -89.5h-141q0 32 -14.5 48.5t-42.5 16.5t-43.5 -12t-15.5 -35q0 -33 48 -49l89 -29q54 -18 79 -49.5t25 -81.5zM338 380q0 29 -19 45t-53 16q-36 0 -59 -23.5t-23 -59.5q0 -28 19 -44t53 -16
q36 0 59 23t23 59z" />
    <glyph glyph-name="dieresis" unicode="&#xa8;" horiz-adv-x="456" 
d="M211 778q-29 0 -46.5 17.5t-17.5 46.5q0 37 26 63t62 26q29 0 46.5 -18t17.5 -47q0 -35 -26.5 -61.5t-61.5 -26.5zM403 778q-29 0 -46 17.5t-17 46.5q0 37 26 63t61 26q29 0 46.5 -18t17.5 -47q0 -35 -26 -61.5t-62 -26.5z" />
    <glyph glyph-name="copyright" unicode="&#xa9;" horiz-adv-x="807" 
d="M388 -13q-98 0 -173.5 43.5t-118 120t-42.5 175.5q0 87 32 164.5t87.5 137t129 93t155.5 33.5q99 0 174 -43t117.5 -119.5t42.5 -176.5q0 -87 -32 -164.5t-87.5 -137t-128.5 -93t-156 -33.5zM395 75q64 0 119.5 25.5t97.5 71.5t65.5 106t23.5 129q0 78 -31 136
t-87.5 90.5t-131.5 32.5q-63 0 -118.5 -25.5t-97.5 -71.5t-65.5 -106t-23.5 -129q0 -77 31 -135.5t87.5 -91t130.5 -32.5zM238 346q0 64 27 112.5t74.5 76.5t108.5 28q73 0 117 -41.5t47 -112.5h-110q-2 28 -17.5 42.5t-43.5 14.5q-26 0 -47 -15t-32.5 -41t-11.5 -60
q0 -35 17.5 -56t46.5 -21t50 15t31 44h110q-10 -43 -39.5 -78.5t-71 -56.5t-86.5 -21q-51 0 -89 21t-59.5 59.5t-21.5 89.5z" />
    <glyph glyph-name="guillemotleft" unicode="&#xab;" horiz-adv-x="797" 
d="M214 0l-174 251l253 249h204l-265 -261l166 -239h-184zM514 0l-174 251l253 249h204l-265 -261l166 -239h-184z" />
    <glyph glyph-name="logicalnot" unicode="&#xac;" 
d="M596 399l-48 -305h-136l29 185h-378l20 120h513z" />
    <glyph glyph-name="registered" unicode="&#xae;" horiz-adv-x="516" 
d="M282 312q-64 0 -108 25.5t-67 69.5t-23 99q0 66 31 122.5t85 91t124 34.5q64 0 108 -25.5t67 -69.5t23 -99q0 -66 -31 -122.5t-85 -91t-124 -34.5zM284 352q59 0 102.5 29.5t67.5 76.5t24 102q0 68 -39 111t-117 43q-58 0 -102 -29.5t-68 -76.5t-24 -102q0 -67 39 -110.5
t117 -43.5zM239 412h-44l39 248h98q37 0 60 -17.5t23 -52.5q0 -30 -16 -50.5t-43 -31.5l34 -96h-47l-30 88h-60zM368 584q0 34 -42 34h-55l-12 -77h57q23 0 37.5 11.5t14.5 31.5z" />
    <glyph glyph-name="macron" unicode="&#xaf;" horiz-adv-x="410" 
d="M147 798l16 102h283l-16 -102h-283z" />
    <glyph glyph-name="degree" unicode="&#xb0;" horiz-adv-x="339" 
d="M367 630q0 -44 -20 -80t-54.5 -57t-77.5 -21q-55 0 -91.5 35.5t-36.5 88.5q0 44 20 80t54.5 57t77.5 21q56 0 92 -35.5t36 -88.5zM286 619q0 26 -15 42t-40 16q-28 0 -45.5 -20.5t-17.5 -49.5q0 -26 15 -42t40 -16q28 0 45.5 20.5t17.5 49.5z" />
    <glyph glyph-name="plusminus" unicode="&#xb1;" 
d="M46 0l20 120h488l-20 -120h-488zM449 616l-67 -422h-124l67 422h124zM120 465h487l-20 -120h-487z" />
    <glyph glyph-name="twosuperior" unicode="&#xb2;" horiz-adv-x="360" 
d="M351 330h-309l12 73l189 142q56 41 56 94q0 27 -13 41.5t-39 14.5q-28 0 -46.5 -20t-24.5 -57h-101q15 78 63 122t117 44q66 0 104.5 -36.5t38.5 -99.5q0 -95 -86 -161l-115 -87l-54 18h222z" />
    <glyph glyph-name="threesuperior" unicode="&#xb3;" horiz-adv-x="363" 
d="M325 697l-186 -147l-48 53l168 133l-29 -48h-191l14 87h284zM107 539h-26l10 64q11 2 26.5 5t31.5 3q69 0 112 -36t43 -95q0 -47 -20.5 -83t-57.5 -55.5t-87 -19.5q-71 0 -113 40.5t-42 110.5h97q0 -30 15.5 -46.5t43.5 -16.5q20 0 35 8t23.5 23t8.5 35q0 28 -20 45.5
t-52 17.5h-12.5h-15.5z" />
    <glyph glyph-name="acute" unicode="&#xb4;" horiz-adv-x="312" 
d="M366 934l-134 -163h-112l108 163h138z" />
    <glyph glyph-name="micro" unicode="&#xb5;" horiz-adv-x="588" 
d="M125 -239h-150l117 739h149l-43 -269q-8 -50 12.5 -80t60.5 -30q44 0 71.5 27t35.5 79l43 273h149l-79 -500h-140l-2 54q-31 -35 -59 -51t-73 -16q-16 0 -36.5 4.5t-34.5 16.5z" />
    <glyph glyph-name="paragraph" unicode="&#xb6;" horiz-adv-x="613" 
d="M70 512q0 72 29.5 123t80.5 78t116 27h160l-133 -838h-126l68 432h-33q-51 0 -87.5 24t-55.5 64.5t-19 89.5zM461 -99h-45l132 839h45z" />
    <glyph glyph-name="periodcentered" unicode="&#xb7;" horiz-adv-x="362" 
d="M169 173q-46 0 -73.5 27t-27.5 72q0 37 18.5 68t50 49.5t69.5 18.5q46 0 73.5 -27t27.5 -72q0 -37 -18.5 -68t-50 -49.5t-69.5 -18.5z" />
    <glyph glyph-name="cedilla" unicode="&#xb8;" horiz-adv-x="278" 
d="M-43 -211l10 63q17 -8 33.5 -13.5t34.5 -5.5q28 0 45 11.5t17 32.5q0 32 -38 32q-13 0 -25.5 -2t-23.5 -6l-8 38l65 103l42 -1l-5 -32l-47 -71l-5 7q8 6 19 9.5t28 3.5q26 0 50.5 -18.5t24.5 -56.5q0 -52 -36.5 -82.5t-97.5 -30.5q-25 0 -47 6t-36 13z" />
    <glyph glyph-name="onesuperior" unicode="&#xb9;" horiz-adv-x="276" 
d="M133 689h-111l14 86h207l-70 -445h-97z" />
    <glyph glyph-name="guillemotright" unicode="&#xbb;" horiz-adv-x="797" 
d="M283 500l174 -251l-253 -249h-204l265 261l-166 239h184zM583 500l174 -251l-253 -249h-204l265 261l-166 239h184z" />
    <glyph glyph-name="onequarter" unicode="&#xbc;" horiz-adv-x="736" 
d="M164 669h-84l11 71h166l-58 -372h-82zM727 710l-583 -710h-116l583 710h116zM558 68h-175l10 66l181 238h89l-171 -230h78l36 230h79l-36 -230h48l-12 -74h-48l-11 -68h-79z" />
    <glyph glyph-name="onehalf" unicode="&#xbd;" horiz-adv-x="772" 
d="M164 669h-84l11 71h166l-58 -372h-82zM727 710l-583 -710h-116l583 710h116zM710 0h-267l10 62l145 117q32 26 44 43.5t12 36.5q0 20 -11.5 32.5t-31.5 12.5q-24 0 -39 -14t-19 -40h-83q10 64 47.5 96.5t99.5 32.5q55 0 89 -32.5t34 -85.5q0 -36 -20 -67t-67 -69l-84 -69
l-38 19h191z" />
    <glyph glyph-name="threequarters" unicode="&#xbe;" horiz-adv-x="771" 
d="M56 491h83q0 -25 13.5 -40t37.5 -15q22 0 35 13t13 35q0 26 -17.5 41t-47.5 15h-38l8 54l89 71h-132l12 75h238l-10 -68l-148 -119l4 51q54 1 90 -31.5t36 -82.5q0 -58 -37 -93.5t-99 -35.5q-58 0 -94 36t-36 94zM762 710l-583 -710h-116l583 710h116zM593 68h-175l10 66
l181 238h89l-171 -230h78l36 230h79l-36 -230h48l-12 -74h-48l-11 -68h-79z" />
    <glyph glyph-name="questiondown" unicode="&#xbf;" horiz-adv-x="568" 
d="M289 542h134l-3 -21q-5 -38 -22.5 -73t-45.5 -66.5t-67 -57.5q-57 -39 -77.5 -65t-20.5 -60t22 -53t59 -19q48 0 78 31t35 86h155q-10 -79 -48.5 -137t-98.5 -89t-137 -31q-67 0 -118.5 26t-80.5 72t-29 106q0 66 38 117.5t108 91.5q42 24 66.5 43.5t35.5 38.5t14 39z
M386 754q32 0 54 -21.5t22 -53.5q0 -26 -15 -50t-38.5 -38.5t-50.5 -14.5q-32 0 -54.5 22t-22.5 54q0 26 15 49.5t39.5 38t50.5 14.5z" />
    <glyph glyph-name="Agrave" unicode="&#xc0;" horiz-adv-x="688" 
d="M139 0h-170l376 740h153l141 -740h-160l-26 158h-236zM364 459l-81 -169h147l-28 169q-2 14 -5 35.5t-3 34.5q-4 -13 -12.5 -32.5t-17.5 -37.5zM482 790h-101l-82 163h128z" />
    <glyph glyph-name="Aacute" unicode="&#xc1;" horiz-adv-x="688" 
d="M139 0h-170l376 740h153l141 -740h-160l-26 158h-236zM364 459l-81 -169h147l-28 169q-2 14 -5 35.5t-3 34.5q-4 -13 -12.5 -32.5t-17.5 -37.5zM620 953l-134 -163h-112l108 163h138z" />
    <glyph glyph-name="Acircumflex" unicode="&#xc2;" horiz-adv-x="688" 
d="M139 0h-170l376 740h153l141 -740h-160l-26 158h-236zM364 459l-81 -169h147l-28 169q-2 14 -5 35.5t-3 34.5q-4 -13 -12.5 -32.5t-17.5 -37.5zM380 790h-117l123 173h144l69 -173h-107l-40 104z" />
    <glyph glyph-name="Atilde" unicode="&#xc3;" horiz-adv-x="688" 
d="M139 0h-170l376 740h153l141 -740h-160l-26 158h-236zM364 459l-81 -169h147l-28 169q-2 14 -5 35.5t-3 34.5q-4 -13 -12.5 -32.5t-17.5 -37.5zM332 792h-86q3 73 36.5 116.5t85.5 43.5q27 0 45 -9.5t32 -21.5t29 -21.5t34 -9.5q22 0 31.5 15.5t13.5 46.5h87
q-5 -78 -36.5 -119t-86.5 -41q-28 0 -46.5 9.5t-33 21.5t-28 21.5t-31.5 9.5q-21 0 -31 -14.5t-15 -47.5z" />
    <glyph glyph-name="Adieresis" unicode="&#xc4;" horiz-adv-x="688" 
d="M139 0h-170l376 740h153l141 -740h-160l-26 158h-236zM364 459l-81 -169h147l-28 169q-2 14 -5 35.5t-3 34.5q-4 -13 -12.5 -32.5t-17.5 -37.5zM336 797q-29 0 -46.5 17.5t-17.5 46.5q0 37 26 63t62 26q29 0 46.5 -18t17.5 -47q0 -35 -26.5 -61.5t-61.5 -26.5zM528 797
q-29 0 -46 17.5t-17 46.5q0 37 26 63t61 26q29 0 46.5 -18t17.5 -47q0 -35 -26 -61.5t-62 -26.5z" />
    <glyph glyph-name="Aring" unicode="&#xc5;" horiz-adv-x="688" 
d="M139 0h-170l376 740h153l141 -740h-160l-26 158h-236zM364 459l-81 -169h147l-28 169q-2 14 -5 35.5t-3 34.5q-4 -13 -12.5 -32.5t-17.5 -37.5zM435 773q-55 0 -89.5 33t-34.5 85q0 45 20 80.5t55 56t78 20.5q55 0 90.5 -34t35.5 -87q0 -44 -20 -79t-55 -55t-80 -20z
M443 849q29 0 47.5 20t18.5 51q0 23 -14.5 37.5t-37.5 14.5q-28 0 -46.5 -19.5t-18.5 -50.5q0 -24 14 -38.5t37 -14.5z" />
    <glyph glyph-name="AE" unicode="&#xc6;" horiz-adv-x="945" 
d="M-36 0l408 740h161l-392 -740h-177zM172 169l21 132h305l-21 -132h-305zM849 0h-449l23 146h449zM663 740l-117 -740h-156l117 740h156zM943 594h-591l23 146h591zM863 304h-415l22 138h415z" />
    <glyph glyph-name="Ccedilla" unicode="&#xc7;" horiz-adv-x="766" 
d="M374 -12q-102 0 -173.5 41.5t-109.5 115t-38 168.5q0 96 30.5 176.5t85.5 139.5t129 91t162 32q92 0 158.5 -34t103 -95t39.5 -142h-167q-6 41 -27 67t-53.5 38.5t-73.5 12.5q-51 0 -91.5 -20.5t-69.5 -58t-44 -88t-15 -109.5q0 -54 19 -95t55 -64t86 -23q68 0 114 28
t71 92h172q-43 -134 -136 -203.5t-227 -69.5zM261 -211l10 63q17 -8 33.5 -13.5t34.5 -5.5q28 0 45 11.5t17 32.5q0 32 -38 32q-13 0 -25.5 -2t-23.5 -6l-8 38l65 103l42 -1l-5 -32l-47 -71l-5 7q8 6 19 9.5t28 3.5q26 0 50.5 -18.5t24.5 -56.5q0 -52 -36.5 -82.5
t-97.5 -30.5q-25 0 -47 6t-36 13z" />
    <glyph glyph-name="Egrave" unicode="&#xc8;" horiz-adv-x="594" 
d="M498 0h-460l117 740h460l-23 -146h-348l51 42l-31 -194h269l-22 -138h-269l-32 -200l-37 42h348zM444 790h-101l-82 163h128z" />
    <glyph glyph-name="Eacute" unicode="&#xc9;" horiz-adv-x="594" 
d="M498 0h-460l117 740h460l-23 -146h-348l51 42l-31 -194h269l-22 -138h-269l-32 -200l-37 42h348zM582 953l-134 -163h-112l108 163h138z" />
    <glyph glyph-name="Ecircumflex" unicode="&#xca;" horiz-adv-x="594" 
d="M498 0h-460l117 740h460l-23 -146h-348l51 42l-31 -194h269l-22 -138h-269l-32 -200l-37 42h348zM342 790h-117l123 173h144l69 -173h-107l-40 104z" />
    <glyph glyph-name="Edieresis" unicode="&#xcb;" horiz-adv-x="594" 
d="M498 0h-460l117 740h460l-23 -146h-348l51 42l-31 -194h269l-22 -138h-269l-32 -200l-37 42h348zM298 797q-29 0 -46.5 17.5t-17.5 46.5q0 37 26 63t62 26q29 0 46.5 -18t17.5 -47q0 -35 -26.5 -61.5t-61.5 -26.5zM490 797q-29 0 -46 17.5t-17 46.5q0 37 26 63t61 26
q29 0 46.5 -18t17.5 -47q0 -35 -26 -61.5t-62 -26.5z" />
    <glyph glyph-name="Igrave" unicode="&#xcc;" horiz-adv-x="311" 
d="M311 740l-117 -740h-156l117 740h156zM292 790h-101l-82 163h128z" />
    <glyph glyph-name="Iacute" unicode="&#xcd;" horiz-adv-x="311" 
d="M311 740l-117 -740h-156l117 740h156zM430 953l-134 -163h-112l108 163h138z" />
    <glyph glyph-name="Icircumflex" unicode="&#xce;" horiz-adv-x="311" 
d="M311 740l-117 -740h-156l117 740h156zM190 790h-117l123 173h144l69 -173h-107l-40 104z" />
    <glyph glyph-name="Idieresis" unicode="&#xcf;" horiz-adv-x="311" 
d="M311 740l-117 -740h-156l117 740h156zM146 797q-29 0 -46.5 17.5t-17.5 46.5q0 37 26 63t62 26q29 0 46.5 -18t17.5 -47q0 -35 -26.5 -61.5t-61.5 -26.5zM338 797q-29 0 -46 17.5t-17 46.5q0 37 26 63t61 26q29 0 46.5 -18t17.5 -47q0 -35 -26 -61.5t-62 -26.5z" />
    <glyph glyph-name="Eth" unicode="&#xd0;" horiz-adv-x="753" 
d="M320 0h-282l117 740h263q91 0 162.5 -44t113 -120t41.5 -174q0 -89 -30 -162.5t-85.5 -127.5t-131.5 -83t-168 -29zM300 668l-95 -598l-62 76h185q73 0 127 31.5t83.5 89t29.5 135.5q0 58 -22 101t-62.5 67t-94.5 24h-175zM22 306l20 128h365l-20 -128h-365z" />
    <glyph glyph-name="Ntilde" unicode="&#xd1;" horiz-adv-x="772" 
d="M193 0h-155l117 740h155l268 -551h-48l87 551h155l-117 -740h-155l-268 550h48zM377 792h-86q3 73 36.5 116.5t85.5 43.5q27 0 45 -9.5t32 -21.5t29 -21.5t34 -9.5q22 0 31.5 15.5t13.5 46.5h87q-5 -78 -36.5 -119t-86.5 -41q-28 0 -46.5 9.5t-33 21.5t-28 21.5
t-31.5 9.5q-21 0 -31 -14.5t-15 -47.5z" />
    <glyph glyph-name="Ograve" unicode="&#xd2;" horiz-adv-x="785" 
d="M770 427q0 -93 -30 -173t-83.5 -139.5t-125.5 -93t-157 -33.5q-96 0 -168.5 41t-113 114t-40.5 169q0 93 29.5 173t83 140t125.5 93.5t157 33.5q97 0 169.5 -41t113 -114t40.5 -170zM603 411q0 60 -20 102t-58 64.5t-92 22.5q-46 0 -85 -20.5t-68 -57.5t-45 -86.5
t-16 -106.5q0 -58 20 -100.5t58.5 -65t91.5 -22.5q46 0 85 20.5t68 57.5t45 86t16 106zM531 790h-101l-82 163h128z" />
    <glyph glyph-name="Oacute" unicode="&#xd3;" horiz-adv-x="785" 
d="M770 427q0 -93 -30 -173t-83.5 -139.5t-125.5 -93t-157 -33.5q-96 0 -168.5 41t-113 114t-40.5 169q0 93 29.5 173t83 140t125.5 93.5t157 33.5q97 0 169.5 -41t113 -114t40.5 -170zM603 411q0 60 -20 102t-58 64.5t-92 22.5q-46 0 -85 -20.5t-68 -57.5t-45 -86.5
t-16 -106.5q0 -58 20 -100.5t58.5 -65t91.5 -22.5q46 0 85 20.5t68 57.5t45 86t16 106zM669 953l-134 -163h-112l108 163h138z" />
    <glyph glyph-name="Ocircumflex" unicode="&#xd4;" horiz-adv-x="785" 
d="M770 427q0 -93 -30 -173t-83.5 -139.5t-125.5 -93t-157 -33.5q-96 0 -168.5 41t-113 114t-40.5 169q0 93 29.5 173t83 140t125.5 93.5t157 33.5q97 0 169.5 -41t113 -114t40.5 -170zM603 411q0 60 -20 102t-58 64.5t-92 22.5q-46 0 -85 -20.5t-68 -57.5t-45 -86.5
t-16 -106.5q0 -58 20 -100.5t58.5 -65t91.5 -22.5q46 0 85 20.5t68 57.5t45 86t16 106zM429 790h-117l123 173h144l69 -173h-107l-40 104z" />
    <glyph glyph-name="Otilde" unicode="&#xd5;" horiz-adv-x="785" 
d="M770 427q0 -93 -30 -173t-83.5 -139.5t-125.5 -93t-157 -33.5q-96 0 -168.5 41t-113 114t-40.5 169q0 93 29.5 173t83 140t125.5 93.5t157 33.5q97 0 169.5 -41t113 -114t40.5 -170zM603 411q0 60 -20 102t-58 64.5t-92 22.5q-46 0 -85 -20.5t-68 -57.5t-45 -86.5
t-16 -106.5q0 -58 20 -100.5t58.5 -65t91.5 -22.5q46 0 85 20.5t68 57.5t45 86t16 106zM381 792h-86q3 73 36.5 116.5t85.5 43.5q27 0 45 -9.5t32 -21.5t29 -21.5t34 -9.5q22 0 31.5 15.5t13.5 46.5h87q-5 -78 -36.5 -119t-86.5 -41q-28 0 -46.5 9.5t-33 21.5t-28 21.5
t-31.5 9.5q-21 0 -31 -14.5t-15 -47.5z" />
    <glyph glyph-name="Odieresis" unicode="&#xd6;" horiz-adv-x="785" 
d="M770 427q0 -93 -30 -173t-83.5 -139.5t-125.5 -93t-157 -33.5q-96 0 -168.5 41t-113 114t-40.5 169q0 93 29.5 173t83 140t125.5 93.5t157 33.5q97 0 169.5 -41t113 -114t40.5 -170zM603 411q0 60 -20 102t-58 64.5t-92 22.5q-46 0 -85 -20.5t-68 -57.5t-45 -86.5
t-16 -106.5q0 -58 20 -100.5t58.5 -65t91.5 -22.5q46 0 85 20.5t68 57.5t45 86t16 106zM385 797q-29 0 -46.5 17.5t-17.5 46.5q0 37 26 63t62 26q29 0 46.5 -18t17.5 -47q0 -35 -26.5 -61.5t-61.5 -26.5zM577 797q-29 0 -46 17.5t-17 46.5q0 37 26 63t61 26q29 0 46.5 -18
t17.5 -47q0 -35 -26 -61.5t-62 -26.5z" />
    <glyph glyph-name="multiply" unicode="&#xd7;" 
d="M606 491l-445 -397l-81 88l445 397zM232 579l318 -408l-95 -76l-318 408z" />
    <glyph glyph-name="Oslash" unicode="&#xd8;" horiz-adv-x="785" 
d="M770 427q0 -93 -30 -173t-83.5 -139.5t-125.5 -93t-157 -33.5q-96 0 -168.5 41t-113 114t-40.5 169q0 93 29.5 173t83 140t125.5 93.5t157 33.5q97 0 169.5 -41t113 -114t40.5 -170zM603 411q0 60 -20 102t-58 64.5t-92 22.5q-46 0 -85 -20.5t-68 -57.5t-45 -86.5
t-16 -106.5q0 -58 20 -100.5t58.5 -65t91.5 -22.5q46 0 85 20.5t68 57.5t45 86t16 106zM816 740l-657 -739h-148l664 739h141z" />
    <glyph glyph-name="Ugrave" unicode="&#xd9;" horiz-adv-x="740" 
d="M78 287l72 453h156l-71 -453q-11 -70 19.5 -109t97.5 -39q68 0 111.5 39t54.5 109l72 453h156l-74 -464q-22 -135 -108 -211.5t-227 -76.5q-84 0 -147.5 37.5t-94.5 105t-17 156.5zM507 790h-101l-82 163h128z" />
    <glyph glyph-name="Uacute" unicode="&#xda;" horiz-adv-x="740" 
d="M78 287l72 453h156l-71 -453q-11 -70 19.5 -109t97.5 -39q68 0 111.5 39t54.5 109l72 453h156l-74 -464q-22 -135 -108 -211.5t-227 -76.5q-84 0 -147.5 37.5t-94.5 105t-17 156.5zM645 953l-134 -163h-112l108 163h138z" />
    <glyph glyph-name="Ucircumflex" unicode="&#xdb;" horiz-adv-x="740" 
d="M78 287l72 453h156l-71 -453q-11 -70 19.5 -109t97.5 -39q68 0 111.5 39t54.5 109l72 453h156l-74 -464q-22 -135 -108 -211.5t-227 -76.5q-84 0 -147.5 37.5t-94.5 105t-17 156.5zM405 790h-117l123 173h144l69 -173h-107l-40 104z" />
    <glyph glyph-name="Udieresis" unicode="&#xdc;" horiz-adv-x="740" 
d="M78 287l72 453h156l-71 -453q-11 -70 19.5 -109t97.5 -39q68 0 111.5 39t54.5 109l72 453h156l-74 -464q-22 -135 -108 -211.5t-227 -76.5q-84 0 -147.5 37.5t-94.5 105t-17 156.5zM361 797q-29 0 -46.5 17.5t-17.5 46.5q0 37 26 63t62 26q29 0 46.5 -18t17.5 -47
q0 -35 -26.5 -61.5t-61.5 -26.5zM553 797q-29 0 -46 17.5t-17 46.5q0 37 26 63t61 26q29 0 46.5 -18t17.5 -47q0 -35 -26 -61.5t-62 -26.5z" />
    <glyph glyph-name="Yacute" unicode="&#xdd;" horiz-adv-x="664" 
d="M259 282l-171 458h165l86 -245q5 -14 9.5 -28.5t7.5 -30.5q7 15 15.5 29.5t18.5 30.5l164 244h178l-317 -458l-45 -282h-156zM600 953l-134 -163h-112l108 163h138z" />
    <glyph glyph-name="Thorn" unicode="&#xde;" horiz-adv-x="639" 
d="M311 740l-117 -740h-156l117 740h156zM349 135h-175l22 140h141q64 0 99 27t35 76q0 45 -27 67t-78 22h-137l22 140h156q69 0 120 -25.5t78.5 -73t27.5 -114.5q0 -76 -36 -134.5t-100 -91.5t-148 -33z" />
    <glyph glyph-name="germandbls" unicode="&#xdf;" horiz-adv-x="601" 
d="M167 0h-149l81 514q17 110 80.5 175t187.5 65q66 0 113.5 -24t73 -65t25.5 -91q0 -73 -37 -114.5t-87 -59.5l3 21q63 -23 92 -70.5t29 -97.5q0 -78 -33 -135t-94.5 -87.5t-146.5 -30.5q-26 0 -50.5 1.5t-39.5 5.5l21 129h68q37 0 64.5 13t43.5 38.5t16 62.5
q0 49 -33 72.5t-80 23.5h-43l19 119h43q29 0 50.5 11.5t34 33t12.5 49.5q0 35 -22 53.5t-54 18.5q-46 0 -71.5 -27t-33.5 -74z" />
    <glyph glyph-name="agrave" unicode="&#xe0;" horiz-adv-x="553" 
d="M173 -13q-68 0 -110.5 38.5t-42.5 100.5q0 78 53 123.5t153 53.5l140 12l1 9q5 38 -16 57.5t-63 19.5q-85 0 -96 -72h-130q14 89 76.5 137.5t165.5 48.5q110 0 165.5 -60t38.5 -162l-47 -293h-131l1 67q-17 -36 -61 -58t-97 -22zM233 98q47 0 78 24.5t37 66.5l4 27
l-80 -7q-55 -4 -78 -20t-23 -45q0 -22 16 -34t46 -12zM385 560h-101l-82 163h128z" />
    <glyph glyph-name="aacute" unicode="&#xe1;" horiz-adv-x="553" 
d="M173 -13q-68 0 -110.5 38.5t-42.5 100.5q0 78 53 123.5t153 53.5l140 12l1 9q5 38 -16 57.5t-63 19.5q-85 0 -96 -72h-130q14 89 76.5 137.5t165.5 48.5q110 0 165.5 -60t38.5 -162l-47 -293h-131l1 67q-17 -36 -61 -58t-97 -22zM233 98q47 0 78 24.5t37 66.5l4 27
l-80 -7q-55 -4 -78 -20t-23 -45q0 -22 16 -34t46 -12zM523 723l-134 -163h-112l108 163h138z" />
    <glyph glyph-name="acircumflex" unicode="&#xe2;" horiz-adv-x="553" 
d="M173 -13q-68 0 -110.5 38.5t-42.5 100.5q0 78 53 123.5t153 53.5l140 12l1 9q5 38 -16 57.5t-63 19.5q-85 0 -96 -72h-130q14 89 76.5 137.5t165.5 48.5q110 0 165.5 -60t38.5 -162l-47 -293h-131l1 67q-17 -36 -61 -58t-97 -22zM233 98q47 0 78 24.5t37 66.5l4 27
l-80 -7q-55 -4 -78 -20t-23 -45q0 -22 16 -34t46 -12zM283 560h-117l123 173h144l69 -173h-107l-40 104z" />
    <glyph glyph-name="atilde" unicode="&#xe3;" horiz-adv-x="553" 
d="M173 -13q-68 0 -110.5 38.5t-42.5 100.5q0 78 53 123.5t153 53.5l140 12l1 9q5 38 -16 57.5t-63 19.5q-85 0 -96 -72h-130q14 89 76.5 137.5t165.5 48.5q110 0 165.5 -60t38.5 -162l-47 -293h-131l1 67q-17 -36 -61 -58t-97 -22zM233 98q47 0 78 24.5t37 66.5l4 27
l-80 -7q-55 -4 -78 -20t-23 -45q0 -22 16 -34t46 -12zM235 562h-86q3 73 36.5 116.5t85.5 43.5q27 0 45 -9.5t32 -21.5t29 -21.5t34 -9.5q22 0 31.5 15.5t13.5 46.5h87q-5 -78 -36.5 -119t-86.5 -41q-28 0 -46.5 9.5t-33 21.5t-28 21.5t-31.5 9.5q-21 0 -31 -14.5t-15 -47.5
z" />
    <glyph glyph-name="adieresis" unicode="&#xe4;" horiz-adv-x="553" 
d="M173 -13q-68 0 -110.5 38.5t-42.5 100.5q0 78 53 123.5t153 53.5l140 12l1 9q5 38 -16 57.5t-63 19.5q-85 0 -96 -72h-130q14 89 76.5 137.5t165.5 48.5q110 0 165.5 -60t38.5 -162l-47 -293h-131l1 67q-17 -36 -61 -58t-97 -22zM233 98q47 0 78 24.5t37 66.5l4 27
l-80 -7q-55 -4 -78 -20t-23 -45q0 -22 16 -34t46 -12zM239 567q-29 0 -46.5 17.5t-17.5 46.5q0 37 26 63t62 26q29 0 46.5 -18t17.5 -47q0 -35 -26.5 -61.5t-61.5 -26.5zM431 567q-29 0 -46 17.5t-17 46.5q0 37 26 63t61 26q29 0 46.5 -18t17.5 -47q0 -35 -26 -61.5
t-62 -26.5z" />
    <glyph glyph-name="aring" unicode="&#xe5;" horiz-adv-x="553" 
d="M173 -13q-68 0 -110.5 38.5t-42.5 100.5q0 78 53 123.5t153 53.5l140 12l1 9q5 38 -16 57.5t-63 19.5q-85 0 -96 -72h-130q14 89 76.5 137.5t165.5 48.5q110 0 165.5 -60t38.5 -162l-47 -293h-131l1 67q-17 -36 -61 -58t-97 -22zM233 98q47 0 78 24.5t37 66.5l4 27
l-80 -7q-55 -4 -78 -20t-23 -45q0 -22 16 -34t46 -12zM338 543q-55 0 -89.5 33t-34.5 85q0 45 20 80.5t55 56t78 20.5q55 0 90.5 -34t35.5 -87q0 -44 -20 -79t-55 -55t-80 -20zM346 619q29 0 47.5 20t18.5 51q0 23 -14.5 37.5t-37.5 14.5q-28 0 -46.5 -19.5t-18.5 -50.5
q0 -24 14 -38.5t37 -14.5z" />
    <glyph glyph-name="ae" unicode="&#xe6;" horiz-adv-x="878" 
d="M20 126q0 78 52.5 119.5t152.5 49.5l140 12l2 17q5 38 -16 57.5t-63 19.5q-85 0 -96 -72h-130q14 89 76.5 137.5t165.5 48.5q110 0 155.5 -60t28.5 -162l-85 -185q-28 -52 -82 -86.5t-138 -34.5q-76 0 -119.5 38.5t-43.5 100.5zM171 144q0 -24 17 -35t45 -11
q47 0 77.5 24.5t37.5 66.5l3 19l-80 -7q-55 -4 -77.5 -17t-22.5 -40zM840 212l-423 -2l16 93h273q7 41 -16 65.5t-69 24.5q-38 0 -68.5 -22.5t-48 -61t-17.5 -86.5q0 -57 24.5 -85t75.5 -28q35 0 61.5 15t40.5 43h146q-17 -53 -55 -94t-90 -63.5t-111 -22.5q-74 0 -123 26.5
t-73 76.5t-24 121q0 86 34 154.5t95 108t142 39.5q78 0 130.5 -32.5t75.5 -91.5t10 -139z" />
    <glyph glyph-name="ccedilla" unicode="&#xe7;" horiz-adv-x="557" 
d="M28 212q0 86 37.5 154.5t102 108t145.5 39.5q107 0 167.5 -56t60.5 -154h-150q-2 38 -24.5 58t-62.5 20q-35 0 -63.5 -21t-44.5 -56.5t-16 -81.5q0 -49 23.5 -76t66.5 -27q35 0 62 21t40 58h152q-15 -63 -52.5 -110.5t-91.5 -74t-118 -26.5q-74 0 -126.5 26.5t-80 76.5
t-27.5 121zM134 -211l10 63q17 -8 33.5 -13.5t34.5 -5.5q28 0 45 11.5t17 32.5q0 32 -38 32q-13 0 -25.5 -2t-23.5 -6l-8 38l65 103l42 -1l-5 -32l-47 -71l-5 7q8 6 19 9.5t28 3.5q26 0 50.5 -18.5t24.5 -56.5q0 -52 -36.5 -82.5t-97.5 -30.5q-25 0 -47 6t-36 13z" />
    <glyph glyph-name="egrave" unicode="&#xe8;" horiz-adv-x="561" 
d="M262 -12q-74 0 -126.5 26.5t-80 76.5t-27.5 121q0 86 37.5 154.5t102 108t145.5 39.5q78 0 130.5 -32.5t75.5 -91.5t10 -139l-6 -39l-423 -2l16 93h273q7 41 -16 65.5t-69 24.5q-38 0 -68.5 -22.5t-48 -61t-17.5 -86.5q0 -57 24.5 -85t75.5 -28q35 0 61.5 15t40.5 43h146
q-17 -53 -55 -94t-90 -63.5t-111 -22.5zM368 560h-101l-82 163h128z" />
    <glyph glyph-name="eacute" unicode="&#xe9;" horiz-adv-x="561" 
d="M262 -12q-74 0 -126.5 26.5t-80 76.5t-27.5 121q0 86 37.5 154.5t102 108t145.5 39.5q78 0 130.5 -32.5t75.5 -91.5t10 -139l-6 -39l-423 -2l16 93h273q7 41 -16 65.5t-69 24.5q-38 0 -68.5 -22.5t-48 -61t-17.5 -86.5q0 -57 24.5 -85t75.5 -28q35 0 61.5 15t40.5 43h146
q-17 -53 -55 -94t-90 -63.5t-111 -22.5zM506 723l-134 -163h-112l108 163h138z" />
    <glyph glyph-name="ecircumflex" unicode="&#xea;" horiz-adv-x="561" 
d="M262 -12q-74 0 -126.5 26.5t-80 76.5t-27.5 121q0 86 37.5 154.5t102 108t145.5 39.5q78 0 130.5 -32.5t75.5 -91.5t10 -139l-6 -39l-423 -2l16 93h273q7 41 -16 65.5t-69 24.5q-38 0 -68.5 -22.5t-48 -61t-17.5 -86.5q0 -57 24.5 -85t75.5 -28q35 0 61.5 15t40.5 43h146
q-17 -53 -55 -94t-90 -63.5t-111 -22.5zM266 560h-117l123 173h144l69 -173h-107l-40 104z" />
    <glyph glyph-name="edieresis" unicode="&#xeb;" horiz-adv-x="561" 
d="M262 -12q-74 0 -126.5 26.5t-80 76.5t-27.5 121q0 86 37.5 154.5t102 108t145.5 39.5q78 0 130.5 -32.5t75.5 -91.5t10 -139l-6 -39l-423 -2l16 93h273q7 41 -16 65.5t-69 24.5q-38 0 -68.5 -22.5t-48 -61t-17.5 -86.5q0 -57 24.5 -85t75.5 -28q35 0 61.5 15t40.5 43h146
q-17 -53 -55 -94t-90 -63.5t-111 -22.5zM222 567q-29 0 -46.5 17.5t-17.5 46.5q0 37 26 63t62 26q29 0 46.5 -18t17.5 -47q0 -35 -26.5 -61.5t-61.5 -26.5zM414 567q-29 0 -46 17.5t-17 46.5q0 37 26 63t61 26q29 0 46.5 -18t17.5 -47q0 -35 -26 -61.5t-62 -26.5z" />
    <glyph glyph-name="igrave" unicode="&#xec;" horiz-adv-x="264" 
d="M18 0l79 500h149l-79 -500h-149zM233 560h-101l-82 163h128z" />
    <glyph glyph-name="iacute" unicode="&#xed;" horiz-adv-x="264" 
d="M18 0l79 500h149l-79 -500h-149zM371 723l-134 -163h-112l108 163h138z" />
    <glyph glyph-name="icircumflex" unicode="&#xee;" horiz-adv-x="264" 
d="M18 0l79 500h149l-79 -500h-149zM131 560h-117l123 173h144l69 -173h-107l-40 104z" />
    <glyph glyph-name="idieresis" unicode="&#xef;" horiz-adv-x="264" 
d="M18 0l79 500h149l-79 -500h-149zM87 567q-29 0 -46.5 17.5t-17.5 46.5q0 37 26 63t62 26q29 0 46.5 -18t17.5 -47q0 -35 -26.5 -61.5t-61.5 -26.5zM279 567q-29 0 -46 17.5t-17 46.5q0 37 26 63t61 26q29 0 46.5 -18t17.5 -47q0 -35 -26 -61.5t-62 -26.5z" />
    <glyph glyph-name="eth" unicode="&#xf0;" horiz-adv-x="594" 
d="M28 212q0 59 21.5 110t60 89t89 59.5t108.5 21.5q43 0 85 -14t64 -49l-16 3q-10 40 -30 90.5t-48 106.5q-16 32 -34.5 60.5t-44.5 64.5h153q17 -24 30 -43t20 -33q42 -76 64.5 -159.5t22.5 -165.5q0 -109 -36 -191t-102 -127.5t-156 -45.5q-79 0 -135.5 28.5t-86 79
t-29.5 115.5zM179 220q0 -39 24 -70t74 -31q39 0 69.5 18.5t48 50.5t17.5 72q0 41 -25.5 71.5t-78.5 30.5q-36 0 -65.5 -19t-46.5 -51t-17 -72zM252 541l-28 83l329 108l27 -84z" />
    <glyph glyph-name="ntilde" unicode="&#xf1;" horiz-adv-x="594" 
d="M167 0h-149l79 500h140l2 -54q32 38 65 54t78 16q56 0 97 -28t61 -75.5t11 -104.5l-49 -308h-149l43 272q8 50 -13 80t-65 30q-43 0 -71.5 -28t-36.5 -81zM260 562h-86q3 73 36.5 116.5t85.5 43.5q27 0 45 -9.5t32 -21.5t29 -21.5t34 -9.5q22 0 31.5 15.5t13.5 46.5h87
q-5 -78 -36.5 -119t-86.5 -41q-28 0 -46.5 9.5t-33 21.5t-28 21.5t-31.5 9.5q-21 0 -31 -14.5t-15 -47.5z" />
    <glyph glyph-name="ograve" unicode="&#xf2;" horiz-adv-x="604" 
d="M28 215q0 63 23 117.5t63.5 95t95 63.5t117.5 23q75 0 131 -28.5t87 -79.5t31 -119q0 -63 -23 -117.5t-63.5 -95t-95 -63.5t-117.5 -23q-74 0 -130.5 28.5t-87.5 79.5t-31 119zM180 228q0 -49 28 -79t76 -30q39 0 70.5 20.5t50.5 56t19 78.5q0 49 -28 79t-76 30
q-38 0 -70 -20.5t-51 -55.5t-19 -79zM402 560h-101l-82 163h128z" />
    <glyph glyph-name="oacute" unicode="&#xf3;" horiz-adv-x="604" 
d="M28 215q0 63 23 117.5t63.5 95t95 63.5t117.5 23q75 0 131 -28.5t87 -79.5t31 -119q0 -63 -23 -117.5t-63.5 -95t-95 -63.5t-117.5 -23q-74 0 -130.5 28.5t-87.5 79.5t-31 119zM180 228q0 -49 28 -79t76 -30q39 0 70.5 20.5t50.5 56t19 78.5q0 49 -28 79t-76 30
q-38 0 -70 -20.5t-51 -55.5t-19 -79zM540 723l-134 -163h-112l108 163h138z" />
    <glyph glyph-name="ocircumflex" unicode="&#xf4;" horiz-adv-x="604" 
d="M28 215q0 63 23 117.5t63.5 95t95 63.5t117.5 23q75 0 131 -28.5t87 -79.5t31 -119q0 -63 -23 -117.5t-63.5 -95t-95 -63.5t-117.5 -23q-74 0 -130.5 28.5t-87.5 79.5t-31 119zM180 228q0 -49 28 -79t76 -30q39 0 70.5 20.5t50.5 56t19 78.5q0 49 -28 79t-76 30
q-38 0 -70 -20.5t-51 -55.5t-19 -79zM300 560h-117l123 173h144l69 -173h-107l-40 104z" />
    <glyph glyph-name="otilde" unicode="&#xf5;" horiz-adv-x="604" 
d="M28 215q0 63 23 117.5t63.5 95t95 63.5t117.5 23q75 0 131 -28.5t87 -79.5t31 -119q0 -63 -23 -117.5t-63.5 -95t-95 -63.5t-117.5 -23q-74 0 -130.5 28.5t-87.5 79.5t-31 119zM180 228q0 -49 28 -79t76 -30q39 0 70.5 20.5t50.5 56t19 78.5q0 49 -28 79t-76 30
q-38 0 -70 -20.5t-51 -55.5t-19 -79zM252 562h-86q3 73 36.5 116.5t85.5 43.5q27 0 45 -9.5t32 -21.5t29 -21.5t34 -9.5q22 0 31.5 15.5t13.5 46.5h87q-5 -78 -36.5 -119t-86.5 -41q-28 0 -46.5 9.5t-33 21.5t-28 21.5t-31.5 9.5q-21 0 -31 -14.5t-15 -47.5z" />
    <glyph glyph-name="odieresis" unicode="&#xf6;" horiz-adv-x="604" 
d="M28 215q0 63 23 117.5t63.5 95t95 63.5t117.5 23q75 0 131 -28.5t87 -79.5t31 -119q0 -63 -23 -117.5t-63.5 -95t-95 -63.5t-117.5 -23q-74 0 -130.5 28.5t-87.5 79.5t-31 119zM180 228q0 -49 28 -79t76 -30q39 0 70.5 20.5t50.5 56t19 78.5q0 49 -28 79t-76 30
q-38 0 -70 -20.5t-51 -55.5t-19 -79zM256 567q-29 0 -46.5 17.5t-17.5 46.5q0 37 26 63t62 26q29 0 46.5 -18t17.5 -47q0 -35 -26.5 -61.5t-61.5 -26.5zM448 567q-29 0 -46 17.5t-17 46.5q0 37 26 63t61 26q29 0 46.5 -18t17.5 -47q0 -35 -26 -61.5t-62 -26.5z" />
    <glyph glyph-name="divide" unicode="&#xf7;" 
d="M357 413q-31 0 -50.5 20t-19.5 48q0 24 13.5 45.5t35.5 34.5t46 13q29 0 49 -20t20 -49q0 -23 -13.5 -44t-35 -34.5t-45.5 -13.5zM297 37q-30 0 -50 20.5t-20 48.5q0 24 14 45t36 34t46 13q29 0 48.5 -20t19.5 -49q0 -23 -13.5 -44t-35 -34.5t-45.5 -13.5zM104 365h489
l-20 -120h-489z" />
    <glyph glyph-name="oslash" unicode="&#xf8;" horiz-adv-x="604" 
d="M28 215q0 63 23 117.5t63.5 95t95 63.5t117.5 23q75 0 131 -28.5t87 -79.5t31 -119q0 -63 -23 -117.5t-63.5 -95t-95 -63.5t-117.5 -23q-74 0 -130.5 28.5t-87.5 79.5t-31 119zM180 228q0 -49 28 -79t76 -30q39 0 70.5 20.5t50.5 56t19 78.5q0 49 -28 79t-76 30
q-38 0 -70 -20.5t-51 -55.5t-19 -79zM594 546l-453 -595h-133l459 595h127z" />
    <glyph glyph-name="ugrave" unicode="&#xf9;" horiz-adv-x="588" 
d="M421 500h149l-79 -500h-140l-2 54q-31 -35 -64 -51t-78 -16q-55 0 -95.5 28.5t-59 75.5t-9.5 104l49 305h149l-43 -269q-8 -50 12.5 -80t60.5 -30q44 0 71.5 27t35.5 79zM408 560h-101l-82 163h128z" />
    <glyph glyph-name="uacute" unicode="&#xfa;" horiz-adv-x="588" 
d="M421 500h149l-79 -500h-140l-2 54q-31 -35 -64 -51t-78 -16q-55 0 -95.5 28.5t-59 75.5t-9.5 104l49 305h149l-43 -269q-8 -50 12.5 -80t60.5 -30q44 0 71.5 27t35.5 79zM546 723l-134 -163h-112l108 163h138z" />
    <glyph glyph-name="ucircumflex" unicode="&#xfb;" horiz-adv-x="588" 
d="M421 500h149l-79 -500h-140l-2 54q-31 -35 -64 -51t-78 -16q-55 0 -95.5 28.5t-59 75.5t-9.5 104l49 305h149l-43 -269q-8 -50 12.5 -80t60.5 -30q44 0 71.5 27t35.5 79zM306 560h-117l123 173h144l69 -173h-107l-40 104z" />
    <glyph glyph-name="udieresis" unicode="&#xfc;" horiz-adv-x="588" 
d="M421 500h149l-79 -500h-140l-2 54q-31 -35 -64 -51t-78 -16q-55 0 -95.5 28.5t-59 75.5t-9.5 104l49 305h149l-43 -269q-8 -50 12.5 -80t60.5 -30q44 0 71.5 27t35.5 79zM262 567q-29 0 -46.5 17.5t-17.5 46.5q0 37 26 63t62 26q29 0 46.5 -18t17.5 -47
q0 -35 -26.5 -61.5t-61.5 -26.5zM454 567q-29 0 -46 17.5t-17 46.5q0 37 26 63t61 26q29 0 46.5 -18t17.5 -47q0 -35 -26 -61.5t-62 -26.5z" />
    <glyph glyph-name="yacute" unicode="&#xfd;" horiz-adv-x="549" 
d="M194 500l76 -436l-91 -171l-135 607h150zM-60 -239l20 126h82q20 0 36.5 7t31 22.5t27.5 40.5l285 543h163l-344 -609q-37 -64 -83.5 -103.5t-120.5 -39.5q-28 0 -52 3.5t-45 9.5zM521 723l-134 -163h-112l108 163h138z" />
    <glyph glyph-name="thorn" unicode="&#xfe;" horiz-adv-x="627" 
d="M597 284q0 -88 -34 -154.5t-93 -104t-134 -37.5q-52 0 -97 22t-65 56l-45 -305h-149l157 992h149l-51 -314q27 35 66 55t91 20q59 0 105.5 -29t73 -81t26.5 -120zM448 274q0 49 -28 79t-76 30q-38 0 -70 -20.5t-51 -55.5t-19 -79q0 -49 28 -79t76 -30q39 0 70.5 20.5
t50.5 56t19 78.5z" />
    <glyph glyph-name="ydieresis" unicode="&#xff;" horiz-adv-x="549" 
d="M194 500l76 -436l-91 -171l-135 607h150zM-60 -239l20 126h82q20 0 36.5 7t31 22.5t27.5 40.5l285 543h163l-344 -609q-37 -64 -83.5 -103.5t-120.5 -39.5q-28 0 -52 3.5t-45 9.5zM237 567q-29 0 -46.5 17.5t-17.5 46.5q0 37 26 63t62 26q29 0 46.5 -18t17.5 -47
q0 -35 -26.5 -61.5t-61.5 -26.5zM429 567q-29 0 -46 17.5t-17 46.5q0 37 26 63t61 26q29 0 46.5 -18t17.5 -47q0 -35 -26 -61.5t-62 -26.5z" />
    <glyph glyph-name="Amacron" unicode="&#x100;" horiz-adv-x="688" 
d="M139 0h-170l376 740h153l141 -740h-160l-26 158h-236zM364 459l-81 -169h147l-28 169q-2 14 -5 35.5t-3 34.5q-4 -13 -12.5 -32.5t-17.5 -37.5zM294 817l16 102h283l-16 -102h-283z" />
    <glyph glyph-name="amacron" unicode="&#x101;" horiz-adv-x="553" 
d="M173 -13q-68 0 -110.5 38.5t-42.5 100.5q0 78 53 123.5t153 53.5l140 12l1 9q5 38 -16 57.5t-63 19.5q-85 0 -96 -72h-130q14 89 76.5 137.5t165.5 48.5q110 0 165.5 -60t38.5 -162l-47 -293h-131l1 67q-17 -36 -61 -58t-97 -22zM233 98q47 0 78 24.5t37 66.5l4 27
l-80 -7q-55 -4 -78 -20t-23 -45q0 -22 16 -34t46 -12zM197 587l16 102h283l-16 -102h-283z" />
    <glyph glyph-name="Abreve" unicode="&#x102;" horiz-adv-x="688" 
d="M139 0h-170l376 740h153l141 -740h-160l-26 158h-236zM364 459l-81 -169h147l-28 169q-2 14 -5 35.5t-3 34.5q-4 -13 -12.5 -32.5t-17.5 -37.5zM515 955h105q-13 -80 -55.5 -127.5t-128.5 -47.5q-79 0 -119.5 47t-40.5 128h103q0 -37 16.5 -57t47.5 -20q32 0 49 20.5
t23 56.5z" />
    <glyph glyph-name="abreve" unicode="&#x103;" horiz-adv-x="553" 
d="M173 -13q-68 0 -110.5 38.5t-42.5 100.5q0 78 53 123.5t153 53.5l140 12l1 9q5 38 -16 57.5t-63 19.5q-85 0 -96 -72h-130q14 89 76.5 137.5t165.5 48.5q110 0 165.5 -60t38.5 -162l-47 -293h-131l1 67q-17 -36 -61 -58t-97 -22zM233 98q47 0 78 24.5t37 66.5l4 27
l-80 -7q-55 -4 -78 -20t-23 -45q0 -22 16 -34t46 -12zM418 725h105q-13 -80 -55.5 -127.5t-128.5 -47.5q-79 0 -119.5 47t-40.5 128h103q0 -37 16.5 -57t47.5 -20q32 0 49 20.5t23 56.5z" />
    <glyph glyph-name="Aogonek" unicode="&#x104;" horiz-adv-x="688" 
d="M139 0h-170l376 740h153l141 -740h-160l-26 158h-236zM364 459l-81 -169h147l-28 169q-2 14 -5 35.5t-3 34.5q-4 -13 -12.5 -32.5t-17.5 -37.5zM550 0h88q-42 -14 -66.5 -38t-24.5 -49q0 -13 9.5 -23t25.5 -10q5 0 14 1.5t18 5.5l-16 -96q-26 -10 -58 -10
q-46 0 -71.5 25.5t-25.5 62.5q0 42 29.5 78t77.5 53z" />
    <glyph glyph-name="aogonek" unicode="&#x105;" horiz-adv-x="553" 
d="M173 -13q-68 0 -110.5 38.5t-42.5 100.5q0 78 53 123.5t153 53.5l140 12l1 9q5 38 -16 57.5t-63 19.5q-85 0 -96 -72h-130q14 89 76.5 137.5t165.5 48.5q110 0 165.5 -60t38.5 -162l-47 -293h-131l1 67q-17 -36 -61 -58t-97 -22zM233 98q47 0 78 24.5t37 66.5l4 27
l-80 -7q-55 -4 -78 -20t-23 -45q0 -22 16 -34t46 -12zM372 0h88q-42 -14 -66.5 -38t-24.5 -49q0 -13 9.5 -23t25.5 -10q5 0 14 1.5t18 5.5l-16 -96q-26 -10 -58 -10q-46 0 -71.5 25.5t-25.5 62.5q0 42 29.5 78t77.5 53z" />
    <glyph glyph-name="Cacute" unicode="&#x106;" horiz-adv-x="766" 
d="M374 -12q-102 0 -173.5 41.5t-109.5 115t-38 168.5q0 96 30.5 176.5t85.5 139.5t129 91t162 32q92 0 158.5 -34t103 -95t39.5 -142h-167q-6 41 -27 67t-53.5 38.5t-73.5 12.5q-51 0 -91.5 -20.5t-69.5 -58t-44 -88t-15 -109.5q0 -54 19 -95t55 -64t86 -23q68 0 114 28
t71 92h172q-43 -134 -136 -203.5t-227 -69.5zM655 953l-134 -163h-112l108 163h138z" />
    <glyph glyph-name="cacute" unicode="&#x107;" horiz-adv-x="557" 
d="M28 212q0 86 37.5 154.5t102 108t145.5 39.5q107 0 167.5 -56t60.5 -154h-150q-2 38 -24.5 58t-62.5 20q-35 0 -63.5 -21t-44.5 -56.5t-16 -81.5q0 -49 23.5 -76t66.5 -27q35 0 62 21t40 58h152q-15 -63 -52.5 -110.5t-91.5 -74t-118 -26.5q-74 0 -126.5 26.5t-80 76.5
t-27.5 121zM521 723l-134 -163h-112l108 163h138z" />
    <glyph glyph-name="Ccircumflex" unicode="&#x108;" horiz-adv-x="766" 
d="M374 -12q-102 0 -173.5 41.5t-109.5 115t-38 168.5q0 96 30.5 176.5t85.5 139.5t129 91t162 32q92 0 158.5 -34t103 -95t39.5 -142h-167q-6 41 -27 67t-53.5 38.5t-73.5 12.5q-51 0 -91.5 -20.5t-69.5 -58t-44 -88t-15 -109.5q0 -54 19 -95t55 -64t86 -23q68 0 114 28
t71 92h172q-43 -134 -136 -203.5t-227 -69.5zM415 790h-117l123 173h144l69 -173h-107l-40 104z" />
    <glyph glyph-name="ccircumflex" unicode="&#x109;" horiz-adv-x="557" 
d="M28 212q0 86 37.5 154.5t102 108t145.5 39.5q107 0 167.5 -56t60.5 -154h-150q-2 38 -24.5 58t-62.5 20q-35 0 -63.5 -21t-44.5 -56.5t-16 -81.5q0 -49 23.5 -76t66.5 -27q35 0 62 21t40 58h152q-15 -63 -52.5 -110.5t-91.5 -74t-118 -26.5q-74 0 -126.5 26.5t-80 76.5
t-27.5 121zM281 560h-117l123 173h144l69 -173h-107l-40 104z" />
    <glyph glyph-name="Cdotaccent" unicode="&#x10a;" horiz-adv-x="766" 
d="M374 -12q-102 0 -173.5 41.5t-109.5 115t-38 168.5q0 96 30.5 176.5t85.5 139.5t129 91t162 32q92 0 158.5 -34t103 -95t39.5 -142h-167q-6 41 -27 67t-53.5 38.5t-73.5 12.5q-51 0 -91.5 -20.5t-69.5 -58t-44 -88t-15 -109.5q0 -54 19 -95t55 -64t86 -23q68 0 114 28
t71 92h172q-43 -134 -136 -203.5t-227 -69.5zM466 797q-31 0 -49 18.5t-18 49.5q0 38 28 65.5t65 27.5q30 0 48.5 -18.5t18.5 -49.5q0 -37 -27.5 -65t-65.5 -28z" />
    <glyph glyph-name="cdotaccent" unicode="&#x10b;" horiz-adv-x="557" 
d="M28 212q0 86 37.5 154.5t102 108t145.5 39.5q107 0 167.5 -56t60.5 -154h-150q-2 38 -24.5 58t-62.5 20q-35 0 -63.5 -21t-44.5 -56.5t-16 -81.5q0 -49 23.5 -76t66.5 -27q35 0 62 21t40 58h152q-15 -63 -52.5 -110.5t-91.5 -74t-118 -26.5q-74 0 -126.5 26.5t-80 76.5
t-27.5 121zM332 567q-31 0 -49 18.5t-18 49.5q0 38 28 65.5t65 27.5q30 0 48.5 -18.5t18.5 -49.5q0 -37 -27.5 -65t-65.5 -28z" />
    <glyph glyph-name="Ccaron" unicode="&#x10c;" horiz-adv-x="766" 
d="M374 -12q-102 0 -173.5 41.5t-109.5 115t-38 168.5q0 96 30.5 176.5t85.5 139.5t129 91t162 32q92 0 158.5 -34t103 -95t39.5 -142h-167q-6 41 -27 67t-53.5 38.5t-73.5 12.5q-51 0 -91.5 -20.5t-69.5 -58t-44 -88t-15 -109.5q0 -54 19 -95t55 -64t86 -23q68 0 114 28
t71 92h172q-43 -134 -136 -203.5t-227 -69.5zM401 792l-69 173h107l40 -104l72 104h117l-123 -173h-144z" />
    <glyph glyph-name="ccaron" unicode="&#x10d;" horiz-adv-x="557" 
d="M28 212q0 86 37.5 154.5t102 108t145.5 39.5q107 0 167.5 -56t60.5 -154h-150q-2 38 -24.5 58t-62.5 20q-35 0 -63.5 -21t-44.5 -56.5t-16 -81.5q0 -49 23.5 -76t66.5 -27q35 0 62 21t40 58h152q-15 -63 -52.5 -110.5t-91.5 -74t-118 -26.5q-74 0 -126.5 26.5t-80 76.5
t-27.5 121zM267 562l-69 173h107l40 -104l72 104h117l-123 -173h-144z" />
    <glyph glyph-name="Dcaron" unicode="&#x10e;" horiz-adv-x="753" 
d="M320 0h-282l117 740h263q91 0 162.5 -44t113 -120t41.5 -174q0 -89 -30 -162.5t-85.5 -127.5t-131.5 -83t-168 -29zM300 668l-95 -598l-62 76h185q73 0 127 31.5t83.5 89t29.5 135.5q0 58 -22 101t-62.5 67t-94.5 24h-175zM349 792l-69 173h107l40 -104l72 104h117
l-123 -173h-144z" />
    <glyph glyph-name="dcaron" unicode="&#x10f;" horiz-adv-x="628" 
d="M235 -12q-59 0 -105.5 29t-73 81t-26.5 120q0 88 34 154.5t93 104t134 37.5q52 0 97 -22t65 -56l48 318h149l-119 -754h-140l1 63q-27 -35 -66 -55t-91 -20zM283 119q39 0 70.5 20.5t50.5 56t19 78.5q0 49 -28 79t-76 30q-38 0 -70 -20.5t-51 -55.5t-19 -79q0 -49 28 -79
t76 -30zM666 560l31 194h119l-62 -194h-88z" />
    <glyph glyph-name="Dcroat" unicode="&#x110;" horiz-adv-x="753" 
d="M320 0h-282l117 740h263q91 0 162.5 -44t113 -120t41.5 -174q0 -89 -30 -162.5t-85.5 -127.5t-131.5 -83t-168 -29zM300 668l-95 -598l-62 76h185q73 0 127 31.5t83.5 89t29.5 135.5q0 58 -22 101t-62.5 67t-94.5 24h-175zM22 306l20 128h365l-20 -128h-365z" />
    <glyph glyph-name="dcroat" unicode="&#x111;" horiz-adv-x="628" 
d="M235 -12q-59 0 -105.5 29t-73 81t-26.5 120q0 88 34 154.5t93 104t134 37.5q52 0 97 -22t65 -56l48 318h149l-119 -754h-140l1 63q-27 -35 -66 -55t-91 -20zM283 119q39 0 70.5 20.5t50.5 56t19 78.5q0 49 -28 79t-76 30q-38 0 -70 -20.5t-51 -55.5t-19 -79q0 -49 28 -79
t76 -30zM334 664h364l-14 -87h-364z" />
    <glyph glyph-name="Emacron" unicode="&#x112;" horiz-adv-x="594" 
d="M498 0h-460l117 740h460l-23 -146h-348l51 42l-31 -194h269l-22 -138h-269l-32 -200l-37 42h348zM256 817l16 102h283l-16 -102h-283z" />
    <glyph glyph-name="emacron" unicode="&#x113;" horiz-adv-x="561" 
d="M262 -12q-74 0 -126.5 26.5t-80 76.5t-27.5 121q0 86 37.5 154.5t102 108t145.5 39.5q78 0 130.5 -32.5t75.5 -91.5t10 -139l-6 -39l-423 -2l16 93h273q7 41 -16 65.5t-69 24.5q-38 0 -68.5 -22.5t-48 -61t-17.5 -86.5q0 -57 24.5 -85t75.5 -28q35 0 61.5 15t40.5 43h146
q-17 -53 -55 -94t-90 -63.5t-111 -22.5zM180 587l16 102h283l-16 -102h-283z" />
    <glyph glyph-name="Ebreve" unicode="&#x114;" horiz-adv-x="594" 
d="M498 0h-460l117 740h460l-23 -146h-348l51 42l-31 -194h269l-22 -138h-269l-32 -200l-37 42h348zM477 955h105q-13 -80 -55.5 -127.5t-128.5 -47.5q-79 0 -119.5 47t-40.5 128h103q0 -37 16.5 -57t47.5 -20q32 0 49 20.5t23 56.5z" />
    <glyph glyph-name="ebreve" unicode="&#x115;" horiz-adv-x="561" 
d="M262 -12q-74 0 -126.5 26.5t-80 76.5t-27.5 121q0 86 37.5 154.5t102 108t145.5 39.5q78 0 130.5 -32.5t75.5 -91.5t10 -139l-6 -39l-423 -2l16 93h273q7 41 -16 65.5t-69 24.5q-38 0 -68.5 -22.5t-48 -61t-17.5 -86.5q0 -57 24.5 -85t75.5 -28q35 0 61.5 15t40.5 43h146
q-17 -53 -55 -94t-90 -63.5t-111 -22.5zM401 725h105q-13 -80 -55.5 -127.5t-128.5 -47.5q-79 0 -119.5 47t-40.5 128h103q0 -37 16.5 -57t47.5 -20q32 0 49 20.5t23 56.5z" />
    <glyph glyph-name="Edotaccent" unicode="&#x116;" horiz-adv-x="594" 
d="M498 0h-460l117 740h460l-23 -146h-348l51 42l-31 -194h269l-22 -138h-269l-32 -200l-37 42h348zM393 797q-31 0 -49 18.5t-18 49.5q0 38 28 65.5t65 27.5q30 0 48.5 -18.5t18.5 -49.5q0 -37 -27.5 -65t-65.5 -28z" />
    <glyph glyph-name="edotaccent" unicode="&#x117;" horiz-adv-x="561" 
d="M262 -12q-74 0 -126.5 26.5t-80 76.5t-27.5 121q0 86 37.5 154.5t102 108t145.5 39.5q78 0 130.5 -32.5t75.5 -91.5t10 -139l-6 -39l-423 -2l16 93h273q7 41 -16 65.5t-69 24.5q-38 0 -68.5 -22.5t-48 -61t-17.5 -86.5q0 -57 24.5 -85t75.5 -28q35 0 61.5 15t40.5 43h146
q-17 -53 -55 -94t-90 -63.5t-111 -22.5zM317 567q-31 0 -49 18.5t-18 49.5q0 38 28 65.5t65 27.5q30 0 48.5 -18.5t18.5 -49.5q0 -37 -27.5 -65t-65.5 -28z" />
    <glyph glyph-name="Eogonek" unicode="&#x118;" horiz-adv-x="594" 
d="M498 0h-460l117 740h460l-23 -146h-348l51 42l-31 -194h269l-22 -138h-269l-32 -200l-37 42h348zM409 0h88q-42 -14 -66.5 -38t-24.5 -49q0 -13 9.5 -23t25.5 -10q5 0 14 1.5t18 5.5l-16 -96q-26 -10 -58 -10q-46 0 -71.5 25.5t-25.5 62.5q0 42 29.5 78t77.5 53z" />
    <glyph glyph-name="eogonek" unicode="&#x119;" horiz-adv-x="561" 
d="M262 -12q-74 0 -126.5 26.5t-80 76.5t-27.5 121q0 86 37.5 154.5t102 108t145.5 39.5q78 0 130.5 -32.5t75.5 -91.5t10 -139l-6 -39l-423 -2l16 93h273q7 41 -16 65.5t-69 24.5q-38 0 -68.5 -22.5t-48 -61t-17.5 -86.5q0 -57 24.5 -85t75.5 -28q35 0 61.5 15t40.5 43h146
q-17 -53 -55 -94t-90 -63.5t-111 -22.5zM255 0h88q-42 -14 -66.5 -38t-24.5 -49q0 -13 9.5 -23t25.5 -10q5 0 14 1.5t18 5.5l-16 -96q-26 -10 -58 -10q-46 0 -71.5 25.5t-25.5 62.5q0 42 29.5 78t77.5 53z" />
    <glyph glyph-name="Ecaron" unicode="&#x11a;" horiz-adv-x="594" 
d="M498 0h-460l117 740h460l-23 -146h-348l51 42l-31 -194h269l-22 -138h-269l-32 -200l-37 42h348zM328 792l-69 173h107l40 -104l72 104h117l-123 -173h-144z" />
    <glyph glyph-name="ecaron" unicode="&#x11b;" horiz-adv-x="561" 
d="M262 -12q-74 0 -126.5 26.5t-80 76.5t-27.5 121q0 86 37.5 154.5t102 108t145.5 39.5q78 0 130.5 -32.5t75.5 -91.5t10 -139l-6 -39l-423 -2l16 93h273q7 41 -16 65.5t-69 24.5q-38 0 -68.5 -22.5t-48 -61t-17.5 -86.5q0 -57 24.5 -85t75.5 -28q35 0 61.5 15t40.5 43h146
q-17 -53 -55 -94t-90 -63.5t-111 -22.5zM252 562l-69 173h107l40 -104l72 104h117l-123 -173h-144z" />
    <glyph glyph-name="Gcircumflex" unicode="&#x11c;" horiz-adv-x="790" 
d="M440 602q-49 0 -89.5 -20.5t-69.5 -57.5t-45 -88t-16 -113q0 -58 21.5 -100t61.5 -64.5t95 -22.5q83 0 134.5 43t63.5 122l9 60l62 -75h-269l22 138h340l-67 -424h-134l5 103l14 -15q-13 -28 -44 -51t-72.5 -36t-87.5 -13q-98 0 -170 40t-111.5 113t-39.5 172
q0 96 30 176t85 139t129.5 91.5t162.5 32.5t153.5 -32t104 -91t43.5 -141h-169q-10 56 -48 85t-104 29zM412 790h-117l123 173h144l69 -173h-107l-40 104z" />
    <glyph glyph-name="gcircumflex" unicode="&#x11d;" horiz-adv-x="618" 
d="M29 219q0 62 21 115.5t58.5 93.5t86.5 63t106 23q53 0 96 -24.5t55 -62.5l-17 -10l25 83h140l-74 -469q-22 -144 -93 -215t-193 -71q-75 0 -132.5 29t-89.5 80.5t-32 119.5h147q3 -43 32.5 -68t77.5 -25q53 0 86 30.5t43 88.5l18 109l14 -13q-22 -42 -66 -66t-100 -24
q-60 0 -107.5 27.5t-74.5 75.5t-27 110zM181 233q0 -45 27 -73t70 -28q40 0 71 20t49 54.5t18 78.5q0 45 -26.5 71.5t-73.5 26.5q-38 0 -68.5 -20t-48.5 -54t-18 -76zM280 560h-117l123 173h144l69 -173h-107l-40 104z" />
    <glyph glyph-name="Gbreve" unicode="&#x11e;" horiz-adv-x="790" 
d="M440 602q-49 0 -89.5 -20.5t-69.5 -57.5t-45 -88t-16 -113q0 -58 21.5 -100t61.5 -64.5t95 -22.5q83 0 134.5 43t63.5 122l9 60l62 -75h-269l22 138h340l-67 -424h-134l5 103l14 -15q-13 -28 -44 -51t-72.5 -36t-87.5 -13q-98 0 -170 40t-111.5 113t-39.5 172
q0 96 30 176t85 139t129.5 91.5t162.5 32.5t153.5 -32t104 -91t43.5 -141h-169q-10 56 -48 85t-104 29zM547 955h105q-13 -80 -55.5 -127.5t-128.5 -47.5q-79 0 -119.5 47t-40.5 128h103q0 -37 16.5 -57t47.5 -20q32 0 49 20.5t23 56.5z" />
    <glyph glyph-name="gbreve" unicode="&#x11f;" horiz-adv-x="618" 
d="M29 219q0 62 21 115.5t58.5 93.5t86.5 63t106 23q53 0 96 -24.5t55 -62.5l-17 -10l25 83h140l-74 -469q-22 -144 -93 -215t-193 -71q-75 0 -132.5 29t-89.5 80.5t-32 119.5h147q3 -43 32.5 -68t77.5 -25q53 0 86 30.5t43 88.5l18 109l14 -13q-22 -42 -66 -66t-100 -24
q-60 0 -107.5 27.5t-74.5 75.5t-27 110zM181 233q0 -45 27 -73t70 -28q40 0 71 20t49 54.5t18 78.5q0 45 -26.5 71.5t-73.5 26.5q-38 0 -68.5 -20t-48.5 -54t-18 -76zM415 725h105q-13 -80 -55.5 -127.5t-128.5 -47.5q-79 0 -119.5 47t-40.5 128h103q0 -37 16.5 -57
t47.5 -20q32 0 49 20.5t23 56.5z" />
    <glyph glyph-name="Gdotaccent" unicode="&#x120;" horiz-adv-x="790" 
d="M440 602q-49 0 -89.5 -20.5t-69.5 -57.5t-45 -88t-16 -113q0 -58 21.5 -100t61.5 -64.5t95 -22.5q83 0 134.5 43t63.5 122l9 60l62 -75h-269l22 138h340l-67 -424h-134l5 103l14 -15q-13 -28 -44 -51t-72.5 -36t-87.5 -13q-98 0 -170 40t-111.5 113t-39.5 172
q0 96 30 176t85 139t129.5 91.5t162.5 32.5t153.5 -32t104 -91t43.5 -141h-169q-10 56 -48 85t-104 29zM463 797q-31 0 -49 18.5t-18 49.5q0 38 28 65.5t65 27.5q30 0 48.5 -18.5t18.5 -49.5q0 -37 -27.5 -65t-65.5 -28z" />
    <glyph glyph-name="gdotaccent" unicode="&#x121;" horiz-adv-x="618" 
d="M29 219q0 62 21 115.5t58.5 93.5t86.5 63t106 23q53 0 96 -24.5t55 -62.5l-17 -10l25 83h140l-74 -469q-22 -144 -93 -215t-193 -71q-75 0 -132.5 29t-89.5 80.5t-32 119.5h147q3 -43 32.5 -68t77.5 -25q53 0 86 30.5t43 88.5l18 109l14 -13q-22 -42 -66 -66t-100 -24
q-60 0 -107.5 27.5t-74.5 75.5t-27 110zM181 233q0 -45 27 -73t70 -28q40 0 71 20t49 54.5t18 78.5q0 45 -26.5 71.5t-73.5 26.5q-38 0 -68.5 -20t-48.5 -54t-18 -76zM331 567q-31 0 -49 18.5t-18 49.5q0 38 28 65.5t65 27.5q30 0 48.5 -18.5t18.5 -49.5q0 -37 -27.5 -65
t-65.5 -28z" />
    <glyph glyph-name="Gcommaaccent" unicode="&#x122;" horiz-adv-x="790" 
d="M440 602q-49 0 -89.5 -20.5t-69.5 -57.5t-45 -88t-16 -113q0 -58 21.5 -100t61.5 -64.5t95 -22.5q83 0 134.5 43t63.5 122l9 60l62 -75h-269l22 138h340l-67 -424h-134l5 103l14 -15q-13 -28 -44 -51t-72.5 -36t-87.5 -13q-98 0 -170 40t-111.5 113t-39.5 172
q0 96 30 176t85 139t129.5 91.5t162.5 32.5t153.5 -32t104 -91t43.5 -141h-169q-10 56 -48 85t-104 29zM364 -141l4 -12q-5 -5 -14 -8t-21 -3q-23 0 -36.5 14.5t-13.5 36.5q0 33 24 55.5t59 22.5q29 0 45.5 -19.5t16.5 -50.5q0 -43 -19.5 -76t-55 -50t-83.5 -11l7 46
q44 -5 65 9.5t22 45.5z" />
    <glyph glyph-name="gcommaaccent" unicode="&#x123;" horiz-adv-x="618" 
d="M29 219q0 62 21 115.5t58.5 93.5t86.5 63t106 23q53 0 96 -24.5t55 -62.5l-17 -10l25 83h140l-74 -469q-22 -144 -93 -215t-193 -71q-75 0 -132.5 29t-89.5 80.5t-32 119.5h147q3 -43 32.5 -68t77.5 -25q53 0 86 30.5t43 88.5l18 109l14 -13q-22 -42 -66 -66t-100 -24
q-60 0 -107.5 27.5t-74.5 75.5t-27 110zM181 233q0 -45 27 -73t70 -28q40 0 71 20t49 54.5t18 78.5q0 45 -26.5 71.5t-73.5 26.5q-38 0 -68.5 -20t-48.5 -54t-18 -76zM330 685l-5 12q7 6 16 8.5t18 2.5q24 0 37.5 -14t13.5 -37q0 -34 -23.5 -56.5t-58.5 -22.5
q-29 0 -45.5 20t-16.5 50q0 43 19.5 76.5t55.5 50.5t83 11l-7 -46q-42 5 -64.5 -8.5t-22.5 -46.5z" />
    <glyph glyph-name="Hbar" unicode="&#x126;" horiz-adv-x="751" 
d="M194 0h-156l117 740h156l-47 -295h284l47 295h156l-117 -740h-156l48 300h-284zM48 529l21 132h744l-21 -132h-744z" />
    <glyph glyph-name="hbar" unicode="&#x127;" horiz-adv-x="593" 
d="M166 0h-148l119 754h150l-49 -308q32 38 65 54t78 16q56 0 97 -28t61 -75.5t11 -104.5l-49 -308h-149l43 272q8 50 -13 80t-65 30q-43 0 -71.5 -28t-36.5 -81zM60 664h364l-14 -87h-364z" />
    <glyph glyph-name="Itilde" unicode="&#x128;" horiz-adv-x="311" 
d="M311 740l-117 -740h-156l117 740h156zM142 792h-86q3 73 36.5 116.5t85.5 43.5q27 0 45 -9.5t32 -21.5t29 -21.5t34 -9.5q22 0 31.5 15.5t13.5 46.5h87q-5 -78 -36.5 -119t-86.5 -41q-28 0 -46.5 9.5t-33 21.5t-28 21.5t-31.5 9.5q-21 0 -31 -14.5t-15 -47.5z" />
    <glyph glyph-name="itilde" unicode="&#x129;" horiz-adv-x="264" 
d="M18 0l79 500h149l-79 -500h-149zM83 562h-86q3 73 36.5 116.5t85.5 43.5q27 0 45 -9.5t32 -21.5t29 -21.5t34 -9.5q22 0 31.5 15.5t13.5 46.5h87q-5 -78 -36.5 -119t-86.5 -41q-28 0 -46.5 9.5t-33 21.5t-28 21.5t-31.5 9.5q-21 0 -31 -14.5t-15 -47.5z" />
    <glyph glyph-name="Imacron" unicode="&#x12a;" horiz-adv-x="311" 
d="M311 740l-117 -740h-156l117 740h156zM104 817l16 102h283l-16 -102h-283z" />
    <glyph glyph-name="imacron" unicode="&#x12b;" horiz-adv-x="264" 
d="M18 0l79 500h149l-79 -500h-149zM45 587l16 102h283l-16 -102h-283z" />
    <glyph glyph-name="Iogonek" unicode="&#x12e;" horiz-adv-x="311" 
d="M311 740l-117 -740h-156l117 740h156zM105 0h88q-42 -14 -66.5 -38t-24.5 -49q0 -13 9.5 -23t25.5 -10q5 0 14 1.5t18 5.5l-16 -96q-26 -10 -58 -10q-46 0 -71.5 25.5t-25.5 62.5q0 42 29.5 78t77.5 53z" />
    <glyph glyph-name="iogonek" unicode="&#x12f;" horiz-adv-x="264" 
d="M18 0l79 500h149l-79 -500h-149zM78 0h88q-42 -14 -66.5 -38t-24.5 -49q0 -13 9.5 -23t25.5 -10q5 0 14 1.5t18 5.5l-16 -96q-26 -10 -58 -10q-46 0 -71.5 25.5t-25.5 62.5q0 42 29.5 78t77.5 53zM183 580q-31 0 -51.5 20.5t-20.5 51.5q0 26 14 48.5t37 36.5t49 14
q32 0 52 -20.5t20 -51.5q0 -25 -14 -48t-37 -37t-49 -14z" />
    <glyph glyph-name="Idotaccent" unicode="&#x130;" horiz-adv-x="311" 
d="M311 740l-117 -740h-156l117 740h156zM241 797q-31 0 -49 18.5t-18 49.5q0 38 28 65.5t65 27.5q30 0 48.5 -18.5t18.5 -49.5q0 -37 -27.5 -65t-65.5 -28z" />
    <glyph glyph-name="dotlessi" unicode="&#x131;" horiz-adv-x="264" 
d="M18 0l79 500h149l-79 -500h-149z" />
    <glyph glyph-name="Jcircumflex" unicode="&#x134;" horiz-adv-x="565" 
d="M17 213l5 50h151l-5 -50q-4 -37 16 -58.5t59 -21.5q40 0 61 20.5t28 63.5l83 523h156l-85 -533q-34 -220 -250 -220q-74 0 -125.5 28t-76 78.5t-17.5 119.5zM450 790h-117l123 173h144l69 -173h-107l-40 104z" />
    <glyph glyph-name="jcircumflex" unicode="&#x135;" horiz-adv-x="262" 
d="M-124 -242l37 132q11 -4 20 -5t19 -1q26 0 38.5 15.5t17.5 50.5l87 550h149l-90 -569q-15 -93 -63 -140t-127 -47q-25 0 -45 3.5t-43 10.5zM130 560h-117l123 173h144l69 -173h-107l-40 104z" />
    <glyph glyph-name="Kcommaaccent" unicode="&#x136;" horiz-adv-x="695" 
d="M760 740l-590 -648l37 247l361 401h192zM311 740l-117 -740h-156l117 740h156zM357 298l113 138l175 -436h-173zM307 -141l4 -12q-5 -5 -14 -8t-21 -3q-23 0 -36.5 14.5t-13.5 36.5q0 33 24 55.5t59 22.5q29 0 45.5 -19.5t16.5 -50.5q0 -43 -19.5 -76t-55 -50t-83.5 -11
l7 46q44 -5 65 9.5t22 45.5z" />
    <glyph glyph-name="kcommaaccent" unicode="&#x137;" horiz-adv-x="560" 
d="M168 0h-149l119 754h149l-68 -433l186 179h189l-222 -211l127 -289h-161l-82 190l-68 -64zM232 -141l4 -12q-5 -5 -14 -8t-21 -3q-23 0 -36.5 14.5t-13.5 36.5q0 33 24 55.5t59 22.5q29 0 45.5 -19.5t16.5 -50.5q0 -43 -19.5 -76t-55 -50t-83.5 -11l7 46q44 -5 65 9.5
t22 45.5z" />
    <glyph glyph-name="Lacute" unicode="&#x139;" horiz-adv-x="547" 
d="M311 740l-117 -740h-156l117 740h156zM66 0l23 146h416l-23 -146h-416zM428 934l-134 -163h-112l108 163h138z" />
    <glyph glyph-name="lacute" unicode="&#x13a;" horiz-adv-x="266" 
d="M168 0h-149l119 754h149zM406 948l-134 -163h-112l108 163h138z" />
    <glyph glyph-name="Lcommaaccent" unicode="&#x13b;" horiz-adv-x="547" 
d="M311 740l-117 -740h-156l117 740h156zM66 0l23 146h416l-23 -146h-416zM264 -141l4 -12q-5 -5 -14 -8t-21 -3q-23 0 -36.5 14.5t-13.5 36.5q0 33 24 55.5t59 22.5q29 0 45.5 -19.5t16.5 -50.5q0 -43 -19.5 -76t-55 -50t-83.5 -11l7 46q44 -5 65 9.5t22 45.5z" />
    <glyph glyph-name="lcommaaccent" unicode="&#x13c;" horiz-adv-x="266" 
d="M168 0h-149l119 754h149zM83 -141l4 -12q-5 -5 -14 -8t-21 -3q-23 0 -36.5 14.5t-13.5 36.5q0 33 24 55.5t59 22.5q29 0 45.5 -19.5t16.5 -50.5q0 -43 -19.5 -76t-55 -50t-83.5 -11l7 46q44 -5 65 9.5t22 45.5z" />
    <glyph glyph-name="Lcaron" unicode="&#x13d;" horiz-adv-x="547" 
d="M311 740l-117 -740h-156l117 740h156zM66 0l23 146h416l-23 -146h-416zM327 545l31 194h119l-62 -194h-88z" />
    <glyph glyph-name="lcaron" unicode="&#x13e;" horiz-adv-x="266" 
d="M168 0h-149l119 754h149zM303 559l31 194h119l-62 -194h-88z" />
    <glyph glyph-name="Ldot" unicode="&#x13f;" horiz-adv-x="547" 
d="M387 280q-34 0 -59 24.5t-25 57.5q0 35 25 59t59 24t58.5 -25t24.5 -58t-24 -57.5t-59 -24.5zM311 740l-117 -740h-156l117 740h156zM66 0l23 146h416l-23 -146h-416z" />
    <glyph glyph-name="ldot" unicode="&#x140;" horiz-adv-x="416" 
d="M344 280q-35 0 -60 24.5t-25 58.5q0 35 25 59.5t60 24.5q33 0 58 -25t25 -59q0 -33 -24.5 -58t-58.5 -25zM168 0h-149l119 754h149z" />
    <glyph glyph-name="Lslash" unicode="&#x141;" horiz-adv-x="547" 
d="M311 740l-117 -740h-156l117 740h156zM66 0l23 146h416l-23 -146h-416zM16 241l19 117l355 161l-19 -117z" />
    <glyph glyph-name="lslash" unicode="&#x142;" horiz-adv-x="266" 
d="M168 0h-149l119 754h149zM13 275l17 105l265 119l-16 -104z" />
    <glyph glyph-name="Nacute" unicode="&#x143;" horiz-adv-x="772" 
d="M193 0h-155l117 740h155l268 -551h-48l87 551h155l-117 -740h-155l-268 550h48zM665 953l-134 -163h-112l108 163h138z" />
    <glyph glyph-name="nacute" unicode="&#x144;" horiz-adv-x="594" 
d="M167 0h-149l79 500h140l2 -54q32 38 65 54t78 16q56 0 97 -28t61 -75.5t11 -104.5l-49 -308h-149l43 272q8 50 -13 80t-65 30q-43 0 -71.5 -28t-36.5 -81zM548 723l-134 -163h-112l108 163h138z" />
    <glyph glyph-name="Ncommaaccent" unicode="&#x145;" horiz-adv-x="772" 
d="M193 0h-155l117 740h155l268 -551h-48l87 551h155l-117 -740h-155l-268 550h48zM341 -141l4 -12q-5 -5 -14 -8t-21 -3q-23 0 -36.5 14.5t-13.5 36.5q0 33 24 55.5t59 22.5q29 0 45.5 -19.5t16.5 -50.5q0 -43 -19.5 -76t-55 -50t-83.5 -11l7 46q44 -5 65 9.5t22 45.5z" />
    <glyph glyph-name="ncommaaccent" unicode="&#x146;" horiz-adv-x="594" 
d="M167 0h-149l79 500h140l2 -54q32 38 65 54t78 16q56 0 97 -28t61 -75.5t11 -104.5l-49 -308h-149l43 272q8 50 -13 80t-65 30q-43 0 -71.5 -28t-36.5 -81zM251 -141l4 -12q-5 -5 -14 -8t-21 -3q-23 0 -36.5 14.5t-13.5 36.5q0 33 24 55.5t59 22.5q29 0 45.5 -19.5
t16.5 -50.5q0 -43 -19.5 -76t-55 -50t-83.5 -11l7 46q44 -5 65 9.5t22 45.5z" />
    <glyph glyph-name="Ncaron" unicode="&#x147;" horiz-adv-x="772" 
d="M193 0h-155l117 740h155l268 -551h-48l87 551h155l-117 -740h-155l-268 550h48zM411 792l-69 173h107l40 -104l72 104h117l-123 -173h-144z" />
    <glyph glyph-name="ncaron" unicode="&#x148;" horiz-adv-x="594" 
d="M167 0h-149l79 500h140l2 -54q32 38 65 54t78 16q56 0 97 -28t61 -75.5t11 -104.5l-49 -308h-149l43 272q8 50 -13 80t-65 30q-43 0 -71.5 -28t-36.5 -81zM294 562l-69 173h107l40 -104l72 104h117l-123 -173h-144z" />
    <glyph glyph-name="Eng" unicode="&#x14a;" horiz-adv-x="771" 
d="M431 -256q-25 0 -46.5 3.5t-46.5 11.5l45 132q11 -4 23 -6.5t23 -2.5q34 0 47.5 14.5t18.5 43.5l9 51l-237 486l-74 -477h-155l117 740h155l232 -479l75 479h155l-130 -818q-13 -83 -68 -130.5t-143 -47.5z" />
    <glyph glyph-name="eng" unicode="&#x14b;" horiz-adv-x="594" 
d="M167 0h-149l79 500h140l2 -54q32 38 65 54t78 16q56 0 97 -28t61 -75.5t11 -104.5l-60 -377q-15 -93 -63 -140t-127 -47q-25 0 -45 3.5t-43 10.5l37 132q11 -4 20 -5t19 -1q26 0 38.5 15.5t17.5 50.5l51 322q8 50 -13 80t-65 30q-43 0 -71.5 -28t-36.5 -81z" />
    <glyph glyph-name="Omacron" unicode="&#x14c;" horiz-adv-x="785" 
d="M770 427q0 -93 -30 -173t-83.5 -139.5t-125.5 -93t-157 -33.5q-96 0 -168.5 41t-113 114t-40.5 169q0 93 29.5 173t83 140t125.5 93.5t157 33.5q97 0 169.5 -41t113 -114t40.5 -170zM603 411q0 60 -20 102t-58 64.5t-92 22.5q-46 0 -85 -20.5t-68 -57.5t-45 -86.5
t-16 -106.5q0 -58 20 -100.5t58.5 -65t91.5 -22.5q46 0 85 20.5t68 57.5t45 86t16 106zM343 817l16 102h283l-16 -102h-283z" />
    <glyph glyph-name="omacron" unicode="&#x14d;" horiz-adv-x="604" 
d="M28 215q0 63 23 117.5t63.5 95t95 63.5t117.5 23q75 0 131 -28.5t87 -79.5t31 -119q0 -63 -23 -117.5t-63.5 -95t-95 -63.5t-117.5 -23q-74 0 -130.5 28.5t-87.5 79.5t-31 119zM180 228q0 -49 28 -79t76 -30q39 0 70.5 20.5t50.5 56t19 78.5q0 49 -28 79t-76 30
q-38 0 -70 -20.5t-51 -55.5t-19 -79zM214 587l16 102h283l-16 -102h-283z" />
    <glyph glyph-name="Ohungarumlaut" unicode="&#x150;" horiz-adv-x="785" 
d="M770 427q0 -93 -30 -173t-83.5 -139.5t-125.5 -93t-157 -33.5q-96 0 -168.5 41t-113 114t-40.5 169q0 93 29.5 173t83 140t125.5 93.5t157 33.5q97 0 169.5 -41t113 -114t40.5 -170zM603 411q0 60 -20 102t-58 64.5t-92 22.5q-46 0 -85 -20.5t-68 -57.5t-45 -86.5
t-16 -106.5q0 -58 20 -100.5t58.5 -65t91.5 -22.5q46 0 85 20.5t68 57.5t45 86t16 106zM584 953l-133 -163h-105l117 163h121zM757 953l-134 -163h-104l117 163h121z" />
    <glyph glyph-name="ohungarumlaut" unicode="&#x151;" horiz-adv-x="604" 
d="M28 215q0 63 23 117.5t63.5 95t95 63.5t117.5 23q75 0 131 -28.5t87 -79.5t31 -119q0 -63 -23 -117.5t-63.5 -95t-95 -63.5t-117.5 -23q-74 0 -130.5 28.5t-87.5 79.5t-31 119zM180 228q0 -49 28 -79t76 -30q39 0 70.5 20.5t50.5 56t19 78.5q0 49 -28 79t-76 30
q-38 0 -70 -20.5t-51 -55.5t-19 -79zM455 723l-133 -163h-105l117 163h121zM628 723l-134 -163h-104l117 163h121z" />
    <glyph glyph-name="OE" unicode="&#x152;" horiz-adv-x="1099" 
d="M52 312q0 93 29.5 173t83 140t125.5 93.5t157 33.5q86 0 139.5 -30.5t86.5 -85.5l-35 -34l22 138h460l-23 -146h-304l-24 -152h269l-22 -138h-269l-25 -158h304l-23 -146h-460l17 103l15 -31q-17 -24 -50.5 -43t-75.5 -30t-85 -11q-91 0 -161.5 41t-110.5 114t-40 169z
M219 329q0 -58 20 -100.5t56 -65t84 -22.5q46 0 86.5 20.5t71.5 57.5t48.5 86t17.5 106q0 60 -20 102t-58 64.5t-92 22.5q-46 0 -85 -20.5t-68 -57.5t-45 -86.5t-16 -106.5z" />
    <glyph glyph-name="oe" unicode="&#x153;" horiz-adv-x="959" 
d="M28 215q0 63 23 117.5t63.5 95t95 63.5t117.5 23q75 0 128.5 -28.5t82 -79.5t28.5 -119q0 -63 -21.5 -117.5t-60 -95t-91.5 -63.5t-116 -23q-74 0 -130.5 28.5t-87.5 79.5t-31 119zM180 228q0 -49 28 -79t76 -30q39 0 70.5 20.5t50.5 56t19 78.5q0 49 -28 79t-76 30
q-38 0 -70 -20.5t-51 -55.5t-19 -79zM711 514q78 0 130.5 -32.5t75.5 -91.5t10 -139l-6 -39l-423 -2l16 93h273q7 41 -16 65.5t-69 24.5q-38 0 -68.5 -22.5t-48 -61t-17.5 -86.5q0 -57 24.5 -85t75.5 -28q35 0 61.5 15t40.5 43h146q-17 -53 -55 -94t-90 -63.5t-111 -22.5
q-74 0 -126.5 26.5t-80 76.5t-27.5 121q0 86 37.5 154.5t102 108t145.5 39.5z" />
    <glyph glyph-name="Racute" unicode="&#x154;" horiz-adv-x="676" 
d="M194 0h-156l117 740h275q110 0 175 -58t65 -156q0 -73 -41.5 -133t-119.5 -98l91 -295h-161l-79 261h-125zM289 600l-32 -201h121q60 0 94.5 30.5t34.5 83.5q0 41 -27 64t-75 23h-116zM587 953l-134 -163h-112l108 163h138z" />
    <glyph glyph-name="racute" unicode="&#x155;" horiz-adv-x="412" 
d="M432 501l-22 -140h-48q-43 0 -76.5 -14.5t-54.5 -45t-29 -79.5l-35 -222h-149l79 500h140l-5 -106h-14q18 50 58.5 82t98.5 32q14 0 29 -1.5t28 -5.5zM460 723l-134 -163h-112l108 163h138z" />
    <glyph glyph-name="Rcommaaccent" unicode="&#x156;" horiz-adv-x="676" 
d="M194 0h-156l117 740h275q110 0 175 -58t65 -156q0 -73 -41.5 -133t-119.5 -98l91 -295h-161l-79 261h-125zM289 600l-32 -201h121q60 0 94.5 30.5t34.5 83.5q0 41 -27 64t-75 23h-116zM302 -141l4 -12q-5 -5 -14 -8t-21 -3q-23 0 -36.5 14.5t-13.5 36.5q0 33 24 55.5
t59 22.5q29 0 45.5 -19.5t16.5 -50.5q0 -43 -19.5 -76t-55 -50t-83.5 -11l7 46q44 -5 65 9.5t22 45.5z" />
    <glyph glyph-name="rcommaaccent" unicode="&#x157;" horiz-adv-x="412" 
d="M432 501l-22 -140h-48q-43 0 -76.5 -14.5t-54.5 -45t-29 -79.5l-35 -222h-149l79 500h140l-5 -106h-14q18 50 58.5 82t98.5 32q14 0 29 -1.5t28 -5.5zM83 -141l4 -12q-5 -5 -14 -8t-21 -3q-23 0 -36.5 14.5t-13.5 36.5q0 33 24 55.5t59 22.5q29 0 45.5 -19.5t16.5 -50.5
q0 -43 -19.5 -76t-55 -50t-83.5 -11l7 46q44 -5 65 9.5t22 45.5z" />
    <glyph glyph-name="Rcaron" unicode="&#x158;" horiz-adv-x="676" 
d="M194 0h-156l117 740h275q110 0 175 -58t65 -156q0 -73 -41.5 -133t-119.5 -98l91 -295h-161l-79 261h-125zM289 600l-32 -201h121q60 0 94.5 30.5t34.5 83.5q0 41 -27 64t-75 23h-116zM333 792l-69 173h107l40 -104l72 104h117l-123 -173h-144z" />
    <glyph glyph-name="rcaron" unicode="&#x159;" horiz-adv-x="412" 
d="M432 501l-22 -140h-48q-43 0 -76.5 -14.5t-54.5 -45t-29 -79.5l-35 -222h-149l79 500h140l-5 -106h-14q18 50 58.5 82t98.5 32q14 0 29 -1.5t28 -5.5zM206 562l-69 173h107l40 -104l72 104h117l-123 -173h-144z" />
    <glyph glyph-name="Sacute" unicode="&#x15a;" horiz-adv-x="596" 
d="M70 507q0 75 34 130.5t95.5 86t143.5 30.5q71 0 128.5 -30t92.5 -81.5t37 -116.5h-157q-4 41 -33.5 64.5t-75.5 23.5q-52 0 -81 -21.5t-29 -62.5q0 -31 18 -51t56 -31l105 -31q82 -25 121.5 -71.5t39.5 -119.5q0 -72 -34 -125.5t-96 -83.5t-146 -30q-121 0 -193.5 61
t-76.5 167h157q2 -41 34 -64.5t86 -23.5q36 0 62 10t39.5 28.5t13.5 44.5q0 28 -14.5 43.5t-49.5 25.5l-108 31q-81 23 -125 74.5t-44 122.5zM545 953l-134 -163h-112l108 163h138z" />
    <glyph glyph-name="sacute" unicode="&#x15b;" horiz-adv-x="470" 
d="M5 158h142q2 -28 20.5 -43.5t52.5 -15.5q32 0 52 12.5t20 32.5q0 17 -8.5 25.5t-31.5 15.5l-88 28q-52 17 -82 49t-30 83q0 79 56.5 124t155.5 45q56 0 98 -21.5t66 -59t24 -86.5h-142q0 26 -16 42t-43 16q-28 0 -43 -11t-15 -32q0 -32 49 -48l86 -28q54 -17 80.5 -48
t26.5 -76q0 -54 -27 -93t-77.5 -59.5t-121.5 -20.5q-93 0 -148.5 46t-55.5 123zM461 724l-134 -163h-112l108 163h138z" />
    <glyph glyph-name="Scircumflex" unicode="&#x15c;" horiz-adv-x="596" 
d="M70 507q0 75 34 130.5t95.5 86t143.5 30.5q71 0 128.5 -30t92.5 -81.5t37 -116.5h-157q-4 41 -33.5 64.5t-75.5 23.5q-52 0 -81 -21.5t-29 -62.5q0 -31 18 -51t56 -31l105 -31q82 -25 121.5 -71.5t39.5 -119.5q0 -72 -34 -125.5t-96 -83.5t-146 -30q-121 0 -193.5 61
t-76.5 167h157q2 -41 34 -64.5t86 -23.5q36 0 62 10t39.5 28.5t13.5 44.5q0 28 -14.5 43.5t-49.5 25.5l-108 31q-81 23 -125 74.5t-44 122.5zM305 790h-117l123 173h144l69 -173h-107l-40 104z" />
    <glyph glyph-name="scircumflex" unicode="&#x15d;" horiz-adv-x="470" 
d="M5 158h142q2 -28 20.5 -43.5t52.5 -15.5q32 0 52 12.5t20 32.5q0 17 -8.5 25.5t-31.5 15.5l-88 28q-52 17 -82 49t-30 83q0 79 56.5 124t155.5 45q56 0 98 -21.5t66 -59t24 -86.5h-142q0 26 -16 42t-43 16q-28 0 -43 -11t-15 -32q0 -32 49 -48l86 -28q54 -17 80.5 -48
t26.5 -76q0 -54 -27 -93t-77.5 -59.5t-121.5 -20.5q-93 0 -148.5 46t-55.5 123zM221 561h-117l123 173h144l69 -173h-107l-40 104z" />
    <glyph glyph-name="Scedilla" unicode="&#x15e;" horiz-adv-x="596" 
d="M70 507q0 75 34 130.5t95.5 86t143.5 30.5q71 0 128.5 -30t92.5 -81.5t37 -116.5h-157q-4 41 -33.5 64.5t-75.5 23.5q-52 0 -81 -21.5t-29 -62.5q0 -31 18 -51t56 -31l105 -31q82 -25 121.5 -71.5t39.5 -119.5q0 -72 -34 -125.5t-96 -83.5t-146 -30q-121 0 -193.5 61
t-76.5 167h157q2 -41 34 -64.5t86 -23.5q36 0 62 10t39.5 28.5t13.5 44.5q0 28 -14.5 43.5t-49.5 25.5l-108 31q-81 23 -125 74.5t-44 122.5zM142 -211l10 63q17 -8 33.5 -13.5t34.5 -5.5q28 0 45 11.5t17 32.5q0 32 -38 32q-13 0 -25.5 -2t-23.5 -6l-8 38l65 103l42 -1
l-5 -32l-47 -71l-5 7q8 6 19 9.5t28 3.5q26 0 50.5 -18.5t24.5 -56.5q0 -52 -36.5 -82.5t-97.5 -30.5q-25 0 -47 6t-36 13z" />
    <glyph glyph-name="scedilla" unicode="&#x15f;" horiz-adv-x="470" 
d="M5 158h142q2 -28 20.5 -43.5t52.5 -15.5q32 0 52 12.5t20 32.5q0 17 -8.5 25.5t-31.5 15.5l-88 28q-52 17 -82 49t-30 83q0 79 56.5 124t155.5 45q56 0 98 -21.5t66 -59t24 -86.5h-142q0 26 -16 42t-43 16q-28 0 -43 -11t-15 -32q0 -32 49 -48l86 -28q54 -17 80.5 -48
t26.5 -76q0 -54 -27 -93t-77.5 -59.5t-121.5 -20.5q-93 0 -148.5 46t-55.5 123zM81 -211l10 63q17 -8 33.5 -13.5t34.5 -5.5q28 0 45 11.5t17 32.5q0 32 -38 32q-13 0 -25.5 -2t-23.5 -6l-8 38l65 103l42 -1l-5 -32l-47 -71l-5 7q8 6 19 9.5t28 3.5q26 0 50.5 -18.5
t24.5 -56.5q0 -52 -36.5 -82.5t-97.5 -30.5q-25 0 -47 6t-36 13z" />
    <glyph glyph-name="Scaron" unicode="&#x160;" horiz-adv-x="596" 
d="M70 507q0 75 34 130.5t95.5 86t143.5 30.5q71 0 128.5 -30t92.5 -81.5t37 -116.5h-157q-4 41 -33.5 64.5t-75.5 23.5q-52 0 -81 -21.5t-29 -62.5q0 -31 18 -51t56 -31l105 -31q82 -25 121.5 -71.5t39.5 -119.5q0 -72 -34 -125.5t-96 -83.5t-146 -30q-121 0 -193.5 61
t-76.5 167h157q2 -41 34 -64.5t86 -23.5q36 0 62 10t39.5 28.5t13.5 44.5q0 28 -14.5 43.5t-49.5 25.5l-108 31q-81 23 -125 74.5t-44 122.5zM291 792l-69 173h107l40 -104l72 104h117l-123 -173h-144z" />
    <glyph glyph-name="scaron" unicode="&#x161;" horiz-adv-x="470" 
d="M5 158h142q2 -28 20.5 -43.5t52.5 -15.5q32 0 52 12.5t20 32.5q0 17 -8.5 25.5t-31.5 15.5l-88 28q-52 17 -82 49t-30 83q0 79 56.5 124t155.5 45q56 0 98 -21.5t66 -59t24 -86.5h-142q0 26 -16 42t-43 16q-28 0 -43 -11t-15 -32q0 -32 49 -48l86 -28q54 -17 80.5 -48
t26.5 -76q0 -54 -27 -93t-77.5 -59.5t-121.5 -20.5q-93 0 -148.5 46t-55.5 123zM207 563l-69 173h107l40 -104l72 104h117l-123 -173h-144z" />
    <glyph glyph-name="Tcedilla" unicode="&#x162;" horiz-adv-x="608" 
d="M448 665l-105 -665h-156l105 665h156zM75 594l23 146h567l-23 -146h-567zM152 -211l10 63q17 -8 33.5 -13.5t34.5 -5.5q28 0 45 11.5t17 32.5q0 32 -38 32q-13 0 -25.5 -2t-23.5 -6l-8 38l65 103l42 -1l-5 -32l-47 -71l-5 7q8 6 19 9.5t28 3.5q26 0 50.5 -18.5
t24.5 -56.5q0 -52 -36.5 -82.5t-97.5 -30.5q-25 0 -47 6t-36 13z" />
    <glyph glyph-name="tcedilla" unicode="&#x163;" horiz-adv-x="357" 
d="M51 500h335l-20 -124h-335zM214 0h-149l103 654h149zM33 -211l10 63q17 -8 33.5 -13.5t34.5 -5.5q28 0 45 11.5t17 32.5q0 32 -38 32q-13 0 -25.5 -2t-23.5 -6l-8 38l65 103l42 -1l-5 -32l-47 -71l-5 7q8 6 19 9.5t28 3.5q26 0 50.5 -18.5t24.5 -56.5q0 -52 -36.5 -82.5
t-97.5 -30.5q-25 0 -47 6t-36 13z" />
    <glyph glyph-name="Tcaron" unicode="&#x164;" horiz-adv-x="608" 
d="M448 665l-105 -665h-156l105 665h156zM75 594l23 146h567l-23 -146h-567zM325 792l-69 173h107l40 -104l72 104h117l-123 -173h-144z" />
    <glyph glyph-name="tcaron" unicode="&#x165;" horiz-adv-x="357" 
d="M51 500h335l-20 -124h-335zM214 0h-149l103 654h149zM328 545l31 194h119l-62 -194h-88z" />
    <glyph glyph-name="Tbar" unicode="&#x166;" horiz-adv-x="608" 
d="M448 665l-105 -665h-156l105 665h156zM75 594l23 146h567l-23 -146h-567zM131 299l20 128h365l-20 -128h-365z" />
    <glyph glyph-name="tbar" unicode="&#x167;" horiz-adv-x="357" 
d="M51 500h335l-20 -124h-335zM214 0h-149l103 654h149zM43 307h289l-18 -115h-289z" />
    <glyph glyph-name="Utilde" unicode="&#x168;" horiz-adv-x="740" 
d="M78 287l72 453h156l-71 -453q-11 -70 19.5 -109t97.5 -39q68 0 111.5 39t54.5 109l72 453h156l-74 -464q-22 -135 -108 -211.5t-227 -76.5q-84 0 -147.5 37.5t-94.5 105t-17 156.5zM357 792h-86q3 73 36.5 116.5t85.5 43.5q27 0 45 -9.5t32 -21.5t29 -21.5t34 -9.5
q22 0 31.5 15.5t13.5 46.5h87q-5 -78 -36.5 -119t-86.5 -41q-28 0 -46.5 9.5t-33 21.5t-28 21.5t-31.5 9.5q-21 0 -31 -14.5t-15 -47.5z" />
    <glyph glyph-name="utilde" unicode="&#x169;" horiz-adv-x="588" 
d="M421 500h149l-79 -500h-140l-2 54q-31 -35 -64 -51t-78 -16q-55 0 -95.5 28.5t-59 75.5t-9.5 104l49 305h149l-43 -269q-8 -50 12.5 -80t60.5 -30q44 0 71.5 27t35.5 79zM258 562h-86q3 73 36.5 116.5t85.5 43.5q27 0 45 -9.5t32 -21.5t29 -21.5t34 -9.5q22 0 31.5 15.5
t13.5 46.5h87q-5 -78 -36.5 -119t-86.5 -41q-28 0 -46.5 9.5t-33 21.5t-28 21.5t-31.5 9.5q-21 0 -31 -14.5t-15 -47.5z" />
    <glyph glyph-name="Umacron" unicode="&#x16a;" horiz-adv-x="740" 
d="M78 287l72 453h156l-71 -453q-11 -70 19.5 -109t97.5 -39q68 0 111.5 39t54.5 109l72 453h156l-74 -464q-22 -135 -108 -211.5t-227 -76.5q-84 0 -147.5 37.5t-94.5 105t-17 156.5zM319 817l16 102h283l-16 -102h-283z" />
    <glyph glyph-name="umacron" unicode="&#x16b;" horiz-adv-x="588" 
d="M421 500h149l-79 -500h-140l-2 54q-31 -35 -64 -51t-78 -16q-55 0 -95.5 28.5t-59 75.5t-9.5 104l49 305h149l-43 -269q-8 -50 12.5 -80t60.5 -30q44 0 71.5 27t35.5 79zM220 587l16 102h283l-16 -102h-283z" />
    <glyph glyph-name="Uring" unicode="&#x16e;" horiz-adv-x="740" 
d="M78 287l72 453h156l-71 -453q-11 -70 19.5 -109t97.5 -39q68 0 111.5 39t54.5 109l72 453h156l-74 -464q-22 -135 -108 -211.5t-227 -76.5q-84 0 -147.5 37.5t-94.5 105t-17 156.5zM460 773q-55 0 -89.5 33t-34.5 85q0 45 20 80.5t55 56t78 20.5q55 0 90.5 -34t35.5 -87
q0 -44 -20 -79t-55 -55t-80 -20zM468 849q29 0 47.5 20t18.5 51q0 23 -14.5 37.5t-37.5 14.5q-28 0 -46.5 -19.5t-18.5 -50.5q0 -24 14 -38.5t37 -14.5z" />
    <glyph glyph-name="uring" unicode="&#x16f;" horiz-adv-x="588" 
d="M421 500h149l-79 -500h-140l-2 54q-31 -35 -64 -51t-78 -16q-55 0 -95.5 28.5t-59 75.5t-9.5 104l49 305h149l-43 -269q-8 -50 12.5 -80t60.5 -30q44 0 71.5 27t35.5 79zM361 543q-55 0 -89.5 33t-34.5 85q0 45 20 80.5t55 56t78 20.5q55 0 90.5 -34t35.5 -87
q0 -44 -20 -79t-55 -55t-80 -20zM369 619q29 0 47.5 20t18.5 51q0 23 -14.5 37.5t-37.5 14.5q-28 0 -46.5 -19.5t-18.5 -50.5q0 -24 14 -38.5t37 -14.5z" />
    <glyph glyph-name="Uhungarumlaut" unicode="&#x170;" horiz-adv-x="740" 
d="M78 287l72 453h156l-71 -453q-11 -70 19.5 -109t97.5 -39q68 0 111.5 39t54.5 109l72 453h156l-74 -464q-22 -135 -108 -211.5t-227 -76.5q-84 0 -147.5 37.5t-94.5 105t-17 156.5zM560 953l-133 -163h-105l117 163h121zM733 953l-134 -163h-104l117 163h121z" />
    <glyph glyph-name="uhungarumlaut" unicode="&#x171;" horiz-adv-x="588" 
d="M421 500h149l-79 -500h-140l-2 54q-31 -35 -64 -51t-78 -16q-55 0 -95.5 28.5t-59 75.5t-9.5 104l49 305h149l-43 -269q-8 -50 12.5 -80t60.5 -30q44 0 71.5 27t35.5 79zM461 723l-133 -163h-105l117 163h121zM634 723l-134 -163h-104l117 163h121z" />
    <glyph glyph-name="Uogonek" unicode="&#x172;" horiz-adv-x="740" 
d="M78 287l72 453h156l-71 -453q-11 -70 19.5 -109t97.5 -39q68 0 111.5 39t54.5 109l72 453h156l-74 -464q-22 -135 -108 -211.5t-227 -76.5q-84 0 -147.5 37.5t-94.5 105t-17 156.5zM338 0h88q-42 -14 -66.5 -38t-24.5 -49q0 -13 9.5 -23t25.5 -10q5 0 14 1.5t18 5.5
l-16 -96q-26 -10 -58 -10q-46 0 -71.5 25.5t-25.5 62.5q0 42 29.5 78t77.5 53z" />
    <glyph glyph-name="uogonek" unicode="&#x173;" horiz-adv-x="588" 
d="M421 500h149l-79 -500h-140l-2 54q-31 -35 -64 -51t-78 -16q-55 0 -95.5 28.5t-59 75.5t-9.5 104l49 305h149l-43 -269q-8 -50 12.5 -80t60.5 -30q44 0 71.5 27t35.5 79zM402 0h88q-42 -14 -66.5 -38t-24.5 -49q0 -13 9.5 -23t25.5 -10q5 0 14 1.5t18 5.5l-16 -96
q-26 -10 -58 -10q-46 0 -71.5 25.5t-25.5 62.5q0 42 29.5 78t77.5 53z" />
    <glyph glyph-name="Wcircumflex" unicode="&#x174;" horiz-adv-x="1044" 
d="M192 0l-100 740h155l43 -331q4 -28 8.5 -71t4.5 -88q14 45 31 87.5t30 71.5l143 331h179l36 -331q4 -34 6.5 -74.5t3.5 -84.5q15 44 32.5 86.5t30.5 70.5l151 333h162l-338 -740h-151l-54 511l-217 -511h-156zM557 790h-117l123 173h144l69 -173h-107l-40 104z" />
    <glyph glyph-name="wcircumflex" unicode="&#x175;" horiz-adv-x="810" 
d="M128 0l-79 500h149l20 -170q4 -31 7 -68.5t4 -71.5q11 29 26 66.5t31 73.5l75 170h153l20 -170q1 -9 3.5 -35.5t4.5 -55.5t3 -49q9 23 20 50t21 51.5t16 38.5l75 170h164l-250 -500h-136l-25 166q-4 28 -8 63t-6.5 65l-3.5 42q-4 -12 -16 -41.5t-26.5 -65t-27.5 -66.5
l-67 -163h-147zM398 560h-117l123 173h144l69 -173h-107l-40 104z" />
    <glyph glyph-name="Ycircumflex" unicode="&#x176;" horiz-adv-x="664" 
d="M259 282l-171 458h165l86 -245q5 -14 9.5 -28.5t7.5 -30.5q7 15 15.5 29.5t18.5 30.5l164 244h178l-317 -458l-45 -282h-156zM360 790h-117l123 173h144l69 -173h-107l-40 104z" />
    <glyph glyph-name="ycircumflex" unicode="&#x177;" horiz-adv-x="549" 
d="M194 500l76 -436l-91 -171l-135 607h150zM-60 -239l20 126h82q20 0 36.5 7t31 22.5t27.5 40.5l285 543h163l-344 -609q-37 -64 -83.5 -103.5t-120.5 -39.5q-28 0 -52 3.5t-45 9.5zM281 560h-117l123 173h144l69 -173h-107l-40 104z" />
    <glyph glyph-name="Ydieresis" unicode="&#x178;" horiz-adv-x="664" 
d="M259 282l-171 458h165l86 -245q5 -14 9.5 -28.5t7.5 -30.5q7 15 15.5 29.5t18.5 30.5l164 244h178l-317 -458l-45 -282h-156zM316 797q-29 0 -46.5 17.5t-17.5 46.5q0 37 26 63t62 26q29 0 46.5 -18t17.5 -47q0 -35 -26.5 -61.5t-61.5 -26.5zM508 797q-29 0 -46 17.5
t-17 46.5q0 37 26 63t61 26q29 0 46.5 -18t17.5 -47q0 -35 -26 -61.5t-62 -26.5z" />
    <glyph glyph-name="Zacute" unicode="&#x179;" horiz-adv-x="582" 
d="M517 0h-531l23 148l394 446h-313l23 146h512l-22 -141l-401 -453h338zM556 953l-134 -163h-112l108 163h138z" />
    <glyph glyph-name="zacute" unicode="&#x17a;" horiz-adv-x="482" 
d="M406 0h-409l20 124l260 252h-221l20 124h409l-20 -124l-265 -252h226zM480 723l-134 -163h-112l108 163h138z" />
    <glyph glyph-name="Zdotaccent" unicode="&#x17b;" horiz-adv-x="582" 
d="M517 0h-531l23 148l394 446h-313l23 146h512l-22 -141l-401 -453h338zM367 797q-31 0 -49 18.5t-18 49.5q0 38 28 65.5t65 27.5q30 0 48.5 -18.5t18.5 -49.5q0 -37 -27.5 -65t-65.5 -28z" />
    <glyph glyph-name="zdotaccent" unicode="&#x17c;" horiz-adv-x="482" 
d="M406 0h-409l20 124l260 252h-221l20 124h409l-20 -124l-265 -252h226zM291 567q-31 0 -49 18.5t-18 49.5q0 38 28 65.5t65 27.5q30 0 48.5 -18.5t18.5 -49.5q0 -37 -27.5 -65t-65.5 -28z" />
    <glyph glyph-name="Zcaron" unicode="&#x17d;" horiz-adv-x="582" 
d="M517 0h-531l23 148l394 446h-313l23 146h512l-22 -141l-401 -453h338zM302 792l-69 173h107l40 -104l72 104h117l-123 -173h-144z" />
    <glyph glyph-name="zcaron" unicode="&#x17e;" horiz-adv-x="482" 
d="M406 0h-409l20 124l260 252h-221l20 124h409l-20 -124l-265 -252h226zM226 562l-69 173h107l40 -104l72 104h117l-123 -173h-144z" />
    <glyph glyph-name="florin" unicode="&#x192;" horiz-adv-x="653" 
d="M472 533l-155 -565q-15 -54 -45 -95t-82 -64.5t-134 -23.5h-78l23 143h81q29 0 51 16t31 48l151 549q27 99 98.5 155.5t171.5 56.5h96l-23 -143h-104q-23 0 -46 -15.5t-36 -61.5zM98 409h519l-22 -140h-519z" />
    <glyph glyph-name="Aringacute" unicode="&#x1fa;" horiz-adv-x="688" 
d="M139 0h-170l376 740h153l141 -740h-160l-26 158h-236zM364 459l-81 -169h147l-28 169q-2 14 -5 35.5t-3 34.5q-4 -13 -12.5 -32.5t-17.5 -37.5zM418 664q-55 0 -89.5 33t-34.5 85q0 45 20 80.5t55 56t78 20.5q55 0 90.5 -34t35.5 -87q0 -44 -20 -79t-55 -55t-80 -20z
M426 740q29 0 47.5 20t18.5 51q0 23 -14.5 37.5t-37.5 14.5q-28 0 -46.5 -19.5t-18.5 -50.5q0 -24 14 -38.5t37 -14.5zM649 1126l-134 -163h-112l108 163h138z" />
    <glyph glyph-name="aringacute" unicode="&#x1fb;" horiz-adv-x="553" 
d="M173 -13q-68 0 -110.5 38.5t-42.5 100.5q0 78 53 123.5t153 53.5l140 12l1 9q5 38 -16 57.5t-63 19.5q-85 0 -96 -72h-130q14 89 76.5 137.5t165.5 48.5q110 0 165.5 -60t38.5 -162l-47 -293h-131l1 67q-17 -36 -61 -58t-97 -22zM233 98q47 0 78 24.5t37 66.5l4 27
l-80 -7q-55 -4 -78 -20t-23 -45q0 -22 16 -34t46 -12zM318 439q-55 0 -89.5 33t-34.5 85q0 45 20 80.5t55 56t78 20.5q55 0 90.5 -34t35.5 -87q0 -44 -20 -79t-55 -55t-80 -20zM326 515q29 0 47.5 20t18.5 51q0 23 -14.5 37.5t-37.5 14.5q-28 0 -46.5 -19.5t-18.5 -50.5
q0 -24 14 -38.5t37 -14.5zM540 874l-124 -140h-103l100 140h127z" />
    <glyph glyph-name="AEacute" unicode="&#x1fc;" horiz-adv-x="945" 
d="M-36 0l408 740h161l-392 -740h-177zM172 169l21 132h305l-21 -132h-305zM849 0h-449l23 146h449zM663 740l-117 -740h-156l117 740h156zM943 594h-591l23 146h591zM863 304h-415l22 138h415zM830 953l-134 -163h-112l108 163h138z" />
    <glyph glyph-name="aeacute" unicode="&#x1fd;" horiz-adv-x="878" 
d="M20 126q0 78 52.5 119.5t152.5 49.5l140 12l2 17q5 38 -16 57.5t-63 19.5q-85 0 -96 -72h-130q14 89 76.5 137.5t165.5 48.5q110 0 155.5 -60t28.5 -162l-85 -185q-28 -52 -82 -86.5t-138 -34.5q-76 0 -119.5 38.5t-43.5 100.5zM171 144q0 -24 17 -35t45 -11
q47 0 77.5 24.5t37.5 66.5l3 19l-80 -7q-55 -4 -77.5 -17t-22.5 -40zM840 212l-423 -2l16 93h273q7 41 -16 65.5t-69 24.5q-38 0 -68.5 -22.5t-48 -61t-17.5 -86.5q0 -57 24.5 -85t75.5 -28q35 0 61.5 15t40.5 43h146q-17 -53 -55 -94t-90 -63.5t-111 -22.5q-74 0 -123 26.5
t-73 76.5t-24 121q0 86 34 154.5t95 108t142 39.5q78 0 130.5 -32.5t75.5 -91.5t10 -139zM666 723l-134 -163h-112l108 163h138z" />
    <glyph glyph-name="Oslashacute" unicode="&#x1fe;" horiz-adv-x="785" 
d="M770 427q0 -93 -30 -173t-83.5 -139.5t-125.5 -93t-157 -33.5q-96 0 -168.5 41t-113 114t-40.5 169q0 93 29.5 173t83 140t125.5 93.5t157 33.5q97 0 169.5 -41t113 -114t40.5 -170zM603 411q0 60 -20 102t-58 64.5t-92 22.5q-46 0 -85 -20.5t-68 -57.5t-45 -86.5
t-16 -106.5q0 -58 20 -100.5t58.5 -65t91.5 -22.5q46 0 85 20.5t68 57.5t45 86t16 106zM816 740l-657 -739h-148l664 739h141zM641 940l-134 -163h-112l108 163h138z" />
    <glyph glyph-name="oslashacute" unicode="&#x1ff;" horiz-adv-x="604" 
d="M28 215q0 63 23 117.5t63.5 95t95 63.5t117.5 23q75 0 131 -28.5t87 -79.5t31 -119q0 -63 -23 -117.5t-63.5 -95t-95 -63.5t-117.5 -23q-74 0 -130.5 28.5t-87.5 79.5t-31 119zM180 228q0 -49 28 -79t76 -30q39 0 70.5 20.5t50.5 56t19 78.5q0 49 -28 79t-76 30
q-38 0 -70 -20.5t-51 -55.5t-19 -79zM594 546l-453 -595h-133l459 595h127zM540 723l-134 -163h-112l108 163h138z" />
    <glyph glyph-name="Scommaaccent" unicode="&#x218;" horiz-adv-x="596" 
d="M70 507q0 75 34 130.5t95.5 86t143.5 30.5q71 0 128.5 -30t92.5 -81.5t37 -116.5h-157q-4 41 -33.5 64.5t-75.5 23.5q-52 0 -81 -21.5t-29 -62.5q0 -31 18 -51t56 -31l105 -31q82 -25 121.5 -71.5t39.5 -119.5q0 -72 -34 -125.5t-96 -83.5t-146 -30q-121 0 -193.5 61
t-76.5 167h157q2 -41 34 -64.5t86 -23.5q36 0 62 10t39.5 28.5t13.5 44.5q0 28 -14.5 43.5t-49.5 25.5l-108 31q-81 23 -125 74.5t-44 122.5zM245 -141l4 -12q-5 -5 -14 -8t-21 -3q-23 0 -36.5 14.5t-13.5 36.5q0 33 24 55.5t59 22.5q29 0 45.5 -19.5t16.5 -50.5
q0 -43 -19.5 -76t-55 -50t-83.5 -11l7 46q44 -5 65 9.5t22 45.5z" />
    <glyph glyph-name="scommaaccent" unicode="&#x219;" horiz-adv-x="470" 
d="M5 158h142q2 -28 20.5 -43.5t52.5 -15.5q32 0 52 12.5t20 32.5q0 17 -8.5 25.5t-31.5 15.5l-88 28q-52 17 -82 49t-30 83q0 79 56.5 124t155.5 45q56 0 98 -21.5t66 -59t24 -86.5h-142q0 26 -16 42t-43 16q-28 0 -43 -11t-15 -32q0 -32 49 -48l86 -28q54 -17 80.5 -48
t26.5 -76q0 -54 -27 -93t-77.5 -59.5t-121.5 -20.5q-93 0 -148.5 46t-55.5 123zM184 -141l4 -12q-5 -5 -14 -8t-21 -3q-23 0 -36.5 14.5t-13.5 36.5q0 33 24 55.5t59 22.5q29 0 45.5 -19.5t16.5 -50.5q0 -43 -19.5 -76t-55 -50t-83.5 -11l7 46q44 -5 65 9.5t22 45.5z" />
    <glyph glyph-name="Tcommaaccent" unicode="&#x21a;" horiz-adv-x="608" 
d="M448 665l-105 -665h-156l105 665h156zM75 594l23 146h567l-23 -146h-567zM255 -141l4 -12q-5 -5 -14 -8t-21 -3q-23 0 -36.5 14.5t-13.5 36.5q0 33 24 55.5t59 22.5q29 0 45.5 -19.5t16.5 -50.5q0 -43 -19.5 -76t-55 -50t-83.5 -11l7 46q44 -5 65 9.5t22 45.5z" />
    <glyph glyph-name="tcommaaccent" unicode="&#x21b;" horiz-adv-x="357" 
d="M51 500h335l-20 -124h-335zM214 0h-149l103 654h149zM136 -141l4 -12q-5 -5 -14 -8t-21 -3q-23 0 -36.5 14.5t-13.5 36.5q0 33 24 55.5t59 22.5q29 0 45.5 -19.5t16.5 -50.5q0 -43 -19.5 -76t-55 -50t-83.5 -11l7 46q44 -5 65 9.5t22 45.5z" />
    <glyph glyph-name="dotlessj" unicode="&#x237;" horiz-adv-x="262" 
d="M-124 -242l37 132q11 -4 20 -5t19 -1q26 0 38.5 15.5t17.5 50.5l87 550h149l-90 -569q-15 -93 -63 -140t-127 -47q-25 0 -45 3.5t-43 10.5z" />
    <glyph glyph-name="circumflex" unicode="&#x2c6;" horiz-adv-x="426" 
d="M240 771h-117l123 173h144l69 -173h-107l-40 104z" />
    <glyph glyph-name="caron" unicode="&#x2c7;" horiz-adv-x="426" 
d="M216 771l-69 173h107l40 -104l72 104h117l-123 -173h-144z" />
    <glyph glyph-name="breve" unicode="&#x2d8;" horiz-adv-x="468" 
d="M405 936h105q-13 -80 -55.5 -127.5t-128.5 -47.5q-79 0 -119.5 47t-40.5 128h103q0 -37 16.5 -57t47.5 -20q32 0 49 20.5t23 56.5z" />
    <glyph glyph-name="dotaccent" unicode="&#x2d9;" horiz-adv-x="243" 
d="M202 778q-31 0 -49 18.5t-18 49.5q0 38 28 65.5t65 27.5q30 0 48.5 -18.5t18.5 -49.5q0 -37 -27.5 -65t-65.5 -28z" />
    <glyph glyph-name="ring" unicode="&#x2da;" horiz-adv-x="356" 
d="M260 754q-55 0 -89.5 33t-34.5 85q0 45 20 80.5t55 56t78 20.5q55 0 90.5 -34t35.5 -87q0 -44 -20 -79t-55 -55t-80 -20zM268 830q29 0 47.5 20t18.5 51q0 23 -14.5 37.5t-37.5 14.5q-28 0 -46.5 -19.5t-18.5 -50.5q0 -24 14 -38.5t37 -14.5z" />
    <glyph glyph-name="ogonek" unicode="&#x2db;" horiz-adv-x="256" 
d="M93 0h88q-42 -14 -66.5 -38t-24.5 -49q0 -13 9.5 -23t25.5 -10q5 0 14 1.5t18 5.5l-16 -96q-26 -10 -58 -10q-46 0 -71.5 25.5t-25.5 62.5q0 42 29.5 78t77.5 53z" />
    <glyph glyph-name="tilde" unicode="&#x2dc;" horiz-adv-x="467" 
d="M213 773h-86q3 73 36.5 116.5t85.5 43.5q27 0 45 -9.5t32 -21.5t29 -21.5t34 -9.5q22 0 31.5 15.5t13.5 46.5h87q-5 -78 -36.5 -119t-86.5 -41q-28 0 -46.5 9.5t-33 21.5t-28 21.5t-31.5 9.5q-21 0 -31 -14.5t-15 -47.5z" />
    <glyph glyph-name="hungarumlaut" unicode="&#x2dd;" horiz-adv-x="502" 
d="M359 934l-133 -163h-105l117 163h121zM532 934l-134 -163h-104l117 163h121z" />
    <glyph glyph-name="gravecomb" unicode="&#x300;" horiz-adv-x="304" 
d="M345 771h-101l-82 163h128z" />
    <glyph glyph-name="acutecomb" unicode="&#x301;" horiz-adv-x="306" 
d="M366 934l-134 -163h-112l108 163h138z" />
    <glyph glyph-name="circumflexcomb" unicode="&#x302;" horiz-adv-x="416" 
d="M240 771h-117l123 173h144l69 -173h-107l-40 104z" />
    <glyph glyph-name="tildecomb" unicode="&#x303;" horiz-adv-x="456" 
d="M213 773h-86q3 73 36.5 116.5t85.5 43.5q27 0 45 -9.5t32 -21.5t29 -21.5t34 -9.5q22 0 31.5 15.5t13.5 46.5h87q-5 -78 -36.5 -119t-86.5 -41q-28 0 -46.5 9.5t-33 21.5t-28 21.5t-31.5 9.5q-21 0 -31 -14.5t-15 -47.5z" />
    <glyph glyph-name="macroncomb" unicode="&#x304;" horiz-adv-x="403" 
d="M147 798l16 102h283l-16 -102h-283z" />
    <glyph glyph-name="brevecomb" unicode="&#x306;" horiz-adv-x="458" 
d="M405 936h105q-13 -80 -55.5 -127.5t-128.5 -47.5q-79 0 -119.5 47t-40.5 128h103q0 -37 16.5 -57t47.5 -20q32 0 49 20.5t23 56.5z" />
    <glyph glyph-name="dotaccentcomb" unicode="&#x307;" horiz-adv-x="238" 
d="M202 778q-31 0 -49 18.5t-18 49.5q0 38 28 65.5t65 27.5q30 0 48.5 -18.5t18.5 -49.5q0 -37 -27.5 -65t-65.5 -28z" />
    <glyph glyph-name="dieresiscomb" unicode="&#x308;" horiz-adv-x="446" 
d="M211 778q-29 0 -46.5 17.5t-17.5 46.5q0 37 26 63t62 26q29 0 46.5 -18t17.5 -47q0 -35 -26.5 -61.5t-61.5 -26.5zM403 778q-29 0 -46 17.5t-17 46.5q0 37 26 63t61 26q29 0 46.5 -18t17.5 -47q0 -35 -26 -61.5t-62 -26.5z" />
    <glyph glyph-name="ringcomb" unicode="&#x30a;" horiz-adv-x="349" 
d="M260 754q-55 0 -89.5 33t-34.5 85q0 45 20 80.5t55 56t78 20.5q55 0 90.5 -34t35.5 -87q0 -44 -20 -79t-55 -55t-80 -20zM268 830q29 0 47.5 20t18.5 51q0 23 -14.5 37.5t-37.5 14.5q-28 0 -46.5 -19.5t-18.5 -50.5q0 -24 14 -38.5t37 -14.5z" />
    <glyph glyph-name="hungarumlautcomb" unicode="&#x30b;" horiz-adv-x="491" 
d="M359 934l-133 -163h-105l117 163h121zM532 934l-134 -163h-104l117 163h121z" />
    <glyph glyph-name="caroncomb" unicode="&#x30c;" horiz-adv-x="409" 
d="M216 771l-69 173h107l40 -104l72 104h117l-123 -173h-144z" />
    <glyph glyph-name="commaturnedabovecomb" unicode="&#x312;" horiz-adv-x="225" 
d="M202 896l-5 12q7 6 16 8.5t18 2.5q24 0 37.5 -14t13.5 -37q0 -34 -23.5 -56.5t-58.5 -22.5q-29 0 -45.5 20t-16.5 50q0 43 19.5 76.5t55 50.5t83.5 11l-7 -46q-42 5 -64.5 -8.5t-22.5 -46.5z" />
    <glyph glyph-name="commaaccentcomb" unicode="&#x326;" horiz-adv-x="226" 
d="M65 -135l4 -12q-5 -5 -14 -8t-21 -3q-23 0 -36.5 14.5t-13.5 36.5q0 33 24 55.5t59 22.5q29 0 45.5 -19.5t16.5 -50.5q0 -43 -19.5 -76t-55 -50t-83.5 -11l7 46q44 -5 65 9.5t22 45.5z" />
    <glyph glyph-name="cedillacomb" unicode="&#x327;" horiz-adv-x="272" 
d="M-43 -211l10 63q17 -8 33.5 -13.5t34.5 -5.5q28 0 45 11.5t17 32.5q0 32 -38 32q-13 0 -25.5 -2t-23.5 -6l-8 38l65 103l42 -1l-5 -32l-47 -71l-5 7q8 6 19 9.5t28 3.5q26 0 50.5 -18.5t24.5 -56.5q0 -52 -36.5 -82.5t-97.5 -30.5q-25 0 -47 6t-36 13z" />
    <glyph glyph-name="strokeshortcomb" unicode="&#x335;" horiz-adv-x="631" 
d="M68 663h364l-14 -87h-364z" />
    <glyph glyph-name="slashshortcomb" unicode="&#x337;" horiz-adv-x="282" 
d="M27 294l17 105l265 119l-16 -104z" />
    <glyph glyph-name="slashlongcomb" unicode="&#x338;" horiz-adv-x="571" 
d="M579 551l-453 -595h-133l459 595h127z" />
    <glyph glyph-name="Omega" unicode="&#x3a9;" horiz-adv-x="655" 
d="M257 0h-241l17 109h162l-36 -26q-43 32 -64.5 75.5t-21.5 97.5q0 75 36.5 134t99 92.5t139.5 33.5q72 0 127 -28t86 -76.5t31 -111.5q0 -43 -18 -85.5t-49.5 -76.5t-70.5 -51l-19 22h142l-17 -109h-240l17 109q54 20 88.5 62.5t34.5 105.5q0 35 -14.5 61.5t-41 41
t-61.5 14.5q-45 0 -77.5 -19t-49.5 -53.5t-17 -81.5q0 -44 20 -79t55 -52z" />
    <glyph glyph-name="pi" unicode="&#x3c0;" horiz-adv-x="653" 
d="M608 129l-20 -124q-29 -4 -52.5 -6.5t-43.5 -2.5q-74 0 -100.5 46.5t-16.5 115.5l54 342h145l-51 -328q-3 -20 6 -31.5t36 -11.5h43zM59 0l79 500h146l-79 -500h-146zM52 500h614l-19 -121h-614z" />
    <glyph glyph-name="Wgrave" unicode="&#x1e80;" horiz-adv-x="1044" 
d="M192 0l-100 740h155l43 -331q4 -28 8.5 -71t4.5 -88q14 45 31 87.5t30 71.5l143 331h179l36 -331q4 -34 6.5 -74.5t3.5 -84.5q15 44 32.5 86.5t30.5 70.5l151 333h162l-338 -740h-151l-54 511l-217 -511h-156zM659 790h-101l-82 163h128z" />
    <glyph glyph-name="wgrave" unicode="&#x1e81;" horiz-adv-x="810" 
d="M128 0l-79 500h149l20 -170q4 -31 7 -68.5t4 -71.5q11 29 26 66.5t31 73.5l75 170h153l20 -170q1 -9 3.5 -35.5t4.5 -55.5t3 -49q9 23 20 50t21 51.5t16 38.5l75 170h164l-250 -500h-136l-25 166q-4 28 -8 63t-6.5 65l-3.5 42q-4 -12 -16 -41.5t-26.5 -65t-27.5 -66.5
l-67 -163h-147zM500 560h-101l-82 163h128z" />
    <glyph glyph-name="Wacute" unicode="&#x1e82;" horiz-adv-x="1044" 
d="M192 0l-100 740h155l43 -331q4 -28 8.5 -71t4.5 -88q14 45 31 87.5t30 71.5l143 331h179l36 -331q4 -34 6.5 -74.5t3.5 -84.5q15 44 32.5 86.5t30.5 70.5l151 333h162l-338 -740h-151l-54 511l-217 -511h-156zM797 953l-134 -163h-112l108 163h138z" />
    <glyph glyph-name="wacute" unicode="&#x1e83;" horiz-adv-x="810" 
d="M128 0l-79 500h149l20 -170q4 -31 7 -68.5t4 -71.5q11 29 26 66.5t31 73.5l75 170h153l20 -170q1 -9 3.5 -35.5t4.5 -55.5t3 -49q9 23 20 50t21 51.5t16 38.5l75 170h164l-250 -500h-136l-25 166q-4 28 -8 63t-6.5 65l-3.5 42q-4 -12 -16 -41.5t-26.5 -65t-27.5 -66.5
l-67 -163h-147zM638 723l-134 -163h-112l108 163h138z" />
    <glyph glyph-name="Wdieresis" unicode="&#x1e84;" horiz-adv-x="1044" 
d="M192 0l-100 740h155l43 -331q4 -28 8.5 -71t4.5 -88q14 45 31 87.5t30 71.5l143 331h179l36 -331q4 -34 6.5 -74.5t3.5 -84.5q15 44 32.5 86.5t30.5 70.5l151 333h162l-338 -740h-151l-54 511l-217 -511h-156zM513 797q-29 0 -46.5 17.5t-17.5 46.5q0 37 26 63t62 26
q29 0 46.5 -18t17.5 -47q0 -35 -26.5 -61.5t-61.5 -26.5zM705 797q-29 0 -46 17.5t-17 46.5q0 37 26 63t61 26q29 0 46.5 -18t17.5 -47q0 -35 -26 -61.5t-62 -26.5z" />
    <glyph glyph-name="wdieresis" unicode="&#x1e85;" horiz-adv-x="810" 
d="M128 0l-79 500h149l20 -170q4 -31 7 -68.5t4 -71.5q11 29 26 66.5t31 73.5l75 170h153l20 -170q1 -9 3.5 -35.5t4.5 -55.5t3 -49q9 23 20 50t21 51.5t16 38.5l75 170h164l-250 -500h-136l-25 166q-4 28 -8 63t-6.5 65l-3.5 42q-4 -12 -16 -41.5t-26.5 -65t-27.5 -66.5
l-67 -163h-147zM354 567q-29 0 -46.5 17.5t-17.5 46.5q0 37 26 63t62 26q29 0 46.5 -18t17.5 -47q0 -35 -26.5 -61.5t-61.5 -26.5zM546 567q-29 0 -46 17.5t-17 46.5q0 37 26 63t61 26q29 0 46.5 -18t17.5 -47q0 -35 -26 -61.5t-62 -26.5z" />
    <glyph glyph-name="Ygrave" unicode="&#x1ef2;" horiz-adv-x="664" 
d="M259 282l-171 458h165l86 -245q5 -14 9.5 -28.5t7.5 -30.5q7 15 15.5 29.5t18.5 30.5l164 244h178l-317 -458l-45 -282h-156zM462 790h-101l-82 163h128z" />
    <glyph glyph-name="ygrave" unicode="&#x1ef3;" horiz-adv-x="549" 
d="M194 500l76 -436l-91 -171l-135 607h150zM-60 -239l20 126h82q20 0 36.5 7t31 22.5t27.5 40.5l285 543h163l-344 -609q-37 -64 -83.5 -103.5t-120.5 -39.5q-28 0 -52 3.5t-45 9.5zM383 560h-101l-82 163h128z" />
    <glyph glyph-name="endash" unicode="&#x2013;" horiz-adv-x="989" 
d="M62 202l21 132h849l-21 -132h-849z" />
    <glyph glyph-name="emdash" unicode="&#x2014;" horiz-adv-x="1231" 
d="M62 202l21 132h1091l-21 -132h-1091z" />
    <glyph glyph-name="quoteleft" unicode="&#x2018;" horiz-adv-x="298" 
d="M193 619l-15 -5q10 8 21.5 12t22.5 4q28 0 44.5 -16.5t16.5 -45.5q0 -41 -27.5 -70.5t-67.5 -29.5q-35 0 -54.5 23t-19.5 60q0 51 24.5 95t65.5 73.5t90 34.5l-8 -54q-37 -7 -62.5 -27.5t-30.5 -53.5z" />
    <glyph glyph-name="quoteright" unicode="&#x2019;" horiz-adv-x="298" 
d="M219 603l16 5q-10 -8 -20.5 -12t-24.5 -4q-28 0 -44.5 17t-16.5 45q0 42 28 71t68 29q35 0 54 -22.5t19 -60.5q0 -50 -24 -94.5t-65 -73.5t-91 -35l9 54q37 8 62 28t30 53z" />
    <glyph glyph-name="quotesinglbase" unicode="&#x201a;" horiz-adv-x="299" 
d="M124 -2l16 5q-12 -9 -22 -12t-23 -3q-26 0 -43.5 16.5t-17.5 45.5q0 41 28 70t68 29q35 0 54 -22.5t19 -60.5q0 -50 -24.5 -94.5t-65 -73.5t-90.5 -35l9 54q37 8 62 28t30 53z" />
    <glyph glyph-name="quotedblleft" unicode="&#x201c;" horiz-adv-x="518" 
d="M193 619l-15 -5q10 8 21.5 12t22.5 4q28 0 44.5 -16.5t16.5 -45.5q0 -41 -27.5 -70.5t-67.5 -29.5q-35 0 -54.5 23t-19.5 60q0 51 24.5 95t65.5 73.5t90 34.5l-8 -54q-37 -7 -62.5 -27.5t-30.5 -53.5zM413 619l-15 -5q10 8 21.5 12t22.5 4q28 0 44.5 -16.5t16.5 -45.5
q0 -41 -27.5 -70.5t-67.5 -29.5q-35 0 -54.5 23t-19.5 60q0 51 24.5 95t65.5 73.5t90 34.5l-8 -54q-37 -7 -62.5 -27.5t-30.5 -53.5z" />
    <glyph glyph-name="quotedblright" unicode="&#x201d;" horiz-adv-x="518" 
d="M219 603l16 5q-10 -8 -20.5 -12t-24.5 -4q-28 0 -44.5 17t-16.5 45q0 42 28 71t68 29q35 0 54 -22.5t19 -60.5q0 -50 -24 -94.5t-65 -73.5t-91 -35l9 54q37 8 62 28t30 53zM439 603l16 5q-10 -8 -20.5 -12t-24.5 -4q-28 0 -44.5 17t-16.5 45q0 42 28 71t68 29
q35 0 54 -22.5t19 -60.5q0 -50 -24 -94.5t-65 -73.5t-91 -35l9 54q37 8 62 28t30 53z" />
    <glyph glyph-name="quotedblbase" unicode="&#x201e;" horiz-adv-x="519" 
d="M124 -2l16 5q-12 -9 -22 -12t-23 -3q-26 0 -43.5 16.5t-17.5 45.5q0 41 28 70t68 29q35 0 54 -22.5t19 -60.5q0 -50 -24.5 -94.5t-65 -73.5t-90.5 -35l9 54q37 8 62 28t30 53zM344 -2l16 5q-12 -9 -22 -12t-23 -3q-26 0 -43.5 16.5t-17.5 45.5q0 41 28 70t68 29
q35 0 54 -22.5t19 -60.5q0 -50 -24.5 -94.5t-65 -73.5t-90.5 -35l9 54q37 8 62 28t30 53z" />
    <glyph glyph-name="dagger" unicode="&#x2020;" horiz-adv-x="348" 
d="M137 294l70 446h88l-70 -446h-88zM69 556l13 84h307l-13 -84h-307z" />
    <glyph glyph-name="daggerdbl" unicode="&#x2021;" horiz-adv-x="347" 
d="M136 294l71 446h88l-71 -446h-88zM68 555l14 84h307l-14 -84h-307zM43 395l13 84h307l-13 -84h-307z" />
    <glyph glyph-name="bullet" unicode="&#x2022;" horiz-adv-x="460" 
d="M209 106q-64 0 -104 38.5t-40 102.5q0 52 27 96.5t72 71.5t98 27q63 0 101.5 -39.5t38.5 -104.5q0 -51 -26.5 -95t-70.5 -70.5t-96 -26.5z" />
    <glyph glyph-name="ellipsis" unicode="&#x2026;" horiz-adv-x="842" 
d="M109 -13q-35 0 -55.5 20.5t-20.5 54.5q0 42 30.5 72.5t73.5 30.5q35 0 56 -20.5t21 -55.5q0 -27 -14.5 -50.5t-38.5 -37.5t-52 -14zM379 -13q-35 0 -55.5 20.5t-20.5 54.5q0 42 30.5 72.5t73.5 30.5q35 0 56 -20.5t21 -55.5q0 -27 -14.5 -50.5t-38.5 -37.5t-52 -14z
M649 -13q-35 0 -55.5 20.5t-20.5 54.5q0 42 30.5 72.5t73.5 30.5q35 0 56 -20.5t21 -55.5q0 -27 -14.5 -50.5t-38.5 -37.5t-52 -14z" />
    <glyph glyph-name="perthousand" unicode="&#x2030;" horiz-adv-x="1407" 
d="M472 574q0 -57 -29 -105.5t-77 -77.5t-106 -29t-99.5 21.5t-63.5 61.5t-22 97q0 58 29 106t77 77t105 29q59 0 100.5 -21t63.5 -61.5t22 -97.5zM354 568q0 38 -18.5 58t-53.5 20q-25 0 -45 -13t-32 -35.5t-12 -50.5q0 -38 18 -57.5t53 -19.5q25 0 45.5 13.5t32.5 35.5
t12 49zM912 740l-658 -740h-156l658 740h156zM936 199q0 -57 -29 -105.5t-77 -77.5t-106 -29t-99.5 21t-63.5 61.5t-22 97.5q0 58 29 106t77 77t105 29q59 0 100.5 -21t63.5 -61.5t22 -97.5zM818 193q0 38 -18.5 58t-53.5 20q-25 0 -45 -13t-32 -35.5t-12 -50.5
q0 -38 18 -57.5t53 -19.5q25 0 45.5 13.5t32.5 35.5t12 49zM1370 199q0 -57 -29 -105.5t-77 -77.5t-106 -29t-99.5 21t-63.5 61.5t-22 97.5q0 58 29 106t77 77t105 29q59 0 100.5 -21t63.5 -61.5t22 -97.5zM1252 193q0 38 -18.5 58t-53.5 20q-25 0 -45 -13t-32 -35.5
t-12 -50.5q0 -38 18 -57.5t53 -19.5q25 0 45.5 13.5t32.5 35.5t12 49z" />
    <glyph glyph-name="minute" unicode="&#x2032;" horiz-adv-x="194" 
d="M222 682l-55 -196h-66l8 196q2 34 19 53t45 19q29 0 43.5 -21t5.5 -51z" />
    <glyph glyph-name="guilsinglleft" unicode="&#x2039;" horiz-adv-x="497" 
d="M214 0l-174 251l253 249h204l-265 -261l166 -239h-184z" />
    <glyph glyph-name="guilsinglright" unicode="&#x203a;" horiz-adv-x="497" 
d="M283 500l174 -251l-253 -249h-204l265 261l-166 239h184z" />
    <glyph glyph-name="asterism" unicode="&#x2042;" horiz-adv-x="946" 
d="M75 171l-64 25l36 64l63 -23q23 -8 40 -18t23 -15q-2 20 -1.5 38.5t4.5 40.5l12 74h74l-12 -74q-4 -24 -8 -40t-12 -39q17 10 33 19t42 17l70 22l16 -70l-73 -25q-24 -8 -43.5 -11t-36.5 -5q17 -16 25 -28t18 -32l31 -60l-63 -42l-32 60q-11 21 -17.5 38t-9.5 31
q-7 -16 -19 -34.5t-28 -36.5l-51 -58l-59 42l51 62q17 20 32.5 33.5t31.5 24.5q-16 2 -35.5 7.5t-37.5 12.5zM401 568l-64 25l36 64l63 -23q23 -8 40 -18t23 -15q-2 20 -1.5 38.5t4.5 40.5l12 74h74l-12 -74q-4 -24 -8 -40t-12 -39q17 10 33 19t42 17l70 22l16 -70l-73 -25
q-24 -8 -43.5 -11t-36.5 -5q17 -16 25 -28t18 -32l31 -60l-63 -42l-32 60q-11 21 -17.5 38t-9.5 31q-7 -16 -19 -34.5t-28 -36.5l-51 -58l-59 42l51 62q17 20 32.5 33.5t31.5 24.5q-16 2 -35.5 7.5t-37.5 12.5zM601 170l-64 25l36 64l63 -23q23 -8 40 -18t23 -15
q-2 20 -1.5 38.5t4.5 40.5l12 74h74l-12 -74q-4 -24 -8 -40t-12 -39q17 10 33 19t42 17l70 22l16 -70l-73 -25q-24 -8 -43.5 -11t-36.5 -5q17 -16 25 -28t18 -32l31 -60l-63 -42l-32 60q-11 21 -17.5 38t-9.5 31q-7 -16 -19 -34.5t-28 -36.5l-51 -58l-59 42l51 62
q17 20 32.5 33.5t31.5 24.5q-16 2 -35.5 7.5t-37.5 12.5z" />
    <glyph glyph-name="fraction" unicode="&#x2044;" horiz-adv-x="176" 
d="M454 710l-583 -710h-116l583 710h116z" />
    <glyph glyph-name="zero.superior" unicode="&#x2070;" horiz-adv-x="432" 
d="M0 507q0 79 29 141.5t79.5 99t116.5 36.5q77 0 121 -49t44 -136q0 -80 -28 -143t-78 -98.5t-117 -35.5q-78 0 -122.5 49.5t-44.5 135.5zM98 507q0 -49 21 -75t59 -26q34 0 59.5 25.5t40 69t14.5 98.5q0 49 -19.5 74.5t-57.5 25.5q-34 0 -60.5 -25.5t-41.5 -68.5t-15 -98z
" />
    <glyph glyph-name="four.superior" unicode="&#x2074;" horiz-adv-x="383" 
d="M329 775l-70 -445h-93l70 445h93zM324 408h-359l14 88l228 279h104l-269 -335l-28 54h324z" />
    <glyph glyph-name="five.superior" unicode="&#x2075;" horiz-adv-x="368" 
d="M-16 473h97q0 -30 15.5 -46.5t43.5 -16.5q23 0 41 11t28 31t10 45q0 28 -15.5 46t-44.5 18q-43 0 -70 -34l-87 9l94 239h237l-14 -91h-185l31 24l-47 -110l-39 -17q17 28 43 41.5t60 13.5q62 0 98.5 -37.5t36.5 -94.5q0 -49 -24 -90.5t-64.5 -66.5t-89.5 -25
q-47 0 -82 18.5t-54 52.5t-19 80z" />
    <glyph glyph-name="six.superior" unicode="&#x2076;" horiz-adv-x="391" 
d="M160 662l103 113h117l-146 -159h-30q11 11 29.5 18t34.5 7q62 0 101 -37t39 -94q0 -54 -25 -96.5t-69 -67t-100 -24.5q-44 0 -79.5 19t-56 51.5t-20.5 73.5q0 45 23.5 90t78.5 106zM156 475q0 -30 19.5 -49t49.5 -19q36 0 60.5 25.5t24.5 63.5q0 30 -19 49t-49 19
q-37 0 -61.5 -25.5t-24.5 -63.5z" />
    <glyph glyph-name="seven.superior" unicode="&#x2077;" horiz-adv-x="343" 
d="M346 688h-259l14 87h307l-14 -87l-187 -358h-105l203 385z" />
    <glyph glyph-name="eight.superior" unicode="&#x2078;" horiz-adv-x="394" 
d="M-13 450q0 49 31 83.5t82 41.5l-1 -10q-27 10 -42 32t-15 52q0 40 20 70.5t55.5 47.5t81.5 17q64 0 104.5 -33.5t40.5 -86.5q0 -41 -24 -69.5t-66 -37.5l1 7q35 -5 56 -33t21 -66q0 -43 -22 -75t-62 -50t-94 -18q-73 0 -120 36t-47 92zM86 462q0 -24 20 -38.5t54 -14.5
q36 0 56 16t20 44q0 24 -19.5 38.5t-53.5 14.5q-35 0 -56 -16.5t-21 -43.5zM123 649q0 -22 18 -35.5t46 -13.5q32 0 51 14t19 39q0 22 -17.5 35.5t-46.5 13.5q-32 0 -51 -14t-19 -39z" />
    <glyph glyph-name="nine.superior" unicode="&#x2079;" horiz-adv-x="392" 
d="M327 443l-103 -113h-117l146 159h30q-10 -10 -28.5 -17.5t-35.5 -7.5q-61 0 -100.5 37t-39.5 94q0 55 25 97t69 66.5t100 24.5q44 0 79.5 -19t56 -51.5t20.5 -73.5q0 -45 -23.5 -90t-78.5 -106zM331 630q0 30 -19.5 49t-49.5 19q-36 0 -60.5 -25.5t-24.5 -63.5
q0 -30 19 -49t49 -19q37 0 61.5 25.5t24.5 63.5z" />
    <glyph glyph-name="zero.inferior" unicode="&#x2080;" horiz-adv-x="431" 
d="M0 77q0 79 29 141.5t79.5 99t116.5 36.5q77 0 121 -49t44 -136q0 -80 -28 -143t-78 -98.5t-117 -35.5q-78 0 -122.5 49.5t-44.5 135.5zM98 77q0 -49 21 -75t59 -26q34 0 59.5 25.5t40 69t14.5 98.5q0 49 -19.5 74.5t-57.5 25.5q-34 0 -60.5 -25.5t-41.5 -68.5t-15 -98z
" />
    <glyph glyph-name="one.inferior" unicode="&#x2081;" horiz-adv-x="270" 
d="M133 259h-111l14 86h207l-70 -445h-97z" />
    <glyph glyph-name="two.inferior" unicode="&#x2082;" horiz-adv-x="360" 
d="M283 -100h-309l12 73l189 142q56 41 56 94q0 27 -13 41.5t-39 14.5q-28 0 -46.5 -20t-24.5 -57h-101q15 78 63 122t117 44q66 0 104.5 -36.5t38.5 -99.5q0 -95 -86 -161l-115 -87l-54 18h222z" />
    <glyph glyph-name="three.inferior" unicode="&#x2083;" horiz-adv-x="357" 
d="M325 267l-186 -147l-48 53l168 133l-29 -48h-191l14 87h284zM107 109h-26l10 64q11 2 26.5 5t31.5 3q69 0 112 -36t43 -95q0 -47 -20.5 -83t-57.5 -55.5t-87 -19.5q-71 0 -113 40.5t-42 110.5h97q0 -30 15.5 -46.5t43.5 -16.5q20 0 35 8t23.5 23t8.5 35q0 28 -20 45.5
t-52 17.5h-12.5h-15.5z" />
    <glyph glyph-name="four.inferior" unicode="&#x2084;" horiz-adv-x="375" 
d="M329 345l-70 -445h-93l70 445h93zM324 -22h-359l14 88l228 279h104l-269 -335l-28 54h324z" />
    <glyph glyph-name="five.inferior" unicode="&#x2085;" horiz-adv-x="361" 
d="M-16 43h97q0 -30 15.5 -46.5t43.5 -16.5q23 0 41 11t28 31t10 45q0 28 -15.5 46t-44.5 18q-43 0 -70 -34l-87 9l94 239h237l-14 -91h-185l31 24l-47 -110l-39 -17q17 28 43 41.5t60 13.5q62 0 98.5 -37.5t36.5 -94.5q0 -49 -24 -90.5t-64.5 -66.5t-89.5 -25
q-47 0 -82 18.5t-54 52.5t-19 80z" />
    <glyph glyph-name="six.inferior" unicode="&#x2086;" horiz-adv-x="392" 
d="M92 232l103 113h117l-146 -159h-30q11 11 29.5 18t34.5 7q62 0 101 -37t39 -94q0 -54 -25 -96.5t-69 -67t-100 -24.5q-44 0 -79.5 19t-56 51.5t-20.5 73.5q0 45 23.5 90t78.5 106zM88 45q0 -30 19.5 -49t49.5 -19q36 0 60.5 25.5t24.5 63.5q0 30 -19 49t-49 19
q-37 0 -61.5 -25.5t-24.5 -63.5z" />
    <glyph glyph-name="seven.inferior" unicode="&#x2087;" horiz-adv-x="343" 
d="M278 258h-259l14 87h307l-14 -87l-187 -358h-105l203 385z" />
    <glyph glyph-name="eight.inferior" unicode="&#x2088;" horiz-adv-x="390" 
d="M-13 20q0 49 31 83.5t82 41.5l-1 -10q-27 10 -42 32t-15 52q0 40 20 70.5t55.5 47.5t81.5 17q64 0 104.5 -33.5t40.5 -86.5q0 -41 -24 -69.5t-66 -37.5l1 7q35 -5 56 -33t21 -66q0 -43 -22 -75t-62 -50t-94 -18q-73 0 -120 36t-47 92zM86 32q0 -24 20 -38.5t54 -14.5
q36 0 56 16t20 44q0 24 -19.5 38.5t-53.5 14.5q-35 0 -56 -16.5t-21 -43.5zM123 219q0 -22 18 -35.5t46 -13.5q32 0 51 14t19 39q0 22 -17.5 35.5t-46.5 13.5q-32 0 -51 -14t-19 -39z" />
    <glyph glyph-name="nine.inferior" unicode="&#x2089;" horiz-adv-x="392" 
d="M259 13l-103 -113h-117l146 159h30q-10 -10 -28.5 -17.5t-35.5 -7.5q-61 0 -100.5 37t-39.5 94q0 55 25 97t69 66.5t100 24.5q44 0 79.5 -19t56 -51.5t20.5 -73.5q0 -45 -23.5 -90t-78.5 -106zM263 200q0 30 -19.5 49t-49.5 19q-36 0 -60.5 -25.5t-24.5 -63.5
q0 -30 19 -49t49 -19q37 0 61.5 25.5t24.5 63.5z" />
    <glyph glyph-name="Euro" unicode="&#x20ac;" horiz-adv-x="585" 
d="M386 -12q-95 0 -164.5 40.5t-107 113.5t-37.5 170q0 98 33 178.5t93 140t141 91.5t177 32q28 0 53 -4t43 -9l-23 -147q-21 6 -45.5 9.5t-41.5 3.5q-87 0 -148 -33t-93.5 -98t-32.5 -160q0 -67 21.5 -106.5t63 -57t100.5 -17.5q53 0 116 18l-24 -152q-36 -7 -65.5 -10
t-58.5 -3zM461 227h-452l17 109h452zM488 396h-452l17 110h452z" />
    <glyph glyph-name="numero" unicode="&#x2116;" horiz-adv-x="1288" 
d="M193 0h-155l117 740h155l268 -551h-48l87 551h155l-117 -740h-155l-268 550h48zM1286 546q0 -57 -19.5 -105t-55.5 -83.5t-84 -55t-105 -19.5q-62 0 -112.5 27.5t-80 74.5t-29.5 104q0 75 35.5 134.5t95.5 94.5t135 35q63 0 112.5 -27.5t78.5 -74t29 -105.5zM1147 531
q0 40 -25.5 64t-66.5 24q-34 0 -60.5 -14.5t-41.5 -40t-15 -58.5q0 -39 27 -66t67 -27q33 0 59 15.5t41 42t15 60.5zM1199 112h-440l20 128h440z" />
    <glyph glyph-name="soundcopyright" unicode="&#x2117;" horiz-adv-x="512" 
d="M280 312q-90 0 -144 53t-54 141q0 69 32 125.5t86.5 89.5t121.5 33q90 0 144 -52.5t54 -141.5q0 -69 -32 -125.5t-86.5 -89.5t-121.5 -33zM282 352q55 0 98.5 27.5t69.5 75t26 105.5q0 72 -41 113t-115 41q-54 0 -98 -27.5t-70 -74.5t-26 -106q0 -72 41.5 -113t114.5 -41
zM247 408h-44l39 246h96q37 0 59.5 -21t22.5 -55q0 -43 -29.5 -71.5t-77.5 -28.5h-55zM280 612l-15 -92h55q26 0 40.5 14.5t14.5 38.5q0 19 -11 29t-31 10h-53z" />
    <glyph glyph-name="trademark" unicode="&#x2122;" horiz-adv-x="646" 
d="M187 689h-92l8 51h239l-8 -51h-92l-37 -236h-55zM380 453h-51l45 287h50l57 -232l130 232h52l-45 -287h-51l28 175l-99 -175h-44l-45 175z" />
    <glyph glyph-name="estimated" unicode="&#x212e;" horiz-adv-x="788" 
d="M82 353q0 106 42.5 186t117 125.5t170.5 45.5q97 0 171 -39.5t116 -113t42 -176.5v-28t-1 -25h-558v-180q39 -55 101 -86t141 -31q77 0 142 37t96 96l38 -14q-37 -73 -110.5 -116t-167.5 -43q-102 0 -178.5 45.5t-119 127t-42.5 189.5zM182 546v-182h459v200
q-37 51 -97.5 78.5t-131.5 27.5q-75 0 -134 -34t-96 -90z" />
    <glyph glyph-name="oneeighth" unicode="&#x215b;" horiz-adv-x="785" 
d="M164 669h-84l11 71h166l-58 -372h-82zM727 710l-583 -710h-116l583 710h116zM454 103q0 40 25.5 68t65.5 32l-1 -7q-20 6 -32.5 26t-12.5 46q0 48 37.5 79.5t93.5 31.5q52 0 82.5 -26.5t30.5 -72.5q0 -35 -20 -60t-53 -30l1 7q30 -7 47 -29.5t17 -53.5q0 -53 -42 -86.5
t-109 -33.5q-35 0 -65 15t-47.5 40t-17.5 54zM536 112q0 -21 15.5 -33.5t40.5 -12.5q26 0 43.5 14.5t17.5 34.5q0 22 -14.5 34.5t-39.5 12.5q-28 0 -45.5 -14t-17.5 -36zM570 266q0 -18 13 -28.5t35 -10.5q23 0 38 12t15 30q0 19 -12.5 29.5t-33.5 10.5q-24 0 -39.5 -12
t-15.5 -31z" />
    <glyph glyph-name="threeeighths" unicode="&#x215c;" horiz-adv-x="820" 
d="M56 491h83q0 -25 13.5 -40t37.5 -15q22 0 35 13t13 35q0 26 -17.5 41t-47.5 15h-38l8 54l89 71h-132l12 75h238l-10 -68l-148 -119l4 51q54 1 90 -31.5t36 -82.5q0 -58 -37 -93.5t-99 -35.5q-58 0 -94 36t-36 94zM762 710l-583 -710h-116l583 710h116zM489 103
q0 40 25.5 68t65.5 32l-1 -7q-20 6 -32.5 26t-12.5 46q0 48 37.5 79.5t93.5 31.5q52 0 82.5 -26.5t30.5 -72.5q0 -35 -20 -60t-53 -30l1 7q30 -7 47 -29.5t17 -53.5q0 -53 -42 -86.5t-109 -33.5q-35 0 -65 15t-47.5 40t-17.5 54zM571 112q0 -21 15.5 -33.5t40.5 -12.5
q26 0 43.5 14.5t17.5 34.5q0 22 -14.5 34.5t-39.5 12.5q-28 0 -45.5 -14t-17.5 -36zM605 266q0 -18 13 -28.5t35 -10.5q23 0 38 12t15 30q0 19 -12.5 29.5t-33.5 10.5q-24 0 -39.5 -12t-15.5 -31z" />
    <glyph glyph-name="fiveeighths" unicode="&#x215d;" horiz-adv-x="846" 
d="M198 361q-61 0 -97.5 35.5t-36.5 94.5h83q0 -25 14.5 -40t38.5 -15q27 0 44.5 20t17.5 51q0 24 -13.5 38t-36.5 14q-37 0 -55 -30l-76 10l79 201h206l-12 -75h-161l22 16l-38 -89l-31 -18q29 53 93 53q51 0 79.5 -30t28.5 -85q0 -43 -19.5 -77.5t-53 -54t-76.5 -19.5z
M788 710l-583 -710h-116l583 710h116zM515 103q0 40 25.5 68t65.5 32l-1 -7q-20 6 -32.5 26t-12.5 46q0 48 37.5 79.5t93.5 31.5q52 0 82.5 -26.5t30.5 -72.5q0 -35 -20 -60t-53 -30l1 7q30 -7 47 -29.5t17 -53.5q0 -53 -42 -86.5t-109 -33.5q-35 0 -65 15t-47.5 40
t-17.5 54zM597 112q0 -21 15.5 -33.5t40.5 -12.5q26 0 43.5 14.5t17.5 34.5q0 22 -14.5 34.5t-39.5 12.5q-28 0 -45.5 -14t-17.5 -36zM631 266q0 -18 13 -28.5t35 -10.5q23 0 38 12t15 30q0 19 -12.5 29.5t-33.5 10.5q-24 0 -39.5 -12t-15.5 -31z" />
    <glyph glyph-name="seveneighths" unicode="&#x215e;" horiz-adv-x="770" 
d="M261 665h-182l12 75h270l-12 -75l-162 -297h-91zM712 710l-583 -710h-116l583 710h116zM439 103q0 40 25.5 68t65.5 32l-1 -7q-20 6 -32.5 26t-12.5 46q0 48 37.5 79.5t93.5 31.5q52 0 82.5 -26.5t30.5 -72.5q0 -35 -20 -60t-53 -30l1 7q30 -7 47 -29.5t17 -53.5
q0 -53 -42 -86.5t-109 -33.5q-35 0 -65 15t-47.5 40t-17.5 54zM521 112q0 -21 15.5 -33.5t40.5 -12.5q26 0 43.5 14.5t17.5 34.5q0 22 -14.5 34.5t-39.5 12.5q-28 0 -45.5 -14t-17.5 -36zM555 266q0 -18 13 -28.5t35 -10.5q23 0 38 12t15 30q0 19 -12.5 29.5t-33.5 10.5
q-24 0 -39.5 -12t-15.5 -31z" />
    <glyph glyph-name="arrowleft" unicode="&#x2190;" horiz-adv-x="1021" 
d="M528 6l-81 -82l-379 377l379 379l81 -80l-240 -241h672v-114h-672z" />
    <glyph glyph-name="arrowup" unicode="&#x2191;" horiz-adv-x="876" 
d="M179 411l-81 81l378 378l378 -378l-81 -81l-240 240v-651h-114v651z" />
    <glyph glyph-name="arrowright" unicode="&#x2192;" horiz-adv-x="1020" 
d="M510 607l81 80l378 -378l-378 -377l-81 81l240 240h-672v113l672 1z" />
    <glyph glyph-name="arrowdown" unicode="&#x2193;" horiz-adv-x="875" 
d="M737 336l79 -82l-378 -378l-377 378l82 82l239 -240v671h114v-672z" />
    <glyph glyph-name="arrowboth" unicode="&#x2194;" horiz-adv-x="1174" 
d="M1036 226h-523v115l524 -2zM809 429v162l310 -307l-310 -310v161l158 147zM683 341l1 -115h-524v113zM65 284l310 307v-162l-158 -147l158 -147v-161z" />
    <glyph glyph-name="arrowupdn" unicode="&#x2195;" horiz-adv-x="806" 
d="M473 777v-523h-115l2 524zM270 550h-162l307 310l310 -310h-161l-147 158zM358 424l115 1v-524h-113zM415 -194l-307 310h162l147 -158l147 158h161z" />
    <glyph glyph-name="arrowNW" unicode="&#x2196;" horiz-adv-x="940" 
d="M138 740l534 -1v-115h-339l520 -544l-80 -80l-521 544v-340l-114 1v535z" />
    <glyph glyph-name="arrowNE" unicode="&#x2197;" horiz-adv-x="841" 
d="M239 626v114h535v-534h-115v339l-545 -545l-81 80l545 546h-339z" />
    <glyph glyph-name="arrowSE" unicode="&#x2198;" horiz-adv-x="964" 
d="M750 536l114 -1v-535l-534 1v115h339l-544 544l80 80l545 -544v340z" />
    <glyph glyph-name="arrowSW" unicode="&#x2199;" horiz-adv-x="841" 
d="M640 114l-1 -114h-535l1 534h115v-339l546 547l80 -80l-546 -548h340z" />
    <glyph glyph-name="partialdiff" unicode="&#x2202;" horiz-adv-x="640" 
d="M43 231q0 64 22 119t61.5 96t92.5 64t114 23q53 0 94.5 -17t60.5 -48l-16 -18q-16 42 -42.5 93.5t-60 106t-70.5 104.5h173q52 -72 82 -132t43 -120t13 -134q0 -111 -39 -196.5t-108 -134t-159 -48.5q-80 0 -139 29.5t-90.5 84t-31.5 128.5zM200 239q0 -53 27.5 -84
t74.5 -31q38 0 70 23t51 61.5t19 83.5q0 52 -27.5 79t-80.5 27q-36 0 -66.5 -22t-49 -58t-18.5 -79z" />
    <glyph glyph-name="emptyset" unicode="&#x2205;" horiz-adv-x="854" 
d="M409 -12q-96 0 -171 41t-118 114t-43 169q0 93 31 173t86.5 140t129 93.5t158.5 33.5q97 0 172 -41t118 -114t43 -170q0 -93 -31.5 -173t-87 -139.5t-129 -93t-158.5 -33.5zM424 141q46 0 86.5 20.5t71.5 57.5t48.5 86t17.5 106q0 60 -22.5 102t-63 64.5t-94.5 22.5
q-46 0 -86.5 -20.5t-71.5 -57.5t-48.5 -86.5t-17.5 -106.5q0 -58 22.5 -100.5t63.5 -65t94 -22.5zM879 662l-800 -654l-66 74l801 654z" />
    <glyph glyph-name="increment" unicode="&#x2206;" horiz-adv-x="709" 
d="M619 0h-609l21 132l331 608h138l140 -608zM380 483l-186 -351h298l-81 351q-4 15 -5.5 24l-3.5 21q-6 -13 -11.5 -24z" />
    <glyph glyph-name="product" unicode="&#x220f;" horiz-adv-x="712" 
d="M194 0h-156l117 740h557l-117 -740h-156l94 594h-245z" />
    <glyph glyph-name="summation" unicode="&#x2211;" horiz-adv-x="587" 
d="M497 0h-486l25 158l241 224l-174 201l25 157h486l-23 -146h-317l186 -219l-241 -229h301z" />
    <glyph glyph-name="minus" unicode="&#x2212;" 
d="M109 397h489l-20 -120h-489z" />
    <glyph glyph-name="radical" unicode="&#x221a;" horiz-adv-x="738" 
d="M152 0l-113 500h147l63 -306l286 546h260l-21 -135h-150l-327 -605h-145z" />
    <glyph glyph-name="infinity" unicode="&#x221e;" horiz-adv-x="906" 
d="M44 262q0 70 31.5 125.5t86 87.5t122.5 32q67 0 111 -27.5t70 -86.5q35 56 91 85t126 29q55 0 98 -24.5t68.5 -67t25.5 -95.5q0 -72 -29.5 -127t-81 -86.5t-119.5 -31.5q-65 0 -111 27.5t-80 85.5q-37 -42 -69 -67t-65 -35.5t-73 -10.5q-55 0 -101 25.5t-73.5 68
t-27.5 93.5zM179 282q0 -35 21.5 -57t55.5 -22q74 0 117 87q-7 42 -33 65t-66 23q-27 0 -48.5 -12.5t-34 -34t-12.5 -49.5zM545 291q7 -42 33 -65t66 -23q28 0 49 12.5t33.5 34t12.5 49.5q0 35 -21 57t-56 22q-73 0 -117 -87z" />
    <glyph glyph-name="integral" unicode="&#x222b;" horiz-adv-x="476" 
d="M75 -12h-86l22 136h74q58 0 70 74l55 344q34 212 231 212h85l-22 -136h-74q-57 0 -69 -76l-55 -344q-34 -210 -231 -210z" />
    <glyph glyph-name="approxequal" unicode="&#x2248;" 
d="M488 505h112q-15 -89 -56.5 -136t-106.5 -47q-34 0 -59.5 10.5t-46 23.5t-40 23.5t-42.5 10.5q-22 0 -36 -15t-19 -45h-112q14 87 56 133t106 46q34 0 59 -10.5t45.5 -23.5t40.5 -23.5t44 -10.5q23 0 36.5 16t18.5 48zM488 295h112q-15 -89 -56.5 -136t-106.5 -47
q-34 0 -59.5 10.5t-46 23.5t-40 23.5t-42.5 10.5q-22 0 -36 -15t-19 -45h-112q14 87 56 133t106 46q34 0 59 -10.5t45.5 -23.5t40.5 -23.5t44 -10.5q23 0 36.5 16t18.5 48z" />
    <glyph glyph-name="notequal" unicode="&#x2260;" 
d="M72 19l395 571h139l-395 -571h-139zM121 476h488l-19 -120h-488zM87 252h488l-20 -120h-488z" />
    <glyph glyph-name="lessequal" unicode="&#x2264;" 
d="M577 260l-23 -140l-462 175l25 159l517 174l-23 -152l-364 -108zM45 0l20 120h489l-20 -120h-489z" />
    <glyph glyph-name="greaterequal" unicode="&#x2265;" 
d="M582 294l-516 -174l23 152l363 108l-329 108l23 140l461 -175zM66 120h488l-20 -120h-488z" />
    <glyph glyph-name="filledbox" unicode="&#x25a0;" horiz-adv-x="943" 
d="M133 0v710h710v-710h-710z" />
    <glyph glyph-name="squarewhite" unicode="&#x25a1;" horiz-adv-x="943" 
d="M133 0v710h710v-710h-710zM731 598h-486v-486h486v486z" />
    <glyph glyph-name="triagup" unicode="&#x25b2;" horiz-adv-x="966" 
d="M20 0h846l-423 710z" />
    <glyph glyph-name="triangleupwhite" unicode="&#x25b3;" horiz-adv-x="966" 
d="M193 99h502l-251 420zM445 714l422 -710h-846z" />
    <glyph glyph-name="lozenge" unicode="&#x25ca;" horiz-adv-x="664" 
d="M77 355l199 355h146l-190 -355h-155zM276 710h146l199 -355h-155zM422 0h-146l-199 355h155zM621 355l-199 -355h-146l190 355h155z" />
    <glyph glyph-name="circle" unicode="&#x25cb;" horiz-adv-x="904" 
d="M465 -54q-80 0 -150.5 30t-123.5 83.5t-83 123.5t-30 150t30 150.5t83.5 123.5t123.5 83t150 30t150 -30t123 -83.5t83.5 -123.5t30.5 -150t-30 -150.5t-83.5 -123.5t-123.5 -83t-150 -30zM465 46q59 0 111 22.5t91.5 62t62 91.5t22.5 111t-22.5 111t-62 91.5t-91.5 62
t-111 22.5t-111 -22.5t-91.5 -62t-62 -91.5t-22.5 -111t22.5 -111t62 -91.5t91.5 -62t111 -22.5z" />
    <glyph glyph-name="circleblack" unicode="&#x25cf;" horiz-adv-x="904" 
d="M465 -54q-80 0 -150.5 30t-123.5 83.5t-83 123.5t-30 150t30 150.5t83.5 123.5t123.5 83t150 30t150 -30t123 -83.5t83.5 -123.5t30.5 -150t-30 -150.5t-83.5 -123.5t-123.5 -83t-150 -30z" />
    <glyph glyph-name="peace" unicode="&#x262e;" horiz-adv-x="904" 
d="M465 -54q-80 0 -150.5 30t-123.5 83.5t-83 123.5t-30 150t30 150.5t83.5 123.5t123.5 83t150 30t150 -30t123 -83.5t83.5 -123.5t30.5 -150t-30 -150.5t-83.5 -123.5t-123.5 -83t-150 -30zM465 46q59 0 111 22.5t91.5 62t62 91.5t22.5 111t-22.5 111t-62 91.5t-91.5 62
t-111 22.5t-111 -22.5t-91.5 -62t-62 -91.5t-22.5 -111t22.5 -111t62 -91.5t91.5 -62t111 -22.5zM510 681v-680h-90v680h90zM465 411l297 -209l-52 -74l-245 173l-245 -173l-52 74z" />
    <glyph glyph-name="check" unicode="&#x2713;" horiz-adv-x="648" 
d="M256 7l-217 234l86 91l127 -135l296 357l95 -82z" />
    <glyph glyph-name="ITF" unicode="&#xf8ff;" horiz-adv-x="1810" 
d="M131 0v700h216v-700h-216zM392 496v204h216v-204h-216zM652 0v700h217v-700h-217zM913 496v204h216v-204h-216zM1173 0v700h217v-700h-217zM1434 496v204h216v-204h-216zM1434 247v205h216v-205h-216z" />
    <glyph glyph-name="G.ss01" horiz-adv-x="779" 
d="M53 313q0 96 30 176t85 139t129.5 91.5t162.5 32.5t153.5 -32t104 -91t43.5 -141h-169q-10 56 -48.5 85t-103.5 29q-49 0 -89 -20t-69.5 -57.5t-45.5 -88.5t-16 -113q0 -59 20.5 -101t59 -64t92.5 -22q85 0 135 52.5t53 141.5l54 -61h-242l22 138h347l-15 -106
q-13 -94 -64 -164.5t-130 -109.5t-178 -39q-98 0 -170 40t-111.5 113t-39.5 172z" />
    <glyph glyph-name="idotaccent" horiz-adv-x="264" 
d="M18 0l79 500h149l-79 -500h-149zM182 567q-31 0 -49 18.5t-18 49.5q0 38 28 65.5t65 27.5q30 0 48.5 -18.5t18.5 -49.5q0 -37 -27.5 -65t-65.5 -28z" />
    <glyph glyph-name="a.ss01" horiz-adv-x="628" 
d="M471 500h140l-80 -500h-140l1 63q-27 -35 -66 -55t-91 -20q-59 0 -105.5 29t-73 81t-26.5 120q0 88 34 154.5t93 104t134 37.5q52 0 97 -22t65 -56zM423 274q0 49 -28 79t-76 30q-38 0 -70 -20.5t-51 -55.5t-19 -79q0 -49 28 -79t76 -30q39 0 70.5 20.5t50.5 56t19 78.5z
" />
    <glyph glyph-name="g.ss02" horiz-adv-x="556" 
d="M159 174l17 -43q-25 0 -40.5 -11t-15.5 -29q0 -33 53 -33h144q86 0 129 -32t43 -96q0 -92 -78.5 -138t-236.5 -46q-109 0 -166.5 28.5t-57.5 82.5q0 47 42.5 77t110.5 31l21 -23q-22 -1 -33.5 -10.5t-11.5 -26.5q0 -21 28 -30.5t91 -9.5q75 0 109.5 12t34.5 37
q0 28 -48 28h-171q-61 0 -96 27t-35 76q0 56 43 89t124 40zM474 412l-60 52q17 48 61.5 78t97.5 30h12t8 -1l-19 -118q-2 1 -4.5 1h-12.5q-27 0 -49.5 -11t-33.5 -31zM53 292q0 64 32 114t87.5 79.5t125.5 29.5q35 0 71 -10t68 -28l40 -54q17 -17 26 -44t9 -57
q0 -61 -31 -108t-86 -74t-127 -27q-63 0 -111.5 23t-76 63.5t-27.5 92.5zM198 302q0 -33 21 -52t58 -19q39 0 64.5 27.5t25.5 67.5q0 32 -21 51.5t-56 19.5q-26 0 -47 -12.5t-33 -34t-12 -48.5z" />
    <glyph glyph-name="t.ss03" horiz-adv-x="367" 
d="M51 499h332l-20 -124h-332zM325 130l-2 -127q-22 -7 -45 -11t-53 -4q-50 0 -88 19.5t-56 60t-8 104.5l76 482h149l-71 -451q-7 -42 5.5 -62t41.5 -20q23 0 51 9z" />
    <glyph glyph-name="f_y" horiz-adv-x="851" 
d="M51 500h334l30 -124h-384zM424 748l-20 -128h-22.5h-19.5q-39 0 -61 -18.5t-28 -59.5l-85 -542h-148l86 542q17 104 76 158t156 54q15 0 32.5 -1.5t33.5 -4.5zM496 500l76 -436l-91 -171l-135 607h150zM242 -239l20 126h82q20 0 36.5 7t31 22.5t27.5 40.5l285 543h163
l-344 -609q-37 -64 -83.5 -103.5t-120.5 -39.5q-28 0 -52 3.5t-45 9.5z" />
    <glyph glyph-name="t_i" horiz-adv-x="641" 
d="M51 500h485l-20 -124h-485zM214 0h-149l103 654h149zM395 0l79 500h149l-79 -500h-149zM560 580q-31 0 -51.5 20.5t-20.5 51.5q0 26 14 48.5t37 36.5t49 14q32 0 52 -20.5t20 -51.5q0 -25 -14 -48t-37 -37t-49 -14z" />
    <glyph glyph-name="t_t" horiz-adv-x="703" 
d="M51 500h375l-20 -124h-375zM214 0h-149l103 654h149zM397 500h335l-20 -124h-335zM560 0h-149l103 654h149z" />
    <glyph glyph-name="t_y" horiz-adv-x="875" 
d="M51 500h395l-20 -124h-395zM214 0h-149l103 654h149zM520 500l76 -436l-91 -171l-135 607h150zM266 -239l20 126h82q20 0 36.5 7t31 22.5t27.5 40.5l285 543h163l-344 -609q-37 -64 -83.5 -103.5t-120.5 -39.5q-28 0 -52 3.5t-45 9.5z" />
    <glyph glyph-name="zero.tf" 
d="M45 280q0 103 25.5 189.5t72.5 150t110.5 98.5t139.5 35q81 0 139 -35.5t89.5 -100.5t31.5 -156q0 -103 -25.5 -189.5t-72.5 -150t-110.5 -98.5t-139.5 -35q-80 0 -138.5 35.5t-90 101t-31.5 155.5zM200 281q0 -75 30 -115t86 -40q39 0 72.5 25t58 70t38 106t13.5 133
q0 75 -30 115t-86 40q-39 0 -72.5 -25t-58 -70t-38 -106t-13.5 -133z" />
    <glyph glyph-name="one.tf" 
d="M242 138l75 478h-178l19 124h333l-95 -602h186l-22 -138h-518l22 138h178z" />
    <glyph glyph-name="two.tf" 
d="M556 0h-516l19 117l288 208q47 34 74 63.5t38.5 61t11.5 70.5q0 45 -25 71t-69 26q-51 0 -83 -37t-37 -100h-157q9 85 47 146t100.5 94.5t142.5 33.5q75 0 129.5 -28t84.5 -78.5t30 -120.5q0 -57 -22.5 -110.5t-68 -103.5t-114.5 -97l-190 -132l-36 64h376z" />
    <glyph glyph-name="three.tf" 
d="M611 614l-283 -232l-104 69l276 226l-40 -75h-322l22 138h471zM306 350h-98l16 101q18 8 51.5 13t76.5 5q67 0 118 -29t80.5 -79.5t29.5 -115.5q0 -77 -34 -135t-95 -90.5t-142 -32.5t-139.5 30.5t-90 88t-31.5 136.5h155q0 -55 27.5 -85.5t76.5 -30.5q34 0 58.5 14.5
t38 41t13.5 62.5q0 50 -29 78t-82 28z" />
    <glyph glyph-name="four.tf" 
d="M616 740l-117 -740h-148l117 740h148zM33 270l384 470h172l-392 -481zM609 132h-598l22 138h598z" />
    <glyph glyph-name="five.tf" 
d="M317 -13q-81 0 -139.5 30.5t-90 88t-31.5 136.5h155q0 -55 27.5 -85.5t76.5 -30.5q36 0 63 16t42 45t15 67q0 56 -28.5 90.5t-75.5 34.5q-35 0 -63.5 -15.5t-48.5 -47.5l-139 28l154 396h392l-23 -146h-310l47 40l-82 -197l-47 -30q31 54 69.5 78t95.5 24q68 0 118.5 -30
t78.5 -84t28 -127q0 -81 -37 -144.5t-101 -100t-146 -36.5z" />
    <glyph glyph-name="six.tf" 
d="M210 551l170 189h193l-240 -265h-50q17 17 47.5 29t59.5 12q68 0 119.5 -28.5t80.5 -77.5t29 -112q0 -89 -41.5 -159.5t-113.5 -111t-165 -40.5q-74 0 -132 32t-91 86t-33 120t25 123.5t63.5 107.5t78.5 95zM209 240q0 -31 13.5 -56t38.5 -39.5t58 -14.5q38 0 68.5 19
t48 52.5t17.5 74.5q0 47 -29 78t-79 31q-38 0 -69 -18.5t-49 -51.5t-18 -75z" />
    <glyph glyph-name="seven.tf" 
d="M141 740h537l-23 -146h-537zM527 671l128 -77l-335 -594h-175z" />
    <glyph glyph-name="eight.tf" 
d="M35 208q0 53 24.5 97.5t67.5 74.5t96 36l-3 -26q-50 17 -77.5 54.5t-27.5 87.5q0 66 35 116t97 78t143 28q74 0 130.5 -24t88.5 -66.5t32 -98.5q0 -71 -44.5 -122.5t-115.5 -63.5l3 21q59 -12 94.5 -57.5t35.5 -109.5q0 -73 -38 -128t-106 -86t-159 -31
q-82 0 -144.5 27.5t-97 77.5t-34.5 115zM190 220q0 -41 37 -68.5t93 -27.5q43 0 74.5 13t48.5 37t17 56q0 42 -37.5 67.5t-99.5 25.5q-41 0 -71 -12.5t-46 -35.5t-16 -55zM256 528q0 -36 33 -57t89 -21q52 0 83.5 24t31.5 64q0 36 -32 58.5t-83 22.5q-37 0 -64.5 -11.5
t-42.5 -31.5t-15 -48z" />
    <glyph glyph-name="nine.tf" 
d="M487 189l-170 -189h-193l240 265h50q-17 -16 -47.5 -28.5t-59.5 -12.5q-67 0 -119 28.5t-81 78t-29 111.5q0 90 41.5 160t114 110.5t164.5 40.5q75 0 132.5 -32t90.5 -86t33 -120t-25 -123.5t-63 -107.5t-79 -95zM488 500q0 32 -13.5 56.5t-38 39t-58.5 14.5
q-38 0 -68.5 -19t-48 -52t-17.5 -75q0 -47 29 -78t79 -31q39 0 69.5 19t48.5 51.5t18 74.5z" />
    <glyph glyph-name="zero.dnom" horiz-adv-x="373" 
d="M19 140q0 68 24 122t64.5 85.5t91.5 31.5q65 0 100 -38.5t35 -109.5q0 -67 -23.5 -121t-64 -85.5t-90.5 -31.5q-65 0 -101 38.5t-36 108.5zM102 140q0 -37 14 -56t42 -19q27 0 48 21.5t33 59.5t12 85q0 38 -13.5 57t-40.5 19t-48.5 -22t-34 -59.5t-12.5 -85.5z" />
    <glyph glyph-name="one.dnom" horiz-adv-x="233" 
d="M106 301h-84l11 71h166l-58 -372h-82z" />
    <glyph glyph-name="two.dnom" horiz-adv-x="323" 
d="M261 0h-267l10 62l145 117q32 26 44 43.5t12 36.5q0 20 -11.5 32.5t-31.5 12.5q-24 0 -39 -14t-19 -40h-83q10 64 47.5 96.5t99.5 32.5q55 0 89 -32.5t34 -85.5q0 -36 -20 -67t-67 -69l-84 -69l-38 19h191z" />
    <glyph glyph-name="three.dnom" horiz-adv-x="308" 
d="M-2 123h83q0 -25 13.5 -40t37.5 -15q22 0 35 13t13 35q0 26 -17.5 41t-47.5 15h-38l8 54l89 71h-132l12 75h238l-10 -68l-148 -119l4 51q54 1 90 -31.5t36 -82.5q0 -58 -37 -93.5t-99 -35.5q-58 0 -94 36t-36 94z" />
    <glyph glyph-name="four.dnom" horiz-adv-x="337" 
d="M159 68h-175l10 66l181 238h89l-171 -230h78l36 230h79l-36 -230h48l-12 -74h-48l-11 -68h-79z" />
    <glyph glyph-name="five.dnom" horiz-adv-x="334" 
d="M140 -7q-61 0 -97.5 35.5t-36.5 94.5h83q0 -25 14.5 -40t38.5 -15q27 0 44.5 20t17.5 51q0 24 -13.5 38t-36.5 14q-37 0 -55 -30l-76 10l79 201h206l-12 -75h-161l22 16l-38 -89l-31 -18q29 53 93 53q51 0 79.5 -30t28.5 -85q0 -43 -19.5 -77.5t-53 -54t-76.5 -19.5z" />
    <glyph glyph-name="six.dnom" horiz-adv-x="334" 
d="M87 277l86 95h99l-121 -134h-27q8 9 23.5 15t29.5 6q51 0 84 -30.5t33 -77.5q0 -45 -21 -81t-57.5 -56.5t-83.5 -20.5q-36 0 -65.5 16t-47 43.5t-17.5 60.5q0 38 19.5 75t65.5 89zM87 122q0 -24 15 -39.5t39 -15.5q29 0 48.5 20t19.5 51q0 24 -15 39t-39 15
q-29 0 -48.5 -20t-19.5 -50z" />
    <glyph glyph-name="seven.dnom" horiz-adv-x="298" 
d="M203 297h-182l12 75h270l-12 -75l-162 -297h-91z" />
    <glyph glyph-name="eight.dnom" horiz-adv-x="336" 
d="M5 103q0 40 25.5 68t65.5 32l-1 -7q-20 6 -32.5 26t-12.5 46q0 48 37.5 79.5t93.5 31.5q52 0 82.5 -26.5t30.5 -72.5q0 -35 -20 -60t-53 -30l1 7q30 -7 47 -29.5t17 -53.5q0 -53 -42 -86.5t-109 -33.5q-35 0 -65 15t-47.5 40t-17.5 54zM87 112q0 -21 15.5 -33.5
t40.5 -12.5q26 0 43.5 14.5t17.5 34.5q0 22 -14.5 34.5t-39.5 12.5q-28 0 -45.5 -14t-17.5 -36zM121 266q0 -18 13 -28.5t35 -10.5q23 0 38 12t15 30q0 19 -12.5 29.5t-33.5 10.5q-24 0 -39.5 -12t-15.5 -31z" />
    <glyph glyph-name="nine.dnom" horiz-adv-x="335" 
d="M227 95l-86 -95h-99l121 134h27q-8 -9 -23.5 -15t-29.5 -6q-51 0 -84 30.5t-33 77.5q0 46 21 81.5t57.5 56t83.5 20.5q37 0 66 -16t46.5 -43t17.5 -61q0 -37 -19 -74.5t-66 -89.5zM227 250q0 24 -15 39.5t-39 15.5q-29 0 -48.5 -20t-19.5 -51q0 -24 15 -39t39 -15
q29 0 48.5 20t19.5 50z" />
    <glyph glyph-name="zero.numr" horiz-adv-x="373" 
d="M77 508q0 68 24 122t64.5 85.5t91.5 31.5q65 0 100 -38.5t35 -109.5q0 -67 -23.5 -121t-64 -85.5t-90.5 -31.5q-65 0 -101 38.5t-36 108.5zM160 508q0 -37 14 -56t42 -19q27 0 48 21.5t33 59.5t12 85q0 38 -13.5 57t-40.5 19t-48.5 -22t-34 -59.5t-12.5 -85.5z" />
    <glyph glyph-name="one.numr" horiz-adv-x="233" 
d="M164 669h-84l11 71h166l-58 -372h-82z" />
    <glyph glyph-name="two.numr" horiz-adv-x="323" 
d="M319 368h-267l10 62l145 117q32 26 44 43.5t12 36.5q0 20 -11.5 32.5t-31.5 12.5q-24 0 -39 -14t-19 -40h-83q10 64 47.5 96.5t99.5 32.5q55 0 89 -32.5t34 -85.5q0 -36 -20 -67t-67 -69l-84 -69l-38 19h191z" />
    <glyph glyph-name="three.numr" horiz-adv-x="308" 
d="M56 491h83q0 -25 13.5 -40t37.5 -15q22 0 35 13t13 35q0 26 -17.5 41t-47.5 15h-38l8 54l89 71h-132l12 75h238l-10 -68l-148 -119l4 51q54 1 90 -31.5t36 -82.5q0 -58 -37 -93.5t-99 -35.5q-58 0 -94 36t-36 94z" />
    <glyph glyph-name="four.numr" horiz-adv-x="337" 
d="M217 436h-175l10 66l181 238h89l-171 -230h78l36 230h79l-36 -230h48l-12 -74h-48l-11 -68h-79z" />
    <glyph glyph-name="five.numr" horiz-adv-x="334" 
d="M198 361q-61 0 -97.5 35.5t-36.5 94.5h83q0 -25 14.5 -40t38.5 -15q27 0 44.5 20t17.5 51q0 24 -13.5 38t-36.5 14q-37 0 -55 -30l-76 10l79 201h206l-12 -75h-161l22 16l-38 -89l-31 -18q29 53 93 53q51 0 79.5 -30t28.5 -85q0 -43 -19.5 -77.5t-53 -54t-76.5 -19.5z
" />
    <glyph glyph-name="six.numr" horiz-adv-x="334" 
d="M145 645l86 95h99l-121 -134h-27q8 9 23.5 15t29.5 6q51 0 84 -30.5t33 -77.5q0 -45 -21 -81t-57.5 -56.5t-83.5 -20.5q-36 0 -65.5 16t-47 43.5t-17.5 60.5q0 38 19.5 75t65.5 89zM145 490q0 -24 15 -39.5t39 -15.5q29 0 48.5 20t19.5 51q0 24 -15 39t-39 15
q-29 0 -48.5 -20t-19.5 -50z" />
    <glyph glyph-name="seven.numr" horiz-adv-x="298" 
d="M261 665h-182l12 75h270l-12 -75l-162 -297h-91z" />
    <glyph glyph-name="eight.numr" horiz-adv-x="336" 
d="M63 471q0 40 25.5 68t65.5 32l-1 -7q-20 6 -32.5 26t-12.5 46q0 48 37.5 79.5t93.5 31.5q52 0 82.5 -26.5t30.5 -72.5q0 -35 -20 -60t-53 -30l1 7q30 -7 47 -29.5t17 -53.5q0 -53 -42 -86.5t-109 -33.5q-35 0 -65 15t-47.5 40t-17.5 54zM145 480q0 -21 15.5 -33.5
t40.5 -12.5q26 0 43.5 14.5t17.5 34.5q0 22 -14.5 34.5t-39.5 12.5q-28 0 -45.5 -14t-17.5 -36zM179 634q0 -18 13 -28.5t35 -10.5q23 0 38 12t15 30q0 19 -12.5 29.5t-33.5 10.5q-24 0 -39.5 -12t-15.5 -31z" />
    <glyph glyph-name="nine.numr" horiz-adv-x="335" 
d="M285 463l-86 -95h-99l121 134h27q-8 -9 -23.5 -15t-29.5 -6q-51 0 -84 30.5t-33 77.5q0 46 21 81.5t57.5 56t83.5 20.5q37 0 66 -16t46.5 -43t17.5 -61q0 -37 -19 -74.5t-66 -89.5zM285 618q0 24 -15 39.5t-39 15.5q-29 0 -48.5 -20t-19.5 -51q0 -24 15 -39t39 -15
q29 0 48.5 20t19.5 50z" />
    <glyph glyph-name="registered.ss01" horiz-adv-x="606" 
d="M305 221q-67 0 -119 29t-81.5 80t-29.5 116t23 120.5t64.5 97.5t97 65.5t119.5 23.5q67 0 118 -28.5t80 -79t29 -116.5q0 -88 -39.5 -157.5t-107.5 -110t-154 -40.5zM308 275q68 0 122.5 33t86 90t31.5 128q0 53 -21 92t-60 60t-92 21q-68 0 -123 -33.5t-87 -90
t-32 -127.5q0 -53 21.5 -92t60.5 -60t93 -21zM276 354h-53l43 274h108q41 0 67 -22t26 -57q0 -31 -17 -55t-47 -35l34 -105h-55l-29 93h-63zM407 543q0 36 -43 36h-53l-13 -83h53q25 0 40.5 13.5t15.5 33.5z" />
    <glyph glyph-name="bracketleftsuperior" horiz-adv-x="225" 
d="M134 285h92l-12 -73h-179l106 674h179l-11 -73h-92z" />
    <glyph glyph-name="bracketrightsuperior" horiz-adv-x="225" 
d="M186 813h-91l11 73h179l-106 -674h-179l12 73h91z" />
    <glyph glyph-name="Gbreve.ss01" horiz-adv-x="779" 
d="M53 313q0 96 30 176t85 139t129.5 91.5t162.5 32.5t153.5 -32t104 -91t43.5 -141h-169q-10 56 -48.5 85t-103.5 29q-49 0 -89 -20t-69.5 -57.5t-45.5 -88.5t-16 -113q0 -59 20.5 -101t59 -64t92.5 -22q85 0 135 52.5t53 141.5l54 -61h-242l22 138h347l-15 -106
q-13 -94 -64 -164.5t-130 -109.5t-178 -39q-98 0 -170 40t-111.5 113t-39.5 172zM556 955h105q-13 -80 -55.5 -127.5t-128.5 -47.5q-79 0 -119.5 47t-40.5 128h103q0 -37 16.5 -57t47.5 -20q32 0 49 20.5t23 56.5z" />
    <glyph glyph-name="Gcircumflex.ss01" horiz-adv-x="779" 
d="M53 313q0 96 30 176t85 139t129.5 91.5t162.5 32.5t153.5 -32t104 -91t43.5 -141h-169q-10 56 -48.5 85t-103.5 29q-49 0 -89 -20t-69.5 -57.5t-45.5 -88.5t-16 -113q0 -59 20.5 -101t59 -64t92.5 -22q85 0 135 52.5t53 141.5l54 -61h-242l22 138h347l-15 -106
q-13 -94 -64 -164.5t-130 -109.5t-178 -39q-98 0 -170 40t-111.5 113t-39.5 172zM421 790h-117l123 173h144l69 -173h-107l-40 104z" />
    <glyph glyph-name="Gcommaaccent.ss01" horiz-adv-x="779" 
d="M53 313q0 96 30 176t85 139t129.5 91.5t162.5 32.5t153.5 -32t104 -91t43.5 -141h-169q-10 56 -48.5 85t-103.5 29q-49 0 -89 -20t-69.5 -57.5t-45.5 -88.5t-16 -113q0 -59 20.5 -101t59 -64t92.5 -22q85 0 135 52.5t53 141.5l54 -61h-242l22 138h347l-15 -106
q-13 -94 -64 -164.5t-130 -109.5t-178 -39q-98 0 -170 40t-111.5 113t-39.5 172zM360 -141l4 -12q-5 -5 -14 -8t-21 -3q-23 0 -36.5 14.5t-13.5 36.5q0 33 24 55.5t59 22.5q29 0 45.5 -19.5t16.5 -50.5q0 -43 -19.5 -76t-55 -50t-83.5 -11l7 46q44 -5 65 9.5t22 45.5z" />
    <glyph glyph-name="Gdotaccent.ss01" horiz-adv-x="779" 
d="M53 313q0 96 30 176t85 139t129.5 91.5t162.5 32.5t153.5 -32t104 -91t43.5 -141h-169q-10 56 -48.5 85t-103.5 29q-49 0 -89 -20t-69.5 -57.5t-45.5 -88.5t-16 -113q0 -59 20.5 -101t59 -64t92.5 -22q85 0 135 52.5t53 141.5l54 -61h-242l22 138h347l-15 -106
q-13 -94 -64 -164.5t-130 -109.5t-178 -39q-98 0 -170 40t-111.5 113t-39.5 172zM472 797q-31 0 -49 18.5t-18 49.5q0 38 28 65.5t65 27.5q30 0 48.5 -18.5t18.5 -49.5q0 -37 -27.5 -65t-65.5 -28z" />
    <glyph glyph-name="Q.ss04" horiz-adv-x="785" 
d="M770 427q0 -93 -30 -173t-83.5 -139.5t-125.5 -93t-157 -33.5q-96 0 -168.5 41t-113 114t-40.5 169q0 93 29.5 173t83 140t125.5 93.5t157 33.5q97 0 169.5 -41t113 -114t40.5 -170zM603 411q0 60 -20 102t-58 64.5t-92 22.5q-46 0 -85 -20.5t-68 -57.5t-45 -86.5
t-16 -106.5q0 -58 20 -100.5t58.5 -65t91.5 -22.5q46 0 85 20.5t68 57.5t45 86t16 106zM638 -132l-261 137l69 120l261 -137z" />
    <glyph glyph-name="aacute.ss01" horiz-adv-x="628" 
d="M471 500h140l-80 -500h-140l1 63q-27 -35 -66 -55t-91 -20q-59 0 -105.5 29t-73 81t-26.5 120q0 88 34 154.5t93 104t134 37.5q52 0 97 -22t65 -56zM423 274q0 49 -28 79t-76 30q-38 0 -70 -20.5t-51 -55.5t-19 -79q0 -49 28 -79t76 -30q39 0 70.5 20.5t50.5 56t19 78.5z
M538 723l-134 -163h-112l108 163h138z" />
    <glyph glyph-name="abreve.ss01" horiz-adv-x="628" 
d="M471 500h140l-80 -500h-140l1 63q-27 -35 -66 -55t-91 -20q-59 0 -105.5 29t-73 81t-26.5 120q0 88 34 154.5t93 104t134 37.5q52 0 97 -22t65 -56zM423 274q0 49 -28 79t-76 30q-38 0 -70 -20.5t-51 -55.5t-19 -79q0 -49 28 -79t76 -30q39 0 70.5 20.5t50.5 56t19 78.5z
M433 725h105q-13 -80 -55.5 -127.5t-128.5 -47.5q-79 0 -119.5 47t-40.5 128h103q0 -37 16.5 -57t47.5 -20q32 0 49 20.5t23 56.5z" />
    <glyph glyph-name="acircumflex.ss01" horiz-adv-x="628" 
d="M471 500h140l-80 -500h-140l1 63q-27 -35 -66 -55t-91 -20q-59 0 -105.5 29t-73 81t-26.5 120q0 88 34 154.5t93 104t134 37.5q52 0 97 -22t65 -56zM423 274q0 49 -28 79t-76 30q-38 0 -70 -20.5t-51 -55.5t-19 -79q0 -49 28 -79t76 -30q39 0 70.5 20.5t50.5 56t19 78.5z
M298 560h-117l123 173h144l69 -173h-107l-40 104z" />
    <glyph glyph-name="adieresis.ss01" horiz-adv-x="628" 
d="M471 500h140l-80 -500h-140l1 63q-27 -35 -66 -55t-91 -20q-59 0 -105.5 29t-73 81t-26.5 120q0 88 34 154.5t93 104t134 37.5q52 0 97 -22t65 -56zM423 274q0 49 -28 79t-76 30q-38 0 -70 -20.5t-51 -55.5t-19 -79q0 -49 28 -79t76 -30q39 0 70.5 20.5t50.5 56t19 78.5z
M254 567q-29 0 -46.5 17.5t-17.5 46.5q0 37 26 63t62 26q29 0 46.5 -18t17.5 -47q0 -35 -26.5 -61.5t-61.5 -26.5zM446 567q-29 0 -46 17.5t-17 46.5q0 37 26 63t61 26q29 0 46.5 -18t17.5 -47q0 -35 -26 -61.5t-62 -26.5z" />
    <glyph glyph-name="agrave.ss01" horiz-adv-x="628" 
d="M471 500h140l-80 -500h-140l1 63q-27 -35 -66 -55t-91 -20q-59 0 -105.5 29t-73 81t-26.5 120q0 88 34 154.5t93 104t134 37.5q52 0 97 -22t65 -56zM423 274q0 49 -28 79t-76 30q-38 0 -70 -20.5t-51 -55.5t-19 -79q0 -49 28 -79t76 -30q39 0 70.5 20.5t50.5 56t19 78.5z
M400 560h-101l-82 163h128z" />
    <glyph glyph-name="amacron.ss01" horiz-adv-x="628" 
d="M471 500h140l-80 -500h-140l1 63q-27 -35 -66 -55t-91 -20q-59 0 -105.5 29t-73 81t-26.5 120q0 88 34 154.5t93 104t134 37.5q52 0 97 -22t65 -56zM423 274q0 49 -28 79t-76 30q-38 0 -70 -20.5t-51 -55.5t-19 -79q0 -49 28 -79t76 -30q39 0 70.5 20.5t50.5 56t19 78.5z
M212 587l16 102h283l-16 -102h-283z" />
    <glyph glyph-name="aogonek.ss01" horiz-adv-x="628" 
d="M471 500h140l-80 -500h-140l1 63q-27 -35 -66 -55t-91 -20q-59 0 -105.5 29t-73 81t-26.5 120q0 88 34 154.5t93 104t134 37.5q52 0 97 -22t65 -56zM423 274q0 49 -28 79t-76 30q-38 0 -70 -20.5t-51 -55.5t-19 -79q0 -49 28 -79t76 -30q39 0 70.5 20.5t50.5 56t19 78.5z
M440 0h88q-42 -14 -66.5 -38t-24.5 -49q0 -13 9.5 -23t25.5 -10q5 0 14 1.5t18 5.5l-16 -96q-26 -10 -58 -10q-46 0 -71.5 25.5t-25.5 62.5q0 42 29.5 78t77.5 53z" />
    <glyph glyph-name="aring.ss01" horiz-adv-x="628" 
d="M471 500h140l-80 -500h-140l1 63q-27 -35 -66 -55t-91 -20q-59 0 -105.5 29t-73 81t-26.5 120q0 88 34 154.5t93 104t134 37.5q52 0 97 -22t65 -56zM423 274q0 49 -28 79t-76 30q-38 0 -70 -20.5t-51 -55.5t-19 -79q0 -49 28 -79t76 -30q39 0 70.5 20.5t50.5 56t19 78.5z
M353 543q-55 0 -89.5 33t-34.5 85q0 45 20 80.5t55 56t78 20.5q55 0 90.5 -34t35.5 -87q0 -44 -20 -79t-55 -55t-80 -20zM361 619q29 0 47.5 20t18.5 51q0 23 -14.5 37.5t-37.5 14.5q-28 0 -46.5 -19.5t-18.5 -50.5q0 -24 14 -38.5t37 -14.5z" />
    <glyph glyph-name="aringacute.ss01" horiz-adv-x="628" 
d="M471 500h140l-80 -500h-140l1 63q-27 -35 -66 -55t-91 -20q-59 0 -105.5 29t-73 81t-26.5 120q0 88 34 154.5t93 104t134 37.5q52 0 97 -22t65 -56zM423 274q0 49 -28 79t-76 30q-38 0 -70 -20.5t-51 -55.5t-19 -79q0 -49 28 -79t76 -30q39 0 70.5 20.5t50.5 56t19 78.5z
M300 439q-55 0 -89.5 33t-34.5 85q0 45 20 80.5t55 56t78 20.5q55 0 90.5 -34t35.5 -87q0 -44 -20 -79t-55 -55t-80 -20zM308 515q29 0 47.5 20t18.5 51q0 23 -14.5 37.5t-37.5 14.5q-28 0 -46.5 -19.5t-18.5 -50.5q0 -24 14 -38.5t37 -14.5zM522 874l-124 -140h-103
l100 140h127z" />
    <glyph glyph-name="atilde.ss01" horiz-adv-x="628" 
d="M471 500h140l-80 -500h-140l1 63q-27 -35 -66 -55t-91 -20q-59 0 -105.5 29t-73 81t-26.5 120q0 88 34 154.5t93 104t134 37.5q52 0 97 -22t65 -56zM423 274q0 49 -28 79t-76 30q-38 0 -70 -20.5t-51 -55.5t-19 -79q0 -49 28 -79t76 -30q39 0 70.5 20.5t50.5 56t19 78.5z
M250 562h-86q3 73 36.5 116.5t85.5 43.5q27 0 45 -9.5t32 -21.5t29 -21.5t34 -9.5q22 0 31.5 15.5t13.5 46.5h87q-5 -78 -36.5 -119t-86.5 -41q-28 0 -46.5 9.5t-33 21.5t-28 21.5t-31.5 9.5q-21 0 -31 -14.5t-15 -47.5z" />
    <glyph glyph-name="gbreve.ss02" horiz-adv-x="556" 
d="M159 174l17 -43q-25 0 -40.5 -11t-15.5 -29q0 -33 53 -33h144q86 0 129 -32t43 -96q0 -92 -78.5 -138t-236.5 -46q-109 0 -166.5 28.5t-57.5 82.5q0 47 42.5 77t110.5 31l21 -23q-22 -1 -33.5 -10.5t-11.5 -26.5q0 -21 28 -30.5t91 -9.5q75 0 109.5 12t34.5 37
q0 28 -48 28h-171q-61 0 -96 27t-35 76q0 56 43 89t124 40zM474 412l-60 52q17 48 61.5 78t97.5 30h12t8 -1l-19 -118q-2 1 -4.5 1h-12.5q-27 0 -49.5 -11t-33.5 -31zM53 292q0 64 32 114t87.5 79.5t125.5 29.5q35 0 71 -10t68 -28l40 -54q17 -17 26 -44t9 -57
q0 -61 -31 -108t-86 -74t-127 -27q-63 0 -111.5 23t-76 63.5t-27.5 92.5zM198 302q0 -33 21 -52t58 -19q39 0 64.5 27.5t25.5 67.5q0 32 -21 51.5t-56 19.5q-26 0 -47 -12.5t-33 -34t-12 -48.5zM390 725h105q-13 -80 -55.5 -127.5t-128.5 -47.5q-79 0 -119.5 47t-40.5 128
h103q0 -37 16.5 -57t47.5 -20q32 0 49 20.5t23 56.5z" />
    <glyph glyph-name="gcircumflex.ss02" horiz-adv-x="556" 
d="M159 174l17 -43q-25 0 -40.5 -11t-15.5 -29q0 -33 53 -33h144q86 0 129 -32t43 -96q0 -92 -78.5 -138t-236.5 -46q-109 0 -166.5 28.5t-57.5 82.5q0 47 42.5 77t110.5 31l21 -23q-22 -1 -33.5 -10.5t-11.5 -26.5q0 -21 28 -30.5t91 -9.5q75 0 109.5 12t34.5 37
q0 28 -48 28h-171q-61 0 -96 27t-35 76q0 56 43 89t124 40zM474 412l-60 52q17 48 61.5 78t97.5 30h12t8 -1l-19 -118q-2 1 -4.5 1h-12.5q-27 0 -49.5 -11t-33.5 -31zM53 292q0 64 32 114t87.5 79.5t125.5 29.5q35 0 71 -10t68 -28l40 -54q17 -17 26 -44t9 -57
q0 -61 -31 -108t-86 -74t-127 -27q-63 0 -111.5 23t-76 63.5t-27.5 92.5zM198 302q0 -33 21 -52t58 -19q39 0 64.5 27.5t25.5 67.5q0 32 -21 51.5t-56 19.5q-26 0 -47 -12.5t-33 -34t-12 -48.5zM255 560h-117l123 173h144l69 -173h-107l-40 104z" />
    <glyph glyph-name="gcommaaccent.ss02" horiz-adv-x="556" 
d="M159 174l17 -43q-25 0 -40.5 -11t-15.5 -29q0 -33 53 -33h144q86 0 129 -32t43 -96q0 -92 -78.5 -138t-236.5 -46q-109 0 -166.5 28.5t-57.5 82.5q0 47 42.5 77t110.5 31l21 -23q-22 -1 -33.5 -10.5t-11.5 -26.5q0 -21 28 -30.5t91 -9.5q75 0 109.5 12t34.5 37
q0 28 -48 28h-171q-61 0 -96 27t-35 76q0 56 43 89t124 40zM474 412l-60 52q17 48 61.5 78t97.5 30h12t8 -1l-19 -118q-2 1 -4.5 1h-12.5q-27 0 -49.5 -11t-33.5 -31zM53 292q0 64 32 114t87.5 79.5t125.5 29.5q35 0 71 -10t68 -28l40 -54q17 -17 26 -44t9 -57
q0 -61 -31 -108t-86 -74t-127 -27q-63 0 -111.5 23t-76 63.5t-27.5 92.5zM198 302q0 -33 21 -52t58 -19q39 0 64.5 27.5t25.5 67.5q0 32 -21 51.5t-56 19.5q-26 0 -47 -12.5t-33 -34t-12 -48.5zM305 685l-5 12q7 6 16 8.5t18 2.5q24 0 37.5 -14t13.5 -37q0 -34 -23.5 -56.5
t-58.5 -22.5q-29 0 -45.5 20t-16.5 50q0 43 19.5 76.5t55.5 50.5t83 11l-7 -46q-42 5 -64.5 -8.5t-22.5 -46.5z" />
    <glyph glyph-name="gdotaccent.ss02" horiz-adv-x="556" 
d="M159 174l17 -43q-25 0 -40.5 -11t-15.5 -29q0 -33 53 -33h144q86 0 129 -32t43 -96q0 -92 -78.5 -138t-236.5 -46q-109 0 -166.5 28.5t-57.5 82.5q0 47 42.5 77t110.5 31l21 -23q-22 -1 -33.5 -10.5t-11.5 -26.5q0 -21 28 -30.5t91 -9.5q75 0 109.5 12t34.5 37
q0 28 -48 28h-171q-61 0 -96 27t-35 76q0 56 43 89t124 40zM474 412l-60 52q17 48 61.5 78t97.5 30h12t8 -1l-19 -118q-2 1 -4.5 1h-12.5q-27 0 -49.5 -11t-33.5 -31zM53 292q0 64 32 114t87.5 79.5t125.5 29.5q35 0 71 -10t68 -28l40 -54q17 -17 26 -44t9 -57
q0 -61 -31 -108t-86 -74t-127 -27q-63 0 -111.5 23t-76 63.5t-27.5 92.5zM198 302q0 -33 21 -52t58 -19q39 0 64.5 27.5t25.5 67.5q0 32 -21 51.5t-56 19.5q-26 0 -47 -12.5t-33 -34t-12 -48.5zM306 567q-31 0 -49 18.5t-18 49.5q0 38 28 65.5t65 27.5q30 0 48.5 -18.5
t18.5 -49.5q0 -37 -27.5 -65t-65.5 -28z" />
    <glyph glyph-name="tbar.ss03" horiz-adv-x="373" 
d="M325 130l-2 -127q-22 -7 -45 -11t-53 -4q-50 0 -88 19.5t-56 60t-8 104.5l76 482h149l-71 -451q-7 -42 5.5 -62t41.5 -20q23 0 51 9zM51 499h332l-20 -124h-332zM34 307h289l-18 -115h-289z" />
    <glyph glyph-name="tcaron.ss03" horiz-adv-x="367" 
d="M51 499h332l-20 -124h-332zM325 130l-2 -127q-22 -7 -45 -11t-53 -4q-50 0 -88 19.5t-56 60t-8 104.5l76 482h149l-71 -451q-7 -42 5.5 -62t41.5 -20q23 0 51 9zM321 546l31 194h119l-62 -194h-88z" />
    <glyph glyph-name="tcedilla.ss03" horiz-adv-x="367" 
d="M51 499h332l-20 -124h-332zM325 130l-2 -127q-22 -7 -45 -11t-53 -4q-50 0 -88 19.5t-56 60t-8 104.5l76 482h149l-71 -451q-7 -42 5.5 -62t41.5 -20q23 0 51 9zM90 -211l10 63q17 -8 33.5 -13.5t34.5 -5.5q28 0 45 11.5t17 32.5q0 32 -38 32q-13 0 -25.5 -2t-23.5 -6
l-8 38l65 103l42 -1l-5 -32l-47 -71l-5 7q8 6 19 9.5t28 3.5q26 0 50.5 -18.5t24.5 -56.5q0 -52 -36.5 -82.5t-97.5 -30.5q-25 0 -47 6t-36 13z" />
    <glyph glyph-name="tcommaaccent.ss03" horiz-adv-x="367" 
d="M51 499h332l-20 -124h-332zM325 130l-2 -127q-22 -7 -45 -11t-53 -4q-50 0 -88 19.5t-56 60t-8 104.5l76 482h149l-71 -451q-7 -42 5.5 -62t41.5 -20q23 0 51 9zM193 -141l4 -12q-5 -5 -14 -8t-21 -3q-23 0 -36.5 14.5t-13.5 36.5q0 33 24 55.5t59 22.5q29 0 45.5 -19.5
t16.5 -50.5q0 -43 -19.5 -76t-55 -50t-83.5 -11l7 46q44 -5 65 9.5t22 45.5z" />
    <glyph glyph-name="caroncomb.alt" horiz-adv-x="553" 
d="M351 545l31 194h119l-62 -194h-88z" />
    <glyph glyph-name="strokeshortcomb.case" horiz-adv-x="405" 
d="M29 306l20 128h365l-20 -128h-365z" />
    <glyph glyph-name="strokelongcomb.case" horiz-adv-x="784" 
d="M64 528l21 132h744l-21 -132h-744z" />
    <glyph glyph-name="slashshortcomb.case" horiz-adv-x="370" 
d="M25 281l19 117l355 161l-19 -117z" />
    <glyph glyph-name="slashlongcomb.case" horiz-adv-x="568" 
d="M705 739l-657 -739h-148l664 739h141z" />
    <glyph glyph-name="dotaccentcomb.i" horiz-adv-x="238" 
d="M202 791q-31 0 -51.5 20.5t-20.5 51.5q0 26 14 48.5t37 36.5t49 14q32 0 52 -20.5t20 -51.5q0 -25 -14 -48t-37 -37t-49 -14z" />
    </font>
</defs>
</svg>
