<?xml version="1.0" standalone="no"?>
<!DOCTYPE svg PUBLIC "-//W3C//DTD SVG 1.1//EN" "http://www.w3.org/Graphics/SVG/1.1/DTD/svg11.dtd" >
<svg xmlns="http://www.w3.org/2000/svg" xmlns:xlink="http://www.w3.org/1999/xlink" version="1.1">
<metadata>
Created by FontForge 20170731 at Thu Nov  4 06:09:52 2021
 By Aleksey,,,
Copyright 2017-2021 Indian Type Foundry. All rights reserved.
</metadata>
<defs>
<font id="Satoshi-Light" horiz-adv-x="1351" >
  <font-face 
    font-family="Satoshi Light"
    font-weight="300"
    font-stretch="normal"
    units-per-em="2048"
    panose-1="0 0 0 0 0 0 0 0 0 0"
    ascent="1638"
    descent="-410"
    x-height="983"
    cap-height="1454"
    bbox="-416 -440 3336 2044"
    underline-thickness="163"
    underline-position="-562"
    unicode-range="U+0020-FB04"
  />
<missing-glyph horiz-adv-x="1024" 
d="M102 -416v2177h820v-2177h-820zM205 -313h614v1972h-614v-1972z" />
    <glyph glyph-name="f_f" unicode="ff" horiz-adv-x="1163" 
d="M41 983h154v221q0 141 66.5 208t168.5 67q56 0 100 -6v-84h-84q-89 0 -123 -43.5t-34 -141.5v-221h497v221q0 141 67 208t169 67q56 0 100 -6v-84h-84q-89 0 -123 -43.5t-34 -141.5v-221h231v-82h-231v-901h-95v901h-497v-901h-94v901h-154v82z" />
    <glyph glyph-name="fi" unicode="fi" horiz-adv-x="1026" 
d="M786 0v901h-497v-901h-94v901h-154v82h154v221q0 141 66.5 208t168.5 67q56 0 100 -6v-84h-84q-89 0 -123 -43.5t-34 -141.5v-221h592v-983h-95zM831 1298q-34 0 -54.5 21t-20.5 55t21 57t54 23q34 0 56 -23t22 -57t-22 -55t-56 -21z" />
    <glyph glyph-name="fl" unicode="fl" horiz-adv-x="1013" 
d="M850 0h-94v901h-467v-901h-94v901h-154v82h154v221q0 141 66.5 208t168.5 67q56 0 100 -6v-84h-84q-89 0 -123 -43.5t-34 -141.5v-221h467v496h94v-1479z" />
    <glyph glyph-name="f_f_i" unicode="ffi" horiz-adv-x="1617" 
d="M41 983h154v221q0 141 66.5 208t168.5 67q56 0 100 -6v-84h-84q-89 0 -123 -43.5t-34 -141.5v-221h497v221q0 141 67 208t169 67q56 0 100 -6v-84h-84q-89 0 -123 -43.5t-34 -141.5v-221h592v-983h-95v901h-497v-901h-95v901h-497v-901h-94v901h-154v82zM1423 1323
q-34 0 -54.5 21t-20.5 55t21 57t54 23q34 0 56 -23t22 -57t-22 -55t-56 -21z" />
    <glyph glyph-name="f_f_l" unicode="ffl" horiz-adv-x="1605" 
d="M41 983h154v221q0 141 66.5 208t168.5 67q56 0 100 -6v-84h-84q-89 0 -123 -43.5t-34 -141.5v-221h497v221q0 141 67 208t169 67q56 0 100 -6v-84h-84q-89 0 -123 -43.5t-34 -141.5v-221h467v496h94v-1479h-94v901h-467v-901h-95v901h-497v-901h-94v901h-154v82z" />
    <glyph glyph-name="f_t" unicode="ft" horiz-adv-x="1165" 
d="M926 0h-95v901h-542v-901h-94v901h-154v82h154v221q0 141 66.5 208t168.5 67q56 0 100 -6v-84h-84q-89 0 -123 -43.5t-34 -141.5v-221h542v311h95v-311h198v-82h-198v-901z" />
    <glyph glyph-name=".notdef" horiz-adv-x="1024" 
d="M102 -416v2177h820v-2177h-820zM205 -313h614v1972h-614v-1972z" />
    <glyph glyph-name=".null" horiz-adv-x="0" 
 />
    <glyph glyph-name="nonmarkingreturn" horiz-adv-x="682" 
 />
    <glyph glyph-name="space" unicode=" " horiz-adv-x="573" 
 />
    <glyph glyph-name="exclam" unicode="!" horiz-adv-x="512" 
d="M287 436h-62q-16 222 -16 670v348h94v-348q0 -448 -16 -670zM258 -29q-47 0 -81 33.5t-34 79.5t34 79.5t81 33.5q44 0 77.5 -33.5t33.5 -79.5t-33.5 -79.5t-77.5 -33.5z" />
    <glyph glyph-name="quotedbl" unicode="&#x22;" horiz-adv-x="546" 
d="M219 1374l-31 -391h-73l-33 391q-3 38 18.5 59t51.5 21q29 0 49.5 -20.5t17.5 -59.5zM465 1374l-31 -391h-74l-32 391q-3 38 18.5 59t50.5 21t50 -21t18 -59z" />
    <glyph glyph-name="numbersign" unicode="#" horiz-adv-x="1343" 
d="M119 541h223l72 372h-260l16 91h262l88 450h94l-88 -450h404l88 450h94l-88 -450h217l-16 -91h-219l-74 -372h225l-16 -90h-228l-88 -451h-94l88 451h-401l-88 -451h-94l88 451h-222zM436 541h402l73 372h-403z" />
    <glyph glyph-name="dollar" unicode="$" horiz-adv-x="1128" 
d="M516 -205v182q-188 9 -305.5 107.5t-132.5 259.5h104q6 -117 96.5 -191t237.5 -83v626l-86 23q-165 41 -250.5 134.5t-85.5 233.5q0 167 114 272.5t308 117.5v182h86v-180q173 -11 281.5 -109t128.5 -264h-103q-13 127 -93 199.5t-214 80.5v-614l98 -24q164 -41 250 -137
t86 -236q0 -173 -117.5 -280t-316.5 -118v-182h-86zM442 813l74 -18v591q-148 -12 -235.5 -92.5t-87.5 -206.5q0 -209 249 -274zM682 655l-80 21v-606q154 11 245 92t91 211q0 218 -256 282z" />
    <glyph glyph-name="percent" unicode="%" horiz-adv-x="1818" 
d="M803 1130q0 -152 -97.5 -251t-248.5 -99t-248.5 99t-97.5 251t97.5 251.5t248.5 99.5t248.5 -99.5t97.5 -251.5zM1513 1454l-1103 -1454h-107l1102 1454h108zM713 1130q0 117 -71 191t-185 74t-185 -74t-71 -191t71.5 -190.5t184.5 -73.5t184.5 73.5t71.5 190.5z
M1708 324q0 -152 -97.5 -251.5t-248.5 -99.5t-248.5 99.5t-97.5 251.5t97.5 251t248.5 99t248.5 -99t97.5 -251zM1618 324q0 117 -71 190.5t-185 73.5t-185 -73.5t-71 -190.5t71.5 -191t184.5 -74t184.5 74t71.5 191z" />
    <glyph glyph-name="ampersand" unicode="&#x26;" horiz-adv-x="1347" 
d="M1206 0l-147 170q-175 -197 -469 -197q-227 0 -361.5 105.5t-134.5 283.5q0 140 88 250t297 230q-109 126 -152.5 203t-43.5 151q0 126 85 203.5t224 77.5q134 0 215.5 -74t81.5 -195q0 -109 -63 -198t-210 -187l441 -512q73 134 73 340h93q0 -236 -109 -409l209 -242
h-117zM553 897l8 -10q121 75 177.5 152.5t56.5 168.5q0 85 -55 135t-150 50q-98 0 -155.5 -53t-57.5 -144q0 -55 35.5 -116t140.5 -183zM188 362q0 -143 106.5 -224t293.5 -81q277 0 418 176l-471 545q-192 -107 -269.5 -200t-77.5 -216z" />
    <glyph glyph-name="quotesingle" unicode="'" horiz-adv-x="301" 
d="M219 1374l-31 -391h-73l-33 391q-3 38 18.5 59t51.5 21q29 0 49.5 -20.5t17.5 -59.5z" />
    <glyph glyph-name="parenleft" unicode="(" horiz-adv-x="473" 
d="M473 -293h-98q-120 181 -191 424t-71 490q0 243 71 484.5t191 422.5h98q-118 -167 -190 -407.5t-72 -499.5q0 -262 72 -504.5t190 -409.5z" />
    <glyph glyph-name="parenright" unicode=")" horiz-adv-x="473" 
d="M98 -293h-98q118 167 190 409.5t72 504.5q0 259 -72 499.5t-190 407.5h98q120 -181 191 -422.5t71 -484.5q0 -247 -71 -490t-191 -424z" />
    <glyph glyph-name="asterisk" unicode="*" horiz-adv-x="811" 
d="M190 1167l-124 45l28 74l121 -41q105 -37 168 -78q-18 80 -18 183v131h79v-131q0 -101 -16 -183q72 44 164 78l121 43l32 -76l-127 -45q-87 -30 -174 -45q55 -52 115 -139l74 -106l-66 -48l-75 107q-60 84 -89 160q-27 -75 -86 -160l-75 -107l-68 48l74 106
q47 69 117 139q-85 14 -175 45z" />
    <glyph glyph-name="plus" unicode="+" 
d="M164 735h467v467h90v-467h467v-90h-467v-469h-90v469h-467v90z" />
    <glyph glyph-name="comma" unicode="," horiz-adv-x="512" 
d="M369 59q0 -81 -57.5 -146t-139.5 -79v66q47 9 80 42.5t33 71.5q-17 -14 -54 -14q-36 0 -62 25.5t-26 70.5t30 75t77 30q48 0 83.5 -38.5t35.5 -103.5z" />
    <glyph glyph-name="hyphen" unicode="-" horiz-adv-x="831" 
d="M133 492v86h565v-86h-565z" />
    <glyph glyph-name="period" unicode="." horiz-adv-x="512" 
d="M256 -23q-46 0 -79.5 33.5t-33.5 77.5q0 46 33.5 79.5t79.5 33.5t79.5 -33.5t33.5 -79.5q0 -44 -33.5 -77.5t-79.5 -33.5z" />
    <glyph glyph-name="slash" unicode="/" horiz-adv-x="663" 
d="M94 0h-94l567 1454h97z" />
    <glyph glyph-name="zero" unicode="0" horiz-adv-x="1380" 
d="M123 727q0 343 152 548.5t415 205.5t415 -205.5t152 -548.5t-152 -548.5t-415 -205.5t-415 205.5t-152 548.5zM219 727q0 -301 125 -481t346 -180t346 180t125 481t-125 481.5t-346 180.5t-346 -180.5t-125 -481.5z" />
    <glyph glyph-name="one" unicode="1" horiz-adv-x="628" 
d="M358 1364h-286v90h383v-1454h-97v1364z" />
    <glyph glyph-name="two" unicode="2" horiz-adv-x="1128" 
d="M1026 0h-934v82l461 407q154 136 230.5 222.5t107.5 161.5t31 171q0 158 -92 250t-250 92q-163 0 -265 -110t-108 -293h-98q7 224 137.5 360t337.5 136q193 0 314.5 -119.5t121.5 -308.5q0 -161 -84 -291t-326 -342l-370 -328h786v-90z" />
    <glyph glyph-name="three" unicode="3" horiz-adv-x="1161" 
d="M514 807h-90v72l475 485h-731v90h864v-82l-473 -481q224 0 362 -122t138 -320q0 -212 -137.5 -343t-358.5 -131q-215 0 -341 124t-126 335h99q0 -170 99 -268t269 -98q181 0 289.5 105t108.5 280q0 167 -117.5 260.5t-329.5 93.5z" />
    <glyph glyph-name="four" unicode="4" horiz-adv-x="1267" 
d="M203 412h663v944zM1135 322h-170v-322h-99v322h-774v90l735 1042h138v-1042h170v-90z" />
    <glyph glyph-name="five" unicode="5" horiz-adv-x="1177" 
d="M590 -25q-215 0 -341 124t-126 335h98q0 -170 99 -268t270 -98q180 0 288.5 109.5t108.5 285.5q0 169 -107.5 283t-291.5 114q-104 0 -200 -42t-167 -113l-65 30l172 719h678v-90h-607l-125 -520q139 108 320 108q112 0 205.5 -39.5t155.5 -106.5t96 -156t34 -189
q0 -213 -137.5 -349.5t-357.5 -136.5z" />
    <glyph glyph-name="six" unicode="6" horiz-adv-x="1220" 
d="M270 936l385 518h117l-405 -536q68 41 124.5 57t122.5 16q223 0 363.5 -145.5t140.5 -360.5q0 -217 -146.5 -363.5t-359.5 -146.5q-140 0 -257 67t-185 184.5t-68 258.5q0 125 36.5 224.5t131.5 226.5zM201 485q0 -182 115 -299.5t296 -117.5q178 0 293 117.5t115 299.5
q0 180 -115 297t-293 117q-181 0 -296 -116.5t-115 -297.5z" />
    <glyph glyph-name="seven" unicode="7" horiz-adv-x="1003" 
d="M20 1454h963v-90l-590 -1364h-102l594 1364h-865v90z" />
    <glyph glyph-name="eight" unicode="8" horiz-adv-x="1226" 
d="M113 389q0 134 78 236.5t212 146.5q-115 46 -177 134t-62 204q0 164 124.5 266.5t325.5 102.5q199 0 323 -102.5t124 -266.5q0 -119 -62 -207t-176 -131q133 -38 212 -142t79 -243q0 -182 -139.5 -297t-360.5 -115q-222 0 -361.5 115.5t-139.5 298.5zM260 1114
q0 -134 97 -215.5t257 -81.5t255.5 80t95.5 213q0 127 -95.5 203t-255.5 76t-257 -75.5t-97 -199.5zM209 399q0 -149 112.5 -241t294.5 -92q179 0 290.5 91.5t111.5 239.5t-111 237t-295 89q-183 0 -293 -89t-110 -235z" />
    <glyph glyph-name="nine" unicode="9" horiz-adv-x="1220" 
d="M950 518l-385 -518h-116l405 537q-122 -74 -248 -74q-223 0 -363.5 145.5t-140.5 360.5q0 217 146.5 363.5t359.5 146.5q140 0 257 -67t185 -184.5t68 -258.5q0 -125 -36.5 -224.5t-131.5 -226.5zM1020 969q0 182 -115.5 299.5t-296.5 117.5q-178 0 -292.5 -117.5
t-114.5 -299.5q0 -180 114.5 -297t292.5 -117q181 0 296.5 116.5t115.5 297.5z" />
    <glyph glyph-name="colon" unicode=":" horiz-adv-x="552" 
d="M276 780q-46 0 -79 33t-33 78q0 46 33 79.5t79 33.5t79.5 -33.5t33.5 -79.5q0 -44 -33.5 -77.5t-79.5 -33.5zM276 -23q-46 0 -79 33.5t-33 77.5q0 46 33 79.5t79 33.5t79.5 -33.5t33.5 -79.5q0 -44 -33.5 -77.5t-79.5 -33.5z" />
    <glyph glyph-name="semicolon" unicode=";" horiz-adv-x="552" 
d="M276 780q-46 0 -79 33t-33 78q0 46 33 79.5t79 33.5t79.5 -33.5t33.5 -79.5q0 -44 -33.5 -77.5t-79.5 -33.5zM389 59q0 -81 -57 -146t-139 -79v66q47 9 79.5 42.5t32.5 71.5q-17 -14 -53 -14t-62 25.5t-26 70.5t29.5 75t76.5 30q48 0 83.5 -38.5t35.5 -103.5z" />
    <glyph glyph-name="less" unicode="&#x3c;" 
d="M1188 178v-96l-1024 369v94l1024 368v-96l-905 -319z" />
    <glyph glyph-name="equal" unicode="=" 
d="M164 854h1024v-90h-1024v90zM164 440h1024v-90h-1024v90z" />
    <glyph glyph-name="greater" unicode="&#x3e;" 
d="M1188 451l-1024 -369v96l905 320l-905 319v96l1024 -368v-94z" />
    <glyph glyph-name="question" unicode="?" horiz-adv-x="1021" 
d="M506 315h-92v58q0 57 16.5 105t51.5 90t67.5 70.5t85.5 68.5q54 41 84.5 68t66.5 69.5t53 91.5t17 108q0 145 -95.5 243.5t-248.5 98.5q-143 0 -244.5 -100.5t-101.5 -241.5h-94q0 181 129 308t311 127q196 0 317 -125t121 -310q0 -60 -16 -114t-37.5 -91.5t-60.5 -78
t-67 -63.5t-75 -58q-99 -73 -143.5 -130.5t-44.5 -135.5v-58zM469 -29q-47 0 -81 33.5t-34 79.5t34 79.5t81 33.5q44 0 77.5 -33.5t33.5 -79.5t-33.5 -79.5t-77.5 -33.5z" />
    <glyph glyph-name="at" unicode="@" horiz-adv-x="1824" 
d="M518 446q0 122 91.5 199.5t252.5 89.5l314 25v35q0 260 -267 260q-125 0 -195.5 -55.5t-70.5 -153.5h-92q0 131 99 211t261 80q168 0 261.5 -87t93.5 -243v-422q0 -61 35.5 -94t101.5 -33q114 0 184 113.5t70 298.5q0 210 -95.5 377t-266 260.5t-384.5 93.5
q-153 0 -291 -59t-237 -159t-157 -239.5t-58 -294.5q0 -157 57.5 -297.5t156 -241.5t236.5 -160t293 -59q280 0 482 172l49 -59q-223 -190 -531 -190q-173 0 -327 64.5t-264 175t-174 265.5t-64 330q0 172 64.5 326t174.5 264.5t264 175t326 64.5q179 0 334 -60.5
t264.5 -166.5t171.5 -256.5t62 -325.5q0 -207 -97 -346.5t-243 -139.5q-106 0 -164.5 49.5t-62.5 143.5q-47 -92 -138 -142.5t-211 -50.5q-141 0 -225 71t-84 191zM608 446q0 -86 61 -133t173 -47q155 0 244.5 100t89.5 273v45l-306 -25q-127 -11 -194.5 -65.5t-67.5 -147.5
z" />
    <glyph glyph-name="A" unicode="A" horiz-adv-x="1290" 
d="M129 0h-98l538 1454h146l545 -1454h-101l-153 408h-725zM629 1350l-316 -852h660l-320 852q-1 4 -4 12t-5 14t-3 10q-4 -16 -12 -36z" />
    <glyph glyph-name="B" unicode="B" horiz-adv-x="1267" 
d="M733 0h-549v1454h512q207 0 327 -98.5t120 -270.5q0 -259 -232 -350q265 -89 265 -358q0 -170 -121.5 -273.5t-321.5 -103.5zM702 1364h-419v-590h442q150 0 233.5 80t83.5 223q0 135 -89.5 211t-250.5 76zM739 684h-456v-594h456q158 0 247 79.5t89 219.5q0 137 -90 216
t-246 79z" />
    <glyph glyph-name="C" unicode="C" horiz-adv-x="1466" 
d="M766 -23q-196 0 -350 95t-239 266t-85 389q0 220 86 391t241.5 266t354.5 95q223 0 389 -127t213 -334h-108q-50 169 -184.5 267.5t-315.5 98.5q-257 0 -416 -182t-159 -475t159 -474t416 -181q181 0 319 93.5t189 250.5h108q-53 -197 -223.5 -318t-394.5 -121z" />
    <glyph glyph-name="D" unicode="D" horiz-adv-x="1417" 
d="M592 0h-408v1454h408q330 0 531.5 -200t201.5 -527t-201.5 -527t-531.5 -200zM592 1364h-309v-1274h309q288 0 460.5 173.5t172.5 463.5q0 292 -171.5 464.5t-461.5 172.5z" />
    <glyph glyph-name="E" unicode="E" horiz-adv-x="1163" 
d="M1040 0h-856v1454h854v-90h-755v-590h688v-90h-688v-594h757v-90z" />
    <glyph glyph-name="F" unicode="F" horiz-adv-x="1091" 
d="M901 659h-618v-659h-99v1454h836v-90h-737v-614h618v-91z" />
    <glyph glyph-name="G" unicode="G" horiz-adv-x="1507" 
d="M780 1384q-265 0 -426 -182t-161 -479q0 -299 163 -476t430 -177q76 0 145 14t138 50t119 91.5t81 146t31 206.5v104h-565v90h660v-774h-74l-12 262q-59 -125 -197 -205t-321 -80q-313 0 -506 204.5t-193 541.5q0 221 86.5 393.5t243.5 268.5t358 96q220 0 380.5 -114
t207.5 -302h-108q-50 155 -177.5 238t-302.5 83z" />
    <glyph glyph-name="H" unicode="H" horiz-adv-x="1411" 
d="M283 0h-99v1454h99v-670h845v670h99v-1454h-99v694h-845v-694z" />
    <glyph glyph-name="I" unicode="I" horiz-adv-x="466" 
d="M283 1454v-1454h-99v1454h99z" />
    <glyph glyph-name="J" unicode="J" horiz-adv-x="1007" 
d="M41 395v45h96v-45q0 -151 78 -238t221 -87q148 0 223.5 87t75.5 238v1059h99v-1059q0 -197 -110.5 -308.5t-289.5 -111.5q-182 0 -287.5 114.5t-105.5 305.5z" />
    <glyph glyph-name="K" unicode="K" horiz-adv-x="1210" 
d="M283 1454v-926l747 926h119l-498 -614l508 -840h-115l-458 760l-303 -375v-385h-99v1454h99z" />
    <glyph glyph-name="L" unicode="L" horiz-adv-x="1015" 
d="M283 1454v-1364h692v-90h-791v1454h99z" />
    <glyph glyph-name="M" unicode="M" horiz-adv-x="1679" 
d="M283 0h-99v1454h99l557 -1335l555 1335h100v-1454h-98v797q0 296 10 456l-518 -1253h-98l-519 1247q11 -113 11 -450v-797z" />
    <glyph glyph-name="N" unicode="N" horiz-adv-x="1419" 
d="M283 0h-99v1454h101l852 -1288v1288h98v-1454h-98l-854 1292v-1292z" />
    <glyph glyph-name="O" unicode="O" horiz-adv-x="1558" 
d="M1466 727q0 -217 -87.5 -389t-244.5 -267.5t-356 -95.5t-355.5 95.5t-243.5 267.5t-87 389t87.5 389t244 267.5t354.5 95.5q199 0 356 -95.5t244.5 -267.5t87.5 -389zM1366 727q0 191 -74.5 341t-208.5 233t-305 83q-258 0 -421.5 -183.5t-163.5 -473.5t163.5 -473.5
t421.5 -183.5q171 0 305 83t208.5 233t74.5 341z" />
    <glyph glyph-name="P" unicode="P" horiz-adv-x="1234" 
d="M727 547h-444v-547h-99v1454h543q206 0 326.5 -123t120.5 -327q0 -196 -123 -326.5t-324 -130.5zM723 1364h-440v-727h428q168 0 265 102.5t97 268.5q0 164 -95 260t-255 96z" />
    <glyph glyph-name="Q" unicode="Q" horiz-adv-x="1558" 
d="M1333 -72l-153 172q-173 -125 -402 -125q-199 0 -355.5 95.5t-243.5 267.5t-87 389t87.5 389t244 267.5t354.5 95.5q199 0 356 -95.5t244.5 -267.5t87.5 -389q0 -172 -55.5 -316t-157.5 -247l150 -168zM1366 727q0 191 -74.5 341t-208.5 233t-305 83
q-258 0 -421.5 -183.5t-163.5 -473.5t163.5 -473.5t421.5 -183.5q195 0 336 104l-186 209l69 68l191 -213q178 184 178 489z" />
    <glyph glyph-name="R" unicode="R" horiz-adv-x="1284" 
d="M283 0h-99v1454h537q207 0 328.5 -110.5t121.5 -296.5q0 -160 -83.5 -267.5t-229.5 -138.5l326 -641h-111l-317 629h-473v-629zM283 1364v-645h442q164 0 255 86t91 237q0 153 -94 237.5t-256 84.5h-438z" />
    <glyph glyph-name="S" unicode="S" horiz-adv-x="1128" 
d="M94 1087q0 178 129 285t344 107q187 0 305 -99t140 -274h-103q-15 135 -104 209t-238 74q-169 0 -271.5 -83t-102.5 -219q0 -209 249 -274l258 -65q164 -41 250 -137t86 -236q0 -183 -130.5 -291.5t-348.5 -108.5q-204 0 -333 99.5t-146 269.5h104q6 -124 109 -200
t266 -76q173 0 277 83t104 222q0 218 -256 282l-252 64q-165 41 -250.5 134.5t-85.5 233.5z" />
    <glyph glyph-name="T" unicode="T" horiz-adv-x="1052" 
d="M20 1364v90h1012v-90h-457v-1364h-98v1364h-457z" />
    <glyph glyph-name="U" unicode="U" horiz-adv-x="1386" 
d="M174 494v960h98v-958q0 -206 109 -315t315 -109q201 0 309.5 110t108.5 314v958h98v-960q0 -243 -136.5 -381t-379.5 -138q-246 0 -384 137t-138 382z" />
    <glyph glyph-name="V" unicode="V" horiz-adv-x="1261" 
d="M580 0l-560 1454h105l420 -1087q48 -121 90 -248q42 129 88 250l418 1085h100l-557 -1454h-104z" />
    <glyph glyph-name="W" unicode="W" horiz-adv-x="1955" 
d="M461 0l-430 1454h102l324 -1102q28 -104 53 -219q21 79 63 219l355 1102h98l356 -1102q30 -88 62 -217q24 119 53 217l328 1102h100l-434 -1454h-90l-424 1311l-422 -1311h-94z" />
    <glyph glyph-name="X" unicode="X" horiz-adv-x="1193" 
d="M541 725l-521 729h117l312 -434q87 -120 145 -225l459 659h110l-510 -725l521 -729h-117l-328 457q-73 98 -131 192l-455 -649h-114z" />
    <glyph glyph-name="Y" unicode="Y" horiz-adv-x="1118" 
d="M514 623l-494 831h113l389 -672q32 -57 41 -77q16 34 41 77l385 672h109l-486 -831v-623h-98v623z" />
    <glyph glyph-name="Z" unicode="Z" horiz-adv-x="1179" 
d="M1087 0h-995v88l889 1276h-885v90h1002v-88l-889 -1276h878v-90z" />
    <glyph glyph-name="bracketleft" unicode="[" horiz-adv-x="477" 
d="M180 -10h287v-82h-375v1638h375v-82h-287v-1474z" />
    <glyph glyph-name="backslash" unicode="\" horiz-adv-x="663" 
d="M96 1454l568 -1454h-95l-569 1454h96z" />
    <glyph glyph-name="bracketright" unicode="]" horiz-adv-x="477" 
d="M10 -92v82h287v1474h-287v82h375v-1638h-375z" />
    <glyph glyph-name="asciicircum" unicode="^" horiz-adv-x="966" 
d="M258 819h-94l272 635h94l273 -635h-94l-226 529z" />
    <glyph glyph-name="underscore" unicode="_" horiz-adv-x="1036" 
d="M123 -135v94h790v-94h-790z" />
    <glyph glyph-name="grave" unicode="`" horiz-adv-x="395" 
d="M301 1567h-86l-133 219h113z" />
    <glyph glyph-name="a" unicode="a" horiz-adv-x="1046" 
d="M434 -25q-156 0 -244 78.5t-88 206.5q0 134 98 216.5t271 96.5l338 27v37q0 285 -287 285q-136 0 -213.5 -61.5t-77.5 -168.5h-94q0 144 106.5 230t280.5 86q81 0 148.5 -20.5t120 -62.5t81.5 -111.5t29 -162.5v-651h-76l-18 184q-51 -100 -149 -154.5t-226 -54.5z
M446 59q170 0 266.5 112.5t96.5 297.5v53l-330 -26q-143 -11 -212.5 -74.5t-69.5 -159.5q0 -99 67.5 -151t181.5 -52z" />
    <glyph glyph-name="b" unicode="b" horiz-adv-x="1165" 
d="M231 0h-75v1479h94v-709q53 118 151 178t230 60q141 0 244.5 -68.5t155.5 -184.5t52 -263t-52 -263t-155.5 -185t-244.5 -69q-131 0 -231 61.5t-154 184.5zM252 492q0 -192 98 -311.5t271 -119.5q171 0 268.5 119.5t97.5 311.5q0 191 -97.5 310.5t-268.5 119.5
q-173 0 -271 -119.5t-98 -310.5z" />
    <glyph glyph-name="c" unicode="c" horiz-adv-x="1038" 
d="M82 487q0 234 128 377.5t339 143.5q157 0 268.5 -85.5t145.5 -226.5h-97q-30 106 -117.5 167t-199.5 61q-166 0 -270.5 -119t-104.5 -316q0 -191 99.5 -309.5t263.5 -118.5q118 0 208.5 61.5t124.5 162.5h97q-40 -140 -157 -225t-273 -85q-203 0 -329 141t-126 371z" />
    <glyph glyph-name="d" unicode="d" horiz-adv-x="1165" 
d="M535 -25q-141 0 -245 69t-156 185t-52 263t52 263t156 184.5t245 68.5q132 0 229.5 -60t150.5 -178v709h95v-1479h-76l-14 221q-54 -123 -154 -184.5t-231 -61.5zM545 61q173 0 270.5 119.5t97.5 311.5q0 191 -97.5 310.5t-270.5 119.5q-171 0 -269 -119.5t-98 -310.5
q0 -192 98 -311.5t269 -119.5z" />
    <glyph glyph-name="e" unicode="e" horiz-adv-x="1056" 
d="M555 -25q-214 0 -343.5 141t-129.5 373q0 231 128 375t333 144q192 0 312 -126t120 -327v-66h-799q6 -201 106 -314.5t273 -113.5q264 0 324 222h96q-86 -308 -420 -308zM543 922q-150 0 -249 -96.5t-116 -258.5h701q0 160 -92 257.5t-244 97.5z" />
    <glyph glyph-name="f" unicode="f" horiz-adv-x="571" 
d="M41 983h154v221q0 141 66.5 208t168.5 67q56 0 100 -6v-82h-84q-89 0 -123 -44.5t-34 -142.5v-221h231v-82h-231v-901h-94v901h-154v82z" />
    <glyph glyph-name="g" unicode="g" horiz-adv-x="1169" 
d="M82 522q0 132 53 241t159 177t247 68q137 0 236.5 -65.5t148.5 -188.5l12 229h76v-963q0 -206 -126 -332t-331 -126q-179 0 -298 95t-150 263h92q28 -129 122.5 -200.5t235.5 -71.5q163 0 263 102.5t100 269.5v267q-51 -118 -154.5 -184t-237.5 -66q-137 0 -240.5 67.5
t-155.5 176.5t-52 241zM178 522q0 -169 97 -284t262 -115q171 0 269.5 112t98.5 289q0 176 -96 287t-268 111q-168 0 -265.5 -115.5t-97.5 -284.5z" />
    <glyph glyph-name="h" unicode="h" horiz-adv-x="1126" 
d="M250 2h-94v1477h94v-686q49 99 141.5 157t218.5 58q191 0 282 -108.5t91 -301.5v-598h-94v580q0 185 -74.5 263.5t-210.5 78.5q-86 0 -154.5 -31t-111.5 -85t-65.5 -123t-22.5 -148v-533z" />
    <glyph glyph-name="i" unicode="i" horiz-adv-x="405" 
d="M203 1284q-35 0 -60.5 25t-25.5 59q0 35 25.5 61.5t60.5 26.5q34 0 60 -26.5t26 -61.5q0 -34 -26 -59t-60 -25zM156 0v983h94v-983h-94z" />
    <glyph glyph-name="j" unicode="j" horiz-adv-x="405" 
d="M203 1284q-35 0 -60.5 25t-25.5 59q0 35 25.5 61.5t60.5 26.5q34 0 60 -26.5t26 -61.5q0 -34 -26 -59t-60 -25zM-119 -418l21 90q60 -14 102 -14q152 0 152 190v1135h94v-1135q0 -134 -63.5 -208t-178.5 -74q-67 0 -127 16z" />
    <glyph glyph-name="k" unicode="k" horiz-adv-x="937" 
d="M258 0h-94v1479h94v-1047l535 551h120l-381 -393l386 -590h-109l-340 526l-211 -219v-307z" />
    <glyph glyph-name="l" unicode="l" horiz-adv-x="421" 
d="M258 0h-94v1479h94v-1479z" />
    <glyph glyph-name="m" unicode="m" horiz-adv-x="1685" 
d="M250 0h-94v983h75l15 -152q38 84 117.5 130.5t183.5 46.5q117 0 202.5 -60t118.5 -162q33 103 119 162.5t207 59.5q155 0 251.5 -98t96.5 -267v-643h-90v631q0 135 -71.5 213t-194.5 78q-89 0 -156.5 -43t-100 -109t-32.5 -141v-629h-92v633q0 135 -71.5 212t-194.5 77
q-133 0 -211 -86.5t-78 -204.5v-631z" />
    <glyph glyph-name="n" unicode="n" horiz-adv-x="1126" 
d="M250 0h-94v983h75l21 -190q49 101 142.5 158t205.5 57q383 0 383 -410v-598h-94v580q0 186 -74.5 264t-216.5 78q-165 0 -256.5 -112.5t-91.5 -301.5v-508z" />
    <glyph glyph-name="o" unicode="o" horiz-adv-x="1138" 
d="M82 492q0 223 138 369.5t349 146.5t349.5 -146.5t138.5 -369.5t-138.5 -370t-349.5 -147t-349 147t-138 370zM178 492q0 -189 109.5 -310t281.5 -121t282 121t110 310t-110 309.5t-282 120.5t-281.5 -120.5t-109.5 -309.5z" />
    <glyph glyph-name="p" unicode="p" horiz-adv-x="1165" 
d="M156 -416v1399h75l15 -221q54 123 154 184.5t231 61.5q141 0 244.5 -68.5t155.5 -184.5t52 -263t-52 -263t-155.5 -185t-244.5 -69q-132 0 -230 60t-151 178v-629h-94zM252 492q0 -191 98 -311t271 -120q171 0 268.5 120t97.5 311q0 192 -97.5 311t-268.5 119
q-173 0 -271 -119t-98 -311z" />
    <glyph glyph-name="q" unicode="q" horiz-adv-x="1165" 
d="M82 492q0 147 52 263t156 184.5t245 68.5q131 0 231 -61.5t154 -184.5l14 221h76v-1399h-95v629q-53 -118 -150.5 -178t-229.5 -60q-141 0 -245 69t-156 185t-52 263zM178 492q0 -191 98 -311t269 -120q173 0 270.5 120t97.5 311q0 192 -97.5 311t-270.5 119
q-171 0 -269 -119t-98 -311z" />
    <glyph glyph-name="r" unicode="r" horiz-adv-x="665" 
d="M625 997v-82h-74q-135 0 -218 -89t-83 -228v-598h-94v983h88l8 -158q29 84 106 133.5t181 49.5q41 0 86 -11z" />
    <glyph glyph-name="s" unicode="s" horiz-adv-x="864" 
d="M68 266h92q0 -95 66 -150t180 -55q125 0 196.5 52t71.5 143q0 72 -39.5 112.5t-134.5 65.5l-166 43q-124 32 -186 98.5t-62 159.5q0 123 93 198t245 75t241.5 -76.5t94.5 -210.5h-92q-4 95 -69 148t-175 53q-118 0 -181 -48t-63 -139q0 -128 176 -174l164 -43
q129 -34 188.5 -96.5t59.5 -165.5q0 -126 -98.5 -203.5t-259.5 -77.5q-157 0 -249.5 79t-92.5 212z" />
    <glyph glyph-name="t" unicode="t" horiz-adv-x="573" 
d="M334 0h-94v901h-199v82h199v311h94v-311h198v-82h-198v-901z" />
    <glyph glyph-name="u" unicode="u" horiz-adv-x="1105" 
d="M856 983h94v-983h-76l-18 182q-40 -93 -137 -150t-219 -57q-173 0 -265 108.5t-92 293.5v608h97v-584q0 -340 282 -340q156 0 245 104.5t89 293.5v524z" />
    <glyph glyph-name="v" unicode="v" horiz-adv-x="952" 
d="M428 0l-408 983h101l293 -715q40 -102 63 -172q17 60 64 172l293 715h98l-408 -983h-96z" />
    <glyph glyph-name="w" unicode="w" horiz-adv-x="1470" 
d="M358 0l-327 983h96l221 -668q40 -118 60 -194q7 33 21 81t24 79t12 34l221 668h96l222 -668q38 -112 59 -192q30 110 57 192l223 668h97l-330 -983h-96l-234 702q-30 90 -45 158q-18 -72 -47 -158l-233 -702h-97z" />
    <glyph glyph-name="x" unicode="x" horiz-adv-x="880" 
d="M135 0h-115l357 496l-354 487h114l305 -422l306 422h112l-356 -491l356 -492h-115l-307 424z" />
    <glyph glyph-name="y" unicode="y" horiz-adv-x="913" 
d="M49 -416v76h92q27 0 42 1t41 4.5t43.5 12t38 23.5t37 39.5t28.5 58.5l49 133l-400 1051h99l346 -922l332 922h96l-436 -1210q-38 -104 -106 -152.5t-169 -48.5q-72 0 -133 12z" />
    <glyph glyph-name="z" unicode="z" horiz-adv-x="880" 
d="M799 0h-717v74l604 827h-604v82h717v-76l-602 -825h602v-82z" />
    <glyph glyph-name="braceleft" unicode="{" horiz-adv-x="546" 
d="M92 684v88q93 0 128.5 33.5t35.5 91.5v479q0 76 47.5 123t130.5 47h103v-82h-105q-40 0 -64 -25t-24 -63v-479q0 -66 -25.5 -107.5t-87.5 -60.5q62 -21 87.5 -62.5t25.5 -107.5v-481q0 -38 24 -63t64 -25h105v-82h-103q-83 0 -130.5 47t-47.5 123v481q0 58 -35.5 91.5
t-128.5 33.5z" />
    <glyph glyph-name="bar" unicode="|" horiz-adv-x="614" 
d="M266 -172v1798h82v-1798h-82z" />
    <glyph glyph-name="braceright" unicode="}" horiz-adv-x="546" 
d="M113 -92h-103v82h105q40 0 64 25t24 63v481q0 67 25 108t87 62q-62 19 -87 60t-25 108v479q0 38 -24 63t-64 25h-105v82h103q83 0 130.5 -47t47.5 -123v-479q0 -58 35.5 -91.5t128.5 -33.5v-88q-93 0 -128.5 -33.5t-35.5 -91.5v-481q0 -76 -47.5 -123t-130.5 -47z" />
    <glyph glyph-name="asciitilde" unicode="~" 
d="M1100 731h88q0 -133 -66 -212t-176 -79q-57 0 -119 22t-116 54t-106 63.5t-105 53.5t-97 22q-75 0 -111 -44.5t-40 -149.5h-88q0 130 65 207t174 77q51 0 109.5 -22t112.5 -53.5t107.5 -63.5t110.5 -54t105 -22q73 0 110.5 47.5t41.5 153.5z" />
    <glyph glyph-name="exclamdown" unicode="&#xa1;" horiz-adv-x="512" 
d="M258 1483q44 0 77.5 -33.5t33.5 -79.5t-33.5 -79.5t-77.5 -33.5q-47 0 -81 33.5t-34 79.5t34 79.5t81 33.5zM225 1018h62q16 -222 16 -670v-348h-94v348q0 448 16 670z" />
    <glyph glyph-name="cent" unicode="&#xa2;" horiz-adv-x="1103" 
d="M537 -2v219q-189 15 -312 154t-123 350q0 219 119.5 360.5t315.5 153.5v219h90v-219q150 -13 250 -96.5t131 -214.5h-99q-30 107 -120 166t-216 59q-166 0 -270 -116.5t-104 -309.5q0 -184 108.5 -301t274.5 -117q130 0 213 58t118 161h99q-38 -134 -137 -215.5
t-248 -91.5v-219h-90z" />
    <glyph glyph-name="sterling" unicode="&#xa3;" horiz-adv-x="1210" 
d="M713 0h-643v90q117 26 191.5 128.5t74.5 225.5q0 104 -49 246h-205v90h172q-24 66 -35 99.5t-23 91t-12 108.5q0 180 119.5 290t314.5 110q187 0 305 -99t140 -274h-102q-15 135 -104.5 209t-238.5 74q-158 0 -246.5 -82.5t-88.5 -229.5q0 -17 1 -33.5t4.5 -35.5
t5.5 -31.5t8.5 -34t8.5 -30.5t11 -34.5t11 -31t13 -34.5t12 -32h529v-90h-496q43 -127 43 -248q0 -118 -59 -217t-154 -135h492q166 0 239.5 82t73.5 266h94q0 -223 -100 -330.5t-307 -107.5z" />
    <glyph glyph-name="currency" unicode="&#xa4;" horiz-adv-x="1212" 
d="M1042 217l-159 160q-122 -98 -279 -98q-150 0 -274 96l-160 -158l-68 68l162 157q-96 120 -96 273q0 152 96 276l-162 158l68 68l160 -158q124 96 274 96q157 0 279 -98l159 160l68 -68l-162 -158q96 -120 96 -276q0 -157 -96 -273l162 -157zM952 715q0 143 -102 245.5
t-246 102.5q-141 0 -242.5 -102.5t-101.5 -245.5q0 -141 102 -242.5t242 -101.5q143 0 245.5 101.5t102.5 242.5z" />
    <glyph glyph-name="yen" unicode="&#xa5;" horiz-adv-x="1157" 
d="M502 680l-461 774h109l434 -752l426 752h106l-452 -774h344v-86h-377v-164h377v-86h-377v-344h-94v344h-379v86h379v164h-379v86h344z" />
    <glyph glyph-name="brokenbar" unicode="&#xa6;" horiz-adv-x="614" 
d="M348 1626v-745h-82v745h82zM266 -172v745h82v-745h-82z" />
    <glyph glyph-name="section" unicode="&#xa7;" horiz-adv-x="937" 
d="M852 729q0 -84 -59 -149t-164 -91q88 -33 134 -95t46 -144q0 -123 -93 -198t-245 -75t-241.5 76.5t-94.5 210.5h92q4 -95 69 -148t175 -53q118 0 181 48t63 139q0 65 -44.5 110.5t-131.5 63.5l-205 43q-128 27 -188 92t-60 170q0 84 59 149t164 91q-88 33 -134 95
t-46 144q0 123 93 198t245 75t241.5 -76.5t94.5 -210.5h-92q-4 95 -69 148t-175 53q-118 0 -181 -48t-63 -139q0 -65 44.5 -110.5t131.5 -63.5l205 -43q127 -26 187.5 -91t60.5 -171zM758 729q0 91 -75 142t-214 51t-214 -51t-75 -142t75 -141.5t214 -50.5t214 50.5
t75 141.5z" />
    <glyph glyph-name="dieresis" unicode="&#xa8;" horiz-adv-x="704" 
d="M217 1614q-35 0 -60.5 25t-25.5 59q0 35 25.5 61.5t60.5 26.5q34 0 60 -26.5t26 -61.5q0 -34 -26 -59t-60 -25zM487 1614q-35 0 -60.5 25t-25.5 59q0 35 25.5 61.5t60.5 26.5q34 0 60 -26.5t26 -61.5q0 -34 -26 -59t-60 -25z" />
    <glyph glyph-name="copyright" unicode="&#xa9;" horiz-adv-x="1669" 
d="M834 -29q-157 0 -296.5 58.5t-239.5 158.5t-158 240.5t-58 298.5q0 209 99 381.5t271.5 271.5t381.5 99q157 0 297 -58t240 -158t158 -239.5t58 -296.5q0 -211 -98.5 -384.5t-271 -272.5t-383.5 -99zM834 49q189 0 341.5 88t239 243.5t86.5 346.5q0 142 -51 267.5
t-139.5 214.5t-212 140.5t-264.5 51.5q-187 0 -339.5 -88t-239.5 -242.5t-87 -343.5q0 -143 51 -269t139 -215.5t211.5 -141.5t264.5 -52zM463 721q0 187 108.5 303.5t282.5 116.5q124 0 214.5 -68t119.5 -184h-96q-23 82 -84.5 125t-153.5 43q-133 0 -217 -93t-84 -241
q0 -146 81 -238t210 -92q94 0 159 43t93 123h94q-32 -114 -126.5 -182t-219.5 -68q-167 0 -274 115.5t-107 296.5z" />
    <glyph glyph-name="guillemotleft" unicode="&#xab;" horiz-adv-x="1103" 
d="M512 0l-430 492l430 491h100l-430 -491l430 -492h-100zM922 0l-430 492l430 491h100l-430 -491l430 -492h-100z" />
    <glyph glyph-name="logicalnot" unicode="&#xac;" 
d="M1102 655v-499h-94v409h-844v90h938z" />
    <glyph glyph-name="registered" unicode="&#xae;" horiz-adv-x="960" 
d="M481 688q-170 0 -284.5 114t-114.5 283q0 167 115 281.5t284 114.5t283.5 -113.5t114.5 -282.5q0 -170 -114 -283.5t-284 -113.5zM481 745q145 0 241.5 97t96.5 243q0 145 -96.5 241.5t-241.5 96.5t-241.5 -96.5t-96.5 -241.5q0 -146 96 -243t242 -97zM397 868h-63v443
h160q72 0 114.5 -36t42.5 -99q0 -44 -23.5 -77t-68.5 -48l100 -183h-71l-90 168h-101v-168zM584 1174q0 38 -24.5 57.5t-67.5 19.5h-95v-155h95q43 0 67.5 20t24.5 58z" />
    <glyph glyph-name="macron" unicode="&#xaf;" horiz-adv-x="688" 
d="M123 1694v86h442v-86h-442z" />
    <glyph glyph-name="degree" unicode="&#xb0;" horiz-adv-x="495" 
d="M475 1251q0 -98 -65 -162.5t-162 -64.5t-162.5 64.5t-65.5 162.5t65.5 163t162.5 65t162 -65t65 -163zM393 1251q0 65 -40.5 107.5t-104.5 42.5t-105 -42.5t-41 -107.5t41 -107t105 -42t104.5 42t40.5 107z" />
    <glyph glyph-name="plusminus" unicode="&#xb1;" 
d="M164 797h467v405h90v-405h467v-90h-467v-406h-90v406h-467v90zM164 0v90h1024v-90h-1024z" />
    <glyph glyph-name="twosuperior" unicode="&#xb2;" horiz-adv-x="690" 
d="M635 676h-580v76l312 252q170 138 170 282q0 98 -49.5 149.5t-143.5 51.5t-146.5 -58.5t-52.5 -162.5h-86q0 138 78.5 221.5t208.5 83.5q129 0 204 -76t75 -207q0 -181 -207 -346l-228 -182h445v-84z" />
    <glyph glyph-name="threesuperior" unicode="&#xb3;" horiz-adv-x="698" 
d="M291 1145h-51v63l282 265h-432v83h535v-92l-258 -239q119 -8 197.5 -84.5t78.5 -196.5q0 -127 -86.5 -204.5t-218.5 -77.5t-211.5 78.5t-79.5 203.5h86q0 -92 55.5 -146.5t149.5 -54.5q95 0 155 55t60 148q0 78 -47 130t-133 65q-25 4 -82 4z" />
    <glyph glyph-name="acute" unicode="&#xb4;" horiz-adv-x="399" 
d="M317 1784l-137 -217h-86l111 217h112z" />
    <glyph glyph-name="micro" unicode="&#xb5;" horiz-adv-x="1105" 
d="M238 -416h-95v1401h97v-584q0 -340 282 -340q156 0 245 104.5t89 293.5v524h94v-983h-76l-18 182q-40 -93 -137 -150t-219 -57q-82 0 -151.5 31t-110.5 82v-504z" />
    <glyph glyph-name="paragraph" unicode="&#xb6;" horiz-adv-x="1144" 
d="M61 1044q0 189 110 299.5t273 110.5h218v-1573h-95v748h-123q-163 0 -273 111.5t-110 303.5zM920 -123h-95v1577h95v-1577z" />
    <glyph glyph-name="periodcentered" unicode="&#xb7;" horiz-adv-x="512" 
d="M256 348q-65 0 -112.5 47t-47.5 111q0 66 47 113t113 47t113 -47t47 -113q0 -64 -47.5 -111t-112.5 -47z" />
    <glyph glyph-name="cedilla" unicode="&#xb8;" horiz-adv-x="442" 
d="M82 -319v73q53 -30 106 -30q38 0 64.5 16.5t26.5 48.5q0 33 -21.5 49.5t-58.5 16.5q-40 0 -101 -27l-16 45l84 180h47v-53l-41 -90q33 10 57 10q58 0 94.5 -34.5t36.5 -92.5q0 -68 -47 -104.5t-114 -36.5q-75 0 -117 29z" />
    <glyph glyph-name="onesuperior" unicode="&#xb9;" horiz-adv-x="415" 
d="M227 1473h-184v83h272v-880h-88v797z" />
    <glyph glyph-name="guillemotright" unicode="&#xbb;" horiz-adv-x="1103" 
d="M182 0h-100l430 492l-430 491h100l430 -491zM592 0h-100l430 492l-430 491h100l430 -491z" />
    <glyph glyph-name="onequarter" unicode="&#xbc;" horiz-adv-x="1142" 
d="M197 1378h-152v76h234v-666h-82v590zM1065 1454l-932 -1454h-98l930 1454h100zM928 137h-348v76l329 453h99v-453h82v-76h-82v-137h-80v137zM670 213h258v354z" />
    <glyph glyph-name="onehalf" unicode="&#xbd;" horiz-adv-x="1204" 
d="M197 1378h-152v76h234v-666h-82v590zM1065 1454l-932 -1454h-98l930 1454h100zM1159 0h-454v57l215 176q78 66 109.5 116t31.5 108q0 66 -37.5 104.5t-103.5 38.5q-65 0 -103.5 -38.5t-38.5 -102.5h-84q0 97 63.5 157t164.5 60t163 -59.5t62 -157.5q0 -75 -39 -137
t-137 -144l-125 -102h313v-76z" />
    <glyph glyph-name="threequarters" unicode="&#xbe;" horiz-adv-x="1239" 
d="M45 995h84q0 -65 39 -103t106 -38t105.5 34.5t38.5 94.5q0 73 -49 112.5t-140 39.5h-41v57l195 184h-305v78h409v-80l-186 -174q89 -6 145 -63.5t56 -143.5q0 -100 -62 -158.5t-168 -58.5q-101 0 -164 61t-63 158zM1161 1454l-932 -1454h-98l930 1454h100zM1024 137h-348
v76l330 453h98v-453h82v-76h-82v-137h-80v137zM766 213h258v354z" />
    <glyph glyph-name="questiondown" unicode="&#xbf;" horiz-adv-x="1021" 
d="M553 1481q47 0 81 -33.5t34 -79.5t-34 -79.5t-81 -33.5q-44 0 -77.5 33.5t-33.5 79.5t33.5 79.5t77.5 33.5zM516 1137h92v-58q0 -57 -16.5 -105t-51.5 -90t-67.5 -70.5t-85.5 -68.5q-54 -41 -84.5 -68t-66.5 -69.5t-53 -91.5t-17 -108q0 -145 95.5 -243.5t248.5 -98.5
q143 0 244.5 100.5t101.5 241.5h94q0 -181 -129 -308t-311 -127q-196 0 -317 125t-121 310q0 60 16 114t37.5 91.5t60.5 78t67 63.5t75 58q99 73 143.5 130.5t44.5 135.5v58z" />
    <glyph glyph-name="Agrave" unicode="&#xc0;" horiz-adv-x="1290" 
d="M678 1567h-86l-133 219h112zM129 0h-98l538 1454h146l545 -1454h-101l-153 408h-725zM629 1350l-316 -852h660l-320 852q-1 4 -4 12t-5 14t-3 10q-4 -16 -12 -36z" />
    <glyph glyph-name="Aacute" unicode="&#xc1;" horiz-adv-x="1290" 
d="M827 1784l-137 -217h-86l111 217h112zM129 0h-98l538 1454h146l545 -1454h-101l-153 408h-725zM629 1350l-316 -852h660l-320 852q-1 4 -4 12t-5 14t-3 10q-4 -16 -12 -36z" />
    <glyph glyph-name="Acircumflex" unicode="&#xc2;" horiz-adv-x="1290" 
d="M522 1567h-98l143 219h146l143 -219h-98l-117 172zM129 0h-98l538 1454h146l545 -1454h-101l-153 408h-725zM629 1350l-316 -852h660l-320 852q-1 4 -4 12t-5 14t-3 10q-4 -16 -12 -36z" />
    <glyph glyph-name="Atilde" unicode="&#xc3;" horiz-adv-x="1290" 
d="M465 1608h-82q-3 89 32.5 138.5t100.5 49.5q34 0 67.5 -16.5t56 -36.5t52 -36.5t56.5 -16.5q35 0 51 25t16 81h82q0 -90 -37 -139t-110 -49q-37 0 -71 16.5t-55.5 36.5t-47.5 36.5t-48 16.5q-30 0 -46.5 -27t-16.5 -79zM129 0h-98l538 1454h146l545 -1454h-101l-153 408
h-725zM629 1350l-316 -852h660l-320 852q-1 4 -4 12t-5 14t-3 10q-4 -16 -12 -36z" />
    <glyph glyph-name="Adieresis" unicode="&#xc4;" horiz-adv-x="1290" 
d="M506 1614q-35 0 -60.5 25t-25.5 59q0 35 25.5 61.5t60.5 26.5q34 0 60 -26.5t26 -61.5q0 -34 -26 -59t-60 -25zM776 1614q-35 0 -60.5 25t-25.5 59q0 35 25.5 61.5t60.5 26.5q34 0 60 -26.5t26 -61.5q0 -34 -26 -59t-60 -25zM129 0h-98l538 1454h146l545 -1454h-101
l-153 408h-725zM629 1350l-316 -852h660l-320 852q-1 4 -4 12t-5 14t-3 10q-4 -16 -12 -36z" />
    <glyph glyph-name="Aring" unicode="&#xc5;" horiz-adv-x="1290" 
d="M641 1569q-89 0 -146 58t-57 147q0 87 58 144.5t145 57.5q86 0 144.5 -58t58.5 -144t-58.5 -145.5t-144.5 -59.5zM641 1649q52 0 84.5 34.5t32.5 90.5q0 54 -33 89t-84 35t-84 -34.5t-33 -89.5q0 -56 32.5 -90.5t84.5 -34.5zM129 0h-98l538 1454h146l545 -1454h-101
l-153 408h-725zM629 1350l-316 -852h660l-320 852q-1 4 -4 12t-5 14t-3 10q-4 -16 -12 -36z" />
    <glyph glyph-name="AE" unicode="&#xc6;" horiz-adv-x="1798" 
d="M20 0l580 1454h1075v-90h-751v-590h684v-90h-684v-594h751v-90h-850v444h-530l-176 -444h-99zM332 535h493v829h-163z" />
    <glyph glyph-name="Ccedilla" unicode="&#xc7;" horiz-adv-x="1466" 
d="M662 -319v73q52 -30 106 -30q38 0 64 16.5t26 48.5q0 33 -21.5 49.5t-58.5 16.5q-39 0 -100 -27l-16 45l49 107q-276 20 -447.5 226t-171.5 521q0 220 86 391t241.5 266t354.5 95q223 0 389 -127t213 -334h-108q-50 169 -184.5 267.5t-315.5 98.5q-257 0 -416 -182
t-159 -475t159 -474t416 -181q181 0 319 93.5t189 250.5h108q-51 -193 -217 -313.5t-385 -125.5l-30 -67q33 10 57 10q58 0 94.5 -34.5t36.5 -92.5q0 -68 -47.5 -104.5t-114.5 -36.5q-74 0 -116 29z" />
    <glyph glyph-name="Egrave" unicode="&#xc8;" horiz-adv-x="1163" 
d="M635 1567h-86l-133 219h112zM1040 0h-856v1454h854v-90h-755v-590h688v-90h-688v-594h757v-90z" />
    <glyph glyph-name="Eacute" unicode="&#xc9;" horiz-adv-x="1163" 
d="M784 1784l-137 -217h-86l111 217h112zM1040 0h-856v1454h854v-90h-755v-590h688v-90h-688v-594h757v-90z" />
    <glyph glyph-name="Ecircumflex" unicode="&#xca;" horiz-adv-x="1163" 
d="M479 1567h-98l143 219h146l143 -219h-98l-117 172zM1040 0h-856v1454h854v-90h-755v-590h688v-90h-688v-594h757v-90z" />
    <glyph glyph-name="Edieresis" unicode="&#xcb;" horiz-adv-x="1163" 
d="M463 1614q-35 0 -60.5 25t-25.5 59q0 35 25.5 61.5t60.5 26.5q34 0 60 -26.5t26 -61.5q0 -34 -26 -59t-60 -25zM733 1614q-35 0 -60.5 25t-25.5 59q0 35 25.5 61.5t60.5 26.5q34 0 60 -26.5t26 -61.5q0 -34 -26 -59t-60 -25zM1040 0h-856v1454h854v-90h-755v-590h688v-90
h-688v-594h757v-90z" />
    <glyph glyph-name="Igrave" unicode="&#xcc;" horiz-adv-x="466" 
d="M270 1567h-86l-133 219h113zM283 1454v-1454h-99v1454h99z" />
    <glyph glyph-name="Iacute" unicode="&#xcd;" horiz-adv-x="466" 
d="M420 1784l-137 -217h-86l110 217h113zM283 1454v-1454h-99v1454h99z" />
    <glyph glyph-name="Icircumflex" unicode="&#xce;" horiz-adv-x="466" 
d="M115 1567h-99l144 219h145l144 -219h-99l-117 172zM283 1454v-1454h-99v1454h99z" />
    <glyph glyph-name="Idieresis" unicode="&#xcf;" horiz-adv-x="466" 
d="M98 1614q-35 0 -60.5 25t-25.5 59q0 35 25.5 61.5t60.5 26.5q34 0 60 -26.5t26 -61.5q0 -34 -26 -59t-60 -25zM369 1614q-35 0 -60.5 25t-25.5 59q0 35 25.5 61.5t60.5 26.5q34 0 60 -26.5t26 -61.5q0 -34 -26 -59t-60 -25zM283 1454v-1454h-99v1454h99z" />
    <glyph glyph-name="Eth" unicode="&#xd0;" horiz-adv-x="1417" 
d="M592 0h-408v682h-143v90h143v682h408q330 0 531.5 -200t201.5 -527t-201.5 -527t-531.5 -200zM602 682h-319v-592h309q288 0 460.5 173.5t172.5 463.5q0 292 -171.5 464.5t-461.5 172.5h-309v-592h319v-90z" />
    <glyph glyph-name="Ntilde" unicode="&#xd1;" horiz-adv-x="1419" 
d="M535 1608h-82q-3 89 32.5 138.5t100.5 49.5q43 0 83.5 -26.5t77 -53t70.5 -26.5q35 0 51.5 25.5t16.5 80.5h82q0 -90 -37.5 -139t-110.5 -49q-37 0 -71 16.5t-55 36.5t-47 36.5t-48 16.5q-30 0 -46.5 -27t-16.5 -79zM283 0h-99v1454h101l852 -1288v1288h98v-1454h-98
l-854 1292v-1292z" />
    <glyph glyph-name="Ograve" unicode="&#xd2;" horiz-adv-x="1558" 
d="M815 1567h-86l-133 219h113zM1466 727q0 -217 -87.5 -389t-244.5 -267.5t-356 -95.5t-355.5 95.5t-243.5 267.5t-87 389t87.5 389t244 267.5t354.5 95.5q199 0 356 -95.5t244.5 -267.5t87.5 -389zM1366 727q0 191 -74.5 341t-208.5 233t-305 83q-258 0 -421.5 -183.5
t-163.5 -473.5t163.5 -473.5t421.5 -183.5q171 0 305 83t208.5 233t74.5 341z" />
    <glyph glyph-name="Oacute" unicode="&#xd3;" horiz-adv-x="1558" 
d="M965 1784l-138 -217h-86l111 217h113zM1466 727q0 -217 -87.5 -389t-244.5 -267.5t-356 -95.5t-355.5 95.5t-243.5 267.5t-87 389t87.5 389t244 267.5t354.5 95.5q199 0 356 -95.5t244.5 -267.5t87.5 -389zM1366 727q0 191 -74.5 341t-208.5 233t-305 83
q-258 0 -421.5 -183.5t-163.5 -473.5t163.5 -473.5t421.5 -183.5q171 0 305 83t208.5 233t74.5 341z" />
    <glyph glyph-name="Ocircumflex" unicode="&#xd4;" horiz-adv-x="1558" 
d="M659 1567h-98l144 219h145l143 -219h-98l-117 172zM1466 727q0 -217 -87.5 -389t-244.5 -267.5t-356 -95.5t-355.5 95.5t-243.5 267.5t-87 389t87.5 389t244 267.5t354.5 95.5q199 0 356 -95.5t244.5 -267.5t87.5 -389zM1366 727q0 191 -74.5 341t-208.5 233t-305 83
q-258 0 -421.5 -183.5t-163.5 -473.5t163.5 -473.5t421.5 -183.5q171 0 305 83t208.5 233t74.5 341z" />
    <glyph glyph-name="Otilde" unicode="&#xd5;" horiz-adv-x="1558" 
d="M602 1608h-82q-3 89 32.5 138.5t100.5 49.5q34 0 67.5 -16.5t56 -36.5t52 -36.5t56.5 -16.5q35 0 51 25t16 81h82q0 -90 -37 -139t-110 -49q-37 0 -71 16.5t-55 36.5t-47 36.5t-48 16.5q-30 0 -47 -27t-17 -79zM1466 727q0 -217 -87.5 -389t-244.5 -267.5t-356 -95.5
t-355.5 95.5t-243.5 267.5t-87 389t87.5 389t244 267.5t354.5 95.5q199 0 356 -95.5t244.5 -267.5t87.5 -389zM1366 727q0 191 -74.5 341t-208.5 233t-305 83q-258 0 -421.5 -183.5t-163.5 -473.5t163.5 -473.5t421.5 -183.5q171 0 305 83t208.5 233t74.5 341z" />
    <glyph glyph-name="Odieresis" unicode="&#xd6;" horiz-adv-x="1558" 
d="M643 1614q-35 0 -60.5 25t-25.5 59q0 35 25.5 61.5t60.5 26.5q34 0 60 -26.5t26 -61.5q0 -34 -26 -59t-60 -25zM913 1614q-35 0 -60.5 25t-25.5 59q0 35 25.5 61.5t60.5 26.5q34 0 60 -26.5t26 -61.5q0 -34 -26 -59t-60 -25zM1466 727q0 -217 -87.5 -389t-244.5 -267.5
t-356 -95.5t-355.5 95.5t-243.5 267.5t-87 389t87.5 389t244 267.5t354.5 95.5q199 0 356 -95.5t244.5 -267.5t87.5 -389zM1366 727q0 191 -74.5 341t-208.5 233t-305 83q-258 0 -421.5 -183.5t-163.5 -473.5t163.5 -473.5t421.5 -183.5q171 0 305 83t208.5 233t74.5 341z
" />
    <glyph glyph-name="multiply" unicode="&#xd7;" 
d="M289 1141l387 -387l389 387l63 -64l-389 -387l389 -389l-63 -63l-389 389l-389 -389l-64 63l389 389l-387 387z" />
    <glyph glyph-name="Oslash" unicode="&#xd8;" horiz-adv-x="1558" 
d="M1466 727q0 -217 -87.5 -389t-244.5 -267.5t-356 -95.5q-238 0 -418 140l-88 -115h-102l129 170q-98 101 -152.5 244.5t-54.5 312.5q0 217 87.5 389t244 267.5t354.5 95.5q237 0 420 -140l88 115h105l-131 -170q98 -103 152 -245.5t54 -311.5zM193 727q0 -295 167 -479
l779 1014q-150 122 -361 122q-258 0 -421.5 -183.5t-163.5 -473.5zM1366 727q0 292 -168 477l-778 -1011q151 -123 358 -123q171 0 305 83t208.5 233t74.5 341z" />
    <glyph glyph-name="Ugrave" unicode="&#xd9;" horiz-adv-x="1386" 
d="M731 1567h-86l-133 219h113zM174 494v960h98v-958q0 -206 109 -315t315 -109q201 0 309.5 110t108.5 314v958h98v-960q0 -243 -136.5 -381t-379.5 -138q-246 0 -384 137t-138 382z" />
    <glyph glyph-name="Uacute" unicode="&#xda;" horiz-adv-x="1386" 
d="M881 1784l-138 -217h-86l111 217h113zM174 494v960h98v-958q0 -206 109 -315t315 -109q201 0 309.5 110t108.5 314v958h98v-960q0 -243 -136.5 -381t-379.5 -138q-246 0 -384 137t-138 382z" />
    <glyph glyph-name="Ucircumflex" unicode="&#xdb;" horiz-adv-x="1386" 
d="M575 1567h-98l144 219h145l143 -219h-98l-117 172zM174 494v960h98v-958q0 -206 109 -315t315 -109q201 0 309.5 110t108.5 314v958h98v-960q0 -243 -136.5 -381t-379.5 -138q-246 0 -384 137t-138 382z" />
    <glyph glyph-name="Udieresis" unicode="&#xdc;" horiz-adv-x="1386" 
d="M559 1614q-35 0 -60.5 25t-25.5 59q0 35 25.5 61.5t60.5 26.5q34 0 60 -26.5t26 -61.5q0 -34 -26 -59t-60 -25zM829 1614q-35 0 -60.5 25t-25.5 59q0 35 25.5 61.5t60.5 26.5q34 0 60 -26.5t26 -61.5q0 -34 -26 -59t-60 -25zM174 494v960h98v-958q0 -206 109 -315
t315 -109q201 0 309.5 110t108.5 314v958h98v-960q0 -243 -136.5 -381t-379.5 -138q-246 0 -384 137t-138 382z" />
    <glyph glyph-name="Yacute" unicode="&#xdd;" horiz-adv-x="1118" 
d="M748 1784l-138 -217h-86l111 217h113zM514 623l-494 831h113l389 -672q32 -57 41 -77q16 34 41 77l385 672h109l-486 -831v-623h-98v623z" />
    <glyph glyph-name="Thorn" unicode="&#xde;" horiz-adv-x="1234" 
d="M727 301h-444v-301h-99v1454h99v-287h444q204 0 325.5 -120t121.5 -310q0 -119 -53.5 -217.5t-157 -158.5t-236.5 -60zM723 1077h-440v-686h428q166 0 264 99t98 251q0 150 -95.5 243t-254.5 93z" />
    <glyph glyph-name="germandbls" unicode="&#xdf;" horiz-adv-x="1124" 
d="M250 0h-94v1059q0 195 115 307.5t300 112.5q164 0 265.5 -97t101.5 -252q0 -105 -58.5 -188t-160.5 -113q153 -26 243.5 -133t90.5 -256q0 -91 -33 -171t-94 -140t-155 -94.5t-210 -34.5q-129 0 -190 12v76h196q183 0 286 101t103 251q0 158 -102.5 247t-294.5 89h-106
v88h106q129 0 206 72.5t77 193.5q0 112 -72 187.5t-197 75.5q-144 0 -233.5 -89.5t-89.5 -244.5v-1059z" />
    <glyph glyph-name="agrave" unicode="&#xe0;" horiz-adv-x="1046" 
d="M567 1096h-86l-133 219h113zM434 -25q-156 0 -244 78.5t-88 206.5q0 134 98 216.5t271 96.5l338 27v37q0 285 -287 285q-136 0 -213.5 -61.5t-77.5 -168.5h-94q0 144 106.5 230t280.5 86q81 0 148.5 -20.5t120 -62.5t81.5 -111.5t29 -162.5v-651h-76l-18 184
q-51 -100 -149 -154.5t-226 -54.5zM446 59q170 0 266.5 112.5t96.5 297.5v53l-330 -26q-143 -11 -212.5 -74.5t-69.5 -159.5q0 -99 67.5 -151t181.5 -52z" />
    <glyph glyph-name="aacute" unicode="&#xe1;" horiz-adv-x="1046" 
d="M717 1313l-137 -217h-86l110 217h113zM434 -25q-156 0 -244 78.5t-88 206.5q0 134 98 216.5t271 96.5l338 27v37q0 285 -287 285q-136 0 -213.5 -61.5t-77.5 -168.5h-94q0 144 106.5 230t280.5 86q81 0 148.5 -20.5t120 -62.5t81.5 -111.5t29 -162.5v-651h-76l-18 184
q-51 -100 -149 -154.5t-226 -54.5zM446 59q170 0 266.5 112.5t96.5 297.5v53l-330 -26q-143 -11 -212.5 -74.5t-69.5 -159.5q0 -99 67.5 -151t181.5 -52z" />
    <glyph glyph-name="acircumflex" unicode="&#xe2;" horiz-adv-x="1046" 
d="M412 1096h-99l144 219h145l143 -219h-98l-117 172zM434 -25q-156 0 -244 78.5t-88 206.5q0 134 98 216.5t271 96.5l338 27v37q0 285 -287 285q-136 0 -213.5 -61.5t-77.5 -168.5h-94q0 144 106.5 230t280.5 86q81 0 148.5 -20.5t120 -62.5t81.5 -111.5t29 -162.5v-651
h-76l-18 184q-51 -100 -149 -154.5t-226 -54.5zM446 59q170 0 266.5 112.5t96.5 297.5v53l-330 -26q-143 -11 -212.5 -74.5t-69.5 -159.5q0 -99 67.5 -151t181.5 -52z" />
    <glyph glyph-name="atilde" unicode="&#xe3;" horiz-adv-x="1046" 
d="M354 1137h-82q-3 89 33 138.5t101 49.5q43 0 83.5 -26.5t77 -53t70.5 -26.5q35 0 51.5 25.5t16.5 80.5h81q0 -90 -37 -139t-110 -49q-37 0 -71 16.5t-55 36.5t-47 36.5t-48 16.5q-30 0 -47 -27t-17 -79zM434 -25q-156 0 -244 78.5t-88 206.5q0 134 98 216.5t271 96.5
l338 27v37q0 285 -287 285q-136 0 -213.5 -61.5t-77.5 -168.5h-94q0 144 106.5 230t280.5 86q81 0 148.5 -20.5t120 -62.5t81.5 -111.5t29 -162.5v-651h-76l-18 184q-51 -100 -149 -154.5t-226 -54.5zM446 59q170 0 266.5 112.5t96.5 297.5v53l-330 -26
q-143 -11 -212.5 -74.5t-69.5 -159.5q0 -99 67.5 -151t181.5 -52z" />
    <glyph glyph-name="adieresis" unicode="&#xe4;" horiz-adv-x="1046" 
d="M395 1143q-35 0 -60.5 25t-25.5 59q0 35 25.5 61.5t60.5 26.5q34 0 60 -26.5t26 -61.5q0 -34 -26 -59t-60 -25zM666 1143q-35 0 -60.5 25t-25.5 59q0 35 25.5 61.5t60.5 26.5q34 0 60 -26.5t26 -61.5q0 -34 -26 -59t-60 -25zM434 -25q-156 0 -244 78.5t-88 206.5
q0 134 98 216.5t271 96.5l338 27v37q0 285 -287 285q-136 0 -213.5 -61.5t-77.5 -168.5h-94q0 144 106.5 230t280.5 86q81 0 148.5 -20.5t120 -62.5t81.5 -111.5t29 -162.5v-651h-76l-18 184q-51 -100 -149 -154.5t-226 -54.5zM446 59q170 0 266.5 112.5t96.5 297.5v53
l-330 -26q-143 -11 -212.5 -74.5t-69.5 -159.5q0 -99 67.5 -151t181.5 -52z" />
    <glyph glyph-name="aring" unicode="&#xe5;" horiz-adv-x="1046" 
d="M530 1098q-89 0 -145.5 57.5t-56.5 147.5q0 87 57.5 144.5t144.5 57.5q86 0 144.5 -58t58.5 -144t-58.5 -145.5t-144.5 -59.5zM530 1178q52 0 84.5 34.5t32.5 90.5q0 54 -33 89t-84 35t-83.5 -34.5t-32.5 -89.5q0 -56 32 -90.5t84 -34.5zM434 -25q-156 0 -244 78.5
t-88 206.5q0 134 98 216.5t271 96.5l338 27v37q0 285 -287 285q-136 0 -213.5 -61.5t-77.5 -168.5h-94q0 144 106.5 230t280.5 86q81 0 148.5 -20.5t120 -62.5t81.5 -111.5t29 -162.5v-651h-76l-18 184q-51 -100 -149 -154.5t-226 -54.5zM446 59q170 0 266.5 112.5
t96.5 297.5v53l-330 -26q-143 -11 -212.5 -74.5t-69.5 -159.5q0 -99 67.5 -151t181.5 -52z" />
    <glyph glyph-name="ae" unicode="&#xe6;" horiz-adv-x="1781" 
d="M102 266q0 140 95.5 212t261.5 75l350 8v76q0 135 -78 210t-209 75q-136 0 -213.5 -61.5t-77.5 -168.5h-94q0 144 106.5 230t280.5 86q128 0 224 -65t126 -169q58 110 160 172t234 62q192 0 312 -126t120 -327v-66h-801q6 -199 106.5 -313.5t274.5 -114.5q264 0 324 222
h96q-86 -308 -420 -308q-149 0 -259 72t-165 201q-41 -121 -153 -197t-265 -76q-158 0 -247 78.5t-89 212.5zM1268 922q-148 0 -249 -97t-118 -258h703q0 160 -92 257.5t-244 97.5zM197 272q0 -106 70 -159.5t192 -53.5q158 0 254 97t96 256v71l-350 -8q-262 -6 -262 -203z
" />
    <glyph glyph-name="ccedilla" unicode="&#xe7;" horiz-adv-x="1038" 
d="M82 487q0 234 128 377.5t339 143.5q157 0 268.5 -85.5t145.5 -226.5h-97q-30 106 -117.5 167t-199.5 61q-166 0 -270.5 -119t-104.5 -316q0 -191 99.5 -309.5t263.5 -118.5q118 0 208.5 61.5t124.5 162.5h97q-38 -132 -145 -215.5t-251 -92.5l-30 -67q33 10 57 10
q58 0 94.5 -34.5t36.5 -92.5q0 -68 -47.5 -104.5t-114.5 -36.5q-74 0 -116 29v73q53 -30 106 -30q38 0 64 16.5t26 48.5q0 33 -21.5 49.5t-58.5 16.5q-39 0 -100 -27l-16 45l49 104q-188 14 -303 152.5t-115 357.5z" />
    <glyph glyph-name="egrave" unicode="&#xe8;" horiz-adv-x="1056" 
d="M580 1096h-86l-134 219h113zM555 -25q-214 0 -343.5 141t-129.5 373q0 231 128 375t333 144q192 0 312 -126t120 -327v-66h-799q6 -201 106 -314.5t273 -113.5q264 0 324 222h96q-86 -308 -420 -308zM543 922q-150 0 -249 -96.5t-116 -258.5h701q0 160 -92 257.5
t-244 97.5z" />
    <glyph glyph-name="eacute" unicode="&#xe9;" horiz-adv-x="1056" 
d="M729 1313l-137 -217h-86l110 217h113zM555 -25q-214 0 -343.5 141t-129.5 373q0 231 128 375t333 144q192 0 312 -126t120 -327v-66h-799q6 -201 106 -314.5t273 -113.5q264 0 324 222h96q-86 -308 -420 -308zM543 922q-150 0 -249 -96.5t-116 -258.5h701
q0 160 -92 257.5t-244 97.5z" />
    <glyph glyph-name="ecircumflex" unicode="&#xea;" horiz-adv-x="1056" 
d="M424 1096h-98l143 219h145l144 -219h-99l-116 172zM555 -25q-214 0 -343.5 141t-129.5 373q0 231 128 375t333 144q192 0 312 -126t120 -327v-66h-799q6 -201 106 -314.5t273 -113.5q264 0 324 222h96q-86 -308 -420 -308zM543 922q-150 0 -249 -96.5t-116 -258.5h701
q0 160 -92 257.5t-244 97.5z" />
    <glyph glyph-name="edieresis" unicode="&#xeb;" horiz-adv-x="1056" 
d="M408 1143q-35 0 -60.5 25t-25.5 59q0 35 25.5 61.5t60.5 26.5q34 0 60 -26.5t26 -61.5q0 -34 -26 -59t-60 -25zM678 1143q-35 0 -60.5 25t-25.5 59q0 35 25.5 61.5t60.5 26.5q34 0 60 -26.5t26 -61.5q0 -34 -26 -59t-60 -25zM555 -25q-214 0 -343.5 141t-129.5 373
q0 231 128 375t333 144q192 0 312 -126t120 -327v-66h-799q6 -201 106 -314.5t273 -113.5q264 0 324 222h96q-86 -308 -420 -308zM543 922q-150 0 -249 -96.5t-116 -258.5h701q0 160 -92 257.5t-244 97.5z" />
    <glyph glyph-name="igrave" unicode="&#xec;" horiz-adv-x="405" 
d="M240 1096h-86l-134 219h113zM156 0v983h94v-983h-94z" />
    <glyph glyph-name="iacute" unicode="&#xed;" horiz-adv-x="405" 
d="M389 1313l-137 -217h-86l110 217h113zM156 0v983h94v-983h-94z" />
    <glyph glyph-name="icircumflex" unicode="&#xee;" horiz-adv-x="405" 
d="M84 1096h-98l143 219h145l144 -219h-99l-116 172zM156 0v983h94v-983h-94z" />
    <glyph glyph-name="idieresis" unicode="&#xef;" horiz-adv-x="405" 
d="M68 1143q-35 0 -60.5 25t-25.5 59q0 35 25.5 61.5t60.5 26.5q34 0 60 -26.5t26 -61.5q0 -34 -26 -59t-60 -25zM338 1143q-35 0 -60.5 25t-25.5 59q0 35 25.5 61.5t60.5 26.5q34 0 60 -26.5t26 -61.5q0 -34 -26 -59t-60 -25zM156 0v983h94v-983h-94z" />
    <glyph glyph-name="eth" unicode="&#xf0;" horiz-adv-x="1171" 
d="M82 492q0 140 67.5 258t183.5 186t253 68q118 0 221.5 -56t169.5 -155q-45 145 -117 252.5t-201 234.5l-188 -119l-39 68l168 106q-64 61 -160 144h123q53 -42 111 -97l166 107l41 -70l-148 -92q192 -193 274.5 -373.5t82.5 -410.5q0 -254 -141.5 -411t-370.5 -157
q-212 0 -354 148.5t-142 368.5zM178 489q0 -188 113.5 -308t290.5 -120q180 0 295.5 123.5t115.5 315.5q0 182 -112 298.5t-287 116.5q-181 0 -298.5 -120.5t-117.5 -305.5z" />
    <glyph glyph-name="ntilde" unicode="&#xf1;" horiz-adv-x="1126" 
d="M385 1137h-82q-3 89 32.5 138.5t100.5 49.5q34 0 67.5 -16.5t56 -36.5t52 -36.5t56.5 -16.5q35 0 51 25t16 81h82q0 -90 -37 -139t-110 -49q-37 0 -71 16.5t-55 36.5t-47 36.5t-48 16.5q-30 0 -47 -27t-17 -79zM250 0h-94v983h75l21 -190q49 101 142.5 158t205.5 57
q383 0 383 -410v-598h-94v580q0 186 -74.5 264t-216.5 78q-165 0 -256.5 -112.5t-91.5 -301.5v-508z" />
    <glyph glyph-name="ograve" unicode="&#xf2;" horiz-adv-x="1138" 
d="M606 1096h-86l-133 219h113zM82 492q0 223 138 369.5t349 146.5t349.5 -146.5t138.5 -369.5t-138.5 -370t-349.5 -147t-349 147t-138 370zM178 492q0 -189 109.5 -310t281.5 -121t282 121t110 310t-110 309.5t-282 120.5t-281.5 -120.5t-109.5 -309.5z" />
    <glyph glyph-name="oacute" unicode="&#xf3;" horiz-adv-x="1138" 
d="M756 1313l-138 -217h-86l111 217h113zM82 492q0 223 138 369.5t349 146.5t349.5 -146.5t138.5 -369.5t-138.5 -370t-349.5 -147t-349 147t-138 370zM178 492q0 -189 109.5 -310t281.5 -121t282 121t110 310t-110 309.5t-282 120.5t-281.5 -120.5t-109.5 -309.5z" />
    <glyph glyph-name="ocircumflex" unicode="&#xf4;" horiz-adv-x="1138" 
d="M451 1096h-99l144 219h145l143 -219h-98l-117 172zM82 492q0 223 138 369.5t349 146.5t349.5 -146.5t138.5 -369.5t-138.5 -370t-349.5 -147t-349 147t-138 370zM178 492q0 -189 109.5 -310t281.5 -121t282 121t110 310t-110 309.5t-282 120.5t-281.5 -120.5
t-109.5 -309.5z" />
    <glyph glyph-name="otilde" unicode="&#xf5;" horiz-adv-x="1138" 
d="M393 1137h-82q-3 89 32.5 138.5t100.5 49.5q34 0 67.5 -16.5t56 -36.5t52 -36.5t56.5 -16.5q35 0 51 25t16 81h82q0 -90 -37 -139t-110 -49q-37 0 -71 16.5t-55 36.5t-47 36.5t-48 16.5q-30 0 -47 -27t-17 -79zM82 492q0 223 138 369.5t349 146.5t349.5 -146.5
t138.5 -369.5t-138.5 -370t-349.5 -147t-349 147t-138 370zM178 492q0 -189 109.5 -310t281.5 -121t282 121t110 310t-110 309.5t-282 120.5t-281.5 -120.5t-109.5 -309.5z" />
    <glyph glyph-name="odieresis" unicode="&#xf6;" horiz-adv-x="1138" 
d="M434 1143q-35 0 -60.5 25t-25.5 59q0 35 25.5 61.5t60.5 26.5q34 0 60 -26.5t26 -61.5q0 -34 -26 -59t-60 -25zM705 1143q-35 0 -61 25t-26 59q0 35 26 61.5t61 26.5q34 0 60 -26.5t26 -61.5q0 -34 -26 -59t-60 -25zM82 492q0 223 138 369.5t349 146.5t349.5 -146.5
t138.5 -369.5t-138.5 -370t-349.5 -147t-349 147t-138 370zM178 492q0 -189 109.5 -310t281.5 -121t282 121t110 310t-110 309.5t-282 120.5t-281.5 -120.5t-109.5 -309.5z" />
    <glyph glyph-name="divide" unicode="&#xf7;" 
d="M676 907q-46 0 -79.5 33.5t-33.5 77.5q0 46 33.5 79t79.5 33t79 -33t33 -79q0 -44 -33 -77.5t-79 -33.5zM164 662h1024v-91h-1024v91zM676 100q-46 0 -79.5 33.5t-33.5 77.5q0 46 33.5 79.5t79.5 33.5t79 -33.5t33 -79.5q0 -45 -33 -78t-79 -33z" />
    <glyph glyph-name="oslash" unicode="&#xf8;" horiz-adv-x="1138" 
d="M82 492q0 223 138 369.5t349 146.5q129 0 240 -62l70 115h92l-99 -158q87 -70 136 -177t49 -234q0 -223 -138.5 -370t-349.5 -147q-126 0 -233 58l-86 -137h-90l110 180q-89 70 -138.5 178t-49.5 238zM178 492q0 -105 36.5 -192.5t102.5 -147.5l445 720q-89 50 -193 50
q-172 0 -281.5 -120.5t-109.5 -309.5zM961 492q0 210 -136 333l-444 -716q85 -48 188 -48q172 0 282 121t110 310z" />
    <glyph glyph-name="ugrave" unicode="&#xf9;" horiz-adv-x="1105" 
d="M578 1096h-86l-134 219h113zM856 983h94v-983h-76l-18 182q-40 -93 -137 -150t-219 -57q-173 0 -265 108.5t-92 293.5v608h97v-584q0 -340 282 -340q156 0 245 104.5t89 293.5v524z" />
    <glyph glyph-name="uacute" unicode="&#xfa;" horiz-adv-x="1105" 
d="M727 1313l-137 -217h-86l110 217h113zM856 983h94v-983h-76l-18 182q-40 -93 -137 -150t-219 -57q-173 0 -265 108.5t-92 293.5v608h97v-584q0 -340 282 -340q156 0 245 104.5t89 293.5v524z" />
    <glyph glyph-name="ucircumflex" unicode="&#xfb;" horiz-adv-x="1105" 
d="M422 1096h-98l143 219h145l144 -219h-99l-116 172zM856 983h94v-983h-76l-18 182q-40 -93 -137 -150t-219 -57q-173 0 -265 108.5t-92 293.5v608h97v-584q0 -340 282 -340q156 0 245 104.5t89 293.5v524z" />
    <glyph glyph-name="udieresis" unicode="&#xfc;" horiz-adv-x="1105" 
d="M406 1143q-35 0 -61 25t-26 59q0 35 26 61.5t61 26.5q34 0 60 -26.5t26 -61.5q0 -34 -26 -59t-60 -25zM676 1143q-35 0 -60.5 25t-25.5 59q0 35 25.5 61.5t60.5 26.5q34 0 60 -26.5t26 -61.5q0 -34 -26 -59t-60 -25zM856 983h94v-983h-76l-18 182q-40 -93 -137 -150
t-219 -57q-173 0 -265 108.5t-92 293.5v608h97v-584q0 -340 282 -340q156 0 245 104.5t89 293.5v524z" />
    <glyph glyph-name="yacute" unicode="&#xfd;" horiz-adv-x="913" 
d="M637 1313l-137 -217h-86l110 217h113zM49 -416v76h92q27 0 42 1t41 4.5t43.5 12t38 23.5t37 39.5t28.5 58.5l49 133l-400 1051h99l346 -922l332 922h96l-436 -1210q-38 -104 -106 -152.5t-169 -48.5q-72 0 -133 12z" />
    <glyph glyph-name="thorn" unicode="&#xfe;" horiz-adv-x="1165" 
d="M1083 492q0 -147 -52 -263t-155.5 -185t-244.5 -69q-132 0 -230 60t-151 178v-629h-94v1895h94v-709q53 118 151 178t230 60q141 0 244.5 -68.5t155.5 -184.5t52 -263zM987 492q0 191 -97.5 310.5t-268.5 119.5q-173 0 -271 -119.5t-98 -310.5t98 -311t271 -120
q171 0 268.5 120t97.5 311z" />
    <glyph glyph-name="ydieresis" unicode="&#xff;" horiz-adv-x="913" 
d="M315 1143q-35 0 -60.5 25t-25.5 59q0 35 25.5 61.5t60.5 26.5q34 0 60 -26.5t26 -61.5q0 -34 -26 -59t-60 -25zM586 1143q-35 0 -60.5 25t-25.5 59q0 35 25.5 61.5t60.5 26.5q34 0 60 -26.5t26 -61.5q0 -34 -26 -59t-60 -25zM49 -416v76h92q27 0 42 1t41 4.5t43.5 12
t38 23.5t37 39.5t28.5 58.5l49 133l-400 1051h99l346 -922l332 922h96l-436 -1210q-38 -104 -106 -152.5t-169 -48.5q-72 0 -133 12z" />
    <glyph glyph-name="Amacron" unicode="&#x100;" horiz-adv-x="1290" 
d="M420 1696v86h442v-86h-442zM129 0h-98l538 1454h146l545 -1454h-101l-153 408h-725zM629 1350l-316 -852h660l-320 852q-1 4 -4 12t-5 14t-3 10q-4 -16 -12 -36z" />
    <glyph glyph-name="amacron" unicode="&#x101;" horiz-adv-x="1046" 
d="M309 1225v86h443v-86h-443zM434 -25q-156 0 -244 78.5t-88 206.5q0 134 98 216.5t271 96.5l338 27v37q0 285 -287 285q-136 0 -213.5 -61.5t-77.5 -168.5h-94q0 144 106.5 230t280.5 86q81 0 148.5 -20.5t120 -62.5t81.5 -111.5t29 -162.5v-651h-76l-18 184
q-51 -100 -149 -154.5t-226 -54.5zM446 59q170 0 266.5 112.5t96.5 297.5v53l-330 -26q-143 -11 -212.5 -74.5t-69.5 -159.5q0 -99 67.5 -151t181.5 -52z" />
    <glyph glyph-name="Abreve" unicode="&#x102;" horiz-adv-x="1290" 
d="M776 1786h86q0 -104 -59.5 -164.5t-161.5 -60.5t-161.5 60.5t-59.5 164.5h86q0 -67 34 -103t101 -36t101 36t34 103zM129 0h-98l538 1454h146l545 -1454h-101l-153 408h-725zM629 1350l-316 -852h660l-320 852q-1 4 -4 12t-5 14t-3 10q-4 -16 -12 -36z" />
    <glyph glyph-name="abreve" unicode="&#x103;" horiz-adv-x="1046" 
d="M666 1315h86q0 -104 -60 -164.5t-162 -60.5t-161.5 60.5t-59.5 164.5h86q0 -67 34 -103t101 -36t101.5 36t34.5 103zM434 -25q-156 0 -244 78.5t-88 206.5q0 134 98 216.5t271 96.5l338 27v37q0 285 -287 285q-136 0 -213.5 -61.5t-77.5 -168.5h-94q0 144 106.5 230
t280.5 86q81 0 148.5 -20.5t120 -62.5t81.5 -111.5t29 -162.5v-651h-76l-18 184q-51 -100 -149 -154.5t-226 -54.5zM446 59q170 0 266.5 112.5t96.5 297.5v53l-330 -26q-143 -11 -212.5 -74.5t-69.5 -159.5q0 -99 67.5 -151t181.5 -52z" />
    <glyph glyph-name="Aogonek" unicode="&#x104;" horiz-adv-x="1290" 
d="M129 0h-98l538 1454h146l545 -1454q-51 -24 -78 -58.5t-27 -68.5q0 -59 68 -59q16 0 37 6v-84q-24 -8 -62 -8q-57 0 -92 33t-35 87q0 44 29.5 84t83.5 68h-25l-153 408h-725zM629 1350l-316 -852h660l-320 852q-1 4 -4 12t-5 14t-3 10q-4 -16 -12 -36z" />
    <glyph glyph-name="aogonek" unicode="&#x105;" horiz-adv-x="1046" 
d="M434 -25q-156 0 -244 78.5t-88 206.5q0 134 98 216.5t271 96.5l338 27v37q0 285 -287 285q-136 0 -213.5 -61.5t-77.5 -168.5h-94q0 144 106.5 230t280.5 86q81 0 148.5 -20.5t120 -62.5t81.5 -111.5t29 -162.5v-651q-51 -24 -77.5 -58t-26.5 -69q0 -59 67 -59q16 0 37 6
v-84q-24 -8 -61 -8q-57 0 -92 33t-35 87q0 45 29 84.5t83 67.5l-18 184q-51 -100 -149 -154.5t-226 -54.5zM446 59q170 0 266.5 112.5t96.5 297.5v53l-330 -26q-143 -11 -212.5 -74.5t-69.5 -159.5q0 -99 67.5 -151t181.5 -52z" />
    <glyph glyph-name="Cacute" unicode="&#x106;" horiz-adv-x="1466" 
d="M958 1784l-137 -217h-86l111 217h112zM766 -23q-196 0 -350 95t-239 266t-85 389q0 220 86 391t241.5 266t354.5 95q223 0 389 -127t213 -334h-108q-50 169 -184.5 267.5t-315.5 98.5q-257 0 -416 -182t-159 -475t159 -474t416 -181q181 0 319 93.5t189 250.5h108
q-53 -197 -223.5 -318t-394.5 -121z" />
    <glyph glyph-name="cacute" unicode="&#x107;" horiz-adv-x="1038" 
d="M713 1313l-138 -217h-86l111 217h113zM82 487q0 234 128 377.5t339 143.5q157 0 268.5 -85.5t145.5 -226.5h-97q-30 106 -117.5 167t-199.5 61q-166 0 -270.5 -119t-104.5 -316q0 -191 99.5 -309.5t263.5 -118.5q118 0 208.5 61.5t124.5 162.5h97q-40 -140 -157 -225
t-273 -85q-203 0 -329 141t-126 371z" />
    <glyph glyph-name="Ccircumflex" unicode="&#x108;" horiz-adv-x="1466" 
d="M653 1567h-98l143 219h146l143 -219h-98l-117 172zM766 -23q-196 0 -350 95t-239 266t-85 389q0 220 86 391t241.5 266t354.5 95q223 0 389 -127t213 -334h-108q-50 169 -184.5 267.5t-315.5 98.5q-257 0 -416 -182t-159 -475t159 -474t416 -181q181 0 319 93.5
t189 250.5h108q-53 -197 -223.5 -318t-394.5 -121z" />
    <glyph glyph-name="ccircumflex" unicode="&#x109;" horiz-adv-x="1038" 
d="M408 1096h-99l144 219h145l143 -219h-98l-117 172zM82 487q0 234 128 377.5t339 143.5q157 0 268.5 -85.5t145.5 -226.5h-97q-30 106 -117.5 167t-199.5 61q-166 0 -270.5 -119t-104.5 -316q0 -191 99.5 -309.5t263.5 -118.5q118 0 208.5 61.5t124.5 162.5h97
q-40 -140 -157 -225t-273 -85q-203 0 -329 141t-126 371z" />
    <glyph glyph-name="Cdotaccent" unicode="&#x10a;" horiz-adv-x="1466" 
d="M772 1614q-35 0 -60.5 25t-25.5 59q0 35 25.5 61.5t60.5 26.5q34 0 60 -26.5t26 -61.5q0 -34 -26 -59t-60 -25zM766 -23q-196 0 -350 95t-239 266t-85 389q0 220 86 391t241.5 266t354.5 95q223 0 389 -127t213 -334h-108q-50 169 -184.5 267.5t-315.5 98.5
q-257 0 -416 -182t-159 -475t159 -474t416 -181q181 0 319 93.5t189 250.5h108q-53 -197 -223.5 -318t-394.5 -121z" />
    <glyph glyph-name="cdotaccent" unicode="&#x10b;" horiz-adv-x="1038" 
d="M526 1143q-35 0 -60.5 25t-25.5 59q0 35 25.5 61.5t60.5 26.5q34 0 60 -26.5t26 -61.5q0 -34 -26 -59t-60 -25zM82 487q0 234 128 377.5t339 143.5q157 0 268.5 -85.5t145.5 -226.5h-97q-30 106 -117.5 167t-199.5 61q-166 0 -270.5 -119t-104.5 -316q0 -191 99.5 -309.5
t263.5 -118.5q118 0 208.5 61.5t124.5 162.5h97q-40 -140 -157 -225t-273 -85q-203 0 -329 141t-126 371z" />
    <glyph glyph-name="Ccaron" unicode="&#x10c;" horiz-adv-x="1466" 
d="M698 1567l-143 219h98l119 -172l117 172h98l-143 -219h-146zM766 -23q-196 0 -350 95t-239 266t-85 389q0 220 86 391t241.5 266t354.5 95q223 0 389 -127t213 -334h-108q-50 169 -184.5 267.5t-315.5 98.5q-257 0 -416 -182t-159 -475t159 -474t416 -181q181 0 319 93.5
t189 250.5h108q-53 -197 -223.5 -318t-394.5 -121z" />
    <glyph glyph-name="ccaron" unicode="&#x10d;" horiz-adv-x="1038" 
d="M453 1096l-144 219h99l118 -172l117 172h98l-143 -219h-145zM82 487q0 234 128 377.5t339 143.5q157 0 268.5 -85.5t145.5 -226.5h-97q-30 106 -117.5 167t-199.5 61q-166 0 -270.5 -119t-104.5 -316q0 -191 99.5 -309.5t263.5 -118.5q118 0 208.5 61.5t124.5 162.5h97
q-40 -140 -157 -225t-273 -85q-203 0 -329 141t-126 371z" />
    <glyph glyph-name="Dcaron" unicode="&#x10e;" horiz-adv-x="1417" 
d="M522 1565l-143 219h98l119 -172l117 172h98l-143 -219h-146zM592 0h-408v1454h408q330 0 531.5 -200t201.5 -527t-201.5 -527t-531.5 -200zM592 1364h-309v-1274h309q288 0 460.5 173.5t172.5 463.5q0 292 -171.5 464.5t-461.5 172.5z" />
    <glyph glyph-name="dcaron" unicode="&#x10f;" horiz-adv-x="1165" 
d="M535 -25q-141 0 -245 69t-156 185t-52 263t52 263t156 184.5t245 68.5q132 0 229.5 -60t150.5 -178v709h95v-1479h-76l-14 221q-54 -123 -154 -184.5t-231 -61.5zM1126 1182v297h101l-27 -297h-74zM545 61q173 0 270.5 119.5t97.5 311.5q0 191 -97.5 310.5t-270.5 119.5
q-171 0 -269 -119.5t-98 -310.5q0 -192 98 -311.5t269 -119.5z" />
    <glyph glyph-name="Dcroat" unicode="&#x110;" horiz-adv-x="1417" 
d="M592 0h-408v682h-143v90h143v682h408q330 0 531.5 -200t201.5 -527t-201.5 -527t-531.5 -200zM602 682h-319v-592h309q288 0 460.5 173.5t172.5 463.5q0 292 -171.5 464.5t-461.5 172.5h-309v-592h319v-90z" />
    <glyph glyph-name="dcroat" unicode="&#x111;" horiz-adv-x="1165" 
d="M535 -25q-141 0 -245 69t-156 185t-52 263t52 263t156 184.5t245 68.5q132 0 229.5 -60t150.5 -178v412h-331v78h331v219h95v-219h120v-78h-120v-1182h-76l-14 221q-54 -123 -154 -184.5t-231 -61.5zM545 61q173 0 270.5 119.5t97.5 311.5q0 191 -97.5 310.5
t-270.5 119.5q-171 0 -269 -119.5t-98 -310.5q0 -192 98 -311.5t269 -119.5z" />
    <glyph glyph-name="Emacron" unicode="&#x112;" horiz-adv-x="1163" 
d="M377 1696v86h442v-86h-442zM1040 0h-856v1454h854v-90h-755v-590h688v-90h-688v-594h757v-90z" />
    <glyph glyph-name="emacron" unicode="&#x113;" horiz-adv-x="1056" 
d="M322 1225v86h442v-86h-442zM555 -25q-214 0 -343.5 141t-129.5 373q0 231 128 375t333 144q192 0 312 -126t120 -327v-66h-799q6 -201 106 -314.5t273 -113.5q264 0 324 222h96q-86 -308 -420 -308zM543 922q-150 0 -249 -96.5t-116 -258.5h701q0 160 -92 257.5
t-244 97.5z" />
    <glyph glyph-name="Ebreve" unicode="&#x114;" horiz-adv-x="1163" 
d="M733 1786h86q0 -104 -59.5 -164.5t-161.5 -60.5t-161.5 60.5t-59.5 164.5h86q0 -67 34 -103t101 -36t101 36t34 103zM1040 0h-856v1454h854v-90h-755v-590h688v-90h-688v-594h757v-90z" />
    <glyph glyph-name="ebreve" unicode="&#x115;" horiz-adv-x="1056" 
d="M678 1315h86q0 -104 -59.5 -164.5t-161.5 -60.5t-161.5 60.5t-59.5 164.5h86q0 -67 34 -103t101 -36t101 36t34 103zM555 -25q-214 0 -343.5 141t-129.5 373q0 231 128 375t333 144q192 0 312 -126t120 -327v-66h-799q6 -201 106 -314.5t273 -113.5q264 0 324 222h96
q-86 -308 -420 -308zM543 922q-150 0 -249 -96.5t-116 -258.5h701q0 160 -92 257.5t-244 97.5z" />
    <glyph glyph-name="Edotaccent" unicode="&#x116;" horiz-adv-x="1163" 
d="M598 1614q-35 0 -60.5 25t-25.5 59q0 35 25.5 61.5t60.5 26.5q34 0 60 -26.5t26 -61.5q0 -34 -26 -59t-60 -25zM1040 0h-856v1454h854v-90h-755v-590h688v-90h-688v-594h757v-90z" />
    <glyph glyph-name="edotaccent" unicode="&#x117;" horiz-adv-x="1056" 
d="M543 1143q-35 0 -60.5 25t-25.5 59q0 35 25.5 61.5t60.5 26.5q34 0 60 -26.5t26 -61.5q0 -34 -26 -59t-60 -25zM555 -25q-214 0 -343.5 141t-129.5 373q0 231 128 375t333 144q192 0 312 -126t120 -327v-66h-799q6 -201 106 -314.5t273 -113.5q264 0 324 222h96
q-86 -308 -420 -308zM543 922q-150 0 -249 -96.5t-116 -258.5h701q0 160 -92 257.5t-244 97.5z" />
    <glyph glyph-name="Eogonek" unicode="&#x118;" horiz-adv-x="1163" 
d="M965 0h-781v1454h854v-90h-755v-590h688v-90h-688v-594h757v-90q-51 -24 -77.5 -58t-26.5 -69q0 -59 68 -59q15 0 36 6v-84q-24 -8 -61 -8q-57 0 -92 33t-35 87q0 44 29.5 84t83.5 68z" />
    <glyph glyph-name="eogonek" unicode="&#x119;" horiz-adv-x="1056" 
d="M555 -25q-214 0 -343.5 141t-129.5 373q0 231 128 375t333 144q192 0 312 -126t120 -327v-66h-799q6 -201 106 -314.5t273 -113.5q264 0 324 222h96q-62 -223 -256 -285q-50 -24 -76.5 -57.5t-26.5 -67.5q0 -59 68 -59q16 0 37 6v-84q-24 -8 -62 -8q-57 0 -92 33t-35 87
q0 75 76 129q-16 -2 -53 -2zM543 922q-150 0 -249 -96.5t-116 -258.5h701q0 160 -92 257.5t-244 97.5z" />
    <glyph glyph-name="Ecaron" unicode="&#x11a;" horiz-adv-x="1163" 
d="M524 1567l-143 219h98l119 -172l117 172h98l-143 -219h-146zM1040 0h-856v1454h854v-90h-755v-590h688v-90h-688v-594h757v-90z" />
    <glyph glyph-name="ecaron" unicode="&#x11b;" horiz-adv-x="1056" 
d="M469 1096l-143 219h98l119 -172l116 172h99l-144 -219h-145zM555 -25q-214 0 -343.5 141t-129.5 373q0 231 128 375t333 144q192 0 312 -126t120 -327v-66h-799q6 -201 106 -314.5t273 -113.5q264 0 324 222h96q-86 -308 -420 -308zM543 922q-150 0 -249 -96.5
t-116 -258.5h701q0 160 -92 257.5t-244 97.5z" />
    <glyph glyph-name="Gcircumflex" unicode="&#x11c;" horiz-adv-x="1507" 
d="M662 1569h-99l144 219h145l143 -219h-98l-117 172zM780 1384q-265 0 -426 -182t-161 -479q0 -299 163 -476t430 -177q76 0 145 14t138 50t119 91.5t81 146t31 206.5v104h-565v90h660v-774h-74l-12 262q-59 -125 -197 -205t-321 -80q-313 0 -506 204.5t-193 541.5
q0 221 86.5 393.5t243.5 268.5t358 96q220 0 380.5 -114t207.5 -302h-108q-50 155 -177.5 238t-302.5 83z" />
    <glyph glyph-name="gcircumflex" unicode="&#x11d;" horiz-adv-x="1169" 
d="M449 1120h-99l144 219h145l143 -219h-98l-117 172zM82 522q0 132 53 241t159 177t247 68q137 0 236.5 -65.5t148.5 -188.5l12 229h76v-963q0 -206 -126 -332t-331 -126q-179 0 -298 95t-150 263h92q28 -129 122.5 -200.5t235.5 -71.5q163 0 263 102.5t100 269.5v267
q-51 -118 -154.5 -184t-237.5 -66q-137 0 -240.5 67.5t-155.5 176.5t-52 241zM178 522q0 -169 97 -284t262 -115q171 0 269.5 112t98.5 289q0 176 -96 287t-268 111q-168 0 -265.5 -115.5t-97.5 -284.5z" />
    <glyph glyph-name="Gbreve" unicode="&#x11e;" horiz-adv-x="1507" 
d="M915 1788h86q0 -104 -59.5 -164.5t-161.5 -60.5t-161.5 60.5t-59.5 164.5h86q0 -67 34 -103t101 -36t101 36t34 103zM780 1384q-265 0 -426 -182t-161 -479q0 -299 163 -476t430 -177q76 0 145 14t138 50t119 91.5t81 146t31 206.5v104h-565v90h660v-774h-74l-12 262
q-59 -125 -197 -205t-321 -80q-313 0 -506 204.5t-193 541.5q0 221 86.5 393.5t243.5 268.5t358 96q220 0 380.5 -114t207.5 -302h-108q-50 155 -177.5 238t-302.5 83z" />
    <glyph glyph-name="gbreve" unicode="&#x11f;" horiz-adv-x="1169" 
d="M702 1339h86q0 -104 -59.5 -164.5t-161.5 -60.5t-161.5 60.5t-59.5 164.5h86q0 -67 34 -103t101 -36t101 36t34 103zM82 522q0 132 53 241t159 177t247 68q137 0 236.5 -65.5t148.5 -188.5l12 229h76v-963q0 -206 -126 -332t-331 -126q-179 0 -298 95t-150 263h92
q28 -129 122.5 -200.5t235.5 -71.5q163 0 263 102.5t100 269.5v267q-51 -118 -154.5 -184t-237.5 -66q-137 0 -240.5 67.5t-155.5 176.5t-52 241zM178 522q0 -169 97 -284t262 -115q171 0 269.5 112t98.5 289q0 176 -96 287t-268 111q-168 0 -265.5 -115.5t-97.5 -284.5z
" />
    <glyph glyph-name="Gdotaccent" unicode="&#x120;" horiz-adv-x="1507" 
d="M780 1616q-35 0 -60.5 25t-25.5 59q0 35 25.5 61.5t60.5 26.5q34 0 60 -26.5t26 -61.5q0 -34 -26 -59t-60 -25zM780 1384q-265 0 -426 -182t-161 -479q0 -299 163 -476t430 -177q76 0 145 14t138 50t119 91.5t81 146t31 206.5v104h-565v90h660v-774h-74l-12 262
q-59 -125 -197 -205t-321 -80q-313 0 -506 204.5t-193 541.5q0 221 86.5 393.5t243.5 268.5t358 96q220 0 380.5 -114t207.5 -302h-108q-50 155 -177.5 238t-302.5 83z" />
    <glyph glyph-name="gdotaccent" unicode="&#x121;" horiz-adv-x="1169" 
d="M567 1167q-35 0 -60.5 25t-25.5 59q0 35 25.5 61.5t60.5 26.5q34 0 60 -26.5t26 -61.5q0 -34 -26 -59t-60 -25zM82 522q0 132 53 241t159 177t247 68q137 0 236.5 -65.5t148.5 -188.5l12 229h76v-963q0 -206 -126 -332t-331 -126q-179 0 -298 95t-150 263h92
q28 -129 122.5 -200.5t235.5 -71.5q163 0 263 102.5t100 269.5v267q-51 -118 -154.5 -184t-237.5 -66q-137 0 -240.5 67.5t-155.5 176.5t-52 241zM178 522q0 -169 97 -284t262 -115q171 0 269.5 112t98.5 289q0 176 -96 287t-268 111q-168 0 -265.5 -115.5t-97.5 -284.5z
" />
    <glyph glyph-name="Gcommaaccent" unicode="&#x122;" horiz-adv-x="1507" 
d="M780 1384q-265 0 -426 -182t-161 -479q0 -299 163 -476t430 -177q76 0 145 14t138 50t119 91.5t81 146t31 206.5v104h-565v90h660v-774h-74l-12 262q-59 -125 -197 -205t-321 -80q-313 0 -506 204.5t-193 541.5q0 221 86.5 393.5t243.5 268.5t358 96q220 0 380.5 -114
t207.5 -302h-108q-50 155 -177.5 238t-302.5 83zM870 -190q0 -83 -48 -132t-101 -51v51q36 1 59 26t23 58q-8 -4 -25 -4q-33 0 -57.5 22.5t-24.5 55.5q0 37 24 62.5t58 25.5q42 0 67 -29t25 -85z" />
    <glyph glyph-name="gcommaaccent" unicode="&#x123;" horiz-adv-x="1169" 
d="M649 1180q0 -37 -24 -62.5t-58 -25.5q-42 0 -67 29t-25 85q0 83 48.5 132t101.5 51v-52q-36 -1 -59 -26t-23 -58q8 4 24 4q33 0 57.5 -22t24.5 -55zM82 522q0 132 53 241t159 177t247 68q137 0 236.5 -65.5t148.5 -188.5l12 229h76v-963q0 -206 -126 -332t-331 -126
q-179 0 -298 95t-150 263h92q28 -129 122.5 -200.5t235.5 -71.5q163 0 263 102.5t100 269.5v267q-51 -118 -154.5 -184t-237.5 -66q-137 0 -240.5 67.5t-155.5 176.5t-52 241zM178 522q0 -169 97 -284t262 -115q171 0 269.5 112t98.5 289q0 176 -96 287t-268 111
q-168 0 -265.5 -115.5t-97.5 -284.5z" />
    <glyph glyph-name="Hbar" unicode="&#x126;" horiz-adv-x="1411" 
d="M283 0h-99v1124h-176v90h176v240h99v-240h845v240h99v-240h180v-90h-180v-1124h-99v694h-845v-694zM283 784h845v340h-845v-340z" />
    <glyph glyph-name="hbar" unicode="&#x127;" horiz-adv-x="1126" 
d="M250 2h-94v1180h-123v78h123v219h94v-219h330v-78h-330v-389q49 99 141.5 157t218.5 58q191 0 282 -108.5t91 -301.5v-598h-94v580q0 185 -74.5 263.5t-210.5 78.5q-86 0 -154.5 -31t-111.5 -85t-65.5 -123t-22.5 -148v-533z" />
    <glyph glyph-name="Itilde" unicode="&#x128;" horiz-adv-x="466" 
d="M57 1608h-82q-3 89 33 138.5t101 49.5q43 0 83.5 -26.5t77 -53t70.5 -26.5q35 0 51.5 25.5t16.5 80.5h81q0 -90 -37 -139t-110 -49q-37 0 -71 16.5t-55 36.5t-47 36.5t-48 16.5q-30 0 -47 -27t-17 -79zM283 1454v-1454h-99v1454h99z" />
    <glyph glyph-name="itilde" unicode="&#x129;" horiz-adv-x="405" 
d="M27 1137h-82q-3 89 32.5 138.5t100.5 49.5q43 0 83.5 -26.5t77 -53t70.5 -26.5q35 0 51.5 25.5t16.5 80.5h82q0 -90 -37.5 -139t-110.5 -49q-37 0 -71 16.5t-55 36.5t-47 36.5t-48 16.5q-30 0 -46.5 -27t-16.5 -79zM156 0v983h94v-983h-94z" />
    <glyph glyph-name="Imacron" unicode="&#x12a;" horiz-adv-x="466" 
d="M12 1696v86h443v-86h-443zM283 1454v-1454h-99v1454h99z" />
    <glyph glyph-name="imacron" unicode="&#x12b;" horiz-adv-x="405" 
d="M-18 1225v86h442v-86h-442zM156 0v983h94v-983h-94z" />
    <glyph glyph-name="Iogonek" unicode="&#x12e;" horiz-adv-x="466" 
d="M207 0h-23v1454h99v-1454q-51 -24 -78 -58.5t-27 -68.5q0 -59 68 -59q16 0 37 6v-84q-24 -8 -62 -8q-57 0 -92 33t-35 87q0 44 29.5 84t83.5 68z" />
    <glyph glyph-name="iogonek" unicode="&#x12f;" horiz-adv-x="405" 
d="M203 1284q-35 0 -60.5 25t-25.5 59q0 35 25.5 61.5t60.5 26.5q34 0 60 -26.5t26 -61.5q0 -34 -26 -59t-60 -25zM156 0v983h94v-983q-51 -24 -78 -58.5t-27 -68.5q0 -59 68 -59q16 0 37 6v-84q-24 -8 -62 -8q-57 0 -92 33t-35 87q0 44 29.5 84t83.5 68h-18z" />
    <glyph glyph-name="Idotaccent" unicode="&#x130;" horiz-adv-x="466" 
d="M233 1614q-35 0 -60.5 25t-25.5 59q0 35 25.5 61.5t60.5 26.5q34 0 60 -26.5t26 -61.5q0 -34 -26 -59t-60 -25zM283 1454v-1454h-99v1454h99z" />
    <glyph glyph-name="dotlessi" unicode="&#x131;" horiz-adv-x="405" 
d="M156 0v983h94v-983h-94z" />
    <glyph glyph-name="Jcircumflex" unicode="&#x134;" horiz-adv-x="1007" 
d="M666 1569h-99l144 219h145l143 -219h-98l-117 172zM41 395v45h96v-45q0 -151 78 -238t221 -87q148 0 223.5 87t75.5 238v1059h99v-1059q0 -197 -110.5 -308.5t-289.5 -111.5q-182 0 -287.5 114.5t-105.5 305.5z" />
    <glyph glyph-name="jcircumflex" unicode="&#x135;" horiz-adv-x="405" 
d="M84 1096h-98l143 219h145l144 -219h-99l-116 172zM-119 -418l21 90q60 -14 102 -14q152 0 152 190v1135h94v-1135q0 -134 -63.5 -208t-178.5 -74q-67 0 -127 16z" />
    <glyph glyph-name="Kcommaaccent" unicode="&#x136;" horiz-adv-x="1210" 
d="M283 1454v-926l747 926h119l-498 -614l508 -840h-115l-458 760l-303 -375v-385h-99v1454h99zM750 -190q0 -83 -48.5 -132t-101.5 -51v51q36 1 59 26t23 58q-8 -4 -25 -4q-33 0 -57.5 22.5t-24.5 55.5q0 37 24 62.5t58 25.5q43 0 68 -29.5t25 -84.5z" />
    <glyph glyph-name="kcommaaccent" unicode="&#x137;" horiz-adv-x="937" 
d="M258 0h-94v1479h94v-1047l535 551h120l-381 -393l386 -590h-109l-340 526l-211 -219v-307zM578 -190q0 -83 -48.5 -132t-101.5 -51v51q36 1 59 26t23 58q-8 -4 -25 -4q-33 0 -57.5 22.5t-24.5 55.5q0 37 24 62.5t58 25.5q43 0 68 -29.5t25 -84.5z" />
    <glyph glyph-name="Lacute" unicode="&#x139;" horiz-adv-x="1015" 
d="M420 1784l-137 -217h-86l110 217h113zM283 1454v-1364h692v-90h-791v1454h99z" />
    <glyph glyph-name="lacute" unicode="&#x13a;" horiz-adv-x="421" 
d="M397 1786l-137 -217h-86l111 217h112zM258 0h-94v1479h94v-1479z" />
    <glyph glyph-name="Lcommaaccent" unicode="&#x13b;" horiz-adv-x="1015" 
d="M283 1454v-1364h692v-90h-791v1454h99zM631 -190q0 -83 -48.5 -132t-101.5 -51v51q36 1 59 26t23 58q-8 -4 -24 -4q-33 0 -57.5 22.5t-24.5 55.5q0 37 24 62.5t58 25.5q42 0 67 -29t25 -85z" />
    <glyph glyph-name="lcommaaccent" unicode="&#x13c;" horiz-adv-x="421" 
d="M258 0h-94v1479h94v-1479zM295 -190q0 -83 -48.5 -132t-101.5 -51v51q36 1 59 26t23 58q-8 -4 -24 -4q-33 0 -57.5 22.5t-24.5 55.5q0 37 24 62.5t58 25.5q42 0 67 -29t25 -85z" />
    <glyph glyph-name="Lcaron" unicode="&#x13d;" horiz-adv-x="1015" 
d="M283 1454v-1364h692v-90h-791v1454h99zM399 1157v297h101l-27 -297h-74z" />
    <glyph glyph-name="lcaron" unicode="&#x13e;" horiz-adv-x="421" 
d="M258 0h-94v1479h94v-1479zM375 1182v297h100l-26 -297h-74z" />
    <glyph glyph-name="Ldot" unicode="&#x13f;" horiz-adv-x="1015" 
d="M283 1454v-1364h692v-90h-791v1454h99zM588 672q-31 0 -53.5 22.5t-22.5 53.5q0 32 22 54.5t54 22.5q31 0 53.5 -22.5t22.5 -54.5q0 -31 -22.5 -53.5t-53.5 -22.5z" />
    <glyph glyph-name="ldot" unicode="&#x140;" horiz-adv-x="628" 
d="M258 0h-94v1479h94v-1479zM526 659q-34 0 -59 24t-25 58t24.5 58t59.5 24q34 0 58 -24t24 -58q0 -33 -24.5 -57.5t-57.5 -24.5z" />
    <glyph glyph-name="Lslash" unicode="&#x141;" horiz-adv-x="1015" 
d="M33 549v100l151 72v733h99v-686l440 211v-100l-440 -211v-578h692v-90h-791v621z" />
    <glyph glyph-name="lslash" unicode="&#x142;" horiz-adv-x="421" 
d="M258 0h-94v717l-135 -66v86l135 66v676h94v-631l133 63v-86l-133 -63v-762z" />
    <glyph glyph-name="Nacute" unicode="&#x143;" horiz-adv-x="1419" 
d="M897 1784l-137 -217h-86l110 217h113zM283 0h-99v1454h101l852 -1288v1288h98v-1454h-98l-854 1292v-1292z" />
    <glyph glyph-name="nacute" unicode="&#x144;" horiz-adv-x="1126" 
d="M748 1313l-138 -217h-86l111 217h113zM250 0h-94v983h75l21 -190q49 101 142.5 158t205.5 57q383 0 383 -410v-598h-94v580q0 186 -74.5 264t-216.5 78q-165 0 -256.5 -112.5t-91.5 -301.5v-508z" />
    <glyph glyph-name="Ncommaaccent" unicode="&#x145;" horiz-adv-x="1419" 
d="M283 0h-99v1454h101l852 -1288v1288h98v-1454h-98l-854 1292v-1292zM805 -190q0 -83 -48.5 -132t-101.5 -51v51q36 1 59 26t23 58q-8 -4 -24 -4q-33 0 -57.5 22.5t-24.5 55.5q0 37 24 62.5t58 25.5q42 0 67 -29t25 -85z" />
    <glyph glyph-name="ncommaaccent" unicode="&#x146;" horiz-adv-x="1126" 
d="M250 0h-94v983h75l21 -190q49 101 142.5 158t205.5 57q383 0 383 -410v-598h-94v580q0 186 -74.5 264t-216.5 78q-165 0 -256.5 -112.5t-91.5 -301.5v-508zM645 -190q0 -83 -48 -132t-101 -51v51q36 1 59 26t23 58q-8 -4 -25 -4q-33 0 -57.5 22.5t-24.5 55.5
q0 37 24 62.5t58 25.5q42 0 67 -29t25 -85z" />
    <glyph glyph-name="Ncaron" unicode="&#x147;" horiz-adv-x="1419" 
d="M637 1567l-143 219h98l119 -172l116 172h99l-144 -219h-145zM283 0h-99v1454h101l852 -1288v1288h98v-1454h-98l-854 1292v-1292z" />
    <glyph glyph-name="ncaron" unicode="&#x148;" horiz-adv-x="1126" 
d="M487 1096l-143 219h98l119 -172l117 172h98l-143 -219h-146zM250 0h-94v983h75l21 -190q49 101 142.5 158t205.5 57q383 0 383 -410v-598h-94v580q0 186 -74.5 264t-216.5 78q-165 0 -256.5 -112.5t-91.5 -301.5v-508z" />
    <glyph glyph-name="Eng" unicode="&#x14a;" horiz-adv-x="1419" 
d="M993 -434q-73 0 -147 22l20 90q78 -20 123 -20q152 0 152 190v146l-858 1298v-1292h-99v1454h101l852 -1288v1288h98v-1606q0 -134 -63.5 -208t-178.5 -74z" />
    <glyph glyph-name="eng" unicode="&#x14b;" horiz-adv-x="1126" 
d="M250 0h-94v983h75l21 -190q49 101 142.5 158t205.5 57q383 0 383 -410v-750q0 -134 -63.5 -208t-178.5 -74q-67 0 -127 16l21 90q60 -14 102 -14q152 0 152 190v732q0 186 -74.5 264t-216.5 78q-165 0 -256.5 -112.5t-91.5 -301.5v-508z" />
    <glyph glyph-name="Omacron" unicode="&#x14c;" horiz-adv-x="1558" 
d="M557 1696v86h442v-86h-442zM1466 727q0 -217 -87.5 -389t-244.5 -267.5t-356 -95.5t-355.5 95.5t-243.5 267.5t-87 389t87.5 389t244 267.5t354.5 95.5q199 0 356 -95.5t244.5 -267.5t87.5 -389zM1366 727q0 191 -74.5 341t-208.5 233t-305 83q-258 0 -421.5 -183.5
t-163.5 -473.5t163.5 -473.5t421.5 -183.5q171 0 305 83t208.5 233t74.5 341z" />
    <glyph glyph-name="omacron" unicode="&#x14d;" horiz-adv-x="1138" 
d="M348 1225v86h443v-86h-443zM82 492q0 223 138 369.5t349 146.5t349.5 -146.5t138.5 -369.5t-138.5 -370t-349.5 -147t-349 147t-138 370zM178 492q0 -189 109.5 -310t281.5 -121t282 121t110 310t-110 309.5t-282 120.5t-281.5 -120.5t-109.5 -309.5z" />
    <glyph glyph-name="Ohungarumlaut" unicode="&#x150;" horiz-adv-x="1558" 
d="M864 1784l-133 -217h-82l107 217h108zM1075 1784l-168 -217h-86l137 217h117zM1466 727q0 -217 -87.5 -389t-244.5 -267.5t-356 -95.5t-355.5 95.5t-243.5 267.5t-87 389t87.5 389t244 267.5t354.5 95.5q199 0 356 -95.5t244.5 -267.5t87.5 -389zM1366 727
q0 191 -74.5 341t-208.5 233t-305 83q-258 0 -421.5 -183.5t-163.5 -473.5t163.5 -473.5t421.5 -183.5q171 0 305 83t208.5 233t74.5 341z" />
    <glyph glyph-name="ohungarumlaut" unicode="&#x151;" horiz-adv-x="1138" 
d="M655 1313l-133 -217h-82l107 217h108zM866 1313l-168 -217h-86l138 217h116zM82 492q0 223 138 369.5t349 146.5t349.5 -146.5t138.5 -369.5t-138.5 -370t-349.5 -147t-349 147t-138 370zM178 492q0 -189 109.5 -310t281.5 -121t282 121t110 310t-110 309.5t-282 120.5
t-281.5 -120.5t-109.5 -309.5z" />
    <glyph glyph-name="OE" unicode="&#x152;" horiz-adv-x="2381" 
d="M92 731q0 213 90 384.5t250 268.5t359 97q205 0 374.5 -100t241.5 -263v336h852v-90h-754v-590h686v-90h-686v-594h754v-90h-852v338q-75 -168 -238 -265.5t-368 -97.5q-202 0 -364.5 97.5t-253.5 270.5t-91 388zM193 733q0 -190 78 -341.5t217.5 -236.5t314.5 -85
q265 0 434.5 185t169.5 474q0 190 -77.5 340t-216 233.5t-314.5 83.5q-265 0 -435.5 -183.5t-170.5 -469.5z" />
    <glyph glyph-name="oe" unicode="&#x153;" horiz-adv-x="1937" 
d="M82 492q0 223 138 369.5t349 146.5q147 0 263.5 -76t175.5 -205q53 132 161 206.5t254 74.5q192 0 312 -126t120 -327v-66h-798q6 -201 106 -314.5t273 -113.5q263 0 323 222h96q-86 -308 -419 -308q-152 0 -263.5 74t-164.5 205q-59 -128 -175.5 -203.5t-263.5 -75.5
q-211 0 -349 147t-138 370zM178 492q0 -189 109.5 -310t281.5 -121t282 121t110 310t-110 309.5t-282 120.5t-281.5 -120.5t-109.5 -309.5zM1423 922q-150 0 -248.5 -96.5t-115.5 -258.5h700q0 160 -92 257.5t-244 97.5z" />
    <glyph glyph-name="Racute" unicode="&#x154;" horiz-adv-x="1284" 
d="M807 1786l-137 -217h-86l110 217h113zM283 0h-99v1454h537q207 0 328.5 -110.5t121.5 -296.5q0 -160 -83.5 -267.5t-229.5 -138.5l326 -641h-111l-317 629h-473v-629zM283 1364v-645h442q164 0 255 86t91 237q0 153 -94 237.5t-256 84.5h-438z" />
    <glyph glyph-name="racute" unicode="&#x155;" horiz-adv-x="665" 
d="M530 1327l-137 -217h-86l111 217h112zM625 997v-82h-74q-135 0 -218 -89t-83 -228v-598h-94v983h88l8 -158q29 84 106 133.5t181 49.5q41 0 86 -11z" />
    <glyph glyph-name="Rcommaaccent" unicode="&#x156;" horiz-adv-x="1284" 
d="M283 0h-99v1454h537q207 0 328.5 -110.5t121.5 -296.5q0 -160 -83.5 -267.5t-229.5 -138.5l326 -641h-111l-317 629h-473v-629zM283 1364v-645h442q164 0 255 86t91 237q0 153 -94 237.5t-256 84.5h-438zM762 -190q0 -83 -48.5 -132t-101.5 -51v51q36 1 59 26t23 58
q-8 -4 -24 -4q-33 0 -57.5 22.5t-24.5 55.5q0 37 24 62.5t58 25.5q42 0 67 -29t25 -85z" />
    <glyph glyph-name="rcommaaccent" unicode="&#x157;" horiz-adv-x="665" 
d="M625 997v-82h-74q-135 0 -218 -89t-83 -228v-598h-94v983h88l8 -158q29 84 106 133.5t181 49.5q41 0 86 -11zM287 -190q0 -83 -48.5 -132t-101.5 -51v51q36 1 59 26t23 58q-8 -4 -24 -4q-33 0 -57.5 22.5t-24.5 55.5q0 37 24 62.5t58 25.5q42 0 67 -29t25 -85z" />
    <glyph glyph-name="Rcaron" unicode="&#x158;" horiz-adv-x="1284" 
d="M547 1569l-144 219h99l119 -172l116 172h99l-144 -219h-145zM283 0h-99v1454h537q207 0 328.5 -110.5t121.5 -296.5q0 -160 -83.5 -267.5t-229.5 -138.5l326 -641h-111l-317 629h-473v-629zM283 1364v-645h442q164 0 255 86t91 237q0 153 -94 237.5t-256 84.5h-438z" />
    <glyph glyph-name="rcaron" unicode="&#x159;" horiz-adv-x="665" 
d="M270 1110l-143 219h98l119 -172l117 172h98l-143 -219h-146zM625 997v-82h-74q-135 0 -218 -89t-83 -228v-598h-94v983h88l8 -158q29 84 106 133.5t181 49.5q41 0 86 -11z" />
    <glyph glyph-name="Sacute" unicode="&#x15a;" horiz-adv-x="1128" 
d="M748 1784l-138 -217h-86l111 217h113zM94 1087q0 178 129 285t344 107q187 0 305 -99t140 -274h-103q-15 135 -104 209t-238 74q-169 0 -271.5 -83t-102.5 -219q0 -209 249 -274l258 -65q164 -41 250 -137t86 -236q0 -183 -130.5 -291.5t-348.5 -108.5q-204 0 -333 99.5
t-146 269.5h104q6 -124 109 -200t266 -76q173 0 277 83t104 222q0 218 -256 282l-252 64q-165 41 -250.5 134.5t-85.5 233.5z" />
    <glyph glyph-name="sacute" unicode="&#x15b;" horiz-adv-x="864" 
d="M608 1374l-137 -217h-86l111 217h112zM68 266h92q0 -95 66 -150t180 -55q125 0 196.5 52t71.5 143q0 72 -39.5 112.5t-134.5 65.5l-166 43q-124 32 -186 98.5t-62 159.5q0 123 93 198t245 75t241.5 -76.5t94.5 -210.5h-92q-4 95 -69 148t-175 53q-118 0 -181 -48
t-63 -139q0 -128 176 -174l164 -43q129 -34 188.5 -96.5t59.5 -165.5q0 -126 -98.5 -203.5t-259.5 -77.5q-157 0 -249.5 79t-92.5 212z" />
    <glyph glyph-name="Scircumflex" unicode="&#x15c;" horiz-adv-x="1128" 
d="M442 1567h-98l143 219h146l143 -219h-98l-117 172zM94 1087q0 178 129 285t344 107q187 0 305 -99t140 -274h-103q-15 135 -104 209t-238 74q-169 0 -271.5 -83t-102.5 -219q0 -209 249 -274l258 -65q164 -41 250 -137t86 -236q0 -183 -130.5 -291.5t-348.5 -108.5
q-204 0 -333 99.5t-146 269.5h104q6 -124 109 -200t266 -76q173 0 277 83t104 222q0 218 -256 282l-252 64q-165 41 -250.5 134.5t-85.5 233.5z" />
    <glyph glyph-name="scircumflex" unicode="&#x15d;" horiz-adv-x="864" 
d="M303 1157h-98l143 219h146l143 -219h-98l-117 172zM68 266h92q0 -95 66 -150t180 -55q125 0 196.5 52t71.5 143q0 72 -39.5 112.5t-134.5 65.5l-166 43q-124 32 -186 98.5t-62 159.5q0 123 93 198t245 75t241.5 -76.5t94.5 -210.5h-92q-4 95 -69 148t-175 53
q-118 0 -181 -48t-63 -139q0 -128 176 -174l164 -43q129 -34 188.5 -96.5t59.5 -165.5q0 -126 -98.5 -203.5t-259.5 -77.5q-157 0 -249.5 79t-92.5 212z" />
    <glyph glyph-name="Scedilla" unicode="&#x15e;" horiz-adv-x="1128" 
d="M457 -319v73q52 -30 106 -30q38 0 64 16.5t26 48.5q0 33 -21.5 49.5t-58.5 16.5q-39 0 -100 -27l-16 45l49 104q-184 12 -298.5 110t-129.5 257h104q6 -124 109 -200t266 -76q173 0 277 83t104 222q0 218 -256 282l-252 64q-165 41 -250.5 134.5t-85.5 233.5
q0 178 129 285t344 107q187 0 305 -99t140 -274h-103q-15 135 -104 209t-238 74q-169 0 -271.5 -83t-102.5 -219q0 -209 249 -274l258 -65q164 -41 250 -137t86 -236q0 -178 -124.5 -286.5t-333.5 -113.5l-31 -65q33 10 57 10q58 0 94.5 -34.5t36.5 -92.5
q0 -68 -47.5 -104.5t-114.5 -36.5q-74 0 -116 29z" />
    <glyph glyph-name="scedilla" unicode="&#x15f;" horiz-adv-x="864" 
d="M68 266h92q0 -95 66 -150t180 -55q125 0 196.5 52t71.5 143q0 72 -39.5 112.5t-134.5 65.5l-166 43q-124 32 -186 98.5t-62 159.5q0 123 93 198t245 75t241.5 -76.5t94.5 -210.5h-92q-4 95 -69 148t-175 53q-118 0 -181 -48t-63 -139q0 -128 176 -174l164 -43
q129 -34 188.5 -96.5t59.5 -165.5q0 -121 -90.5 -197t-241.5 -84l-30 -65q33 10 57 10q58 0 94.5 -34.5t36.5 -92.5q0 -68 -47.5 -104.5t-114.5 -36.5q-75 0 -117 29v73q53 -30 107 -30q38 0 64 16.5t26 48.5q0 33 -21.5 49.5t-58.5 16.5q-39 0 -100 -27l-17 45l50 104
q-137 11 -217 88.5t-80 200.5z" />
    <glyph glyph-name="Scaron" unicode="&#x160;" horiz-adv-x="1128" 
d="M487 1567l-143 219h98l119 -172l117 172h98l-143 -219h-146zM94 1087q0 178 129 285t344 107q187 0 305 -99t140 -274h-103q-15 135 -104 209t-238 74q-169 0 -271.5 -83t-102.5 -219q0 -209 249 -274l258 -65q164 -41 250 -137t86 -236q0 -183 -130.5 -291.5
t-348.5 -108.5q-204 0 -333 99.5t-146 269.5h104q6 -124 109 -200t266 -76q173 0 277 83t104 222q0 218 -256 282l-252 64q-165 41 -250.5 134.5t-85.5 233.5z" />
    <glyph glyph-name="scaron" unicode="&#x161;" horiz-adv-x="864" 
d="M348 1157l-143 219h98l119 -172l117 172h98l-143 -219h-146zM68 266h92q0 -95 66 -150t180 -55q125 0 196.5 52t71.5 143q0 72 -39.5 112.5t-134.5 65.5l-166 43q-124 32 -186 98.5t-62 159.5q0 123 93 198t245 75t241.5 -76.5t94.5 -210.5h-92q-4 95 -69 148t-175 53
q-118 0 -181 -48t-63 -139q0 -128 176 -174l164 -43q129 -34 188.5 -96.5t59.5 -165.5q0 -126 -98.5 -203.5t-259.5 -77.5q-157 0 -249.5 79t-92.5 212z" />
    <glyph glyph-name="Tcedilla" unicode="&#x162;" horiz-adv-x="1052" 
d="M430 -319v73q52 -30 107 -30q38 0 64 16.5t26 48.5q0 33 -21.5 49.5t-58.5 16.5q-40 0 -101 -27l-16 45l59 127h-12v1364h-457v90h1012v-90h-457v-1364h-14l-41 -90q33 10 58 10q58 0 94.5 -34.5t36.5 -92.5q0 -68 -47.5 -104.5t-114.5 -36.5q-75 0 -117 29z" />
    <glyph glyph-name="tcedilla" unicode="&#x163;" horiz-adv-x="573" 
d="M334 0h-17l-41 -90q33 10 58 10q58 0 94.5 -34.5t36.5 -92.5q0 -68 -47.5 -104.5t-114.5 -36.5q-75 0 -117 29v73q52 -30 107 -30q38 0 64 16.5t26 48.5q0 33 -21.5 49.5t-58.5 16.5q-39 0 -100 -27l-17 45l60 127h-6v901h-199v82h199v311h94v-311h198v-82h-198v-901z
" />
    <glyph glyph-name="Tcaron" unicode="&#x164;" horiz-adv-x="1052" 
d="M453 1567l-144 219h99l118 -172l117 172h98l-143 -219h-145zM20 1364v90h1012v-90h-457v-1364h-98v1364h-457z" />
    <glyph glyph-name="tcaron" unicode="&#x165;" horiz-adv-x="573" 
d="M451 1161v297h100l-27 -297h-73zM334 0h-94v901h-199v82h199v311h94v-311h198v-82h-198v-901z" />
    <glyph glyph-name="Tbar" unicode="&#x166;" horiz-adv-x="1052" 
d="M246 799v90h231v475h-457v90h1012v-90h-457v-475h232v-90h-232v-799h-98v799h-231z" />
    <glyph glyph-name="tbar" unicode="&#x167;" horiz-adv-x="573" 
d="M334 0h-94v526h-144v78h144v297h-199v82h199v311h94v-311h198v-82h-198v-297h143v-78h-143v-526z" />
    <glyph glyph-name="Utilde" unicode="&#x168;" horiz-adv-x="1386" 
d="M518 1608h-82q-3 89 32.5 138.5t100.5 49.5q34 0 67.5 -16.5t56 -36.5t52 -36.5t56.5 -16.5q35 0 51 25t16 81h82q0 -90 -37 -139t-110 -49q-37 0 -71 16.5t-55 36.5t-47 36.5t-48 16.5q-30 0 -47 -27t-17 -79zM174 494v960h98v-958q0 -206 109 -315t315 -109
q201 0 309.5 110t108.5 314v958h98v-960q0 -243 -136.5 -381t-379.5 -138q-246 0 -384 137t-138 382z" />
    <glyph glyph-name="utilde" unicode="&#x169;" horiz-adv-x="1105" 
d="M365 1137h-82q-3 89 32.5 138.5t100.5 49.5q43 0 83.5 -26.5t77 -53t70.5 -26.5q35 0 51.5 25.5t16.5 80.5h82q0 -90 -37.5 -139t-110.5 -49q-37 0 -71 16.5t-55 36.5t-47 36.5t-48 16.5q-30 0 -46.5 -27t-16.5 -79zM856 983h94v-983h-76l-18 182q-40 -93 -137 -150
t-219 -57q-173 0 -265 108.5t-92 293.5v608h97v-584q0 -340 282 -340q156 0 245 104.5t89 293.5v524z" />
    <glyph glyph-name="Umacron" unicode="&#x16a;" horiz-adv-x="1386" 
d="M473 1696v86h442v-86h-442zM174 494v960h98v-958q0 -206 109 -315t315 -109q201 0 309.5 110t108.5 314v958h98v-960q0 -243 -136.5 -381t-379.5 -138q-246 0 -384 137t-138 382z" />
    <glyph glyph-name="umacron" unicode="&#x16b;" horiz-adv-x="1105" 
d="M319 1225v86h443v-86h-443zM856 983h94v-983h-76l-18 182q-40 -93 -137 -150t-219 -57q-173 0 -265 108.5t-92 293.5v608h97v-584q0 -340 282 -340q156 0 245 104.5t89 293.5v524z" />
    <glyph glyph-name="Uring" unicode="&#x16e;" horiz-adv-x="1386" 
d="M694 1569q-89 0 -145.5 57.5t-56.5 147.5q0 87 57.5 144.5t144.5 57.5q86 0 144.5 -58t58.5 -144t-58.5 -145.5t-144.5 -59.5zM694 1649q52 0 84.5 34.5t32.5 90.5q0 54 -33 89t-84 35t-83.5 -34.5t-32.5 -89.5q0 -56 32 -90.5t84 -34.5zM174 494v960h98v-958
q0 -206 109 -315t315 -109q201 0 309.5 110t108.5 314v958h98v-960q0 -243 -136.5 -381t-379.5 -138q-246 0 -384 137t-138 382z" />
    <glyph glyph-name="uring" unicode="&#x16f;" horiz-adv-x="1105" 
d="M541 1098q-89 0 -146 58t-57 147q0 87 58 144.5t145 57.5q86 0 144 -58t58 -144q0 -87 -58 -146t-144 -59zM541 1178q52 0 84 34.5t32 90.5q0 54 -32.5 89t-83.5 35t-84 -34.5t-33 -89.5q0 -56 32.5 -90.5t84.5 -34.5zM856 983h94v-983h-76l-18 182q-40 -93 -137 -150
t-219 -57q-173 0 -265 108.5t-92 293.5v608h97v-584q0 -340 282 -340q156 0 245 104.5t89 293.5v524z" />
    <glyph glyph-name="Uhungarumlaut" unicode="&#x170;" horiz-adv-x="1386" 
d="M780 1784l-133 -217h-82l107 217h108zM991 1784l-168 -217h-86l137 217h117zM174 494v960h98v-958q0 -206 109 -315t315 -109q201 0 309.5 110t108.5 314v958h98v-960q0 -243 -136.5 -381t-379.5 -138q-246 0 -384 137t-138 382z" />
    <glyph glyph-name="uhungarumlaut" unicode="&#x171;" horiz-adv-x="1105" 
d="M627 1313l-133 -217h-82l106 217h109zM838 1313l-168 -217h-86l137 217h117zM856 983h94v-983h-76l-18 182q-40 -93 -137 -150t-219 -57q-173 0 -265 108.5t-92 293.5v608h97v-584q0 -340 282 -340q156 0 245 104.5t89 293.5v524z" />
    <glyph glyph-name="Uogonek" unicode="&#x172;" horiz-adv-x="1386" 
d="M174 494v960h98v-958q0 -206 109 -315t315 -109q201 0 309.5 110t108.5 314v958h98v-960q0 -194 -89.5 -323t-252.5 -173q-48 -23 -73 -57.5t-25 -67.5q0 -59 68 -59q16 0 37 6v-84q-24 -8 -62 -8q-57 0 -92 33t-35 87q0 73 78 132q-58 -5 -70 -5q-246 0 -384 137
t-138 382z" />
    <glyph glyph-name="uogonek" unicode="&#x173;" horiz-adv-x="1105" 
d="M874 0l-18 182q-40 -93 -137 -150t-219 -57q-173 0 -265 108.5t-92 293.5v608h97v-584q0 -340 282 -340q156 0 245 104.5t89 293.5v524h94v-983q-51 -24 -77.5 -58t-26.5 -69q0 -59 67 -59q16 0 37 6v-84q-24 -8 -61 -8q-57 0 -92 33t-35 87q0 45 29 84.5t83 67.5z" />
    <glyph glyph-name="Wcircumflex" unicode="&#x174;" horiz-adv-x="1955" 
d="M858 1567h-98l143 219h146l143 -219h-98l-117 172zM461 0l-430 1454h102l324 -1102q28 -104 53 -219q21 79 63 219l355 1102h98l356 -1102q30 -88 62 -217q24 119 53 217l328 1102h100l-434 -1454h-90l-424 1311l-422 -1311h-94z" />
    <glyph glyph-name="wcircumflex" unicode="&#x175;" horiz-adv-x="1470" 
d="M616 1096h-98l144 219h145l143 -219h-98l-117 172zM358 0l-327 983h96l221 -668q40 -118 60 -194q7 33 21 81t24 79t12 34l221 668h96l222 -668q38 -112 59 -192q30 110 57 192l223 668h97l-330 -983h-96l-234 702q-30 90 -45 158q-18 -72 -47 -158l-233 -702h-97z" />
    <glyph glyph-name="Ycircumflex" unicode="&#x176;" horiz-adv-x="1118" 
d="M442 1567h-98l143 219h146l143 -219h-98l-117 172zM514 623l-494 831h113l389 -672q32 -57 41 -77q16 34 41 77l385 672h109l-486 -831v-623h-98v623z" />
    <glyph glyph-name="ycircumflex" unicode="&#x177;" horiz-adv-x="913" 
d="M332 1096h-99l144 219h145l144 -219h-99l-116 172zM49 -416v76h92q27 0 42 1t41 4.5t43.5 12t38 23.5t37 39.5t28.5 58.5l49 133l-400 1051h99l346 -922l332 922h96l-436 -1210q-38 -104 -106 -152.5t-169 -48.5q-72 0 -133 12z" />
    <glyph glyph-name="Ydieresis" unicode="&#x178;" horiz-adv-x="1118" 
d="M426 1614q-35 0 -60.5 25t-25.5 59q0 35 25.5 61.5t60.5 26.5q34 0 60 -26.5t26 -61.5q0 -34 -26 -59t-60 -25zM696 1614q-35 0 -60.5 25t-25.5 59q0 35 25.5 61.5t60.5 26.5q34 0 60 -26.5t26 -61.5q0 -34 -26 -59t-60 -25zM514 623l-494 831h113l389 -672
q32 -57 41 -77q16 34 41 77l385 672h109l-486 -831v-623h-98v623z" />
    <glyph glyph-name="Zacute" unicode="&#x179;" horiz-adv-x="1179" 
d="M764 1784l-137 -217h-86l110 217h113zM1087 0h-995v88l889 1276h-885v90h1002v-88l-889 -1276h878v-90z" />
    <glyph glyph-name="zacute" unicode="&#x17a;" horiz-adv-x="880" 
d="M627 1313l-138 -217h-86l111 217h113zM799 0h-717v74l604 827h-604v82h717v-76l-602 -825h602v-82z" />
    <glyph glyph-name="Zdotaccent" unicode="&#x17b;" horiz-adv-x="1179" 
d="M578 1614q-35 0 -60.5 25t-25.5 59q0 35 25.5 61.5t60.5 26.5q34 0 60 -26.5t26 -61.5q0 -34 -26 -59t-60 -25zM1087 0h-995v88l889 1276h-885v90h1002v-88l-889 -1276h878v-90z" />
    <glyph glyph-name="zdotaccent" unicode="&#x17c;" horiz-adv-x="880" 
d="M440 1143q-35 0 -60.5 25t-25.5 59q0 35 25.5 61.5t60.5 26.5q34 0 60 -26.5t26 -61.5q0 -34 -26 -59t-60 -25zM799 0h-717v74l604 827h-604v82h717v-76l-602 -825h602v-82z" />
    <glyph glyph-name="Zcaron" unicode="&#x17d;" horiz-adv-x="1179" 
d="M504 1567l-144 219h99l119 -172l116 172h99l-144 -219h-145zM1087 0h-995v88l889 1276h-885v90h1002v-88l-889 -1276h878v-90z" />
    <glyph glyph-name="zcaron" unicode="&#x17e;" horiz-adv-x="880" 
d="M367 1096l-144 219h99l118 -172l117 172h98l-143 -219h-145zM799 0h-717v74l604 827h-604v82h717v-76l-602 -825h602v-82z" />
    <glyph glyph-name="florin" unicode="&#x192;" horiz-adv-x="1081" 
d="M150 819h364l66 451q27 184 211 184h165v-90h-180q-42 0 -69 -24.5t-33 -69.5l-66 -451h350v-90h-364l-111 -754q-13 -90 -67 -137t-129 -47h-205v90h205q39 0 67.5 26t34.5 68l111 754h-350v90z" />
    <glyph glyph-name="Aringacute" unicode="&#x1fa;" horiz-adv-x="1290" 
d="M825 2044l-137 -217h-86l111 217h112zM129 0h-98l520 1403q-53 24 -84 73t-31 113q0 87 58 145t145 58q86 0 144.5 -58.5t58.5 -144.5q0 -59 -29.5 -108t-79.5 -74l527 -1407h-101l-153 408h-725zM639 1464q52 0 84.5 34.5t32.5 90.5q0 54 -33 89.5t-84 35.5t-84 -35
t-33 -90q0 -56 32.5 -90.5t84.5 -34.5zM629 1350l-316 -852h660l-320 852q-2 4 -6.5 17t-5.5 17q-3 -11 -12 -34z" />
    <glyph glyph-name="aringacute" unicode="&#x1fb;" horiz-adv-x="1046" 
d="M700 1585l-137 -217h-86l111 217h112zM434 -25q-156 0 -244 78.5t-88 206.5q0 134 98 216.5t271 96.5l338 27v37q0 285 -287 285q-136 0 -213.5 -61.5t-77.5 -168.5h-94q0 109 64 186.5t176 110.5q-55 55 -55 144q0 87 57.5 144.5t144.5 57.5q86 0 144.5 -58t58.5 -144
q0 -84 -57 -144q109 -33 171 -116t62 -222v-651h-76l-18 184q-51 -100 -149 -154.5t-226 -54.5zM524 1008q52 0 84.5 34.5t32.5 90.5q0 54 -33 89t-84 35t-83.5 -34.5t-32.5 -89.5q0 -56 32 -90.5t84 -34.5zM446 59q170 0 266.5 112.5t96.5 297.5v53l-330 -26
q-143 -11 -212.5 -74.5t-69.5 -159.5q0 -99 67.5 -151t181.5 -52z" />
    <glyph glyph-name="AEacute" unicode="&#x1fc;" horiz-adv-x="1798" 
d="M1325 1784l-137 -217h-86l110 217h113zM20 0l580 1454h1075v-90h-751v-590h684v-90h-684v-594h751v-90h-850v444h-530l-176 -444h-99zM332 535h493v829h-163z" />
    <glyph glyph-name="aeacute" unicode="&#x1fd;" horiz-adv-x="1781" 
d="M1061 1313l-137 -217h-86l110 217h113zM102 266q0 140 95.5 212t261.5 75l350 8v76q0 135 -78 210t-209 75q-136 0 -213.5 -61.5t-77.5 -168.5h-94q0 144 106.5 230t280.5 86q128 0 224 -65t126 -169q58 110 160 172t234 62q192 0 312 -126t120 -327v-66h-801
q6 -199 106.5 -313.5t274.5 -114.5q264 0 324 222h96q-86 -308 -420 -308q-149 0 -259 72t-165 201q-41 -121 -153 -197t-265 -76q-158 0 -247 78.5t-89 212.5zM1268 922q-148 0 -249 -97t-118 -258h703q0 160 -92 257.5t-244 97.5zM197 272q0 -106 70 -159.5t192 -53.5
q158 0 254 97t96 256v71l-350 -8q-262 -6 -262 -203z" />
    <glyph glyph-name="Oslashacute" unicode="&#x1fe;" horiz-adv-x="1558" 
d="M967 1784l-138 -217h-86l111 217h113zM1466 727q0 -217 -87.5 -389t-244.5 -267.5t-356 -95.5q-238 0 -418 140l-88 -115h-102l129 170q-98 101 -152.5 244.5t-54.5 312.5q0 217 87.5 389t244 267.5t354.5 95.5q237 0 420 -140l88 115h105l-131 -170q98 -103 152 -245.5
t54 -311.5zM193 727q0 -295 167 -479l779 1014q-150 122 -361 122q-258 0 -421.5 -183.5t-163.5 -473.5zM1366 727q0 292 -168 477l-778 -1011q151 -123 358 -123q171 0 305 83t208.5 233t74.5 341z" />
    <glyph glyph-name="oslashacute" unicode="&#x1ff;" horiz-adv-x="1138" 
d="M756 1313l-138 -217h-86l111 217h113zM82 492q0 223 138 369.5t349 146.5q129 0 240 -62l70 115h92l-99 -158q87 -70 136 -177t49 -234q0 -223 -138.5 -370t-349.5 -147q-126 0 -233 58l-86 -137h-90l110 180q-89 70 -138.5 178t-49.5 238zM178 492q0 -105 36.5 -192.5
t102.5 -147.5l445 720q-89 50 -193 50q-172 0 -281.5 -120.5t-109.5 -309.5zM961 492q0 210 -136 333l-444 -716q85 -48 188 -48q172 0 282 121t110 310z" />
    <glyph glyph-name="Scommaaccent" unicode="&#x218;" horiz-adv-x="1128" 
d="M94 1087q0 178 129 285t344 107q187 0 305 -99t140 -274h-103q-15 135 -104 209t-238 74q-169 0 -271.5 -83t-102.5 -219q0 -209 249 -274l258 -65q164 -41 250 -137t86 -236q0 -183 -130.5 -291.5t-348.5 -108.5q-204 0 -333 99.5t-146 269.5h104q6 -124 109 -200
t266 -76q173 0 277 83t104 222q0 218 -256 282l-252 64q-165 41 -250.5 134.5t-85.5 233.5zM637 -190q0 -83 -48.5 -132t-101.5 -51v51q36 1 59 26t23 58q-8 -4 -24 -4q-33 0 -57.5 22.5t-24.5 55.5q0 37 24 62.5t58 25.5q42 0 67 -29t25 -85z" />
    <glyph glyph-name="scommaaccent" unicode="&#x219;" horiz-adv-x="864" 
d="M68 266h92q0 -95 66 -150t180 -55q125 0 196.5 52t71.5 143q0 72 -39.5 112.5t-134.5 65.5l-166 43q-124 32 -186 98.5t-62 159.5q0 123 93 198t245 75t241.5 -76.5t94.5 -210.5h-92q-4 95 -69 148t-175 53q-118 0 -181 -48t-63 -139q0 -128 176 -174l164 -43
q129 -34 188.5 -96.5t59.5 -165.5q0 -126 -98.5 -203.5t-259.5 -77.5q-157 0 -249.5 79t-92.5 212zM496 -190q0 -83 -48.5 -132t-101.5 -51v51q36 1 59 26t23 58q-8 -4 -25 -4q-33 0 -57 22.5t-24 55.5q0 37 23.5 62.5t57.5 25.5q43 0 68 -29.5t25 -84.5z" />
    <glyph glyph-name="Tcommaaccent" unicode="&#x21a;" horiz-adv-x="1052" 
d="M20 1364v90h1012v-90h-457v-1364h-98v1364h-457zM610 -190q0 -83 -48 -132t-101 -51v51q36 1 59 26t23 58q-8 -4 -25 -4q-33 0 -57.5 22.5t-24.5 55.5q0 37 24 62.5t58 25.5q42 0 67 -29t25 -85z" />
    <glyph glyph-name="tcommaaccent" unicode="&#x21b;" horiz-adv-x="573" 
d="M334 0h-94v901h-199v82h199v311h94v-311h198v-82h-198v-901zM367 -190q0 -83 -48.5 -132t-101.5 -51v51q36 1 59 26t23 58q-8 -4 -25 -4q-33 0 -57 22.5t-24 55.5q0 37 23.5 62.5t57.5 25.5q43 0 68 -29.5t25 -84.5z" />
    <glyph glyph-name="dotlessj" unicode="&#x237;" horiz-adv-x="405" 
d="M-119 -418l21 90q60 -14 102 -14q152 0 152 190v1135h94v-1135q0 -134 -63.5 -208t-178.5 -74q-67 0 -127 16z" />
    <glyph glyph-name="circumflex" unicode="&#x2c6;" horiz-adv-x="595" 
d="M180 1567h-98l143 219h146l143 -219h-98l-117 172z" />
    <glyph glyph-name="caron" unicode="&#x2c7;" horiz-adv-x="595" 
d="M225 1567l-143 219h98l119 -172l117 172h98l-143 -219h-146z" />
    <glyph glyph-name="breve" unicode="&#x2d8;" horiz-adv-x="634" 
d="M453 1786h86q0 -104 -60 -164.5t-162 -60.5t-161.5 60.5t-59.5 164.5h86q0 -67 34 -103t101 -36t101.5 36t34.5 103z" />
    <glyph glyph-name="dotaccent" unicode="&#x2d9;" horiz-adv-x="380" 
d="M190 1614q-35 0 -60.5 25t-25.5 59q0 35 25.5 61.5t60.5 26.5q34 0 60 -26.5t26 -61.5q0 -34 -26 -59t-60 -25z" />
    <glyph glyph-name="ring" unicode="&#x2da;" horiz-adv-x="569" 
d="M285 1569q-89 0 -146 58t-57 147q0 87 58 144.5t145 57.5q86 0 144 -58t58 -144q0 -87 -58 -146t-144 -59zM285 1649q52 0 84 34.5t32 90.5q0 54 -32.5 89t-83.5 35t-84 -34.5t-33 -89.5q0 -56 32.5 -90.5t84.5 -34.5z" />
    <glyph glyph-name="ogonek" unicode="&#x2db;" horiz-adv-x="352" 
d="M195 0h75q-51 -24 -77.5 -58t-26.5 -69q0 -59 67 -59q16 0 37 6v-84q-24 -8 -61 -8q-57 0 -92 33t-35 87q0 44 29.5 84t83.5 68z" />
    <glyph glyph-name="tilde" unicode="&#x2dc;" horiz-adv-x="706" 
d="M178 1608h-82q-3 89 32.5 138.5t100.5 49.5q34 0 67.5 -16.5t56 -36.5t52 -36.5t56.5 -16.5q35 0 51 25t16 81h82q0 -90 -37 -139t-110 -49q-37 0 -71 16.5t-55 36.5t-47 36.5t-48 16.5q-30 0 -47 -27t-17 -79z" />
    <glyph glyph-name="hungarumlaut" unicode="&#x2dd;" horiz-adv-x="598" 
d="M301 1784l-133 -217h-82l107 217h108zM512 1784l-168 -217h-86l137 217h117z" />
    <glyph glyph-name="gravecomb" unicode="&#x300;" horiz-adv-x="395" 
d="M301 1567h-86l-133 219h113z" />
    <glyph glyph-name="acutecomb" unicode="&#x301;" horiz-adv-x="399" 
d="M317 1784l-137 -217h-86l111 217h112z" />
    <glyph glyph-name="circumflexcomb" unicode="&#x302;" horiz-adv-x="595" 
d="M180 1567h-98l143 219h146l143 -219h-98l-117 172z" />
    <glyph glyph-name="tildecomb" unicode="&#x303;" horiz-adv-x="706" 
d="M178 1608h-82q-3 89 32.5 138.5t100.5 49.5q34 0 67.5 -16.5t56 -36.5t52 -36.5t56.5 -16.5q35 0 51 25t16 81h82q0 -90 -37 -139t-110 -49q-37 0 -71 16.5t-55 36.5t-47 36.5t-48 16.5q-30 0 -47 -27t-17 -79z" />
    <glyph glyph-name="macroncomb" unicode="&#x304;" horiz-adv-x="688" 
d="M123 1694v86h442v-86h-442z" />
    <glyph glyph-name="brevecomb" unicode="&#x306;" horiz-adv-x="634" 
d="M453 1786h86q0 -104 -60 -164.5t-162 -60.5t-161.5 60.5t-59.5 164.5h86q0 -67 34 -103t101 -36t101.5 36t34.5 103z" />
    <glyph glyph-name="dotaccentcomb" unicode="&#x307;" horiz-adv-x="380" 
d="M190 1614q-35 0 -60.5 25t-25.5 59q0 35 25.5 61.5t60.5 26.5q34 0 60 -26.5t26 -61.5q0 -34 -26 -59t-60 -25z" />
    <glyph glyph-name="dieresiscomb" unicode="&#x308;" horiz-adv-x="704" 
d="M217 1614q-35 0 -60.5 25t-25.5 59q0 35 25.5 61.5t60.5 26.5q34 0 60 -26.5t26 -61.5q0 -34 -26 -59t-60 -25zM487 1614q-35 0 -60.5 25t-25.5 59q0 35 25.5 61.5t60.5 26.5q34 0 60 -26.5t26 -61.5q0 -34 -26 -59t-60 -25z" />
    <glyph glyph-name="ringcomb" unicode="&#x30a;" horiz-adv-x="569" 
d="M285 1569q-89 0 -146 58t-57 147q0 87 58 144.5t145 57.5q86 0 144 -58t58 -144q0 -87 -58 -146t-144 -59zM285 1649q52 0 84 34.5t32 90.5q0 54 -32.5 89t-83.5 35t-84 -34.5t-33 -89.5q0 -56 32.5 -90.5t84.5 -34.5z" />
    <glyph glyph-name="hungarumlautcomb" unicode="&#x30b;" horiz-adv-x="598" 
d="M301 1784l-133 -217h-82l107 217h108zM512 1784l-168 -217h-86l137 217h117z" />
    <glyph glyph-name="caroncomb" unicode="&#x30c;" horiz-adv-x="595" 
d="M225 1567l-143 219h98l119 -172l117 172h98l-143 -219h-146z" />
    <glyph glyph-name="commaturnedabovecomb" unicode="&#x312;" horiz-adv-x="352" 
d="M264 1626q0 -37 -24 -62.5t-58 -25.5q-42 0 -67 29.5t-25 85.5q0 83 48 131.5t102 50.5v-51q-36 -1 -59 -26t-23 -58q8 4 24 4q33 0 57.5 -22.5t24.5 -55.5z" />
    <glyph glyph-name="commaaccentcomb" unicode="&#x326;" horiz-adv-x="352" 
d="M256 -150q0 -83 -48 -131.5t-102 -50.5v51q36 1 59 26t23 58q-8 -4 -24 -4q-33 0 -57.5 22.5t-24.5 55.5q0 37 24 62.5t58 25.5q42 0 67 -29.5t25 -85.5z" />
    <glyph glyph-name="cedillacomb" unicode="&#x327;" horiz-adv-x="442" 
d="M82 -319v73q53 -30 106 -30q38 0 64.5 16.5t26.5 48.5q0 33 -21.5 49.5t-58.5 16.5q-40 0 -101 -27l-16 45l84 180h47v-53l-41 -90q33 10 57 10q58 0 94.5 -34.5t36.5 -92.5q0 -68 -47 -104.5t-114 -36.5q-75 0 -117 29z" />
    <glyph glyph-name="strokeshortcomb" unicode="&#x335;" horiz-adv-x="915" 
d="M184 1212h547v-77h-547v77z" />
    <glyph glyph-name="slashshortcomb" unicode="&#x337;" horiz-adv-x="444" 
d="M41 662v86l362 174v-86z" />
    <glyph glyph-name="slashlongcomb" unicode="&#x338;" horiz-adv-x="974" 
d="M893 1083l-721 -1165h-90l719 1165h92z" />
    <glyph glyph-name="Omega" unicode="&#x3a9;" horiz-adv-x="1296" 
d="M557 0h-393v90h223q-114 77 -173.5 194.5t-59.5 247.5q0 209 142.5 342.5t352.5 133.5t352 -132t142 -341q0 -130 -61 -249.5t-173 -195.5h224v-90h-394v90q151 59 231.5 182t80.5 260q0 170 -116.5 278t-285.5 108t-286 -108t-117 -278q0 -140 83 -263.5t228 -178.5v-90
z" />
    <glyph glyph-name="pi" unicode="&#x3c0;" horiz-adv-x="1196" 
d="M246 0v893h-205v90h1063v-90h-221v-682q0 -67 27.5 -95t76.5 -30l117 -2v-76q-43 -8 -129 -8q-96 0 -141.5 48.5t-45.5 162.5v682h-448v-893h-94z" />
    <glyph glyph-name="Wgrave" unicode="&#x1e80;" horiz-adv-x="1955" 
d="M1014 1567h-86l-133 219h112zM461 0l-430 1454h102l324 -1102q28 -104 53 -219q21 79 63 219l355 1102h98l356 -1102q30 -88 62 -217q24 119 53 217l328 1102h100l-434 -1454h-90l-424 1311l-422 -1311h-94z" />
    <glyph glyph-name="wgrave" unicode="&#x1e81;" horiz-adv-x="1470" 
d="M772 1096h-86l-133 219h113zM358 0l-327 983h96l221 -668q40 -118 60 -194q7 33 21 81t24 79t12 34l221 668h96l222 -668q38 -112 59 -192q30 110 57 192l223 668h97l-330 -983h-96l-234 702q-30 90 -45 158q-18 -72 -47 -158l-233 -702h-97z" />
    <glyph glyph-name="Wacute" unicode="&#x1e82;" horiz-adv-x="1955" 
d="M1163 1784l-137 -217h-86l111 217h112zM461 0l-430 1454h102l324 -1102q28 -104 53 -219q21 79 63 219l355 1102h98l356 -1102q30 -88 62 -217q24 119 53 217l328 1102h100l-434 -1454h-90l-424 1311l-422 -1311h-94z" />
    <glyph glyph-name="wacute" unicode="&#x1e83;" horiz-adv-x="1470" 
d="M922 1313l-138 -217h-86l111 217h113zM358 0l-327 983h96l221 -668q40 -118 60 -194q7 33 21 81t24 79t12 34l221 668h96l222 -668q38 -112 59 -192q30 110 57 192l223 668h97l-330 -983h-96l-234 702q-30 90 -45 158q-18 -72 -47 -158l-233 -702h-97z" />
    <glyph glyph-name="Wdieresis" unicode="&#x1e84;" horiz-adv-x="1955" 
d="M842 1614q-35 0 -60.5 25t-25.5 59q0 35 25.5 61.5t60.5 26.5q34 0 60 -26.5t26 -61.5q0 -34 -26 -59t-60 -25zM1112 1614q-35 0 -60.5 25t-25.5 59q0 35 25.5 61.5t60.5 26.5q34 0 60 -26.5t26 -61.5q0 -34 -26 -59t-60 -25zM461 0l-430 1454h102l324 -1102
q28 -104 53 -219q21 79 63 219l355 1102h98l356 -1102q30 -88 62 -217q24 119 53 217l328 1102h100l-434 -1454h-90l-424 1311l-422 -1311h-94z" />
    <glyph glyph-name="wdieresis" unicode="&#x1e85;" horiz-adv-x="1470" 
d="M600 1143q-35 0 -60.5 25t-25.5 59q0 35 25.5 61.5t60.5 26.5q34 0 60 -26.5t26 -61.5q0 -34 -26 -59t-60 -25zM870 1143q-35 0 -60.5 25t-25.5 59q0 35 25.5 61.5t60.5 26.5q34 0 60 -26.5t26 -61.5q0 -34 -26 -59t-60 -25zM358 0l-327 983h96l221 -668q40 -118 60 -194
q7 33 21 81t24 79t12 34l221 668h96l222 -668q38 -112 59 -192q30 110 57 192l223 668h97l-330 -983h-96l-234 702q-30 90 -45 158q-18 -72 -47 -158l-233 -702h-97z" />
    <glyph glyph-name="Ygrave" unicode="&#x1ef2;" horiz-adv-x="1118" 
d="M598 1567h-86l-133 219h113zM514 623l-494 831h113l389 -672q32 -57 41 -77q16 34 41 77l385 672h109l-486 -831v-623h-98v623z" />
    <glyph glyph-name="ygrave" unicode="&#x1ef3;" horiz-adv-x="913" 
d="M487 1096h-86l-133 219h113zM49 -416v76h92q27 0 42 1t41 4.5t43.5 12t38 23.5t37 39.5t28.5 58.5l49 133l-400 1051h99l346 -922l332 922h96l-436 -1210q-38 -104 -106 -152.5t-169 -48.5q-72 0 -133 12z" />
    <glyph glyph-name="endash" unicode="&#x2013;" horiz-adv-x="1855" 
d="M133 492v86h1589v-86h-1589z" />
    <glyph glyph-name="emdash" unicode="&#x2014;" horiz-adv-x="2267" 
d="M133 492v86h2001v-86h-2001z" />
    <glyph glyph-name="quoteleft" unicode="&#x2018;" horiz-adv-x="471" 
d="M348 1219q0 -45 -29.5 -75t-76.5 -30q-48 0 -83.5 38t-35.5 103q0 82 57 147t139 79v-66q-47 -9 -79.5 -42.5t-32.5 -72.5q19 15 53 15q36 0 62 -25.5t26 -70.5z" />
    <glyph glyph-name="quoteright" unicode="&#x2019;" horiz-adv-x="471" 
d="M348 1339q0 -81 -57 -146t-139 -79v66q47 9 79.5 42.5t32.5 71.5q-17 -14 -53 -14t-62 25.5t-26 70.5t29.5 75t76.5 30q48 0 83.5 -38.5t35.5 -103.5z" />
    <glyph glyph-name="quotesinglbase" unicode="&#x201a;" horiz-adv-x="471" 
d="M348 59q0 -81 -57 -146t-139 -79v66q47 9 79.5 42.5t32.5 71.5q-18 -14 -53 -14q-36 0 -62 25.5t-26 70.5t29.5 75t76.5 30q48 0 83.5 -38.5t35.5 -103.5z" />
    <glyph glyph-name="quotedblleft" unicode="&#x201c;" horiz-adv-x="770" 
d="M348 1219q0 -45 -29.5 -75t-76.5 -30q-48 0 -83.5 38t-35.5 103q0 82 57 147t139 79v-66q-47 -9 -79.5 -42.5t-32.5 -72.5q19 15 53 15q36 0 62 -25.5t26 -70.5zM647 1219q0 -45 -29.5 -75t-76.5 -30q-48 0 -83.5 38t-35.5 103q0 82 57 147t139 79v-66
q-47 -9 -79.5 -42.5t-32.5 -72.5q19 15 53 15q36 0 62 -25.5t26 -70.5z" />
    <glyph glyph-name="quotedblright" unicode="&#x201d;" horiz-adv-x="770" 
d="M348 1339q0 -81 -57 -146t-139 -79v66q47 9 79.5 42.5t32.5 71.5q-17 -14 -53 -14t-62 25.5t-26 70.5t29.5 75t76.5 30q48 0 83.5 -38.5t35.5 -103.5zM647 1339q0 -81 -57 -146t-139 -79v66q47 9 79.5 42.5t32.5 71.5q-17 -14 -53 -14t-62 25.5t-26 70.5t29.5 75t76.5 30
q48 0 83.5 -38.5t35.5 -103.5z" />
    <glyph glyph-name="quotedblbase" unicode="&#x201e;" horiz-adv-x="770" 
d="M348 59q0 -81 -57 -146t-139 -79v66q47 9 79.5 42.5t32.5 71.5q-18 -14 -53 -14q-36 0 -62 25.5t-26 70.5t29.5 75t76.5 30q48 0 83.5 -38.5t35.5 -103.5zM647 59q0 -81 -57 -146t-139 -79v66q47 9 79.5 42.5t32.5 71.5q-17 -14 -53 -14t-62 25.5t-26 70.5t29.5 75
t76.5 30q48 0 83.5 -38.5t35.5 -103.5z" />
    <glyph glyph-name="dagger" unicode="&#x2020;" horiz-adv-x="577" 
d="M248 541v630h-195v78h195v205h82v-205h194v-78h-194v-630h-82z" />
    <glyph glyph-name="daggerdbl" unicode="&#x2021;" horiz-adv-x="579" 
d="M248 541v266h-193v78h193v225h-195v78h195v266h82v-266h194v-78h-194v-225h196v-78h-196v-266h-82z" />
    <glyph glyph-name="bullet" unicode="&#x2022;" horiz-adv-x="718" 
d="M360 272q-107 0 -185.5 77t-78.5 183t78 184.5t186 78.5q106 0 184.5 -78t78.5 -185q0 -105 -78 -182.5t-185 -77.5z" />
    <glyph glyph-name="ellipsis" unicode="&#x2026;" horiz-adv-x="1331" 
d="M256 -23q-46 0 -79.5 33.5t-33.5 77.5q0 46 33.5 79.5t79.5 33.5t79.5 -33.5t33.5 -79.5q0 -44 -33.5 -77.5t-79.5 -33.5zM666 -23q-46 0 -79.5 33.5t-33.5 77.5q0 46 33.5 79.5t79.5 33.5t79 -33.5t33 -79.5q0 -44 -33 -77.5t-79 -33.5zM1075 -23q-45 0 -78.5 33.5
t-33.5 77.5q0 46 33 79.5t79 33.5t79.5 -33.5t33.5 -79.5q0 -44 -33.5 -77.5t-79.5 -33.5z" />
    <glyph glyph-name="perthousand" unicode="&#x2030;" horiz-adv-x="2576" 
d="M803 1130q0 -152 -97.5 -251t-248.5 -99t-248.5 99t-97.5 251t97.5 251.5t248.5 99.5t248.5 -99.5t97.5 -251.5zM1513 1454l-1103 -1454h-107l1102 1454h108zM713 1130q0 117 -71 191t-185 74t-185 -74t-71 -191t71.5 -190.5t184.5 -73.5t184.5 73.5t71.5 190.5z
M1708 324q0 -152 -97.5 -251.5t-248.5 -99.5t-248.5 99.5t-97.5 251.5t97.5 251t248.5 99t248.5 -99t97.5 -251zM2466 324q0 -152 -97.5 -251.5t-248.5 -99.5t-248.5 99.5t-97.5 251.5t97.5 251t248.5 99t248.5 -99t97.5 -251zM1618 324q0 117 -71 190.5t-185 73.5
t-185 -73.5t-71 -190.5t71.5 -191t184.5 -74t184.5 74t71.5 191zM2376 324q0 117 -71 190.5t-185 73.5t-185 -73.5t-71 -190.5t71.5 -191t184.5 -74t184.5 74t71.5 191z" />
    <glyph glyph-name="minute" unicode="&#x2032;" horiz-adv-x="342" 
d="M240 1401l-31 -363h-74l-33 363q-3 38 18.5 59t51.5 21q29 0 50 -21t18 -59z" />
    <glyph glyph-name="guilsinglleft" unicode="&#x2039;" horiz-adv-x="694" 
d="M512 0l-430 492l430 491h100l-430 -491l430 -492h-100z" />
    <glyph glyph-name="guilsinglright" unicode="&#x203a;" horiz-adv-x="694" 
d="M182 0h-100l430 492l-430 491h100l430 -491z" />
    <glyph glyph-name="asterism" unicode="&#x2042;" horiz-adv-x="1746" 
d="M657 1180l-122 45l30 73l119 -41q98 -33 166 -77q-19 84 -19 182v131h80v-131q0 -114 -16 -182q66 40 166 77l121 43l30 -75l-125 -45q-77 -29 -176 -45q54 -49 117 -140l74 -106l-68 -47l-73 106q-66 92 -89 160q-27 -76 -86 -160l-75 -106l-68 47l74 106q49 72 117 140
q-101 17 -177 45zM193 410l-127 47l30 75l121 -43q113 -41 166 -77q-18 95 -18 182v131h81v-131q0 -100 -16 -182q61 40 164 77l121 43l33 -75l-127 -45q-77 -27 -177 -43q71 -78 117 -144l72 -104l-66 -45l-73 104q-61 86 -91 160q-27 -83 -84 -160l-77 -106l-66 47l74 106
q53 75 117 142q-8 2 -33.5 6t-41.5 7t-44 10.5t-55 17.5zM1126 410l-127 47l31 73l119 -41q102 -34 168 -77q-19 84 -19 182v131h82v-131q0 -100 -16 -182q61 40 162 77l123 43l32 -75l-127 -45q-81 -28 -176 -43q71 -78 117 -144l72 -104l-66 -45l-74 104q-59 83 -90 160
q-27 -83 -84 -160l-77 -106l-66 47l74 106q58 81 119 142q-8 1 -34.5 5.5t-42.5 7.5t-44.5 10.5t-55.5 17.5z" />
    <glyph glyph-name="fraction" unicode="&#x2044;" horiz-adv-x="198" 
d="M614 1454l-931 -1454h-99l930 1454h100z" />
    <glyph glyph-name="zero.superior" unicode="&#x2070;" horiz-adv-x="841" 
d="M68 1094q0 207 95 331.5t257 124.5q164 0 259 -124.5t95 -331.5q0 -206 -95.5 -330.5t-258.5 -124.5t-257.5 124.5t-94.5 330.5zM156 1094q0 -172 69.5 -272.5t194.5 -100.5t194.5 100.5t69.5 272.5q0 173 -69.5 273.5t-194.5 100.5t-194.5 -100.5t-69.5 -273.5z" />
    <glyph glyph-name="four.superior" unicode="&#x2074;" horiz-adv-x="755" 
d="M715 858h-105v-182h-86v182h-479v84l449 614h116v-614h105v-84zM147 942h377v516z" />
    <glyph glyph-name="five.superior" unicode="&#x2075;" horiz-adv-x="714" 
d="M49 958h86q0 -93 62.5 -154t158.5 -61q95 0 157 62.5t62 159.5t-61 157t-158 60q-112 0 -192 -86l-84 16l108 444h428v-83h-362l-70 -273q77 62 183 62q131 0 215 -84t84 -215q0 -130 -88 -215.5t-222 -85.5q-132 0 -219.5 83.5t-87.5 212.5z" />
    <glyph glyph-name="six.superior" unicode="&#x2076;" horiz-adv-x="753" 
d="M170 1257l219 299h100l-219 -290q52 24 111 24q137 0 224 -89t87 -222q0 -135 -91 -226t-222 -91q-132 0 -225 92t-93 225q0 75 24.5 136.5t84.5 141.5zM152 979q0 -102 63.5 -169t163.5 -67q98 0 160.5 67t62.5 169q0 99 -62.5 164t-160.5 65q-100 0 -163.5 -65
t-63.5 -164z" />
    <glyph glyph-name="seven.superior" unicode="&#x2077;" horiz-adv-x="645" 
d="M614 1473l-329 -797h-90l331 797h-495v83h583v-83z" />
    <glyph glyph-name="eight.superior" unicode="&#x2078;" horiz-adv-x="739" 
d="M61 913q0 81 47.5 143.5t127.5 88.5q-67 26 -103.5 79t-36.5 122q0 103 77.5 164t197.5 61q119 0 196.5 -60.5t77.5 -164.5q0 -69 -36 -122t-101 -79q80 -24 125 -88t45 -144q0 -114 -86.5 -182.5t-220.5 -68.5q-136 0 -223 68.5t-87 182.5zM176 1341q0 -70 52 -115.5
t143 -45.5q88 0 139 44.5t51 114.5q0 72 -53.5 112t-136.5 40t-139 -39.5t-56 -110.5zM152 924q0 -85 62 -133t157 -48t157 48t62 133q0 83 -62 130.5t-159 47.5q-95 0 -156 -46.5t-61 -131.5z" />
    <glyph glyph-name="nine.superior" unicode="&#x2079;" horiz-adv-x="753" 
d="M584 975l-219 -299h-101l221 293q-53 -27 -112 -27q-138 0 -225 89t-87 222q0 135 91.5 226.5t222.5 91.5q132 0 224.5 -92.5t92.5 -225.5q0 -75 -24.5 -137t-83.5 -141zM602 1253q0 102 -63.5 169t-163.5 67q-98 0 -160.5 -67t-62.5 -169q0 -99 62.5 -164t160.5 -65
q100 0 163.5 65t63.5 164z" />
    <glyph glyph-name="zero.inferior" unicode="&#x2080;" horiz-adv-x="841" 
d="M68 233q0 207 95 332t257 125q164 0 259 -124.5t95 -332.5q0 -206 -95.5 -330t-258.5 -124t-257.5 124t-94.5 330zM156 233q0 -172 69.5 -272t194.5 -100t194.5 100t69.5 272q0 174 -69.5 274.5t-194.5 100.5t-194.5 -100.5t-69.5 -274.5z" />
    <glyph glyph-name="one.inferior" unicode="&#x2081;" horiz-adv-x="415" 
d="M227 592h-184v84h272v-881h-88v797z" />
    <glyph glyph-name="two.inferior" unicode="&#x2082;" horiz-adv-x="690" 
d="M635 -205h-580v76l312 252q170 138 170 283q0 98 -49.5 149t-143.5 51t-146.5 -58.5t-52.5 -162.5h-86q0 138 78.5 221.5t208.5 83.5q129 0 204 -76t75 -206q0 -182 -207 -347l-228 -182h445v-84z" />
    <glyph glyph-name="three.inferior" unicode="&#x2083;" horiz-adv-x="698" 
d="M291 264h-51v64l282 264h-432v84h535v-92l-258 -240q119 -8 197.5 -84.5t78.5 -196.5q0 -127 -86.5 -204.5t-218.5 -77.5t-211.5 78.5t-79.5 203.5h86q0 -92 55.5 -146t149.5 -54q95 0 155 55t60 148q0 78 -47 129.5t-133 64.5q-25 4 -82 4z" />
    <glyph glyph-name="four.inferior" unicode="&#x2084;" horiz-adv-x="759" 
d="M715 -23h-105v-182h-86v182h-479v84l449 615h116v-615h105v-84zM147 61h377v517z" />
    <glyph glyph-name="five.inferior" unicode="&#x2085;" horiz-adv-x="714" 
d="M49 78h86q0 -93 62.5 -154t158.5 -61q95 0 157 62t62 159t-61 157t-158 60q-112 0 -192 -86l-84 16l108 445h428v-84h-362l-70 -273q77 62 183 62q131 0 215 -84.5t84 -214.5t-88 -215.5t-222 -85.5q-132 0 -219.5 84t-87.5 213z" />
    <glyph glyph-name="six.inferior" unicode="&#x2086;" horiz-adv-x="753" 
d="M170 377l219 299h100l-219 -291q54 25 111 25q137 0 224 -89.5t87 -222.5q0 -136 -91 -226.5t-222 -90.5q-132 0 -225 92t-93 225q0 75 24.5 137.5t84.5 141.5zM152 98q0 -102 63.5 -168.5t163.5 -66.5q98 0 160.5 66.5t62.5 168.5q0 99 -62.5 164.5t-160.5 65.5
q-100 0 -163.5 -65.5t-63.5 -164.5z" />
    <glyph glyph-name="seven.inferior" unicode="&#x2087;" horiz-adv-x="645" 
d="M614 592l-329 -797h-90l331 797h-495v84h583v-84z" />
    <glyph glyph-name="eight.inferior" unicode="&#x2088;" horiz-adv-x="739" 
d="M61 33q0 81 47.5 143t127.5 88q-67 26 -103.5 79t-36.5 122q0 103 77.5 164t197.5 61q119 0 196.5 -60.5t77.5 -164.5q0 -69 -36 -122t-101 -79q80 -24 125 -87.5t45 -143.5q0 -114 -86.5 -183t-220.5 -69q-136 0 -223 69t-87 183zM176 461q0 -70 52 -116t143 -46
q88 0 139 45t51 115q0 72 -53.5 111.5t-136.5 39.5q-84 0 -139.5 -39t-55.5 -110zM152 43q0 -85 62 -132.5t157 -47.5t157 47.5t62 132.5q0 83 -62 130.5t-159 47.5q-95 0 -156 -46.5t-61 -131.5z" />
    <glyph glyph-name="nine.inferior" unicode="&#x2089;" horiz-adv-x="753" 
d="M584 94l-219 -299h-101l221 293q-53 -27 -112 -27q-137 0 -224.5 89.5t-87.5 222.5q0 135 91 226t223 91t224.5 -92t92.5 -225q0 -76 -24.5 -138t-83.5 -141zM602 373q0 102 -63.5 168.5t-163.5 66.5q-98 0 -160.5 -66.5t-62.5 -168.5q0 -99 62.5 -164.5t160.5 -65.5
q100 0 163.5 65.5t63.5 164.5z" />
    <glyph glyph-name="Euro" unicode="&#x20ac;" horiz-adv-x="1374" 
d="M967 -25q-280 0 -480.5 154t-255.5 420h-165v86h153q-4 62 -4 92q0 53 6 102h-155v86h167q55 259 253.5 410.5t482.5 151.5q171 0 282 -43v-93q-124 43 -286 43q-241 0 -408.5 -125t-220.5 -344h653v-86h-670q-6 -49 -6 -102q0 -30 4 -92h672v-86h-657q52 -225 223 -353
t416 -128q157 0 280 45v-97q-134 -41 -284 -41z" />
    <glyph glyph-name="numero" unicode="&#x2116;" horiz-adv-x="2496" 
d="M2394 1004q0 -135 -64 -247.5t-175.5 -177.5t-245.5 -65q-99 0 -189 39t-155 104.5t-103.5 156.5t-38.5 190q0 201 141 339t345 138q206 0 345.5 -137.5t139.5 -339.5zM283 0h-99v1454h101l852 -1288v1288h98v-1454h-98l-854 1292v-1292zM2298 1004q0 166 -111 276.5
t-278 110.5q-166 0 -277.5 -111.5t-111.5 -275.5q0 -167 113.5 -283.5t275.5 -116.5q167 0 278 114t111 286zM2333 260h-848v90h848v-90z" />
    <glyph glyph-name="soundcopyright" unicode="&#x2117;" horiz-adv-x="960" 
d="M481 688q-170 0 -284.5 114t-114.5 283q0 167 115 281.5t284 114.5t283.5 -113.5t114.5 -282.5q0 -170 -114 -283.5t-284 -113.5zM481 745q145 0 241.5 97t96.5 243q0 145 -96.5 241.5t-241.5 96.5t-241.5 -96.5t-96.5 -241.5q0 -146 96 -243t242 -97zM422 858h-64v442
h160q73 0 115.5 -39.5t42.5 -109.5t-42.5 -110t-115.5 -40h-96v-143zM422 1241v-180h94q92 0 92 90t-92 90h-94z" />
    <glyph glyph-name="trademark" unicode="&#x2122;" horiz-adv-x="1290" 
d="M246 1384h-193v70h459v-70h-193v-495h-73v495zM657 889h-69v565h69l222 -487l219 487h69v-565h-69v409l-185 -409h-69l-187 403v-403z" />
    <glyph glyph-name="estimated" unicode="&#x212e;" horiz-adv-x="1595" 
d="M123 723q0 160 50.5 296.5t139.5 231.5t214.5 149t271.5 54q148 0 272 -46.5t213 -132t139 -212.5t50 -283q0 -62 -3 -108h-1142v-369q80 -115 207 -177.5t288 -62.5q157 0 290 75t198 198l78 -29q-75 -151 -227 -238t-343 -87q-206 0 -364.5 93t-245 261.5t-86.5 386.5z
M328 1118v-373h940v410q-76 104 -199 160.5t-270 56.5q-150 0 -272 -68t-199 -186z" />
    <glyph glyph-name="oneeighth" unicode="&#x215b;" horiz-adv-x="1230" 
d="M197 1378h-152v76h234v-666h-82v590zM1065 1454l-932 -1454h-98l930 1454h100zM705 180q0 61 33.5 107.5t92.5 66.5q-47 21 -73.5 59.5t-26.5 90.5q0 78 59 125t150 47q92 0 150.5 -46t58.5 -126q0 -52 -27 -91.5t-75 -58.5q61 -18 95 -65.5t34 -108.5q0 -87 -66 -138.5
t-170 -51.5t-169.5 51.5t-65.5 138.5zM807 498q0 -49 35 -79t98 -30q61 0 97 29.5t36 79.5t-37 77t-96 27t-96 -27t-37 -77zM788 190q0 -59 43 -91.5t109 -32.5q67 0 109.5 33t42.5 91t-43 89.5t-109 31.5t-109 -31.5t-43 -89.5z" />
    <glyph glyph-name="threeeighths" unicode="&#x215c;" horiz-adv-x="1327" 
d="M45 995h84q0 -65 39 -103t106 -38t105.5 34.5t38.5 94.5q0 73 -49 112.5t-140 39.5h-41v57l195 184h-305v78h409v-80l-186 -174q89 -6 145 -63.5t56 -143.5q0 -100 -62 -158.5t-168 -58.5q-101 0 -164 61t-63 158zM1161 1454l-932 -1454h-98l930 1454h100zM801 180
q0 61 34 107.5t93 66.5q-47 21 -74 60t-27 90q0 78 59 125t150 47q92 0 150.5 -46t58.5 -126q0 -52 -27 -91.5t-75 -58.5q61 -18 95 -65.5t34 -108.5q0 -87 -66 -138.5t-170 -51.5t-169.5 51.5t-65.5 138.5zM903 498q0 -49 35 -79t98 -30q61 0 97 29.5t36 79.5t-37 77
t-96 27t-96 -27t-37 -77zM885 190q0 -59 42.5 -91.5t108.5 -32.5q67 0 109.5 33t42.5 91t-43 89.5t-109 31.5t-108.5 -31.5t-42.5 -89.5z" />
    <glyph glyph-name="fiveeighths" unicode="&#x215d;" horiz-adv-x="1353" 
d="M287 778q-103 0 -170.5 64.5t-67.5 163.5h84q0 -67 42.5 -108.5t111.5 -41.5t111 43t42 111q0 67 -41 110t-112 43q-84 0 -137 -63l-78 14l84 340h333v-78h-272l-47 -182q50 41 127 41q103 0 165 -64.5t62 -160.5q0 -100 -66.5 -166t-170.5 -66zM1188 1454l-932 -1454
h-98l929 1454h101zM827 180q0 61 34 107.5t93 66.5q-47 21 -73.5 59.5t-26.5 90.5q0 78 59 125t150 47q92 0 150.5 -46t58.5 -126q0 -52 -27.5 -91.5t-75.5 -58.5q61 -18 95 -65.5t34 -108.5q0 -87 -65.5 -138.5t-169.5 -51.5t-170 51.5t-66 138.5zM930 498q0 -49 35 -79
t98 -30q61 0 97 29.5t36 79.5t-37 77t-96 27t-96 -27t-37 -77zM911 190q0 -59 43 -91.5t109 -32.5q67 0 109 33t42 91t-42.5 89.5t-108.5 31.5t-109 -31.5t-43 -89.5z" />
    <glyph glyph-name="seveneighths" unicode="&#x215e;" horiz-adv-x="1204" 
d="M397 1374h-374v80h460v-80l-266 -586h-88zM1038 1454l-932 -1454h-98l930 1454h100zM678 180q0 61 34 107.5t93 66.5q-47 21 -73.5 59.5t-26.5 90.5q0 78 58.5 125t149.5 47q92 0 150.5 -46t58.5 -126q0 -52 -27 -91.5t-75 -58.5q61 -18 95 -65.5t34 -108.5
q0 -87 -66 -138.5t-170 -51.5t-169.5 51.5t-65.5 138.5zM780 498q0 -49 35 -79t98 -30q61 0 97.5 29.5t36.5 79.5q0 49 -37.5 76.5t-96.5 27.5t-96 -27t-37 -77zM762 190q0 -59 42.5 -91.5t108.5 -32.5q67 0 109.5 33t42.5 91t-43 89.5t-109 31.5t-108.5 -31.5t-42.5 -89.5z
" />
    <glyph glyph-name="arrowleft" unicode="&#x2190;" horiz-adv-x="1814" 
d="M784 -37l-63 -63l-598 596l598 596l63 -64l-485 -487h1393v-90h-1393z" />
    <glyph glyph-name="arrowup" unicode="&#x2191;" horiz-adv-x="1458" 
d="M188 799l-65 65l606 590l606 -590l-65 -65l-496 479v-1278h-90v1278z" />
    <glyph glyph-name="arrowright" unicode="&#x2192;" horiz-adv-x="1814" 
d="M1030 1128l64 64l598 -596l-598 -596l-64 63l486 488h-1393v90h1393z" />
    <glyph glyph-name="arrowdown" unicode="&#x2193;" horiz-adv-x="1437" 
d="M1251 459l64 -64l-596 -598l-596 598l63 64l488 -486v1481h90v-1481z" />
    <glyph glyph-name="arrowboth" unicode="&#x2194;" horiz-adv-x="2093" 
d="M123 510l393 401v-139l-205 -215l459 2v2h547l467 -2l-207 215v137l393 -399l-391 -403v141l201 215l-1004 -2v2l-465 -2l209 -219v-138z" />
    <glyph glyph-name="arrowupdn" unicode="&#x2195;" horiz-adv-x="1048" 
d="M522 -317l-399 395h135l217 -205l-2 461v543l2 464l-217 -202h-135l399 391l404 -391h-142l-215 202v-1468l215 205h142z" />
    <glyph glyph-name="arrowNW" unicode="&#x2196;" horiz-adv-x="1699" 
d="M123 1454h844v-90l-688 -2l1298 -1299l-64 -63l-1298 1298l-2 -688h-90v844z" />
    <glyph glyph-name="arrowNE" unicode="&#x2197;" horiz-adv-x="1699" 
d="M733 1362v92h844v-844h-92v688l-1299 -1298l-63 63l1298 1299h-688z" />
    <glyph glyph-name="arrowSE" unicode="&#x2198;" horiz-adv-x="1695" 
d="M1483 848h90v-844h-844v90l688 2l-1294 1295l63 63l1295 -1294z" />
    <glyph glyph-name="arrowSW" unicode="&#x2199;" horiz-adv-x="1701" 
d="M967 88v-90h-844v844h92v-688l1301 1300l63 -63l-1300 -1301z" />
    <glyph glyph-name="partialdiff" unicode="&#x2202;" horiz-adv-x="1253" 
d="M123 492q0 140 67.5 258t183.5 186t253 68q115 0 216 -53.5t167 -147.5q-33 101 -79 185.5t-115 166.5t-143.5 153t-191.5 171h123q180 -145 292 -281.5t173 -300t61 -354.5q0 -254 -141.5 -411t-370.5 -157q-212 0 -353.5 148.5t-141.5 368.5zM219 489
q0 -188 113.5 -308t290.5 -120q180 0 295.5 123.5t115.5 315.5q0 182 -112 298.5t-287 116.5q-181 0 -298.5 -120.5t-117.5 -305.5z" />
    <glyph glyph-name="emptyset" unicode="&#x2205;" horiz-adv-x="1601" 
d="M799 -25q-154 0 -287 58.5t-229 165.5l-179 -164l-57 59l184 168q-139 197 -139 465q0 216 93 388.5t254 268t360 95.5q155 0 287.5 -58.5t230.5 -165.5l180 166l57 -61l-186 -170q139 -197 139 -463q0 -162 -54 -302.5t-148.5 -239t-225.5 -154.5t-280 -56zM193 727
q0 -227 112 -397l938 860q-82 93 -197 143.5t-247 50.5q-171 0 -309 -83t-217.5 -233.5t-79.5 -340.5zM799 70q172 0 310.5 83t218 233.5t79.5 340.5q0 229 -113 395l-938 -858q82 -93 196.5 -143.5t246.5 -50.5z" />
    <glyph glyph-name="increment" unicode="&#x2206;" horiz-adv-x="1329" 
d="M1247 0h-1165v88l506 1366h145l514 -1372v-82zM647 1350l-469 -1268h969l-475 1268q-1 4 -6.5 17t-6.5 19q-4 -16 -12 -36z" />
    <glyph glyph-name="product" unicode="&#x220f;" horiz-adv-x="1349" 
d="M283 0h-99v1454h981v-1454h-98v1364h-784v-1364z" />
    <glyph glyph-name="summation" unicode="&#x2211;" horiz-adv-x="1056" 
d="M975 0h-934v106l463 617l-463 625v106h934v-90h-834l477 -645l-473 -629h830v-90z" />
    <glyph glyph-name="minus" unicode="&#x2212;" 
d="M164 735h1024v-90h-1024v90z" />
    <glyph glyph-name="radical" unicode="&#x221a;" horiz-adv-x="1388" 
d="M406 0l-406 981h102l349 -864l501 1337h355v-90h-289l-522 -1364h-90z" />
    <glyph glyph-name="infinity" unicode="&#x221e;" horiz-adv-x="1724" 
d="M123 571q0 149 97 244.5t249 95.5q118 0 211.5 -67t181.5 -205q88 138 181.5 205t211.5 67q152 0 249.5 -95.5t97.5 -244.5t-98 -244.5t-249 -95.5q-119 0 -212 67t-181 206q-88 -139 -181 -206t-212 -67q-151 0 -248.5 95.5t-97.5 244.5zM221 571q0 -114 70.5 -181.5
t187.5 -67.5q174 0 320 249q-147 250 -320 250q-118 0 -188 -68t-70 -182zM926 571q146 -249 319 -249q117 0 187.5 67.5t70.5 181.5t-70 182t-188 68q-172 0 -319 -250z" />
    <glyph glyph-name="integral" unicode="&#x222b;" horiz-adv-x="696" 
d="M211 -29h-150v86h150q37 0 63.5 26.5t26.5 63.5v1151q0 77 54 131t130 54h150v-86h-150q-37 0 -63.5 -26.5t-26.5 -63.5v-1151q0 -77 -54 -131t-130 -54z" />
    <glyph glyph-name="approxequal" unicode="&#x2248;" 
d="M1100 915h88q0 -133 -65.5 -211.5t-176.5 -78.5q-57 0 -119 22t-116 53.5t-106 63.5t-105 54t-97 22q-75 0 -111 -44.5t-40 -150.5h-88q0 130 65 207.5t174 77.5q51 0 109.5 -22t112.5 -54t107.5 -63.5t110.5 -53.5t105 -22q73 0 110.5 47t41.5 153zM1100 557h88
q0 -133 -66 -212t-176 -79q-57 0 -119 22t-116 54t-106 63.5t-105 53.5t-97 22q-75 0 -111 -44.5t-40 -149.5h-88q0 130 65 207t174 77q51 0 109.5 -22t112.5 -53.5t107.5 -63.5t110.5 -54t105 -22q73 0 110.5 47.5t41.5 153.5z" />
    <glyph glyph-name="notequal" unicode="&#x2260;" 
d="M322 39l167 311h-325v90h375l176 324h-551v90h600l168 311h98l-168 -311h326v-90h-375l-176 -324h551v-90h-600l-168 -311h-98z" />
    <glyph glyph-name="lessequal" unicode="&#x2264;" 
d="M1188 322v-97l-1024 369v94l1024 369v-96l-905 -320zM164 0v90h1024v-90h-1024z" />
    <glyph glyph-name="greaterequal" unicode="&#x2265;" 
d="M1188 594l-1024 -369v97l905 319l-905 320v96l1024 -369v-94zM164 90h1024v-90h-1024v90z" />
    <glyph glyph-name="filledbox" unicode="&#x25a0;" horiz-adv-x="1699" 
d="M123 0v1454h1454v-1454h-1454z" />
    <glyph glyph-name="squarewhite" unicode="&#x25a1;" horiz-adv-x="1699" 
d="M123 0v1454h1454v-1454h-1454zM1483 1360h-1266v-1266h1266v1266z" />
    <glyph glyph-name="triagup" unicode="&#x25b2;" horiz-adv-x="1978" 
d="M123 0l866 1454l866 -1454h-1732z" />
    <glyph glyph-name="triangleupwhite" unicode="&#x25b3;" horiz-adv-x="1982" 
d="M991 1458l869 -1458h-1737zM307 100h1368l-684 1149z" />
    <glyph glyph-name="lozenge" unicode="&#x25ca;" horiz-adv-x="1204" 
d="M1081 727l-428 -727h-104l-426 727l426 727h104zM977 727l-375 639l-375 -639l375 -639z" />
    <glyph glyph-name="circle" unicode="&#x25cb;" horiz-adv-x="1847" 
d="M924 -119q-217 0 -401.5 107.5t-292 292t-107.5 401.5q0 162 64 310.5t171 255.5t255.5 171t310.5 64t310 -64t255.5 -171t171 -255.5t63.5 -310.5t-63.5 -310.5t-171 -255.5t-255.5 -171t-310 -64zM924 -8q187 0 346 92.5t251.5 251.5t92.5 346q0 186 -93 345t-252 252
t-345 93q-187 0 -346.5 -92.5t-252 -251.5t-92.5 -346t92.5 -346t252 -251.5t346.5 -92.5z" />
    <glyph glyph-name="circleblack" unicode="&#x25cf;" horiz-adv-x="1847" 
d="M924 -119q-217 0 -401.5 107.5t-292 292t-107.5 401.5q0 162 64 310.5t171 255.5t255.5 171t310.5 64t310 -64t255.5 -171t171 -255.5t63.5 -310.5t-63.5 -310.5t-171 -255.5t-255.5 -171t-310 -64z" />
    <glyph glyph-name="peace" unicode="&#x262e;" horiz-adv-x="1847" 
d="M924 -119q-217 0 -401.5 107.5t-292 292t-107.5 401.5q0 162 64 310.5t171 255.5t255.5 171t310.5 64t310 -64t255.5 -171t171 -255.5t63.5 -310.5t-63.5 -310.5t-171 -255.5t-255.5 -171t-310 -64zM233 682q0 -154 64 -291l577 367v612q-132 -9 -250.5 -67t-204.5 -149
t-136 -214.5t-50 -257.5zM1614 682q0 177 -85 330.5t-231 249t-321 108.5v-612l573 -365q64 137 64 289zM348 303q88 -133 225.5 -216t300.5 -93v641zM977 635v-641q162 12 299 94t225 215z" />
    <glyph glyph-name="check" unicode="&#x2713;" horiz-adv-x="1548" 
d="M500 14l-441 475l72 72l363 -393l706 850l82 -64z" />
    <glyph glyph-name="ITF" unicode="&#xf8ff;" horiz-adv-x="3561" 
d="M225 0v1434h443v-1434h-443zM760 1016v418h442v-418h-442zM1292 0v1434h445v-1434h-445zM1827 1016v418h442v-418h-442zM2359 0v1434h445v-1434h-445zM2894 1016v418h442v-418h-442zM2894 506v420h442v-420h-442z" />
    <glyph glyph-name="G.ss01" horiz-adv-x="1533" 
d="M92 717q0 342 192 552t504 210q230 0 396.5 -111t228.5 -321h-108q-61 168 -196.5 252.5t-320.5 84.5q-272 0 -433.5 -181.5t-161.5 -485.5q0 -298 160 -471.5t429 -173.5q249 0 397 153t154 437h-598v90h697v-88q0 -212 -82.5 -368.5t-228.5 -237.5t-339 -81
q-308 0 -499 200t-191 540z" />
    <glyph glyph-name="idotaccent" horiz-adv-x="405" 
d="M203 1143q-35 0 -60.5 25t-25.5 59q0 35 25.5 61.5t60.5 26.5q34 0 60 -26.5t26 -61.5q0 -34 -26 -59t-60 -25zM156 0v983h94v-983h-94z" />
    <glyph glyph-name="a.ss01" horiz-adv-x="1173" 
d="M938 983h80v-983h-84l-14 221q-54 -123 -154 -184.5t-231 -61.5q-141 0 -245 69t-156 185t-52 263q0 146 54 262.5t160 185t247 68.5q129 0 230.5 -62t152.5 -192zM913 492q0 193 -95.5 311.5t-268.5 118.5q-172 0 -271.5 -119.5t-99.5 -310.5q0 -192 98 -311.5
t269 -119.5q173 0 270.5 119.5t97.5 311.5z" />
    <glyph glyph-name="g.ss02" horiz-adv-x="1062" 
d="M129 627q0 166 114 273.5t289 107.5q145 0 238 -68q59 109 191 109q24 0 34 -2v-95q-23 4 -47 4q-84 0 -131 -59q55 -48 88 -121t33 -149q0 -163 -114 -269t-289 -106q-114 0 -199 43q-56 -3 -87.5 -28t-31.5 -68q0 -93 141 -93h351q149 0 231 -62.5t82 -176.5
q0 -141 -133.5 -224t-360.5 -83q-225 0 -335.5 66.5t-110.5 201.5q0 68 41.5 124t109.5 83q-102 31 -102 139q0 59 35.5 103t99.5 61q-137 108 -137 289zM219 625q0 -130 87.5 -210.5t228.5 -80.5q140 0 226.5 80.5t86.5 210.5q0 133 -87.5 217t-225.5 84t-227 -84.5
t-89 -216.5zM168 -160q0 -101 86 -147.5t274 -46.5q196 0 298 56t102 163q0 80 -53.5 117.5t-165.5 37.5h-306q-114 0 -174.5 -46t-60.5 -134z" />
    <glyph glyph-name="t.ss03" horiz-adv-x="624" 
d="M516 84l14 -84q-67 -20 -122 -20q-106 0 -158.5 65.5t-52.5 173.5v682h-156v82h156v311h94v-311h241v-82h-241v-686q0 -74 36 -111.5t97 -37.5q43 0 92 18z" />
    <glyph glyph-name="f_y" horiz-adv-x="1505" 
d="M641 -416v76h92q27 0 42 1t41 4.5t43.5 12t38 23.5t37 39.5t28.5 58.5l49 133l-369 969h-354v-901h-94v901h-154v82h154v221q0 141 66.5 208t168.5 67q56 0 100 -6v-84h-84q-89 0 -123 -43.5t-34 -141.5v-221h422l346 -922l332 922h96l-436 -1210q-38 -104 -106 -152.5
t-169 -48.5q-72 0 -133 12z" />
    <glyph glyph-name="t_i" horiz-adv-x="1028" 
d="M834 1298q-34 0 -55 21t-21 55t21.5 57t54.5 23t55 -23t22 -57t-21.5 -55t-55.5 -21zM334 0h-94v901h-199v82h199v311h94v-311h549v-983h-95v901h-454v-901z" />
    <glyph glyph-name="t_t" horiz-adv-x="1146" 
d="M334 0h-94v905h-199v78h199v311h94v-311h479v311h94v-311h199v-78h-199v-905h-94v905h-479v-905z" />
    <glyph glyph-name="t_y" horiz-adv-x="1509" 
d="M334 0h-94v905h-199v78h199v311h94v-311h381l346 -922l332 922h96l-436 -1210q-38 -104 -105 -152.5t-170 -48.5q-71 0 -133 12v76h92q27 0 42 1t41 4.5t43.5 12t38 23.5t37 39.5t28.5 58.5l49 133l-371 973h-311v-905z" />
    <glyph glyph-name="zero.tf" 
d="M109 725q0 343 152 548.5t415 205.5t415 -205.5t152 -548.5t-152 -548.5t-415 -205.5t-415 205.5t-152 548.5zM205 725q0 -301 125 -481.5t346 -180.5t346 180.5t125 481.5t-125 481t-346 180t-346 -180t-125 -481z" />
    <glyph glyph-name="one.tf" 
d="M682 90v1274h-389v90h485v-1364h379v-90h-893v90h418z" />
    <glyph glyph-name="two.tf" 
d="M1143 0h-934v82l461 407q224 198 296 306.5t72 248.5q0 158 -92 250t-250 92q-163 0 -264.5 -110t-107.5 -293h-99q7 224 137.5 360t337.5 136q193 0 315 -119.5t122 -308.5q0 -161 -84 -291t-326 -342l-371 -328h787v-90z" />
    <glyph glyph-name="three.tf" 
d="M602 807h-90v72l475 485h-731v90h864v-82l-473 -481q224 0 362 -122t138 -320q0 -212 -137.5 -343t-358.5 -131q-215 0 -341 124t-126 335h99q0 -170 99 -268t269 -98q181 0 289.5 105t108.5 280q0 167 -117.5 260.5t-329.5 93.5z" />
    <glyph glyph-name="four.tf" 
d="M203 412h663v944zM1135 322h-170v-322h-99v322h-774v90l735 1042h138v-1042h170v-90z" />
    <glyph glyph-name="five.tf" 
d="M662 -25q-215 0 -341 124t-126 335h98q0 -170 99 -268t270 -98q180 0 288.5 109.5t108.5 285.5q0 169 -108 283t-292 114q-104 0 -199.5 -42t-166.5 -113l-66 30l172 719h678v-90h-606l-125 -520q139 108 320 108q112 0 205.5 -39.5t155.5 -106.5t96 -156t34 -189
q0 -213 -137.5 -349.5t-357.5 -136.5z" />
    <glyph glyph-name="six.tf" 
d="M336 936l385 518h117l-406 -536q120 73 248 73q223 0 363.5 -145.5t140.5 -360.5q0 -217 -146.5 -363.5t-359.5 -146.5q-140 0 -257 67t-185 184.5t-68 258.5q0 125 36.5 224.5t131.5 226.5zM266 485q0 -182 115.5 -299.5t296.5 -117.5q178 0 292.5 117.5t114.5 299.5
q0 180 -114.5 297t-292.5 117q-181 0 -296.5 -116.5t-115.5 -297.5z" />
    <glyph glyph-name="seven.tf" 
d="M195 1454h962v-90l-590 -1364h-102l594 1364h-864v90z" />
    <glyph glyph-name="eight.tf" 
d="M176 389q0 134 78.5 236t212.5 147q-115 46 -177.5 134t-62.5 204q0 164 125 266.5t326 102.5q199 0 322.5 -102.5t123.5 -266.5q0 -119 -61.5 -207t-175.5 -131q133 -38 212 -142t79 -243q0 -182 -139.5 -297t-360.5 -115q-223 0 -362.5 115.5t-139.5 298.5zM324 1114
q0 -134 97 -215.5t257 -81.5t255 79.5t95 213.5q0 127 -95 203t-255 76t-257 -75.5t-97 -199.5zM272 399q0 -149 113 -241t295 -92q179 0 290 91.5t111 239.5t-110.5 237t-294.5 89q-183 0 -293.5 -89t-110.5 -235z" />
    <glyph glyph-name="nine.tf" 
d="M1016 518l-385 -518h-117l406 537q-122 -74 -248 -74q-223 0 -363.5 145.5t-140.5 360.5q0 217 146.5 363.5t359.5 146.5q140 0 257 -67t185 -184.5t68 -258.5q0 -125 -36.5 -224.5t-131.5 -226.5zM1085 969q0 182 -115 299.5t-296 117.5q-178 0 -293 -117.5t-115 -299.5
q0 -180 115 -297t293 -117q181 0 296 116.5t115 297.5z" />
    <glyph glyph-name="zero.dnom" horiz-adv-x="692" 
d="M57 334q0 154 78.5 248t208.5 94q134 0 212.5 -96t78.5 -250t-78.5 -248t-210.5 -94q-134 0 -211.5 96t-77.5 250zM139 332q0 -120 55.5 -193t149.5 -73q97 0 152 73.5t55 192.5q0 121 -55.5 194.5t-151.5 73.5q-94 0 -149.5 -74t-55.5 -194z" />
    <glyph glyph-name="one.dnom" horiz-adv-x="368" 
d="M197 590h-152v76h234v-666h-82v590z" />
    <glyph glyph-name="two.dnom" horiz-adv-x="555" 
d="M510 0h-455v57l215 176q79 66 110.5 116t31.5 108q0 66 -38 104.5t-104 38.5q-64 0 -102.5 -38t-38.5 -103h-84q0 97 63 157t164 60q102 0 164 -59.5t62 -157.5q0 -75 -39 -137t-137 -144l-125 -102h313v-76z" />
    <glyph glyph-name="three.dnom" horiz-adv-x="546" 
d="M45 207h84q0 -65 39 -103t106 -38t105.5 34.5t38.5 94.5q0 73 -49 112t-140 39h-41v57l195 185h-305v78h409v-80l-186 -174q89 -6 145 -63.5t56 -143.5q0 -100 -62 -158.5t-168 -58.5q-101 0 -164 61t-63 158z" />
    <glyph glyph-name="four.dnom" horiz-adv-x="595" 
d="M381 137h-348v76l329 453h99v-453h82v-76h-82v-137h-80v137zM123 213h258v354z" />
    <glyph glyph-name="five.dnom" horiz-adv-x="573" 
d="M287 -10q-103 0 -170.5 64t-67.5 163h84q0 -67 42.5 -108t111.5 -41t111 42.5t42 110.5t-41 111t-112 43q-83 0 -137 -64l-78 15l84 340h333v-78h-272l-47 -182q49 40 127 40q103 0 165 -64.5t62 -160.5q0 -100 -66.5 -165.5t-170.5 -65.5z" />
    <glyph glyph-name="six.dnom" horiz-adv-x="610" 
d="M137 446l162 220h98l-166 -215q33 16 78 16q103 0 171.5 -66.5t68.5 -167.5q0 -103 -70.5 -173t-171.5 -70q-103 0 -174.5 71t-71.5 172q0 63 16.5 109.5t59.5 103.5zM143 233q0 -73 46 -119t118 -46q70 0 115 46.5t45 118.5q0 69 -45.5 113.5t-114.5 44.5
q-72 0 -118 -44.5t-46 -113.5z" />
    <glyph glyph-name="seven.dnom" horiz-adv-x="505" 
d="M397 586h-374v80h460v-80l-266 -586h-88z" />
    <glyph glyph-name="eight.dnom" horiz-adv-x="581" 
d="M55 180q0 61 34 107.5t93 66.5q-47 21 -73.5 59.5t-26.5 90.5q0 78 59 125t150 47q92 0 150.5 -46t58.5 -126q0 -52 -27.5 -91.5t-75.5 -58.5q61 -18 95 -65.5t34 -108.5q0 -87 -65.5 -138.5t-169.5 -51.5t-170 51.5t-66 138.5zM158 498q0 -49 35 -79t98 -30
q61 0 97 29.5t36 79.5t-37 77t-96 27t-96 -27t-37 -77zM139 190q0 -59 43 -91.5t109 -32.5q67 0 109 33t42 91t-42.5 89.5t-108.5 31.5t-109 -31.5t-43 -89.5z" />
    <glyph glyph-name="nine.dnom" horiz-adv-x="610" 
d="M473 219l-162 -219h-98l166 215q-33 -16 -78 -16q-103 0 -171.5 66t-68.5 167q0 103 70.5 173.5t171.5 70.5q103 0 174.5 -71.5t71.5 -172.5q0 -63 -16.5 -109.5t-59.5 -103.5zM467 432q0 73 -46 119.5t-118 46.5q-70 0 -115 -47t-45 -119q0 -69 45.5 -113.5t114.5 -44.5
q72 0 118 44.5t46 113.5z" />
    <glyph glyph-name="zero.numr" horiz-adv-x="692" 
d="M57 1122q0 154 78.5 248t208.5 94q134 0 212.5 -96t78.5 -250t-78.5 -248t-210.5 -94q-134 0 -211.5 96t-77.5 250zM139 1120q0 -120 55.5 -193t149.5 -73q97 0 152 73.5t55 192.5q0 121 -55.5 195t-151.5 74q-94 0 -149.5 -74.5t-55.5 -194.5z" />
    <glyph glyph-name="one.numr" horiz-adv-x="368" 
d="M197 1378h-152v76h234v-666h-82v590z" />
    <glyph glyph-name="two.numr" horiz-adv-x="555" 
d="M510 788h-455v58l215 176q79 67 110.5 116t31.5 107q0 66 -38 105t-104 39q-64 0 -102.5 -38.5t-38.5 -103.5h-84q0 97 63 157t164 60q102 0 164 -59.5t62 -157.5q0 -75 -39 -136.5t-137 -143.5l-125 -103h313v-76z" />
    <glyph glyph-name="three.numr" horiz-adv-x="546" 
d="M45 995h84q0 -65 39 -103t106 -38t105.5 34.5t38.5 94.5q0 73 -49 112.5t-140 39.5h-41v57l195 184h-305v78h409v-80l-186 -174q89 -6 145 -63.5t56 -143.5q0 -100 -62 -158.5t-168 -58.5q-101 0 -164 61t-63 158z" />
    <glyph glyph-name="four.numr" horiz-adv-x="595" 
d="M381 926h-348v75l329 453h99v-453h82v-75h-82v-138h-80v138zM123 1001h258v355z" />
    <glyph glyph-name="five.numr" horiz-adv-x="573" 
d="M287 778q-103 0 -170.5 64.5t-67.5 163.5h84q0 -67 42.5 -108.5t111.5 -41.5t111 43t42 111q0 67 -41 110t-112 43q-84 0 -137 -63l-78 14l84 340h333v-78h-272l-47 -182q50 41 127 41q103 0 165 -64.5t62 -160.5q0 -100 -66.5 -166t-170.5 -66z" />
    <glyph glyph-name="six.numr" horiz-adv-x="610" 
d="M137 1235l162 219h98l-166 -215q33 16 78 16q103 0 171.5 -66t68.5 -167q0 -103 -70.5 -173.5t-171.5 -70.5q-103 0 -174.5 71.5t-71.5 172.5q0 63 16.5 109.5t59.5 103.5zM143 1022q0 -73 46 -119.5t118 -46.5q70 0 115 47t45 119q0 69 -45.5 113.5t-114.5 44.5
q-72 0 -118 -44.5t-46 -113.5z" />
    <glyph glyph-name="seven.numr" horiz-adv-x="505" 
d="M397 1374h-374v80h460v-80l-266 -586h-88z" />
    <glyph glyph-name="eight.numr" horiz-adv-x="581" 
d="M55 969q0 61 34 107.5t93 66.5q-47 21 -73.5 59.5t-26.5 89.5q0 78 59 125t150 47q92 0 150.5 -46t58.5 -126q0 -52 -27.5 -91t-75.5 -58q61 -18 95 -65.5t34 -108.5q0 -87 -65.5 -139t-169.5 -52t-170 52t-66 139zM158 1286q0 -49 35 -78.5t98 -29.5q61 0 97 29t36 79
t-37 77.5t-96 27.5t-96 -27.5t-37 -77.5zM139 979q0 -59 43 -92t109 -33t108.5 33.5t42.5 91.5t-42.5 89.5t-108.5 31.5t-109 -31.5t-43 -89.5z" />
    <glyph glyph-name="nine.numr" horiz-adv-x="610" 
d="M473 1008l-162 -220h-98l166 216q-35 -17 -78 -17q-103 0 -171.5 66.5t-68.5 167.5q0 103 70.5 173t171.5 70q103 0 174.5 -71t71.5 -172q0 -63 -16.5 -109.5t-59.5 -103.5zM467 1221q0 73 -46 119t-118 46q-70 0 -115 -46.5t-45 -118.5q0 -69 45.5 -113.5t114.5 -44.5
q72 0 118 44.5t46 113.5z" />
    <glyph glyph-name="registered.ss01" horiz-adv-x="1226" 
d="M614 428q-146 0 -268.5 69.5t-193 190.5t-70.5 266q0 109 41.5 206.5t112.5 168t169.5 111.5t208.5 41q146 0 268 -70t192.5 -191.5t70.5 -265.5t-70.5 -265t-192.5 -191t-268 -70zM614 500q193 0 325 131t132 323t-132 323.5t-325 131.5q-196 0 -326 -130t-130 -325
t130 -324.5t326 -129.5zM516 684h-76v541h195q83 0 134.5 -46t51.5 -118q0 -110 -102 -152l117 -225h-86l-105 205h-129v-205zM743 1057q0 44 -29 69t-81 25h-117v-188h117q51 0 80.5 25.5t29.5 68.5z" />
    <glyph glyph-name="bracketleftsuperior" horiz-adv-x="425" 
d="M188 563h228v-82h-314v1280h314v-82h-228v-1116z" />
    <glyph glyph-name="bracketrightsuperior" horiz-adv-x="425" 
d="M238 1679h-228v82h314v-1280h-314v82h228v1116z" />
    <glyph glyph-name="Gbreve.ss01" horiz-adv-x="1533" 
d="M864 1788h86q0 -104 -59.5 -164.5t-161.5 -60.5t-161.5 60.5t-59.5 164.5h86q0 -67 34 -103t101 -36t101 36t34 103zM92 717q0 342 192 552t504 210q230 0 396.5 -111t228.5 -321h-108q-61 168 -196.5 252.5t-320.5 84.5q-272 0 -433.5 -181.5t-161.5 -485.5
q0 -298 160 -471.5t429 -173.5q249 0 397 153t154 437h-598v90h697v-88q0 -212 -82.5 -368.5t-228.5 -237.5t-339 -81q-308 0 -499 200t-191 540z" />
    <glyph glyph-name="Gcircumflex.ss01" horiz-adv-x="1533" 
d="M610 1569h-98l143 219h146l143 -219h-98l-117 172zM92 717q0 342 192 552t504 210q230 0 396.5 -111t228.5 -321h-108q-61 168 -196.5 252.5t-320.5 84.5q-272 0 -433.5 -181.5t-161.5 -485.5q0 -298 160 -471.5t429 -173.5q249 0 397 153t154 437h-598v90h697v-88
q0 -212 -82.5 -368.5t-228.5 -237.5t-339 -81q-308 0 -499 200t-191 540z" />
    <glyph glyph-name="Gcommaaccent.ss01" horiz-adv-x="1533" 
d="M92 717q0 342 192 552t504 210q230 0 396.5 -111t228.5 -321h-108q-61 168 -196.5 252.5t-320.5 84.5q-272 0 -433.5 -181.5t-161.5 -485.5q0 -298 160 -471.5t429 -173.5q249 0 397 153t154 437h-598v90h697v-88q0 -212 -82.5 -368.5t-228.5 -237.5t-339 -81
q-308 0 -499 200t-191 540zM866 -190q0 -83 -48 -132t-101 -51v51q36 1 59 26t23 58q-8 -4 -25 -4q-33 0 -57.5 22.5t-24.5 55.5q0 37 24 62.5t58 25.5q42 0 67 -29t25 -85z" />
    <glyph glyph-name="Gdotaccent.ss01" horiz-adv-x="1533" 
d="M729 1616q-35 0 -60.5 25t-25.5 59q0 35 25.5 61.5t60.5 26.5q34 0 60 -26.5t26 -61.5q0 -34 -26 -59t-60 -25zM92 717q0 342 192 552t504 210q230 0 396.5 -111t228.5 -321h-108q-61 168 -196.5 252.5t-320.5 84.5q-272 0 -433.5 -181.5t-161.5 -485.5
q0 -298 160 -471.5t429 -173.5q249 0 397 153t154 437h-598v90h697v-88q0 -212 -82.5 -368.5t-228.5 -237.5t-339 -81q-308 0 -499 200t-191 540z" />
    <glyph glyph-name="Q.ss04" horiz-adv-x="1558" 
d="M1335 -270l-544 245h-13q-199 0 -355.5 95.5t-243.5 267.5t-87 389t87.5 389t244 267.5t354.5 95.5q199 0 356 -95.5t244.5 -267.5t87.5 -389q0 -276 -137.5 -472.5t-367.5 -256.5l411 -184zM1366 727q0 191 -74.5 341t-208.5 233t-305 83q-258 0 -421.5 -183.5
t-163.5 -473.5t163.5 -473.5t421.5 -183.5q171 0 305 83t208.5 233t74.5 341z" />
    <glyph glyph-name="aacute.ss01" horiz-adv-x="1173" 
d="M750 1337l-138 -217h-86l111 217h113zM938 983h80v-983h-84l-14 221q-54 -123 -154 -184.5t-231 -61.5q-141 0 -245 69t-156 185t-52 263q0 146 54 262.5t160 185t247 68.5q129 0 230.5 -62t152.5 -192zM913 492q0 193 -95.5 311.5t-268.5 118.5q-172 0 -271.5 -119.5
t-99.5 -310.5q0 -192 98 -311.5t269 -119.5q173 0 270.5 119.5t97.5 311.5z" />
    <glyph glyph-name="abreve.ss01" horiz-adv-x="1173" 
d="M698 1339h86q0 -104 -59.5 -164.5t-161.5 -60.5t-161.5 60.5t-59.5 164.5h86q0 -67 34 -103t101 -36t101 36t34 103zM938 983h80v-983h-84l-14 221q-54 -123 -154 -184.5t-231 -61.5q-141 0 -245 69t-156 185t-52 263q0 146 54 262.5t160 185t247 68.5q129 0 230.5 -62
t152.5 -192zM913 492q0 193 -95.5 311.5t-268.5 118.5q-172 0 -271.5 -119.5t-99.5 -310.5q0 -192 98 -311.5t269 -119.5q173 0 270.5 119.5t97.5 311.5z" />
    <glyph glyph-name="acircumflex.ss01" horiz-adv-x="1173" 
d="M444 1120h-98l143 219h146l143 -219h-98l-117 172zM938 983h80v-983h-84l-14 221q-54 -123 -154 -184.5t-231 -61.5q-141 0 -245 69t-156 185t-52 263q0 146 54 262.5t160 185t247 68.5q129 0 230.5 -62t152.5 -192zM913 492q0 193 -95.5 311.5t-268.5 118.5
q-172 0 -271.5 -119.5t-99.5 -310.5q0 -192 98 -311.5t269 -119.5q173 0 270.5 119.5t97.5 311.5z" />
    <glyph glyph-name="adieresis.ss01" horiz-adv-x="1173" 
d="M428 1167q-35 0 -60.5 25t-25.5 59q0 35 25.5 61.5t60.5 26.5q34 0 60 -26.5t26 -61.5q0 -34 -26 -59t-60 -25zM698 1167q-35 0 -60.5 25t-25.5 59q0 35 25.5 61.5t60.5 26.5q34 0 60 -26.5t26 -61.5q0 -34 -26 -59t-60 -25zM938 983h80v-983h-84l-14 221
q-54 -123 -154 -184.5t-231 -61.5q-141 0 -245 69t-156 185t-52 263q0 146 54 262.5t160 185t247 68.5q129 0 230.5 -62t152.5 -192zM913 492q0 193 -95.5 311.5t-268.5 118.5q-172 0 -271.5 -119.5t-99.5 -310.5q0 -192 98 -311.5t269 -119.5q173 0 270.5 119.5t97.5 311.5
z" />
    <glyph glyph-name="agrave.ss01" horiz-adv-x="1173" 
d="M600 1120h-86l-133 219h113zM938 983h80v-983h-84l-14 221q-54 -123 -154 -184.5t-231 -61.5q-141 0 -245 69t-156 185t-52 263q0 146 54 262.5t160 185t247 68.5q129 0 230.5 -62t152.5 -192zM913 492q0 193 -95.5 311.5t-268.5 118.5q-172 0 -271.5 -119.5
t-99.5 -310.5q0 -192 98 -311.5t269 -119.5q173 0 270.5 119.5t97.5 311.5z" />
    <glyph glyph-name="amacron.ss01" horiz-adv-x="1173" 
d="M342 1249v86h442v-86h-442zM938 983h80v-983h-84l-14 221q-54 -123 -154 -184.5t-231 -61.5q-141 0 -245 69t-156 185t-52 263q0 146 54 262.5t160 185t247 68.5q129 0 230.5 -62t152.5 -192zM913 492q0 193 -95.5 311.5t-268.5 118.5q-172 0 -271.5 -119.5t-99.5 -310.5
q0 -192 98 -311.5t269 -119.5q173 0 270.5 119.5t97.5 311.5z" />
    <glyph glyph-name="aogonek.ss01" horiz-adv-x="1173" 
d="M942 0h-8l-14 221q-54 -123 -154 -184.5t-231 -61.5q-141 0 -245 69t-156 185t-52 263q0 146 54 262.5t160 185t247 68.5q129 0 230.5 -62t152.5 -192l12 229h80v-983q-51 -24 -78 -58.5t-27 -68.5q0 -59 68 -59q16 0 37 6v-84q-24 -8 -62 -8q-57 0 -92 33t-35 87
q0 44 29.5 84t83.5 68zM913 492q0 193 -95.5 311.5t-268.5 118.5q-172 0 -271.5 -119.5t-99.5 -310.5q0 -192 98 -311.5t269 -119.5q173 0 270.5 119.5t97.5 311.5z" />
    <glyph glyph-name="aring.ss01" horiz-adv-x="1173" 
d="M563 1122q-89 0 -146 58t-57 147q0 87 58 145t145 58q86 0 144.5 -58.5t58.5 -144.5t-58.5 -145.5t-144.5 -59.5zM563 1202q52 0 84.5 34.5t32.5 90.5q0 54 -33 89.5t-84 35.5t-84 -35t-33 -90q0 -56 32.5 -90.5t84.5 -34.5zM938 983h80v-983h-84l-14 221
q-54 -123 -154 -184.5t-231 -61.5q-141 0 -245 69t-156 185t-52 263q0 146 54 262.5t160 185t247 68.5q129 0 230.5 -62t152.5 -192zM913 492q0 193 -95.5 311.5t-268.5 118.5q-172 0 -271.5 -119.5t-99.5 -310.5q0 -192 98 -311.5t269 -119.5q173 0 270.5 119.5t97.5 311.5
z" />
    <glyph glyph-name="aringacute.ss01" horiz-adv-x="1173" 
d="M725 1585l-137 -217h-86l110 217h113zM938 983h80v-983h-84l-14 221q-54 -123 -154 -184.5t-231 -61.5q-141 0 -245 69t-156 185t-52 263q0 183 84.5 316.5t234.5 178.5q-55 58 -55 146q0 87 58 144.5t145 57.5q86 0 144.5 -58t58.5 -144q0 -89 -62 -148
q169 -59 236 -231zM549 1008q52 0 84.5 34.5t32.5 90.5q0 54 -33 89t-84 35t-84 -34.5t-33 -89.5q0 -56 32.5 -90.5t84.5 -34.5zM913 492q0 193 -95.5 311.5t-268.5 118.5q-172 0 -271.5 -119.5t-99.5 -310.5q0 -192 98 -311.5t269 -119.5q173 0 270.5 119.5t97.5 311.5z
" />
    <glyph glyph-name="atilde.ss01" horiz-adv-x="1173" 
d="M387 1161h-82q-3 89 32.5 139t100.5 50q34 0 67.5 -16.5t56 -37t52 -37t56.5 -16.5q35 0 51 25.5t16 81.5h82q0 -91 -37 -140t-110 -49q-37 0 -71 16.5t-55 37t-47 37t-48 16.5q-30 0 -47 -27.5t-17 -79.5zM938 983h80v-983h-84l-14 221q-54 -123 -154 -184.5t-231 -61.5
q-141 0 -245 69t-156 185t-52 263q0 146 54 262.5t160 185t247 68.5q129 0 230.5 -62t152.5 -192zM913 492q0 193 -95.5 311.5t-268.5 118.5q-172 0 -271.5 -119.5t-99.5 -310.5q0 -192 98 -311.5t269 -119.5q173 0 270.5 119.5t97.5 311.5z" />
    <glyph glyph-name="gbreve.ss02" horiz-adv-x="1062" 
d="M678 1315h86q0 -104 -59.5 -164.5t-161.5 -60.5t-161.5 60.5t-59.5 164.5h86q0 -67 34 -103t101 -36t101 36t34 103zM129 627q0 166 114 273.5t289 107.5q145 0 238 -68q59 109 191 109q24 0 34 -2v-95q-23 4 -47 4q-84 0 -131 -59q55 -48 88 -121t33 -149
q0 -163 -114 -269t-289 -106q-114 0 -199 43q-56 -3 -87.5 -28t-31.5 -68q0 -93 141 -93h351q149 0 231 -62.5t82 -176.5q0 -141 -133.5 -224t-360.5 -83q-225 0 -335.5 66.5t-110.5 201.5q0 68 41.5 124t109.5 83q-102 31 -102 139q0 59 35.5 103t99.5 61
q-137 108 -137 289zM219 625q0 -130 87.5 -210.5t228.5 -80.5q140 0 226.5 80.5t86.5 210.5q0 133 -87.5 217t-225.5 84t-227 -84.5t-89 -216.5zM168 -160q0 -101 86 -147.5t274 -46.5q196 0 298 56t102 163q0 80 -53.5 117.5t-165.5 37.5h-306q-114 0 -174.5 -46
t-60.5 -134z" />
    <glyph glyph-name="gcircumflex.ss02" horiz-adv-x="1062" 
d="M424 1096h-98l143 219h145l144 -219h-99l-116 172zM129 627q0 166 114 273.5t289 107.5q145 0 238 -68q59 109 191 109q24 0 34 -2v-95q-23 4 -47 4q-84 0 -131 -59q55 -48 88 -121t33 -149q0 -163 -114 -269t-289 -106q-114 0 -199 43q-56 -3 -87.5 -28t-31.5 -68
q0 -93 141 -93h351q149 0 231 -62.5t82 -176.5q0 -141 -133.5 -224t-360.5 -83q-225 0 -335.5 66.5t-110.5 201.5q0 68 41.5 124t109.5 83q-102 31 -102 139q0 59 35.5 103t99.5 61q-137 108 -137 289zM219 625q0 -130 87.5 -210.5t228.5 -80.5q140 0 226.5 80.5t86.5 210.5
q0 133 -87.5 217t-225.5 84t-227 -84.5t-89 -216.5zM168 -160q0 -101 86 -147.5t274 -46.5q196 0 298 56t102 163q0 80 -53.5 117.5t-165.5 37.5h-306q-114 0 -174.5 -46t-60.5 -134z" />
    <glyph glyph-name="gcommaaccent.ss02" horiz-adv-x="1062" 
d="M625 1155q0 -37 -24 -62.5t-58 -25.5q-42 0 -67 29.5t-25 85.5q0 83 48 131.5t101 50.5v-51q-36 -1 -59 -26t-23 -58q8 4 25 4q33 0 57.5 -22.5t24.5 -55.5zM129 627q0 166 114 273.5t289 107.5q145 0 238 -68q59 109 191 109q24 0 34 -2v-95q-23 4 -47 4q-84 0 -131 -59
q55 -48 88 -121t33 -149q0 -163 -114 -269t-289 -106q-114 0 -199 43q-56 -3 -87.5 -28t-31.5 -68q0 -93 141 -93h351q149 0 231 -62.5t82 -176.5q0 -141 -133.5 -224t-360.5 -83q-225 0 -335.5 66.5t-110.5 201.5q0 68 41.5 124t109.5 83q-102 31 -102 139q0 59 35.5 103
t99.5 61q-137 108 -137 289zM219 625q0 -130 87.5 -210.5t228.5 -80.5q140 0 226.5 80.5t86.5 210.5q0 133 -87.5 217t-225.5 84t-227 -84.5t-89 -216.5zM168 -160q0 -101 86 -147.5t274 -46.5q196 0 298 56t102 163q0 80 -53.5 117.5t-165.5 37.5h-306q-114 0 -174.5 -46
t-60.5 -134z" />
    <glyph glyph-name="gdotaccent.ss02" horiz-adv-x="1062" 
d="M543 1143q-35 0 -60.5 25t-25.5 59q0 35 25.5 61.5t60.5 26.5q34 0 60 -26.5t26 -61.5q0 -34 -26 -59t-60 -25zM129 627q0 166 114 273.5t289 107.5q145 0 238 -68q59 109 191 109q24 0 34 -2v-95q-23 4 -47 4q-84 0 -131 -59q55 -48 88 -121t33 -149q0 -163 -114 -269
t-289 -106q-114 0 -199 43q-56 -3 -87.5 -28t-31.5 -68q0 -93 141 -93h351q149 0 231 -62.5t82 -176.5q0 -141 -133.5 -224t-360.5 -83q-225 0 -335.5 66.5t-110.5 201.5q0 68 41.5 124t109.5 83q-102 31 -102 139q0 59 35.5 103t99.5 61q-137 108 -137 289zM219 625
q0 -130 87.5 -210.5t228.5 -80.5q140 0 226.5 80.5t86.5 210.5q0 133 -87.5 217t-225.5 84t-227 -84.5t-89 -216.5zM168 -160q0 -101 86 -147.5t274 -46.5q196 0 298 56t102 163q0 80 -53.5 117.5t-165.5 37.5h-306q-114 0 -174.5 -46t-60.5 -134z" />
    <glyph glyph-name="tbar.ss03" horiz-adv-x="573" 
d="M516 84l14 -84q-67 -20 -122 -20q-106 0 -158.5 65.5t-52.5 173.5v307h-123v78h123v297h-156v82h156v311h94v-311h241v-82h-241v-297h164v-78h-164v-311q0 -74 36 -111.5t97 -37.5q43 0 92 18z" />
    <glyph glyph-name="tcaron.ss03" horiz-adv-x="624" 
d="M408 1157v297h100l-27 -297h-73zM516 84l14 -84q-67 -20 -122 -20q-106 0 -158.5 65.5t-52.5 173.5v682h-156v82h156v311h94v-311h241v-82h-241v-686q0 -74 36 -111.5t97 -37.5q43 0 92 18z" />
    <glyph glyph-name="tcedilla.ss03" horiz-adv-x="624" 
d="M270 -319v73q52 -30 107 -30q38 0 64 16.5t26 48.5q0 33 -21.5 49.5t-58.5 16.5q-39 0 -100 -27l-17 45l56 119q-129 47 -129 227v682h-156v82h156v311h94v-311h241v-82h-241v-686q0 -74 36 -111.5t97 -37.5q43 0 92 18l14 -84q-67 -20 -122 -20h-15l-33 -70q33 10 58 10
q58 0 94.5 -34.5t36.5 -92.5q0 -68 -47.5 -104.5t-114.5 -36.5q-75 0 -117 29z" />
    <glyph glyph-name="tcommaaccent.ss03" horiz-adv-x="624" 
d="M516 84l14 -84q-67 -20 -122 -20q-106 0 -158.5 65.5t-52.5 173.5v682h-156v82h156v311h94v-311h241v-82h-241v-686q0 -74 36 -111.5t97 -37.5q43 0 92 18zM451 -190q0 -83 -48.5 -132t-101.5 -51v51q36 1 59 26t23 58q-8 -4 -25 -4q-33 0 -57.5 22.5t-24.5 55.5
q0 37 24 62.5t58 25.5q43 0 68 -29.5t25 -84.5z" />
    <glyph glyph-name="caroncomb.alt" horiz-adv-x="1228" 
d="M643 1157v297h100l-26 -297h-74z" />
    <glyph glyph-name="strokeshortcomb.case" horiz-adv-x="643" 
d="M41 682v90h561v-90h-561z" />
    <glyph glyph-name="strokelongcomb.case" horiz-adv-x="1411" 
d="M6 1124v90h1399v-90h-1399z" />
    <glyph glyph-name="slashshortcomb.case" horiz-adv-x="772" 
d="M41 631v100l690 330v-100z" />
    <glyph glyph-name="slashlongcomb.case" horiz-adv-x="974" 
d="M1098 1454l-1118 -1454h-103l1116 1454h105z" />
    <glyph glyph-name="dotaccentcomb.i" horiz-adv-x="380" 
d="M190 1755q-35 0 -60.5 25t-25.5 59q0 35 25.5 61.5t60.5 26.5q34 0 60 -26.5t26 -61.5q0 -34 -26 -59t-60 -25z" />
    </font>
</defs>
</svg>
