<?xml version="1.0" standalone="no"?>
<!DOCTYPE svg PUBLIC "-//W3C//DTD SVG 1.1//EN" "http://www.w3.org/Graphics/SVG/1.1/DTD/svg11.dtd" >
<svg xmlns="http://www.w3.org/2000/svg" xmlns:xlink="http://www.w3.org/1999/xlink" version="1.1">
<metadata>
Created by FontForge 20170731 at Thu Nov  4 06:09:54 2021
 By Aleksey,,,
Copyright 2017-2021 Indian Type Foundry. All rights reserved.
</metadata>
<defs>
<font id="Satoshi-Medium" horiz-adv-x="1351" >
  <font-face 
    font-family="Satoshi Medium"
    font-weight="500"
    font-stretch="normal"
    units-per-em="2048"
    panose-1="0 0 0 0 0 0 0 0 0 0"
    ascent="1638"
    descent="-410"
    x-height="1001"
    cap-height="1481"
    bbox="-418 -477 3291 2163"
    underline-thickness="163"
    underline-position="-562"
    unicode-range="U+0020-FB04"
  />
<missing-glyph horiz-adv-x="1024" 
d="M102 -449v2218h820v-2218h-820zM205 -346h614v2013h-614v-2013z" />
    <glyph glyph-name="f_f" unicode="ff" horiz-adv-x="1284" 
d="M33 1001h147v160q0 176 86 261t232 85q67 0 116 -8v-166h-86q-89 0 -122 -42t-33 -130v-160h444v160q0 176 85.5 261t230.5 85q69 0 118 -8v-166h-86q-89 0 -123 -42t-34 -130v-160h237v-161h-237v-840h-191v840h-444v-840h-193v840h-147v161z" />
    <glyph glyph-name="fi" unicode="fi" horiz-adv-x="1144" 
d="M817 0v840h-444v-840h-193v840h-147v161h147v160q0 176 84 261t223 85q70 0 119 -8v-166h-86q-83 0 -115 -42t-32 -130v-160h637v-1001h-193zM913 1247q-52 0 -87 35t-35 88t35 88t87 35q51 0 86 -35.5t35 -87.5t-35 -87.5t-86 -35.5z" />
    <glyph glyph-name="fl" unicode="fl" horiz-adv-x="1134" 
d="M991 0h-190v840h-428v-840h-193v840h-147v161h147v160q0 176 83 261t222 85q67 0 119 -8v-166h-86q-83 0 -114 -42t-31 -130v-160h428v506h190v-1507z" />
    <glyph glyph-name="f_f_i" unicode="ffi" horiz-adv-x="1779" 
d="M33 1001h147v160q0 176 86 261t232 85q67 0 116 -8v-166h-86q-89 0 -122 -42t-33 -130v-160h444v160q0 176 84 261t223 85q67 0 119 -8v-166h-86q-84 0 -116.5 -42.5t-32.5 -129.5v-160h637v-1001h-191v840h-446v-840h-191v840h-444v-840h-193v840h-147v161zM1548 1262
q-52 0 -86.5 34.5t-34.5 87.5q0 52 34.5 87.5t86.5 35.5t87.5 -36t35.5 -87q0 -52 -35 -87t-88 -35z" />
    <glyph glyph-name="f_f_l" unicode="ffl" horiz-adv-x="1771" 
d="M33 1001h147v160q0 176 86 261t232 85q67 0 116 -8v-166h-86q-89 0 -122 -42t-33 -130v-160h444v160q0 176 85.5 261t230.5 85q69 0 118 -8v-166h-86q-89 0 -123 -42t-34 -130v-160h428v506h192v-1507h-192v840h-428v-840h-191v840h-444v-840h-193v840h-147v161z" />
    <glyph glyph-name="f_t" unicode="ft" horiz-adv-x="1263" 
d="M33 1001h147v160q0 176 84 261t223 85q70 0 119 -8v-166h-86q-83 0 -115 -42t-32 -130v-160h469v314h192v-314h197v-161h-197v-840h-192v840h-469v-840h-193v840h-147v161z" />
    <glyph glyph-name=".notdef" horiz-adv-x="1024" 
d="M102 -449v2218h820v-2218h-820zM205 -346h614v2013h-614v-2013z" />
    <glyph glyph-name=".null" horiz-adv-x="0" 
 />
    <glyph glyph-name="nonmarkingreturn" horiz-adv-x="682" 
 />
    <glyph glyph-name="space" unicode=" " horiz-adv-x="559" 
 />
    <glyph glyph-name="exclam" unicode="!" horiz-adv-x="602" 
d="M375 444h-150q-35 270 -35 693v344h222v-344q0 -412 -37 -693zM301 -29q-61 0 -104 43t-43 103t43 102.5t104 42.5q59 0 102 -42.5t43 -102.5t-43 -103t-102 -43z" />
    <glyph glyph-name="quotedbl" unicode="&#x22;" horiz-adv-x="761" 
d="M319 1356l-49 -424h-110l-54 424q-8 64 26.5 97.5t84.5 33.5q45 0 77.5 -34t24.5 -97zM655 1356l-49 -424h-110l-54 424q-8 64 26.5 97.5t84.5 33.5q45 0 77.5 -34t24.5 -97z" />
    <glyph glyph-name="numbersign" unicode="#" horiz-adv-x="1425" 
d="M127 592h205l57 297h-237l36 180h238l80 412h190l-80 -412h314l80 412h192l-80 -412h211l-35 -180h-213l-57 -297h229l-34 -180h-232l-80 -412h-190l80 412h-316l-79 -412h-191l80 412h-205zM522 592h314l59 297h-315z" />
    <glyph glyph-name="dollar" unicode="$" horiz-adv-x="1181" 
d="M526 -199v176q-204 12 -327.5 121.5t-132.5 288.5h204q3 -98 71 -159.5t185 -73.5v510l-73 16q-367 83 -367 401q0 175 120 290t320 132v178h131v-176q187 -17 298.5 -125t121.5 -286h-198q-6 98 -64 158.5t-158 74.5v-508l80 -18q365 -82 365 -389q0 -182 -120.5 -297.5
t-324.5 -134.5v-179h-131zM494 858l32 -8v477q-114 -15 -178.5 -78.5t-64.5 -161.5q0 -177 211 -229zM696 623l-39 8v-473q116 15 182 78t66 159q0 179 -209 228z" />
    <glyph glyph-name="percent" unicode="%" horiz-adv-x="1908" 
d="M834 1130q0 -164 -105.5 -270t-269.5 -106q-163 0 -268 106t-105 270q0 166 105 272.5t268 106.5q164 0 269.5 -106.5t105.5 -272.5zM1614 1479l-1125 -1479h-196l1124 1479h197zM676 1130q0 100 -60 163t-157 63q-95 0 -155 -63t-60 -163q0 -98 60 -160.5t155 -62.5
t156 62.5t61 160.5zM1825 350q0 -164 -106 -270.5t-269 -106.5t-269 106.5t-106 270.5q0 165 106 271t269 106t269 -106t106 -271zM1665 350q0 100 -59.5 162.5t-155.5 62.5q-95 0 -155 -62.5t-60 -162.5q0 -98 60 -160.5t155 -62.5t155 62.5t60 160.5z" />
    <glyph glyph-name="ampersand" unicode="&#x26;" horiz-adv-x="1447" 
d="M1196 0l-117 133q-180 -160 -458 -160q-238 0 -382.5 113t-144.5 299q0 136 89 248t274 207q-96 110 -135 186.5t-39 159.5q0 140 99 229.5t255 89.5q152 0 247 -85t95 -222q0 -111 -62 -203t-204 -188l354 -404q51 124 51 289h187q0 -250 -113 -430l229 -262h-225z
M465 1188q0 -58 31.5 -115t117.5 -155q185 112 185 276q0 72 -44 114t-120 42q-78 0 -124 -44t-46 -118zM295 399q0 -122 91.5 -191t252.5 -69q206 0 330 121l-416 471q-138 -76 -198 -154t-60 -178z" />
    <glyph glyph-name="quotesingle" unicode="'" horiz-adv-x="425" 
d="M319 1356l-49 -424h-110l-54 424q-8 64 26.5 97.5t84.5 33.5q45 0 77.5 -34t24.5 -97z" />
    <glyph glyph-name="parenleft" unicode="(" horiz-adv-x="571" 
d="M571 -354h-159q-144 181 -229 435t-85 527q0 265 82.5 521t231.5 440h159q-125 -174 -200.5 -428t-75.5 -533q0 -272 73 -527.5t203 -434.5z" />
    <glyph glyph-name="parenright" unicode=")" horiz-adv-x="571" 
d="M162 -354h-162q130 179 203 434.5t73 527.5q0 281 -75 534.5t-201 426.5h162q147 -184 229 -440.5t82 -520.5q0 -273 -84 -527t-227 -435z" />
    <glyph glyph-name="asterisk" unicode="*" horiz-adv-x="841" 
d="M188 1161l-133 47l41 107l127 -43q91 -31 158 -76q-19 81 -19 172v141h115v-141q0 -87 -18 -172q79 50 155 76l129 45l43 -109l-135 -47q-73 -27 -168 -39q65 -56 113 -131l80 -114l-94 -66l-80 113q-51 73 -84 151q-25 -78 -80 -151l-82 -113l-96 66l80 114
q52 73 116 131q-102 13 -168 39z" />
    <glyph glyph-name="plus" unicode="+" 
d="M164 772h430v430h164v-430h430v-164h-430v-432h-164v432h-430v164z" />
    <glyph glyph-name="comma" unicode="," horiz-adv-x="565" 
d="M428 80q0 -110 -73.5 -192.5t-182.5 -96.5v86q63 10 103 48t40 85q-21 -12 -55 -12q-52 0 -88.5 34.5t-36.5 90.5q0 62 38 101.5t99 39.5q66 0 111 -50.5t45 -133.5z" />
    <glyph glyph-name="hyphen" unicode="-" horiz-adv-x="882" 
d="M129 457v172h625v-172h-625z" />
    <glyph glyph-name="period" unicode="." horiz-adv-x="565" 
d="M283 -25q-60 0 -104 43t-44 101q0 60 44 102.5t104 42.5q59 0 102 -42.5t43 -102.5q0 -58 -43 -101t-102 -43z" />
    <glyph glyph-name="slash" unicode="/" horiz-adv-x="770" 
d="M190 0h-190l578 1479h192z" />
    <glyph glyph-name="zero" unicode="0" horiz-adv-x="1419" 
d="M100 739q0 346 166.5 558t444.5 212q183 0 321.5 -96.5t212.5 -271t74 -402.5q0 -349 -162.5 -557.5t-445.5 -208.5q-189 0 -327.5 95.5t-211 268t-72.5 402.5zM299 739q0 -275 109 -430t303 -155t301.5 155t107.5 430q0 278 -107.5 434t-301.5 156q-195 0 -303.5 -156.5
t-108.5 -433.5z" />
    <glyph glyph-name="one" unicode="1" horiz-adv-x="745" 
d="M383 1300h-311v181h503v-1481h-192v1300z" />
    <glyph glyph-name="two" unicode="2" horiz-adv-x="1177" 
d="M1094 2l-1000 -2v154l477 411q181 156 244.5 251.5t63.5 213.5q0 139 -75.5 218t-209.5 79q-137 0 -219.5 -93t-85.5 -251h-201q4 238 143 381t365 143q223 0 355 -126t132 -339q0 -105 -38 -197t-115 -182t-213 -208l-307 -267h684v-186z" />
    <glyph glyph-name="three" unicode="3" horiz-adv-x="1163" 
d="M524 766h-147v133l420 404h-666v178h920v-162l-406 -387q195 -24 318.5 -148.5t123.5 -318.5q0 -221 -148.5 -355.5t-377.5 -134.5q-223 0 -361.5 130t-138.5 356h199q0 -143 82 -224t223 -81q145 0 231.5 85.5t86.5 227.5q0 137 -93 217t-266 80z" />
    <glyph glyph-name="four" unicode="4" horiz-adv-x="1302" 
d="M1204 299h-176v-299h-192v299h-766v178l698 1004h260v-1004h176v-178zM287 477h549v791z" />
    <glyph glyph-name="five" unicode="5" horiz-adv-x="1210" 
d="M598 -25q-227 0 -363.5 133.5t-136.5 354.5h199q0 -142 82 -224.5t223 -82.5q150 0 240 91t90 242q0 146 -88 239t-240 93q-92 0 -173.5 -39t-133.5 -104l-170 43l180 760h742v-185h-596l-99 -393q119 90 287 90q223 0 359.5 -139t136.5 -356q0 -231 -150 -377t-389 -146
z" />
    <glyph glyph-name="six" unicode="6" horiz-adv-x="1251" 
d="M289 1012l346 469h233l-370 -492q79 31 155 31q228 0 371 -146t143 -368q0 -230 -154 -380.5t-384 -150.5t-387.5 153.5t-157.5 377.5q0 130 45 239.5t160 266.5zM289 504q0 -153 95 -250.5t245 -97.5q148 0 242 98t94 250t-94 249t-242 97q-150 0 -245 -96.5t-95 -249.5
z" />
    <glyph glyph-name="seven" unicode="7" horiz-adv-x="1064" 
d="M16 1481h1035v-185l-562 -1296h-208l567 1296h-832v185z" />
    <glyph glyph-name="eight" unicode="8" horiz-adv-x="1280" 
d="M96 412q0 133 72.5 234.5t196.5 146.5q-104 44 -159.5 128t-55.5 197q0 174 136 281.5t357 107.5q218 0 352.5 -108t134.5 -283q0 -114 -56.5 -198t-160.5 -125q125 -40 199 -143.5t74 -239.5q0 -195 -149.5 -315t-395.5 -120q-247 0 -396 120t-149 317zM334 1106
q0 -109 83.5 -174.5t221.5 -65.5q139 0 221 64t82 172q0 106 -82 168.5t-221 62.5q-138 0 -221.5 -62t-83.5 -165zM293 426q0 -124 95 -198t253 -74q157 0 251.5 74t94.5 198q0 123 -94 195.5t-254 72.5q-158 0 -252 -72.5t-94 -195.5z" />
    <glyph glyph-name="nine" unicode="9" horiz-adv-x="1251" 
d="M963 469l-347 -469h-233l371 492q-79 -31 -156 -31q-228 0 -371 146t-143 370q0 151 71 272.5t194 189.5t274 68t276 -69.5t196.5 -192t71.5 -270.5q0 -130 -44.5 -240t-159.5 -266zM963 977q0 153 -95 251.5t-245 98.5q-147 0 -241.5 -98.5t-94.5 -251.5q0 -152 94 -249
t242 -97q150 0 245 96.5t95 249.5z" />
    <glyph glyph-name="colon" unicode=":" horiz-adv-x="606" 
d="M303 743q-60 0 -103.5 42.5t-43.5 99.5q0 60 43.5 102.5t103.5 42.5q59 0 102.5 -42.5t43.5 -102.5q0 -57 -43.5 -99.5t-102.5 -42.5zM303 -25q-60 0 -103.5 42.5t-43.5 101.5q0 60 43.5 102.5t103.5 42.5q59 0 102.5 -42.5t43.5 -102.5q0 -58 -43.5 -101t-102.5 -43z
" />
    <glyph glyph-name="semicolon" unicode=";" horiz-adv-x="606" 
d="M303 743q-60 0 -103.5 42.5t-43.5 99.5q0 60 43.5 102.5t103.5 42.5q59 0 102.5 -42.5t43.5 -102.5q0 -57 -43.5 -99.5t-102.5 -42.5zM449 80q0 -110 -73.5 -192.5t-182.5 -96.5v86q63 10 103 48t40 85q-21 -12 -55 -12q-52 0 -88.5 34.5t-36.5 90.5q0 62 38 101.5
t99 39.5q66 0 111 -50.5t45 -133.5z" />
    <glyph glyph-name="less" unicode="&#x3c;" 
d="M1188 231v-188l-1024 363v200l1024 363v-189l-826 -274z" />
    <glyph glyph-name="equal" unicode="=" 
d="M164 909h1024v-166h-1024v166zM164 479h1024v-166h-1024v166z" />
    <glyph glyph-name="greater" unicode="&#x3e;" 
d="M1188 406l-1024 -363v188l825 275l-825 274v189l1024 -363v-200z" />
    <glyph glyph-name="question" unicode="?" horiz-adv-x="1091" 
d="M584 358h-178v52q0 62 17.5 114.5t54 97t68 73.5t83.5 69q37 29 59 47.5t51 48.5t44.5 56t26.5 62t11 75q0 121 -74 197.5t-198 76.5q-121 0 -202 -84.5t-81 -210.5h-198q0 204 139 339.5t346 135.5q216 0 343.5 -123t127.5 -321q0 -62 -16.5 -117.5t-38.5 -93t-62 -78
t-67.5 -62.5t-73.5 -55q-94 -67 -138 -121t-44 -126v-52zM504 -29q-61 0 -104.5 43t-43.5 103t43.5 102.5t104.5 42.5q58 0 101.5 -43t43.5 -102t-43.5 -102.5t-101.5 -43.5z" />
    <glyph glyph-name="at" unicode="@" horiz-adv-x="1892" 
d="M530 455q0 124 90 201t254 89l289 23v27q0 206 -217 206q-110 0 -170.5 -45.5t-60.5 -128.5h-156q0 143 107.5 229.5t285.5 86.5q183 0 284 -96t101 -271v-356q0 -119 117 -119q94 0 152.5 106.5t58.5 278.5q0 201 -91 359t-254.5 246.5t-369.5 88.5q-202 0 -368 -96
t-260.5 -263.5t-94.5 -371.5q0 -155 55.5 -292t151 -234.5t230 -154t286.5 -56.5q248 0 447 151l65 -110q-219 -168 -512 -168q-181 0 -340.5 66t-273.5 180t-180 275t-66 343q0 180 66.5 339t180.5 273t273.5 180t339.5 66q183 0 341.5 -61.5t270.5 -169.5t176 -261
t64 -329q0 -226 -102 -367t-266 -141q-106 0 -170.5 46t-79.5 134q-37 -83 -126.5 -131.5t-205.5 -48.5q-149 0 -235.5 74.5t-86.5 202.5zM709 461q0 -70 47.5 -107t138.5 -37q126 0 198 74.5t72 204.5v47l-235 -20q-221 -17 -221 -162z" />
    <glyph glyph-name="A" unicode="A" horiz-adv-x="1355" 
d="M233 0h-208l540 1481h223l543 -1481h-211l-133 369h-622zM651 1161l-225 -618h502l-228 618q-18 53 -24 86q-4 -22 -25 -86z" />
    <glyph glyph-name="B" unicode="B" horiz-adv-x="1308" 
d="M172 0v1481h565q217 0 341 -104t124 -287q0 -255 -221 -347q248 -80 248 -348q0 -184 -125.5 -289.5t-345.5 -105.5h-586zM725 1303h-352v-476h364q124 0 192 64t68 180q0 111 -71 171.5t-201 60.5zM754 653h-381v-475h381q129 0 198.5 63t69.5 179q0 110 -70.5 171.5
t-197.5 61.5z" />
    <glyph glyph-name="C" unicode="C" horiz-adv-x="1521" 
d="M786 -23q-209 0 -368.5 94.5t-246.5 267.5t-87 400q0 342 197.5 554t515.5 212q251 0 427.5 -137t217.5 -364h-215q-41 144 -157.5 226.5t-278.5 82.5q-224 0 -360 -156.5t-136 -415.5t135.5 -415t360.5 -156q162 0 282.5 81t161.5 218h213q-47 -221 -229.5 -356.5
t-432.5 -135.5z" />
    <glyph glyph-name="D" unicode="D" horiz-adv-x="1478" 
d="M662 0h-490v1481h481q331 0 536.5 -205.5t205.5 -536.5q0 -330 -202.5 -534.5t-530.5 -204.5zM639 1296h-266v-1110h274q248 0 393.5 149t145.5 404q0 258 -147 407.5t-400 149.5z" />
    <glyph glyph-name="E" unicode="E" horiz-adv-x="1193" 
d="M1075 0h-903v1481h903v-185h-702v-462h633v-179h-633v-469h702v-186z" />
    <glyph glyph-name="F" unicode="F" horiz-adv-x="1136" 
d="M954 629h-581v-629h-201v1481h893v-185h-692v-485h581v-182z" />
    <glyph glyph-name="G" unicode="G" horiz-adv-x="1566" 
d="M807 1317q-237 0 -374.5 -160.5t-137.5 -425.5q0 -264 140.5 -414.5t373.5 -150.5q97 0 178 25.5t143.5 76t98 134t35.5 192.5v43h-496v178h684v-817h-168l-14 201q-62 -99 -190 -161.5t-287 -62.5q-208 0 -369 94t-250.5 267t-89.5 399q0 167 52.5 310t147 244.5
t230.5 158.5t297 57q244 0 416 -129t209 -342h-213q-40 137 -152 210t-264 73z" />
    <glyph glyph-name="H" unicode="H" horiz-adv-x="1478" 
d="M373 0h-201v1481h201v-637h733v637h201v-1481h-201v657h-733v-657z" />
    <glyph glyph-name="I" unicode="I" horiz-adv-x="546" 
d="M373 1481v-1481h-201v1481h201z" />
    <glyph glyph-name="J" unicode="J" horiz-adv-x="1083" 
d="M41 412v73h195v-73q0 -113 62 -181.5t181 -68.5q122 0 182 68t60 188v1063h201v-1071q0 -198 -122 -316.5t-321 -118.5q-208 0 -323 120t-115 317z" />
    <glyph glyph-name="K" unicode="K" horiz-adv-x="1316" 
d="M373 1481v-840l659 840h240l-496 -629l504 -852h-233l-404 682l-270 -342v-340h-201v1481h201z" />
    <glyph glyph-name="L" unicode="L" horiz-adv-x="1069" 
d="M373 1481v-1295h651v-186h-852v1481h201z" />
    <glyph glyph-name="M" unicode="M" horiz-adv-x="1761" 
d="M369 0h-197v1481h197l510 -1245l510 1245h200v-1481h-196v586q0 356 12 481l-432 -1067h-189l-430 1063q15 -108 15 -430v-633z" />
    <glyph glyph-name="N" unicode="N" horiz-adv-x="1503" 
d="M373 0h-201v1481h201l757 -1145v1145h201v-1481h-201l-757 1145v-1145z" />
    <glyph glyph-name="O" unicode="O" horiz-adv-x="1591" 
d="M1507 741q0 -223 -90.5 -397.5t-253 -271.5t-370.5 -97q-207 0 -368.5 97t-251 271.5t-89.5 397.5q0 222 90 396.5t252.5 272t368.5 97.5q208 0 370 -97t252 -271.5t90 -397.5zM1296 741q0 258 -137.5 415t-363.5 157t-363 -157t-137 -415t137 -415.5t363 -157.5
q225 0 363 158t138 415z" />
    <glyph glyph-name="P" unicode="P" horiz-adv-x="1280" 
d="M748 528h-375v-528h-201v1481h576q217 0 347 -130t130 -345q0 -209 -131.5 -343.5t-345.5 -134.5zM713 1300h-340v-591h332q147 0 228 80.5t81 218.5q0 139 -79.5 215.5t-221.5 76.5z" />
    <glyph glyph-name="Q" unicode="Q" horiz-adv-x="1591" 
d="M1339 -98l-159 180q-175 -107 -387 -107q-207 0 -368.5 97t-251 271.5t-89.5 397.5q0 222 90 396.5t252.5 272t368.5 97.5q208 0 370 -97t252 -271.5t90 -397.5q0 -330 -192 -544l155 -177zM1296 741q0 258 -137.5 415t-363.5 157t-363 -157t-137 -415t137 -415.5
t363 -157.5q140 0 249 65l-194 220l131 118l197 -221q118 152 118 391z" />
    <glyph glyph-name="R" unicode="R" horiz-adv-x="1339" 
d="M373 0h-201v1481h559q237 0 371.5 -118.5t134.5 -326.5q0 -154 -74.5 -260.5t-212.5 -150.5l301 -625h-223l-276 586h-379v-586zM373 1300v-536h360q139 0 216 71t77 199t-78 197t-217 69h-358z" />
    <glyph glyph-name="S" unicode="S" horiz-adv-x="1181" 
d="M86 1081q0 191 140.5 308.5t369.5 117.5q212 0 340.5 -110.5t140.5 -302.5h-203q-7 110 -81 171.5t-199 61.5q-139 0 -223 -65.5t-84 -174.5q0 -174 207 -223l243 -57q365 -83 365 -395q0 -199 -142.5 -318t-379.5 -119q-226 0 -365.5 111t-148.5 301h204
q3 -106 87 -168.5t223 -62.5q148 0 234.5 64.5t86.5 174.5q0 175 -205 223l-243 56q-181 41 -274 144t-93 263z" />
    <glyph glyph-name="T" unicode="T" horiz-adv-x="1150" 
d="M29 1296v185h1091v-185h-444v-1296h-201v1296h-446z" />
    <glyph glyph-name="U" unicode="U" horiz-adv-x="1456" 
d="M162 526v955h200v-942q0 -178 95 -273.5t272 -95.5q175 0 269 96t94 273v942h202v-955q0 -255 -152 -403t-413 -148q-263 0 -415 147.5t-152 403.5z" />
    <glyph glyph-name="V" unicode="V" horiz-adv-x="1370" 
d="M584 0l-564 1481h216l360 -946q49 -124 92 -279q47 156 94 281l359 944h209l-557 -1481h-209z" />
    <glyph glyph-name="W" unicode="W" horiz-adv-x="2058" 
d="M471 0l-440 1481h209l270 -906q44 -171 61 -268q22 106 70 268l281 906h217l278 -906q37 -118 68 -268q30 151 65 266l273 908h205l-447 -1481h-192l-359 1171l-362 -1171h-197z" />
    <glyph glyph-name="X" unicode="X" horiz-adv-x="1320" 
d="M541 739l-506 742h239l232 -330q91 -133 158 -260l391 590h231l-495 -740l501 -741h-237l-228 326q-80 118 -161 260l-398 -586h-235z" />
    <glyph glyph-name="Y" unicode="Y" horiz-adv-x="1241" 
d="M522 602l-502 879h226l329 -592q26 -45 50 -98q38 77 49 98l327 592h220l-498 -879v-602h-201v602z" />
    <glyph glyph-name="Z" unicode="Z" horiz-adv-x="1193" 
d="M1120 0h-1046v186l794 1110h-782v185h1032v-181l-801 -1114h803v-186z" />
    <glyph glyph-name="bracketleft" unicode="[" horiz-adv-x="571" 
d="M297 -2h264v-152h-440v1805h440v-154h-264v-1499z" />
    <glyph glyph-name="backslash" unicode="\" horiz-adv-x="770" 
d="M193 1479l577 -1479h-190l-580 1479h193z" />
    <glyph glyph-name="bracketright" unicode="]" horiz-adv-x="571" 
d="M10 -154v152h264v1499h-264v154h441v-1805h-441z" />
    <glyph glyph-name="asciicircum" unicode="^" horiz-adv-x="1024" 
d="M315 819h-170l273 662h188l273 -662h-170l-197 492z" />
    <glyph glyph-name="underscore" unicode="_" horiz-adv-x="1085" 
d="M123 -188v151h840v-151h-840z" />
    <glyph glyph-name="grave" unicode="`" horiz-adv-x="501" 
d="M414 1573h-148l-176 272h189z" />
    <glyph glyph-name="a" unicode="a" horiz-adv-x="1093" 
d="M432 -25q-159 0 -250.5 83t-91.5 221t98 220.5t275 96.5l315 25v28q0 120 -63 174t-172 54q-121 0 -187.5 -51t-66.5 -142h-168q0 156 118 251t312 95q192 0 304 -102t112 -299v-629h-164l-21 162q-38 -86 -133 -136.5t-217 -50.5zM487 125q136 0 214.5 83t78.5 224v53
l-256 -20q-239 -22 -239 -180q0 -78 53.5 -119t148.5 -41z" />
    <glyph glyph-name="b" unicode="b" horiz-adv-x="1228" 
d="M313 0h-174v1507h193v-678q49 97 144.5 149t219.5 52q211 0 335 -149t124 -385q0 -231 -128 -376t-343 -145q-121 0 -214 53t-142 154zM334 504q0 -159 84.5 -256.5t230.5 -97.5q145 0 229.5 98t84.5 256q0 157 -84.5 254.5t-229.5 97.5t-230 -97.5t-85 -254.5z" />
    <glyph glyph-name="c" unicode="c" horiz-adv-x="1093" 
d="M74 500q0 235 136 382.5t355 147.5q188 0 312.5 -99t150.5 -267h-192q-24 93 -95 143.5t-170 50.5q-137 0 -222 -97t-85 -259q0 -161 81.5 -258t217.5 -97q103 0 176 51t99 140h192q-29 -163 -157.5 -263t-309.5 -100q-221 0 -355 144t-134 381z" />
    <glyph glyph-name="d" unicode="d" horiz-adv-x="1228" 
d="M541 -25q-215 0 -341 145t-126 378q0 235 128 383.5t347 148.5q116 0 207.5 -49t142.5 -141v667h191v-1507h-172l-17 182q-49 -101 -143.5 -154t-216.5 -53zM580 150q146 0 231.5 97.5t85.5 256.5q0 156 -85.5 254t-231.5 98q-145 0 -228.5 -97.5t-83.5 -254.5
q0 -158 83.5 -256t228.5 -98z" />
    <glyph glyph-name="e" unicode="e" horiz-adv-x="1110" 
d="M571 -25q-221 0 -359 146t-138 379q0 235 135.5 382.5t353.5 147.5q214 0 342.5 -135t128.5 -358v-72l-774 -2q11 -159 92 -243.5t223 -84.5q230 0 281 176h180q-37 -161 -158 -248.5t-307 -87.5zM563 868q-126 0 -203 -72t-96 -204h578q0 125 -76 200.5t-203 75.5z" />
    <glyph glyph-name="f" unicode="f" horiz-adv-x="649" 
d="M33 1001h147v160q0 176 86.5 261t231.5 85q66 0 118 -8v-166h-86q-89 0 -123 -42t-34 -130v-160h237v-161h-237v-840h-193v840h-147v161z" />
    <glyph glyph-name="g" unicode="g" horiz-adv-x="1224" 
d="M76 526q0 142 57 256t165.5 181t250.5 67q121 0 211.5 -52t138.5 -147l14 170h172v-960q0 -236 -135.5 -376t-365.5 -140q-204 0 -336 108.5t-160 298.5h193q19 -111 98 -172t205 -61q141 0 226 85.5t85 227.5v201q-50 -88 -143 -137t-211 -49q-139 0 -246 66t-163 179
t-56 254zM268 530q0 -144 83.5 -239.5t221.5 -95.5q144 0 229 92.5t85 242.5q0 148 -83.5 240t-228.5 92q-141 0 -224 -94.5t-83 -237.5z" />
    <glyph glyph-name="h" unicode="h" horiz-adv-x="1177" 
d="M332 2h-193v1505h193v-659q49 84 137.5 133t202.5 49q188 0 283.5 -110.5t95.5 -307.5v-612h-193v569q0 146 -63.5 215.5t-176.5 69.5q-135 0 -210.5 -86.5t-75.5 -220.5v-545z" />
    <glyph glyph-name="i" unicode="i" horiz-adv-x="471" 
d="M233 1239q-53 0 -90 37.5t-37 89.5q0 54 37 90.5t90 36.5t90 -36.5t37 -90.5q0 -52 -37 -89.5t-90 -37.5zM139 0v1001h193v-1001h-193z" />
    <glyph glyph-name="j" unicode="j" horiz-adv-x="471" 
d="M236 1239q-54 0 -90.5 37t-36.5 90q0 54 36.5 90.5t90.5 36.5q52 0 89 -37t37 -90q0 -52 -37.5 -89.5t-88.5 -37.5zM-115 -455l33 174q55 -14 92 -14q68 0 98.5 40t30.5 126v1130h193v-1148q0 -152 -80 -239t-225 -87q-78 0 -142 18z" />
    <glyph glyph-name="k" unicode="k" horiz-adv-x="1040" 
d="M336 0h-193v1507h193v-977l444 471h242l-383 -399l381 -602h-221l-293 463l-170 -178v-285z" />
    <glyph glyph-name="l" unicode="l" horiz-adv-x="479" 
d="M336 0h-193v1507h193v-1507z" />
    <glyph glyph-name="m" unicode="m" horiz-adv-x="1765" 
d="M332 0h-193v1001h172l19 -131q40 73 118 116.5t181 43.5q115 0 196.5 -53.5t120.5 -149.5q35 94 121.5 148.5t202.5 54.5q171 0 269.5 -100.5t98.5 -274.5v-655h-188v608q0 117 -60 182.5t-163 65.5q-109 0 -175.5 -71.5t-66.5 -190.5v-594h-190v610q0 117 -59.5 180.5
t-162.5 63.5q-109 0 -175 -70.5t-66 -189.5v-594z" />
    <glyph glyph-name="n" unicode="n" horiz-adv-x="1177" 
d="M332 0h-193v1001h174l21 -153q47 85 136 133.5t196 48.5q193 0 289 -110t96 -308v-612h-193v569q0 285 -242 285q-133 0 -208.5 -88t-75.5 -236v-530z" />
    <glyph glyph-name="o" unicode="o" horiz-adv-x="1189" 
d="M74 502q0 231 147.5 378.5t374.5 147.5q225 0 372.5 -147.5t147.5 -378.5t-147.5 -379t-372.5 -148q-227 0 -374.5 148t-147.5 379zM268 502q0 -157 91 -256t237 -99q145 0 236.5 99t91.5 256t-91.5 255.5t-236.5 98.5q-146 0 -237 -98.5t-91 -255.5z" />
    <glyph glyph-name="p" unicode="p" horiz-adv-x="1228" 
d="M139 -449v1450h174l15 -180q50 101 145 155t217 54q213 0 339 -144.5t126 -377.5q0 -235 -124 -385t-341 -150q-121 0 -215 49.5t-143 141.5v-613h-193zM334 500q0 -157 85 -255t230 -98t229.5 98t84.5 255q0 158 -84.5 256t-229.5 98q-146 0 -230.5 -97.5t-84.5 -256.5z
" />
    <glyph glyph-name="q" unicode="q" horiz-adv-x="1228" 
d="M74 508q0 233 127 377.5t340 144.5q121 0 216 -54t144 -155l17 180h172v-1450h-191v613q-51 -92 -145 -141.5t-215 -49.5q-216 0 -340.5 150t-124.5 385zM268 500q0 -157 83.5 -255t228.5 -98t231 98.5t86 254.5q0 159 -85.5 256.5t-231.5 97.5q-145 0 -228.5 -98
t-83.5 -256z" />
    <glyph glyph-name="r" unicode="r" horiz-adv-x="753" 
d="M713 1010v-176h-86q-137 0 -216 -80t-79 -224v-530h-193v999h180l13 -151q31 80 104 127t174 47q44 0 103 -12z" />
    <glyph glyph-name="s" unicode="s" horiz-adv-x="917" 
d="M57 291h185q0 -77 54.5 -120.5t149.5 -43.5q101 0 157 39t56 108q0 53 -30.5 84.5t-106.5 51.5l-176 41q-134 32 -198 100t-64 178q0 137 105 219t272 82q164 0 263.5 -85t102.5 -228h-184q-3 76 -52 120t-136 44q-90 0 -139.5 -38.5t-49.5 -107.5q0 -99 148 -137
l176 -43q130 -31 192 -94.5t62 -173.5q0 -142 -111 -227t-291 -85q-176 0 -280.5 86.5t-104.5 229.5z" />
    <glyph glyph-name="t" unicode="t" horiz-adv-x="651" 
d="M422 0h-193v840h-196v161h196v314h193v-314h196v-161h-196v-840z" />
    <glyph glyph-name="u" unicode="u" horiz-adv-x="1161" 
d="M831 1001h191v-1001h-172l-21 152q-43 -79 -135.5 -128t-201.5 -49q-173 0 -269 108.5t-96 295.5v622h192v-559q0 -297 240 -297q132 0 202 83.5t70 244.5v528z" />
    <glyph glyph-name="v" unicode="v" horiz-adv-x="1042" 
d="M420 0l-404 1001h205l219 -559q59 -157 80 -239q17 71 84 239l223 559h201l-418 -1001h-190z" />
    <glyph glyph-name="w" unicode="w" horiz-adv-x="1572" 
d="M354 0l-327 1001h198l166 -520q40 -127 62 -237q19 106 65 237l168 520h197l166 -520q39 -118 65 -237q22 109 64 237l168 520h200l-342 -1001h-182l-174 537q-48 146 -64 233q-14 -67 -65 -235l-174 -535h-191z" />
    <glyph glyph-name="x" unicode="x" horiz-adv-x="987" 
d="M242 0h-222l351 496l-348 505h223l254 -372l248 372h219l-349 -505l343 -496h-224l-250 367z" />
    <glyph glyph-name="y" unicode="y" horiz-adv-x="1019" 
d="M43 -449v158h129q31 0 53.5 2.5t47.5 10.5t43.5 23t36.5 41.5t32 63.5l35 97l-404 1054h203l291 -806l297 806h199l-474 -1226q-51 -128 -128 -186t-193 -58q-83 0 -168 20z" />
    <glyph glyph-name="z" unicode="z" horiz-adv-x="935" 
d="M858 0h-780v156l540 684h-540v161h780v-157l-545 -682h545v-162z" />
    <glyph glyph-name="braceleft" unicode="{" horiz-adv-x="651" 
d="M92 670v157q193 0 193 162v443q0 99 63 159t168 60h125v-154h-96q-40 0 -63 -24.5t-23 -67.5v-434q0 -90 -36.5 -143t-115.5 -78q79 -26 115.5 -80.5t36.5 -143.5v-434q0 -44 23 -69t63 -25h96v-152h-125q-105 0 -168 59t-63 158v445q0 162 -193 162z" />
    <glyph glyph-name="bar" unicode="|" horiz-adv-x="661" 
d="M254 -178v1798h154v-1798h-154z" />
    <glyph glyph-name="braceright" unicode="}" horiz-adv-x="651" 
d="M137 -154h-127v152h96q40 0 63.5 25t23.5 69v434q0 88 37 143t116 81q-79 25 -116 78.5t-37 142.5v434q0 43 -23.5 67.5t-63.5 24.5h-96v154h127q105 0 168.5 -60t63.5 -159v-443q0 -162 190 -162v-157q-190 0 -190 -162v-445q0 -98 -63 -157.5t-169 -59.5z" />
    <glyph glyph-name="asciitilde" unicode="~" 
d="M1034 776h154q0 -146 -73 -238t-195 -92q-67 0 -139 28.5t-123.5 62t-111 62t-104.5 28.5q-64 0 -93 -40t-32 -122h-153q0 143 73 233t195 90q62 0 131.5 -28.5t120.5 -62.5t113 -62.5t112 -28.5q63 0 92.5 41.5t32.5 128.5z" />
    <glyph glyph-name="exclamdown" unicode="&#xa1;" horiz-adv-x="602" 
d="M301 1509q59 0 102 -42.5t43 -102.5q0 -58 -43 -100.5t-102 -42.5q-61 0 -104 42t-43 101q0 60 43 102.5t104 42.5zM225 1038h150q37 -281 37 -692v-346h-222v346q0 419 35 692z" />
    <glyph glyph-name="cent" unicode="&#xa2;" horiz-adv-x="1148" 
d="M506 -2v223q-185 30 -298.5 169t-113.5 347q0 209 113 350.5t299 169.5v224h168v-224q162 -20 264 -115t125 -245h-195q-24 94 -95.5 143.5t-178.5 49.5q-136 0 -220.5 -96.5t-84.5 -256.5q0 -156 85.5 -252t221.5 -96q218 0 274 191h195q-26 -149 -129 -245t-262 -116
v-221h-168z" />
    <glyph glyph-name="sterling" unicode="&#xa3;" horiz-adv-x="1286" 
d="M762 0h-701v186q108 15 176 99.5t68 199.5q0 75 -33 183h-200v157h145q-47 129 -47 232q0 198 134 324t351 126q208 0 340 -114.5t144 -311.5h-203q-9 120 -84 183t-203 63q-131 0 -207.5 -72t-76.5 -196q0 -87 51 -234h489v-157h-434q27 -93 27 -176q0 -103 -46 -186.5
t-130 -119.5h415q147 0 209 70t64 219h192q0 -231 -112 -353t-328 -122z" />
    <glyph glyph-name="currency" unicode="&#xa4;" horiz-adv-x="1368" 
d="M1128 168l-159 158q-131 -88 -285 -88q-157 0 -285 88l-161 -158l-127 129l161 158q-86 130 -86 278q0 153 86 283l-161 158l127 129l161 -158q126 90 285 90t285 -90l159 158l127 -129l-159 -156q88 -131 88 -285q0 -152 -88 -280l159 -156zM1006 733q0 133 -95 227.5
t-227 94.5q-133 0 -226 -94t-93 -228q0 -131 93.5 -224t225.5 -93q131 0 226.5 93.5t95.5 223.5z" />
    <glyph glyph-name="yen" unicode="&#xa5;" horiz-adv-x="1275" 
d="M483 733l-442 748h227l371 -670l371 670h225l-438 -748h293v-149h-355v-135h355v-150h-355v-299h-190v299h-357v150h357v135h-357v149h295z" />
    <glyph glyph-name="brokenbar" unicode="&#xa6;" horiz-adv-x="661" 
d="M408 1620v-727h-154v727h154zM254 -178v729h154v-729h-154z" />
    <glyph glyph-name="section" unicode="&#xa7;" horiz-adv-x="970" 
d="M897 756q0 -85 -53 -154.5t-144 -103.5q156 -69 156 -232q0 -129 -105.5 -210t-271.5 -81q-164 0 -263.5 85.5t-102.5 228.5h182q3 -77 53 -120.5t137 -43.5q91 0 140 38t49 107q0 52 -38.5 88.5t-111.5 51.5l-198 43q-132 30 -192 98.5t-60 177.5q0 84 52 153.5
t142 104.5q-153 71 -153 230q0 129 105.5 210.5t271.5 81.5q164 0 263.5 -85t102.5 -228h-184q-2 77 -52 120.5t-137 43.5q-90 0 -139 -38.5t-49 -107.5q0 -52 38 -88t109 -51l199 -45q131 -30 192.5 -98t61.5 -176zM715 741q0 79 -59.5 125.5t-170.5 46.5t-170 -46.5
t-59 -125.5t59 -124.5t170 -45.5t170.5 46t59.5 124z" />
    <glyph glyph-name="dieresis" unicode="&#xa8;" horiz-adv-x="804" 
d="M238 1606q-50 0 -83.5 33.5t-33.5 82.5q0 47 35 83t82 36t82.5 -36t35.5 -83t-35.5 -81.5t-82.5 -34.5zM567 1606q-49 0 -82.5 33t-33.5 83q0 48 34.5 83.5t81.5 35.5t83 -36t36 -83t-35.5 -81.5t-83.5 -34.5z" />
    <glyph glyph-name="copyright" unicode="&#xa9;" horiz-adv-x="1677" 
d="M838 -29q-157 0 -297.5 60t-241 162.5t-159 245.5t-58.5 302t59 301t159.5 244t241 161.5t296.5 59.5q157 0 297.5 -59.5t241 -161.5t159.5 -244t59 -301t-59 -302t-159.5 -245.5t-241 -162.5t-297.5 -60zM838 96q131 0 247 49.5t198.5 135t130.5 205t48 255.5
q0 135 -48 254t-131 204t-198.5 134t-246.5 49q-173 0 -316 -84t-225 -231.5t-82 -325.5q0 -181 81.5 -329t224 -232t317.5 -84zM459 737q0 181 109 296.5t280 115.5q144 0 240 -76t118 -207h-157q-38 144 -197 144q-106 0 -173 -75.5t-67 -195.5q0 -121 65 -195.5
t169 -74.5q79 0 132 37t73 106h155q-22 -126 -121 -203t-239 -77q-173 0 -280 112t-107 293z" />
    <glyph glyph-name="guillemotleft" unicode="&#xab;" horiz-adv-x="1339" 
d="M520 0l-438 500l438 501h238l-439 -501l439 -500h-238zM1020 0l-438 500l438 501h237l-438 -501l438 -500h-237z" />
    <glyph glyph-name="logicalnot" unicode="&#xac;" 
d="M1139 729v-557h-185v389h-813v168h998z" />
    <glyph glyph-name="registered" unicode="&#xae;" horiz-adv-x="1007" 
d="M506 668q-181 0 -302.5 120t-121.5 299q0 178 122 299t302 121t300 -120t120 -300t-120 -299.5t-300 -119.5zM506 737q149 0 247.5 99.5t98.5 250.5t-98.5 251t-247.5 100q-150 0 -249 -100t-99 -251t98.5 -250.5t249.5 -99.5zM416 858h-76v471h184q78 0 125 -38t47 -105
q0 -46 -25.5 -82t-72.5 -53l104 -193h-84l-90 172h-112v-172zM614 1182q0 75 -92 75h-106v-155h106q43 0 67.5 21t24.5 59z" />
    <glyph glyph-name="macron" unicode="&#xaf;" horiz-adv-x="755" 
d="M123 1667v141h510v-141h-510z" />
    <glyph glyph-name="degree" unicode="&#xb0;" horiz-adv-x="585" 
d="M547 1253q0 -110 -72.5 -182t-181.5 -72t-181.5 72t-72.5 182q0 109 72.5 181.5t181.5 72.5t181.5 -72.5t72.5 -181.5zM428 1253q0 62 -37.5 101t-97.5 39t-97.5 -39t-37.5 -101t37.5 -100.5t97.5 -38.5t97.5 38.5t37.5 100.5z" />
    <glyph glyph-name="plusminus" unicode="&#xb1;" 
d="M164 870h430v359h164v-359h430v-165h-430v-359h-164v359h-430v165zM164 0v166h1024v-166h-1024z" />
    <glyph glyph-name="twosuperior" unicode="&#xb2;" horiz-adv-x="718" 
d="M668 676h-611v108l324 267q137 113 137 235q0 85 -41 128.5t-119 43.5q-80 0 -124 -50t-44 -142h-137q3 148 85 233.5t220 85.5q139 0 219 -78t80 -215q0 -175 -184 -325l-199 -162h394v-129z" />
    <glyph glyph-name="threesuperior" unicode="&#xb3;" horiz-adv-x="718" 
d="M291 1124h-62v95l250 223h-395v129h563v-125l-237 -211q112 -14 185 -88t73 -193q0 -132 -91 -212t-227 -80t-221.5 80t-85.5 216h137q0 -79 46.5 -124.5t125.5 -45.5q78 0 127 45.5t49 122.5q0 70 -42.5 114.5t-123.5 51.5q-23 2 -71 2z" />
    <glyph glyph-name="acute" unicode="&#xb4;" horiz-adv-x="503" 
d="M414 1843l-176 -270h-150l139 270h187z" />
    <glyph glyph-name="micro" unicode="&#xb5;" horiz-adv-x="1161" 
d="M319 -449h-192v1450h192v-559q0 -297 240 -297q132 0 202 83.5t70 244.5v528h191v-1001h-172l-21 152q-45 -81 -123 -129t-182 -48q-142 0 -223 105z" />
    <glyph glyph-name="paragraph" unicode="&#xb6;" horiz-adv-x="1202" 
d="M57 1069q0 190 108.5 301t280.5 111h269v-1637h-170v809h-99q-172 0 -280.5 112t-108.5 304zM987 -160h-94v1639h94v-1639z" />
    <glyph glyph-name="periodcentered" unicode="&#xb7;" horiz-adv-x="618" 
d="M309 350q-79 0 -138.5 58.5t-59.5 136.5q0 82 58 140t140 58t139.5 -58t57.5 -140q0 -79 -58 -137t-139 -58z" />
    <glyph glyph-name="cedilla" unicode="&#xb8;" horiz-adv-x="497" 
d="M74 -371v99q72 -35 125 -35q46 0 73 20t27 54q0 33 -22.5 51t-61.5 18q-49 0 -100 -22l-23 59l92 195h66v-60l-49 -100q33 10 63 10q63 0 107.5 -38.5t44.5 -108.5q0 -84 -58.5 -129t-146.5 -45q-86 0 -137 32z" />
    <glyph glyph-name="onesuperior" unicode="&#xb9;" horiz-adv-x="481" 
d="M248 1442h-205v129h344v-895h-139v766z" />
    <glyph glyph-name="guillemotright" unicode="&#xbb;" horiz-adv-x="1339" 
d="M319 0h-237l438 500l-438 501h237l439 -501zM819 0h-237l438 500l-438 501h237l438 -501z" />
    <glyph glyph-name="onequarter" unicode="&#xbc;" horiz-adv-x="1335" 
d="M209 1368h-172v113h295v-707h-123v594zM1212 1454l-956 -1454h-162l953 1454h165zM1077 137h-356v105l326 467h149v-459h88v-113h-88v-137h-119v137zM856 250h221v315z" />
    <glyph glyph-name="onehalf" unicode="&#xbd;" horiz-adv-x="1402" 
d="M209 1368h-172v113h295v-707h-123v594zM1212 1454l-956 -1454h-162l953 1454h165zM1358 0h-502v88l231 186q67 55 96 102.5t29 100.5q0 62 -31.5 96.5t-88.5 34.5q-59 0 -93 -34.5t-34 -94.5h-125q0 106 70.5 174t183.5 68q112 0 178.5 -65t66.5 -173q0 -78 -40 -145.5
t-132 -140.5l-104 -84h295v-113z" />
    <glyph glyph-name="threequarters" unicode="&#xbe;" horiz-adv-x="1411" 
d="M41 999h125q0 -60 34 -93.5t93 -33.5q58 0 91.5 31.5t33.5 87.5q0 61 -41 96t-119 35h-72v82l181 164h-291v113h448v-107l-176 -162q87 -14 140 -70t53 -147q0 -107 -70 -171t-180 -64q-109 0 -179.5 64.5t-70.5 174.5zM1288 1454l-956 -1454h-164l954 1454h166z
M1153 137h-356v105l325 467h148v-459h90v-113h-90v-137h-117v137zM932 250h221v315z" />
    <glyph glyph-name="questiondown" unicode="&#xbf;" horiz-adv-x="1091" 
d="M588 1509q61 0 104 -42.5t43 -102.5t-43 -102.5t-104 -42.5q-59 0 -102.5 43.5t-43.5 101.5t43.5 101.5t102.5 43.5zM508 1122h178v-51q0 -62 -17.5 -115t-53.5 -97t-68 -73.5t-84 -68.5q-49 -39 -73.5 -61t-57.5 -60t-47.5 -79t-14.5 -89q0 -120 74.5 -196t198.5 -76
q121 0 201.5 83.5t80.5 209.5h199q0 -204 -138.5 -340t-344.5 -136q-217 0 -345 123.5t-128 321.5q0 62 16.5 117t39 93t62 78t67.5 62t75 55q92 68 136 122t44 126v51z" />
    <glyph glyph-name="Agrave" unicode="&#xc0;" horiz-adv-x="1355" 
d="M748 1589h-148l-174 273h186zM233 0h-208l540 1481h223l543 -1481h-211l-133 369h-622zM651 1161l-225 -618h502l-228 618q-18 53 -24 86q-4 -22 -25 -86z" />
    <glyph glyph-name="Aacute" unicode="&#xc1;" horiz-adv-x="1355" 
d="M932 1862l-176 -273h-150l139 273h187zM233 0h-208l540 1481h223l543 -1481h-211l-133 369h-622zM651 1161l-225 -618h502l-228 618q-18 53 -24 86q-4 -22 -25 -86z" />
    <glyph glyph-name="Acircumflex" unicode="&#xc2;" horiz-adv-x="1355" 
d="M559 1589h-158l168 283h215l170 -283h-159l-117 193zM233 0h-208l540 1481h223l543 -1481h-211l-133 369h-622zM651 1161l-225 -618h502l-228 618q-18 53 -24 86q-4 -22 -25 -86z" />
    <glyph glyph-name="Atilde" unicode="&#xc3;" horiz-adv-x="1355" 
d="M485 1616h-123q-10 115 35.5 182.5t132.5 67.5q41 0 82 -18t67.5 -39.5t59 -39.5t60.5 -18q69 0 69 115h125q6 -123 -40.5 -186.5t-137.5 -63.5q-44 0 -85 18t-67.5 39.5t-56.5 39.5t-53 18q-68 0 -68 -115zM233 0h-208l540 1481h223l543 -1481h-211l-133 369h-622z
M651 1161l-225 -618h502l-228 618q-18 53 -24 86q-4 -22 -25 -86z" />
    <glyph glyph-name="Adieresis" unicode="&#xc4;" horiz-adv-x="1355" 
d="M514 1622q-50 0 -84.5 35t-34.5 84q0 48 35 83.5t84 35.5q46 0 81.5 -36t35.5 -83q0 -49 -35.5 -84t-81.5 -35zM844 1622q-50 0 -84.5 35t-34.5 84q0 48 35 83.5t84 35.5q46 0 81.5 -36t35.5 -83q0 -49 -35.5 -84t-81.5 -35zM233 0h-208l540 1481h223l543 -1481h-211
l-133 369h-622zM651 1161l-225 -618h502l-228 618q-18 53 -24 86q-4 -22 -25 -86z" />
    <glyph glyph-name="Aring" unicode="&#xc5;" horiz-adv-x="1355" 
d="M678 1575q-105 0 -172.5 67.5t-67.5 172.5q0 103 68.5 171t171.5 68t172.5 -69t69.5 -170t-69.5 -170.5t-172.5 -69.5zM678 1690q54 0 86.5 35t32.5 92q0 54 -33.5 89.5t-85.5 35.5q-53 0 -86 -35t-33 -90q0 -57 32.5 -92t86.5 -35zM233 0h-208l540 1481h223l543 -1481
h-211l-133 369h-622zM651 1161l-225 -618h502l-228 618q-18 53 -24 86q-4 -22 -25 -86z" />
    <glyph glyph-name="AE" unicode="&#xc6;" horiz-adv-x="1878" 
d="M14 0l594 1481h1151v-185h-698v-462h629v-179h-629v-469h698v-186h-899v399h-467l-155 -399h-224zM461 571h399v725h-117z" />
    <glyph glyph-name="Ccedilla" unicode="&#xc7;" horiz-adv-x="1521" 
d="M653 -371v99q75 -35 127 -35q46 0 73.5 20t27.5 54q0 33 -22.5 51t-61.5 18q-50 0 -101 -22l-22 59l51 107q-291 22 -466 227.5t-175 531.5q0 342 197.5 554t515.5 212q251 0 427.5 -137t217.5 -364h-215q-41 144 -157.5 226.5t-278.5 82.5q-224 0 -360 -156.5
t-136 -415.5t135.5 -415t360.5 -156q162 0 282.5 81t161.5 218h213q-46 -215 -218.5 -349t-412.5 -143l-35 -69q33 10 64 10q63 0 107 -38.5t44 -108.5q0 -84 -58 -129t-146 -45q-86 0 -140 32z" />
    <glyph glyph-name="Egrave" unicode="&#xc8;" horiz-adv-x="1193" 
d="M686 1589h-147l-177 273h189zM1075 0h-903v1481h903v-185h-702v-462h633v-179h-633v-469h702v-186z" />
    <glyph glyph-name="Eacute" unicode="&#xc9;" horiz-adv-x="1193" 
d="M870 1862l-178 -273h-147l137 273h188zM1075 0h-903v1481h903v-185h-702v-462h633v-179h-633v-469h702v-186z" />
    <glyph glyph-name="Ecircumflex" unicode="&#xca;" horiz-adv-x="1193" 
d="M498 1589h-160l170 283h215l170 -283h-160l-117 193zM1075 0h-903v1481h903v-185h-702v-462h633v-179h-633v-469h702v-186z" />
    <glyph glyph-name="Edieresis" unicode="&#xcb;" horiz-adv-x="1193" 
d="M451 1622q-49 0 -83 34.5t-34 84.5q0 47 35 83t82 36t82.5 -36t35.5 -83q0 -49 -35 -84t-83 -35zM780 1622q-47 0 -81.5 35t-34.5 84q0 48 34.5 83.5t81.5 35.5t83 -36t36 -83q0 -49 -35.5 -84t-83.5 -35zM1075 0h-903v1481h903v-185h-702v-462h633v-179h-633v-469h702
v-186z" />
    <glyph glyph-name="Igrave" unicode="&#xcc;" horiz-adv-x="546" 
d="M344 1589h-149l-175 273h189zM373 1481v-1481h-201v1481h201z" />
    <glyph glyph-name="Iacute" unicode="&#xcd;" horiz-adv-x="546" 
d="M526 1862l-176 -273h-147l137 273h186zM373 1481v-1481h-201v1481h201z" />
    <glyph glyph-name="Icircumflex" unicode="&#xce;" horiz-adv-x="546" 
d="M156 1589h-160l170 283h215l168 -283h-160l-117 193zM373 1481v-1481h-201v1481h201z" />
    <glyph glyph-name="Idieresis" unicode="&#xcf;" horiz-adv-x="546" 
d="M109 1622q-49 0 -84 35t-35 84q0 48 35 83.5t84 35.5q47 0 81.5 -35.5t34.5 -83.5q0 -49 -34.5 -84t-81.5 -35zM438 1622q-50 0 -84.5 35t-34.5 84q0 47 36 83t83 36t82 -36t35 -83q0 -49 -34.5 -84t-82.5 -35zM373 1481v-1481h-201v1481h201z" />
    <glyph glyph-name="Eth" unicode="&#xd0;" horiz-adv-x="1478" 
d="M33 657v168h139v656h481q331 0 536.5 -205.5t205.5 -536.5q0 -330 -202.5 -534.5t-530.5 -204.5h-490v657h-139zM684 657h-311v-471h274q248 0 393.5 149t145.5 404q0 258 -147 407.5t-400 149.5h-266v-471h311v-168z" />
    <glyph glyph-name="Ntilde" unicode="&#xd1;" horiz-adv-x="1503" 
d="M565 1616h-125q-9 115 37 182.5t131 67.5q42 0 83 -18t67.5 -39.5t58.5 -39.5t60 -18q71 0 71 115h123q7 -123 -39 -186.5t-137 -63.5q-44 0 -86 18t-68.5 39.5t-56.5 39.5t-53 18q-66 0 -66 -115zM373 0h-201v1481h201l757 -1145v1145h201v-1481h-201l-757 1145v-1145z
" />
    <glyph glyph-name="Ograve" unicode="&#xd2;" horiz-adv-x="1591" 
d="M866 1589h-149l-174 273h188zM1507 741q0 -223 -90.5 -397.5t-253 -271.5t-370.5 -97q-207 0 -368.5 97t-251 271.5t-89.5 397.5q0 222 90 396.5t252.5 272t368.5 97.5q208 0 370 -97t252 -271.5t90 -397.5zM1296 741q0 258 -137.5 415t-363.5 157t-363 -157t-137 -415
t137 -415.5t363 -157.5q225 0 363 158t138 415z" />
    <glyph glyph-name="Oacute" unicode="&#xd3;" horiz-adv-x="1591" 
d="M1049 1862l-177 -273h-147l137 273h187zM1507 741q0 -223 -90.5 -397.5t-253 -271.5t-370.5 -97q-207 0 -368.5 97t-251 271.5t-89.5 397.5q0 222 90 396.5t252.5 272t368.5 97.5q208 0 370 -97t252 -271.5t90 -397.5zM1296 741q0 258 -137.5 415t-363.5 157t-363 -157
t-137 -415t137 -415.5t363 -157.5q225 0 363 158t138 415z" />
    <glyph glyph-name="Ocircumflex" unicode="&#xd4;" horiz-adv-x="1591" 
d="M678 1589h-160l170 283h215l168 -283h-160l-116 193zM1507 741q0 -223 -90.5 -397.5t-253 -271.5t-370.5 -97q-207 0 -368.5 97t-251 271.5t-89.5 397.5q0 222 90 396.5t252.5 272t368.5 97.5q208 0 370 -97t252 -271.5t90 -397.5zM1296 741q0 258 -137.5 415t-363.5 157
t-363 -157t-137 -415t137 -415.5t363 -157.5q225 0 363 158t138 415z" />
    <glyph glyph-name="Otilde" unicode="&#xd5;" horiz-adv-x="1591" 
d="M602 1616h-123q-9 115 37 182.5t131 67.5q41 0 81.5 -18t67 -39.5t59 -39.5t60.5 -18q72 0 72 115h123q7 -123 -39.5 -186.5t-138.5 -63.5q-44 0 -85 18t-67.5 39.5t-56.5 39.5t-53 18q-68 0 -68 -115zM1507 741q0 -223 -90.5 -397.5t-253 -271.5t-370.5 -97
q-207 0 -368.5 97t-251 271.5t-89.5 397.5q0 222 90 396.5t252.5 272t368.5 97.5q208 0 370 -97t252 -271.5t90 -397.5zM1296 741q0 258 -137.5 415t-363.5 157t-363 -157t-137 -415t137 -415.5t363 -157.5q225 0 363 158t138 415z" />
    <glyph glyph-name="Odieresis" unicode="&#xd6;" horiz-adv-x="1591" 
d="M631 1622q-49 0 -84 35t-35 84q0 48 35 83.5t84 35.5q47 0 82 -36t35 -83q0 -49 -34.5 -84t-82.5 -35zM961 1622q-49 0 -84 35t-35 84q0 47 36 83t83 36t81.5 -35.5t34.5 -83.5q0 -49 -34.5 -84t-81.5 -35zM1507 741q0 -223 -90.5 -397.5t-253 -271.5t-370.5 -97
q-207 0 -368.5 97t-251 271.5t-89.5 397.5q0 222 90 396.5t252.5 272t368.5 97.5q208 0 370 -97t252 -271.5t90 -397.5zM1296 741q0 258 -137.5 415t-363.5 157t-363 -157t-137 -415t137 -415.5t363 -157.5q225 0 363 158t138 415z" />
    <glyph glyph-name="multiply" unicode="&#xd7;" 
d="M322 1161l354 -354l356 354l117 -117l-356 -354l356 -356l-117 -117l-356 356l-357 -356l-116 117l356 356l-354 354z" />
    <glyph glyph-name="Oslash" unicode="&#xd8;" horiz-adv-x="1591" 
d="M1507 741q0 -223 -90.5 -397.5t-253 -271.5t-370.5 -97q-220 0 -394 113l-67 -88h-195l144 190q-197 213 -197 551q0 222 90 396.5t252.5 272t368.5 97.5q229 0 401 -116l70 92h190l-145 -193q95 -102 145.5 -242.5t50.5 -306.5zM295 741q0 -231 113 -385l665 875
q-118 82 -278 82q-226 0 -363 -157t-137 -415zM1296 741q0 231 -112 383l-664 -876q119 -80 275 -80q225 0 363 158t138 415z" />
    <glyph glyph-name="Ugrave" unicode="&#xd9;" horiz-adv-x="1456" 
d="M799 1589h-148l-176 273h189zM162 526v955h200v-942q0 -178 95 -273.5t272 -95.5q175 0 269 96t94 273v942h202v-955q0 -255 -152 -403t-413 -148q-263 0 -415 147.5t-152 403.5z" />
    <glyph glyph-name="Uacute" unicode="&#xda;" horiz-adv-x="1456" 
d="M983 1862l-178 -273h-148l138 273h188zM162 526v955h200v-942q0 -178 95 -273.5t272 -95.5q175 0 269 96t94 273v942h202v-955q0 -255 -152 -403t-413 -148q-263 0 -415 147.5t-152 403.5z" />
    <glyph glyph-name="Ucircumflex" unicode="&#xdb;" horiz-adv-x="1456" 
d="M610 1589h-159l170 283h215l170 -283h-160l-117 193zM162 526v955h200v-942q0 -178 95 -273.5t272 -95.5q175 0 269 96t94 273v942h202v-955q0 -255 -152 -403t-413 -148q-263 0 -415 147.5t-152 403.5z" />
    <glyph glyph-name="Udieresis" unicode="&#xdc;" horiz-adv-x="1456" 
d="M563 1622q-49 0 -83 34.5t-34 84.5q0 47 35 83t82 36t83 -36t36 -83q0 -49 -35.5 -84t-83.5 -35zM893 1622q-49 0 -83 34.5t-34 84.5q0 47 35 83t82 36t83 -36t36 -83q0 -49 -35.5 -84t-83.5 -35zM162 526v955h200v-942q0 -178 95 -273.5t272 -95.5q175 0 269 96t94 273
v942h202v-955q0 -255 -152 -403t-413 -148q-263 0 -415 147.5t-152 403.5z" />
    <glyph glyph-name="Yacute" unicode="&#xdd;" horiz-adv-x="1241" 
d="M877 1862l-177 -273h-147l137 273h187zM522 602l-502 879h226l329 -592q26 -45 50 -98q38 77 49 98l327 592h220l-498 -879v-602h-201v602z" />
    <glyph glyph-name="Thorn" unicode="&#xde;" horiz-adv-x="1280" 
d="M748 289h-375v-289h-201v1481h201v-279h375q216 0 346.5 -127t130.5 -327q0 -196 -132 -327.5t-345 -131.5zM713 1022h-340v-553h332q146 0 227.5 77.5t81.5 203.5q0 124 -80.5 198t-220.5 74z" />
    <glyph glyph-name="germandbls" unicode="&#xdf;" horiz-adv-x="1183" 
d="M332 0h-193v1057q0 209 124.5 329.5t330.5 120.5q192 0 306 -101t114 -271q0 -98 -47.5 -176.5t-132.5 -114.5q138 -44 213 -145.5t75 -241.5q0 -202 -136.5 -329.5t-371.5 -127.5q-114 0 -172 12v164h172q149 0 232.5 80t83.5 207q0 134 -87.5 208t-252.5 74h-101v160
h101q107 0 170 60t63 163q0 97 -61 157.5t-166 60.5q-118 0 -191 -74.5t-73 -200.5v-1071z" />
    <glyph glyph-name="agrave" unicode="&#xe0;" horiz-adv-x="1093" 
d="M629 1118h-148l-174 273h187zM432 -25q-159 0 -250.5 83t-91.5 221t98 220.5t275 96.5l315 25v28q0 120 -63 174t-172 54q-121 0 -187.5 -51t-66.5 -142h-168q0 156 118 251t312 95q192 0 304 -102t112 -299v-629h-164l-21 162q-38 -86 -133 -136.5t-217 -50.5zM487 125
q136 0 214.5 83t78.5 224v53l-256 -20q-239 -22 -239 -180q0 -78 53.5 -119t148.5 -41z" />
    <glyph glyph-name="aacute" unicode="&#xe1;" horiz-adv-x="1093" 
d="M813 1391l-176 -273h-150l140 273h186zM432 -25q-159 0 -250.5 83t-91.5 221t98 220.5t275 96.5l315 25v28q0 120 -63 174t-172 54q-121 0 -187.5 -51t-66.5 -142h-168q0 156 118 251t312 95q192 0 304 -102t112 -299v-629h-164l-21 162q-38 -86 -133 -136.5t-217 -50.5z
M487 125q136 0 214.5 83t78.5 224v53l-256 -20q-239 -22 -239 -180q0 -78 53.5 -119t148.5 -41z" />
    <glyph glyph-name="acircumflex" unicode="&#xe2;" horiz-adv-x="1093" 
d="M442 1118h-159l168 283h215l170 -283h-160l-117 193zM432 -25q-159 0 -250.5 83t-91.5 221t98 220.5t275 96.5l315 25v28q0 120 -63 174t-172 54q-121 0 -187.5 -51t-66.5 -142h-168q0 156 118 251t312 95q192 0 304 -102t112 -299v-629h-164l-21 162
q-38 -86 -133 -136.5t-217 -50.5zM487 125q136 0 214.5 83t78.5 224v53l-256 -20q-239 -22 -239 -180q0 -78 53.5 -119t148.5 -41z" />
    <glyph glyph-name="atilde" unicode="&#xe3;" horiz-adv-x="1093" 
d="M367 1145h-123q-9 115 36.5 182.5t131.5 67.5q41 0 81.5 -18t67 -39.5t59 -39.5t60.5 -18q70 0 70 115h124q7 -122 -40 -186t-138 -64q-44 0 -85 18t-67.5 39.5t-56.5 39.5t-53 18q-67 0 -67 -115zM432 -25q-159 0 -250.5 83t-91.5 221t98 220.5t275 96.5l315 25v28
q0 120 -63 174t-172 54q-121 0 -187.5 -51t-66.5 -142h-168q0 156 118 251t312 95q192 0 304 -102t112 -299v-629h-164l-21 162q-38 -86 -133 -136.5t-217 -50.5zM487 125q136 0 214.5 83t78.5 224v53l-256 -20q-239 -22 -239 -180q0 -78 53.5 -119t148.5 -41z" />
    <glyph glyph-name="adieresis" unicode="&#xe4;" horiz-adv-x="1093" 
d="M395 1151q-49 0 -84 34.5t-35 84.5q0 48 35 83.5t84 35.5q46 0 81.5 -36t35.5 -83q0 -49 -35.5 -84t-81.5 -35zM725 1151q-49 0 -84 34.5t-35 84.5q0 48 35 83.5t84 35.5q46 0 81.5 -36t35.5 -83q0 -49 -35.5 -84t-81.5 -35zM432 -25q-159 0 -250.5 83t-91.5 221
t98 220.5t275 96.5l315 25v28q0 120 -63 174t-172 54q-121 0 -187.5 -51t-66.5 -142h-168q0 156 118 251t312 95q192 0 304 -102t112 -299v-629h-164l-21 162q-38 -86 -133 -136.5t-217 -50.5zM487 125q136 0 214.5 83t78.5 224v53l-256 -20q-239 -22 -239 -180
q0 -78 53.5 -119t148.5 -41z" />
    <glyph glyph-name="aring" unicode="&#xe5;" horiz-adv-x="1093" 
d="M559 1104q-104 0 -172 67.5t-68 171.5q0 102 69 171t171 69q103 0 172.5 -69.5t69.5 -170.5t-69.5 -170t-172.5 -69zM559 1219q54 0 86.5 35t32.5 92q0 54 -33.5 89t-85.5 35q-53 0 -86 -34.5t-33 -89.5q0 -57 32.5 -92t86.5 -35zM432 -25q-159 0 -250.5 83t-91.5 221
t98 220.5t275 96.5l315 25v28q0 120 -63 174t-172 54q-121 0 -187.5 -51t-66.5 -142h-168q0 156 118 251t312 95q192 0 304 -102t112 -299v-629h-164l-21 162q-38 -86 -133 -136.5t-217 -50.5zM487 125q136 0 214.5 83t78.5 224v53l-256 -20q-239 -22 -239 -180
q0 -78 53.5 -119t148.5 -41z" />
    <glyph glyph-name="ae" unicode="&#xe6;" horiz-adv-x="1806" 
d="M90 281q0 144 99 221t268 80l321 8v59q0 109 -64 168.5t-177 59.5q-118 0 -183 -51.5t-65 -141.5h-168q0 156 116 251t304 95q123 0 213.5 -47.5t132.5 -128.5q64 84 159.5 130t213.5 46q215 0 343 -136t128 -357v-72l-779 -2q12 -154 93.5 -241t226.5 -87
q113 0 184 45.5t94 130.5h183q-37 -160 -157.5 -248t-307.5 -88q-140 0 -248 61.5t-170 172.5q-50 -108 -157.5 -171t-248.5 -63q-168 0 -261 83t-93 223zM1260 868q-126 0 -206.5 -75.5t-99.5 -202.5h584q0 125 -74.5 201.5t-203.5 76.5zM285 291q0 -81 55.5 -123.5
t153.5 -42.5q132 0 209 74.5t77 199.5v62l-276 -8q-113 -3 -166 -42t-53 -120z" />
    <glyph glyph-name="ccedilla" unicode="&#xe7;" horiz-adv-x="1093" 
d="M74 500q0 235 136 382.5t355 147.5q188 0 312.5 -99t150.5 -267h-192q-24 93 -95 143.5t-170 50.5q-137 0 -222 -97t-85 -259q0 -161 81.5 -258t217.5 -97q103 0 176 51t99 140h192q-28 -154 -144.5 -252.5t-283.5 -108.5l-33 -69q33 10 64 10q63 0 107 -38.5t44 -108.5
q0 -84 -58.5 -129t-145.5 -45q-86 0 -140 32v99q75 -35 125 -35q46 0 74.5 20t28.5 54q0 33 -23 51t-63 18q-47 0 -101 -22l-20 59l49 104q-199 19 -317.5 160t-118.5 363z" />
    <glyph glyph-name="egrave" unicode="&#xe8;" horiz-adv-x="1110" 
d="M635 1118h-148l-174 273h187zM571 -25q-221 0 -359 146t-138 379q0 235 135.5 382.5t353.5 147.5q214 0 342.5 -135t128.5 -358v-72l-774 -2q11 -159 92 -243.5t223 -84.5q230 0 281 176h180q-37 -161 -158 -248.5t-307 -87.5zM563 868q-126 0 -203 -72t-96 -204h578
q0 125 -76 200.5t-203 75.5z" />
    <glyph glyph-name="eacute" unicode="&#xe9;" horiz-adv-x="1110" 
d="M819 1391l-176 -273h-149l137 273h188zM571 -25q-221 0 -359 146t-138 379q0 235 135.5 382.5t353.5 147.5q214 0 342.5 -135t128.5 -358v-72l-774 -2q11 -159 92 -243.5t223 -84.5q230 0 281 176h180q-37 -161 -158 -248.5t-307 -87.5zM563 868q-126 0 -203 -72
t-96 -204h578q0 125 -76 200.5t-203 75.5z" />
    <glyph glyph-name="ecircumflex" unicode="&#xea;" horiz-adv-x="1110" 
d="M446 1118h-157l168 283h215l170 -283h-160l-117 193zM571 -25q-221 0 -359 146t-138 379q0 235 135.5 382.5t353.5 147.5q214 0 342.5 -135t128.5 -358v-72l-774 -2q11 -159 92 -243.5t223 -84.5q230 0 281 176h180q-37 -161 -158 -248.5t-307 -87.5zM563 868
q-126 0 -203 -72t-96 -204h578q0 125 -76 200.5t-203 75.5z" />
    <glyph glyph-name="edieresis" unicode="&#xeb;" horiz-adv-x="1110" 
d="M399 1151q-47 0 -81.5 35t-34.5 84q0 48 34.5 83.5t81.5 35.5t83 -36t36 -83q0 -49 -35.5 -84t-83.5 -35zM731 1151q-49 0 -84 34.5t-35 84.5q0 48 35 83.5t84 35.5q46 0 81.5 -36t35.5 -83q0 -49 -35.5 -84t-81.5 -35zM571 -25q-221 0 -359 146t-138 379
q0 235 135.5 382.5t353.5 147.5q214 0 342.5 -135t128.5 -358v-72l-774 -2q11 -159 92 -243.5t223 -84.5q230 0 281 176h180q-37 -161 -158 -248.5t-307 -87.5zM563 868q-126 0 -203 -72t-96 -204h578q0 125 -76 200.5t-203 75.5z" />
    <glyph glyph-name="igrave" unicode="&#xec;" horiz-adv-x="471" 
d="M307 1118h-149l-174 273h186zM139 0v1001h193v-1001h-193z" />
    <glyph glyph-name="iacute" unicode="&#xed;" horiz-adv-x="471" 
d="M489 1391l-176 -273h-147l137 273h186zM139 0v1001h193v-1001h-193z" />
    <glyph glyph-name="icircumflex" unicode="&#xee;" horiz-adv-x="471" 
d="M119 1118h-160l170 283h213l170 -283h-160l-116 193zM139 0v1001h193v-1001h-193z" />
    <glyph glyph-name="idieresis" unicode="&#xef;" horiz-adv-x="471" 
d="M72 1151q-50 0 -84.5 34.5t-34.5 84.5q0 48 35 83.5t84 35.5q47 0 81.5 -35.5t34.5 -83.5q0 -49 -34.5 -84t-81.5 -35zM401 1151q-49 0 -83.5 34.5t-34.5 84.5q0 48 34.5 83.5t83.5 35.5q47 0 82 -36t35 -83q0 -49 -34.5 -84t-82.5 -35zM139 0v1001h193v-1001h-193z" />
    <glyph glyph-name="eth" unicode="&#xf0;" horiz-adv-x="1202" 
d="M74 496q0 218 149 364t361 146q193 0 313 -132q-69 187 -227 371l-230 -108l-49 112l193 92q-79 88 -162 166h225q17 -15 94 -92l166 78l49 -115l-127 -59q154 -183 226.5 -368t72.5 -396q0 -269 -148 -424.5t-382 -155.5q-232 0 -378 147t-146 374zM268 489
q0 -149 90 -245.5t240 -96.5t242 98t92 249q0 147 -90 242t-238 95q-151 0 -243.5 -97t-92.5 -245z" />
    <glyph glyph-name="ntilde" unicode="&#xf1;" horiz-adv-x="1177" 
d="M408 1145h-125q-9 115 37 182.5t131 67.5q42 0 82.5 -18t67 -39.5t59.5 -39.5t61 -18q70 0 70 115h122q7 -123 -39 -186.5t-137 -63.5q-44 0 -86 18t-68 39.5t-56 39.5t-54 18q-65 0 -65 -115zM332 0h-193v1001h174l21 -153q47 85 136 133.5t196 48.5q193 0 289 -110
t96 -308v-612h-193v569q0 285 -242 285q-133 0 -208.5 -88t-75.5 -236v-530z" />
    <glyph glyph-name="ograve" unicode="&#xf2;" horiz-adv-x="1189" 
d="M666 1118h-148l-176 273h188zM74 502q0 231 147.5 378.5t374.5 147.5q225 0 372.5 -147.5t147.5 -378.5t-147.5 -379t-372.5 -148q-227 0 -374.5 148t-147.5 379zM268 502q0 -157 91 -256t237 -99q145 0 236.5 99t91.5 256t-91.5 255.5t-236.5 98.5q-146 0 -237 -98.5
t-91 -255.5z" />
    <glyph glyph-name="oacute" unicode="&#xf3;" horiz-adv-x="1189" 
d="M850 1391l-178 -273h-148l138 273h188zM74 502q0 231 147.5 378.5t374.5 147.5q225 0 372.5 -147.5t147.5 -378.5t-147.5 -379t-372.5 -148q-227 0 -374.5 148t-147.5 379zM268 502q0 -157 91 -256t237 -99q145 0 236.5 99t91.5 256t-91.5 255.5t-236.5 98.5
q-146 0 -237 -98.5t-91 -255.5z" />
    <glyph glyph-name="ocircumflex" unicode="&#xf4;" horiz-adv-x="1189" 
d="M477 1118h-160l170 283h215l170 -283h-159l-117 193zM74 502q0 231 147.5 378.5t374.5 147.5q225 0 372.5 -147.5t147.5 -378.5t-147.5 -379t-372.5 -148q-227 0 -374.5 148t-147.5 379zM268 502q0 -157 91 -256t237 -99q145 0 236.5 99t91.5 256t-91.5 255.5
t-236.5 98.5q-146 0 -237 -98.5t-91 -255.5z" />
    <glyph glyph-name="otilde" unicode="&#xf5;" horiz-adv-x="1189" 
d="M403 1145h-122q-10 115 35.5 182.5t132.5 67.5q41 0 81.5 -18t66.5 -39.5t59 -39.5t61 -18q69 0 69 115h123q7 -123 -39 -186.5t-137 -63.5q-44 0 -85 18t-67.5 39.5t-56.5 39.5t-53 18q-68 0 -68 -115zM74 502q0 231 147.5 378.5t374.5 147.5q225 0 372.5 -147.5
t147.5 -378.5t-147.5 -379t-372.5 -148q-227 0 -374.5 148t-147.5 379zM268 502q0 -157 91 -256t237 -99q145 0 236.5 99t91.5 256t-91.5 255.5t-236.5 98.5q-146 0 -237 -98.5t-91 -255.5z" />
    <glyph glyph-name="odieresis" unicode="&#xf6;" horiz-adv-x="1189" 
d="M430 1151q-49 0 -83 34.5t-34 84.5q0 47 35 83t82 36t83 -36t36 -83q0 -49 -35.5 -84t-83.5 -35zM760 1151q-49 0 -83 34.5t-34 84.5q0 47 35 83t82 36t83 -36t36 -83q0 -49 -35.5 -84t-83.5 -35zM74 502q0 231 147.5 378.5t374.5 147.5q225 0 372.5 -147.5t147.5 -378.5
t-147.5 -379t-372.5 -148q-227 0 -374.5 148t-147.5 379zM268 502q0 -157 91 -256t237 -99q145 0 236.5 99t91.5 256t-91.5 255.5t-236.5 98.5q-146 0 -237 -98.5t-91 -255.5z" />
    <glyph glyph-name="divide" unicode="&#xf7;" 
d="M676 879q-56 0 -96.5 40.5t-40.5 94.5q0 57 40 97t97 40q56 0 96.5 -40t40.5 -97q0 -54 -41 -94.5t-96 -40.5zM164 705h1024v-166h-1024v166zM676 88q-57 0 -97 40.5t-40 96.5t40 95.5t97 39.5q56 0 96.5 -40t40.5 -95t-40.5 -96t-96.5 -41z" />
    <glyph glyph-name="oslash" unicode="&#xf8;" horiz-adv-x="1189" 
d="M74 502q0 231 147.5 378.5t374.5 147.5q121 0 219 -43l64 102h168l-111 -178q86 -72 133 -176t47 -231q0 -231 -147.5 -379t-372.5 -148q-113 0 -211 39l-72 -116h-174l119 192q-87 70 -135.5 176.5t-48.5 235.5zM268 502q0 -153 88 -254l365 586q-61 22 -125 22
q-146 0 -237 -98.5t-91 -255.5zM924 502q0 153 -86 248l-359 -582q53 -21 117 -21q145 0 236.5 99t91.5 256z" />
    <glyph glyph-name="ugrave" unicode="&#xf9;" horiz-adv-x="1161" 
d="M641 1118h-147l-175 273h187zM831 1001h191v-1001h-172l-21 152q-43 -79 -135.5 -128t-201.5 -49q-173 0 -269 108.5t-96 295.5v622h192v-559q0 -297 240 -297q132 0 202 83.5t70 244.5v528z" />
    <glyph glyph-name="uacute" unicode="&#xfa;" horiz-adv-x="1161" 
d="M825 1391l-176 -273h-149l137 273h188zM831 1001h191v-1001h-172l-21 152q-43 -79 -135.5 -128t-201.5 -49q-173 0 -269 108.5t-96 295.5v622h192v-559q0 -297 240 -297q132 0 202 83.5t70 244.5v528z" />
    <glyph glyph-name="ucircumflex" unicode="&#xfb;" horiz-adv-x="1161" 
d="M453 1118h-160l170 283h215l170 -283h-160l-117 193zM831 1001h191v-1001h-172l-21 152q-43 -79 -135.5 -128t-201.5 -49q-173 0 -269 108.5t-96 295.5v622h192v-559q0 -297 240 -297q132 0 202 83.5t70 244.5v528z" />
    <glyph glyph-name="udieresis" unicode="&#xfc;" horiz-adv-x="1161" 
d="M406 1151q-48 0 -82.5 35t-34.5 84q0 47 35 83t82 36t82.5 -36t35.5 -83q0 -49 -35 -84t-83 -35zM735 1151q-48 0 -82.5 35t-34.5 84q0 47 35 83t82 36t83 -36t36 -83q0 -49 -35.5 -84t-83.5 -35zM831 1001h191v-1001h-172l-21 152q-43 -79 -135.5 -128t-201.5 -49
q-173 0 -269 108.5t-96 295.5v622h192v-559q0 -297 240 -297q132 0 202 83.5t70 244.5v528z" />
    <glyph glyph-name="yacute" unicode="&#xfd;" horiz-adv-x="1019" 
d="M768 1391l-176 -273h-148l138 273h186zM43 -449v158h129q31 0 53.5 2.5t47.5 10.5t43.5 23t36.5 41.5t32 63.5l35 97l-404 1054h203l291 -806l297 806h199l-474 -1226q-51 -128 -128 -186t-193 -58q-83 0 -168 20z" />
    <glyph glyph-name="thorn" unicode="&#xfe;" horiz-adv-x="1228" 
d="M1155 506q0 -235 -124 -384t-341 -149q-121 0 -215 49.5t-143 141.5v-613h-193v1956h193v-678q49 97 144.5 149t219.5 52q211 0 335 -145t124 -379zM963 504q0 157 -84.5 254.5t-229.5 97.5t-230 -97.5t-85 -254.5q0 -158 85 -257.5t230 -99.5t229.5 99.5t84.5 257.5z
" />
    <glyph glyph-name="ydieresis" unicode="&#xff;" horiz-adv-x="1019" 
d="M350 1151q-50 0 -84.5 34.5t-34.5 84.5q0 48 35 83.5t84 35.5q47 0 82 -36t35 -83q0 -49 -34.5 -84t-82.5 -35zM680 1151q-50 0 -84.5 34.5t-34.5 84.5q0 48 35 83.5t84 35.5q47 0 82 -36t35 -83q0 -49 -34.5 -84t-82.5 -35zM43 -449v158h129q31 0 53.5 2.5t47.5 10.5
t43.5 23t36.5 41.5t32 63.5l35 97l-404 1054h203l291 -806l297 806h199l-474 -1226q-51 -128 -128 -186t-193 -58q-83 0 -168 20z" />
    <glyph glyph-name="Amacron" unicode="&#x100;" horiz-adv-x="1355" 
d="M424 1686v141h508v-141h-508zM233 0h-208l540 1481h223l543 -1481h-211l-133 369h-622zM651 1161l-225 -618h502l-228 618q-18 53 -24 86q-4 -22 -25 -86z" />
    <glyph glyph-name="amacron" unicode="&#x101;" horiz-adv-x="1093" 
d="M305 1214v142h508v-142h-508zM432 -25q-159 0 -250.5 83t-91.5 221t98 220.5t275 96.5l315 25v28q0 120 -63 174t-172 54q-121 0 -187.5 -51t-66.5 -142h-168q0 156 118 251t312 95q192 0 304 -102t112 -299v-629h-164l-21 162q-38 -86 -133 -136.5t-217 -50.5zM487 125
q136 0 214.5 83t78.5 224v53l-256 -20q-239 -22 -239 -180q0 -78 53.5 -119t148.5 -41z" />
    <glyph glyph-name="Abreve" unicode="&#x102;" horiz-adv-x="1355" 
d="M815 1864h146q0 -132 -76.5 -209.5t-206.5 -77.5t-206.5 77.5t-76.5 209.5h146q0 -71 35 -109.5t102 -38.5t102 39t35 109zM233 0h-208l540 1481h223l543 -1481h-211l-133 369h-622zM651 1161l-225 -618h502l-228 618q-18 53 -24 86q-4 -22 -25 -86z" />
    <glyph glyph-name="abreve" unicode="&#x103;" horiz-adv-x="1093" 
d="M696 1393h146q0 -132 -76 -209.5t-205 -77.5q-132 0 -208.5 77.5t-76.5 209.5h146q0 -71 36 -109.5t103 -38.5q65 0 100 39t35 109zM432 -25q-159 0 -250.5 83t-91.5 221t98 220.5t275 96.5l315 25v28q0 120 -63 174t-172 54q-121 0 -187.5 -51t-66.5 -142h-168
q0 156 118 251t312 95q192 0 304 -102t112 -299v-629h-164l-21 162q-38 -86 -133 -136.5t-217 -50.5zM487 125q136 0 214.5 83t78.5 224v53l-256 -20q-239 -22 -239 -180q0 -78 53.5 -119t148.5 -41z" />
    <glyph glyph-name="Aogonek" unicode="&#x104;" horiz-adv-x="1355" 
d="M233 0h-208l540 1481h223l543 -1481h-2q-64 -25 -96.5 -64t-32.5 -79q0 -33 20 -51.5t56 -18.5q24 0 47 10v-137q-38 -14 -88 -14q-77 0 -125.5 47.5t-48.5 118.5q0 57 37.5 107.5t107.5 80.5h-86l-133 369h-622zM651 1161l-225 -618h502l-228 618q-18 53 -24 86
q-4 -22 -25 -86z" />
    <glyph glyph-name="aogonek" unicode="&#x105;" horiz-adv-x="1093" 
d="M432 -25q-159 0 -250.5 83t-91.5 221t98 220.5t275 96.5l315 25v28q0 120 -63 174t-172 54q-121 0 -187.5 -51t-66.5 -142h-168q0 156 118 251t312 95q192 0 304 -102t112 -299v-629q-64 -25 -97.5 -64.5t-33.5 -78.5q0 -33 20.5 -51.5t54.5 -18.5q27 0 50 10v-137
q-38 -14 -89 -14q-78 0 -126 47t-48 119q0 57 37 107.5t107 80.5h-39l-21 162q-38 -86 -133 -136.5t-217 -50.5zM487 125q136 0 214.5 83t78.5 224v53l-256 -20q-239 -22 -239 -180q0 -78 53.5 -119t148.5 -41z" />
    <glyph glyph-name="Cacute" unicode="&#x106;" horiz-adv-x="1521" 
d="M1049 1862l-177 -273h-149l137 273h189zM786 -23q-209 0 -368.5 94.5t-246.5 267.5t-87 400q0 342 197.5 554t515.5 212q251 0 427.5 -137t217.5 -364h-215q-41 144 -157.5 226.5t-278.5 82.5q-224 0 -360 -156.5t-136 -415.5t135.5 -415t360.5 -156q162 0 282.5 81
t161.5 218h213q-47 -221 -229.5 -356.5t-432.5 -135.5z" />
    <glyph glyph-name="cacute" unicode="&#x107;" horiz-adv-x="1093" 
d="M809 1391l-178 -273h-148l138 273h188zM74 500q0 235 136 382.5t355 147.5q188 0 312.5 -99t150.5 -267h-192q-24 93 -95 143.5t-170 50.5q-137 0 -222 -97t-85 -259q0 -161 81.5 -258t217.5 -97q103 0 176 51t99 140h192q-29 -163 -157.5 -263t-309.5 -100
q-221 0 -355 144t-134 381z" />
    <glyph glyph-name="Ccircumflex" unicode="&#x108;" horiz-adv-x="1521" 
d="M678 1591h-160l170 281h215l168 -281h-160l-116 191zM786 -23q-209 0 -368.5 94.5t-246.5 267.5t-87 400q0 342 197.5 554t515.5 212q251 0 427.5 -137t217.5 -364h-215q-41 144 -157.5 226.5t-278.5 82.5q-224 0 -360 -156.5t-136 -415.5t135.5 -415t360.5 -156
q162 0 282.5 81t161.5 218h213q-47 -221 -229.5 -356.5t-432.5 -135.5z" />
    <glyph glyph-name="ccircumflex" unicode="&#x109;" horiz-adv-x="1093" 
d="M436 1118h-160l170 283h216l169 -283h-159l-117 193zM74 500q0 235 136 382.5t355 147.5q188 0 312.5 -99t150.5 -267h-192q-24 93 -95 143.5t-170 50.5q-137 0 -222 -97t-85 -259q0 -161 81.5 -258t217.5 -97q103 0 176 51t99 140h192q-29 -163 -157.5 -263t-309.5 -100
q-221 0 -355 144t-134 381z" />
    <glyph glyph-name="Cdotaccent" unicode="&#x10a;" horiz-adv-x="1521" 
d="M795 1622q-51 0 -87 35.5t-36 85.5q0 51 36 88t87 37q49 0 84.5 -37t35.5 -88q0 -50 -35.5 -85.5t-84.5 -35.5zM786 -23q-209 0 -368.5 94.5t-246.5 267.5t-87 400q0 342 197.5 554t515.5 212q251 0 427.5 -137t217.5 -364h-215q-41 144 -157.5 226.5t-278.5 82.5
q-224 0 -360 -156.5t-136 -415.5t135.5 -415t360.5 -156q162 0 282.5 81t161.5 218h213q-47 -221 -229.5 -356.5t-432.5 -135.5z" />
    <glyph glyph-name="cdotaccent" unicode="&#x10b;" horiz-adv-x="1093" 
d="M553 1151q-49 0 -85 35.5t-36 85.5q0 51 36 88t85 37q50 0 86.5 -37t36.5 -88q0 -49 -36.5 -85t-86.5 -36zM74 500q0 235 136 382.5t355 147.5q188 0 312.5 -99t150.5 -267h-192q-24 93 -95 143.5t-170 50.5q-137 0 -222 -97t-85 -259q0 -161 81.5 -258t217.5 -97
q103 0 176 51t99 140h192q-29 -163 -157.5 -263t-309.5 -100q-221 0 -355 144t-134 381z" />
    <glyph glyph-name="Ccaron" unicode="&#x10c;" horiz-adv-x="1521" 
d="M686 1589l-168 283h158l119 -191l116 191h160l-170 -283h-215zM786 -23q-209 0 -368.5 94.5t-246.5 267.5t-87 400q0 342 197.5 554t515.5 212q251 0 427.5 -137t217.5 -364h-215q-41 144 -157.5 226.5t-278.5 82.5q-224 0 -360 -156.5t-136 -415.5t135.5 -415
t360.5 -156q162 0 282.5 81t161.5 218h213q-47 -221 -229.5 -356.5t-432.5 -135.5z" />
    <glyph glyph-name="ccaron" unicode="&#x10d;" horiz-adv-x="1093" 
d="M446 1118l-170 283h160l119 -191l117 191h159l-169 -283h-216zM74 500q0 235 136 382.5t355 147.5q188 0 312.5 -99t150.5 -267h-192q-24 93 -95 143.5t-170 50.5q-137 0 -222 -97t-85 -259q0 -161 81.5 -258t217.5 -97q103 0 176 51t99 140h192q-29 -163 -157.5 -263
t-309.5 -100q-221 0 -355 144t-134 381z" />
    <glyph glyph-name="Dcaron" unicode="&#x10e;" horiz-adv-x="1478" 
d="M526 1589l-170 281h160l119 -191l117 191h159l-170 -281h-215zM662 0h-490v1481h481q331 0 536.5 -205.5t205.5 -536.5q0 -330 -202.5 -534.5t-530.5 -204.5zM639 1296h-266v-1110h274q248 0 393.5 149t145.5 404q0 258 -147 407.5t-400 149.5z" />
    <glyph glyph-name="dcaron" unicode="&#x10f;" horiz-adv-x="1228" 
d="M541 -25q-215 0 -341 145t-126 378q0 235 128 383.5t347 148.5q116 0 207.5 -49t142.5 -141v667h191v-1507h-172l-17 182q-49 -101 -143.5 -154t-216.5 -53zM1198 1165v342h166l-43 -342h-123zM580 150q146 0 231.5 97.5t85.5 256.5q0 156 -85.5 254t-231.5 98
q-145 0 -228.5 -97.5t-83.5 -254.5q0 -158 83.5 -256t228.5 -98z" />
    <glyph glyph-name="Dcroat" unicode="&#x110;" horiz-adv-x="1478" 
d="M33 657v168h139v656h481q331 0 536.5 -205.5t205.5 -536.5q0 -330 -202.5 -534.5t-530.5 -204.5h-490v657h-139zM684 657h-311v-471h274q248 0 393.5 149t145.5 404q0 258 -147 407.5t-400 149.5h-266v-471h311v-168z" />
    <glyph glyph-name="dcroat" unicode="&#x111;" horiz-adv-x="1228" 
d="M541 -25q-215 0 -341 145t-126 378q0 235 128 383.5t347 148.5q116 0 207.5 -49t142.5 -141v342h-326v123h326v202h191v-202h127v-123h-127v-1182h-172l-17 182q-49 -101 -143.5 -154t-216.5 -53zM580 150q146 0 231.5 97.5t85.5 256.5q0 156 -85.5 254t-231.5 98
q-145 0 -228.5 -97.5t-83.5 -254.5q0 -158 83.5 -256t228.5 -98z" />
    <glyph glyph-name="Emacron" unicode="&#x112;" horiz-adv-x="1193" 
d="M362 1686v141h508v-141h-508zM1075 0h-903v1481h903v-185h-702v-462h633v-179h-633v-469h702v-186z" />
    <glyph glyph-name="emacron" unicode="&#x113;" horiz-adv-x="1110" 
d="M311 1214v142h508v-142h-508zM571 -25q-221 0 -359 146t-138 379q0 235 135.5 382.5t353.5 147.5q214 0 342.5 -135t128.5 -358v-72l-774 -2q11 -159 92 -243.5t223 -84.5q230 0 281 176h180q-37 -161 -158 -248.5t-307 -87.5zM563 868q-126 0 -203 -72t-96 -204h578
q0 125 -76 200.5t-203 75.5z" />
    <glyph glyph-name="Ebreve" unicode="&#x114;" horiz-adv-x="1193" 
d="M754 1864h145q0 -132 -77 -209.5t-206 -77.5q-131 0 -207.5 77.5t-76.5 209.5h147q0 -71 35 -109.5t102 -38.5t102.5 39t35.5 109zM1075 0h-903v1481h903v-185h-702v-462h633v-179h-633v-469h702v-186z" />
    <glyph glyph-name="ebreve" unicode="&#x115;" horiz-adv-x="1110" 
d="M702 1393h146q0 -132 -77 -209.5t-206 -77.5q-130 0 -206 77.5t-76 209.5h145q0 -71 35 -109.5t102 -38.5t102 39t35 109zM571 -25q-221 0 -359 146t-138 379q0 235 135.5 382.5t353.5 147.5q214 0 342.5 -135t128.5 -358v-72l-774 -2q11 -159 92 -243.5t223 -84.5
q230 0 281 176h180q-37 -161 -158 -248.5t-307 -87.5zM563 868q-126 0 -203 -72t-96 -204h578q0 125 -76 200.5t-203 75.5z" />
    <glyph glyph-name="Edotaccent" unicode="&#x116;" horiz-adv-x="1193" 
d="M614 1622q-49 0 -84.5 35.5t-35.5 85.5q0 51 35.5 88t84.5 37q50 0 86.5 -37t36.5 -88q0 -49 -36.5 -85t-86.5 -36zM1075 0h-903v1481h903v-185h-702v-462h633v-179h-633v-469h702v-186z" />
    <glyph glyph-name="edotaccent" unicode="&#x117;" horiz-adv-x="1110" 
d="M565 1151q-51 0 -87 35.5t-36 85.5q0 51 36 88t87 37q49 0 85 -37t36 -88q0 -50 -36 -85.5t-85 -35.5zM571 -25q-221 0 -359 146t-138 379q0 235 135.5 382.5t353.5 147.5q214 0 342.5 -135t128.5 -358v-72l-774 -2q11 -159 92 -243.5t223 -84.5q230 0 281 176h180
q-37 -161 -158 -248.5t-307 -87.5zM563 868q-126 0 -203 -72t-96 -204h578q0 125 -76 200.5t-203 75.5z" />
    <glyph glyph-name="Eogonek" unicode="&#x118;" horiz-adv-x="1193" 
d="M950 0h-778v1481h903v-185h-702v-462h633v-179h-633v-469h702v-186q-65 -25 -98 -64t-33 -79q0 -33 21 -51.5t55 -18.5q26 0 49 10v-137q-38 -14 -88 -14q-78 0 -126 47t-48 119q0 58 36.5 108t106.5 80z" />
    <glyph glyph-name="eogonek" unicode="&#x119;" horiz-adv-x="1110" 
d="M571 -25q-221 0 -359 146t-138 379q0 235 135.5 382.5t353.5 147.5q214 0 342.5 -135t128.5 -358v-72l-774 -2q11 -159 92 -243.5t223 -84.5q230 0 281 176h180q-57 -242 -286 -311h2q-65 -25 -98 -64t-33 -79q0 -33 20.5 -51.5t54.5 -18.5q27 0 47 10v-137
q-38 -14 -86 -14q-78 0 -127 47t-49 119q0 98 99 163h-9zM563 868q-126 0 -203 -72t-96 -204h578q0 125 -76 200.5t-203 75.5z" />
    <glyph glyph-name="Ecaron" unicode="&#x11a;" horiz-adv-x="1193" 
d="M508 1589l-170 283h160l118 -191l117 191h160l-170 -283h-215zM1075 0h-903v1481h903v-185h-702v-462h633v-179h-633v-469h702v-186z" />
    <glyph glyph-name="ecaron" unicode="&#x11b;" horiz-adv-x="1110" 
d="M457 1118l-168 283h157l119 -191l117 191h160l-170 -283h-215zM571 -25q-221 0 -359 146t-138 379q0 235 135.5 382.5t353.5 147.5q214 0 342.5 -135t128.5 -358v-72l-774 -2q11 -159 92 -243.5t223 -84.5q230 0 281 176h180q-37 -161 -158 -248.5t-307 -87.5zM563 868
q-126 0 -203 -72t-96 -204h578q0 125 -76 200.5t-203 75.5z" />
    <glyph glyph-name="Gcircumflex" unicode="&#x11c;" horiz-adv-x="1566" 
d="M692 1591h-160l168 281h215l170 -281h-159l-117 191zM807 1317q-237 0 -374.5 -160.5t-137.5 -425.5q0 -264 140.5 -414.5t373.5 -150.5q97 0 178 25.5t143.5 76t98 134t35.5 192.5v43h-496v178h684v-817h-168l-14 201q-62 -99 -190 -161.5t-287 -62.5q-208 0 -369 94
t-250.5 267t-89.5 399q0 167 52.5 310t147 244.5t230.5 158.5t297 57q244 0 416 -129t209 -342h-213q-40 137 -152 210t-264 73z" />
    <glyph glyph-name="gcircumflex" unicode="&#x11d;" horiz-adv-x="1224" 
d="M461 1133h-160l170 282h213l170 -282h-160l-116 190zM76 526q0 142 57 256t165.5 181t250.5 67q121 0 211.5 -52t138.5 -147l14 170h172v-960q0 -236 -135.5 -376t-365.5 -140q-204 0 -336 108.5t-160 298.5h193q19 -111 98 -172t205 -61q141 0 226 85.5t85 227.5v201
q-50 -88 -143 -137t-211 -49q-139 0 -246 66t-163 179t-56 254zM268 530q0 -144 83.5 -239.5t221.5 -95.5q144 0 229 92.5t85 242.5q0 148 -83.5 240t-228.5 92q-141 0 -224 -94.5t-83 -237.5z" />
    <glyph glyph-name="Gbreve" unicode="&#x11e;" horiz-adv-x="1566" 
d="M946 1866h146q0 -132 -76 -209.5t-205 -77.5q-132 0 -208.5 77t-76.5 210h146q0 -71 36 -110.5t103 -39.5q65 0 100 39.5t35 110.5zM807 1317q-237 0 -374.5 -160.5t-137.5 -425.5q0 -264 140.5 -414.5t373.5 -150.5q97 0 178 25.5t143.5 76t98 134t35.5 192.5v43h-496
v178h684v-817h-168l-14 201q-62 -99 -190 -161.5t-287 -62.5q-208 0 -369 94t-250.5 267t-89.5 399q0 167 52.5 310t147 244.5t230.5 158.5t297 57q244 0 416 -129t209 -342h-213q-40 137 -152 210t-264 73z" />
    <glyph glyph-name="gbreve" unicode="&#x11f;" horiz-adv-x="1224" 
d="M717 1407h145q0 -132 -76.5 -209.5t-205.5 -77.5q-132 0 -208.5 77.5t-76.5 209.5h145q0 -71 36.5 -109t103.5 -38q66 0 101.5 38t35.5 109zM76 526q0 142 57 256t165.5 181t250.5 67q121 0 211.5 -52t138.5 -147l14 170h172v-960q0 -236 -135.5 -376t-365.5 -140
q-204 0 -336 108.5t-160 298.5h193q19 -111 98 -172t205 -61q141 0 226 85.5t85 227.5v201q-50 -88 -143 -137t-211 -49q-139 0 -246 66t-163 179t-56 254zM268 530q0 -144 83.5 -239.5t221.5 -95.5q144 0 229 92.5t85 242.5q0 148 -83.5 240t-228.5 92q-141 0 -224 -94.5
t-83 -237.5z" />
    <glyph glyph-name="Gdotaccent" unicode="&#x120;" horiz-adv-x="1566" 
d="M809 1624q-51 0 -87 35t-36 86t36 87t87 36q49 0 85 -36.5t36 -86.5q0 -49 -36 -85t-85 -36zM807 1317q-237 0 -374.5 -160.5t-137.5 -425.5q0 -264 140.5 -414.5t373.5 -150.5q97 0 178 25.5t143.5 76t98 134t35.5 192.5v43h-496v178h684v-817h-168l-14 201
q-62 -99 -190 -161.5t-287 -62.5q-208 0 -369 94t-250.5 267t-89.5 399q0 167 52.5 310t147 244.5t230.5 158.5t297 57q244 0 416 -129t209 -342h-213q-40 137 -152 210t-264 73z" />
    <glyph glyph-name="gdotaccent" unicode="&#x121;" horiz-adv-x="1224" 
d="M578 1165q-51 0 -86 35.5t-35 85.5q0 51 35.5 87t85.5 36q49 0 84.5 -36.5t35.5 -86.5t-35.5 -85.5t-84.5 -35.5zM76 526q0 142 57 256t165.5 181t250.5 67q121 0 211.5 -52t138.5 -147l14 170h172v-960q0 -236 -135.5 -376t-365.5 -140q-204 0 -336 108.5t-160 298.5
h193q19 -111 98 -172t205 -61q141 0 226 85.5t85 227.5v201q-50 -88 -143 -137t-211 -49q-139 0 -246 66t-163 179t-56 254zM268 530q0 -144 83.5 -239.5t221.5 -95.5q144 0 229 92.5t85 242.5q0 148 -83.5 240t-228.5 92q-141 0 -224 -94.5t-83 -237.5z" />
    <glyph glyph-name="Gcommaaccent" unicode="&#x122;" horiz-adv-x="1566" 
d="M807 1317q-237 0 -374.5 -160.5t-137.5 -425.5q0 -264 140.5 -414.5t373.5 -150.5q97 0 178 25.5t143.5 76t98 134t35.5 192.5v43h-496v178h684v-817h-168l-14 201q-62 -99 -190 -161.5t-287 -62.5q-208 0 -369 94t-250.5 267t-89.5 399q0 167 52.5 310t147 244.5
t230.5 158.5t297 57q244 0 416 -129t209 -342h-213q-40 137 -152 210t-264 73zM903 -217q0 -101 -60 -160t-151 -51v70q54 -4 85 18t34 64q-18 -9 -39 -9q-43 0 -71.5 29t-28.5 72q0 49 31 79.5t79 30.5q56 0 88.5 -38t32.5 -105z" />
    <glyph glyph-name="gcommaaccent" unicode="&#x123;" horiz-adv-x="1224" 
d="M684 1245q0 -47 -32 -78.5t-79 -31.5q-56 0 -88 38t-32 105q0 101 60 161t151 52v-72q-55 4 -85.5 -17t-33.5 -63q15 9 39 9q42 0 71 -30t29 -73zM76 526q0 142 57 256t165.5 181t250.5 67q121 0 211.5 -52t138.5 -147l14 170h172v-960q0 -236 -135.5 -376t-365.5 -140
q-204 0 -336 108.5t-160 298.5h193q19 -111 98 -172t205 -61q141 0 226 85.5t85 227.5v201q-50 -88 -143 -137t-211 -49q-139 0 -246 66t-163 179t-56 254zM268 530q0 -144 83.5 -239.5t221.5 -95.5q144 0 229 92.5t85 242.5q0 148 -83.5 240t-228.5 92q-141 0 -224 -94.5
t-83 -237.5z" />
    <glyph glyph-name="Hbar" unicode="&#x126;" horiz-adv-x="1478" 
d="M373 0h-201v1106h-166v172h166v203h201v-203h733v203h201v-203h168v-172h-168v-1106h-201v657h-733v-657zM373 844h733v262h-733v-262z" />
    <glyph glyph-name="hbar" unicode="&#x127;" horiz-adv-x="1177" 
d="M332 2h-193v1180h-127v123h127v202h193v-202h323v-123h-323v-334q49 84 137.5 133t202.5 49q188 0 283.5 -110.5t95.5 -307.5v-612h-193v569q0 146 -63.5 215.5t-176.5 69.5q-135 0 -210.5 -86.5t-75.5 -220.5v-545z" />
    <glyph glyph-name="Itilde" unicode="&#x128;" horiz-adv-x="546" 
d="M80 1616h-123q-9 115 37 182.5t131 67.5q41 0 81.5 -18t67 -39.5t59 -39.5t60.5 -18q72 0 72 115h123q7 -123 -39.5 -186.5t-138.5 -63.5q-44 0 -85.5 18t-67.5 39.5t-56.5 39.5t-53.5 18q-67 0 -67 -115zM373 1481v-1481h-201v1481h201z" />
    <glyph glyph-name="itilde" unicode="&#x129;" horiz-adv-x="471" 
d="M43 1145h-123q-9 115 37 182.5t131 67.5q41 0 81.5 -18t67 -39.5t59 -39.5t60.5 -18q72 0 72 115h123q7 -122 -40 -186t-138 -64q-44 0 -85 18t-67.5 39.5t-56.5 39.5t-53 18q-68 0 -68 -115zM139 0v1001h193v-1001h-193z" />
    <glyph glyph-name="Imacron" unicode="&#x12a;" horiz-adv-x="546" 
d="M18 1686v141h510v-141h-510zM373 1481v-1481h-201v1481h201z" />
    <glyph glyph-name="imacron" unicode="&#x12b;" horiz-adv-x="471" 
d="M-18 1214v142h510v-142h-510zM139 0v1001h193v-1001h-193z" />
    <glyph glyph-name="Iogonek" unicode="&#x12e;" horiz-adv-x="546" 
d="M248 0h-76v1481h201v-1481q-64 -25 -97.5 -64.5t-33.5 -78.5q0 -33 20.5 -51.5t54.5 -18.5q27 0 50 10v-137q-38 -14 -88 -14q-78 0 -126.5 47t-48.5 119q0 57 37 107.5t107 80.5z" />
    <glyph glyph-name="iogonek" unicode="&#x12f;" horiz-adv-x="471" 
d="M233 1239q-53 0 -90 37.5t-37 89.5q0 54 37 90.5t90 36.5t90 -36.5t37 -90.5q0 -52 -37 -89.5t-90 -37.5zM139 0v1001h193v-1001h-2q-64 -25 -97.5 -64.5t-33.5 -78.5q0 -33 20.5 -51.5t54.5 -18.5q28 0 50 10v-137q-38 -14 -88 -14q-78 0 -126.5 47t-48.5 119
q0 57 37.5 107.5t106.5 80.5h-66z" />
    <glyph glyph-name="Idotaccent" unicode="&#x130;" horiz-adv-x="546" 
d="M272 1622q-51 0 -85.5 35.5t-34.5 85.5q0 51 35.5 88t84.5 37q50 0 86.5 -37t36.5 -88q0 -49 -36.5 -85t-86.5 -36zM373 1481v-1481h-201v1481h201z" />
    <glyph glyph-name="dotlessi" unicode="&#x131;" horiz-adv-x="471" 
d="M139 0v1001h193v-1001h-193z" />
    <glyph glyph-name="Jcircumflex" unicode="&#x134;" horiz-adv-x="1083" 
d="M702 1591h-157l168 281h215l170 -281h-160l-117 191zM41 412v73h195v-73q0 -113 62 -181.5t181 -68.5q122 0 182 68t60 188v1063h201v-1071q0 -198 -122 -316.5t-321 -118.5q-208 0 -323 120t-115 317z" />
    <glyph glyph-name="jcircumflex" unicode="&#x135;" horiz-adv-x="471" 
d="M119 1118h-160l170 283h215l170 -283h-160l-116 193zM-115 -455l33 174q55 -14 92 -14q68 0 98.5 40t30.5 126v1130h193v-1148q0 -152 -80 -239t-225 -87q-78 0 -142 18z" />
    <glyph glyph-name="Kcommaaccent" unicode="&#x136;" horiz-adv-x="1316" 
d="M373 1481v-840l659 840h240l-496 -629l504 -852h-233l-404 682l-270 -342v-340h-201v1481h201zM813 -217q0 -100 -60.5 -159.5t-150.5 -51.5v70q54 -4 84.5 17t32.5 62q-15 -6 -37 -6q-43 0 -71.5 29t-28.5 72q0 50 30 80t80 30q56 0 88.5 -38t32.5 -105z" />
    <glyph glyph-name="kcommaaccent" unicode="&#x137;" horiz-adv-x="1040" 
d="M336 0h-193v1507h193v-977l444 471h242l-383 -399l381 -602h-221l-293 463l-170 -178v-285zM647 -217q0 -101 -60 -160t-151 -51v70q54 -4 85 18t34 64q-15 -9 -39 -9q-43 0 -71.5 29t-28.5 72q0 49 31 79.5t81 30.5q55 0 87 -38t32 -105z" />
    <glyph glyph-name="Lacute" unicode="&#x139;" horiz-adv-x="1069" 
d="M528 1843l-178 -270h-147l137 270h188zM373 1481v-1295h651v-186h-852v1481h201z" />
    <glyph glyph-name="lacute" unicode="&#x13a;" horiz-adv-x="479" 
d="M494 1858l-177 -271h-149l139 271h187zM336 0h-193v1507h193v-1507z" />
    <glyph glyph-name="Lcommaaccent" unicode="&#x13b;" horiz-adv-x="1069" 
d="M373 1481v-1295h651v-186h-852v1481h201zM707 -217q0 -101 -60 -160t-151 -51v70q54 -4 84.5 18t33.5 64q-15 -9 -39 -9q-43 0 -71.5 29t-28.5 72q0 49 31.5 79.5t79.5 30.5q56 0 88.5 -38t32.5 -105z" />
    <glyph glyph-name="lcommaaccent" unicode="&#x13c;" horiz-adv-x="479" 
d="M336 0h-193v1507h193v-1507zM352 -217q0 -101 -60 -160t-151 -51v70q54 -4 85 18t34 64q-15 -9 -39 -9q-43 0 -71.5 29t-28.5 72q0 49 31 79.5t81 30.5q55 0 87 -38t32 -105z" />
    <glyph glyph-name="Lcaron" unicode="&#x13d;" horiz-adv-x="1069" 
d="M373 1481v-1295h651v-186h-852v1481h201zM481 1139v342h168l-45 -342h-123z" />
    <glyph glyph-name="lcaron" unicode="&#x13e;" horiz-adv-x="479" 
d="M336 0h-193v1507h193v-1507zM442 1165v342h168l-43 -342h-125z" />
    <glyph glyph-name="Ldot" unicode="&#x13f;" horiz-adv-x="1069" 
d="M373 1481v-1295h651v-186h-852v1481h201zM678 629q-48 0 -83.5 34.5t-35.5 81.5q0 49 34.5 83t84.5 34q47 0 82 -35t35 -82t-35 -81.5t-82 -34.5z" />
    <glyph glyph-name="ldot" unicode="&#x140;" horiz-adv-x="727" 
d="M336 0h-193v1507h193v-1507zM604 623q-51 0 -87 34.5t-36 83.5q0 51 36 87t87 36q50 0 85.5 -36t35.5 -87q0 -47 -36 -82.5t-85 -35.5z" />
    <glyph glyph-name="Lslash" unicode="&#x141;" horiz-adv-x="1069" 
d="M33 524v164l139 66v727h201v-631l350 168v-164l-350 -168v-500h651v-186h-852v590z" />
    <glyph glyph-name="lslash" unicode="&#x142;" horiz-adv-x="479" 
d="M336 0h-193v668l-118 -58v146l118 57v694h193v-602l121 58v-146l-121 -57v-760z" />
    <glyph glyph-name="Nacute" unicode="&#x143;" horiz-adv-x="1503" 
d="M1010 1862l-176 -273h-148l137 273h187zM373 0h-201v1481h201l757 -1145v1145h201v-1481h-201l-757 1145v-1145z" />
    <glyph glyph-name="nacute" unicode="&#x144;" horiz-adv-x="1177" 
d="M852 1391l-176 -273h-148l138 273h186zM332 0h-193v1001h174l21 -153q47 85 136 133.5t196 48.5q193 0 289 -110t96 -308v-612h-193v569q0 285 -242 285q-133 0 -208.5 -88t-75.5 -236v-530z" />
    <glyph glyph-name="Ncommaaccent" unicode="&#x145;" horiz-adv-x="1503" 
d="M373 0h-201v1481h201l757 -1145v1145h201v-1481h-201l-757 1145v-1145zM874 -217q0 -101 -59.5 -160t-150.5 -51v70q54 -4 84.5 18t33.5 64q-15 -9 -39 -9q-43 0 -71.5 29t-28.5 72q0 49 31.5 79.5t81.5 30.5q54 0 86 -38t32 -105z" />
    <glyph glyph-name="ncommaaccent" unicode="&#x146;" horiz-adv-x="1177" 
d="M332 0h-193v1001h174l21 -153q47 85 136 133.5t196 48.5q193 0 289 -110t96 -308v-612h-193v569q0 285 -242 285q-133 0 -208.5 -88t-75.5 -236v-530zM705 -217q0 -100 -60.5 -159.5t-150.5 -51.5v70q53 -4 83 18t33 64q-15 -9 -37 -9q-43 0 -72.5 29t-29.5 72
q0 49 31.5 79.5t81.5 30.5q55 0 88 -38t33 -105z" />
    <glyph glyph-name="Ncaron" unicode="&#x147;" horiz-adv-x="1503" 
d="M649 1589l-170 283h160l117 -191l116 191h160l-168 -283h-215zM373 0h-201v1481h201l757 -1145v1145h201v-1481h-201l-757 1145v-1145z" />
    <glyph glyph-name="ncaron" unicode="&#x148;" horiz-adv-x="1177" 
d="M492 1118l-170 283h159l117 -191l117 191h159l-167 -283h-215zM332 0h-193v1001h174l21 -153q47 85 136 133.5t196 48.5q193 0 289 -110t96 -308v-612h-193v569q0 285 -242 285q-133 0 -208.5 -88t-75.5 -236v-530z" />
    <glyph glyph-name="Eng" unicode="&#x14a;" horiz-adv-x="1503" 
d="M1026 -473q-93 0 -172 24l35 173q62 -19 112 -19q138 0 138 166v117l-766 1159v-1147h-201v1481h201l757 -1145v1145h201v-1628q0 -152 -80 -239t-225 -87z" />
    <glyph glyph-name="eng" unicode="&#x14b;" horiz-adv-x="1177" 
d="M332 0h-193v1001h174l21 -153q47 85 136 133.5t196 48.5q193 0 289 -110t96 -308v-759q0 -152 -80.5 -239t-225.5 -87q-77 0 -141 18l33 174q55 -14 92 -14q68 0 98.5 40t30.5 126v698q0 285 -242 285q-133 0 -208.5 -88t-75.5 -236v-530z" />
    <glyph glyph-name="Omacron" unicode="&#x14c;" horiz-adv-x="1591" 
d="M541 1686v141h510v-141h-510zM1507 741q0 -223 -90.5 -397.5t-253 -271.5t-370.5 -97q-207 0 -368.5 97t-251 271.5t-89.5 397.5q0 222 90 396.5t252.5 272t368.5 97.5q208 0 370 -97t252 -271.5t90 -397.5zM1296 741q0 258 -137.5 415t-363.5 157t-363 -157t-137 -415
t137 -415.5t363 -157.5q225 0 363 158t138 415z" />
    <glyph glyph-name="omacron" unicode="&#x14d;" horiz-adv-x="1189" 
d="M340 1214v142h510v-142h-510zM74 502q0 231 147.5 378.5t374.5 147.5q225 0 372.5 -147.5t147.5 -378.5t-147.5 -379t-372.5 -148q-227 0 -374.5 148t-147.5 379zM268 502q0 -157 91 -256t237 -99q145 0 236.5 99t91.5 256t-91.5 255.5t-236.5 98.5q-146 0 -237 -98.5
t-91 -255.5z" />
    <glyph glyph-name="Ohungarumlaut" unicode="&#x150;" horiz-adv-x="1591" 
d="M918 1862l-177 -273h-141l145 273h173zM1194 1862l-195 -273h-143l162 273h176zM1507 741q0 -223 -90.5 -397.5t-253 -271.5t-370.5 -97q-207 0 -368.5 97t-251 271.5t-89.5 397.5q0 222 90 396.5t252.5 272t368.5 97.5q208 0 370 -97t252 -271.5t90 -397.5zM1296 741
q0 258 -137.5 415t-363.5 157t-363 -157t-137 -415t137 -415.5t363 -157.5q225 0 363 158t138 415z" />
    <glyph glyph-name="ohungarumlaut" unicode="&#x151;" horiz-adv-x="1189" 
d="M717 1391l-174 -273h-142l144 273h172zM993 1391l-194 -273h-144l162 273h176zM74 502q0 231 147.5 378.5t374.5 147.5q225 0 372.5 -147.5t147.5 -378.5t-147.5 -379t-372.5 -148q-227 0 -374.5 148t-147.5 379zM268 502q0 -157 91 -256t237 -99q145 0 236.5 99
t91.5 256t-91.5 255.5t-236.5 98.5q-146 0 -237 -98.5t-91 -255.5z" />
    <glyph glyph-name="OE" unicode="&#x152;" horiz-adv-x="2342" 
d="M84 743q0 219 90 393t254.5 272.5t374.5 98.5q160 0 301 -65.5t219 -177.5v217h899v-185h-698v-462h630v-179h-630v-469h698v-186h-899v240q-66 -119 -208.5 -192t-313.5 -73q-157 0 -291 58t-227.5 159.5t-146 243.5t-52.5 307zM295 745q0 -258 145 -417.5t369 -159.5
t367 158.5t143 416.5q0 257 -143.5 414.5t-368.5 157.5q-224 0 -368 -157.5t-144 -412.5z" />
    <glyph glyph-name="oe" unicode="&#x153;" horiz-adv-x="1966" 
d="M74 502q0 231 147.5 378.5t374.5 147.5q133 0 242.5 -55.5t177.5 -155.5q64 101 168.5 157t234.5 56q214 0 342.5 -135t128.5 -358v-72l-774 -2q11 -158 92.5 -243t223.5 -85q229 0 280 176h180q-37 -161 -158 -248.5t-307 -87.5q-133 0 -239 56t-170 157
q-68 -101 -177.5 -157t-244.5 -56q-227 0 -374.5 148t-147.5 379zM1419 868q-126 0 -203 -72t-96 -204h580q0 125 -77 200.5t-204 75.5zM268 502q0 -157 91 -256t237 -99q145 0 236.5 99t91.5 256t-91.5 255.5t-236.5 98.5q-146 0 -237 -98.5t-91 -255.5z" />
    <glyph glyph-name="Racute" unicode="&#x154;" horiz-adv-x="1339" 
d="M887 1862l-176 -271h-150l139 271h187zM373 0h-201v1481h559q237 0 371.5 -118.5t134.5 -326.5q0 -154 -74.5 -260.5t-212.5 -150.5l301 -625h-223l-276 586h-379v-586zM373 1300v-536h360q139 0 216 71t77 199t-78 197t-217 69h-358z" />
    <glyph glyph-name="racute" unicode="&#x155;" horiz-adv-x="753" 
d="M651 1399l-176 -273h-149l137 273h188zM713 1010v-176h-86q-137 0 -216 -80t-79 -224v-530h-193v999h180l13 -151q31 80 104 127t174 47q44 0 103 -12z" />
    <glyph glyph-name="Rcommaaccent" unicode="&#x156;" horiz-adv-x="1339" 
d="M373 0h-201v1481h559q237 0 371.5 -118.5t134.5 -326.5q0 -154 -74.5 -260.5t-212.5 -150.5l301 -625h-223l-276 586h-379v-586zM373 1300v-536h360q139 0 216 71t77 199t-78 197t-217 69h-358zM815 -217q0 -100 -60.5 -159.5t-150.5 -51.5v70q53 -4 83.5 18t33.5 64
q-15 -9 -37 -9q-43 0 -72.5 29t-29.5 72q0 49 31 79.5t81 30.5q55 0 88 -38t33 -105z" />
    <glyph glyph-name="rcommaaccent" unicode="&#x157;" horiz-adv-x="753" 
d="M713 1010v-176h-86q-137 0 -216 -80t-79 -224v-530h-193v999h180l13 -151q31 80 104 127t174 47q44 0 103 -12zM348 -217q0 -101 -60 -160t-151 -51v70q54 -4 85 18t34 64q-15 -9 -39 -9q-43 0 -71.5 29t-28.5 72q0 49 31 79.5t81 30.5q55 0 87 -38t32 -105z" />
    <glyph glyph-name="Rcaron" unicode="&#x158;" horiz-adv-x="1339" 
d="M524 1591l-168 281h160l117 -191l117 191h159l-170 -281h-215zM373 0h-201v1481h559q237 0 371.5 -118.5t134.5 -326.5q0 -154 -74.5 -260.5t-212.5 -150.5l301 -625h-223l-276 586h-379v-586zM373 1300v-536h360q139 0 216 71t77 199t-78 197t-217 69h-358z" />
    <glyph glyph-name="rcaron" unicode="&#x159;" horiz-adv-x="753" 
d="M289 1126l-170 283h160l118 -192l117 192h160l-170 -283h-215zM713 1010v-176h-86q-137 0 -216 -80t-79 -224v-530h-193v999h180l13 -151q31 80 104 127t174 47q44 0 103 -12z" />
    <glyph glyph-name="Sacute" unicode="&#x15a;" horiz-adv-x="1181" 
d="M840 1862l-176 -273h-148l137 273h187zM86 1081q0 191 140.5 308.5t369.5 117.5q212 0 340.5 -110.5t140.5 -302.5h-203q-7 110 -81 171.5t-199 61.5q-139 0 -223 -65.5t-84 -174.5q0 -174 207 -223l243 -57q365 -83 365 -395q0 -199 -142.5 -318t-379.5 -119
q-226 0 -365.5 111t-148.5 301h204q3 -106 87 -168.5t223 -62.5q148 0 234.5 64.5t86.5 174.5q0 175 -205 223l-243 56q-181 41 -274 144t-93 263z" />
    <glyph glyph-name="sacute" unicode="&#x15b;" horiz-adv-x="917" 
d="M715 1425l-176 -272h-150l137 272h189zM57 291h185q0 -77 54.5 -120.5t149.5 -43.5q101 0 157 39t56 108q0 53 -30.5 84.5t-106.5 51.5l-176 41q-134 32 -198 100t-64 178q0 137 105 219t272 82q164 0 263.5 -85t102.5 -228h-184q-3 76 -52 120t-136 44
q-90 0 -139.5 -38.5t-49.5 -107.5q0 -99 148 -137l176 -43q130 -31 192 -94.5t62 -173.5q0 -142 -111 -227t-291 -85q-176 0 -280.5 86.5t-104.5 229.5z" />
    <glyph glyph-name="Scircumflex" unicode="&#x15c;" horiz-adv-x="1181" 
d="M469 1589h-160l170 283h213l170 -283h-160l-116 193zM86 1081q0 191 140.5 308.5t369.5 117.5q212 0 340.5 -110.5t140.5 -302.5h-203q-7 110 -81 171.5t-199 61.5q-139 0 -223 -65.5t-84 -174.5q0 -174 207 -223l243 -57q365 -83 365 -395q0 -199 -142.5 -318
t-379.5 -119q-226 0 -365.5 111t-148.5 301h204q3 -106 87 -168.5t223 -62.5q148 0 234.5 64.5t86.5 174.5q0 175 -205 223l-243 56q-181 41 -274 144t-93 263z" />
    <glyph glyph-name="scircumflex" unicode="&#x15d;" horiz-adv-x="917" 
d="M342 1153h-160l170 283h215l170 -283h-159l-117 190zM57 291h185q0 -77 54.5 -120.5t149.5 -43.5q101 0 157 39t56 108q0 53 -30.5 84.5t-106.5 51.5l-176 41q-134 32 -198 100t-64 178q0 137 105 219t272 82q164 0 263.5 -85t102.5 -228h-184q-3 76 -52 120t-136 44
q-90 0 -139.5 -38.5t-49.5 -107.5q0 -99 148 -137l176 -43q130 -31 192 -94.5t62 -173.5q0 -142 -111 -227t-291 -85q-176 0 -280.5 86.5t-104.5 229.5z" />
    <glyph glyph-name="Scedilla" unicode="&#x15e;" horiz-adv-x="1181" 
d="M453 -371v99q75 -35 125 -35q47 0 74.5 20t27.5 54q0 33 -22.5 51t-61.5 18q-49 0 -100 -22l-23 59l49 104q-202 14 -324.5 123t-131.5 287h204q3 -106 87 -168.5t223 -62.5q148 0 234.5 64.5t86.5 174.5q0 175 -205 223l-243 56q-181 41 -274 144t-93 263
q0 191 140.5 308.5t369.5 117.5q212 0 340.5 -110.5t140.5 -302.5h-203q-7 110 -81 171.5t-199 61.5q-139 0 -223 -65.5t-84 -174.5q0 -174 207 -223l243 -57q365 -83 365 -395q0 -192 -132.5 -310t-355.5 -127l-32 -67q33 10 63 10q63 0 107.5 -38.5t44.5 -108.5
q0 -84 -59 -129t-146 -45q-85 0 -139 32z" />
    <glyph glyph-name="scedilla" unicode="&#x15f;" horiz-adv-x="917" 
d="M57 291h185q0 -77 54.5 -120.5t149.5 -43.5q101 0 157 39t56 108q0 53 -30.5 84.5t-106.5 51.5l-176 41q-134 32 -198 100t-64 178q0 137 105 219t272 82q164 0 263.5 -85t102.5 -228h-184q-3 76 -52 120t-136 44q-90 0 -139.5 -38.5t-49.5 -107.5q0 -99 148 -137
l176 -43q130 -31 192 -94.5t62 -173.5q0 -134 -100.5 -218t-264.5 -92l-33 -69q33 10 64 10q63 0 107.5 -38.5t44.5 -108.5q0 -84 -58.5 -129t-146.5 -45q-86 0 -140 32v99q75 -35 127 -35q46 0 73.5 20t27.5 54q0 33 -22.5 51t-61.5 18q-50 0 -101 -22l-22 59l49 104
q-152 14 -241 98t-89 216z" />
    <glyph glyph-name="Scaron" unicode="&#x160;" horiz-adv-x="1181" 
d="M479 1589l-170 283h160l117 -191l116 191h160l-170 -283h-213zM86 1081q0 191 140.5 308.5t369.5 117.5q212 0 340.5 -110.5t140.5 -302.5h-203q-7 110 -81 171.5t-199 61.5q-139 0 -223 -65.5t-84 -174.5q0 -174 207 -223l243 -57q365 -83 365 -395q0 -199 -142.5 -318
t-379.5 -119q-226 0 -365.5 111t-148.5 301h204q3 -106 87 -168.5t223 -62.5q148 0 234.5 64.5t86.5 174.5q0 175 -205 223l-243 56q-181 41 -274 144t-93 263z" />
    <glyph glyph-name="scaron" unicode="&#x161;" horiz-adv-x="917" 
d="M352 1153l-170 283h160l119 -193l117 193h159l-170 -283h-215zM57 291h185q0 -77 54.5 -120.5t149.5 -43.5q101 0 157 39t56 108q0 53 -30.5 84.5t-106.5 51.5l-176 41q-134 32 -198 100t-64 178q0 137 105 219t272 82q164 0 263.5 -85t102.5 -228h-184q-3 76 -52 120
t-136 44q-90 0 -139.5 -38.5t-49.5 -107.5q0 -99 148 -137l176 -43q130 -31 192 -94.5t62 -173.5q0 -142 -111 -227t-291 -85q-176 0 -280.5 86.5t-104.5 229.5z" />
    <glyph glyph-name="Tcedilla" unicode="&#x162;" horiz-adv-x="1150" 
d="M446 -371v99q75 -35 127 -35q46 0 73.5 20t27.5 54q0 33 -22.5 51t-61.5 18q-50 0 -101 -22l-22 59l59 127h-51v1296h-446v185h1091v-185h-444v-1296h-55l-46 -92q33 10 64 10q63 0 107.5 -38.5t44.5 -108.5q0 -84 -58.5 -129t-146.5 -45q-86 0 -140 32z" />
    <glyph glyph-name="tcedilla" unicode="&#x163;" horiz-adv-x="651" 
d="M201 -371v99q75 -35 127 -35q46 0 73 20t27 54q0 33 -22.5 51t-61.5 18q-49 0 -100 -22l-23 59l60 127h-52v840h-196v161h196v314h193v-314h196v-161h-196v-840h-47l-45 -92q33 10 63 10q63 0 107.5 -38.5t44.5 -108.5q0 -84 -58.5 -129t-146.5 -45q-85 0 -139 32z" />
    <glyph glyph-name="Tcaron" unicode="&#x164;" horiz-adv-x="1150" 
d="M467 1589l-170 283h160l118 -191l117 191h160l-170 -283h-215zM29 1296v185h1091v-185h-444v-1296h-201v1296h-446z" />
    <glyph glyph-name="tcaron" unicode="&#x165;" horiz-adv-x="651" 
d="M510 1141v342h168l-43 -342h-125zM422 0h-193v840h-196v161h196v314h193v-314h196v-161h-196v-840z" />
    <glyph glyph-name="Tbar" unicode="&#x166;" horiz-adv-x="1150" 
d="M250 713v168h225v415h-446v185h1091v-185h-444v-415h225v-168h-225v-713h-201v713h-225z" />
    <glyph glyph-name="tbar" unicode="&#x167;" horiz-adv-x="651" 
d="M422 0h-193v465h-145v149h145v226h-196v161h196v314h193v-314h196v-161h-196v-226h145v-149h-145v-465z" />
    <glyph glyph-name="Utilde" unicode="&#x168;" horiz-adv-x="1456" 
d="M537 1616h-123q-10 115 35.5 182.5t132.5 67.5q41 0 81.5 -18t66.5 -39.5t59 -39.5t61 -18q70 0 70 115h122q7 -123 -39 -186.5t-137 -63.5q-44 0 -85 18t-67.5 39.5t-56.5 39.5t-53 18q-67 0 -67 -115zM162 526v955h200v-942q0 -178 95 -273.5t272 -95.5q175 0 269 96
t94 273v942h202v-955q0 -255 -152 -403t-413 -148q-263 0 -415 147.5t-152 403.5z" />
    <glyph glyph-name="utilde" unicode="&#x169;" horiz-adv-x="1161" 
d="M379 1145h-123q-10 115 35.5 182.5t132.5 67.5q41 0 81.5 -18t67 -39.5t59 -39.5t60.5 -18q70 0 70 115h125q6 -123 -40.5 -186.5t-137.5 -63.5q-44 0 -85.5 18t-67.5 39.5t-56.5 39.5t-53.5 18q-67 0 -67 -115zM831 1001h191v-1001h-172l-21 152q-43 -79 -135.5 -128
t-201.5 -49q-173 0 -269 108.5t-96 295.5v622h192v-559q0 -297 240 -297q132 0 202 83.5t70 244.5v528z" />
    <glyph glyph-name="Umacron" unicode="&#x16a;" horiz-adv-x="1456" 
d="M473 1686v141h510v-141h-510zM162 526v955h200v-942q0 -178 95 -273.5t272 -95.5q175 0 269 96t94 273v942h202v-955q0 -255 -152 -403t-413 -148q-263 0 -415 147.5t-152 403.5z" />
    <glyph glyph-name="umacron" unicode="&#x16b;" horiz-adv-x="1161" 
d="M317 1214v142h508v-142h-508zM831 1001h191v-1001h-172l-21 152q-43 -79 -135.5 -128t-201.5 -49q-173 0 -269 108.5t-96 295.5v622h192v-559q0 -297 240 -297q132 0 202 83.5t70 244.5v528z" />
    <glyph glyph-name="Uring" unicode="&#x16e;" horiz-adv-x="1456" 
d="M729 1575q-106 0 -174 68t-68 172q0 102 69.5 170.5t172.5 68.5q101 0 170.5 -69t69.5 -170q0 -102 -69 -171t-171 -69zM729 1690q54 0 86.5 35t32.5 92q0 54 -33.5 89.5t-85.5 35.5q-53 0 -86 -35t-33 -90q0 -57 32.5 -92t86.5 -35zM162 526v955h200v-942
q0 -178 95 -273.5t272 -95.5q175 0 269 96t94 273v942h202v-955q0 -255 -152 -403t-413 -148q-263 0 -415 147.5t-152 403.5z" />
    <glyph glyph-name="uring" unicode="&#x16f;" horiz-adv-x="1161" 
d="M571 1104q-106 0 -173.5 67.5t-67.5 171.5q0 103 69 171.5t172 68.5q102 0 171 -69t69 -171q0 -101 -68.5 -170t-171.5 -69zM571 1219q54 0 86.5 35t32.5 92q0 54 -33.5 89t-85.5 35q-53 0 -85.5 -34.5t-32.5 -89.5q0 -57 32 -92t86 -35zM831 1001h191v-1001h-172
l-21 152q-43 -79 -135.5 -128t-201.5 -49q-173 0 -269 108.5t-96 295.5v622h192v-559q0 -297 240 -297q132 0 202 83.5t70 244.5v528z" />
    <glyph glyph-name="Uhungarumlaut" unicode="&#x170;" horiz-adv-x="1456" 
d="M850 1862l-174 -273h-141l143 273h172zM1126 1862l-194 -273h-144l162 273h176zM162 526v955h200v-942q0 -178 95 -273.5t272 -95.5q175 0 269 96t94 273v942h202v-955q0 -255 -152 -403t-413 -148q-263 0 -415 147.5t-152 403.5z" />
    <glyph glyph-name="uhungarumlaut" unicode="&#x171;" horiz-adv-x="1161" 
d="M692 1391l-174 -273h-141l143 273h172zM969 1391l-195 -273h-143l162 273h176zM831 1001h191v-1001h-172l-21 152q-43 -79 -135.5 -128t-201.5 -49q-173 0 -269 108.5t-96 295.5v622h192v-559q0 -297 240 -297q132 0 202 83.5t70 244.5v528z" />
    <glyph glyph-name="Uogonek" unicode="&#x172;" horiz-adv-x="1456" 
d="M162 526v955h200v-942q0 -178 95 -273.5t272 -95.5q175 0 269 96t94 273v942h202v-955q0 -206 -101 -344t-282 -184q-61 -25 -93 -64t-32 -77q0 -33 21 -51.5t55 -18.5q26 0 49 10v-137q-38 -14 -88 -14q-78 0 -126 47t-48 119q0 98 99 163h-19q-263 0 -415 147.5
t-152 403.5z" />
    <glyph glyph-name="uogonek" unicode="&#x173;" horiz-adv-x="1161" 
d="M897 0h-47l-21 152q-43 -79 -135.5 -128t-201.5 -49q-173 0 -269 108.5t-96 295.5v622h192v-559q0 -297 240 -297q132 0 202 83.5t70 244.5v528h191v-1001q-64 -25 -97.5 -64.5t-33.5 -78.5q0 -33 21 -51.5t55 -18.5q27 0 49 10v-137q-38 -14 -88 -14q-78 0 -126 47
t-48 119q0 58 36.5 108t106.5 80z" />
    <glyph glyph-name="Wcircumflex" unicode="&#x174;" horiz-adv-x="2058" 
d="M911 1589h-159l170 283h215l168 -283h-158l-117 193zM471 0l-440 1481h209l270 -906q44 -171 61 -268q22 106 70 268l281 906h217l278 -906q37 -118 68 -268q30 151 65 266l273 908h205l-447 -1481h-192l-359 1171l-362 -1171h-197z" />
    <glyph glyph-name="wcircumflex" unicode="&#x175;" horiz-adv-x="1572" 
d="M670 1118h-160l170 283h215l168 -283h-158l-117 193zM354 0l-327 1001h198l166 -520q40 -127 62 -237q19 106 65 237l168 520h197l166 -520q39 -118 65 -237q22 109 64 237l168 520h200l-342 -1001h-182l-174 537q-48 146 -64 233q-14 -67 -65 -235l-174 -535h-191z" />
    <glyph glyph-name="Ycircumflex" unicode="&#x176;" horiz-adv-x="1241" 
d="M506 1589h-160l170 283h215l168 -283h-160l-116 193zM522 602l-502 879h226l329 -592q26 -45 50 -98q38 77 49 98l327 592h220l-498 -879v-602h-201v602z" />
    <glyph glyph-name="ycircumflex" unicode="&#x177;" horiz-adv-x="1019" 
d="M397 1118h-159l170 283h213l170 -283h-160l-117 193zM43 -449v158h129q31 0 53.5 2.5t47.5 10.5t43.5 23t36.5 41.5t32 63.5l35 97l-404 1054h203l291 -806l297 806h199l-474 -1226q-51 -128 -128 -186t-193 -58q-83 0 -168 20z" />
    <glyph glyph-name="Ydieresis" unicode="&#x178;" horiz-adv-x="1241" 
d="M459 1622q-49 0 -84 35t-35 84q0 48 35 83.5t84 35.5q47 0 81.5 -35.5t34.5 -83.5q0 -49 -34.5 -84t-81.5 -35zM788 1622q-49 0 -83.5 34.5t-34.5 84.5q0 47 35.5 83t82.5 36t82 -36t35 -83q0 -49 -34.5 -84t-82.5 -35zM522 602l-502 879h226l329 -592q26 -45 50 -98
q38 77 49 98l327 592h220l-498 -879v-602h-201v602z" />
    <glyph glyph-name="Zacute" unicode="&#x179;" horiz-adv-x="1193" 
d="M836 1862l-177 -273h-149l139 273h187zM1120 0h-1046v186l794 1110h-782v185h1032v-181l-801 -1114h803v-186z" />
    <glyph glyph-name="zacute" unicode="&#x17a;" horiz-adv-x="935" 
d="M723 1391l-178 -273h-148l138 273h188zM858 0h-780v156l540 684h-540v161h780v-157l-545 -682h545v-162z" />
    <glyph glyph-name="Zdotaccent" unicode="&#x17b;" horiz-adv-x="1193" 
d="M582 1622q-51 0 -86 35.5t-35 85.5q0 51 36 88t85 37t84.5 -37t35.5 -88q0 -50 -35.5 -85.5t-84.5 -35.5zM1120 0h-1046v186l794 1110h-782v185h1032v-181l-801 -1114h803v-186z" />
    <glyph glyph-name="zdotaccent" unicode="&#x17c;" horiz-adv-x="935" 
d="M467 1151q-49 0 -85 35.5t-36 85.5q0 51 36 88t85 37q50 0 86.5 -37t36.5 -88q0 -49 -36.5 -85t-86.5 -36zM858 0h-780v156l540 684h-540v161h780v-157l-545 -682h545v-162z" />
    <glyph glyph-name="Zcaron" unicode="&#x17d;" horiz-adv-x="1193" 
d="M473 1589l-168 283h160l117 -191l116 191h160l-170 -283h-215zM1120 0h-1046v186l794 1110h-782v185h1032v-181l-801 -1114h803v-186z" />
    <glyph glyph-name="zcaron" unicode="&#x17e;" horiz-adv-x="935" 
d="M360 1118l-170 283h160l119 -191l117 191h159l-170 -283h-215zM858 0h-780v156l540 684h-540v161h780v-157l-545 -682h545v-162z" />
    <glyph glyph-name="florin" unicode="&#x192;" horiz-adv-x="1206" 
d="M150 827h370l51 369q19 141 105.5 219t232.5 78h183v-184h-197q-109 0 -123 -121l-49 -361h360v-180h-385l-94 -686q-36 -272 -325 -272h-187v184h189q49 0 82.5 29t39.5 82l93 663h-346v180z" />
    <glyph glyph-name="Aringacute" unicode="&#x1fa;" horiz-adv-x="1355" 
d="M932 2163l-176 -273h-148l137 273h187zM233 0h-208l516 1411q-50 31 -77.5 83t-27.5 118q0 102 69 170.5t171 68.5q103 0 172.5 -68.5t69.5 -170.5q0 -62 -28.5 -114t-76.5 -85l518 -1413h-211l-133 369h-622zM676 1487q54 0 86.5 35t32.5 92q0 54 -33.5 89.5t-85.5 35.5
q-51 0 -84 -35t-33 -90q0 -57 32 -92t85 -35zM651 1161l-225 -618h502l-228 618q-18 53 -24 86q-4 -22 -25 -86z" />
    <glyph glyph-name="aringacute" unicode="&#x1fb;" horiz-adv-x="1093" 
d="M793 1677l-170 -250h-140l131 250h179zM432 -25q-159 0 -250.5 83t-91.5 221t98 220.5t275 96.5l315 25v28q0 120 -63 174t-172 54q-121 0 -187.5 -51t-66.5 -142h-168q0 114 63.5 196t177.5 121q-49 65 -49 154q0 101 69.5 170.5t170.5 69.5q103 0 172.5 -69.5
t69.5 -170.5q0 -90 -56 -156q228 -89 228 -370v-629h-164l-21 162q-38 -86 -133 -136.5t-217 -50.5zM553 1030q54 0 86.5 34.5t32.5 90.5q0 54 -33.5 89.5t-85.5 35.5q-53 0 -86 -35t-33 -90q0 -56 32.5 -90.5t86.5 -34.5zM487 125q136 0 214.5 83t78.5 224v53l-256 -20
q-239 -22 -239 -180q0 -78 53.5 -119t148.5 -41z" />
    <glyph glyph-name="AEacute" unicode="&#x1fc;" horiz-adv-x="1878" 
d="M1405 1862l-176 -273h-150l140 273h186zM14 0l594 1481h1151v-185h-698v-462h629v-179h-629v-469h698v-186h-899v399h-467l-155 -399h-224zM461 571h399v725h-117z" />
    <glyph glyph-name="aeacute" unicode="&#x1fd;" horiz-adv-x="1806" 
d="M1137 1391l-176 -273h-150l137 273h189zM90 281q0 144 99 221t268 80l321 8v59q0 109 -64 168.5t-177 59.5q-118 0 -183 -51.5t-65 -141.5h-168q0 156 116 251t304 95q123 0 213.5 -47.5t132.5 -128.5q64 84 159.5 130t213.5 46q215 0 343 -136t128 -357v-72l-779 -2
q12 -154 93.5 -241t226.5 -87q113 0 184 45.5t94 130.5h183q-37 -160 -157.5 -248t-307.5 -88q-140 0 -248 61.5t-170 172.5q-50 -108 -157.5 -171t-248.5 -63q-168 0 -261 83t-93 223zM1260 868q-126 0 -206.5 -75.5t-99.5 -202.5h584q0 125 -74.5 201.5t-203.5 76.5z
M285 291q0 -81 55.5 -123.5t153.5 -42.5q132 0 209 74.5t77 199.5v62l-276 -8q-113 -3 -166 -42t-53 -120z" />
    <glyph glyph-name="Oslashacute" unicode="&#x1fe;" horiz-adv-x="1591" 
d="M1040 1847l-178 -270h-147l137 270h188zM1507 741q0 -223 -90.5 -397.5t-253 -271.5t-370.5 -97q-220 0 -394 113l-67 -88h-195l144 190q-197 213 -197 551q0 222 90 396.5t252.5 272t368.5 97.5q229 0 401 -116l70 92h190l-145 -193q95 -102 145.5 -242.5t50.5 -306.5z
M295 741q0 -231 113 -385l665 875q-118 82 -278 82q-226 0 -363 -157t-137 -415zM1296 741q0 231 -112 383l-664 -876q119 -80 275 -80q225 0 363 158t138 415z" />
    <glyph glyph-name="oslashacute" unicode="&#x1ff;" horiz-adv-x="1189" 
d="M850 1391l-178 -273h-148l138 273h188zM74 502q0 231 147.5 378.5t374.5 147.5q121 0 219 -43l64 102h168l-111 -178q86 -72 133 -176t47 -231q0 -231 -147.5 -379t-372.5 -148q-113 0 -211 39l-72 -116h-174l119 192q-87 70 -135.5 176.5t-48.5 235.5zM268 502
q0 -153 88 -254l365 586q-61 22 -125 22q-146 0 -237 -98.5t-91 -255.5zM924 502q0 153 -86 248l-359 -582q53 -21 117 -21q145 0 236.5 99t91.5 256z" />
    <glyph glyph-name="Scommaaccent" unicode="&#x218;" horiz-adv-x="1181" 
d="M86 1081q0 191 140.5 308.5t369.5 117.5q212 0 340.5 -110.5t140.5 -302.5h-203q-7 110 -81 171.5t-199 61.5q-139 0 -223 -65.5t-84 -174.5q0 -174 207 -223l243 -57q365 -83 365 -395q0 -199 -142.5 -318t-379.5 -119q-226 0 -365.5 111t-148.5 301h204
q3 -106 87 -168.5t223 -62.5q148 0 234.5 64.5t86.5 174.5q0 175 -205 223l-243 56q-181 41 -274 144t-93 263zM694 -217q0 -100 -60.5 -159.5t-150.5 -51.5v70q54 -4 84 17t33 62q-15 -6 -37 -6q-43 0 -71.5 29t-28.5 72q0 50 30.5 80t79.5 30q55 0 88 -38t33 -105z" />
    <glyph glyph-name="scommaaccent" unicode="&#x219;" horiz-adv-x="917" 
d="M57 291h185q0 -77 54.5 -120.5t149.5 -43.5q101 0 157 39t56 108q0 53 -30.5 84.5t-106.5 51.5l-176 41q-134 32 -198 100t-64 178q0 137 105 219t272 82q164 0 263.5 -85t102.5 -228h-184q-3 76 -52 120t-136 44q-90 0 -139.5 -38.5t-49.5 -107.5q0 -99 148 -137
l176 -43q130 -31 192 -94.5t62 -173.5q0 -142 -111 -227t-291 -85q-176 0 -280.5 86.5t-104.5 229.5zM559 -217q0 -100 -60.5 -159.5t-150.5 -51.5v70q54 -4 84.5 17t32.5 62q-15 -6 -37 -6q-43 0 -71.5 29t-28.5 72q0 50 30 80t80 30q56 0 88.5 -38t32.5 -105z" />
    <glyph glyph-name="Tcommaaccent" unicode="&#x21a;" horiz-adv-x="1150" 
d="M29 1296v185h1091v-185h-444v-1296h-201v1296h-446zM688 -217q0 -101 -60 -160t-151 -51v70q54 -4 85 18t34 64q-18 -9 -39 -9q-43 0 -71.5 29t-28.5 72q0 49 31 79.5t79 30.5q56 0 88.5 -38t32.5 -105z" />
    <glyph glyph-name="tcommaaccent" unicode="&#x21b;" horiz-adv-x="651" 
d="M422 0h-193v840h-196v161h196v314h193v-314h196v-161h-196v-840zM442 -217q0 -101 -60 -160t-151 -51v70q54 -4 85 18t34 64q-15 -9 -39 -9q-43 0 -71.5 29t-28.5 72q0 49 31.5 79.5t79.5 30.5q56 0 88 -38t32 -105z" />
    <glyph glyph-name="dotlessj" unicode="&#x237;" horiz-adv-x="471" 
d="M-115 -455l33 174q55 -14 92 -14q68 0 98.5 40t30.5 126v1130h193v-1148q0 -152 -80 -239t-225 -87q-78 0 -142 18z" />
    <glyph glyph-name="circumflex" unicode="&#x2c6;" horiz-adv-x="716" 
d="M242 1573h-160l170 280h215l168 -280h-160l-117 190z" />
    <glyph glyph-name="caron" unicode="&#x2c7;" horiz-adv-x="716" 
d="M252 1573l-170 280h160l116 -190l117 190h160l-168 -280h-215z" />
    <glyph glyph-name="breve" unicode="&#x2d8;" horiz-adv-x="778" 
d="M526 1845h146q0 -131 -76.5 -207.5t-206.5 -76.5q-131 0 -208 76t-77 208h148q0 -71 35 -109t102 -38t102 38.5t35 108.5z" />
    <glyph glyph-name="dotaccent" unicode="&#x2d9;" horiz-adv-x="432" 
d="M215 1606q-50 0 -85.5 34.5t-35.5 85.5q0 50 36 86.5t85 36.5t86 -36.5t37 -86.5q0 -49 -36.5 -84.5t-86.5 -35.5z" />
    <glyph glyph-name="ring" unicode="&#x2da;" horiz-adv-x="638" 
d="M319 1556q-104 0 -171.5 68t-67.5 172q0 102 69 171t170 69q103 0 172.5 -68.5t69.5 -171.5q0 -101 -69.5 -170.5t-172.5 -69.5zM319 1671q54 0 86.5 35t32.5 92q0 54 -33.5 89.5t-85.5 35.5t-85 -34.5t-33 -90.5q0 -57 32 -92t86 -35z" />
    <glyph glyph-name="ogonek" unicode="&#x2db;" horiz-adv-x="432" 
d="M231 0h123q-64 -25 -96.5 -64t-32.5 -79q0 -33 20 -51.5t56 -18.5q27 0 47 10v-137q-38 -14 -86 -14q-78 0 -127 47t-49 119q0 57 37.5 107.5t107.5 80.5z" />
    <glyph glyph-name="tilde" unicode="&#x2dc;" horiz-adv-x="817" 
d="M217 1597h-123q-10 115 35.5 183.5t132.5 68.5q41 0 81.5 -18t67 -40t59 -40t60.5 -18q70 0 70 116h123q7 -123 -39 -187.5t-137 -64.5q-44 0 -85 18t-67.5 39.5t-56.5 39.5t-53 18q-68 0 -68 -115z" />
    <glyph glyph-name="hungarumlaut" unicode="&#x2dd;" horiz-adv-x="786" 
d="M399 1843l-174 -270h-141l145 270h170zM678 1843l-195 -270h-143l160 270h178z" />
    <glyph glyph-name="gravecomb" unicode="&#x300;" horiz-adv-x="501" 
d="M414 1573h-148l-176 272h189z" />
    <glyph glyph-name="acutecomb" unicode="&#x301;" horiz-adv-x="503" 
d="M414 1843l-176 -270h-150l139 270h187z" />
    <glyph glyph-name="circumflexcomb" unicode="&#x302;" horiz-adv-x="716" 
d="M242 1573h-160l170 280h215l168 -280h-160l-117 190z" />
    <glyph glyph-name="tildecomb" unicode="&#x303;" horiz-adv-x="817" 
d="M217 1597h-123q-10 115 35.5 183.5t132.5 68.5q41 0 81.5 -18t67 -40t59 -40t60.5 -18q70 0 70 116h123q7 -123 -39 -187.5t-137 -64.5q-44 0 -85 18t-67.5 39.5t-56.5 39.5t-53 18q-68 0 -68 -115z" />
    <glyph glyph-name="macroncomb" unicode="&#x304;" horiz-adv-x="755" 
d="M123 1667v141h510v-141h-510z" />
    <glyph glyph-name="brevecomb" unicode="&#x306;" horiz-adv-x="778" 
d="M526 1845h146q0 -131 -76.5 -207.5t-206.5 -76.5q-131 0 -208 76t-77 208h148q0 -71 35 -109t102 -38t102 38.5t35 108.5z" />
    <glyph glyph-name="dotaccentcomb" unicode="&#x307;" horiz-adv-x="432" 
d="M215 1606q-50 0 -85.5 34.5t-35.5 85.5q0 50 36 86.5t85 36.5t86 -36.5t37 -86.5q0 -49 -36.5 -84.5t-86.5 -35.5z" />
    <glyph glyph-name="dieresiscomb" unicode="&#x308;" horiz-adv-x="804" 
d="M238 1606q-50 0 -83.5 33.5t-33.5 82.5q0 47 35 83t82 36t82.5 -36t35.5 -83t-35.5 -81.5t-82.5 -34.5zM567 1606q-49 0 -82.5 33t-33.5 83q0 48 34.5 83.5t81.5 35.5t83 -36t36 -83t-35.5 -81.5t-83.5 -34.5z" />
    <glyph glyph-name="ringcomb" unicode="&#x30a;" horiz-adv-x="638" 
d="M319 1556q-104 0 -171.5 68t-67.5 172q0 102 69 171t170 69q103 0 172.5 -68.5t69.5 -171.5q0 -101 -69.5 -170.5t-172.5 -69.5zM319 1671q54 0 86.5 35t32.5 92q0 54 -33.5 89.5t-85.5 35.5t-85 -34.5t-33 -90.5q0 -57 32 -92t86 -35z" />
    <glyph glyph-name="hungarumlautcomb" unicode="&#x30b;" horiz-adv-x="786" 
d="M399 1843l-174 -270h-141l145 270h170zM678 1843l-195 -270h-143l160 270h178z" />
    <glyph glyph-name="caroncomb" unicode="&#x30c;" horiz-adv-x="716" 
d="M252 1573l-170 280h160l116 -190l117 190h160l-168 -280h-215z" />
    <glyph glyph-name="commaturnedabovecomb" unicode="&#x312;" horiz-adv-x="403" 
d="M317 1686q0 -50 -30.5 -80.5t-79.5 -30.5q-55 0 -88 38t-33 105q0 100 60.5 159.5t150.5 51.5v-69q-55 3 -85 -18.5t-32 -61.5q15 6 37 6q43 0 71.5 -28.5t28.5 -71.5z" />
    <glyph glyph-name="commaaccentcomb" unicode="&#x326;" horiz-adv-x="403" 
d="M313 -188q0 -101 -60 -161t-151 -52v71q55 -4 85.5 17t33.5 63q-13 -8 -39 -8q-43 0 -71.5 29.5t-28.5 72.5q0 48 32 79.5t81 31.5q54 0 86 -38t32 -105z" />
    <glyph glyph-name="cedillacomb" unicode="&#x327;" horiz-adv-x="497" 
d="M74 -371v99q72 -35 125 -35q46 0 73 20t27 54q0 33 -22.5 51t-61.5 18q-49 0 -100 -22l-23 59l92 195h66v-60l-49 -100q33 10 63 10q63 0 107.5 -38.5t44.5 -108.5q0 -84 -58.5 -129t-146.5 -45q-86 0 -137 32z" />
    <glyph glyph-name="strokeshortcomb" unicode="&#x335;" horiz-adv-x="1089" 
d="M104 1280h644v-125h-644v125z" />
    <glyph glyph-name="slashshortcomb" unicode="&#x337;" horiz-adv-x="509" 
d="M41 635v143l432 207v-143z" />
    <glyph glyph-name="slashlongcomb" unicode="&#x338;" horiz-adv-x="1073" 
d="M991 1104l-735 -1190h-174l739 1190h170z" />
    <glyph glyph-name="Omega" unicode="&#x3a9;" horiz-adv-x="1327" 
d="M584 0h-443v152h195q-88 75 -136 178t-48 219q0 206 145 343.5t369 137.5t368 -137.5t144 -341.5q0 -118 -49.5 -221.5t-139.5 -177.5h197v-152h-443v152q127 51 195 155.5t68 227.5q0 147 -97.5 238t-244.5 91q-146 0 -244 -92t-98 -240q0 -126 70.5 -230.5
t191.5 -149.5v-152z" />
    <glyph glyph-name="pi" unicode="&#x3c0;" horiz-adv-x="1271" 
d="M227 0v840h-192v161h1161v-161h-209v-564q0 -105 105 -108l104 -2v-158q-88 -12 -168 -12q-120 0 -175.5 59t-55.5 191v594h-377v-840h-193z" />
    <glyph glyph-name="Wgrave" unicode="&#x1e80;" horiz-adv-x="2058" 
d="M1100 1589h-150l-174 273h189zM471 0l-440 1481h209l270 -906q44 -171 61 -268q22 106 70 268l281 906h217l278 -906q37 -118 68 -268q30 151 65 266l273 908h205l-447 -1481h-192l-359 1171l-362 -1171h-197z" />
    <glyph glyph-name="wgrave" unicode="&#x1e81;" horiz-adv-x="1572" 
d="M858 1118h-149l-174 273h188zM354 0l-327 1001h198l166 -520q40 -127 62 -237q19 106 65 237l168 520h197l166 -520q39 -118 65 -237q22 109 64 237l168 520h200l-342 -1001h-182l-174 537q-48 146 -64 233q-14 -67 -65 -235l-174 -535h-191z" />
    <glyph glyph-name="Wacute" unicode="&#x1e82;" horiz-adv-x="2058" 
d="M1284 1862l-178 -273h-148l138 273h188zM471 0l-440 1481h209l270 -906q44 -171 61 -268q22 106 70 268l281 906h217l278 -906q37 -118 68 -268q30 151 65 266l273 908h205l-447 -1481h-192l-359 1171l-362 -1171h-197z" />
    <glyph glyph-name="wacute" unicode="&#x1e83;" horiz-adv-x="1572" 
d="M1042 1391l-178 -273h-147l137 273h188zM354 0l-327 1001h198l166 -520q40 -127 62 -237q19 106 65 237l168 520h197l166 -520q39 -118 65 -237q22 109 64 237l168 520h200l-342 -1001h-182l-174 537q-48 146 -64 233q-14 -67 -65 -235l-174 -535h-191z" />
    <glyph glyph-name="Wdieresis" unicode="&#x1e84;" horiz-adv-x="2058" 
d="M864 1622q-49 0 -82.5 34.5t-33.5 84.5q0 48 34.5 83.5t81.5 35.5t82 -36t35 -83q0 -49 -34.5 -84t-82.5 -35zM1194 1622q-49 0 -83 34.5t-34 84.5q0 47 35 83t82 36t82 -36t35 -83q0 -49 -34.5 -84t-82.5 -35zM471 0l-440 1481h209l270 -906q44 -171 61 -268
q22 106 70 268l281 906h217l278 -906q37 -118 68 -268q30 151 65 266l273 908h205l-447 -1481h-192l-359 1171l-362 -1171h-197z" />
    <glyph glyph-name="wdieresis" unicode="&#x1e85;" horiz-adv-x="1572" 
d="M623 1151q-49 0 -83 34.5t-34 84.5q0 47 35 83t82 36t81.5 -35.5t34.5 -83.5q0 -49 -34.5 -84t-81.5 -35zM952 1151q-49 0 -82.5 34.5t-33.5 84.5q0 48 34.5 83.5t81.5 35.5t82 -36t35 -83q0 -49 -34.5 -84t-82.5 -35zM354 0l-327 1001h198l166 -520q40 -127 62 -237
q19 106 65 237l168 520h197l166 -520q39 -118 65 -237q22 109 64 237l168 520h200l-342 -1001h-182l-174 537q-48 146 -64 233q-14 -67 -65 -235l-174 -535h-191z" />
    <glyph glyph-name="Ygrave" unicode="&#x1ef2;" horiz-adv-x="1241" 
d="M694 1589h-149l-174 273h188zM522 602l-502 879h226l329 -592q26 -45 50 -98q38 77 49 98l327 592h220l-498 -879v-602h-201v602z" />
    <glyph glyph-name="ygrave" unicode="&#x1ef3;" horiz-adv-x="1019" 
d="M586 1118h-150l-174 273h187zM43 -449v158h129q31 0 53.5 2.5t47.5 10.5t43.5 23t36.5 41.5t32 63.5l35 97l-404 1054h203l291 -806l297 806h199l-474 -1226q-51 -128 -128 -186t-193 -58q-83 0 -168 20z" />
    <glyph glyph-name="endash" unicode="&#x2013;" horiz-adv-x="1947" 
d="M137 455v172h1673v-172h-1673z" />
    <glyph glyph-name="emdash" unicode="&#x2014;" horiz-adv-x="2402" 
d="M137 455v172h2126v-172h-2126z" />
    <glyph glyph-name="quoteleft" unicode="&#x2018;" horiz-adv-x="536" 
d="M410 1178q0 -59 -37.5 -97.5t-98.5 -38.5q-63 0 -105 49t-42 130q0 112 70 192.5t178 95.5v-86q-61 -12 -99 -49t-38 -86q26 15 57 15q49 0 82 -33.5t33 -91.5z" />
    <glyph glyph-name="quoteright" unicode="&#x2019;" horiz-adv-x="536" 
d="M410 1331q0 -112 -70.5 -193.5t-177.5 -95.5v86q60 11 98.5 48t38.5 86q-23 -13 -57 -13q-48 0 -81.5 33.5t-33.5 91.5q0 59 37 97t98 38q63 0 105.5 -48.5t42.5 -129.5z" />
    <glyph glyph-name="quotesinglbase" unicode="&#x201a;" horiz-adv-x="536" 
d="M410 70q0 -112 -70 -193t-178 -96v88q61 11 99 47.5t38 85.5q-25 -14 -57 -14q-48 0 -81.5 33.5t-33.5 91.5q0 60 37 97.5t98 37.5q64 0 106 -48t42 -130z" />
    <glyph glyph-name="quotedblleft" unicode="&#x201c;" horiz-adv-x="903" 
d="M410 1178q0 -59 -37.5 -97.5t-98.5 -38.5q-63 0 -105 49t-42 130q0 112 70 192.5t178 95.5v-86q-61 -12 -99 -49t-38 -86q26 15 57 15q49 0 82 -33.5t33 -91.5zM776 1178q0 -59 -37.5 -97.5t-97.5 -38.5q-65 0 -107 49t-42 130q0 112 70.5 192.5t178.5 95.5v-86
q-60 -12 -98.5 -49t-38.5 -84q23 13 55 13q49 0 83 -33.5t34 -91.5z" />
    <glyph glyph-name="quotedblright" unicode="&#x201d;" horiz-adv-x="903" 
d="M410 1331q0 -112 -70.5 -193.5t-177.5 -95.5v86q60 11 98.5 48t38.5 86q-23 -13 -57 -13q-48 0 -81.5 33.5t-33.5 91.5q0 59 37 97t98 38q63 0 105.5 -48.5t42.5 -129.5zM776 1331q0 -112 -70.5 -193.5t-179.5 -95.5v86q61 11 99.5 48t38.5 86q-23 -13 -56 -13
q-49 0 -82.5 33.5t-33.5 91.5q0 59 37.5 97t97.5 38q65 0 107 -48.5t42 -129.5z" />
    <glyph glyph-name="quotedblbase" unicode="&#x201e;" horiz-adv-x="903" 
d="M410 70q0 -112 -70 -193t-178 -96v88q61 11 99 47.5t38 85.5q-25 -14 -57 -14q-48 0 -81.5 33.5t-33.5 91.5q0 60 37 97.5t98 37.5q64 0 106 -48t42 -130zM776 70q0 -112 -70.5 -193t-179.5 -96v88q60 11 99 47.5t39 83.5q-21 -12 -56 -12q-49 0 -82.5 33.5t-33.5 91.5
q0 60 37.5 97.5t97.5 37.5q65 0 107 -47.5t42 -130.5z" />
    <glyph glyph-name="dagger" unicode="&#x2020;" horiz-adv-x="645" 
d="M258 567v588h-211v121h211v205h127v-205h211v-121h-211v-588h-127z" />
    <glyph glyph-name="daggerdbl" unicode="&#x2021;" horiz-adv-x="647" 
d="M258 567v240h-207v121h207v192h-211v121h211v240h127v-240h211v-121h-211v-192h215v-121h-215v-240h-127z" />
    <glyph glyph-name="bullet" unicode="&#x2022;" horiz-adv-x="825" 
d="M414 248q-123 0 -213 88t-90 209q0 122 90 211.5t213 89.5q122 0 210.5 -89.5t88.5 -211.5q0 -121 -88.5 -209t-210.5 -88z" />
    <glyph glyph-name="ellipsis" unicode="&#x2026;" horiz-adv-x="1509" 
d="M283 -25q-60 0 -104 43t-44 101q0 60 44 102.5t104 42.5q59 0 102 -42.5t43 -102.5q0 -58 -43 -101t-102 -43zM756 -25q-61 0 -104.5 42.5t-43.5 101.5q0 60 43.5 102.5t104.5 42.5q59 0 102 -42.5t43 -102.5q0 -58 -43 -101t-102 -43zM1227 -25q-60 0 -103 42.5
t-43 101.5q0 60 43 102.5t103 42.5t103.5 -42.5t43.5 -102.5q0 -59 -43.5 -101.5t-103.5 -42.5z" />
    <glyph glyph-name="perthousand" unicode="&#x2030;" horiz-adv-x="2729" 
d="M834 1130q0 -164 -105.5 -270t-269.5 -106q-163 0 -268 106t-105 270q0 166 105 272.5t268 106.5q164 0 269.5 -106.5t105.5 -272.5zM1614 1479l-1125 -1479h-196l1124 1479h197zM676 1130q0 100 -60 163t-157 63q-95 0 -155 -63t-60 -163q0 -98 60 -160.5t155 -62.5
t156 62.5t61 160.5zM1825 350q0 -164 -106 -270.5t-269 -106.5t-269 106.5t-106 270.5q0 165 106 271t269 106t269 -106t106 -271zM2646 350q0 -164 -106 -270.5t-269 -106.5t-269 106.5t-106 270.5q0 165 106 271t269 106t269 -106t106 -271zM1665 350q0 100 -59.5 162.5
t-155.5 62.5q-95 0 -155 -62.5t-60 -162.5q0 -98 60 -160.5t155 -62.5t155 62.5t60 160.5zM2486 350q0 100 -60 162.5t-155 62.5q-96 0 -155.5 -62.5t-59.5 -162.5q0 -98 60 -160.5t155 -62.5t155 62.5t60 160.5z" />
    <glyph glyph-name="minute" unicode="&#x2032;" horiz-adv-x="370" 
d="M274 1399l-38 -381h-103l-39 381q-6 53 22 81.5t68 28.5q41 0 68.5 -28.5t21.5 -81.5z" />
    <glyph glyph-name="guilsinglleft" unicode="&#x2039;" horiz-adv-x="839" 
d="M520 0l-438 500l438 501h238l-439 -501l439 -500h-238z" />
    <glyph glyph-name="guilsinglright" unicode="&#x203a;" horiz-adv-x="839" 
d="M319 0h-237l438 500l-438 501h237l439 -501z" />
    <glyph glyph-name="asterism" unicode="&#x2042;" horiz-adv-x="1851" 
d="M692 1167l-131 50l41 104l127 -41q88 -33 158 -78q-19 81 -19 174v140h113v-140q0 -96 -16 -174q70 46 155 78l129 43l43 -106l-135 -50q-70 -26 -168 -39q53 -48 115 -129l78 -116l-95 -66l-79 113q-60 85 -84 153q-23 -71 -80 -153l-82 -113l-96 66l82 116
q56 77 114 129q-95 12 -170 39zM188 379l-133 49l41 109l129 -45q98 -38 156 -76q-19 121 -19 172v141h115v-141q0 -97 -16 -172q63 42 155 76l129 45l43 -109l-135 -47q-72 -26 -170 -39q55 -53 115 -131l78 -115l-94 -65l-80 112q-48 66 -84 152q-22 -72 -78 -152
l-84 -112l-94 65l80 117q62 83 114 129q-103 14 -168 37zM1198 379l-133 49l41 107l127 -43q83 -29 158 -76q-19 97 -19 172v141h115v-141q0 -92 -17 -172q57 39 154 76l131 45l43 -109l-135 -47q-74 -27 -170 -39q55 -53 115 -131l78 -115l-95 -65l-80 112q-48 66 -84 152
q-23 -75 -77 -152l-84 -112l-95 65l80 117q62 82 117 129q-103 14 -170 37z" />
    <glyph glyph-name="fraction" unicode="&#x2044;" horiz-adv-x="282" 
d="M700 1454l-954 -1454h-164l955 1454h163z" />
    <glyph glyph-name="zero.superior" unicode="&#x2070;" horiz-adv-x="860" 
d="M57 1108q0 210 102.5 338.5t272.5 128.5q173 0 273 -127.5t100 -339.5q0 -208 -102 -334.5t-273 -126.5q-173 0 -273 126t-100 335zM197 1108q0 -159 61.5 -246.5t173.5 -87.5q110 0 171 88t61 246q0 161 -61 250.5t-171 89.5q-112 0 -173.5 -89t-61.5 -251z" />
    <glyph glyph-name="four.superior" unicode="&#x2074;" horiz-adv-x="768" 
d="M748 848h-107v-172h-135v172h-465v127l422 596h178v-598h107v-125zM199 973h307v440z" />
    <glyph glyph-name="five.superior" unicode="&#x2075;" horiz-adv-x="731" 
d="M41 967h137q0 -79 52.5 -129t134.5 -50q84 0 135 51.5t51 137.5t-51 138t-135 52q-104 0 -168 -82l-129 21l112 465h459v-129h-354l-54 -203q60 45 156 45q132 0 217.5 -86.5t85.5 -220.5q0 -139 -90 -227t-233 -88q-141 0 -233.5 86t-92.5 219z" />
    <glyph glyph-name="six.superior" unicode="&#x2076;" horiz-adv-x="776" 
d="M180 1303l205 276h158l-219 -293q38 14 84 14q140 0 227.5 -87t87.5 -224q0 -143 -95 -235t-237 -92q-143 0 -240.5 94.5t-97.5 232.5q0 81 28 149.5t99 164.5zM197 985q0 -87 53.5 -143t140.5 -56q83 0 137 56.5t54 142.5q0 85 -54 141t-137 56q-87 0 -140.5 -55.5
t-53.5 -141.5z" />
    <glyph glyph-name="seven.superior" unicode="&#x2077;" horiz-adv-x="675" 
d="M643 1442l-313 -766h-140l320 766h-477v129h610v-129z" />
    <glyph glyph-name="eight.superior" unicode="&#x2078;" horiz-adv-x="770" 
d="M53 920q0 82 45.5 144t122.5 89q-60 25 -93.5 76.5t-33.5 118.5q0 108 80.5 172.5t210.5 64.5q131 0 211 -64t80 -173q0 -68 -34.5 -120t-94.5 -77q77 -22 122.5 -85t45.5 -146q0 -118 -90.5 -188t-239.5 -70q-150 0 -241 70t-91 188zM215 1337q0 -59 44.5 -96t125.5 -37
q78 0 122 36.5t44 94.5q0 61 -45 95t-121 34q-77 0 -123.5 -34t-46.5 -93zM195 938q0 -72 52 -111t138 -39t138 39t52 111q0 69 -53 109t-139 40q-84 0 -136 -39.5t-52 -109.5z" />
    <glyph glyph-name="nine.superior" unicode="&#x2079;" horiz-adv-x="776" 
d="M596 954l-205 -278h-158l226 297q-49 -17 -88 -17q-140 0 -229 87t-89 223q0 143 96 236t238 93t239 -94.5t97 -234.5q0 -79 -28 -147.5t-99 -164.5zM580 1270q0 87 -53.5 142.5t-139.5 55.5q-84 0 -137 -55.5t-53 -142.5q0 -84 53 -140.5t137 -56.5q85 0 139 56.5
t54 140.5z" />
    <glyph glyph-name="zero.inferior" unicode="&#x2080;" horiz-adv-x="862" 
d="M57 240q0 210 102.5 337.5t272.5 127.5q173 0 273 -127t100 -338q0 -208 -102 -334.5t-273 -126.5q-173 0 -273 126t-100 335zM197 240q0 -159 61.5 -246.5t173.5 -87.5q110 0 171 88t61 246q0 161 -61 249.5t-171 88.5q-112 0 -173.5 -88.5t-61.5 -249.5z" />
    <glyph glyph-name="one.inferior" unicode="&#x2081;" horiz-adv-x="481" 
d="M248 561h-205v129h344v-895h-139v766z" />
    <glyph glyph-name="two.inferior" unicode="&#x2082;" horiz-adv-x="718" 
d="M668 -205h-611v109l324 266q137 113 137 236q0 85 -41 128.5t-119 43.5q-80 0 -124 -50.5t-44 -142.5h-137q3 148 85 234t220 86q139 0 219 -78t80 -215q0 -176 -184 -326l-199 -162h394v-129z" />
    <glyph glyph-name="three.inferior" unicode="&#x2083;" horiz-adv-x="718" 
d="M291 244h-62v94l250 223h-395v129h563v-125l-237 -211q112 -14 185 -87.5t73 -192.5q0 -132 -91.5 -212.5t-226.5 -80.5q-136 0 -221.5 80.5t-85.5 216.5h137q0 -79 46.5 -124.5t125.5 -45.5q78 0 127 45.5t49 122.5q0 70 -42.5 114.5t-123.5 51.5q-23 2 -71 2z" />
    <glyph glyph-name="four.inferior" unicode="&#x2084;" horiz-adv-x="780" 
d="M748 -33h-107v-172h-135v172h-465v127l422 596h178v-598h107v-125zM199 92h307v440z" />
    <glyph glyph-name="five.inferior" unicode="&#x2085;" horiz-adv-x="731" 
d="M41 86h137q0 -79 52.5 -128.5t134.5 -49.5q84 0 135 51t51 137t-51.5 138.5t-134.5 52.5q-104 0 -168 -82l-129 20l112 465h459v-129h-354l-54 -203q60 45 156 45q132 0 217.5 -86.5t85.5 -220.5q0 -139 -90 -227t-233 -88q-141 0 -233.5 86t-92.5 219z" />
    <glyph glyph-name="six.inferior" unicode="&#x2086;" horiz-adv-x="776" 
d="M180 422l205 276h158l-219 -292q38 14 84 14q140 0 227.5 -87t87.5 -224q0 -143 -95 -235.5t-237 -92.5t-240 95t-98 233q0 81 28 149t99 164zM197 104q0 -87 53.5 -142.5t140.5 -55.5q83 0 137 56t54 142q0 85 -54 141t-137 56q-87 0 -140.5 -55.5t-53.5 -141.5z" />
    <glyph glyph-name="seven.inferior" unicode="&#x2087;" horiz-adv-x="675" 
d="M643 561l-313 -766h-140l320 766h-477v129h610v-129z" />
    <glyph glyph-name="eight.inferior" unicode="&#x2088;" horiz-adv-x="770" 
d="M53 39q0 82 45.5 144t122.5 89q-60 25 -93.5 76.5t-33.5 118.5q0 108 80.5 173t210.5 65t210.5 -64.5t80.5 -173.5q0 -68 -34.5 -120t-94.5 -77q77 -22 122.5 -85t45.5 -146q0 -118 -90.5 -188t-239.5 -70q-150 0 -241 70t-91 188zM215 457q0 -59 44.5 -96t125.5 -37
q78 0 122 36.5t44 94.5q0 61 -45 95t-121 34q-77 0 -123.5 -34t-46.5 -93zM195 57q0 -72 52 -110.5t138 -38.5t138 38.5t52 110.5q0 69 -53 109.5t-139 40.5q-84 0 -136 -40t-52 -110z" />
    <glyph glyph-name="nine.inferior" unicode="&#x2089;" horiz-adv-x="776" 
d="M596 74l-205 -279h-158l226 297q-46 -16 -88 -16q-141 0 -229.5 87t-88.5 222q0 143 96 236.5t238 93.5t239 -95t97 -235q0 -79 -28 -147t-99 -164zM580 389q0 87 -53.5 143t-139.5 56q-84 0 -137 -56t-53 -143q0 -84 53 -140t137 -56q85 0 139 56t54 140z" />
    <glyph glyph-name="Euro" unicode="&#x20ac;" horiz-adv-x="1306" 
d="M934 -25q-274 0 -469.5 142t-259.5 393h-158v149h135q-4 54 -4 80q0 28 4 82h-135v150h160q65 251 261.5 393.5t479.5 142.5q139 0 248 -37v-188q-107 35 -242 35q-206 0 -345.5 -89t-194.5 -257h567v-150h-598q-4 -50 -4 -80q0 -28 4 -82h598v-149h-567
q55 -168 193 -257t337 -89q142 0 260 41v-195q-134 -35 -270 -35z" />
    <glyph glyph-name="numero" unicode="&#x2116;" horiz-adv-x="2580" 
d="M2482 1028q0 -207 -140 -345t-351 -138q-206 0 -350 140.5t-144 342.5q0 204 142.5 342.5t351.5 138.5q211 0 351 -137.5t140 -343.5zM373 0h-201v1481h201l757 -1145v1145h201v-1481h-201l-757 1145v-1145zM2300 1026q0 135 -87 222t-222 87t-223.5 -87t-88.5 -222
q0 -130 90.5 -220.5t221.5 -90.5q133 0 221 88.5t88 222.5zM2431 246h-881v170h881v-170z" />
    <glyph glyph-name="soundcopyright" unicode="&#x2117;" horiz-adv-x="1007" 
d="M506 668q-181 0 -302.5 120t-121.5 299q0 178 122 299t302 121t300 -120t120 -300t-120 -299.5t-300 -119.5zM506 737q149 0 247.5 99.5t98.5 250.5t-98.5 251t-247.5 100q-150 0 -249 -100t-99 -251t98.5 -250.5t249.5 -99.5zM440 848h-75v471h180q78 0 126 -43.5
t48 -116.5q0 -78 -47 -123t-127 -45h-105v-143zM440 1247v-184h103q46 0 71 24t25 70q0 44 -25 67t-71 23h-103z" />
    <glyph glyph-name="trademark" unicode="&#x2122;" horiz-adv-x="1314" 
d="M246 1395h-193v86h477v-86h-192v-488h-92v488zM688 907h-86v574h86l211 -482l207 482h86v-574h-86v387l-168 -387h-80l-170 381v-381z" />
    <glyph glyph-name="estimated" unicode="&#x212e;" horiz-adv-x="1595" 
d="M123 723q0 160 50.5 296.5t139.5 231.5t214.5 149t271.5 54q148 0 272 -46.5t213 -132t139 -212.5t50 -283q0 -62 -3 -108h-1142v-369q80 -115 207 -177.5t288 -62.5q157 0 290 75t198 198l78 -29q-75 -151 -227 -238t-343 -87q-206 0 -364.5 93t-245 261.5t-86.5 386.5z
M328 1118v-373h940v410q-76 104 -199 160.5t-270 56.5q-150 0 -272 -68t-199 -186z" />
    <glyph glyph-name="oneeighth" unicode="&#x215b;" horiz-adv-x="1429" 
d="M209 1368h-172v113h295v-707h-123v594zM1212 1454l-956 -1454h-162l953 1454h165zM850 195q0 64 35.5 113t95.5 69q-45 21 -71.5 61.5t-26.5 93.5q0 84 63.5 136.5t165.5 52.5t164.5 -51t62.5 -138q0 -55 -27 -95.5t-73 -59.5q62 -19 97.5 -67.5t35.5 -114.5
q0 -93 -71.5 -149t-188.5 -56q-119 0 -190.5 55.5t-71.5 149.5zM991 518q0 -42 32 -68t89 -26q55 0 87 26.5t32 69.5q0 41 -32.5 66.5t-86.5 25.5q-55 0 -88 -25.5t-33 -68.5zM975 209q0 -51 38 -80t99 -29t98 28.5t37 80.5t-37 80t-98 28t-99 -28t-38 -80z" />
    <glyph glyph-name="threeeighths" unicode="&#x215c;" horiz-adv-x="1505" 
d="M41 999h125q0 -60 34 -93.5t93 -33.5q58 0 91.5 31.5t33.5 87.5q0 61 -41 96t-119 35h-72v82l181 164h-291v113h448v-107l-176 -162q87 -14 140 -70t53 -147q0 -107 -70 -171t-180 -64q-109 0 -179.5 64.5t-70.5 174.5zM1288 1454l-956 -1454h-164l954 1454h166zM926 195
q0 64 35.5 113t95.5 69q-45 21 -72 61.5t-27 93.5q0 84 64 136.5t166 52.5t164.5 -51t62.5 -138q0 -55 -27 -95.5t-73 -59.5q62 -19 97.5 -67.5t35.5 -114.5q0 -94 -71.5 -149.5t-190.5 -55.5q-117 0 -188.5 56t-71.5 149zM1067 518q0 -42 31 -68t88 -26q56 0 88.5 26.5
t32.5 69.5q0 41 -33 66.5t-88 25.5q-54 0 -86.5 -25.5t-32.5 -68.5zM1051 209q0 -51 37.5 -80t97.5 -29q61 0 99 29t38 80q0 52 -38 80t-99 28q-60 0 -97.5 -28t-37.5 -80z" />
    <glyph glyph-name="fiveeighths" unicode="&#x215d;" horiz-adv-x="1536" 
d="M305 762q-109 0 -181.5 66.5t-72.5 177.5h125q0 -61 35.5 -96.5t95.5 -35.5q62 0 98.5 39t36.5 101q0 63 -37 102t-100 39q-40 0 -73 -17t-52 -46l-117 18l93 371h376v-113h-290l-39 -147q45 36 121 36q112 0 177.5 -69t65.5 -174q0 -111 -73 -181.5t-189 -70.5z
M1319 1454l-954 -1454h-164l954 1454h164zM958 195q0 64 35 113t94 69q-45 21 -71.5 61.5t-26.5 93.5q0 85 64.5 137t167.5 52q101 0 164 -51t63 -138q0 -54 -27.5 -95t-72.5 -60q62 -19 97.5 -67.5t35.5 -114.5q0 -93 -72 -149t-190 -56t-189.5 56t-71.5 149zM1098 518
q0 -42 32 -68t89 -26q56 0 88 26.5t32 69.5q0 41 -33 66.5t-87 25.5q-55 0 -88 -25.5t-33 -68.5zM1083 209q0 -51 38 -80t98 -29q61 0 99 29t38 80q0 52 -38 80t-99 28t-98.5 -28t-37.5 -80z" />
    <glyph glyph-name="seveneighths" unicode="&#x215e;" horiz-adv-x="1384" 
d="M399 1366h-374v115h499v-115l-262 -592h-127zM1167 1454l-954 -1454h-164l955 1454h163zM807 195q0 64 35.5 113t95.5 69q-45 21 -71.5 61.5t-26.5 93.5q0 85 63 137t166 52q102 0 164.5 -51t62.5 -138q0 -54 -27.5 -95t-72.5 -60q62 -19 97.5 -67.5t35.5 -114.5
q0 -93 -72 -149t-190 -56q-117 0 -188.5 56t-71.5 149zM946 518q0 -42 32 -68t89 -26q56 0 88.5 26.5t32.5 69.5q0 41 -33.5 66.5t-87.5 25.5t-87.5 -25.5t-33.5 -68.5zM932 209q0 -51 37.5 -80t97.5 -29q61 0 99 29t38 80q0 52 -38 80t-99 28t-98 -28t-37 -80z" />
    <glyph glyph-name="arrowleft" unicode="&#x2190;" horiz-adv-x="1927" 
d="M907 -14l-108 -111l-676 674l676 676l108 -109l-487 -489h1384v-154h-1384z" />
    <glyph glyph-name="arrowup" unicode="&#x2191;" horiz-adv-x="1605" 
d="M233 817l-110 111l680 669l680 -669l-109 -111l-495 486v-1303h-152v1303z" />
    <glyph glyph-name="arrowright" unicode="&#x2192;" horiz-adv-x="1927" 
d="M1020 1180l108 106l676 -674l-676 -673l-108 108l487 490h-1384v151l1384 2z" />
    <glyph glyph-name="arrowdown" unicode="&#x2193;" horiz-adv-x="1593" 
d="M1364 559l106 -108l-673 -676l-674 676l108 108l490 -487v1433h153v-1433z" />
    <glyph glyph-name="arrowboth" unicode="&#x2194;" horiz-adv-x="2230" 
d="M123 541l500 501v-223l-205 -203l471 2v3h459l464 -3l-204 201v223l499 -499l-497 -506v225l202 203l-919 -2v2l-475 -2l207 -205v-221z" />
    <glyph glyph-name="arrowupdn" unicode="&#x2195;" horiz-adv-x="1251" 
d="M623 -352l-500 499h221l203 -204l-2 473v456l2 465l-203 -204h-221l500 499l505 -499h-223l-203 204v-1394l203 204h223z" />
    <glyph glyph-name="arrowNW" unicode="&#x2196;" horiz-adv-x="1703" 
d="M123 1481h954v-154l-692 -2l1196 -1216l-106 -109l-1199 1217v-691h-153v955z" />
    <glyph glyph-name="arrowNE" unicode="&#x2197;" horiz-adv-x="1728" 
d="M651 1327v154h955v-953h-156v691l-1219 -1219l-108 109l1218 1218h-690z" />
    <glyph glyph-name="arrowSE" unicode="&#x2198;" horiz-adv-x="1724" 
d="M1448 958l154 -2v-954l-955 2v154h690l-1214 1216l108 107l1215 -1215z" />
    <glyph glyph-name="arrowSW" unicode="&#x2199;" horiz-adv-x="1730" 
d="M1079 152l-2 -154h-954v954h156v-690l1220 1221l109 -107l-1221 -1222z" />
    <glyph glyph-name="partialdiff" unicode="&#x2202;" horiz-adv-x="1296" 
d="M111 512q0 154 70.5 276.5t188.5 189t259 66.5q90 0 175 -35.5t144 -101.5q-56 155 -164 292t-295 296h246q229 -209 340 -432.5t111 -474.5q0 -145 -43 -262.5t-118 -193.5t-174.5 -116.5t-213.5 -40.5q-146 0 -265 65t-190 188.5t-71 283.5zM303 510
q0 -160 96.5 -262.5t245.5 -102.5q151 0 247.5 104t96.5 265q0 157 -94.5 256.5t-243.5 99.5q-152 0 -250 -101.5t-98 -258.5z" />
    <glyph glyph-name="emptyset" unicode="&#x2205;" horiz-adv-x="1681" 
d="M836 -25q-148 0 -278 54.5t-228 154.5l-172 -157l-97 102l181 164q-127 198 -127 448q0 163 55.5 305.5t151 243.5t229 159t285.5 58q150 0 281 -55t229 -156l180 164l94 -102l-188 -170q127 -194 127 -447q0 -162 -55.5 -304.5t-151.5 -243.5t-230 -159.5t-286 -58.5z
M307 741q0 -176 78 -319l823 749q-148 154 -372 154q-230 0 -379.5 -163.5t-149.5 -420.5zM836 158q232 0 382 163.5t150 419.5q0 182 -76 318l-823 -750q145 -151 367 -151z" />
    <glyph glyph-name="increment" unicode="&#x2206;" horiz-adv-x="1394" 
d="M1305 0h-1215v172l500 1309h211l504 -1313v-168zM674 1184l-383 -1016h813l-389 1016q-15 38 -21 61q-2 -10 -10.5 -34.5t-9.5 -26.5z" />
    <glyph glyph-name="product" unicode="&#x220f;" horiz-adv-x="1409" 
d="M373 0h-201v1481h1063v-1481h-201v1296h-661v-1296z" />
    <glyph glyph-name="summation" unicode="&#x2211;" horiz-adv-x="1130" 
d="M1038 0h-970v205l444 538l-444 533v205h970v-185h-743l457 -555l-459 -555h745v-186z" />
    <glyph glyph-name="minus" unicode="&#x2212;" 
d="M164 772h1024v-164h-1024v164z" />
    <glyph glyph-name="radical" unicode="&#x221a;" horiz-adv-x="1458" 
d="M403 0l-403 999h201l297 -753l465 1237h432v-178h-301l-504 -1305h-187z" />
    <glyph glyph-name="infinity" unicode="&#x221e;" horiz-adv-x="1798" 
d="M104 582q0 169 110.5 279t281.5 110q124 0 218 -61.5t185 -194.5q91 133 185.5 194.5t218.5 61.5q170 0 279.5 -110t109.5 -279q0 -168 -109.5 -277.5t-279.5 -109.5q-125 0 -219 61t-185 195q-91 -133 -185 -194.5t-218 -61.5q-170 0 -281 110t-111 277zM285 582
q0 -98 59.5 -157.5t157.5 -59.5q168 0 280 217q-111 217 -280 217q-100 0 -158.5 -58.5t-58.5 -158.5zM1016 582q109 -217 280 -217q98 0 157.5 59.5t59.5 157.5t-59.5 157.5t-157.5 59.5q-172 0 -280 -217z" />
    <glyph glyph-name="integral" unicode="&#x222b;" horiz-adv-x="829" 
d="M225 -27h-164v174h152q48 0 76 31t28 88v946q0 130 81.5 213.5t207.5 83.5h162v-174h-152q-48 0 -76 -30.5t-28 -87.5v-947q0 -131 -81 -214t-206 -83z" />
    <glyph glyph-name="approxequal" unicode="&#x2248;" 
d="M1034 969h154q0 -146 -73 -238t-195 -92q-67 0 -139 28.5t-123.5 62.5t-111 62.5t-104.5 28.5q-64 0 -93 -40t-32 -122h-153q0 141 73.5 231.5t194.5 90.5q62 0 131.5 -28t120.5 -62t113 -62t112 -28q63 0 92.5 41.5t32.5 126.5zM1034 580h154q0 -146 -73 -238t-195 -92
q-67 0 -139 28t-123.5 62t-111 62t-104.5 28q-64 0 -93 -40t-32 -122h-153q0 143 73 233.5t195 90.5q62 0 131.5 -28.5t120.5 -62.5t113 -62.5t112 -28.5q63 0 92.5 41.5t32.5 128.5z" />
    <glyph glyph-name="notequal" unicode="&#x2260;" 
d="M272 39l150 274h-258v166h348l143 264h-491v166h581l150 275h184l-149 -275h258v-166h-348l-144 -264h492v-166h-582l-149 -274h-185z" />
    <glyph glyph-name="lessequal" unicode="&#x2264;" 
d="M1188 430v-188l-1024 354v201l1024 354v-190l-826 -265zM164 0v166h1024v-166h-1024z" />
    <glyph glyph-name="greaterequal" unicode="&#x2265;" 
d="M1188 596l-1024 -354v188l825 266l-825 265v190l1024 -354v-201zM164 166h1024v-166h-1024v166z" />
    <glyph glyph-name="filledbox" unicode="&#x25a0;" horiz-adv-x="1699" 
d="M123 0v1454h1454v-1454h-1454z" />
    <glyph glyph-name="squarewhite" unicode="&#x25a1;" horiz-adv-x="1699" 
d="M123 0v1454h1454v-1454h-1454zM1423 1300h-1147v-1146h1147v1146z" />
    <glyph glyph-name="triagup" unicode="&#x25b2;" horiz-adv-x="1978" 
d="M123 0l866 1454l866 -1454h-1732z" />
    <glyph glyph-name="triangleupwhite" unicode="&#x25b3;" horiz-adv-x="1980" 
d="M991 1460l867 -1456h-1735zM381 145h1218l-608 1022z" />
    <glyph glyph-name="lozenge" unicode="&#x25ca;" horiz-adv-x="1271" 
d="M1149 727l-418 -727h-190l-418 727l418 727h190zM952 727l-315 559l-315 -559l315 -559z" />
    <glyph glyph-name="circle" unicode="&#x25cb;" horiz-adv-x="1839" 
d="M920 -115q-162 0 -309.5 63t-254.5 170t-170 254.5t-63 309.5t63.5 309.5t170.5 254.5t254.5 170t308.5 63t308.5 -63.5t254 -170.5t170 -254.5t63.5 -308.5q0 -162 -63.5 -309.5t-170 -254.5t-254 -170t-308.5 -63zM920 37q175 0 323.5 86.5t235 235t86.5 323.5
q0 174 -87 322.5t-235.5 235.5t-322.5 87t-323 -86.5t-236 -235t-87 -323.5t87 -323.5t236 -235t323 -86.5z" />
    <glyph glyph-name="circleblack" unicode="&#x25cf;" horiz-adv-x="1839" 
d="M920 -115q-162 0 -309.5 63t-254.5 170t-170 254.5t-63 309.5t63.5 309.5t170.5 254.5t254.5 170t308.5 63t308.5 -63.5t254 -170.5t170 -254.5t63.5 -308.5q0 -162 -63.5 -309.5t-170 -254.5t-254 -170t-308.5 -63z" />
    <glyph glyph-name="peace" unicode="&#x262e;" horiz-adv-x="1839" 
d="M920 -115q-162 0 -309.5 63t-254.5 170t-170 254.5t-63 309.5t63.5 309.5t170.5 254.5t254.5 170t308.5 63t308.5 -63.5t254 -170.5t170 -254.5t63.5 -308.5q0 -162 -63.5 -309.5t-170 -254.5t-254 -170t-308.5 -63zM274 682q0 -134 56 -262l522 346v557
q-160 -16 -292.5 -105t-209 -230.5t-76.5 -305.5zM1565 682q0 162 -76 303t-207.5 230.5t-290.5 107.5v-557l518 -344q56 128 56 260zM399 301q81 -109 199 -178t254 -82v559zM991 600v-559q136 15 253.5 84t195.5 176z" />
    <glyph glyph-name="check" unicode="&#x2713;" horiz-adv-x="1482" 
d="M512 14l-442 478l116 122l318 -342l663 797l131 -108z" />
    <glyph glyph-name="ITF" unicode="&#xf8ff;" horiz-adv-x="3561" 
d="M180 0v1434h443v-1434h-443zM715 1016v418h442v-418h-442zM1247 0v1434h445v-1434h-445zM1782 1016v418h442v-418h-442zM2314 0v1434h445v-1434h-445zM2849 1016v418h442v-418h-442zM2849 506v420h442v-420h-442z" />
    <glyph glyph-name="G.ss01" horiz-adv-x="1568" 
d="M84 735q0 226 89.5 401t255 273t380.5 98q251 0 424.5 -124.5t228.5 -356.5h-215q-50 145 -164.5 219t-275.5 74q-232 0 -372 -159t-140 -425q0 -268 137.5 -418.5t368.5 -150.5q204 0 330 116t133 328h-498v178h709v-137q0 -144 -47.5 -268t-134 -213.5t-214 -141
t-280.5 -51.5q-211 0 -373 92t-252 264.5t-90 401.5z" />
    <glyph glyph-name="idotaccent" horiz-adv-x="471" 
d="M236 1151q-51 0 -86 35.5t-35 85.5q0 51 36 88t85 37t84.5 -37t35.5 -88q0 -50 -35.5 -85.5t-84.5 -35.5zM139 0v1001h193v-1001h-193z" />
    <glyph glyph-name="a.ss01" horiz-adv-x="1232" 
d="M924 1001h170v-1001h-176l-17 182q-52 -98 -145.5 -153.5t-216.5 -55.5q-216 0 -340.5 150t-124.5 385q0 232 129 377t342 145q120 0 218 -54.5t146 -158.5zM897 500q0 159 -84.5 256.5t-230.5 97.5q-145 0 -229.5 -98t-84.5 -256q0 -157 83.5 -255t228.5 -98
q146 0 231.5 98t85.5 255z" />
    <glyph glyph-name="g.ss02" horiz-adv-x="1105" 
d="M111 631q0 174 121.5 286.5t310.5 112.5q132 0 243 -57q34 63 95 98t137 35q27 0 37 -2v-164q-16 4 -41 4q-93 0 -137 -59q50 -46 79 -115.5t29 -144.5q0 -169 -120.5 -275t-313.5 -106q-110 0 -197 35q-47 -3 -73.5 -25t-26.5 -59q0 -82 133 -82h328q173 0 262.5 -68
t89.5 -199q0 -154 -141 -238.5t-398 -84.5q-244 0 -358.5 62t-114.5 194q0 68 42 120.5t114 77.5q-117 46 -117 166q0 69 42 119t118 72q-143 108 -143 297zM297 633q0 -106 69 -171t183 -65q113 0 182.5 65t69.5 171q0 107 -70.5 174t-181.5 67q-112 0 -182 -67t-70 -174z
M217 -172q0 -78 72.5 -111.5t242.5 -33.5q349 0 349 159q0 60 -41 87.5t-129 27.5h-328q-166 -3 -166 -129z" />
    <glyph glyph-name="t.ss03" horiz-adv-x="690" 
d="M606 168l25 -160q-79 -31 -166 -31q-134 0 -205.5 77t-71.5 227v559h-155v161h155v314h193v-314h233v-161h-233v-533q0 -157 129 -157q46 0 96 18z" />
    <glyph glyph-name="f_y" horiz-adv-x="1628" 
d="M651 -449v158h129q39 0 65.5 4.5t56 18t52 43t39.5 75.5l35 97l-342 893h-313v-840h-193v840h-147v161h147v160q0 176 86 261t232 85q67 0 116 -8v-166h-86q-89 0 -122 -42t-33 -130v-160h454l291 -806l297 806h197l-473 -1226q-48 -125 -124.5 -184.5t-195.5 -59.5
q-83 0 -168 20z" />
    <glyph glyph-name="t_i" horiz-adv-x="1171" 
d="M938 1247q-51 0 -86 35.5t-35 87.5t35 87.5t86 35.5q52 0 87.5 -35.5t35.5 -87.5t-35.5 -87.5t-87.5 -35.5zM422 0h-193v840h-196v161h196v314h193v-314h612v-1001h-192v840h-420v-840z" />
    <glyph glyph-name="t_t" horiz-adv-x="1290" 
d="M422 0h-193v842h-196v159h196v314h193v-314h448v314h191v-314h196v-159h-196v-842h-191v842h-448v-842z" />
    <glyph glyph-name="t_y" horiz-adv-x="1652" 
d="M420 0h-191v842h-196v159h196v314h191v-314h432l293 -804l295 804h198l-473 -1226q-50 -125 -126.5 -184.5t-194.5 -59.5q-83 0 -168 20v158h129q39 0 65.5 4.5t56 18t52 43t39.5 75.5l35 97l-342 895h-291v-842z" />
    <glyph glyph-name="zero.tf" 
d="M88 737q0 230 70 403.5t203.5 270t314.5 96.5t314.5 -96.5t203.5 -270t70 -403.5q0 -353 -155.5 -559.5t-432.5 -206.5t-432.5 206.5t-155.5 559.5zM287 737q0 -276 99.5 -430.5t289.5 -154.5t289.5 154.5t99.5 430.5q0 280 -99 435t-290 155t-290 -155t-99 -435z" />
    <glyph glyph-name="one.tf" 
d="M614 178v1122h-381v181h576v-1303h381v-178h-977v178h401z" />
    <glyph glyph-name="two.tf" 
d="M1182 2l-998 -2v154l478 411q180 156 243.5 251.5t63.5 213.5q0 139 -75.5 218t-209.5 79q-137 0 -220 -93t-87 -251h-199q3 237 142.5 380.5t365.5 143.5q223 0 355.5 -126t132.5 -339q0 -155 -82.5 -283.5t-284.5 -303.5l-307 -267h682v-186z" />
    <glyph glyph-name="three.tf" 
d="M610 766h-147v133l420 404h-664v178h918v-162l-406 -387q195 -24 319 -148.5t124 -318.5q0 -221 -149 -355.5t-378 -134.5q-223 0 -361.5 130t-138.5 356h199q0 -143 82 -224t223 -81q145 0 231.5 85.5t86.5 227.5q0 137 -92.5 217t-266.5 80z" />
    <glyph glyph-name="four.tf" 
d="M1204 299h-176v-299h-192v299h-766v178l698 1004h260v-1004h176v-178zM287 477h549v791z" />
    <glyph glyph-name="five.tf" 
d="M657 -25q-228 0 -363.5 133t-135.5 355h198q0 -143 82 -225t224 -82q150 0 238.5 91t88.5 242q0 147 -87 239.5t-240 92.5q-92 0 -174 -39t-134 -104l-170 43l181 760h743v-185h-598l-96 -391q120 88 284 88q224 0 360 -139t136 -356q0 -231 -149 -377t-388 -146z" />
    <glyph glyph-name="six.tf" 
d="M340 1012l346 469h232l-371 -494q73 33 158 33q228 0 370 -146t142 -368q0 -152 -70.5 -274t-193.5 -189.5t-275 -67.5q-230 0 -386.5 153.5t-156.5 377.5q0 131 44.5 240.5t160.5 265.5zM340 504q0 -153 94.5 -250.5t243.5 -97.5q148 0 242 98t94 250q0 153 -93.5 249.5
t-242.5 96.5q-150 0 -244 -96.5t-94 -249.5z" />
    <glyph glyph-name="seven.tf" 
d="M158 1481h1034v-185l-559 -1296h-209l565 1296h-831v185z" />
    <glyph glyph-name="eight.tf" 
d="M131 412q0 133 72.5 235.5t197.5 145.5q-104 44 -160.5 128.5t-56.5 196.5q0 173 137 281t357 108q219 0 354 -108t135 -283q0 -114 -57 -198t-162 -125q125 -40 199 -143.5t74 -239.5q0 -195 -149.5 -315t-395.5 -120t-395.5 120t-149.5 317zM369 1106q0 -109 84 -174.5
t223 -65.5q138 0 220.5 64.5t82.5 171.5q0 106 -82.5 168.5t-220.5 62.5q-139 0 -223 -62t-84 -165zM328 426q0 -124 95.5 -198t254.5 -74q157 0 250.5 74t93.5 198q0 123 -94 195.5t-252 72.5q-160 0 -254 -72.5t-94 -195.5z" />
    <glyph glyph-name="nine.tf" 
d="M1012 469l-346 -469h-232l371 494q-73 -33 -158 -33q-228 0 -370 146t-142 370q0 229 154 379.5t385 150.5q113 0 214 -41t173 -111.5t114 -169.5t42 -210q0 -130 -44.5 -240.5t-160.5 -265.5zM1012 977q0 153 -94.5 251.5t-243.5 98.5q-147 0 -241.5 -98.5t-94.5 -251.5
t93.5 -249.5t242.5 -96.5q150 0 244 96.5t94 249.5z" />
    <glyph glyph-name="zero.dnom" horiz-adv-x="729" 
d="M61 354q0 164 82 265.5t219 101.5q143 0 224.5 -102t81.5 -267t-82 -264.5t-221 -99.5q-144 0 -224 100t-80 266zM184 352q0 -121 46 -186.5t132 -65.5q87 0 134 66.5t47 185.5q0 122 -47 189t-134 67q-86 0 -132 -67t-46 -189z" />
    <glyph glyph-name="one.dnom" horiz-adv-x="428" 
d="M209 596h-172v113h295v-709h-123v596z" />
    <glyph glyph-name="two.dnom" horiz-adv-x="608" 
d="M563 0h-502v88l232 186q68 56 97.5 103.5t29.5 99.5q0 61 -33 96t-90 35q-59 0 -93 -34.5t-34 -94.5h-125q0 106 70.5 174t183.5 68q112 0 179 -65t67 -173q0 -78 -40 -145.5t-130 -140.5l-105 -84h293v-113z" />
    <glyph glyph-name="three.dnom" horiz-adv-x="585" 
d="M41 227h125q0 -60 34 -93.5t93 -33.5q58 0 91.5 31.5t33.5 85.5q0 61 -41 96t-119 35h-72v82l181 166h-291v113h448v-109l-176 -162q86 -12 139.5 -68.5t53.5 -146.5q0 -107 -70 -171t-180 -64q-109 0 -179.5 64.5t-70.5 174.5z" />
    <glyph glyph-name="four.dnom" horiz-adv-x="643" 
d="M385 137h-356v105l325 467h150v-459h90v-113h-90v-137h-119v137zM164 250h221v315z" />
    <glyph glyph-name="five.dnom" horiz-adv-x="618" 
d="M305 -12q-109 0 -181.5 66t-72.5 177h125q0 -61 35.5 -96t95.5 -35q62 0 98.5 39t36.5 103q0 62 -37.5 101.5t-99.5 39.5q-39 0 -72.5 -17t-52.5 -47l-117 17l93 373h376v-113h-290l-39 -147q45 36 121 36q112 0 177.5 -69t65.5 -174q0 -113 -72.5 -183.5t-189.5 -70.5z
" />
    <glyph glyph-name="six.dnom" horiz-adv-x="653" 
d="M156 500l153 209h146l-168 -222q27 9 55 9q112 0 183 -68.5t71 -177.5q0 -114 -76 -188t-190 -74q-115 0 -194 76t-79 186q0 68 21 121.5t78 128.5zM180 248q0 -66 42 -107t108 -41q63 0 103 41t40 107q0 63 -40.5 103t-102.5 40q-66 0 -108 -40t-42 -103z" />
    <glyph glyph-name="seven.dnom" horiz-adv-x="548" 
d="M399 594h-374v115h499v-115l-262 -594h-127z" />
    <glyph glyph-name="eight.dnom" horiz-adv-x="634" 
d="M55 195q0 64 35.5 113t95.5 69q-45 21 -71.5 61.5t-26.5 93.5q0 84 63.5 136.5t165.5 52.5t165 -51t63 -138q0 -55 -27 -95.5t-74 -59.5q62 -19 99 -68t37 -114q0 -93 -72.5 -149t-190.5 -56t-190 56t-72 149zM197 518q0 -42 31.5 -68t88.5 -26q55 0 87 26.5t32 69.5
q0 41 -32.5 66.5t-86.5 25.5q-55 0 -87.5 -25.5t-32.5 -68.5zM180 209q0 -51 38 -80t99 -29t98.5 29t37.5 80q0 52 -37.5 80t-98.5 28t-99 -28t-38 -80z" />
    <glyph glyph-name="nine.dnom" horiz-adv-x="653" 
d="M498 207l-154 -207h-145l168 221q-24 -8 -56 -8q-113 0 -183.5 67.5t-70.5 176.5q0 114 76.5 189t192.5 75q114 0 192 -76t78 -188q0 -68 -20.5 -121t-77.5 -129zM473 461q0 65 -41 105t-106 40t-105.5 -40.5t-40.5 -104.5q0 -63 41.5 -103.5t104.5 -40.5
q64 0 105.5 40.5t41.5 103.5z" />
    <glyph glyph-name="zero.numr" horiz-adv-x="729" 
d="M61 1126q0 165 82 266t219 101q144 0 225 -101.5t81 -267.5q0 -165 -82 -264.5t-221 -99.5q-144 0 -224 100t-80 266zM184 1126q0 -121 46 -187.5t132 -66.5q87 0 134 66.5t47 187.5q0 122 -47 188t-134 66q-86 0 -132 -66.5t-46 -187.5z" />
    <glyph glyph-name="one.numr" horiz-adv-x="428" 
d="M209 1368h-172v113h295v-707h-123v594z" />
    <glyph glyph-name="two.numr" horiz-adv-x="608" 
d="M563 774h-502v88l232 185q68 58 97.5 104.5t29.5 99.5q0 60 -33 94.5t-90 34.5q-59 0 -93 -34.5t-34 -94.5h-125q0 108 70 175t184 67q112 0 179 -64.5t67 -173.5q0 -77 -40 -144t-130 -140l-105 -86h293v-111z" />
    <glyph glyph-name="three.numr" horiz-adv-x="585" 
d="M41 999h125q0 -60 34 -93.5t93 -33.5q58 0 91.5 31.5t33.5 87.5q0 61 -41 96t-119 35h-72v82l181 164h-291v113h448v-107l-176 -162q87 -14 140 -70t53 -147q0 -107 -70 -171t-180 -64q-109 0 -179.5 64.5t-70.5 174.5z" />
    <glyph glyph-name="four.numr" horiz-adv-x="643" 
d="M385 911h-356v103l325 467h150v-459h90v-111h-90v-137h-119v137zM164 1022h221v315z" />
    <glyph glyph-name="five.numr" horiz-adv-x="618" 
d="M305 762q-109 0 -181.5 66.5t-72.5 177.5h125q0 -61 35.5 -96.5t95.5 -35.5q62 0 98.5 39t36.5 101q0 63 -37 102t-100 39q-40 0 -73 -17t-52 -46l-117 18l93 371h376v-113h-290l-39 -147q45 36 121 36q112 0 177.5 -69t65.5 -174q0 -111 -73 -181.5t-189 -70.5z" />
    <glyph glyph-name="six.numr" horiz-adv-x="653" 
d="M156 1274l153 207h146l-168 -219q24 8 55 8q112 0 183 -68.5t71 -177.5q0 -114 -76 -188t-190 -74q-116 0 -194.5 75t-78.5 187q0 68 21 121.5t78 128.5zM180 1020q0 -66 42 -106t108 -40q63 0 103 41t40 105q0 63 -40.5 104t-102.5 41q-66 0 -108 -41t-42 -104z" />
    <glyph glyph-name="seven.numr" horiz-adv-x="548" 
d="M399 1366h-374v115h499v-115l-262 -592h-127z" />
    <glyph glyph-name="eight.numr" horiz-adv-x="634" 
d="M55 967q0 64 35.5 114t95.5 70q-46 20 -72 61t-26 95q0 84 63.5 135t165.5 51q103 0 165.5 -50.5t62.5 -137.5q0 -53 -27 -94t-72 -60q62 -19 98 -68.5t36 -115.5q0 -93 -72.5 -149t-190.5 -56t-190 56t-72 149zM197 1292q0 -42 31.5 -68t88.5 -26q55 0 87 25.5t32 68.5
t-32.5 67.5t-86.5 24.5q-56 0 -88 -24.5t-32 -67.5zM180 983q0 -53 37.5 -82t99.5 -29q61 0 98.5 29.5t37.5 81.5q0 51 -38 80t-98 29t-98.5 -29t-38.5 -80z" />
    <glyph glyph-name="nine.numr" horiz-adv-x="653" 
d="M498 981l-154 -207h-145l168 219q-24 -8 -56 -8q-112 0 -183 68.5t-71 177.5q0 114 76.5 188t192.5 74q114 0 192 -76t78 -186q0 -68 -21 -122t-77 -128zM473 1235q0 64 -41 104.5t-106 40.5t-105.5 -40.5t-40.5 -104.5q0 -63 41.5 -104t104.5 -41q64 0 105.5 41
t41.5 104z" />
    <glyph glyph-name="registered.ss01" horiz-adv-x="1241" 
d="M623 438q-150 0 -274.5 70.5t-195.5 193.5t-71 271q0 111 42 210t114.5 170t172.5 112.5t212 41.5q149 0 272 -70.5t193.5 -193t70.5 -270.5t-70.5 -271t-193.5 -193.5t-272 -70.5zM623 528q189 0 315.5 128t126.5 317q0 190 -126.5 317t-315.5 127q-192 0 -318.5 -126
t-126.5 -318t126.5 -318.5t318.5 -126.5zM526 702h-92v549h213q90 0 144.5 -46.5t54.5 -123.5q0 -107 -105 -157l117 -222h-104l-101 197h-127v-197zM748 1077q0 41 -28 64.5t-79 23.5h-115v-180h115q49 0 78 25t29 67z" />
    <glyph glyph-name="bracketleftsuperior" horiz-adv-x="444" 
d="M223 573h211v-112h-340v1323h340v-113h-211v-1098z" />
    <glyph glyph-name="bracketrightsuperior" horiz-adv-x="444" 
d="M221 1671h-211v113h340v-1323h-340v112h211v1098z" />
    <glyph glyph-name="Gbreve.ss01" horiz-adv-x="1568" 
d="M897 1866h145q0 -132 -76.5 -209.5t-205.5 -77.5q-131 0 -207 77t-76 210h146q0 -71 35 -110.5t102 -39.5t102 39.5t35 110.5zM84 735q0 226 89.5 401t255 273t380.5 98q251 0 424.5 -124.5t228.5 -356.5h-215q-50 145 -164.5 219t-275.5 74q-232 0 -372 -159t-140 -425
q0 -268 137.5 -418.5t368.5 -150.5q204 0 330 116t133 328h-498v178h709v-137q0 -144 -47.5 -268t-134 -213.5t-214 -141t-280.5 -51.5q-211 0 -373 92t-252 264.5t-90 401.5z" />
    <glyph glyph-name="Gcircumflex.ss01" horiz-adv-x="1568" 
d="M641 1591h-160l170 281h215l170 -281h-159l-117 191zM84 735q0 226 89.5 401t255 273t380.5 98q251 0 424.5 -124.5t228.5 -356.5h-215q-50 145 -164.5 219t-275.5 74q-232 0 -372 -159t-140 -425q0 -268 137.5 -418.5t368.5 -150.5q204 0 330 116t133 328h-498v178h709
v-137q0 -144 -47.5 -268t-134 -213.5t-214 -141t-280.5 -51.5q-211 0 -373 92t-252 264.5t-90 401.5z" />
    <glyph glyph-name="Gcommaaccent.ss01" horiz-adv-x="1568" 
d="M84 735q0 226 89.5 401t255 273t380.5 98q251 0 424.5 -124.5t228.5 -356.5h-215q-50 145 -164.5 219t-275.5 74q-232 0 -372 -159t-140 -425q0 -268 137.5 -418.5t368.5 -150.5q204 0 330 116t133 328h-498v178h709v-137q0 -144 -47.5 -268t-134 -213.5t-214 -141
t-280.5 -51.5q-211 0 -373 92t-252 264.5t-90 401.5zM924 -217q0 -100 -60.5 -159.5t-150.5 -51.5v70q54 -4 83.5 17t32.5 62q-15 -6 -36 -6q-43 0 -72 29t-29 72q0 49 30.5 79.5t80.5 30.5q55 0 88 -38t33 -105z" />
    <glyph glyph-name="Gdotaccent.ss01" horiz-adv-x="1568" 
d="M760 1624q-51 0 -87 35t-36 86t36 87t87 36q49 0 85 -36.5t36 -86.5q0 -49 -35.5 -85t-85.5 -36zM84 735q0 226 89.5 401t255 273t380.5 98q251 0 424.5 -124.5t228.5 -356.5h-215q-50 145 -164.5 219t-275.5 74q-232 0 -372 -159t-140 -425q0 -268 137.5 -418.5
t368.5 -150.5q204 0 330 116t133 328h-498v178h709v-137q0 -144 -47.5 -268t-134 -213.5t-214 -141t-280.5 -51.5q-211 0 -373 92t-252 264.5t-90 401.5z" />
    <glyph glyph-name="Q.ss04" horiz-adv-x="1591" 
d="M1341 -270l-528 245h-20q-207 0 -368.5 97t-251 271.5t-89.5 397.5q0 222 90 396.5t252.5 272t368.5 97.5q208 0 370 -97t252 -271.5t90 -397.5q0 -246 -109.5 -431t-299.5 -271l315 -148zM1296 741q0 258 -137.5 415t-363.5 157t-363 -157t-137 -415t137 -415.5
t363 -157.5q225 0 363 158t138 415z" />
    <glyph glyph-name="aacute.ss01" horiz-adv-x="1232" 
d="M846 1405l-176 -272h-150l139 272h187zM924 1001h170v-1001h-176l-17 182q-52 -98 -145.5 -153.5t-216.5 -55.5q-216 0 -340.5 150t-124.5 385q0 232 129 377t342 145q120 0 218 -54.5t146 -158.5zM897 500q0 159 -84.5 256.5t-230.5 97.5q-145 0 -229.5 -98t-84.5 -256
q0 -157 83.5 -255t228.5 -98q146 0 231.5 98t85.5 255z" />
    <glyph glyph-name="abreve.ss01" horiz-adv-x="1232" 
d="M729 1407h145q0 -132 -75.5 -209.5t-204.5 -77.5q-132 0 -208.5 77.5t-76.5 209.5h146q0 -71 36 -109t103 -38q66 0 100.5 38t34.5 109zM924 1001h170v-1001h-176l-17 182q-52 -98 -145.5 -153.5t-216.5 -55.5q-216 0 -340.5 150t-124.5 385q0 232 129 377t342 145
q120 0 218 -54.5t146 -158.5zM897 500q0 159 -84.5 256.5t-230.5 97.5q-145 0 -229.5 -98t-84.5 -256q0 -157 83.5 -255t228.5 -98q146 0 231.5 98t85.5 255z" />
    <glyph glyph-name="acircumflex.ss01" horiz-adv-x="1232" 
d="M475 1133h-160l168 282h215l170 -282h-159l-117 190zM924 1001h170v-1001h-176l-17 182q-52 -98 -145.5 -153.5t-216.5 -55.5q-216 0 -340.5 150t-124.5 385q0 232 129 377t342 145q120 0 218 -54.5t146 -158.5zM897 500q0 159 -84.5 256.5t-230.5 97.5
q-145 0 -229.5 -98t-84.5 -256q0 -157 83.5 -255t228.5 -98q146 0 231.5 98t85.5 255z" />
    <glyph glyph-name="adieresis.ss01" horiz-adv-x="1232" 
d="M428 1165q-49 0 -84 34.5t-35 82.5q0 50 34.5 84.5t84.5 34.5q46 0 81.5 -36t35.5 -83t-35.5 -82t-81.5 -35zM758 1165q-49 0 -84 34.5t-35 82.5q0 50 34.5 84.5t84.5 34.5q46 0 81 -36t35 -83t-35 -82t-81 -35zM924 1001h170v-1001h-176l-17 182q-52 -98 -145.5 -153.5
t-216.5 -55.5q-216 0 -340.5 150t-124.5 385q0 232 129 377t342 145q120 0 218 -54.5t146 -158.5zM897 500q0 159 -84.5 256.5t-230.5 97.5q-145 0 -229.5 -98t-84.5 -256q0 -157 83.5 -255t228.5 -98q146 0 231.5 98t85.5 255z" />
    <glyph glyph-name="agrave.ss01" horiz-adv-x="1232" 
d="M662 1133h-148l-174 272h186zM924 1001h170v-1001h-176l-17 182q-52 -98 -145.5 -153.5t-216.5 -55.5q-216 0 -340.5 150t-124.5 385q0 232 129 377t342 145q120 0 218 -54.5t146 -158.5zM897 500q0 159 -84.5 256.5t-230.5 97.5q-145 0 -229.5 -98t-84.5 -256
q0 -157 83.5 -255t228.5 -98q146 0 231.5 98t85.5 255z" />
    <glyph glyph-name="amacron.ss01" horiz-adv-x="1232" 
d="M338 1229v141h508v-141h-508zM924 1001h170v-1001h-176l-17 182q-52 -98 -145.5 -153.5t-216.5 -55.5q-216 0 -340.5 150t-124.5 385q0 232 129 377t342 145q120 0 218 -54.5t146 -158.5zM897 500q0 159 -84.5 256.5t-230.5 97.5q-145 0 -229.5 -98t-84.5 -256
q0 -157 83.5 -255t228.5 -98q146 0 231.5 98t85.5 255z" />
    <glyph glyph-name="aogonek.ss01" horiz-adv-x="1232" 
d="M969 0h-51l-17 182q-52 -98 -145.5 -153.5t-216.5 -55.5q-216 0 -340.5 150t-124.5 385q0 232 129 377t342 145q120 0 218 -54.5t146 -158.5l15 184h170v-1001q-64 -25 -97.5 -64.5t-33.5 -78.5q0 -33 20.5 -51.5t54.5 -18.5q26 0 49 10v-137q-38 -14 -88 -14
q-78 0 -126 47t-48 119q0 57 37 107.5t107 80.5zM897 500q0 159 -84.5 256.5t-230.5 97.5q-145 0 -229.5 -98t-84.5 -256q0 -157 83.5 -255t228.5 -98q146 0 231.5 98t85.5 255z" />
    <glyph glyph-name="aring.ss01" horiz-adv-x="1232" 
d="M592 1118q-104 0 -172 68t-68 172q0 102 69 170.5t171 68.5q103 0 172.5 -69t69.5 -170t-69.5 -170.5t-172.5 -69.5zM592 1233q54 0 86.5 35t32.5 92q0 54 -33.5 88.5t-85.5 34.5q-53 0 -86 -34t-33 -89q0 -57 32.5 -92t86.5 -35zM924 1001h170v-1001h-176l-17 182
q-52 -98 -145.5 -153.5t-216.5 -55.5q-216 0 -340.5 150t-124.5 385q0 232 129 377t342 145q120 0 218 -54.5t146 -158.5zM897 500q0 159 -84.5 256.5t-230.5 97.5q-145 0 -229.5 -98t-84.5 -256q0 -157 83.5 -255t228.5 -98q146 0 231.5 98t85.5 255z" />
    <glyph glyph-name="aringacute.ss01" horiz-adv-x="1232" 
d="M793 1677l-170 -250h-140l131 250h179zM924 1001h170v-1001h-176l-17 182q-52 -98 -145.5 -153.5t-216.5 -55.5q-216 0 -340.5 150t-124.5 385q0 178 77 306.5t214 182.5q-54 63 -54 158q0 101 69.5 170.5t172.5 69.5q101 0 170.5 -69.5t69.5 -170.5q0 -94 -60 -164
q123 -57 176 -174zM553 1030q54 0 86.5 34.5t32.5 90.5q0 54 -33.5 89.5t-85.5 35.5q-53 0 -86 -35t-33 -90q0 -56 32.5 -90.5t86.5 -34.5zM897 500q0 159 -84.5 256.5t-230.5 97.5q-145 0 -229.5 -98t-84.5 -256q0 -157 83.5 -255t228.5 -98q146 0 231.5 98t85.5 255z" />
    <glyph glyph-name="atilde.ss01" horiz-adv-x="1232" 
d="M399 1159l-123 -2q-9 117 36.5 184.5t131.5 67.5q41 0 82 -18t67.5 -39.5t59 -39.5t60.5 -18q69 0 69 115h125q7 -123 -40 -187.5t-138 -64.5q-44 0 -85 18.5t-67.5 40t-56.5 40t-53 18.5q-68 0 -68 -115zM924 1001h170v-1001h-176l-17 182q-52 -98 -145.5 -153.5
t-216.5 -55.5q-216 0 -340.5 150t-124.5 385q0 232 129 377t342 145q120 0 218 -54.5t146 -158.5zM897 500q0 159 -84.5 256.5t-230.5 97.5q-145 0 -229.5 -98t-84.5 -256q0 -157 83.5 -255t228.5 -98q146 0 231.5 98t85.5 255z" />
    <glyph glyph-name="gbreve.ss02" horiz-adv-x="1105" 
d="M702 1393h146q0 -132 -77 -209.5t-206 -77.5q-130 0 -206 77.5t-76 209.5h145q0 -71 35 -109.5t102 -38.5t102 39t35 109zM111 631q0 174 121.5 286.5t310.5 112.5q132 0 243 -57q34 63 95 98t137 35q27 0 37 -2v-164q-16 4 -41 4q-93 0 -137 -59q50 -46 79 -115.5
t29 -144.5q0 -169 -120.5 -275t-313.5 -106q-110 0 -197 35q-47 -3 -73.5 -25t-26.5 -59q0 -82 133 -82h328q173 0 262.5 -68t89.5 -199q0 -154 -141 -238.5t-398 -84.5q-244 0 -358.5 62t-114.5 194q0 68 42 120.5t114 77.5q-117 46 -117 166q0 69 42 119t118 72
q-143 108 -143 297zM297 633q0 -106 69 -171t183 -65q113 0 182.5 65t69.5 171q0 107 -70.5 174t-181.5 67q-112 0 -182 -67t-70 -174zM217 -172q0 -78 72.5 -111.5t242.5 -33.5q349 0 349 159q0 60 -41 87.5t-129 27.5h-328q-166 -3 -166 -129z" />
    <glyph glyph-name="gcircumflex.ss02" horiz-adv-x="1105" 
d="M446 1118h-157l168 283h215l170 -283h-160l-117 193zM111 631q0 174 121.5 286.5t310.5 112.5q132 0 243 -57q34 63 95 98t137 35q27 0 37 -2v-164q-16 4 -41 4q-93 0 -137 -59q50 -46 79 -115.5t29 -144.5q0 -169 -120.5 -275t-313.5 -106q-110 0 -197 35
q-47 -3 -73.5 -25t-26.5 -59q0 -82 133 -82h328q173 0 262.5 -68t89.5 -199q0 -154 -141 -238.5t-398 -84.5q-244 0 -358.5 62t-114.5 194q0 68 42 120.5t114 77.5q-117 46 -117 166q0 69 42 119t118 72q-143 108 -143 297zM297 633q0 -106 69 -171t183 -65q113 0 182.5 65
t69.5 171q0 107 -70.5 174t-181.5 67q-112 0 -182 -67t-70 -174zM217 -172q0 -78 72.5 -111.5t242.5 -33.5q349 0 349 159q0 60 -41 87.5t-129 27.5h-328q-166 -3 -166 -129z" />
    <glyph glyph-name="gcommaaccent.ss02" horiz-adv-x="1105" 
d="M672 1231q0 -48 -32 -79.5t-81 -31.5q-54 0 -86.5 38.5t-32.5 105.5q0 102 59.5 161.5t151.5 51.5v-72q-55 4 -85.5 -17t-33.5 -63q13 8 39 8q43 0 72 -29t29 -73zM111 631q0 174 121.5 286.5t310.5 112.5q132 0 243 -57q34 63 95 98t137 35q27 0 37 -2v-164q-16 4 -41 4
q-93 0 -137 -59q50 -46 79 -115.5t29 -144.5q0 -169 -120.5 -275t-313.5 -106q-110 0 -197 35q-47 -3 -73.5 -25t-26.5 -59q0 -82 133 -82h328q173 0 262.5 -68t89.5 -199q0 -154 -141 -238.5t-398 -84.5q-244 0 -358.5 62t-114.5 194q0 68 42 120.5t114 77.5
q-117 46 -117 166q0 69 42 119t118 72q-143 108 -143 297zM297 633q0 -106 69 -171t183 -65q113 0 182.5 65t69.5 171q0 107 -70.5 174t-181.5 67q-112 0 -182 -67t-70 -174zM217 -172q0 -78 72.5 -111.5t242.5 -33.5q349 0 349 159q0 60 -41 87.5t-129 27.5h-328
q-166 -3 -166 -129z" />
    <glyph glyph-name="gdotaccent.ss02" horiz-adv-x="1105" 
d="M565 1151q-51 0 -87 35.5t-36 85.5q0 51 36 88t87 37q49 0 85 -37t36 -88q0 -50 -36 -85.5t-85 -35.5zM111 631q0 174 121.5 286.5t310.5 112.5q132 0 243 -57q34 63 95 98t137 35q27 0 37 -2v-164q-16 4 -41 4q-93 0 -137 -59q50 -46 79 -115.5t29 -144.5
q0 -169 -120.5 -275t-313.5 -106q-110 0 -197 35q-47 -3 -73.5 -25t-26.5 -59q0 -82 133 -82h328q173 0 262.5 -68t89.5 -199q0 -154 -141 -238.5t-398 -84.5q-244 0 -358.5 62t-114.5 194q0 68 42 120.5t114 77.5q-117 46 -117 166q0 69 42 119t118 72q-143 108 -143 297z
M297 633q0 -106 69 -171t183 -65q113 0 182.5 65t69.5 171q0 107 -70.5 174t-181.5 67q-112 0 -182 -67t-70 -174zM217 -172q0 -78 72.5 -111.5t242.5 -33.5q349 0 349 159q0 60 -41 87.5t-129 27.5h-328q-166 -3 -166 -129z" />
    <glyph glyph-name="tbar.ss03" horiz-adv-x="665" 
d="M63 614h125v226h-155v161h155v314h193v-314h233v-161h-233v-226h164v-149h-164v-158q0 -157 129 -157q46 0 96 18l25 -160q-79 -31 -166 -31q-134 0 -205.5 77t-71.5 227v184h-125v149z" />
    <glyph glyph-name="tcaron.ss03" horiz-adv-x="690" 
d="M483 1139v342h168l-45 -342h-123zM606 168l25 -160q-79 -31 -166 -31q-134 0 -205.5 77t-71.5 227v559h-155v161h155v314h193v-314h233v-161h-233v-533q0 -157 129 -157q46 0 96 18z" />
    <glyph glyph-name="tcedilla.ss03" horiz-adv-x="690" 
d="M301 -371v99q72 -35 125 -35q46 0 73 20t27 54q0 33 -22.5 51t-61.5 18q-46 0 -100 -22l-20 59l55 115q-189 48 -189 293v559h-155v161h155v314h193v-314h233v-161h-233v-533q0 -157 129 -157q46 0 96 18l25 -160q-79 -31 -166 -31h-2l-35 -69q33 10 66 10
q63 0 107 -38.5t44 -108.5q0 -84 -59 -129t-146 -45q-85 0 -139 32z" />
    <glyph glyph-name="tcommaaccent.ss03" horiz-adv-x="690" 
d="M606 168l25 -160q-79 -31 -166 -31q-134 0 -205.5 77t-71.5 227v559h-155v161h155v314h193v-314h233v-161h-233v-533q0 -157 129 -157q46 0 96 18zM541 -217q0 -100 -59.5 -159.5t-149.5 -51.5v70q53 -4 83.5 18t33.5 64q-15 -9 -37 -9q-44 0 -73.5 29t-29.5 72
q0 49 31.5 79.5t81.5 30.5q55 0 87 -38t32 -105z" />
    <glyph glyph-name="caroncomb.alt" horiz-adv-x="1189" 
d="M635 1139v342h166l-43 -342h-123z" />
    <glyph glyph-name="strokeshortcomb.case" horiz-adv-x="733" 
d="M41 657v168h651v-168h-651z" />
    <glyph glyph-name="strokelongcomb.case" horiz-adv-x="1511" 
d="M20 1104v174h1471v-174h-1471z" />
    <glyph glyph-name="slashshortcomb.case" horiz-adv-x="772" 
d="M41 606v164l690 330v-164z" />
    <glyph glyph-name="slashlongcomb.case" horiz-adv-x="1073" 
d="M1196 1481l-1124 -1481h-195l1129 1481h190z" />
    <glyph glyph-name="dotaccentcomb.i" horiz-adv-x="432" 
d="M215 1694q-54 0 -90.5 36t-36.5 89q0 54 36.5 91.5t90.5 37.5q51 0 89 -38t38 -91q0 -52 -37.5 -88.5t-89.5 -36.5z" />
    </font>
</defs>
</svg>
