<svg width="16" height="12" viewBox="0 0 16 12" fill="none" xmlns="http://www.w3.org/2000/svg">
<path d="M15.8162 6C15.8162 6.44 15.4562 6.8 15.0162 6.8H3.33621L6.95621 10.44C7.27621 10.76 7.27621 11.26 6.95621 11.58C6.79621 11.74 6.59621 11.82 6.39621 11.82C6.19621 11.82 5.97621 11.74 5.83621 11.58L0.856213 6.58C0.536213 6.26 0.536213 5.76 0.856213 5.46L5.83621 0.459999C6.15621 0.139999 6.65621 0.139999 6.97621 0.459999C7.29621 0.779999 7.29621 1.28 6.97621 1.6L3.33621 5.2H15.0162C15.4562 5.2 15.8162 5.56 15.8162 6Z" fill="black"/>
</svg>
