<svg width="14" height="14" viewBox="0 0 14 14" fill="none" xmlns="http://www.w3.org/2000/svg">
<path d="M9.625 1.875V2.375H10.125H12.75V12.75H1.25V2.375H3.875H4.375V1.875V1.25H4.5V1.875V2.375H5H9H9.5V1.875V1.25H9.625V1.875ZM12.125 12.625H12.625V12.125V6.1875V5.6875H12.125H1.875H1.375V6.1875V12.125V12.625H1.875H12.125ZM1.375 5.125V5.625H1.875H12.125H12.625V5.125V3V2.5H12.125H10.125H9.625V3V3.375H9.5V3V2.5H9H5H4.5V3V3.375H4.375V3V2.5H3.875H1.875H1.375V3V5.125Z" fill="#52AFB2" stroke="#52AFB2"/>
</svg>
