<svg width="102" height="153" viewBox="0 0 102 153" fill="none" xmlns="http://www.w3.org/2000/svg">
<g filter="url(#filter0_ddddd_1006:7098)">
<circle cx="32.5092" cy="19.9823" r="4.51505" fill="white"/>
<circle cx="32.5092" cy="19.9823" r="3.47311" stroke="#EB5749" stroke-width="2.08387"/>
</g>
<path d="M32.1621 23.4555V152.805" stroke="#EB5749" stroke-width="1.38925" stroke-dasharray="6.95 6.95"/>
<path fill-rule="evenodd" clip-rule="evenodd" d="M46.0544 1.25235C44.1362 1.25235 42.5812 2.80732 42.5812 4.72547V16.5838L40.0694 19.0956C39.5387 19.6263 39.5387 20.4868 40.0694 21.0175L42.5812 23.5293V35.9835C42.5812 37.9016 44.1362 39.4566 46.0544 39.4566H98.1511C100.069 39.4566 101.624 37.9016 101.624 35.9835V4.72546C101.624 2.80731 100.069 1.25235 98.1511 1.25235H46.0544Z" fill="#230604"/>
<path d="M48.4549 10.4746V9.78278H50.022V15.8093H49.2551V10.4746H48.4549ZM52.4252 12.6752C52.114 12.5529 51.8751 12.3751 51.7084 12.1417C51.5417 11.9083 51.4583 11.6249 51.4583 11.2915C51.4583 10.9914 51.5333 10.7219 51.6834 10.483C51.8334 10.2384 52.0557 10.0467 52.3502 9.90781C52.6503 9.76333 53.0115 9.69109 53.4338 9.69109C53.8561 9.69109 54.2146 9.76333 54.5091 9.90781C54.8092 10.0467 55.0342 10.2384 55.1843 10.483C55.3399 10.7219 55.4177 10.9914 55.4177 11.2915C55.4177 11.6138 55.3315 11.8972 55.1593 12.1417C54.987 12.3807 54.7508 12.5585 54.4507 12.6752C54.7953 12.7808 55.0676 12.9669 55.2676 13.2337C55.4732 13.4948 55.576 13.8116 55.576 14.1839C55.576 14.5451 55.4871 14.8619 55.3093 15.1342C55.1315 15.4009 54.8786 15.6093 54.5508 15.7593C54.2285 15.9038 53.8561 15.976 53.4338 15.976C53.0115 15.976 52.6392 15.9038 52.3169 15.7593C52.0001 15.6093 51.7528 15.4009 51.575 15.1342C51.3972 14.8619 51.3083 14.5451 51.3083 14.1839C51.3083 13.8116 51.4083 13.4921 51.6083 13.2253C51.8084 12.9586 52.0807 12.7752 52.4252 12.6752ZM54.6841 11.3832C54.6841 11.0442 54.573 10.783 54.3507 10.5997C54.1284 10.4163 53.8228 10.3246 53.4338 10.3246C53.0504 10.3246 52.7475 10.4163 52.5252 10.5997C52.303 10.783 52.1918 11.047 52.1918 11.3915C52.1918 11.7027 52.3057 11.9528 52.5336 12.1417C52.767 12.3307 53.0671 12.4251 53.4338 12.4251C53.8061 12.4251 54.1062 12.3307 54.334 12.1417C54.5674 11.9472 54.6841 11.6944 54.6841 11.3832ZM53.4338 13.0086C53.0226 13.0086 52.6864 13.1059 52.4252 13.3003C52.164 13.4893 52.0335 13.7755 52.0335 14.1589C52.0335 14.5145 52.1585 14.8007 52.4086 15.0175C52.6642 15.2342 53.0059 15.3425 53.4338 15.3425C53.8617 15.3425 54.2007 15.2342 54.4507 15.0175C54.7008 14.8007 54.8258 14.5145 54.8258 14.1589C54.8258 13.7866 54.698 13.5032 54.4424 13.3087C54.1868 13.1086 53.8506 13.0086 53.4338 13.0086ZM56.9502 15.8593C56.8057 15.8593 56.6835 15.8093 56.5835 15.7093C56.4834 15.6093 56.4334 15.487 56.4334 15.3425C56.4334 15.1981 56.4834 15.0758 56.5835 14.9758C56.6835 14.8758 56.8057 14.8257 56.9502 14.8257C57.0891 14.8257 57.2058 14.8758 57.3003 14.9758C57.4003 15.0758 57.4503 15.1981 57.4503 15.3425C57.4503 15.487 57.4003 15.6093 57.3003 15.7093C57.2058 15.8093 57.0891 15.8593 56.9502 15.8593ZM56.9502 12.2918C56.8057 12.2918 56.6835 12.2417 56.5835 12.1417C56.4834 12.0417 56.4334 11.9194 56.4334 11.775C56.4334 11.6305 56.4834 11.5082 56.5835 11.4082C56.6835 11.3082 56.8057 11.2582 56.9502 11.2582C57.0891 11.2582 57.2058 11.3082 57.3003 11.4082C57.4003 11.5082 57.4503 11.6305 57.4503 11.775C57.4503 11.9194 57.4003 12.0417 57.3003 12.1417C57.2058 12.2417 57.0891 12.2918 56.9502 12.2918ZM58.358 12.7335C58.358 11.7777 58.5136 11.0331 58.8248 10.4996C59.136 9.9606 59.6806 9.69109 60.4585 9.69109C61.231 9.69109 61.7728 9.9606 62.084 10.4996C62.3951 11.0331 62.5507 11.7777 62.5507 12.7335C62.5507 13.706 62.3951 14.4618 62.084 15.0008C61.7728 15.5398 61.231 15.8093 60.4585 15.8093C59.6806 15.8093 59.136 15.5398 58.8248 15.0008C58.5136 14.4618 58.358 13.706 58.358 12.7335ZM61.8006 12.7335C61.8006 12.2501 61.7672 11.8416 61.7005 11.5082C61.6394 11.1692 61.5088 10.897 61.3088 10.6913C61.1143 10.4857 60.8309 10.3829 60.4585 10.3829C60.0807 10.3829 59.7917 10.4857 59.5917 10.6913C59.3972 10.897 59.2666 11.1692 59.1999 11.5082C59.1388 11.8416 59.1082 12.2501 59.1082 12.7335C59.1082 13.2337 59.1388 13.6532 59.1999 13.9922C59.2666 14.3312 59.3972 14.6035 59.5917 14.8091C59.7917 15.0147 60.0807 15.1175 60.4585 15.1175C60.8309 15.1175 61.1143 15.0147 61.3088 14.8091C61.5088 14.6035 61.6394 14.3312 61.7005 13.9922C61.7672 13.6532 61.8006 13.2337 61.8006 12.7335ZM63.5921 12.7335C63.5921 11.7777 63.7477 11.0331 64.0589 10.4996C64.3701 9.9606 64.9147 9.69109 65.6926 9.69109C66.4651 9.69109 67.0069 9.9606 67.3181 10.4996C67.6292 11.0331 67.7848 11.7777 67.7848 12.7335C67.7848 13.706 67.6292 14.4618 67.3181 15.0008C67.0069 15.5398 66.4651 15.8093 65.6926 15.8093C64.9147 15.8093 64.3701 15.5398 64.0589 15.0008C63.7477 14.4618 63.5921 13.706 63.5921 12.7335ZM67.0346 12.7335C67.0346 12.2501 67.0013 11.8416 66.9346 11.5082C66.8735 11.1692 66.7429 10.897 66.5429 10.6913C66.3484 10.4857 66.065 10.3829 65.6926 10.3829C65.3148 10.3829 65.0258 10.4857 64.8257 10.6913C64.6312 10.897 64.5007 11.1692 64.434 11.5082C64.3728 11.8416 64.3423 12.2501 64.3423 12.7335C64.3423 13.2337 64.3728 13.6532 64.434 13.9922C64.5007 14.3312 64.6312 14.6035 64.8257 14.8091C65.0258 15.0147 65.3148 15.1175 65.6926 15.1175C66.065 15.1175 66.3484 15.0147 66.5429 14.8091C66.7429 14.6035 66.8735 14.3312 66.9346 13.9922C67.0013 13.6532 67.0346 13.2337 67.0346 12.7335ZM74.6077 14.5173H72.0737L71.6069 15.8093H70.8067L72.9072 10.0328H73.7825L75.8747 15.8093H75.0745L74.6077 14.5173ZM74.391 13.9005L73.3407 10.9664L72.2904 13.9005H74.391ZM82.6833 10.0412V15.8093H81.9248V11.5082L80.0076 15.8093H79.4742L77.5487 11.4999V15.8093H76.7901V10.0412H77.607L79.7409 14.8091L81.8748 10.0412H82.6833Z" fill="#D3CDCD"/>
<rect x="48.833" y="24.5222" width="6.25161" height="6.25161" fill="#EE8935"/>
<path d="M59.8637 24.2552V23.3772H64.7983V24.2552H59.8637ZM60.3083 27.6005V26.7336H64.3538V27.6005H60.3083ZM59.6414 31.3126V30.4346H65.0206V31.3126H59.6414ZM69.0471 25.2999C69.0989 24.6182 69.362 24.0848 69.8362 23.6995C70.3103 23.3142 70.9253 23.1216 71.6811 23.1216C72.1849 23.1216 72.6183 23.2142 72.9814 23.3994C73.3519 23.5772 73.6297 23.8217 73.815 24.1329C74.0076 24.4441 74.1039 24.7961 74.1039 25.1888C74.1039 25.6481 73.9705 26.0445 73.7038 26.378C73.4445 26.7114 73.1037 26.9262 72.6813 27.0226V27.0781C73.1629 27.1967 73.5445 27.4301 73.8261 27.7783C74.1076 28.1266 74.2484 28.5822 74.2484 29.1453C74.2484 29.5677 74.1521 29.9492 73.9594 30.2901C73.7668 30.6235 73.4778 30.8865 73.0925 31.0792C72.7073 31.2718 72.2442 31.3681 71.7033 31.3681C70.9179 31.3681 70.2733 31.1644 69.7695 30.7569C69.2656 30.3419 68.9841 29.7566 68.9248 29.0009H69.9028C69.9547 29.4454 70.1362 29.8085 70.4474 30.09C70.7586 30.3716 71.1735 30.5124 71.6922 30.5124C72.2108 30.5124 72.6035 30.379 72.8703 30.1123C73.1444 29.8381 73.2815 29.4862 73.2815 29.0564C73.2815 28.5007 73.0962 28.1006 72.7258 27.8561C72.3553 27.6116 71.7959 27.4894 71.0476 27.4894H70.792V26.6447H71.0587C71.7403 26.6373 72.2553 26.5261 72.6035 26.3113C72.9518 26.089 73.1259 25.7482 73.1259 25.2888C73.1259 24.8961 72.9962 24.5812 72.7369 24.3441C72.485 24.107 72.1219 23.9885 71.6477 23.9885C71.1884 23.9885 70.8179 24.107 70.5363 24.3441C70.2548 24.5812 70.0881 24.8998 70.0362 25.2999H69.0471ZM75.3472 24.1996V23.2772H77.4366V31.3126H76.4141V24.1996H75.3472ZM79.6629 31.3792C79.4703 31.3792 79.3072 31.3126 79.1739 31.1792C79.0405 31.0458 78.9738 30.8828 78.9738 30.6902C78.9738 30.4975 79.0405 30.3345 79.1739 30.2012C79.3072 30.0678 79.4703 30.0011 79.6629 30.0011C79.8481 30.0011 80.0037 30.0678 80.1297 30.2012C80.2631 30.3345 80.3297 30.4975 80.3297 30.6902C80.3297 30.8828 80.2631 31.0458 80.1297 31.1792C80.0037 31.3126 79.8481 31.3792 79.6629 31.3792ZM81.2629 29.5232V28.7563L85.1639 23.355H86.3753V28.6452H87.4867V29.5232H86.3753V31.3126H85.375V29.5232H81.2629ZM85.4195 24.4108L82.4298 28.6452H85.4195V24.4108ZM93.6206 24.1552H89.7196V26.6892C89.89 26.4521 90.1419 26.2594 90.4753 26.1112C90.8087 25.9556 91.1681 25.8778 91.5534 25.8778C92.1683 25.8778 92.6685 26.0075 93.0538 26.2668C93.439 26.5187 93.7132 26.8485 93.8762 27.256C94.0466 27.6561 94.1318 28.0821 94.1318 28.5341C94.1318 29.0675 94.0318 29.5454 93.8317 29.9678C93.6317 30.3901 93.3242 30.7235 92.9093 30.968C92.5018 31.2125 91.9942 31.3348 91.3867 31.3348C90.6087 31.3348 89.9789 31.1347 89.4973 30.7346C89.0157 30.3345 88.723 29.8011 88.6193 29.1342H89.6084C89.7047 29.5566 89.9085 29.8863 90.2197 30.1234C90.5309 30.3605 90.9236 30.479 91.3978 30.479C91.9831 30.479 92.424 30.3049 92.7203 29.9567C93.0167 29.601 93.1649 29.1342 93.1649 28.5563C93.1649 27.9784 93.0167 27.5338 92.7203 27.2226C92.424 26.904 91.9868 26.7447 91.4089 26.7447C91.0162 26.7447 90.6717 26.841 90.3753 27.0337C90.0863 27.2189 89.8752 27.4745 89.7418 27.8005H88.786V23.266H93.6206V24.1552Z" fill="white"/>
<defs>
<filter id="filter0_ddddd_1006:7098" x="0.209221" y="0.620299" width="64.6001" height="69.7221" filterUnits="userSpaceOnUse" color-interpolation-filters="sRGB">
<feFlood flood-opacity="0" result="BackgroundImageFix"/>
<feColorMatrix in="SourceAlpha" type="matrix" values="0 0 0 0 0 0 0 0 0 0 0 0 0 0 0 0 0 0 127 0" result="hardAlpha"/>
<feOffset dy="-0.0350972"/>
<feGaussianBlur stdDeviation="5.63972"/>
<feColorMatrix type="matrix" values="0 0 0 0 0 0 0 0 0 0 0 0 0 0 0 0 0 0 0.01 0"/>
<feBlend mode="normal" in2="BackgroundImageFix" result="effect1_dropShadow_1006:7098"/>
<feColorMatrix in="SourceAlpha" type="matrix" values="0 0 0 0 0 0 0 0 0 0 0 0 0 0 0 0 0 0 127 0" result="hardAlpha"/>
<feOffset dy="0.417847"/>
<feGaussianBlur stdDeviation="7.63239"/>
<feColorMatrix type="matrix" values="0 0 0 0 0 0 0 0 0 0 0 0 0 0 0 0 0 0 0.0101183 0"/>
<feBlend mode="normal" in2="effect1_dropShadow_1006:7098" result="effect2_dropShadow_1006:7098"/>
<feColorMatrix in="SourceAlpha" type="matrix" values="0 0 0 0 0 0 0 0 0 0 0 0 0 0 0 0 0 0 127 0" result="hardAlpha"/>
<feOffset dy="1.77644"/>
<feGaussianBlur stdDeviation="7.69511"/>
<feColorMatrix type="matrix" values="0 0 0 0 0 0 0 0 0 0 0 0 0 0 0 0 0 0 0.0162738 0"/>
<feBlend mode="normal" in2="effect2_dropShadow_1006:7098" result="effect3_dropShadow_1006:7098"/>
<feColorMatrix in="SourceAlpha" type="matrix" values="0 0 0 0 0 0 0 0 0 0 0 0 0 0 0 0 0 0 127 0" result="hardAlpha"/>
<feOffset dy="5.29937"/>
<feGaussianBlur stdDeviation="9.0963"/>
<feColorMatrix type="matrix" values="0 0 0 0 0 0 0 0 0 0 0 0 0 0 0 0 0 0 0.0322881 0"/>
<feBlend mode="normal" in2="effect3_dropShadow_1006:7098" result="effect4_dropShadow_1006:7098"/>
<feColorMatrix in="SourceAlpha" type="matrix" values="0 0 0 0 0 0 0 0 0 0 0 0 0 0 0 0 0 0 127 0" result="hardAlpha"/>
<feOffset dy="18.0602"/>
<feGaussianBlur stdDeviation="13.8925"/>
<feColorMatrix type="matrix" values="0 0 0 0 0 0 0 0 0 0 0 0 0 0 0 0 0 0 0.04 0"/>
<feBlend mode="normal" in2="effect4_dropShadow_1006:7098" result="effect5_dropShadow_1006:7098"/>
<feBlend mode="normal" in="SourceGraphic" in2="effect5_dropShadow_1006:7098" result="shape"/>
</filter>
</defs>
</svg>
