<svg width="411" height="135" viewBox="0 0 411 135" fill="none" xmlns="http://www.w3.org/2000/svg">
<path d="M6.04903 132.229L0.121582 134.546V167.429H533.592V157.009L527.665 146.609C521.737 136.209 509.882 115.41 498.027 100.893C486.172 86.3771 474.318 78.1443 462.463 81.2574C450.608 84.3705 438.753 98.8294 426.898 93.9765C415.043 89.1235 403.188 64.9587 391.333 71.5475C379.478 78.1363 367.623 115.479 355.769 116.187C343.914 116.894 332.059 80.9679 320.204 55.3713C308.349 29.7747 296.494 14.5081 284.639 6.53958C272.784 -1.42892 260.929 -2.09933 249.074 4.59168C237.22 11.2827 225.365 25.3351 213.51 27.4825C201.655 29.63 189.8 19.8724 177.945 14.9761C166.09 10.0799 154.235 10.045 142.38 9.92321L142.148 9.92081C130.37 9.79926 118.593 9.67771 106.816 22.5684C94.9608 35.544 83.1059 61.7039 71.251 80.2472C59.3961 98.7905 47.5412 109.717 35.6863 117.498C23.8314 125.278 11.9765 129.912 6.04903 132.229Z" fill="url(#paint0_linear_1006:7097)"/>
<defs>
<linearGradient id="paint0_linear_1006:7097" x1="266.857" y1="0.0244751" x2="266.857" y2="167.429" gradientUnits="userSpaceOnUse">
<stop stop-color="#EE8935" stop-opacity="0.13"/>
<stop offset="1" stop-color="#EE8935" stop-opacity="0"/>
</linearGradient>
</defs>
</svg>
