<svg width="13" height="13" viewBox="0 0 13 13" fill="none" xmlns="http://www.w3.org/2000/svg">
<path d="M7.4001 0.699976C7.4001 0.540846 7.33688 0.388233 7.22436 0.275711C7.11184 0.16319 6.95923 0.0999756 6.8001 0.0999756C6.64097 0.0999756 6.48836 0.16319 6.37583 0.275711C6.26331 0.388233 6.2001 0.540846 6.2001 0.699976V5.69998H1.2001C1.04097 5.69998 0.888355 5.76319 0.775834 5.87571C0.663312 5.98823 0.600098 6.14085 0.600098 6.29998C0.600098 6.45911 0.663312 6.61172 0.775834 6.72424C0.888355 6.83676 1.04097 6.89998 1.2001 6.89998H6.2001V11.9C6.2001 12.0591 6.26331 12.2117 6.37583 12.3242C6.48836 12.4368 6.64097 12.5 6.8001 12.5C6.95923 12.5 7.11184 12.4368 7.22436 12.3242C7.33688 12.2117 7.4001 12.0591 7.4001 11.9V6.89998H12.4001C12.5592 6.89998 12.7118 6.83676 12.8244 6.72424C12.9369 6.61172 13.0001 6.45911 13.0001 6.29998C13.0001 6.14085 12.9369 5.98823 12.8244 5.87571C12.7118 5.76319 12.5592 5.69998 12.4001 5.69998H7.4001V0.699976Z" fill="#230604"/>
</svg>
