<svg width="22" height="21" viewBox="0 0 22 21" fill="none" xmlns="http://www.w3.org/2000/svg">
<path fill-rule="evenodd" clip-rule="evenodd" d="M0.84111 0.704297C1.11359 0.431864 1.55534 0.431906 1.82777 0.704391L10.635 9.51334L19.4458 0.704297C19.7182 0.431864 20.16 0.431906 20.4324 0.704391C20.7049 0.976876 20.7048 1.41862 20.4323 1.69105L11.6225 10.4992L20.4324 19.309C20.7048 19.5815 20.7048 20.0232 20.4324 20.2957C20.1599 20.5681 19.7182 20.5681 19.4457 20.2957L10.6367 11.4867L1.82772 20.2957C1.55526 20.5681 1.11352 20.5681 0.841063 20.2957C0.568604 20.0232 0.568604 19.5815 0.841063 19.309L9.64922 10.5008L0.841016 1.69096C0.568583 1.41847 0.568625 0.97673 0.84111 0.704297Z" fill="#230604" stroke="#230604" stroke-linecap="round" stroke-linejoin="round"/>
</svg>
