<svg width="16" height="18" viewBox="0 0 16 18" fill="none" xmlns="http://www.w3.org/2000/svg">
<path d="M9.595 10.65C9.46138 10.6826 9.32688 10.7115 9.19167 10.7367C8.45784 10.8748 7.70443 10.872 6.97167 10.7283C6.84333 10.7033 6.66167 10.6592 6.4275 10.5967L5.66 11.5942C3.76583 11.5333 3.04583 10.2642 3.04583 10.2642C3.04583 7.44666 4.28 5.1625 4.28 5.1625C5.51417 4.21833 6.68833 4.24416 6.68833 4.24416L7.02417 4.68166C7.05512 4.67733 7.08627 4.67454 7.1175 4.67333C7.75767 4.58847 8.40642 4.59128 9.04583 4.68166L9.41417 4.24416C9.41417 4.24416 10.5892 4.21833 11.8225 5.16333C11.8225 5.16333 13.0575 7.44666 13.0575 10.2642C13.0575 10.2642 12.3283 11.5325 10.4342 11.5942L9.595 10.6492V10.65ZM6.39667 7.66666C5.89583 7.66666 5.5 8.04166 5.5 8.5C5.5 8.95833 5.90417 9.33333 6.39667 9.33333C6.89667 9.33333 7.2925 8.95833 7.2925 8.5C7.30083 8.04166 6.8975 7.66666 6.39667 7.66666ZM9.60333 7.66666C9.10333 7.66666 8.7075 8.04166 8.7075 8.5C8.7075 8.95833 9.11167 9.33333 9.60333 9.33333C10.1042 9.33333 10.5 8.95833 10.5 8.5C10.5 8.04166 10.1042 7.66666 9.60333 7.66666ZM15.5 17.6667L11.3417 13.5H13.8333V1.83333H2.16667V13.5H11.3358L11.8108 15.1667H2.16667C1.72464 15.1667 1.30072 14.9911 0.988155 14.6785C0.675595 14.3659 0.5 13.942 0.5 13.5V1.83333C0.5 1.3913 0.675595 0.96738 0.988155 0.654819C1.30072 0.342259 1.72464 0.166664 2.16667 0.166664H13.8333C14.2754 0.166664 14.6993 0.342259 15.0118 0.654819C15.3244 0.96738 15.5 1.3913 15.5 1.83333V17.6667Z" fill="#7289D9"/>
</svg>
