<svg width="14" height="14" viewBox="0 0 14 14" fill="none" xmlns="http://www.w3.org/2000/svg">
<path d="M12.468 1.20827L5.10227 1.20826C4.91044 1.20826 4.75507 1.36363 4.75509 1.55544C4.75509 1.74727 4.91046 1.90264 5.10227 1.90262L11.6297 1.90262L0.928385 12.604C0.792672 12.7397 0.792672 12.9593 0.928385 13.095C1.0641 13.2308 1.28373 13.2308 1.41945 13.095L12.1208 2.39368L12.1208 8.92114C12.1208 9.11297 12.2762 9.26834 12.468 9.26831C12.5639 9.26831 12.6507 9.22946 12.7135 9.16664C12.7763 9.10383 12.8151 9.01703 12.8152 8.92111L12.8152 1.55542C12.8152 1.36364 12.6598 1.20827 12.468 1.20827Z" fill="#52AFB2" stroke="#52AFB2" stroke-width="0.5"/>
</svg>
