<svg width="20" height="17" viewBox="0 0 20 17" fill="none" xmlns="http://www.w3.org/2000/svg">
<path d="M16.5 0C16.7761 0 17 0.223858 17 0.5V11.5C17 11.7761 17.2239 12 17.5 12H18.9597C19.3789 12 19.612 12.485 19.3501 12.8123L16.3904 16.512C16.1903 16.7622 15.8097 16.7622 15.6096 16.512L12.6499 12.8123C12.388 12.485 12.6211 12 13.0403 12H14.5C14.7761 12 15 11.7761 15 11.5V0.5C15 0.223858 15.2239 0 15.5 0H16.5ZM8 14C8.55229 14 9 14.4477 9 15C9 15.5523 8.55229 16 8 16H1C0.447715 16 0 15.5523 0 15C0 14.4477 0.447715 14 1 14H8ZM10 7C10.5523 7 11 7.44772 11 8C11 8.55229 10.5523 9 10 9H1C0.447715 9 0 8.55229 0 8C0 7.44772 0.447715 7 1 7H10ZM10 0C10.5523 0 11 0.447715 11 1C11 1.55228 10.5523 2 10 2H1C0.447715 2 0 1.55228 0 1C0 0.447715 0.447715 0 1 0H10Z" fill="#230604"/>
</svg>
