<svg width="58" height="26" viewBox="0 0 58 26" fill="none" xmlns="http://www.w3.org/2000/svg">
<path d="M0.241211 12.7568C0.241211 5.85328 5.83765 0.256836 12.7412 0.256836H44.7412C51.6448 0.256836 57.2412 5.85328 57.2412 12.7568C57.2412 19.6604 51.6448 25.2568 44.7412 25.2568H12.7412C5.83765 25.2568 0.241211 19.6604 0.241211 12.7568Z" fill="#FEE5F4"/>
<path fill-rule="evenodd" clip-rule="evenodd" d="M16.2407 6.25684C13.7554 6.25684 11.7407 8.27155 11.7407 10.7568C11.7407 13.2421 13.7554 15.2568 16.2407 15.2568C18.726 15.2568 20.7407 13.2421 20.7407 10.7568C20.7407 8.27155 18.726 6.25684 16.2407 6.25684ZM10.7407 10.7568C10.7407 7.71927 13.2032 5.25684 16.2407 5.25684C19.2783 5.25684 21.7407 7.71927 21.7407 10.7568C21.7407 13.7944 19.2783 16.2568 16.2407 16.2568C13.2032 16.2568 10.7407 13.7944 10.7407 10.7568Z" fill="#E776BD"/>
<path fill-rule="evenodd" clip-rule="evenodd" d="M10.5742 10.7568C10.5742 7.62714 13.1113 5.09009 16.2409 5.09009C19.3705 5.09009 21.9076 7.62714 21.9076 10.7568C21.9076 13.8864 19.3705 16.4234 16.2409 16.4234C13.1113 16.4234 10.5742 13.8864 10.5742 10.7568ZM16.2409 5.42342C13.2954 5.42342 10.9076 7.81124 10.9076 10.7568C10.9076 13.7023 13.2954 16.0901 16.2409 16.0901C19.1864 16.0901 21.5742 13.7023 21.5742 10.7568C21.5742 7.81124 19.1864 5.42342 16.2409 5.42342ZM16.2409 6.42342C13.8477 6.42342 11.9076 8.36352 11.9076 10.7568C11.9076 13.15 13.8477 15.0901 16.2409 15.0901C18.6341 15.0901 20.5742 13.15 20.5742 10.7568C20.5742 8.36352 18.6341 6.42342 16.2409 6.42342ZM11.5742 10.7568C11.5742 8.17943 13.6636 6.09009 16.2409 6.09009C18.8182 6.09009 20.9076 8.17943 20.9076 10.7568C20.9076 13.3341 18.8182 15.4234 16.2409 15.4234C13.6636 15.4234 11.5742 13.3341 11.5742 10.7568Z" fill="#E776BD"/>
<path fill-rule="evenodd" clip-rule="evenodd" d="M16.2412 9.32826C15.4522 9.32826 14.8126 9.96786 14.8126 10.7568C14.8126 11.5458 15.4522 12.1854 16.2412 12.1854C17.0302 12.1854 17.6698 11.5458 17.6698 10.7568C17.6698 9.96786 17.0302 9.32826 16.2412 9.32826ZM14.2412 10.7568C14.2412 9.65227 15.1366 8.75684 16.2412 8.75684C17.3458 8.75684 18.2412 9.65227 18.2412 10.7568C18.2412 11.8614 17.3458 12.7568 16.2412 12.7568C15.1366 12.7568 14.2412 11.8614 14.2412 10.7568Z" fill="#E776BD"/>
<path fill-rule="evenodd" clip-rule="evenodd" d="M14.2412 10.7568C14.2412 9.65227 15.1366 8.75684 16.2412 8.75684C17.3458 8.75684 18.2412 9.65227 18.2412 10.7568C18.2412 11.8614 17.3458 12.7568 16.2412 12.7568C15.1366 12.7568 14.2412 11.8614 14.2412 10.7568ZM16.2412 10.1854C15.9256 10.1854 15.6698 10.4412 15.6698 10.7568C15.6698 11.0724 15.9256 11.3283 16.2412 11.3283C16.5568 11.3283 16.8126 11.0724 16.8126 10.7568C16.8126 10.4412 16.5568 10.1854 16.2412 10.1854Z" fill="#E776BD"/>
<path fill-rule="evenodd" clip-rule="evenodd" d="M19.2412 14.2563C19.5174 14.2563 19.7412 14.4802 19.7412 14.7563V19.7567C19.7412 19.9299 19.6515 20.0909 19.5041 20.182C19.3567 20.2731 19.1726 20.2814 19.0176 20.2039L16.2408 18.8157L13.4648 20.2039C13.3098 20.2814 13.1258 20.2731 12.9784 20.182C12.8309 20.0909 12.7412 19.93 12.7412 19.7567V14.7568C12.7412 14.4806 12.9651 14.2568 13.2412 14.2568C13.5174 14.2568 13.7412 14.4806 13.7412 14.7568V18.9476L16.0171 17.8095C16.1579 17.7391 16.3236 17.7391 16.4644 17.8094L18.7412 18.9477V14.7563C18.7412 14.4802 18.9651 14.2563 19.2412 14.2563Z" fill="#E776BD"/>
<path fill-rule="evenodd" clip-rule="evenodd" d="M18.5747 14.7565C18.5747 14.3883 18.8732 14.0898 19.2414 14.0898C19.6096 14.0898 19.908 14.3883 19.908 14.7565V19.7568C19.908 19.9879 19.7884 20.2024 19.5919 20.3239C19.3953 20.4454 19.1499 20.4564 18.9433 20.3531L16.241 19.0022L13.5396 20.3531C13.3329 20.4564 13.0875 20.4454 12.8909 20.3239C12.6943 20.2025 12.5747 19.9879 12.5747 19.7568V14.7569C12.5747 14.3888 12.8732 14.0903 13.2414 14.0903C13.6096 14.0903 13.908 14.3888 13.908 14.7569V18.6781L15.9428 17.6606C16.1304 17.5667 16.3514 17.5667 16.539 17.6605L18.5747 18.6782V14.7565ZM19.2414 14.4232C19.0573 14.4232 18.908 14.5724 18.908 14.7565V18.9479C18.908 19.0056 18.8781 19.0593 18.829 19.0896C18.7799 19.12 18.7185 19.1228 18.6668 19.0969L16.39 17.9587C16.2961 17.9118 16.1857 17.9118 16.0918 17.9587L13.8159 19.0968C13.7643 19.1227 13.7029 19.1199 13.6538 19.0895C13.6046 19.0592 13.5747 19.0055 13.5747 18.9478V14.7569C13.5747 14.5729 13.4255 14.4236 13.2414 14.4236C13.0573 14.4236 12.908 14.5729 12.908 14.7569V19.7568C12.908 19.8724 12.9679 19.9796 13.0661 20.0404C13.1644 20.1011 13.2871 20.1066 13.3905 20.055L16.1664 18.6668C16.2133 18.6433 16.2686 18.6433 16.3155 18.6668L19.0923 20.055C19.1956 20.1066 19.3184 20.1011 19.4166 20.0404C19.5149 19.9796 19.5747 19.8723 19.5747 19.7568V14.7565C19.5747 14.5724 19.4255 14.4232 19.2414 14.4232Z" fill="#E776BD"/>
<path d="M37.8172 10.9708L37.3552 13.1268H39.1332V14.8768H36.9772L36.4732 17.2568H34.6112L35.1152 14.8768H32.5672L32.0632 17.2568H30.2152L30.7192 14.8768H28.6052V13.1268H31.0972L31.5592 10.9708H29.4592V9.22084H31.9372L32.4272 6.89684H34.2752L33.7852 9.22084H36.3332L36.8232 6.89684H38.6852L38.1952 9.22084H39.9872V10.9708H37.8172ZM35.9552 10.9708H33.4072L32.9452 13.1268H35.4932L35.9552 10.9708ZM42.0133 15.0448C42.9093 14.2982 43.6233 13.6775 44.1553 13.1828C44.6873 12.6788 45.1306 12.1562 45.4853 11.6148C45.8399 11.0735 46.0173 10.5415 46.0173 10.0188C46.0173 9.54284 45.9053 9.1695 45.6813 8.89884C45.4573 8.62817 45.1119 8.49284 44.6453 8.49284C44.1786 8.49284 43.8193 8.6515 43.5673 8.96884C43.3153 9.27684 43.1846 9.7015 43.1753 10.2428H41.2713C41.3086 9.12284 41.6399 8.2735 42.2653 7.69484C42.8999 7.11617 43.7026 6.82684 44.6733 6.82684C45.7373 6.82684 46.5539 7.1115 47.1233 7.68084C47.6926 8.24084 47.9773 8.98284 47.9773 9.90684C47.9773 10.6348 47.7813 11.3302 47.3893 11.9928C46.9973 12.6555 46.5493 13.2342 46.0453 13.7288C45.5413 14.2142 44.8833 14.8022 44.0713 15.4928H48.2013V17.1168H41.2853V15.6608L42.0133 15.0448Z" fill="#E776BD"/>
</svg>
