<svg width="59" height="26" viewBox="0 0 59 26" fill="none" xmlns="http://www.w3.org/2000/svg">
<path d="M0.241211 12.7568C0.241211 5.85328 5.83765 0.256836 12.7412 0.256836H45.7412C52.6448 0.256836 58.2412 5.85328 58.2412 12.7568C58.2412 19.6604 52.6448 25.2568 45.7412 25.2568H12.7412C5.83765 25.2568 0.241211 19.6604 0.241211 12.7568Z" fill="#FFE0DE"/>
<path d="M21.5011 11.1236C21.4457 11.0137 21.361 10.9212 21.2562 10.8565C21.1515 10.7918 21.0309 10.7573 20.9078 10.7569H17.5745V6.75695C17.5816 6.61073 17.5404 6.46623 17.4573 6.34575C17.3742 6.22526 17.2537 6.13548 17.1145 6.09028C16.9806 6.04624 16.8362 6.04575 16.7021 6.08887C16.5679 6.13198 16.4509 6.2165 16.3678 6.33028L11.0345 13.6636C10.9676 13.7602 10.9275 13.8727 10.9181 13.9898C10.9088 14.1068 10.9305 14.2243 10.9811 14.3303C11.0277 14.4514 11.1087 14.5564 11.2141 14.6322C11.3195 14.708 11.4448 14.7513 11.5745 14.7569H14.9078V18.7569C14.9079 18.8975 14.9524 19.0345 15.035 19.1482C15.1177 19.262 15.2341 19.3467 15.3678 19.3903C15.4348 19.411 15.5043 19.4223 15.5745 19.4236C15.6796 19.4239 15.7834 19.3993 15.8773 19.3518C15.9711 19.3043 16.0524 19.2352 16.1145 19.1503L21.4478 11.8169C21.5196 11.7175 21.5626 11.6001 21.572 11.4778C21.5814 11.3555 21.5569 11.2329 21.5011 11.1236ZM16.2411 16.7036V14.0903C16.2411 13.9135 16.1709 13.7439 16.0459 13.6189C15.9208 13.4939 15.7513 13.4236 15.5745 13.4236H12.9078L16.2411 8.81028V11.4236C16.2411 11.6004 16.3114 11.77 16.4364 11.895C16.5614 12.02 16.731 12.0903 16.9078 12.0903H19.5745L16.2411 16.7036Z" fill="#DF496E"/>
<path d="M37.8172 10.9708L37.3552 13.1268H39.1332V14.8768H36.9772L36.4732 17.2568H34.6112L35.1152 14.8768H32.5672L32.0632 17.2568H30.2152L30.7192 14.8768H28.6052V13.1268H31.0972L31.5592 10.9708H29.4592V9.22084H31.9372L32.4272 6.89684H34.2752L33.7852 9.22084H36.3332L36.8232 6.89684H38.6852L38.1952 9.22084H39.9872V10.9708H37.8172ZM35.9552 10.9708H33.4072L32.9452 13.1268H35.4932L35.9552 10.9708ZM48.2573 8.74484H43.7213V11.1388C43.9173 10.8962 44.1973 10.7002 44.5613 10.5508C44.9253 10.3922 45.3126 10.3128 45.7233 10.3128C46.4699 10.3128 47.0813 10.4762 47.5573 10.8028C48.0333 11.1295 48.3786 11.5495 48.5933 12.0628C48.8079 12.5668 48.9153 13.1082 48.9153 13.6868C48.9153 14.7602 48.6073 15.6235 47.9913 16.2768C47.3846 16.9302 46.5166 17.2568 45.3873 17.2568C44.3233 17.2568 43.4739 16.9908 42.8393 16.4588C42.2046 15.9268 41.8453 15.2315 41.7613 14.3728H43.6653C43.7493 14.7462 43.9359 15.0448 44.2253 15.2688C44.5239 15.4928 44.9019 15.6048 45.3593 15.6048C45.9099 15.6048 46.3253 15.4322 46.6053 15.0868C46.8853 14.7415 47.0253 14.2842 47.0253 13.7148C47.0253 13.1362 46.8806 12.6975 46.5913 12.3988C46.3113 12.0908 45.8959 11.9368 45.3453 11.9368C44.9533 11.9368 44.6266 12.0348 44.3653 12.2308C44.1039 12.4268 43.9173 12.6882 43.8053 13.0148H41.9293V7.02284H48.2573V8.74484Z" fill="#DF496E"/>
</svg>
