<svg width="58" height="26" viewBox="0 0 58 26" fill="none" xmlns="http://www.w3.org/2000/svg">
<path d="M0.241211 12.7568C0.241211 5.85328 5.83765 0.256836 12.7412 0.256836H44.7412C51.6448 0.256836 57.2412 5.85328 57.2412 12.7568C57.2412 19.6604 51.6448 25.2568 44.7412 25.2568H12.7412C5.83765 25.2568 0.241211 19.6604 0.241211 12.7568Z" fill="#F6E8FF"/>
<path d="M22.9077 11.2036C22.8656 11.0817 22.789 10.9746 22.6873 10.8953C22.5855 10.816 22.4629 10.7679 22.3344 10.7569L18.541 10.2036L16.841 6.75693C16.7864 6.64422 16.7012 6.54916 16.5951 6.48265C16.489 6.41614 16.3663 6.38086 16.241 6.38086C16.1158 6.38086 15.9931 6.41614 15.887 6.48265C15.7809 6.54916 15.6956 6.64422 15.641 6.75693L13.941 10.1969L10.1477 10.7569C10.0243 10.7745 9.90832 10.8262 9.81287 10.9064C9.71742 10.9865 9.64634 11.0918 9.6077 11.2103C9.57233 11.326 9.56916 11.4493 9.59852 11.5667C9.62788 11.6842 9.68867 11.7914 9.77437 11.8769L12.5277 14.5436L11.861 18.3303C11.8372 18.4553 11.8497 18.5844 11.8969 18.7026C11.9442 18.8207 12.0243 18.9228 12.1277 18.9969C12.2285 19.069 12.3474 19.1115 12.4711 19.1198C12.5947 19.128 12.7182 19.1017 12.8277 19.0436L16.241 17.2636L19.641 19.0503C19.7346 19.1031 19.8403 19.1306 19.9477 19.1303C20.0889 19.1308 20.2266 19.0864 20.341 19.0036C20.4445 18.9295 20.5245 18.8274 20.5718 18.7092C20.619 18.5911 20.6315 18.4619 20.6077 18.3369L19.941 14.5503L22.6944 11.8836C22.7906 11.8021 22.8618 11.6949 22.8995 11.5745C22.9373 11.4541 22.9401 11.3255 22.9077 11.2036ZM18.8077 13.8703C18.7295 13.9459 18.671 14.0395 18.6373 14.1429C18.6036 14.2463 18.5957 14.3564 18.6144 14.4636L19.0944 17.2569L16.5877 15.9236C16.4912 15.8722 16.3836 15.8454 16.2744 15.8454C16.1651 15.8454 16.0575 15.8722 15.961 15.9236L13.4544 17.2569L13.9344 14.4636C13.953 14.3564 13.9451 14.2463 13.9114 14.1429C13.8777 14.0395 13.8192 13.9459 13.741 13.8703L11.741 11.8703L14.5477 11.4636C14.6557 11.4486 14.7584 11.4073 14.8467 11.3434C14.935 11.2794 15.0063 11.1948 15.0544 11.0969L16.241 8.55693L17.4944 11.1036C17.5424 11.2015 17.6137 11.2861 17.702 11.35C17.7904 11.414 17.893 11.4552 18.001 11.4703L20.8077 11.8769L18.8077 13.8703Z" fill="#A761D5"/>
<path d="M37.8172 10.9708L37.3552 13.1268H39.1332V14.8768H36.9772L36.4732 17.2568H34.6112L35.1152 14.8768H32.5672L32.0632 17.2568H30.2152L30.7192 14.8768H28.6052V13.1268H31.0972L31.5592 10.9708H29.4592V9.22084H31.9372L32.4272 6.89684H34.2752L33.7852 9.22084H36.3332L36.8232 6.89684H38.6852L38.1952 9.22084H39.9872V10.9708H37.8172ZM35.9552 10.9708H33.4072L32.9452 13.1268H35.4932L35.9552 10.9708ZM41.4253 9.73884C41.4719 8.8055 41.7986 8.08684 42.4053 7.58284C43.0213 7.0695 43.8286 6.81284 44.8273 6.81284C45.5086 6.81284 46.0919 6.93417 46.5773 7.17684C47.0626 7.41017 47.4266 7.73217 47.6693 8.14284C47.9213 8.54417 48.0473 9.0015 48.0473 9.51484C48.0473 10.1028 47.8933 10.6022 47.5853 11.0128C47.2866 11.4142 46.9273 11.6848 46.5073 11.8248V11.8808C47.0486 12.0488 47.4686 12.3475 47.7673 12.7768C48.0753 13.2062 48.2293 13.7568 48.2293 14.4288C48.2293 14.9888 48.0986 15.4882 47.8373 15.9268C47.5853 16.3655 47.2073 16.7108 46.7033 16.9628C46.2086 17.2055 45.6113 17.3268 44.9113 17.3268C43.8566 17.3268 42.9979 17.0608 42.3353 16.5288C41.6726 15.9968 41.3226 15.2128 41.2853 14.1768H43.1893C43.2079 14.6342 43.3619 15.0028 43.6513 15.2828C43.9499 15.5535 44.3559 15.6888 44.8693 15.6888C45.3453 15.6888 45.7093 15.5582 45.9613 15.2968C46.2226 15.0262 46.3533 14.6808 46.3533 14.2608C46.3533 13.7008 46.1759 13.2995 45.8213 13.0568C45.4666 12.8142 44.9159 12.6928 44.1693 12.6928H43.7633V11.0828H44.1693C45.4946 11.0828 46.1573 10.6395 46.1573 9.75284C46.1573 9.3515 46.0359 9.03884 45.7933 8.81484C45.5599 8.59084 45.2193 8.47884 44.7713 8.47884C44.3326 8.47884 43.9919 8.60017 43.7493 8.84284C43.5159 9.07617 43.3806 9.37484 43.3433 9.73884H41.4253Z" fill="#A761D5"/>
</svg>
