<svg width="55" height="26" viewBox="0 0 55 26" fill="none" xmlns="http://www.w3.org/2000/svg">
<path d="M0.241211 12.7568C0.241211 5.85328 5.83765 0.256836 12.7412 0.256836H41.7412C48.6448 0.256836 54.2412 5.85328 54.2412 12.7568C54.2412 19.6604 48.6448 25.2568 41.7412 25.2568H12.7412C5.83765 25.2568 0.241211 19.6604 0.241211 12.7568Z" fill="#DDF9EF"/>
<g clip-path="url(#clip0_1010:8146)">
<path fill-rule="evenodd" clip-rule="evenodd" d="M18.908 8.09017H13.5747C13.2065 8.09017 12.908 8.38865 12.908 8.75684V11.4235C12.908 13.2645 14.4004 14.7568 16.2414 14.7568C18.0823 14.7568 19.5747 13.2645 19.5747 11.4235V8.75684C19.5747 8.38865 19.2762 8.09017 18.908 8.09017ZM13.5747 6.75684C12.4701 6.75684 11.5747 7.65227 11.5747 8.75684V11.4235C11.5747 14.0008 13.664 16.0902 16.2414 16.0902C18.8187 16.0902 20.908 14.0008 20.908 11.4235V8.75684C20.908 7.65227 20.0126 6.75684 18.908 6.75684H13.5747Z" fill="#40B78D"/>
<path fill-rule="evenodd" clip-rule="evenodd" d="M8.90771 10.0902C8.90771 8.98564 9.80315 8.09021 10.9077 8.09021H12.9077V13.4235H11.5744C10.1016 13.4235 8.90771 12.2296 8.90771 10.7569V10.0902ZM10.9077 9.42354H11.5744V12.0902C10.838 12.0902 10.241 11.4933 10.241 10.7569V10.0902C10.241 9.72202 10.5395 9.42354 10.9077 9.42354Z" fill="#40B78D"/>
<path fill-rule="evenodd" clip-rule="evenodd" d="M23.5744 10.0902C23.5744 8.98564 22.679 8.09021 21.5744 8.09021H19.5744V13.4235H20.9077C22.3805 13.4235 23.5744 12.2296 23.5744 10.7569V10.0902ZM21.5744 9.42354H20.9077V12.0902C21.6441 12.0902 22.241 11.4933 22.241 10.7569V10.0902C22.241 9.72202 21.9426 9.42354 21.5744 9.42354Z" fill="#40B78D"/>
<path d="M16.2414 14.7568C15.8732 14.7568 15.5747 15.0553 15.5747 15.4235V17.4235H14.2414C13.8732 17.4235 13.5747 17.722 13.5747 18.0902C13.5747 18.4584 13.8732 18.7568 14.2414 18.7568H18.2414C18.6096 18.7568 18.908 18.4584 18.908 18.0902C18.908 17.722 18.6096 17.4235 18.2414 17.4235H16.908V15.4235C16.908 15.0553 16.6096 14.7568 16.2414 14.7568Z" fill="#40B78D"/>
</g>
<path d="M37.8172 10.9708L37.3552 13.1268H39.1332V14.8768H36.9772L36.4732 17.2568H34.6112L35.1152 14.8768H32.5672L32.0632 17.2568H30.2152L30.7192 14.8768H28.6052V13.1268H31.0972L31.5592 10.9708H29.4592V9.22084H31.9372L32.4272 6.89684H34.2752L33.7852 9.22084H36.3332L36.8232 6.89684H38.6852L38.1952 9.22084H39.9872V10.9708H37.8172ZM35.9552 10.9708H33.4072L32.9452 13.1268H35.4932L35.9552 10.9708ZM41.1593 8.85684V7.05084H44.5333V17.2568H42.5173V8.85684H41.1593Z" fill="#40B78D"/>
<defs>
<clipPath id="clip0_1010:8146">
<rect width="16" height="16" fill="white" transform="translate(8.24121 4.75684)"/>
</clipPath>
</defs>
</svg>
