<svg width="59" height="26" viewBox="0 0 59 26" fill="none" xmlns="http://www.w3.org/2000/svg">
<path d="M0.241211 12.7568C0.241211 5.85328 5.83765 0.256836 12.7412 0.256836H45.7412C52.6448 0.256836 58.2412 5.85328 58.2412 12.7568C58.2412 19.6604 52.6448 25.2568 45.7412 25.2568H12.7412C5.83765 25.2568 0.241211 19.6604 0.241211 12.7568Z" fill="#E1EFFB"/>
<path fill-rule="evenodd" clip-rule="evenodd" d="M19.5561 13.3482C19.9198 13.405 20.1687 13.7459 20.1119 14.1097C19.9838 14.9303 19.5983 15.689 19.011 16.2763C18.4237 16.8636 17.6649 17.2492 16.8443 17.3773C16.4805 17.4341 16.1396 17.1852 16.0828 16.8215C16.026 16.4577 16.2748 16.1167 16.6386 16.0599C17.1801 15.9754 17.6806 15.721 18.0681 15.3335C18.4556 14.946 18.71 14.4455 18.7945 13.904C18.8513 13.5402 19.1923 13.2914 19.5561 13.3482Z" fill="#44A1F5"/>
<path fill-rule="evenodd" clip-rule="evenodd" d="M16.9633 5.44851C17.2258 5.20384 17.6349 5.21087 17.8889 5.46441C19.701 7.27362 22.158 9.95172 22.158 13.5067C22.158 15.0759 21.5347 16.5809 20.4251 17.6904C19.3155 18.8 17.8106 19.4234 16.2414 19.4234C14.6722 19.4234 13.1672 18.8 12.0577 17.6904C10.9481 16.5809 10.3247 15.0759 10.3247 13.5067C10.3247 11.7563 11.203 9.95807 12.1881 8.47304C12.3872 8.1729 12.7886 8.08516 13.0948 8.27489L13.0949 8.27493C13.1011 8.27882 13.1073 8.28281 13.1135 8.2869L14.9705 9.52492L16.8159 5.64963C16.8519 5.57393 16.9019 5.50572 16.9633 5.44856L16.9633 5.44851ZM17.609 7.08524L15.8433 10.7934C15.7601 10.968 15.6052 11.0979 15.4187 11.1494C15.2322 11.2008 15.0325 11.1687 14.8716 11.0614L12.9415 9.7747C12.1839 11.0309 11.658 12.3357 11.658 13.5067C11.658 14.7223 12.1409 15.8881 13.0005 16.7476C13.86 17.6072 15.0258 18.0901 16.2414 18.0901C17.4569 18.0901 18.6227 17.6072 19.4823 16.7476C20.3418 15.8881 20.8247 14.7223 20.8247 13.5067C20.8247 10.9133 19.2404 8.80311 17.609 7.08524Z" fill="#44A1F5"/>
<path d="M37.8172 10.9708L37.3552 13.1268H39.1332V14.8768H36.9772L36.4732 17.2568H34.6112L35.1152 14.8768H32.5672L32.0632 17.2568H30.2152L30.7192 14.8768H28.6052V13.1268H31.0972L31.5592 10.9708H29.4592V9.22084H31.9372L32.4272 6.89684H34.2752L33.7852 9.22084H36.3332L36.8232 6.89684H38.6852L38.1952 9.22084H39.9872V10.9708H37.8172ZM35.9552 10.9708H33.4072L32.9452 13.1268H35.4932L35.9552 10.9708ZM41.3133 15.2688V13.7288L45.8913 7.17684H48.1733V13.5608H49.4053V15.2688H48.1733V17.2568H46.2133V15.2688H41.3133ZM46.3393 9.27684L43.4693 13.5608H46.3393V9.27684Z" fill="#44A1F5"/>
</svg>
