<svg width="17" height="15" viewBox="0 0 17 15" fill="none" xmlns="http://www.w3.org/2000/svg">
<path d="M11.7501 2.125C11.1167 2.12489 10.5086 2.37343 10.0567 2.81714C9.60472 3.26084 9.34501 3.86424 9.33343 4.4975L9.3101 5.81C9.30873 5.88047 9.29248 5.94985 9.26241 6.0136C9.23235 6.07735 9.18914 6.13402 9.13563 6.1799C9.08212 6.22577 9.01952 6.25982 8.95193 6.2798C8.88434 6.29978 8.81328 6.30524 8.74343 6.29583L7.4426 6.11917C5.73093 5.88583 4.09093 5.0975 2.5176 3.78667C2.01926 6.545 2.9926 8.45583 5.33676 9.93L6.7926 10.845C6.86177 10.8885 6.91924 10.9482 6.95997 11.019C7.0007 11.0899 7.02346 11.1696 7.02626 11.2512C7.02906 11.3329 7.0118 11.414 6.97601 11.4874C6.94021 11.5608 6.88697 11.6244 6.82093 11.6725L5.49426 12.6417C6.28343 12.6908 7.0326 12.6558 7.65426 12.5325C11.5859 11.7475 14.2001 8.78916 14.2001 3.90917C14.2001 3.51083 13.3568 2.125 11.7501 2.125ZM7.66676 4.46666C7.68131 3.66337 7.9325 2.88222 8.3889 2.22102C8.84529 1.55981 9.4866 1.04793 10.2325 0.749471C10.9785 0.451011 11.7959 0.379232 12.5824 0.543121C13.3689 0.707011 14.0896 1.09929 14.6543 1.67083C15.2468 1.66667 15.7509 1.81667 16.8784 1.13333C16.5993 2.5 16.4618 3.09333 15.8668 3.90917C15.8668 10.2775 11.9526 13.3742 7.98093 14.1667C5.2576 14.71 1.2976 13.8175 0.162598 12.6325C0.740931 12.5875 3.09093 12.335 4.44926 11.3408C3.3001 10.5833 -1.27407 7.89166 1.73176 0.654999C3.1426 2.3025 4.57343 3.42417 6.02343 4.01917C6.98843 4.415 7.2251 4.40667 7.6676 4.4675L7.66676 4.46666Z" fill="#60A5FA"/>
</svg>
