<svg width="18" height="17" viewBox="0 0 18 17" fill="none" xmlns="http://www.w3.org/2000/svg">
<path d="M9.16683 0.166626C7.51866 0.166626 5.90749 0.655367 4.53708 1.57105C3.16667 2.48672 2.09857 3.78821 1.46784 5.31093C0.837107 6.83365 0.672079 8.5092 0.993623 10.1257C1.31517 11.7422 2.10884 13.2271 3.27428 14.3925C4.43971 15.558 5.92457 16.3516 7.54108 16.6732C9.15759 16.9947 10.8331 16.8297 12.3559 16.199C13.8786 15.5682 15.1801 14.5001 16.0957 13.1297C17.0114 11.7593 17.5002 10.1481 17.5002 8.49996C17.5002 7.40561 17.2846 6.32198 16.8658 5.31093C16.447 4.29988 15.8332 3.38122 15.0594 2.6074C14.2856 1.83358 13.3669 1.21975 12.3559 0.800963C11.3448 0.382174 10.2612 0.166626 9.16683 0.166626ZM9.16683 15.1666C7.84829 15.1666 6.55936 14.7756 5.46303 14.0431C4.3667 13.3105 3.51222 12.2694 3.00764 11.0512C2.50305 9.83301 2.37103 8.49256 2.62826 7.19936C2.8855 5.90615 3.52044 4.71826 4.45279 3.78591C5.38514 2.85356 6.57302 2.21863 7.86623 1.96139C9.15944 1.70416 10.4999 1.83618 11.7181 2.34076C12.9362 2.84535 13.9774 3.69983 14.71 4.79616C15.4425 5.89249 15.8335 7.18142 15.8335 8.49996C15.8335 10.2681 15.1311 11.9638 13.8809 13.214C12.6306 14.4642 10.9349 15.1666 9.16683 15.1666ZM11.7502 9.02496L10.0002 8.01663V4.33329C10.0002 4.11228 9.91237 3.90032 9.75609 3.74404C9.59981 3.58776 9.38785 3.49996 9.16683 3.49996C8.94582 3.49996 8.73386 3.58776 8.57758 3.74404C8.4213 3.90032 8.3335 4.11228 8.3335 4.33329V8.49996C8.3335 8.49996 8.3335 8.56663 8.3335 8.59996C8.33843 8.65738 8.3525 8.71364 8.37517 8.76663C8.39233 8.81607 8.41467 8.86355 8.44183 8.90829C8.46464 8.95566 8.49258 9.00037 8.52517 9.04163L8.6585 9.14996L8.7335 9.22496L10.9002 10.475C11.0272 10.5469 11.1709 10.5843 11.3168 10.5833C11.5013 10.5846 11.6811 10.5246 11.8278 10.4127C11.9746 10.3009 12.08 10.1435 12.1277 9.96523C12.1754 9.78698 12.1625 9.59794 12.0912 9.42778C12.0198 9.25761 11.894 9.11593 11.7335 9.02496H11.7502Z" fill="white"/>
</svg>
